<?xml version="1.0" encoding="UTF-8" standalone="yes"?><svg xmlns="http://www.w3.org/2000/svg" xmlns:xlink="http://www.w3.org/1999/xlink" width="297.000mm" height="210.000mm" viewBox="0.000000 0.000000 297.000000 210.000000" stroke-linejoin="round" stroke-linecap="round" fill="none" fill-rule="evenodd"><desc>Composer Export</desc><script type="text/ecmascript"><![CDATA[
if(typeof(top) != "undefined")
{
	top.ShowPaper = ShowPaper;
}
function ShowHotSpot(evt,hotspotid)
{
	var svgDocument = evt.target.ownerDocument;
	var strId = "hotspot."+hotspotid;
	var hotspot = svgDocument.getElementById(strId);
	if(hotspot)
		hotspot.setAttribute("opacity",".5");
}
function HideHotSpot(evt,hotspotid)
{
	var svgDocument = evt.target.ownerDocument;
	var strId = "hotspot."+hotspotid;
	var hotspot = svgDocument.getElementById(strId);
	if(hotspot)
		hotspot.setAttribute("opacity","0");

	var toolTip = svgDocument.getElementById('ToolTip');
	if(toolTip)
		toolTip.setAttribute("visibility","hidden");
}
function ShowToolTip(evt,hotspotid,strTooltip)
{
	if(strTooltip=="")
	return;

	// change text
	var svgDocument = evt.target.ownerDocument;
	var tiptext = svgDocument.getElementById('ToolTipText');
	if( !tiptext )
	return;
	tiptext.firstChild.nodeValue = " " + strTooltip + "  " ;

	// show tooltip before, else some refresh issue

	var toolTip = svgDocument.getElementById('ToolTip');
	if(!toolTip)
	return;

	toolTip.setAttribute("visibility","visible");
	toolTip.setAttribute("opacity",".95");

	// move tooltip
	// get viewbox

	var root = svgDocument.documentElement;
	var vbox = (root.getAttribute("viewBox")).split(' ');
	var x0 = parseFloat(vbox[0]);
	var y0 = parseFloat(vbox[1]);
	var vboxW = parseFloat(vbox[2]);
	var vboxH = parseFloat(vbox[3]);

	// get default width of svg

	var strW = root.getAttribute("width");
	var svgW = parseFloat(strW);
	if(strW.indexOf('mm') != -1)
	svgW *= 3.779;

	var strH = root.getAttribute("height");
	var svgH = parseFloat(strH);
	if(strH.indexOf('mm') != -1)
	svgH *= 3.779;  	// 96 dpi  -> 96/25.4 = 3.779

	// update the viewbox / width / height if svg is embedded in html with zoom fit all
	var realx0 = x0;
	var realy0 = y0;
	var realvboxW = vboxW;
	var realvboxH = vboxH;
	var realsvgW = svgW;
	var realsvgH = svgH;

	if ((typeof(top) == "undefined") || (typeof(top.svgctl1) != "undefined")) // embedded in html
	{
		// get window size in pxl

		svgW = window.innerWidth;
		svgH = window.innerHeight;

		// calculate real viewbox

		realsvgW = svgW;
		realsvgH = svgH;
		if((svgW / svgH) > (vboxW / vboxH))
		{
			realvboxW = (vboxH * svgW) / svgH;
			realvboxH = vboxH;
			realx0 = x0 - (realvboxW - vboxW)/2 ;
		}
		else
		{
			realvboxH = (vboxW * svgH) / svgW;
			realvboxW = vboxW;
			realy0 = y0 - (realvboxH - vboxH)/2 ;
		}
	}

	// get user zoom/pan

	var newScale = root.currentScale;
	var translation = root.currentTranslate;

	// transform pxl to user unit

	var xPos = (((evt.clientX+10- translation.x)/newScale) * realvboxW)/realsvgW  + realx0 ;
	var yPos = (((evt.clientY+5- translation.y)/newScale) * realvboxH)/ realsvgH  + realy0 ;
	var scaleForWidth = ( (1 / newScale) * realvboxH) / realsvgH;

	// move tooltip

	toolTip.setAttribute("transform", "translate(" + xPos + "," + yPos + ")" );

	// resize tooltip

	var fontsize = 12;
	tiptext.setAttribute("font-size",fontsize*scaleForWidth);
	tiptext.setAttribute("y", fontsize*scaleForWidth);
	var tipBG = svgDocument.getElementById('ToolTipBG');
	var outline = tiptext.getBBox();
	if(tipBG)
	{
		tipBG.setAttribute("stroke-width", 1*scaleForWidth);
		tipBG.setAttribute("width", Number(outline.width) );
		tipBG.setAttribute("height", Number(outline.height) + fontsize*.5*scaleForWidth );
	}
	var ToolTipShadow = svgDocument.getElementById('ToolTipShadow');
	if(ToolTipShadow)
	{
		ToolTipShadow.setAttribute("width", Number(outline.width) );
		ToolTipShadow.setAttribute("height", Number(outline.height) + fontsize*.5*scaleForWidth );
		ToolTipShadow.setAttribute("x", 3*scaleForWidth);
		ToolTipShadow.setAttribute("y", 3*scaleForWidth);
	}
}
function ShowPaper()
{
  var svgDocument = getDocument();
  var paper = svgDocument.getElementById("paperID");
  if(paper)
  {
    paper.setAttribute("transform","scale(1)");
    paper.setAttribute("opacity","1");
    paper.setAttribute("visibility","visible");
  }
  var svg = svgDocument.getRootElement();
  if(svg)
  {
    svg.setAttribute("width","307.000mm");
    svg.setAttribute("height","220.000mm");
    svg.setAttribute("viewBox","-5.000000 -5.000000 307.000000 220.000000");
  }
}
]]></script><defs/><g><path style="fill:#ffffff" d="M296.91,209.94L0.05,209.94L0.05,0.05L296.91,0.05z"/><path style="fill:#d7d0c0" d="M243.58,50.24L242.32,51.69L228.81,65.89L227.48,67.56L226.96,69.05L226.96,70.33L227.12,71.35L227.82,72.48L228.81,73.66L229.47,74.00L229.98,74.49L231.49,75.49L232.54,75.90L238.31,78.02L242.49,79.85L246.99,82.35L251.74,85.81L251.83,86.18L252.17,86.52L252.71,86.61L253.41,87.31L253.50,87.68L255.53,90.01L257.51,93.20L258.68,96.37L259.01,98.54L259.01,101.27L258.85,102.61L258.13,104.89L256.51,108.11L253.50,111.78L251.85,113.47L196.10,172.39L194.74,173.88L193.52,175.01L193.57,175.31L194.60,176.66L194.61,177.06L193.93,177.57L191.86,178.67L189.36,179.34L186.85,179.67L183.15,179.68L182.58,190.57L179.55,190.02L177.21,189.36L175.54,188.51L175.28,188.48L173.22,187.00L172.22,185.67L171.73,183.96L171.73,183.11L172.30,172.60L172.53,171.36L173.73,169.73L174.73,168.55L188.57,154.02L189.92,152.53L228.15,112.13L232.64,107.44L233.81,106.04L232.64,104.72L230.96,103.39L229.65,102.50L229.48,102.21L225.63,100.21L219.12,98.04L156.18,79.02L152.51,78.18L149.11,77.74L149.51,69.55L149.52,66.82L147.34,66.66L142.95,66.66L139.61,66.99L136.94,67.50L133.65,68.38L129.92,69.83L127.76,71.17L126.59,72.02L126.15,72.01L125.12,70.49L124.92,70.47L123.91,71.33L123.63,71.72L118.98,76.58L80.92,116.81L79.57,118.29L65.56,133.00L64.64,134.08L63.15,135.45L63.20,135.75L64.23,137.10L64.23,137.49L63.40,138.18L61.82,138.94L59.16,139.78L56.64,140.11L52.78,140.11L52.21,151.00L49.01,150.47L46.52,149.62L44.91,148.92L42.85,147.44L41.85,146.11L41.35,144.40L41.36,143.89L41.93,133.20L42.16,131.80L43.36,130.16L45.86,127.49L103.78,66.23L104.87,65.31L105.94,64.38L107.23,63.33L111.06,60.82L115.07,58.65L120.08,56.64L124.59,55.31L126.36,54.96L128.88,54.38L134.20,53.54L138.21,53.21L142.38,53.04L146.23,53.04L151.06,53.29L154.07,53.62L156.75,53.95L161.43,54.79L167.20,56.15L170.59,56.79L172.43,56.96L173.28,56.96L175.78,56.89L178.44,56.46L181.34,55.47L182.49,54.79L183.74,53.71L186.33,50.95L197.60,39.02L199.08,37.66L200.03,37.10L200.59,37.11z"/><path style="fill:#aca699" d="M244.17,50.79L245.00,51.96L244.92,54.26L244.67,58.92L244.51,60.10L243.54,60.22L242.43,60.32L241.43,60.65L240.25,61.64L240.00,65.93L240.01,67.44L240.16,67.77L239.83,67.88L236.66,71.24L235.31,72.72L232.64,75.40L232.54,75.90L231.49,75.49L229.98,74.49L229.47,74.00L228.81,73.66L227.82,72.48L227.12,71.35L226.96,70.33L226.96,69.05L227.48,67.56L228.81,65.89L242.32,51.69L243.58,50.24z"/><path style="fill:#d3aa21" d="M116.63,21.25L117.49,21.90L117.89,22.69L117.88,23.37L117.82,23.55L117.46,23.99L116.65,24.51L115.79,24.81L113.39,25.09L113.16,29.68L113.07,29.76L113.16,29.91L113.18,31.34L112.27,31.28L110.79,30.59L110.29,29.72L110.28,28.76L110.21,28.71L109.79,28.26L109.63,27.72L109.63,25.87L109.79,22.69L110.13,21.82L110.73,21.25L112.00,20.83L113.00,20.66L113.85,20.66L115.12,20.76z"/><path style="fill:#d3aa21" d="M246.16,60.49L247.50,61.15L248.02,61.80L248.27,62.42L248.17,62.93L247.98,63.36L247.51,63.72L246.16,64.38L243.76,64.65L243.53,69.24L243.44,69.32L243.53,69.47L243.55,70.91L242.71,70.81L241.48,70.33L240.99,69.99L240.67,69.44L240.65,68.31L240.16,67.77L240.01,67.44L240.00,65.93L240.25,61.64L241.43,60.65L242.43,60.32L243.54,60.22L244.55,60.22L244.72,60.23z"/><path style="fill:#d3aa21" d="M58.54,81.34L59.89,82.00L60.72,83.01L60.73,83.45L60.56,84.13L59.87,84.74L58.15,85.36L56.30,85.51L56.03,89.76L55.90,90.11L55.80,90.19L56.07,90.35L55.91,91.77L55.02,91.71L53.87,91.19L53.20,90.53L53.04,89.18L52.51,88.54L52.30,87.53L52.45,85.97L52.64,82.85L52.96,82.17L54.30,81.34L54.92,81.26L56.04,81.03z"/><path style="fill:#d3aa21" d="M188.46,120.82L189.40,121.08L190.76,122.05L191.08,122.74L191.09,123.51L190.97,123.56L190.43,124.16L189.19,124.76L186.67,125.08L186.40,129.32L186.26,129.67L186.17,129.75L186.44,129.91L186.30,131.34L185.45,131.24L184.56,130.93L183.54,130.11L183.41,128.74L182.71,127.75L182.99,122.86L183.09,122.19L183.67,121.41L184.67,120.91L186.45,120.65L187.13,120.65z"/><path style="fill:#a8881b" d="M113.16,29.68L113.39,25.09L115.79,24.81L116.65,24.51L117.46,23.99L117.82,23.55L117.72,26.55L117.58,28.28L116.84,29.07L116.75,29.10L116.73,30.06L116.63,30.34L115.63,31.16L113.46,31.46L113.18,31.34L113.16,29.91L114.80,29.77z"/><path style="fill:#a8881b" d="M243.53,69.24L243.76,64.65L246.16,64.38L247.51,63.72L247.98,63.36L248.17,62.93L248.26,63.44L248.09,66.61L247.95,67.84L247.21,68.63L247.11,68.66L247.09,69.45L246.93,69.99L245.94,70.67L244.88,70.91L243.55,70.91L243.53,69.47L245.00,69.33z"/><path style="fill:#a8881b" d="M55.90,90.11L56.03,89.76L56.30,85.51L58.15,85.36L59.87,84.74L60.56,84.13L60.63,84.97L60.47,88.14L60.37,88.75L60.04,89.25L59.65,89.53L59.54,90.59L58.99,91.21L57.99,91.71L56.76,91.84L56.25,91.86L55.91,91.77L56.07,90.35L56.55,90.20z"/><path style="fill:#a8881b" d="M186.26,129.67L186.40,129.32L186.67,125.08L189.19,124.76L190.43,124.16L190.97,123.56L191.00,125.03L190.84,127.88L190.70,128.44L190.07,128.98L189.92,129.99L189.74,130.32L188.86,131.10L187.79,131.34L186.30,131.34L186.44,129.91L187.92,129.76z"/><path style="fill:#aca699" d="M149.52,66.82L149.51,69.55L149.11,77.74L152.51,78.18L156.18,79.02L219.12,98.04L225.63,100.21L229.48,102.21L229.65,102.50L225.79,100.72L220.28,98.88L157.35,79.85L153.74,78.92L149.90,78.32L146.40,78.08L143.72,78.08L140.54,78.25L138.88,78.42L135.89,78.92L135.04,79.09L131.26,80.18L129.64,80.90L126.97,82.24L125.58,83.35L123.82,85.09L64.56,147.69L62.54,149.34L59.87,150.68L57.82,151.30L55.09,151.61L54.24,151.61L51.58,151.44L49.01,150.97L46.85,150.12L45.02,149.10L44.91,148.92L46.52,149.62L49.01,150.47L52.21,151.00L52.78,140.11L56.64,140.11L59.16,139.78L61.82,138.94L63.40,138.18L64.23,137.49L64.23,137.10L63.20,135.75L63.15,135.45L64.64,134.08L65.56,133.00L79.57,118.29L80.92,116.81L118.98,76.58L123.63,71.72L123.91,71.33L124.92,70.47L125.12,70.49L126.15,72.01L126.59,72.02L127.76,71.17L129.92,69.83L133.65,68.38L136.94,67.50L139.61,66.99L142.95,66.66L147.34,66.66z"/><path style="fill:#aca699" d="M254.67,88.36L257.20,91.34L259.18,94.70L260.28,97.82L260.37,98.32L260.44,98.99L260.54,99.48L260.60,100.16L260.71,100.65L260.61,102.83L260.11,112.18L259.94,114.35L259.85,115.12L259.13,117.41L257.51,120.63L255.17,123.63L244.84,134.50L195.18,187.00L193.09,188.75L190.24,190.24L188.56,190.73L185.34,191.19L182.12,191.00L180.05,190.70L177.55,189.85L175.38,188.67L175.28,188.48L175.54,188.51L177.21,189.36L179.55,190.02L182.58,190.57L183.15,179.68L186.85,179.67L189.36,179.34L191.86,178.67L193.93,177.57L194.61,177.06L194.60,176.66L193.57,175.31L193.52,175.01L194.74,173.88L196.10,172.39L251.85,113.47L253.50,111.78L256.51,108.11L258.13,104.89L258.85,102.61L259.01,101.27L259.01,98.54L258.68,96.37L257.51,93.20L255.53,90.01L253.50,87.68L253.41,87.31z"/><path style="fill:#000019" d="M114.01,24.18L113.50,24.08L114.02,24.03z"/><path style="fill:#000019" d="M113.16,29.91L113.07,29.76L113.16,29.68L114.80,29.77z"/><path style="fill:#000019" d="M244.55,60.22L243.54,60.22L244.51,60.10z"/><path style="fill:#000019" d="M244.38,63.74L243.88,63.64L244.39,63.60z"/><path style="fill:#000019" d="M243.53,69.47L243.44,69.32L243.53,69.24L245.00,69.33z"/><path style="fill:#000019" d="M56.74,84.60L56.25,84.51L56.75,84.46z"/><path style="fill:#000019" d="M56.07,90.35L55.80,90.19L55.90,90.11L56.55,90.20z"/><path style="fill:#000019" d="M187.13,124.17L186.61,124.07L187.13,124.02z"/><path style="fill:#000019" d="M186.44,129.91L186.17,129.75L186.26,129.67L187.92,129.76z"/><path style="fill:#000020" d="M117.88,23.37L117.89,22.69L117.96,22.76z"/><path style="fill:#000020" d="M114.01,24.18L114.02,24.03L114.47,24.10z"/><path style="fill:#000020" d="M110.29,29.72L110.21,28.71L110.28,28.76z"/><path style="fill:#000020" d="M116.73,30.06L116.75,29.10L116.84,29.07z"/><path style="fill:#000020" d="M244.72,60.23L244.55,60.22L244.51,60.10L244.67,58.92z"/><path style="fill:#000020" d="M248.26,63.44L248.17,62.93L248.27,62.42L248.33,62.48z"/><path style="fill:#000020" d="M244.38,63.74L244.39,63.60L244.84,63.66z"/><path style="fill:#000020" d="M247.09,69.45L247.11,68.66L247.21,68.63z"/><path style="fill:#000020" d="M56.74,84.60L56.75,84.46L57.38,84.52z"/><path style="fill:#000020" d="M60.63,84.97L60.56,84.13L60.73,83.45z"/><path style="fill:#000020" d="M260.37,98.32L260.28,97.82L260.35,97.88z"/><path style="fill:#000020" d="M260.54,99.48L260.44,98.99L260.51,99.05z"/><path style="fill:#000020" d="M260.71,100.65L260.60,100.16L260.68,100.22z"/><path style="fill:#000020" d="M187.13,124.17L187.13,124.02L187.58,124.09z"/><path style="fill:#000020" d="M191.00,125.03L190.97,123.56L191.09,123.51z"/><path style="fill:#a8881b" d="M111.62,22.31L112.39,21.75L113.07,21.59L114.13,21.58L114.02,24.03L113.50,24.08L112.28,23.77L111.62,23.26z"/><path style="fill:#a8881b" d="M241.99,61.88L242.77,61.32L243.26,61.15L244.50,61.15L244.39,63.60L243.88,63.64L243.04,63.47L242.16,62.98L241.99,62.82z"/><path style="fill:#a8881b" d="M54.35,82.90L54.81,82.35L55.98,82.02L56.87,82.01L56.86,83.91L56.75,84.46L56.25,84.51L55.04,84.17L54.54,83.84L54.34,83.53z"/><path style="fill:#a8881b" d="M184.73,122.30L185.51,121.74L186.18,121.58L187.24,121.57L187.13,124.02L186.61,124.07L185.41,123.73L184.91,123.40L184.72,123.09z"/><path style="fill:#aca699" d="M199.10,40.85L199.86,39.95L201.20,39.29L202.71,38.95L204.78,38.95L204.44,43.52L202.04,43.62L201.36,43.81L200.92,43.81L199.43,42.78L199.08,42.13z"/><path style="fill:#aca699" d="M235.14,48.30L234.99,52.37L234.81,52.69L232.07,52.97L231.89,53.13L231.64,53.16L230.65,52.63L229.98,52.13L229.45,51.32L229.46,50.34L229.82,49.70L230.29,49.18L231.75,48.47L233.75,48.13L234.82,48.12z"/><path style="fill:#aca699" d="M184.07,56.70L184.84,55.81L186.18,55.14L187.68,54.81L189.75,54.81L189.57,58.53L189.41,59.38L187.01,59.48L186.52,59.66L185.90,59.66L184.57,58.80L184.05,57.99z"/><path style="fill:#aca699" d="M220.12,64.16L219.96,68.56L217.05,68.83L216.87,68.99L216.62,69.02L215.62,68.49L214.96,67.98L214.43,67.17L214.44,66.38L214.70,65.64L215.27,65.04L216.22,64.48L217.39,64.15L219.80,63.98z"/><path style="fill:#aca699" d="M107.76,71.38L108.55,70.49L110.06,70.00L111.62,69.99L111.62,72.22L111.46,73.73L110.16,73.65L109.44,73.51L108.29,72.82L107.95,72.49L107.76,72.01z"/><path style="fill:#aca699" d="M252.71,86.61L252.17,86.52L251.83,86.18L251.74,85.81z"/><path style="fill:#aca699" d="M238.13,110.94L238.92,110.06L240.43,109.56L241.99,109.55L241.82,113.30L240.53,113.21L239.81,113.07L238.66,112.38L238.32,112.06L238.13,111.57z"/><path style="fill:#aca699" d="M50.68,131.64L51.13,131.09L52.13,130.58L52.97,130.43L54.54,130.43L54.37,133.83L54.19,134.15L52.91,134.08L51.54,133.58L50.87,133.09L50.68,132.77z"/><path style="fill:#aca699" d="M180.84,171.63L181.48,170.63L182.50,170.15L183.17,169.99L184.74,169.98L184.73,173.04L184.56,173.72L183.27,173.64L181.91,173.14L181.23,172.65z"/><g id="Actor_.0"><g style="stroke:#000000;stroke-width:0.353"><path d="M41.31,144.28L41.32,144.23"/><path d="M236.39,100.24L236.04,98.18L235.11,96.16L233.61,94.22L231.58,92.40L229.08,90.77L226.15,89.35L222.89,88.18L157.71,68.40L154.18,67.51L150.47,66.92L146.68,66.64L142.89,66.69L139.20,67.06L135.71,67.74L133.57,68.39L132.50,68.71L129.64,69.96L127.20,71.45L125.26,73.14L64.85,136.98L63.25,138.24L61.12,139.23L58.56,139.91L55.75,140.22L52.83,140.15L49.97,139.70L47.38,138.92L46.45,138.46L45.12,137.81L43.41,136.47L42.30,134.97L41.88,133.40"/><path d="M250.62,85.07L253.53,87.74L255.86,90.55L257.57,93.47L258.65,96.45L259.07,99.46L258.83,102.45L257.94,105.38L256.40,108.21L254.24,110.89L193.83,174.73L192.44,175.82L190.59,176.69L188.37,177.27L185.94,177.54L183.41,177.48L180.94,177.10L178.67,176.41L176.73,175.45L175.24,174.29L174.29,172.99L173.92,171.63L174.16,170.28L175.00,169.02L235.41,105.18L236.91,103.21L237.81,101.10L238.08,98.93L237.71,96.73L236.71,94.57L235.11,92.50L232.95,90.57L230.28,88.83L227.16,87.31L223.67,86.06L158.50,66.28L154.73,65.33L150.77,64.70L147.92,64.50L146.73,64.41L142.69,64.46L138.76,64.85L135.03,65.58L131.60,66.62L128.55,67.95L125.96,69.54L123.88,71.34L63.47,135.18L62.09,136.27L60.24,137.13L58.03,137.72L55.58,137.99L53.05,137.93L50.58,137.54L48.31,136.85L46.38,135.90L44.89,134.74L43.93,133.44L43.56,132.08L43.81,130.72L44.64,129.47L105.05,65.63L107.81,63.12L111.11,60.83"/><path d="M62.69,149.12L60.55,150.12L58.00,150.79L55.18,151.10L52.26,151.03L49.41,150.59L46.79,149.79L44.56,148.69"/><path d="M50.43,132.10L50.68,131.48L50.85,131.33L51.30,130.95L52.21,130.56L53.33,130.37L54.52,130.39L55.67,130.62L56.64,131.04L57.33,131.59L57.67,132.22"/><path d="M107.62,71.66L107.87,71.04L108.49,70.51L109.40,70.13L110.52,69.93L111.71,69.95L112.86,70.18L113.83,70.60L114.52,71.15L114.86,71.78"/><path d="M129.07,80.84L131.93,79.60L135.14,78.62L138.64,77.94L142.32,77.57L146.11,77.52L149.90,77.80L153.61,78.39L157.17,79.29L222.32,99.06L225.59,100.23L228.51,101.65L231.01,103.29"/><path d="M260.61,100.86L260.37,103.96L259.44,106.99L257.85,109.91L255.62,112.69L195.20,176.54L193.61,177.79L191.47,178.79L188.92,179.46L186.10,179.77L183.18,179.70L180.33,179.26L177.71,178.46L175.48,177.36L173.76,176.03L172.66,174.53L172.23,172.95"/><path d="M193.04,188.67L190.91,189.67L188.35,190.34L185.54,190.65L182.59,190.58L179.76,190.14L177.15,189.34L174.91,188.25"/><path d="M188.02,171.77L187.69,171.14L187.00,170.59L186.02,170.18L184.88,169.95L183.68,169.93L182.57,170.12L181.65,170.50L181.03,171.03L180.78,171.65"/><path d="M200.10,37.09L184.72,53.35L183.09,54.66"/><path d="M183.89,57.73L183.97,56.80L184.60,55.96L185.72,55.29L187.21,54.87L188.90,54.74L190.62,54.93L192.17,55.40L193.38,56.10L194.14,56.97L194.35,57.90"/><path d="M191.96,60.04L190.38,59.55L188.66,59.37L186.97,59.49L186.09,59.74"/><path d="M209.36,42.04L209.15,41.11L208.40,40.24L207.18,39.53L205.63,39.06L203.92,38.88L202.22,39.00L200.74,39.42L199.61,40.09L198.98,40.94L198.90,41.86"/><path d="M201.10,43.88L201.98,43.63L203.68,43.50L205.39,43.68L206.98,44.18"/><path d="M224.76,67.13L224.55,66.20L223.80,65.33L222.58,64.62L221.03,64.15L219.32,63.97L217.63,64.10L216.14,64.52L215.02,65.19L214.39,66.03L214.31,66.96"/><path d="M222.38,69.27L220.79,68.78L219.08,68.60L217.39,68.72L216.50,68.97"/><path d="M229.51,74.31L227.97,72.85L227.04,71.27L226.76,69.63L227.14,68.03L228.17,66.53L243.55,50.28L244.93,52.08L229.55,68.33L228.64,69.65L228.30,71.07"/><path d="M229.32,51.09L229.40,50.16L230.03,49.32L231.13,48.67L231.83,48.46L232.64,48.23L234.33,48.11L236.05,48.29L237.60,48.76L238.81,49.47L239.57,50.33L239.78,51.27"/><path d="M237.39,53.40L235.81,52.91L234.09,52.73L232.40,52.86L231.51,53.11"/><path d="M245.22,111.33L244.88,110.70L244.19,110.15L243.22,109.74L242.07,109.51L240.87,109.49L239.76,109.68L238.84,110.06L238.23,110.59L237.98,111.21"/></g><g style="stroke:#000000;stroke-width:0.705"><path d="M183.09,54.66L180.94,55.73L178.38,56.51L175.54,56.94L172.54,57.03L169.53,56.75L166.66,56.13L161.48,54.85L156.10,53.90L150.59,53.29L145.03,53.03L139.50,53.14L134.05,53.60L128.83,54.40L123.85,55.55L119.19,57.02L114.92,58.79L111.11,60.83L109.79,61.60L106.38,63.96L103.53,66.55L43.13,130.39L42.16,131.84L41.88,133.40L41.31,144.28L41.73,145.85L42.84,147.35L45.67,149.50L47.60,150.45L49.87,151.14L52.35,151.53L54.88,151.59L57.32,151.32L59.53,150.74L61.38,149.87L62.69,149.12L64.28,147.86L124.69,84.02L126.64,82.33L129.07,80.84"/><path d="M57.67,132.22L57.61,132.86L57.18,133.45L56.40,133.91L55.37,134.20L54.20,134.29L53.01,134.16L52.45,134.02L51.94,133.84L51.10,133.35L50.57,132.75L50.43,132.10"/><path d="M114.86,71.78L114.80,72.42L114.37,73.01L113.59,73.47L112.56,73.76L111.39,73.85L110.20,73.72L109.64,73.58L109.13,73.40L108.29,72.91L107.76,72.31L107.62,71.66"/><path d="M231.38,103.61L229.57,102.43L226.45,100.91L222.97,99.66L157.79,79.89L154.02,78.93L150.06,78.30L146.02,78.01L141.98,78.06L138.05,78.46L134.32,79.18L130.89,80.22L128.07,81.45"/><path d="M236.39,100.24L236.14,102.28L235.30,104.25L233.89,106.10L173.48,169.94L172.51,171.39L172.23,172.95L171.67,183.83L172.09,185.41L173.21,186.92L176.02,189.06L177.96,190.01L180.23,190.70L182.70,191.08L185.23,191.14L187.67,190.87L189.88,190.29L191.74,189.43L193.04,188.67L194.64,187.41L255.05,123.57L257.28,120.80L258.86,117.89L259.80,114.84L260.05,111.75L260.61,100.86L260.18,97.75L259.06,94.67L257.29,91.64L254.88,88.74L251.87,85.98L247.16,82.59L243.22,80.33L238.83,78.32L234.08,76.59L231.58,75.58L229.51,74.31"/><path d="M180.78,171.65L180.93,172.30L181.45,172.90L182.29,173.39L182.81,173.58L183.37,173.71L184.55,173.84L185.72,173.75L186.75,173.46L187.53,173.00L187.97,172.42L188.02,171.77"/><path d="M244.50,60.27L244.93,52.08L244.20,50.88L243.55,50.28L200.10,37.09L198.58,38.01L183.20,54.27L182.10,55.16"/><path d="M194.35,57.90L193.98,58.80L193.09,59.57L191.77,60.12L190.16,60.40L188.43,60.37L186.78,60.04L185.37,59.44L184.38,58.64L183.89,57.73"/><path d="M209.36,42.04L209.00,42.94L208.11,43.70L206.78,44.26L205.17,44.53L203.45,44.50L201.79,44.17L200.39,43.58L199.39,42.78L198.90,41.86"/><path d="M224.76,67.13L224.40,68.03L223.51,68.80L222.19,69.35L220.58,69.63L218.85,69.60L217.19,69.27L215.79,68.67L214.79,67.87L214.31,66.96"/><path d="M228.30,71.07L228.55,72.51L229.37,73.91L230.32,74.81"/><path d="M229.32,51.09L229.81,52.01L230.80,52.80L232.21,53.40L233.86,53.73L235.59,53.76L237.20,53.49L238.52,52.93L239.42,52.17L239.78,51.27"/><path d="M231.01,103.29L233.05,105.10L233.84,106.15"/><path d="M232.19,75.83L240.04,67.53"/><path d="M237.98,111.21L238.12,111.86L238.64,112.46L239.49,112.95L240.00,113.14L240.56,113.28L241.74,113.40L242.91,113.32L243.95,113.03L244.72,112.56L245.16,111.98L245.22,111.33"/></g></g><g id="Actor_.1"><g style="stroke:#000000;stroke-width:0.353"><path d="M52.58,83.04L52.74,83.76L53.32,84.43L54.26,84.97L55.45,85.33L56.77,85.47L58.07,85.38L59.21,85.05L60.08,84.54L60.56,83.89L60.62,83.18"/><path d="M59.02,83.22L58.80,82.80L58.34,82.43L57.69,82.16L56.92,82.00L56.13,81.99L55.38,82.12L54.77,82.37L54.36,82.73L54.20,83.14"/></g><g style="stroke:#000000;stroke-width:0.705"><path d="M59.49,89.50L59.47,90.00L59.42,90.57L59.03,91.09L58.34,91.50L57.78,91.66L57.42,91.76L56.38,91.84L55.33,91.73L54.37,91.44L53.63,91.00L53.16,90.47L53.03,89.89L53.07,89.19"/><path d="M53.07,89.19L52.49,88.52L52.33,87.80L52.58,83.04L52.86,82.35L53.54,81.76L54.56,81.34L55.80,81.12L56.63,81.14L57.13,81.15L58.40,81.40L59.48,81.86L60.25,82.47L60.62,83.18L60.38,87.94L60.32,88.65L59.83,89.30L58.97,89.82L57.82,90.14L56.52,90.23L55.20,90.09L54.89,90.00L54.01,89.73L53.07,89.19"/><path d="M54.20,83.14L54.29,83.57L54.64,83.97L55.08,84.23L55.20,84.30L55.92,84.52L56.71,84.60L57.49,84.54L58.17,84.35L58.69,84.04L58.99,83.65L59.02,83.22"/></g></g><g id="Actor_.2"><g style="stroke:#000000;stroke-width:0.353"><path d="M191.01,123.09L190.73,123.78L190.04,124.37L189.03,124.80L187.79,125.01L186.46,124.99L185.18,124.73L184.11,124.27L183.34,123.66L182.96,122.96"/><path d="M189.39,122.99L189.30,122.56L188.95,122.16L188.39,121.83L187.67,121.62L186.88,121.53L186.10,121.59L185.41,121.78L184.90,122.09L184.60,122.48L184.57,122.91"/></g><g style="stroke:#000000;stroke-width:0.705"><path d="M183.46,128.72L183.41,129.73L183.71,130.30L184.32,130.79L185.19,131.15L186.21,131.36L187.27,131.38L188.26,131.21L189.07,130.87L189.62,130.39L189.84,129.84L189.89,129.05"/><path d="M183.75,128.94L183.09,128.42L182.72,127.72L182.96,122.96L183.02,122.24L183.51,121.59L184.37,121.08L185.52,120.76L186.82,120.66L188.14,120.80L189.31,121.15L189.33,121.16L190.27,121.70L190.85,122.37L191.01,123.09L190.76,127.85L190.48,128.54L189.80,129.13L188.78,129.56L187.54,129.77L186.21,129.75L184.94,129.49L183.86,129.03L183.75,128.94"/><path d="M184.57,122.91L184.79,123.33L185.25,123.70L185.90,123.98L186.66,124.13L187.21,124.14L187.46,124.14L188.20,124.01L188.82,123.76L189.23,123.41L189.39,122.99"/></g></g><g id="Actor_.3"><g style="stroke:#000000;stroke-width:0.353"><path d="M109.77,22.60L109.93,23.32L110.51,23.99L111.45,24.53L112.64,24.89L113.96,25.04L115.26,24.94L116.41,24.62L117.27,24.10L117.76,23.45L117.82,22.74"/><path d="M116.21,22.78L115.99,22.36L115.53,21.99L114.88,21.72L114.12,21.57L113.32,21.55L112.57,21.68L111.96,21.93L111.55,22.29L111.39,22.70"/></g><g style="stroke:#000000;stroke-width:0.705"><path d="M109.79,28.20L109.68,28.08L109.53,27.36L109.77,22.60L110.05,21.91L110.74,21.32L111.75,20.90L112.51,20.77L112.99,20.69L114.32,20.71L115.59,20.96L116.67,21.42L117.44,22.04L117.82,22.74L117.57,27.50L117.51,28.21L117.02,28.86L116.16,29.38L115.01,29.70L113.71,29.80L112.39,29.66L111.20,29.29L110.26,28.75L109.79,28.20"/><path d="M116.69,29.06L116.66,29.56L116.61,30.13L116.22,30.65L115.53,31.06L114.62,31.32L113.57,31.40L112.52,31.29L112.08,31.15L111.57,31.00L110.82,30.56L110.35,30.03L110.23,29.45L110.26,28.75"/><path d="M111.39,22.70L111.48,23.13L111.83,23.53L112.39,23.86L113.11,24.08L113.90,24.16L114.68,24.10L115.37,23.91L115.88,23.60L116.18,23.21L116.21,22.78"/></g></g><g id="Actor_.4"><g style="stroke:#000000;stroke-width:0.353"><path d="M240.15,62.52L240.53,63.22L241.30,63.83L242.38,64.29L243.65,64.55L244.98,64.57L246.22,64.36L247.23,63.93L247.92,63.34L248.20,62.65"/><path d="M246.58,62.55L246.49,62.12L246.14,61.72L245.58,61.39L244.86,61.18L244.07,61.09L243.29,61.15L242.60,61.35L242.09,61.65L241.79,62.04L241.76,62.47"/></g><g style="stroke:#000000;stroke-width:0.705"><path d="M240.37,68.05L240.28,67.98L239.91,67.28L240.15,62.52L240.21,61.80L240.70,61.15L241.57,60.64L242.71,60.32L244.01,60.22L245.33,60.36L246.15,60.61L246.52,60.72L247.46,61.27L248.04,61.93L248.20,62.65L247.95,67.41L247.67,68.10L246.99,68.69L245.97,69.12L244.73,69.33L243.40,69.31L242.13,69.05L241.05,68.59L240.37,68.05"/><path d="M247.08,68.62L247.04,69.40L246.81,69.96L246.27,70.43L245.45,70.77L244.46,70.94L243.40,70.92L242.38,70.72L241.52,70.35L240.90,69.86L240.60,69.30L240.65,68.28"/><path d="M241.76,62.47L241.98,62.89L242.44,63.26L243.09,63.54L243.85,63.69L244.65,63.70L245.40,63.58L246.01,63.32L246.42,62.97L246.58,62.55"/></g></g><g><g><path style="stroke:#000000;stroke-width:0.200;stroke-dasharray:3.0 2.0 1.0 2.0" d="M111.09,75.27L113.64,26.24"/></g><g><path style="fill:#000000" d="M111.59,75.27L111.58,75.22L111.58,75.17L111.56,75.13L111.55,75.08L111.53,75.04L111.50,74.99L111.47,74.95L111.44,74.92L111.40,74.88L111.36,74.86L111.32,74.83L111.28,74.81L111.23,74.79L111.18,74.78L111.13,74.77L111.09,74.77L111.04,74.77L110.99,74.78L110.94,74.79L110.89,74.81L110.85,74.83L110.81,74.86L110.77,74.88L110.73,74.92L110.70,74.95L110.67,74.99L110.64,75.04L110.62,75.08L110.61,75.13L110.60,75.17L110.59,75.22L110.59,75.27L110.59,75.32L110.60,75.37L110.61,75.42L110.62,75.46L110.64,75.51L110.67,75.55L110.70,75.59L110.73,75.62L110.77,75.66L110.81,75.69L110.85,75.71L110.89,75.73L110.94,75.75L110.99,75.76L111.04,75.77L111.09,75.77L111.13,75.77L111.18,75.76L111.23,75.75L111.28,75.73L111.32,75.71L111.36,75.69L111.40,75.66L111.44,75.62L111.47,75.59L111.50,75.55L111.53,75.51L111.55,75.46L111.56,75.42L111.58,75.37L111.58,75.32z"/></g><g><path style="fill:#000000" d="M114.14,26.24L114.14,26.19L114.13,26.14L114.12,26.09L114.10,26.05L114.08,26.00L114.06,25.96L114.03,25.92L114.00,25.89L113.96,25.85L113.92,25.82L113.88,25.80L113.83,25.78L113.79,25.76L113.74,25.75L113.69,25.74L113.64,25.74L113.59,25.74L113.54,25.75L113.50,25.76L113.45,25.78L113.41,25.80L113.36,25.82L113.32,25.85L113.29,25.89L113.26,25.92L113.23,25.96L113.20,26.00L113.18,26.05L113.16,26.09L113.15,26.14L113.14,26.19L113.14,26.24L113.14,26.29L113.15,26.34L113.16,26.38L113.18,26.43L113.20,26.47L113.23,26.52L113.26,26.56L113.29,26.59L113.32,26.63L113.36,26.65L113.41,26.68L113.45,26.70L113.50,26.72L113.54,26.73L113.59,26.74L113.64,26.74L113.69,26.74L113.74,26.73L113.79,26.72L113.83,26.70L113.88,26.68L113.92,26.65L113.96,26.63L114.00,26.59L114.03,26.56L114.06,26.52L114.08,26.47L114.10,26.43L114.12,26.38L114.13,26.34L114.14,26.29z"/></g></g><g><g><path style="stroke:#000000;stroke-width:0.200;stroke-dasharray:3.0 2.0 1.0 2.0" d="M241.42,114.85L243.97,65.82"/></g><g><path style="fill:#000000" d="M241.92,114.85L241.92,114.80L241.91,114.75L241.90,114.71L241.88,114.66L241.86,114.61L241.83,114.57L241.80,114.53L241.77,114.50L241.73,114.46L241.70,114.43L241.65,114.41L241.61,114.39L241.56,114.37L241.52,114.36L241.47,114.35L241.42,114.35L241.37,114.35L241.32,114.36L241.27,114.37L241.23,114.39L241.18,114.41L241.14,114.43L241.10,114.46L241.06,114.50L241.03,114.53L241.00,114.57L240.98,114.61L240.96,114.66L240.94,114.71L240.93,114.75L240.92,114.80L240.92,114.85L240.92,114.90L240.93,114.95L240.94,115.00L240.96,115.04L240.98,115.09L241.00,115.13L241.03,115.17L241.06,115.20L241.10,115.24L241.14,115.27L241.18,115.29L241.23,115.31L241.27,115.33L241.32,115.34L241.37,115.35L241.42,115.35L241.47,115.35L241.52,115.34L241.56,115.33L241.61,115.31L241.65,115.29L241.70,115.27L241.73,115.24L241.77,115.20L241.80,115.17L241.83,115.13L241.86,115.09L241.88,115.04L241.90,115.00L241.91,114.95L241.92,114.90z"/></g><g><path style="fill:#000000" d="M244.47,65.82L244.47,65.77L244.46,65.72L244.45,65.67L244.44,65.63L244.41,65.58L244.39,65.54L244.36,65.50L244.33,65.46L244.29,65.43L244.25,65.40L244.21,65.38L244.17,65.36L244.12,65.34L244.07,65.33L244.02,65.32L243.97,65.32L243.92,65.32L243.88,65.33L243.83,65.34L243.78,65.36L243.74,65.38L243.70,65.40L243.66,65.43L243.62,65.46L243.59,65.50L243.56,65.54L243.53,65.58L243.51,65.63L243.50,65.67L243.48,65.72L243.48,65.77L243.47,65.82L243.48,65.87L243.48,65.92L243.50,65.96L243.51,66.01L243.53,66.05L243.56,66.10L243.59,66.13L243.62,66.17L243.66,66.20L243.70,66.23L243.74,66.26L243.78,66.28L243.83,66.30L243.88,66.31L243.92,66.32L243.97,66.32L244.02,66.32L244.07,66.31L244.12,66.30L244.17,66.28L244.21,66.26L244.25,66.23L244.29,66.20L244.33,66.17L244.36,66.13L244.39,66.10L244.41,66.05L244.44,66.01L244.45,65.96L244.46,65.92L244.47,65.87z"/></g></g><g><g><path style="stroke:#000000;stroke-width:0.200;stroke-dasharray:3.0 2.0 1.0 2.0" d="M53.89,135.71L56.45,86.68"/></g><g><path style="fill:#000000" d="M54.39,135.71L54.39,135.66L54.38,135.61L54.37,135.56L54.36,135.52L54.34,135.47L54.31,135.43L54.28,135.39L54.25,135.36L54.21,135.32L54.17,135.29L54.13,135.27L54.09,135.25L54.04,135.23L53.99,135.22L53.94,135.21L53.89,135.21L53.85,135.21L53.80,135.22L53.75,135.23L53.70,135.25L53.66,135.27L53.62,135.29L53.58,135.32L53.54,135.36L53.51,135.39L53.48,135.43L53.45,135.47L53.43,135.52L53.42,135.56L53.40,135.61L53.40,135.66L53.39,135.71L53.40,135.76L53.40,135.81L53.42,135.86L53.43,135.90L53.45,135.95L53.48,135.99L53.51,136.03L53.54,136.06L53.58,136.10L53.62,136.13L53.66,136.15L53.70,136.17L53.75,136.19L53.80,136.20L53.85,136.21L53.89,136.21L53.94,136.21L53.99,136.20L54.04,136.19L54.09,136.17L54.13,136.15L54.17,136.13L54.21,136.10L54.25,136.06L54.28,136.03L54.31,135.99L54.34,135.95L54.36,135.90L54.37,135.86L54.38,135.81L54.39,135.76z"/></g><g><path style="fill:#000000" d="M56.95,86.68L56.95,86.63L56.94,86.58L56.93,86.53L56.91,86.49L56.89,86.44L56.87,86.40L56.84,86.36L56.80,86.32L56.77,86.29L56.73,86.26L56.69,86.24L56.64,86.22L56.60,86.20L56.55,86.19L56.50,86.18L56.45,86.18L56.40,86.18L56.35,86.19L56.31,86.20L56.26,86.22L56.22,86.24L56.17,86.26L56.13,86.29L56.10,86.32L56.06,86.36L56.04,86.40L56.01,86.44L55.99,86.49L55.97,86.53L55.96,86.58L55.95,86.63L55.95,86.68L55.95,86.73L55.96,86.77L55.97,86.82L55.99,86.87L56.01,86.91L56.04,86.96L56.06,86.99L56.10,87.03L56.13,87.06L56.17,87.09L56.22,87.12L56.26,87.14L56.31,87.16L56.35,87.17L56.40,87.17L56.45,87.18L56.50,87.17L56.55,87.17L56.60,87.16L56.64,87.14L56.69,87.12L56.73,87.09L56.77,87.06L56.80,87.03L56.84,86.99L56.87,86.96L56.89,86.91L56.91,86.87L56.93,86.82L56.94,86.77L56.95,86.73z"/></g></g><g><g><path style="stroke:#000000;stroke-width:0.200;stroke-dasharray:3.0 2.0 1.0 2.0" d="M184.23,175.29L186.78,126.26"/></g><g><path style="fill:#000000" d="M184.73,175.29L184.72,175.24L184.72,175.19L184.70,175.14L184.69,175.10L184.67,175.05L184.64,175.01L184.61,174.97L184.58,174.94L184.54,174.90L184.50,174.87L184.46,174.85L184.42,174.83L184.37,174.81L184.32,174.80L184.28,174.79L184.23,174.79L184.18,174.79L184.13,174.80L184.08,174.81L184.03,174.83L183.99,174.85L183.95,174.87L183.91,174.90L183.87,174.94L183.84,174.97L183.81,175.01L183.79,175.05L183.76,175.10L183.75,175.14L183.74,175.19L183.73,175.24L183.73,175.29L183.73,175.34L183.74,175.39L183.75,175.43L183.76,175.48L183.79,175.52L183.81,175.57L183.84,175.61L183.87,175.64L183.91,175.68L183.95,175.70L183.99,175.73L184.03,175.75L184.08,175.77L184.13,175.78L184.18,175.79L184.23,175.79L184.28,175.79L184.32,175.78L184.37,175.77L184.42,175.75L184.46,175.73L184.50,175.70L184.54,175.68L184.58,175.64L184.61,175.61L184.64,175.57L184.67,175.52L184.69,175.48L184.70,175.43L184.72,175.39L184.72,175.34z"/></g><g><path style="fill:#000000" d="M187.28,126.26L187.28,126.21L187.27,126.16L187.26,126.11L187.24,126.06L187.22,126.02L187.20,125.98L187.17,125.94L187.14,125.90L187.10,125.87L187.06,125.84L187.02,125.82L186.97,125.79L186.93,125.78L186.88,125.77L186.83,125.76L186.78,125.76L186.73,125.76L186.69,125.77L186.64,125.78L186.59,125.79L186.55,125.82L186.50,125.84L186.47,125.87L186.43,125.90L186.40,125.94L186.37,125.98L186.34,126.02L186.32,126.06L186.30,126.11L186.29,126.16L186.29,126.21L186.28,126.26L186.29,126.31L186.29,126.35L186.30,126.40L186.32,126.45L186.34,126.49L186.37,126.53L186.40,126.57L186.43,126.61L186.47,126.64L186.50,126.67L186.55,126.70L186.59,126.72L186.64,126.73L186.69,126.75L186.73,126.75L186.78,126.76L186.83,126.75L186.88,126.75L186.93,126.73L186.97,126.72L187.02,126.70L187.06,126.67L187.10,126.64L187.14,126.61L187.17,126.57L187.20,126.53L187.22,126.49L187.24,126.45L187.26,126.40L187.27,126.35L187.28,126.31z"/></g></g><g/><g id="paperID" visibility="hidden" opacity="0.00" transform="scale(0.000100)"><path style="stroke:#000000;stroke-width:0.500;fill:#e6e6e6;fill-rule:evenodd" d="M-2000.00,-2000.00L2297.00,-2000.00L2297.00,2210.00L-2000.00,2210.00zM0.00,0.00L297.00,0.00L297.00,210.00L0.00,210.00z"/><path style="fill:#000000;fill-opacity:0.118" d="M3.00,210.00L297.00,210.00L297.00,3.00L300.00,3.00L300.00,213.00L3.00,213.00z"/></g><g id="ToolTip" visibility="hidden" opacity="0" transform="translate(0,0)"><rect id="ToolTipShadow" opacity="0.20" fill="black" stroke="none" x="0" y="0" width="30" height="8"/><rect id="ToolTipBG" fill="#ffffe1" stroke="black" x="0" y="0" width="30" height="8"/><text xml:space="preserve" id="ToolTipText" fill="black" x="0" y="0" width="30" height="8">tooltip</text></g></g></svg>