<?xml version="1.0" encoding="UTF-8" standalone="yes"?><svg xmlns="http://www.w3.org/2000/svg" xmlns:xlink="http://www.w3.org/1999/xlink" width="297.000mm" height="210.000mm" viewBox="0.000000 0.000000 297.000000 210.000000" stroke-linejoin="round" stroke-linecap="round" fill="none" fill-rule="evenodd"><desc>Composer Export</desc><script type="text/ecmascript"><![CDATA[
if(typeof(top) != "undefined")
{
	top.ShowPaper = ShowPaper;
}
function ShowHotSpot(evt,hotspotid)
{
	var svgDocument = evt.target.ownerDocument;
	var strId = "hotspot."+hotspotid;
	var hotspot = svgDocument.getElementById(strId);
	if(hotspot)
		hotspot.setAttribute("opacity",".5");
}
function HideHotSpot(evt,hotspotid)
{
	var svgDocument = evt.target.ownerDocument;
	var strId = "hotspot."+hotspotid;
	var hotspot = svgDocument.getElementById(strId);
	if(hotspot)
		hotspot.setAttribute("opacity","0");

	var toolTip = svgDocument.getElementById('ToolTip');
	if(toolTip)
		toolTip.setAttribute("visibility","hidden");
}
function ShowToolTip(evt,hotspotid,strTooltip)
{
	if(strTooltip=="")
	return;

	// change text
	var svgDocument = evt.target.ownerDocument;
	var tiptext = svgDocument.getElementById('ToolTipText');
	if( !tiptext )
	return;
	tiptext.firstChild.nodeValue = " " + strTooltip + "  " ;

	// show tooltip before, else some refresh issue

	var toolTip = svgDocument.getElementById('ToolTip');
	if(!toolTip)
	return;

	toolTip.setAttribute("visibility","visible");
	toolTip.setAttribute("opacity",".95");

	// move tooltip
	// get viewbox

	var root = svgDocument.documentElement;
	var vbox = (root.getAttribute("viewBox")).split(' ');
	var x0 = parseFloat(vbox[0]);
	var y0 = parseFloat(vbox[1]);
	var vboxW = parseFloat(vbox[2]);
	var vboxH = parseFloat(vbox[3]);

	// get default width of svg

	var strW = root.getAttribute("width");
	var svgW = parseFloat(strW);
	if(strW.indexOf('mm') != -1)
	svgW *= 3.779;

	var strH = root.getAttribute("height");
	var svgH = parseFloat(strH);
	if(strH.indexOf('mm') != -1)
	svgH *= 3.779;  	// 96 dpi  -> 96/25.4 = 3.779

	// update the viewbox / width / height if svg is embedded in html with zoom fit all
	var realx0 = x0;
	var realy0 = y0;
	var realvboxW = vboxW;
	var realvboxH = vboxH;
	var realsvgW = svgW;
	var realsvgH = svgH;

	if ((typeof(top) == "undefined") || (typeof(top.svgctl1) != "undefined")) // embedded in html
	{
		// get window size in pxl

		svgW = window.innerWidth;
		svgH = window.innerHeight;

		// calculate real viewbox

		realsvgW = svgW;
		realsvgH = svgH;
		if((svgW / svgH) > (vboxW / vboxH))
		{
			realvboxW = (vboxH * svgW) / svgH;
			realvboxH = vboxH;
			realx0 = x0 - (realvboxW - vboxW)/2 ;
		}
		else
		{
			realvboxH = (vboxW * svgH) / svgW;
			realvboxW = vboxW;
			realy0 = y0 - (realvboxH - vboxH)/2 ;
		}
	}

	// get user zoom/pan

	var newScale = root.currentScale;
	var translation = root.currentTranslate;

	// transform pxl to user unit

	var xPos = (((evt.clientX+10- translation.x)/newScale) * realvboxW)/realsvgW  + realx0 ;
	var yPos = (((evt.clientY+5- translation.y)/newScale) * realvboxH)/ realsvgH  + realy0 ;
	var scaleForWidth = ( (1 / newScale) * realvboxH) / realsvgH;

	// move tooltip

	toolTip.setAttribute("transform", "translate(" + xPos + "," + yPos + ")" );

	// resize tooltip

	var fontsize = 12;
	tiptext.setAttribute("font-size",fontsize*scaleForWidth);
	tiptext.setAttribute("y", fontsize*scaleForWidth);
	var tipBG = svgDocument.getElementById('ToolTipBG');
	var outline = tiptext.getBBox();
	if(tipBG)
	{
		tipBG.setAttribute("stroke-width", 1*scaleForWidth);
		tipBG.setAttribute("width", Number(outline.width) );
		tipBG.setAttribute("height", Number(outline.height) + fontsize*.5*scaleForWidth );
	}
	var ToolTipShadow = svgDocument.getElementById('ToolTipShadow');
	if(ToolTipShadow)
	{
		ToolTipShadow.setAttribute("width", Number(outline.width) );
		ToolTipShadow.setAttribute("height", Number(outline.height) + fontsize*.5*scaleForWidth );
		ToolTipShadow.setAttribute("x", 3*scaleForWidth);
		ToolTipShadow.setAttribute("y", 3*scaleForWidth);
	}
}
function ShowPaper()
{
  var svgDocument = getDocument();
  var paper = svgDocument.getElementById("paperID");
  if(paper)
  {
    paper.setAttribute("transform","scale(1)");
    paper.setAttribute("opacity","1");
    paper.setAttribute("visibility","visible");
  }
  var svg = svgDocument.getRootElement();
  if(svg)
  {
    svg.setAttribute("width","307.000mm");
    svg.setAttribute("height","220.000mm");
    svg.setAttribute("viewBox","-5.000000 -5.000000 307.000000 220.000000");
  }
}
]]></script><defs/><g><path style="fill:#ffffff" d="M296.91,209.94L0.05,209.94L0.05,0.05L296.91,0.05z"/><path style="fill:#a8881b" d="M253.36,80.99L254.35,82.17L255.01,83.02L255.77,85.62L255.77,87.31L255.67,89.58L254.84,92.76L253.17,96.09L251.45,98.38L250.51,99.45L248.09,101.36L245.95,102.22L243.54,102.20L242.64,102.06L230.15,96.02L228.31,94.69L227.35,92.84L227.63,92.86L239.49,98.56L239.82,98.61L239.65,96.54L239.65,94.09L239.97,91.74L241.50,87.77L243.75,84.34L245.93,82.18L248.60,80.67L250.61,80.35L251.34,80.36L251.76,80.30z"/><path style="fill:#a8881b" d="M226.64,89.64L226.82,89.98L226.90,90.65L226.70,91.00L225.81,90.35L225.00,88.86z"/><path style="fill:#a8881b" d="M252.70,115.54L254.01,117.73L254.09,118.52L254.19,119.01L254.26,119.52L254.36,120.01L254.44,120.52L254.43,121.36L254.10,124.37L253.00,127.81L251.11,131.09L248.76,133.75L245.93,135.76L243.21,136.35L240.81,135.77L227.98,129.58L226.29,127.76L226.01,126.73L226.29,126.74L238.15,132.45L238.49,132.49L238.50,132.10L238.30,131.60L238.31,127.30L238.97,124.29L240.75,120.56L242.98,117.62L245.61,115.40L247.93,114.39L250.39,114.21z"/><path style="fill:#d3aa21" d="M240.48,74.84L249.33,79.01L251.76,80.30L251.34,80.36L250.61,80.35L248.60,80.67L245.93,82.18L243.75,84.34L241.50,87.77L239.97,91.74L239.65,94.09L239.65,96.54L239.82,98.61L239.49,98.56L227.63,92.86L227.35,92.84L227.11,92.54L226.99,91.47L226.90,90.65L226.82,89.98L226.80,89.18L226.64,89.64L225.00,88.86L224.80,88.48L224.79,87.86L224.72,87.80L224.64,87.14L224.62,86.52L224.55,86.47L224.55,85.97L224.95,83.23L226.05,80.49L227.73,78.00L229.58,76.17L231.41,75.17L232.70,74.99L233.32,74.85L234.31,75.19L234.76,75.20L235.91,74.50L238.66,74.16z"/><path style="fill:#d3aa21" d="M250.39,114.21L247.93,114.39L245.61,115.40L242.98,117.62L240.75,120.56L238.97,124.29L238.31,127.30L238.30,131.60L238.50,132.10L238.49,132.49L238.15,132.45L226.29,126.74L226.01,126.73L225.48,125.21L225.48,123.53L225.46,121.56L225.36,123.52L223.95,122.91L223.68,122.89L223.30,121.87L223.28,120.74L223.22,120.68L223.28,118.64L223.38,118.35L223.95,115.95L225.12,113.62L226.91,111.23L228.96,109.61L230.51,108.96L232.69,108.96L232.85,109.05L232.94,109.29L233.19,109.20L235.19,108.29L238.05,108.29z"/><path style="fill:#aca699" d="M215.13,42.44L215.20,44.90L215.20,49.58L213.37,94.32L212.61,112.12L190.07,146.84L187.17,149.44L97.88,189.36L97.09,189.36L73.90,178.15L70.72,175.31L70.62,175.13L70.88,175.15L93.26,185.87L93.59,185.91L93.92,180.06L95.03,153.29L103.73,153.30L169.66,123.75L175.37,120.12L179.24,115.97L180.34,114.73L181.34,113.40L185.35,106.73L188.08,99.44L189.24,91.71L188.74,91.53L181.89,91.36L181.00,91.20L180.57,85.51L179.88,84.20L168.37,78.66L167.32,78.85L156.39,83.65L156.08,83.76L101.04,108.41L100.60,108.41L77.57,97.37L73.78,94.01L74.05,94.03L92.59,102.88L96.94,104.94L98.37,72.33L106.90,72.34L194.58,33.15L192.40,25.94L192.32,25.21z"/><path style="fill:#000020" d="M215.20,49.58L215.20,44.90L215.27,44.96z"/><path style="fill:#000020" d="M192.29,73.92L192.45,74.26L192.23,74.17z"/><path style="fill:#000020" d="M156.08,83.76L156.39,83.65L156.28,84.12z"/><path style="fill:#000020" d="M224.64,87.14L224.55,86.47L224.62,86.52z"/><path style="fill:#000020" d="M255.77,87.31L255.77,85.62L255.84,85.69z"/><path style="fill:#000020" d="M224.80,88.48L224.72,87.80L224.79,87.86z"/><path style="fill:#000020" d="M226.82,89.98L226.64,89.64L226.80,89.18z"/><path style="fill:#000020" d="M73.58,92.31L73.49,90.15L73.55,90.20z"/><path style="fill:#000020" d="M144.88,103.65L144.58,103.81L144.88,103.51z"/><path style="fill:#000020" d="M190.92,107.67L190.83,107.67L190.92,106.49z"/><path style="fill:#000020" d="M233.19,109.20L232.94,109.29L232.85,109.05z"/><path style="fill:#000020" d="M254.19,119.01L254.09,118.52L254.17,118.58z"/><path style="fill:#000020" d="M254.36,120.01L254.26,119.52L254.34,119.58z"/><path style="fill:#000020" d="M254.43,121.36L254.44,120.52L254.50,120.57z"/><path style="fill:#000020" d="M223.30,121.87L223.22,120.68L223.28,120.74z"/><path style="fill:#000020" d="M225.48,123.53L225.36,123.52L225.46,121.56z"/><path style="fill:#000020" d="M242.33,128.38L242.24,126.85L242.31,126.91z"/><path style="fill:#000020" d="M106.47,169.76L106.37,169.09L106.44,169.15z"/><path style="fill:#a8881b" d="M225.36,123.52L225.33,125.03L223.78,123.42L223.68,122.89L223.95,122.91z"/><path style="fill:#000019" d="M226.70,91.00L226.90,90.65L226.99,91.47z"/><path style="fill:#000019" d="M191.08,108.35L190.86,108.28L190.83,107.67L190.92,107.67z"/><path style="fill:#000019" d="M225.48,125.21L225.33,125.03L225.36,123.52L225.48,123.53z"/><path style="fill:#d3aa21" d="M251.33,87.53L251.67,88.36L251.67,90.25L251.33,91.58L250.33,93.76L249.50,94.92L248.09,96.19L246.78,96.72L245.48,96.72L244.83,96.36L244.15,95.54L243.81,94.71L243.67,93.82L243.67,92.81L243.84,91.63L244.84,89.27L245.92,87.68L246.99,86.74L247.94,86.18L248.50,86.18z"/><path style="fill:#d3aa21" d="M249.99,121.42L250.18,121.73L250.33,122.75L250.17,124.81L249.99,125.30L249.17,127.31L247.93,129.08L246.82,129.97L245.61,130.60L243.98,130.60L243.33,130.25L242.83,129.75L242.33,128.38L242.31,126.91L242.24,126.85L242.68,124.70L244.08,122.23L245.27,120.91L246.27,120.24L247.16,120.06z"/><path style="fill:#d7d0c0" d="M190.91,24.43L192.32,25.21L192.40,25.94L194.58,33.15L106.90,72.34L98.37,72.33L96.94,104.94L92.59,102.88L74.05,94.03L73.78,94.01L73.67,93.92L73.58,92.31L73.55,90.20L73.49,90.15L74.84,57.15L79.34,53.97L168.89,13.91z"/><path style="fill:#d7d0c0" d="M189.41,44.96L189.91,45.62L190.35,49.19L190.90,49.30L194.43,49.47L193.75,53.87L192.02,58.31L189.34,62.64L186.58,65.56L183.39,67.71L120.08,96.04L117.46,96.76L116.45,94.71L115.80,93.05L114.12,93.03L112.63,92.69L110.96,91.19L109.81,88.62L109.70,88.14L109.63,87.31L109.63,86.63L110.04,83.96L110.44,82.23L112.14,77.92L114.63,73.90L117.23,71.16L118.91,70.16L182.00,41.95L183.07,41.95z"/><path style="fill:#d7d0c0" d="M205.93,61.31L206.44,61.98L206.74,64.85L206.88,65.04L210.78,65.15L210.77,66.05L210.27,69.06L208.60,73.39L206.43,76.73L203.53,79.67L200.36,81.51L199.03,81.57L197.41,78.00L195.74,78.02L194.24,77.35L192.90,75.68L192.45,74.26L192.29,73.92L192.33,71.78L192.44,71.12L193.69,66.99L195.68,63.14L198.41,59.86L199.37,59.15L200.37,58.80L200.75,58.80z"/><path style="fill:#d7d0c0" d="M179.88,84.20L180.57,85.51L181.00,91.20L181.89,91.36L188.74,91.53L189.24,91.71L188.08,99.44L185.35,106.73L181.34,113.40L180.34,114.73L179.24,115.97L175.37,120.12L169.66,123.75L103.73,153.30L95.03,153.29L93.92,180.06L93.59,185.91L93.26,185.87L70.88,175.15L70.62,175.13L70.38,174.99L70.24,172.94L70.24,169.26L71.48,138.71L71.58,138.22L72.06,137.83L76.01,134.93L142.45,105.22L144.58,103.81L144.88,103.65L144.88,103.51L146.28,101.88L148.51,99.60L150.34,96.76L153.35,91.92L156.28,84.12L156.39,83.65L167.32,78.85L168.37,78.66z"/><path style="fill:#d7d0c0" d="M204.75,95.38L205.10,96.03L205.37,98.94L209.29,99.02L209.47,99.20L208.94,102.77L207.38,106.89L205.10,110.62L202.19,113.55L199.04,115.41L197.71,115.63L196.08,112.06L194.23,111.91L192.75,111.22L191.39,109.41L191.08,108.35L190.92,107.67L190.92,106.49L191.06,105.10L192.35,100.71L194.34,97.02L196.86,93.86L198.03,93.04L199.25,92.68z"/><path style="fill:#d7d0c0" d="M186.24,126.08L186.57,126.58L187.01,130.32L191.09,130.43L190.41,134.82L188.90,138.99L186.18,143.45L183.41,146.52L179.98,148.77L116.46,177.22L114.08,177.72L113.28,176.17L112.63,174.32L112.46,174.13L111.28,174.16L109.60,173.84L109.12,173.65L107.44,171.83L106.47,169.76L106.44,169.15L106.37,169.09L106.37,167.26L106.70,165.08L107.10,163.36L108.89,158.80L111.29,155.03L113.88,152.27L115.74,151.12L179.00,122.91L179.55,122.91z"/><g id="Actor_.0"><g style="stroke:#000000;stroke-width:0.353"><path d="M250.52,114.35L248.02,114.35L245.33,115.53L242.73,117.76L240.51,120.81L240.15,121.60L238.91,124.34L238.09,127.97L238.15,131.31L239.09,133.99L240.80,135.73"/><path d="M248.36,119.81L249.37,120.40L250.04,121.52L250.28,122.98L250.29,123.05L250.10,124.81L249.49,126.63L248.52,128.29L248.07,128.78L247.30,129.63L245.96,130.50L244.64,130.80L243.50,130.50"/></g><g style="stroke:#000000;stroke-width:0.353"><path d="M225.44,125.12L225.20,125.00L223.92,123.70L223.22,121.69L223.17,119.18L223.78,116.46L224.99,113.81L226.65,111.53L228.60,109.85L230.62,108.97L232.49,108.97L233.07,109.25"/><path d="M225.88,126.46L226.38,127.91L228.09,129.64L240.80,135.73L243.09,136.33L245.71,135.73L248.40,134.00L248.92,133.43L250.84,131.32L252.78,127.99L254.01,124.36L254.03,124.14L254.39,120.83L253.88,117.78L252.54,115.54L250.52,114.35L237.81,108.27L235.31,108.27L232.62,109.45L230.02,111.68L227.80,114.73L226.20,118.26L225.38,121.89L225.45,125.22L225.88,126.46"/><path d="M243.50,130.50L242.64,129.63L242.18,128.29L242.15,126.62L242.55,124.80L243.36,123.04L244.47,121.51L245.77,120.40L247.11,119.81L248.36,119.81"/></g></g><g id="Actor_.1"><g style="stroke:#000000;stroke-width:0.353"><path d="M253.33,81.08L251.12,80.28L248.53,80.67L248.27,80.82L245.84,82.22L243.33,84.76L241.29,88.01L239.94,91.61L239.41,95.19L239.76,98.35L240.97,100.74L242.90,102.12"/><path d="M245.24,96.72L246.46,96.82L247.80,96.33L249.12,95.29L250.27,93.83L251.13,92.09L251.61,90.27L251.65,88.56L251.25,87.16L250.46,86.20"/></g><g style="stroke:#000000;stroke-width:0.353"><path d="M226.93,91.17L225.68,90.28L224.77,88.48L224.51,86.11L224.90,83.43L225.92,80.72L227.45,78.29L229.33,76.39L231.35,75.22L233.29,74.93L234.48,75.36"/><path d="M227.33,92.82L227.05,92.26L226.70,89.11L227.23,85.53L228.58,81.92L230.63,78.68L232.70,76.57L233.13,76.14L235.82,74.59L238.41,74.19L240.62,74.99L253.33,81.08L254.92,82.99L255.71,85.80L255.62,89.22L254.67,92.86L253.54,95.14L252.94,96.33L250.64,99.27L248.01,101.34L245.33,102.32L242.90,102.12L230.19,96.03L228.26,94.66L227.33,92.82"/><path d="M245.24,96.72L244.28,96.03L243.68,94.84L243.50,93.26L243.76,91.47L244.44,89.67L245.46,88.04L246.71,86.77L248.06,86.00L249.36,85.80L250.46,86.20"/></g></g><g id="Actor_.2"><g style="stroke:#000000;stroke-width:0.353"><path d="M189.87,146.94L101.91,186.25L97.46,189.45L93.58,186.05L70.28,174.90L71.63,142.11L71.48,138.25"/><path d="M175.50,78.56L178.61,81.28L180.49,85.61L180.98,91.12L180.01,97.29L177.70,103.50L174.25,109.14L170.01,113.67L165.40,116.64L99.23,146.21L75.93,135.06L71.63,142.11L94.93,153.26L93.58,186.05L101.91,186.25L103.26,153.46L99.23,146.21L94.93,153.26L103.26,153.46L169.42,123.89L175.31,120.10L180.72,114.32L185.12,107.12L188.07,99.19L188.16,98.62L189.30,91.32L188.69,84.28L186.28,78.76L182.32,75.29L177.19,74.22L171.40,75.64L105.24,105.21L96.91,105.01L73.61,93.86L74.95,61.07L98.25,72.22L106.58,72.42L105.24,105.21L100.79,108.41L96.91,105.01L96.93,104.42L98.25,72.22L102.56,65.17L192.11,25.15L194.54,33.11L106.58,72.42L102.56,65.17L102.09,64.95L79.26,54.02L74.95,61.07L74.81,57.21"/><path d="M114.10,151.84L117.46,149.68L180.85,121.35L184.16,120.53L187.08,121.15L189.35,123.13L190.72,126.29L191.08,130.31L190.37,134.81L188.68,139.33L186.17,143.45L183.08,146.75L179.71,148.92L116.33,177.25L113.02,178.06L110.09,177.45L107.83,175.47L106.45,172.31L106.10,168.28"/><path d="M109.26,173.78L111.64,174.28L114.32,173.62L177.70,145.29L180.43,143.54L182.94,140.86L184.97,137.52L186.34,133.85L186.91,130.21L186.63,126.95L185.51,124.39L183.68,122.78"/><path d="M117.42,70.80L120.79,68.63L184.17,40.31L187.48,39.49L190.41,40.11L192.67,42.09L194.05,45.25L194.40,49.27L193.70,53.76L192.01,58.29L189.49,62.41L186.79,65.31L186.40,65.71L183.04,67.88L119.66,96.21L116.35,97.02L113.42,96.41L111.15,94.43L109.78,91.27L109.42,87.25"/><path d="M187.00,41.74L188.84,43.35L189.95,45.91L190.24,49.17L189.67,52.81L188.30,56.48L186.26,59.82L183.76,62.50L181.03,64.25L117.64,92.58L114.96,93.24L112.59,92.75"/><path d="M146.71,102.52L150.95,97.99L154.39,92.34L156.71,86.13L157.17,83.21"/><path d="M199.77,91.56L202.85,90.50L205.61,90.83L207.78,92.48L209.11,95.30L209.46,98.97L208.79,103.10L207.18,107.24L204.79,110.93L201.89,113.79L198.79,115.49L196.07,115.83L195.83,115.86L193.33,114.86L191.55,112.59L190.70,109.30"/><path d="M201.17,57.62L204.24,56.56L207.01,56.88L209.18,58.54L210.51,61.36L210.86,65.03L210.19,69.16L208.57,73.30L206.18,76.99L203.28,79.85L200.18,81.55L197.22,81.92L194.72,80.92L192.94,78.65L192.09,75.36"/><path d="M202.29,92.50L203.99,93.79L205.03,96.00L205.17,97.46L205.30,98.87L204.78,102.10L203.51,105.34L201.64,108.23L199.37,110.47L198.16,111.14L196.95,111.80L194.63,112.09L192.67,111.31"/><path d="M203.68,58.56L205.38,59.85L206.42,62.06L206.69,64.93L206.17,68.16L204.90,71.40L203.03,74.30L200.77,76.53L199.55,77.20L198.34,77.86L196.02,78.15L194.06,77.37"/><path d="M194.54,33.11L215.14,48.72"/></g><g style="stroke:#000000;stroke-width:0.353"><path d="M175.50,78.56L171.49,77.72L166.95,78.84L100.79,108.41L77.48,97.25L73.61,93.86L73.46,90.00L74.81,57.21L79.26,54.02L168.80,14.00L192.11,25.15L215.09,42.56L215.14,48.73L212.54,112.00L189.87,146.94L187.01,149.43L97.46,189.45L74.16,178.29L70.28,174.90L70.14,171.04L71.48,138.25L75.93,135.06L142.10,105.49L146.71,102.52"/><path d="M106.16,167.89L106.31,169.62L107.43,172.18L109.26,173.78"/><path d="M183.68,122.78L181.30,122.28L178.62,122.95L115.24,151.27L113.70,152.27L111.01,155.15L108.49,159.26L106.80,163.79L106.10,168.28"/><path d="M112.59,92.75L110.75,91.14L109.64,88.58L109.49,86.85"/><path d="M109.42,87.25L110.13,82.75L111.82,78.22L114.33,74.10L117.42,70.80"/><path d="M113.70,152.27L114.10,151.84"/><path d="M117.03,71.22L118.56,70.23L181.95,41.91L184.63,41.25L187.00,41.74"/><path d="M156.36,83.57L156.30,83.98L153.34,91.91L148.94,99.11L144.30,104.07"/><path d="M190.70,109.30L190.86,105.35L192.02,101.16L193.91,97.46L194.05,97.19L196.73,93.87L199.77,91.56"/><path d="M190.77,107.55L191.28,109.53L192.67,111.31"/><path d="M192.09,75.36L192.25,71.41L193.41,67.22L195.44,63.25L198.12,59.93L201.17,57.62"/><path d="M194.06,77.37L192.68,75.59L192.16,73.61"/><path d="M202.29,92.50L200.12,92.25L197.84,93.03"/><path d="M203.68,58.56L201.51,58.30L199.23,59.09"/></g></g><g><g><path style="stroke:#000000;stroke-width:0.200;stroke-dasharray:3.0 2.0 1.0 2.0" d="M191.56,99.20L237.70,121.28"/></g><g><path style="fill:#000000" d="M192.06,99.20L192.06,99.15L192.05,99.10L192.04,99.05L192.03,99.01L192.00,98.96L191.98,98.92L191.95,98.88L191.92,98.84L191.88,98.81L191.84,98.78L191.80,98.76L191.76,98.73L191.71,98.72L191.66,98.71L191.61,98.70L191.56,98.70L191.51,98.70L191.47,98.71L191.42,98.72L191.37,98.73L191.33,98.76L191.29,98.78L191.25,98.81L191.21,98.84L191.18,98.88L191.15,98.92L191.12,98.96L191.10,99.01L191.09,99.05L191.07,99.10L191.07,99.15L191.06,99.20L191.07,99.25L191.07,99.29L191.09,99.34L191.10,99.39L191.12,99.43L191.15,99.47L191.18,99.51L191.21,99.55L191.25,99.58L191.29,99.61L191.33,99.64L191.37,99.66L191.42,99.68L191.47,99.69L191.51,99.69L191.56,99.70L191.61,99.69L191.66,99.69L191.71,99.68L191.76,99.66L191.80,99.64L191.84,99.61L191.88,99.58L191.92,99.55L191.95,99.51L191.98,99.47L192.00,99.43L192.03,99.39L192.04,99.34L192.05,99.29L192.06,99.25z"/></g><g><path style="fill:#000000" d="M238.20,121.28L238.20,121.24L238.20,121.19L238.18,121.14L238.17,121.09L238.15,121.05L238.12,121.01L238.09,120.97L238.06,120.93L238.02,120.90L237.98,120.87L237.94,120.84L237.90,120.82L237.85,120.81L237.80,120.79L237.75,120.79L237.70,120.78L237.66,120.79L237.61,120.79L237.56,120.81L237.51,120.82L237.47,120.84L237.43,120.87L237.39,120.90L237.35,120.93L237.32,120.97L237.29,121.01L237.26,121.05L237.24,121.09L237.23,121.14L237.21,121.19L237.21,121.24L237.20,121.28L237.21,121.33L237.21,121.38L237.23,121.43L237.24,121.48L237.26,121.52L237.29,121.56L237.32,121.60L237.35,121.64L237.39,121.67L237.43,121.70L237.47,121.73L237.51,121.75L237.56,121.76L237.61,121.77L237.66,121.78L237.70,121.78L237.75,121.78L237.80,121.77L237.85,121.76L237.90,121.75L237.94,121.73L237.98,121.70L238.02,121.67L238.06,121.64L238.09,121.60L238.12,121.56L238.15,121.52L238.17,121.48L238.18,121.43L238.20,121.38L238.20,121.33z"/></g></g><g><g><path style="stroke:#000000;stroke-width:0.200;stroke-dasharray:3.0 2.0 1.0 2.0" d="M193.00,65.11L239.14,87.19"/></g><g><path style="fill:#000000" d="M193.50,65.11L193.50,65.06L193.49,65.01L193.48,64.96L193.46,64.91L193.44,64.87L193.42,64.83L193.39,64.79L193.36,64.75L193.32,64.72L193.28,64.69L193.24,64.66L193.19,64.64L193.15,64.63L193.10,64.61L193.05,64.61L193.00,64.61L192.95,64.61L192.90,64.61L192.86,64.63L192.81,64.64L192.77,64.66L192.72,64.69L192.68,64.72L192.65,64.75L192.62,64.79L192.59,64.83L192.56,64.87L192.54,64.91L192.52,64.96L192.51,65.01L192.50,65.06L192.50,65.11L192.50,65.15L192.51,65.20L192.52,65.25L192.54,65.30L192.56,65.34L192.59,65.38L192.62,65.42L192.65,65.46L192.68,65.49L192.72,65.52L192.77,65.55L192.81,65.57L192.86,65.58L192.90,65.60L192.95,65.60L193.00,65.61L193.05,65.60L193.10,65.60L193.15,65.58L193.19,65.57L193.24,65.55L193.28,65.52L193.32,65.49L193.36,65.46L193.39,65.42L193.42,65.38L193.44,65.34L193.46,65.30L193.48,65.25L193.49,65.20L193.50,65.15z"/></g><g><path style="fill:#000000" d="M239.64,87.19L239.64,87.14L239.63,87.10L239.62,87.05L239.60,87.00L239.58,86.96L239.56,86.92L239.53,86.88L239.50,86.84L239.46,86.81L239.42,86.78L239.38,86.75L239.33,86.73L239.29,86.71L239.24,86.70L239.19,86.70L239.14,86.69L239.09,86.70L239.05,86.70L239.00,86.71L238.95,86.73L238.91,86.75L238.87,86.78L238.83,86.81L238.79,86.84L238.76,86.88L238.73,86.92L238.70,86.96L238.68,87.00L238.66,87.05L238.65,87.10L238.65,87.14L238.64,87.19L238.65,87.24L238.65,87.29L238.66,87.34L238.68,87.38L238.70,87.43L238.73,87.47L238.76,87.51L238.79,87.55L238.83,87.58L238.87,87.61L238.91,87.63L238.95,87.65L239.00,87.67L239.05,87.68L239.09,87.69L239.14,87.69L239.19,87.69L239.24,87.68L239.29,87.67L239.33,87.65L239.38,87.63L239.42,87.61L239.46,87.58L239.50,87.55L239.53,87.51L239.56,87.47L239.58,87.43L239.60,87.38L239.62,87.34L239.63,87.29L239.64,87.24z"/></g></g><g/><g id="paperID" visibility="hidden" opacity="0.00" transform="scale(0.000100)"><path style="stroke:#000000;stroke-width:0.500;fill:#e6e6e6;fill-rule:evenodd" d="M-2000.00,-2000.00L2297.00,-2000.00L2297.00,2210.00L-2000.00,2210.00zM0.00,0.00L297.00,0.00L297.00,210.00L0.00,210.00z"/><path style="fill:#000000;fill-opacity:0.118" d="M3.00,210.00L297.00,210.00L297.00,3.00L300.00,3.00L300.00,213.00L3.00,213.00z"/></g><g id="ToolTip" visibility="hidden" opacity="0" transform="translate(0,0)"><rect id="ToolTipShadow" opacity="0.20" fill="black" stroke="none" x="0" y="0" width="30" height="8"/><rect id="ToolTipBG" fill="#ffffe1" stroke="black" x="0" y="0" width="30" height="8"/><text xml:space="preserve" id="ToolTipText" fill="black" x="0" y="0" width="30" height="8">tooltip</text></g></g></svg>