<?xml version="1.0" encoding="UTF-8" standalone="yes"?><svg xmlns="http://www.w3.org/2000/svg" xmlns:xlink="http://www.w3.org/1999/xlink" width="297.000mm" height="210.000mm" viewBox="0.000000 0.000000 297.000000 210.000000" stroke-linejoin="round" stroke-linecap="round" fill="none" fill-rule="evenodd"><desc>Composer Export</desc><script type="text/ecmascript"><![CDATA[
if(typeof(top) != "undefined")
{
	top.ShowPaper = ShowPaper;
}
function ShowHotSpot(evt,hotspotid)
{
	var svgDocument = evt.target.ownerDocument;
	var strId = "hotspot."+hotspotid;
	var hotspot = svgDocument.getElementById(strId);
	if(hotspot)
		hotspot.setAttribute("opacity",".5");
}
function HideHotSpot(evt,hotspotid)
{
	var svgDocument = evt.target.ownerDocument;
	var strId = "hotspot."+hotspotid;
	var hotspot = svgDocument.getElementById(strId);
	if(hotspot)
		hotspot.setAttribute("opacity","0");

	var toolTip = svgDocument.getElementById('ToolTip');
	if(toolTip)
		toolTip.setAttribute("visibility","hidden");
}
function ShowToolTip(evt,hotspotid,strTooltip)
{
	if(strTooltip=="")
	return;

	// change text
	var svgDocument = evt.target.ownerDocument;
	var tiptext = svgDocument.getElementById('ToolTipText');
	if( !tiptext )
	return;
	tiptext.firstChild.nodeValue = " " + strTooltip + "  " ;

	// show tooltip before, else some refresh issue

	var toolTip = svgDocument.getElementById('ToolTip');
	if(!toolTip)
	return;

	toolTip.setAttribute("visibility","visible");
	toolTip.setAttribute("opacity",".95");

	// move tooltip
	// get viewbox

	var root = svgDocument.documentElement;
	var vbox = (root.getAttribute("viewBox")).split(' ');
	var x0 = parseFloat(vbox[0]);
	var y0 = parseFloat(vbox[1]);
	var vboxW = parseFloat(vbox[2]);
	var vboxH = parseFloat(vbox[3]);

	// get default width of svg

	var strW = root.getAttribute("width");
	var svgW = parseFloat(strW);
	if(strW.indexOf('mm') != -1)
	svgW *= 3.779;

	var strH = root.getAttribute("height");
	var svgH = parseFloat(strH);
	if(strH.indexOf('mm') != -1)
	svgH *= 3.779;  	// 96 dpi  -> 96/25.4 = 3.779

	// update the viewbox / width / height if svg is embedded in html with zoom fit all
	var realx0 = x0;
	var realy0 = y0;
	var realvboxW = vboxW;
	var realvboxH = vboxH;
	var realsvgW = svgW;
	var realsvgH = svgH;

	if ((typeof(top) == "undefined") || (typeof(top.svgctl1) != "undefined")) // embedded in html
	{
		// get window size in pxl

		svgW = window.innerWidth;
		svgH = window.innerHeight;

		// calculate real viewbox

		realsvgW = svgW;
		realsvgH = svgH;
		if((svgW / svgH) > (vboxW / vboxH))
		{
			realvboxW = (vboxH * svgW) / svgH;
			realvboxH = vboxH;
			realx0 = x0 - (realvboxW - vboxW)/2 ;
		}
		else
		{
			realvboxH = (vboxW * svgH) / svgW;
			realvboxW = vboxW;
			realy0 = y0 - (realvboxH - vboxH)/2 ;
		}
	}

	// get user zoom/pan

	var newScale = root.currentScale;
	var translation = root.currentTranslate;

	// transform pxl to user unit

	var xPos = (((evt.clientX+10- translation.x)/newScale) * realvboxW)/realsvgW  + realx0 ;
	var yPos = (((evt.clientY+5- translation.y)/newScale) * realvboxH)/ realsvgH  + realy0 ;
	var scaleForWidth = ( (1 / newScale) * realvboxH) / realsvgH;

	// move tooltip

	toolTip.setAttribute("transform", "translate(" + xPos + "," + yPos + ")" );

	// resize tooltip

	var fontsize = 12;
	tiptext.setAttribute("font-size",fontsize*scaleForWidth);
	tiptext.setAttribute("y", fontsize*scaleForWidth);
	var tipBG = svgDocument.getElementById('ToolTipBG');
	var outline = tiptext.getBBox();
	if(tipBG)
	{
		tipBG.setAttribute("stroke-width", 1*scaleForWidth);
		tipBG.setAttribute("width", Number(outline.width) );
		tipBG.setAttribute("height", Number(outline.height) + fontsize*.5*scaleForWidth );
	}
	var ToolTipShadow = svgDocument.getElementById('ToolTipShadow');
	if(ToolTipShadow)
	{
		ToolTipShadow.setAttribute("width", Number(outline.width) );
		ToolTipShadow.setAttribute("height", Number(outline.height) + fontsize*.5*scaleForWidth );
		ToolTipShadow.setAttribute("x", 3*scaleForWidth);
		ToolTipShadow.setAttribute("y", 3*scaleForWidth);
	}
}
function ShowPaper()
{
  var svgDocument = getDocument();
  var paper = svgDocument.getElementById("paperID");
  if(paper)
  {
    paper.setAttribute("transform","scale(1)");
    paper.setAttribute("opacity","1");
    paper.setAttribute("visibility","visible");
  }
  var svg = svgDocument.getRootElement();
  if(svg)
  {
    svg.setAttribute("width","307.000mm");
    svg.setAttribute("height","220.000mm");
    svg.setAttribute("viewBox","-5.000000 -5.000000 307.000000 220.000000");
  }
}
]]></script><defs/><g><path style="fill:#ffffff" d="M296.91,209.94L0.05,209.94L0.05,0.05L296.91,0.05z"/><path style="fill:#000020" d="M222.34,32.85L221.84,32.76L222.30,32.71z"/><path style="fill:#d3aa21" d="M225.19,15.48L226.95,15.92L228.97,16.91L229.82,17.73L230.49,19.09L230.33,19.53L230.14,20.15L229.40,21.08L227.91,21.93L225.74,22.42L223.11,22.42L222.74,26.26L222.54,30.88L222.54,31.05L222.30,32.71L221.84,32.76L220.45,32.45L219.11,31.78L218.46,31.26L217.97,30.55L218.12,29.39L217.84,29.25L217.72,29.20L217.62,28.42L217.40,28.95L216.47,30.01L214.77,30.82L213.39,31.10L210.38,31.26L210.05,35.28L209.77,41.18L209.64,41.53L209.48,41.60L207.43,41.12L206.28,40.43L205.77,40.11L205.29,39.23L205.25,38.12L205.16,38.08L204.27,37.27L203.92,36.62L203.85,34.56L204.45,26.71L205.37,25.42L206.93,24.64L208.21,24.26L210.67,24.08L212.83,24.34L214.94,24.93L216.45,25.82L216.54,25.21L217.10,17.96L218.04,16.73L219.40,15.92L220.39,15.58L222.68,15.32L223.18,15.32z"/><path style="fill:#a8881b" d="M225.74,22.42L227.91,21.93L229.40,21.08L230.14,20.15L230.33,19.53L230.23,21.71L229.82,27.38L229.64,28.50L228.98,29.34L228.01,30.08L227.91,30.11L227.88,30.54L227.80,31.17L226.98,32.01L225.75,32.62L224.91,32.77L222.34,32.85L222.30,32.71L222.54,31.05L224.97,30.94L222.54,30.88L222.74,26.26L223.11,22.42z"/><path style="fill:#a8881b" d="M217.72,29.20L217.62,29.54L217.12,36.67L216.78,37.67L215.33,38.93L215.23,38.96L215.20,39.39L215.11,39.85L214.44,40.67L213.23,41.29L211.83,41.61L209.64,41.53L209.77,41.18L210.05,35.28L210.38,31.26L213.39,31.10L214.77,30.82L216.47,30.01L217.40,28.95L217.62,28.42z"/><path style="fill:#d7d0c0" d="M231.13,49.97L233.39,51.08L229.40,54.96L227.91,56.31L224.56,59.63L223.07,60.98L219.88,64.14L218.40,65.49L215.04,68.81L213.55,70.17L210.37,73.32L206.76,76.74L206.77,77.33L209.12,80.85L205.04,81.02L204.91,81.21L204.26,85.08L202.91,90.08L202.86,90.57L206.29,92.03L206.43,92.26L204.26,97.93L201.87,102.88L199.08,107.44L196.51,104.20L195.91,105.10L194.02,107.39L192.84,108.71L191.35,110.06L188.00,113.38L186.51,114.73L183.33,117.89L181.84,119.24L178.48,122.56L177.00,123.92L173.81,127.07L172.32,128.42L169.14,131.58L167.65,132.93L164.30,136.25L162.81,137.60L159.62,140.76L158.14,142.11L154.78,145.43L153.29,146.78L150.11,149.94L148.62,151.29L145.43,154.45L143.95,155.80L139.25,160.47L140.16,164.31L140.17,165.04L139.52,165.89L111.39,185.33L111.11,185.89L110.96,188.25L110.77,188.58L110.45,188.54L88.73,179.00L88.51,178.94L88.51,177.61L88.68,175.64L117.56,155.62L171.26,112.80L171.56,112.64L171.59,112.54L173.39,111.13L173.89,103.54L171.32,103.55L170.15,103.88L97.88,147.29L69.22,167.04L68.90,169.87L20.47,148.61L20.20,148.60L19.50,148.23L19.49,147.73L19.66,145.39L21.30,144.16L47.97,125.75L48.47,125.58L49.02,125.58L75.22,137.11L76.02,137.11L160.45,94.18L162.54,92.77L164.71,90.93L166.30,89.52L168.65,86.86L170.87,83.90L172.32,81.68L174.38,78.06L176.38,73.22L177.63,69.26L178.08,67.11L178.55,66.71L190.02,60.82L220.23,45.45L220.79,45.45z"/><path style="fill:#aca699" d="M234.32,52.12L235.91,54.90L235.90,55.93L229.90,138.56L229.80,139.01L228.90,139.92L227.41,141.28L224.22,144.43L222.74,145.78L219.38,149.11L217.89,150.46L206.03,161.96L203.11,164.72L200.37,166.34L199.92,166.33L174.23,154.95L172.94,153.76L173.20,153.79L197.08,164.32L199.09,165.05L200.92,140.66L201.09,134.10L200.78,130.07L186.56,123.73L186.34,123.73L185.83,124.23L184.34,125.58L181.16,128.74L179.67,130.09L176.31,133.41L174.83,134.77L173.24,136.38L173.07,136.54L171.64,137.92L170.15,139.27L166.97,142.43L165.48,143.78L162.13,147.10L160.64,148.45L157.45,151.61L155.97,152.96L152.61,156.28L151.12,157.63L147.94,160.79L139.84,168.55L137.67,170.56L111.29,188.90L110.34,189.09L109.27,189.02L89.90,180.52L88.58,179.16L88.51,178.94L88.73,179.00L110.45,188.54L110.77,188.58L110.96,188.25L111.11,185.89L111.39,185.33L139.52,165.89L140.17,165.04L140.16,164.31L139.25,160.47L143.95,155.80L145.43,154.45L148.62,151.29L150.11,149.94L153.29,146.78L154.78,145.43L158.14,142.11L159.62,140.76L162.81,137.60L164.30,136.25L167.65,132.93L169.14,131.58L172.32,128.42L173.81,127.07L177.00,123.92L178.48,122.56L181.84,119.24L183.33,117.89L186.51,114.73L188.00,113.38L191.35,110.06L192.84,108.71L194.02,107.39L195.91,105.10L196.51,104.20L199.08,107.44L201.87,102.88L204.26,97.93L206.43,92.26L206.29,92.03L202.86,90.57L202.91,90.08L204.26,85.08L204.91,81.21L205.04,81.02L209.12,80.85L206.77,77.33L206.76,76.74L210.37,73.32L213.55,70.17L215.04,68.81L218.40,65.49L219.88,64.14L223.07,60.98L224.56,59.63L227.91,56.31L229.40,54.96L233.39,51.08z"/><path style="fill:#aca699" d="M170.75,111.49L170.72,111.23L169.25,111.30L161.64,114.40L97.43,153.01L70.84,171.34L70.39,171.34L24.15,150.96L20.31,148.77L20.20,148.60L20.47,148.61L68.90,169.87L69.22,167.04L97.88,147.29L170.15,103.88L171.32,103.55L173.89,103.54L173.39,111.13L171.59,112.54L171.30,112.52z"/><path style="fill:#000019" d="M211.15,29.52L210.65,29.42L211.16,29.38z"/><path style="fill:#000019" d="M222.54,31.05L222.54,30.88L224.97,30.94z"/><path style="fill:#000019" d="M68.89,147.41L68.81,146.55L68.88,146.61z"/><path style="fill:#000019" d="M75.78,150.94L76.47,150.87L76.57,150.96z"/><path style="fill:#000019" d="M110.81,165.92L110.71,165.08L110.78,165.14z"/><path style="fill:#000019" d="M118.35,169.39L117.35,169.30L118.35,169.27z"/><path style="fill:#000020" d="M218.12,29.39L217.97,30.55L217.84,29.25z"/><path style="fill:#000020" d="M211.15,29.52L211.16,29.38L211.95,29.43z"/><path style="fill:#000020" d="M227.88,30.54L227.91,30.11L228.01,30.08z"/><path style="fill:#000020" d="M205.29,39.23L205.16,38.08L205.25,38.12z"/><path style="fill:#000020" d="M215.20,39.39L215.23,38.96L215.33,38.93z"/><path style="fill:#000020" d="M209.48,41.60L209.64,41.53L211.83,41.61z"/><path style="fill:#000020" d="M221.17,55.30L221.50,55.22L222.64,55.31z"/><path style="fill:#000020" d="M235.90,55.93L235.91,54.90L235.98,54.97z"/><path style="fill:#000020" d="M169.25,111.30L170.72,111.23L170.75,111.49L170.56,111.39z"/><path style="fill:#000020" d="M171.56,112.64L171.26,112.80L171.30,112.52L171.59,112.54z"/><path style="fill:#000020" d="M173.14,137.05L173.07,136.54L173.24,136.38z"/><path style="fill:#000020" d="M19.50,148.23L19.42,147.80L19.49,147.73z"/><path style="fill:#000020" d="M172.40,152.40L172.30,151.90L172.38,151.96z"/><path style="fill:#000020" d="M172.57,153.40L172.47,152.91L172.54,152.97z"/><path style="fill:#000020" d="M118.35,169.39L118.35,169.27L120.31,169.32z"/><path style="fill:#a8881b" d="M220.43,18.47L221.06,17.75L222.23,17.25L223.96,17.24L223.81,20.65L222.11,20.43L220.97,19.74L220.62,19.42z"/><path style="fill:#a8881b" d="M207.75,27.49L208.20,26.59L209.38,26.09L210.22,25.93L211.28,25.92L211.16,29.38L210.65,29.42L209.26,29.11L208.11,28.42L207.77,27.91z"/><path style="fill:#d7d0c0" d="M200.78,130.07L201.09,134.10L200.92,140.66L199.09,165.05L197.08,164.32L173.20,153.79L172.94,153.76L172.57,153.40L172.54,152.97L172.47,152.91L172.40,152.40L172.38,151.96L172.30,151.90L172.23,151.24L172.23,149.56L173.14,137.05L173.24,136.38L174.83,134.77L176.31,133.41L179.67,130.09L181.16,128.74L184.34,125.58L185.83,124.23L186.34,123.73L186.56,123.73z"/><path style="fill:#aca699" d="M215.44,51.52L215.70,50.78L216.78,49.85L218.06,49.30L219.57,48.97L221.79,48.96L221.79,51.02L221.50,55.22L221.17,55.30L219.67,55.12L217.94,54.64L216.46,53.80L215.60,52.81L215.43,52.31z"/><path style="fill:#aca699" d="M202.75,60.20L203.01,59.46L203.92,58.70L205.04,58.14L206.54,57.81L209.11,57.81L209.10,59.70L208.78,64.06L207.31,63.97L205.42,63.50L203.94,62.64L203.05,61.86L202.75,61.16z"/><path style="fill:#aca699" d="M76.90,143.10L76.47,150.87L75.78,150.94L73.05,150.46L71.07,149.60L69.73,148.61L68.89,147.41L68.88,146.61L68.81,146.55L68.87,145.82L69.81,144.59L71.17,143.78L72.66,143.27L75.73,142.95z"/><path style="fill:#aca699" d="M110.71,165.08L110.79,164.21L111.63,163.04L112.73,162.31L114.73,161.64L115.90,161.47L118.80,161.47L118.35,169.27L117.35,169.30L115.34,168.97L113.12,168.15L111.46,166.97L110.81,165.92L110.78,165.14z"/><g id="Actor_.0"><g style="stroke:#000000;stroke-width:0.353"><path d="M19.43,148.17L68.87,169.92L69.07,167.11L97.28,147.60L169.30,104.34L170.17,103.88L171.44,103.54L172.69,103.42L173.89,103.45L175.47,103.72L176.68,104.20L177.71,104.98L178.27,105.88L178.34,106.57"/><path d="M68.53,161.76L24.49,142.39L19.64,145.36L69.07,167.11L68.53,161.76L94.85,143.56L166.87,100.29L168.22,99.59L170.37,99.00L172.45,98.81L175.12,99.05L177.85,99.80L180.09,101.01L181.52,102.49L181.75,102.90L181.87,104.06L181.32,105.33L180.43,106.19L119.81,154.54L93.49,172.74L110.51,180.23L111.05,185.58L110.83,188.72L88.40,178.85"/><path d="M24.49,142.39L48.80,125.57"/><path d="M68.87,169.92L70.62,171.39"/><path d="M83.63,147.24L83.13,145.91L81.88,144.70L80.01,143.74L77.73,143.14L75.25,142.95L72.88,143.19L70.84,143.87L69.42,144.85L68.70,146.09"/><path d="M110.51,180.23L139.15,160.42L193.44,108.05L195.59,105.49L197.68,102.28L199.67,98.47L201.46,94.26L202.97,89.82L204.13,85.35L204.91,80.99L206.51,76.98L209.07,80.94L208.25,85.51L207.02,90.25L205.43,94.96L204.08,98.17L203.53,99.49L201.40,103.66L199.11,107.31L196.75,110.31L195.66,111.43L140.24,164.91L139.26,166.07L111.05,185.58L88.63,175.72L93.49,172.74"/><path d="M110.83,188.72L111.02,188.94"/><path d="M110.57,164.51L111.29,163.28L112.73,162.28L114.75,161.62L117.18,161.37L119.59,161.56L121.88,162.17L123.76,163.13L125.01,164.34L125.50,165.66"/><path d="M161.25,93.88L164.65,91.84L167.92,89.08L170.96,85.72L173.64,81.91L175.86,77.81L177.53,73.58L178.56,69.39L204.91,80.99L209.07,80.94L235.87,55.08L233.33,51.08L206.51,76.98L180.68,65.60L178.56,69.39L178.07,67.05"/><path d="M173.88,135.59L172.57,153.53L199.06,165.18L203.01,164.73L204.85,139.41L204.99,136.74L204.93,131.83L204.41,127.52L203.46,123.91L202.08,121.08L200.31,119.10L198.19,118.00L195.77,117.82L193.86,118.34L193.09,118.56L190.22,120.20"/><path d="M200.09,166.33L199.06,165.18L200.90,139.86L201.06,134.89L200.77,130.47L200.05,126.71L198.90,123.69L197.35,121.50L195.47,120.20"/><path d="M202.55,60.74L202.81,59.70L203.69,58.80L205.09,58.12L205.64,58.01L206.87,57.76L208.83,57.73L210.76,58.06L212.45,58.69L213.72,59.57L214.43,60.60L214.50,61.66"/><path d="M215.24,51.97L215.50,50.93L216.37,50.02L217.78,49.35L219.56,48.98L221.52,48.96L223.45,49.28L225.14,49.92L226.41,50.80L227.11,51.82L227.19,52.89"/><path d="M234.25,52.18L234.25,52.21"/></g><g style="stroke:#000000;stroke-width:0.353"><path d="M171.42,112.68L170.54,111.27L169.38,111.23L168.79,111.33L161.71,114.28L96.87,153.23L70.62,171.39L23.89,150.83L19.43,148.17L19.64,145.36L47.85,125.85L48.80,125.57L75.57,137.35L161.25,93.88"/><path d="M83.63,147.24L83.31,148.54L82.21,149.67L80.46,150.51L78.23,150.97L75.78,151.00L73.37,150.59L71.26,149.80L69.67,148.70L68.78,147.42L68.70,146.09"/><path d="M190.22,120.20L187.23,122.71L139.03,169.21L137.43,170.67L111.02,188.94L109.72,189.14L89.69,180.32L88.40,178.85L88.63,175.72L116.84,156.21L177.41,107.90L178.01,107.34L178.34,106.57"/><path d="M110.57,164.51L110.66,165.84L111.54,167.12L113.13,168.22L115.24,169.02L117.65,169.42L120.10,169.39L122.33,168.93L124.08,168.09L125.18,166.96L125.50,165.66"/><path d="M173.18,136.26L172.12,150.83L172.57,153.53L174.32,154.99L200.09,166.33L203.01,164.73L229.77,138.91L235.87,55.08L234.25,52.18L233.33,51.08L220.47,45.42L180.68,65.60L178.07,67.05L177.61,69.27L176.23,73.82L174.25,78.36L171.76,82.71L168.83,86.73L165.59,90.26L162.15,93.16L159.77,94.64"/><path d="M170.54,111.27L170.80,111.26L172.72,111.64"/><path d="M188.95,121.26L190.72,120.32L193.26,119.79L195.47,120.20"/><path d="M202.55,60.74L202.95,61.80L203.95,62.77L205.45,63.54L207.29,64.02L209.26,64.17L211.15,63.98L212.77,63.45L213.92,62.65L214.50,61.66"/><path d="M227.19,52.89L226.61,53.87L225.46,54.67L223.84,55.20L221.94,55.40L219.97,55.25L218.14,54.76L216.64,53.99L215.64,53.03L215.24,51.97"/></g></g><g id="Actor_.1"><g style="stroke:#000000;stroke-width:0.353"><path d="M217.04,18.13L217.12,19.31L217.91,20.45L219.32,21.43L221.20,22.14L223.34,22.50L225.52,22.47L226.23,22.32L227.50,22.06L229.06,21.31L230.03,20.31L230.32,19.15"/><path d="M220.35,18.53L220.67,17.98L221.31,17.54L222.21,17.25L223.26,17.14L224.36,17.22L225.38,17.49L226.21,17.92L226.77,18.46L226.99,19.04"/></g><g style="stroke:#000000;stroke-width:0.353"><path d="M217.56,29.08L218.70,29.87L220.58,30.58L222.73,30.94L224.91,30.91L225.07,30.88L226.88,30.50L228.44,29.75L229.42,28.75L229.70,27.59L230.32,19.15L229.88,17.98L228.77,16.90L227.10,16.05L225.06,15.51L222.87,15.34L220.76,15.56L218.97,16.15L217.68,17.03L217.04,18.13L216.47,26.02"/><path d="M227.85,30.03L227.83,30.35L227.62,31.22L226.89,31.97L225.72,32.53L225.07,32.67L224.24,32.84L222.60,32.86L220.99,32.59L220.43,32.38L219.58,32.06L218.53,31.33L217.94,30.47L217.88,29.58L217.90,29.31"/><path d="M226.99,19.04L226.84,19.62L226.36,20.12L225.58,20.50L224.59,20.70L223.50,20.72L222.43,20.54L221.49,20.18L220.83,19.72L220.78,19.69L220.39,19.12L220.35,18.53"/></g></g><g id="Actor_.2"><g style="stroke:#000000;stroke-width:0.353"><path d="M204.41,26.72L204.38,27.90L205.05,29.05L206.37,30.06L207.67,30.60L208.19,30.82L210.31,31.24L212.50,31.27L214.52,30.92L216.16,30.22L217.23,29.25L217.63,28.11"/><path d="M207.69,27.22L208.06,26.68L208.75,26.26L209.68,25.99L210.75,25.91L211.84,26.03L212.84,26.32L213.63,26.77L214.14,27.32L214.30,27.91"/></g><g style="stroke:#000000;stroke-width:0.353"><path d="M204.19,37.07L203.76,36.34L203.80,35.16L204.41,26.72L205.16,25.65L206.54,24.81L208.39,24.27L210.53,24.11L211.15,24.18L212.71,24.34L214.71,24.94L216.30,25.83L217.31,26.93L217.63,28.11L217.02,36.55L216.62,37.69L215.54,38.66L213.91,39.36L212.31,39.64L211.88,39.71L209.69,39.68L207.57,39.26L205.76,38.50L204.44,37.49L204.19,37.07"/><path d="M215.18,38.82L215.15,39.27L214.85,40.12L214.04,40.85L212.81,41.37L211.29,41.64L209.65,41.61L208.06,41.30L207.67,41.13L206.70,40.73L205.71,39.97L205.20,39.10L205.23,38.22L205.24,38.11"/><path d="M207.69,27.22L207.67,27.80L208.01,28.38L208.67,28.89L209.58,29.26L210.64,29.47L211.73,29.49L212.74,29.32L213.56,28.97L214.10,28.48L214.30,27.91"/></g></g><g><g><path style="stroke:#000000;stroke-width:0.200;stroke-dasharray:3.0 2.0 1.0 2.0" d="M220.86,57.81L223.28,24.58"/></g><g><path style="fill:#000000" d="M221.36,57.81L221.36,57.76L221.35,57.71L221.34,57.66L221.33,57.61L221.30,57.57L221.28,57.53L221.25,57.49L221.22,57.45L221.18,57.42L221.14,57.39L221.10,57.36L221.06,57.34L221.01,57.33L220.96,57.32L220.91,57.31L220.86,57.31L220.81,57.31L220.77,57.32L220.72,57.33L220.67,57.34L220.63,57.36L220.59,57.39L220.55,57.42L220.51,57.45L220.48,57.49L220.45,57.53L220.42,57.57L220.40,57.61L220.39,57.66L220.37,57.71L220.37,57.76L220.36,57.81L220.37,57.85L220.37,57.90L220.39,57.95L220.40,58.00L220.42,58.04L220.45,58.08L220.48,58.12L220.51,58.16L220.55,58.19L220.59,58.22L220.63,58.25L220.67,58.27L220.72,58.28L220.77,58.30L220.81,58.30L220.86,58.31L220.91,58.30L220.96,58.30L221.01,58.28L221.06,58.27L221.10,58.25L221.14,58.22L221.18,58.19L221.22,58.16L221.25,58.12L221.28,58.08L221.30,58.04L221.33,58.00L221.34,57.95L221.35,57.90L221.36,57.85z"/></g><g><path style="fill:#000000" d="M223.78,24.58L223.78,24.53L223.77,24.48L223.76,24.43L223.74,24.39L223.72,24.34L223.70,24.30L223.67,24.26L223.64,24.22L223.60,24.19L223.56,24.16L223.52,24.14L223.47,24.12L223.43,24.10L223.38,24.09L223.33,24.08L223.28,24.08L223.23,24.08L223.18,24.09L223.14,24.10L223.09,24.12L223.05,24.14L223.00,24.16L222.96,24.19L222.93,24.22L222.90,24.26L222.87,24.30L222.84,24.34L222.82,24.39L222.80,24.43L222.79,24.48L222.78,24.53L222.78,24.58L222.78,24.63L222.79,24.68L222.80,24.72L222.82,24.77L222.84,24.81L222.87,24.86L222.90,24.90L222.93,24.93L222.96,24.96L223.00,24.99L223.05,25.02L223.09,25.04L223.14,25.06L223.18,25.07L223.23,25.08L223.28,25.08L223.33,25.08L223.38,25.07L223.43,25.06L223.47,25.04L223.52,25.02L223.56,24.99L223.60,24.96L223.64,24.93L223.67,24.90L223.70,24.86L223.72,24.81L223.74,24.77L223.76,24.72L223.77,24.68L223.78,24.63z"/></g></g><g><g><path style="stroke:#000000;stroke-width:0.200;stroke-dasharray:3.0 2.0 1.0 2.0" d="M208.18,66.57L210.60,33.35"/></g><g><path style="fill:#000000" d="M208.68,66.57L208.68,66.53L208.67,66.48L208.66,66.43L208.64,66.38L208.62,66.34L208.60,66.30L208.57,66.26L208.54,66.22L208.50,66.19L208.46,66.16L208.42,66.13L208.37,66.11L208.33,66.10L208.28,66.08L208.23,66.08L208.18,66.07L208.13,66.08L208.08,66.08L208.04,66.10L207.99,66.11L207.95,66.13L207.90,66.16L207.87,66.19L207.83,66.22L207.80,66.26L207.77,66.30L207.74,66.34L207.72,66.38L207.70,66.43L207.69,66.48L207.68,66.53L207.68,66.57L207.68,66.62L207.69,66.67L207.70,66.72L207.72,66.77L207.74,66.81L207.77,66.85L207.80,66.89L207.83,66.93L207.87,66.96L207.90,66.99L207.95,67.02L207.99,67.04L208.04,67.05L208.08,67.06L208.13,67.07L208.18,67.07L208.23,67.07L208.28,67.06L208.33,67.05L208.37,67.04L208.42,67.02L208.46,66.99L208.50,66.96L208.54,66.93L208.57,66.89L208.60,66.85L208.62,66.81L208.64,66.77L208.66,66.72L208.67,66.67L208.68,66.62z"/></g><g><path style="fill:#000000" d="M211.10,33.35L211.10,33.30L211.09,33.25L211.08,33.20L211.06,33.16L211.04,33.11L211.02,33.07L210.99,33.03L210.95,32.99L210.92,32.96L210.88,32.93L210.84,32.91L210.79,32.88L210.75,32.87L210.70,32.86L210.65,32.85L210.60,32.85L210.55,32.85L210.50,32.86L210.46,32.87L210.41,32.88L210.36,32.91L210.32,32.93L210.28,32.96L210.25,32.99L210.21,33.03L210.18,33.07L210.16,33.11L210.14,33.16L210.12,33.20L210.11,33.25L210.10,33.30L210.10,33.35L210.10,33.40L210.11,33.44L210.12,33.49L210.14,33.54L210.16,33.58L210.18,33.62L210.21,33.66L210.25,33.70L210.28,33.73L210.32,33.76L210.36,33.79L210.41,33.81L210.46,33.83L210.50,33.84L210.55,33.84L210.60,33.85L210.65,33.84L210.70,33.84L210.75,33.83L210.79,33.81L210.84,33.79L210.88,33.76L210.92,33.73L210.95,33.70L210.99,33.66L211.02,33.62L211.04,33.58L211.06,33.54L211.08,33.49L211.09,33.44L211.10,33.40z"/></g></g><g/><g id="paperID" visibility="hidden" opacity="0.00" transform="scale(0.000100)"><path style="stroke:#000000;stroke-width:0.500;fill:#e6e6e6;fill-rule:evenodd" d="M-2000.00,-2000.00L2297.00,-2000.00L2297.00,2210.00L-2000.00,2210.00zM0.00,0.00L297.00,0.00L297.00,210.00L0.00,210.00z"/><path style="fill:#000000;fill-opacity:0.118" d="M3.00,210.00L297.00,210.00L297.00,3.00L300.00,3.00L300.00,213.00L3.00,213.00z"/></g><g id="ToolTip" visibility="hidden" opacity="0" transform="translate(0,0)"><rect id="ToolTipShadow" opacity="0.20" fill="black" stroke="none" x="0" y="0" width="30" height="8"/><rect id="ToolTipBG" fill="#ffffe1" stroke="black" x="0" y="0" width="30" height="8"/><text xml:space="preserve" id="ToolTipText" fill="black" x="0" y="0" width="30" height="8">tooltip</text></g></g></svg>