<?xml version="1.0" encoding="UTF-8" standalone="yes"?><svg xmlns="http://www.w3.org/2000/svg" xmlns:xlink="http://www.w3.org/1999/xlink" width="297.000mm" height="210.000mm" viewBox="0.000000 0.000000 297.000000 210.000000" stroke-linejoin="round" stroke-linecap="round" fill="none" fill-rule="evenodd"><desc>Composer Export</desc><script type="text/ecmascript"><![CDATA[
if(typeof(top) != "undefined")
{
	top.ShowPaper = ShowPaper;
}
function ShowHotSpot(evt,hotspotid)
{
	var svgDocument = evt.target.ownerDocument;
	var strId = "hotspot."+hotspotid;
	var hotspot = svgDocument.getElementById(strId);
	if(hotspot)
		hotspot.setAttribute("opacity",".5");
}
function HideHotSpot(evt,hotspotid)
{
	var svgDocument = evt.target.ownerDocument;
	var strId = "hotspot."+hotspotid;
	var hotspot = svgDocument.getElementById(strId);
	if(hotspot)
		hotspot.setAttribute("opacity","0");

	var toolTip = svgDocument.getElementById('ToolTip');
	if(toolTip)
		toolTip.setAttribute("visibility","hidden");
}
function ShowToolTip(evt,hotspotid,strTooltip)
{
	if(strTooltip=="")
	return;

	// change text
	var svgDocument = evt.target.ownerDocument;
	var tiptext = svgDocument.getElementById('ToolTipText');
	if( !tiptext )
	return;
	tiptext.firstChild.nodeValue = " " + strTooltip + "  " ;

	// show tooltip before, else some refresh issue

	var toolTip = svgDocument.getElementById('ToolTip');
	if(!toolTip)
	return;

	toolTip.setAttribute("visibility","visible");
	toolTip.setAttribute("opacity",".95");

	// move tooltip
	// get viewbox

	var root = svgDocument.documentElement;
	var vbox = (root.getAttribute("viewBox")).split(' ');
	var x0 = parseFloat(vbox[0]);
	var y0 = parseFloat(vbox[1]);
	var vboxW = parseFloat(vbox[2]);
	var vboxH = parseFloat(vbox[3]);

	// get default width of svg

	var strW = root.getAttribute("width");
	var svgW = parseFloat(strW);
	if(strW.indexOf('mm') != -1)
	svgW *= 3.779;

	var strH = root.getAttribute("height");
	var svgH = parseFloat(strH);
	if(strH.indexOf('mm') != -1)
	svgH *= 3.779;  	// 96 dpi  -> 96/25.4 = 3.779

	// update the viewbox / width / height if svg is embedded in html with zoom fit all
	var realx0 = x0;
	var realy0 = y0;
	var realvboxW = vboxW;
	var realvboxH = vboxH;
	var realsvgW = svgW;
	var realsvgH = svgH;

	if ((typeof(top) == "undefined") || (typeof(top.svgctl1) != "undefined")) // embedded in html
	{
		// get window size in pxl

		svgW = window.innerWidth;
		svgH = window.innerHeight;

		// calculate real viewbox

		realsvgW = svgW;
		realsvgH = svgH;
		if((svgW / svgH) > (vboxW / vboxH))
		{
			realvboxW = (vboxH * svgW) / svgH;
			realvboxH = vboxH;
			realx0 = x0 - (realvboxW - vboxW)/2 ;
		}
		else
		{
			realvboxH = (vboxW * svgH) / svgW;
			realvboxW = vboxW;
			realy0 = y0 - (realvboxH - vboxH)/2 ;
		}
	}

	// get user zoom/pan

	var newScale = root.currentScale;
	var translation = root.currentTranslate;

	// transform pxl to user unit

	var xPos = (((evt.clientX+10- translation.x)/newScale) * realvboxW)/realsvgW  + realx0 ;
	var yPos = (((evt.clientY+5- translation.y)/newScale) * realvboxH)/ realsvgH  + realy0 ;
	var scaleForWidth = ( (1 / newScale) * realvboxH) / realsvgH;

	// move tooltip

	toolTip.setAttribute("transform", "translate(" + xPos + "," + yPos + ")" );

	// resize tooltip

	var fontsize = 12;
	tiptext.setAttribute("font-size",fontsize*scaleForWidth);
	tiptext.setAttribute("y", fontsize*scaleForWidth);
	var tipBG = svgDocument.getElementById('ToolTipBG');
	var outline = tiptext.getBBox();
	if(tipBG)
	{
		tipBG.setAttribute("stroke-width", 1*scaleForWidth);
		tipBG.setAttribute("width", Number(outline.width) );
		tipBG.setAttribute("height", Number(outline.height) + fontsize*.5*scaleForWidth );
	}
	var ToolTipShadow = svgDocument.getElementById('ToolTipShadow');
	if(ToolTipShadow)
	{
		ToolTipShadow.setAttribute("width", Number(outline.width) );
		ToolTipShadow.setAttribute("height", Number(outline.height) + fontsize*.5*scaleForWidth );
		ToolTipShadow.setAttribute("x", 3*scaleForWidth);
		ToolTipShadow.setAttribute("y", 3*scaleForWidth);
	}
}
function ShowPaper()
{
  var svgDocument = getDocument();
  var paper = svgDocument.getElementById("paperID");
  if(paper)
  {
    paper.setAttribute("transform","scale(1)");
    paper.setAttribute("opacity","1");
    paper.setAttribute("visibility","visible");
  }
  var svg = svgDocument.getRootElement();
  if(svg)
  {
    svg.setAttribute("width","307.000mm");
    svg.setAttribute("height","220.000mm");
    svg.setAttribute("viewBox","-5.000000 -5.000000 307.000000 220.000000");
  }
}
]]></script><defs/><g><path style="fill:#ffffff" d="M296.91,209.94L0.05,209.94L0.05,0.05L296.91,0.05z"/><path style="fill:#d3aa21" d="M179.45,8.64L181.72,9.24L183.08,10.05L184.40,11.40L184.83,12.85L184.75,13.68L184.57,14.30L183.58,15.65L182.08,16.66L180.71,17.13L179.33,17.42L175.82,17.41L175.65,25.98L175.92,26.09L175.97,26.21L175.92,27.02L174.88,26.77L173.56,26.08L172.56,25.08L171.89,24.08L171.06,22.71L171.04,22.09L170.97,22.03L171.05,12.51L171.65,11.07L172.66,10.07L173.32,9.57L174.82,8.89L175.61,8.81L176.45,8.64L177.94,8.55z"/><path style="fill:#d3aa21" d="M213.10,24.60L214.78,25.60L215.80,26.74L216.28,27.93L216.30,28.71L215.95,29.99L215.30,30.85L213.78,31.99L211.39,32.78L209.21,32.95L207.38,32.76L207.26,35.16L207.19,41.39L207.49,41.60L207.48,42.37L207.15,42.45L205.44,41.78L204.11,40.61L202.58,38.30L202.44,36.90L202.52,29.72L202.60,27.70L203.44,26.16L204.71,25.10L206.49,24.33L208.32,24.00L209.83,24.00L211.27,24.09z"/><path style="fill:#d3aa21" d="M103.78,77.50L105.46,78.49L106.78,80.01L107.04,81.11L106.96,82.12L106.78,82.74L105.88,84.01L104.27,85.08L102.39,85.70L100.38,85.86L99.43,85.85L98.04,85.67L97.93,93.59L97.81,94.28L97.71,94.37L98.16,94.45L98.26,94.51L98.15,95.28L97.81,95.37L96.10,94.70L94.94,93.69L94.26,92.53L93.91,92.21L93.27,90.99L93.25,90.03L93.18,89.97L93.27,82.46L93.41,80.39L94.05,79.19L95.42,78.06L97.32,77.25L99.32,76.91L100.00,76.92L101.93,77.01z"/><path style="fill:#d3aa21" d="M133.21,92.44L134.98,92.87L136.21,93.45L136.66,93.70L138.02,95.01L138.59,96.64L138.50,97.31L138.33,97.93L137.49,99.26L136.15,100.26L134.11,101.06L132.93,101.21L129.58,101.21L129.41,109.77L129.68,109.88L129.73,110.01L129.69,110.81L128.64,110.56L127.32,109.88L126.48,109.21L125.83,108.04L124.97,106.89L124.80,106.56L124.54,103.63L124.64,103.44L124.82,96.14L125.39,94.85L126.97,93.42L128.58,92.69L130.21,92.44L131.87,92.35z"/><path style="fill:#d7d0c0" d="M193.91,47.46L245.16,72.50L246.33,73.33L246.66,73.84L246.92,75.11L246.85,76.12L246.16,77.73L244.32,79.57L241.65,81.90L121.98,187.08L120.75,188.02L119.29,188.40L117.41,188.68L113.73,188.84L113.60,190.92L113.51,191.01L112.29,190.52L62.22,165.97L61.38,165.30L60.88,164.27L60.87,163.47L60.80,163.41L60.88,160.07L61.38,159.20L62.87,157.85L101.60,123.80L124.54,103.63L124.80,106.56L124.97,106.89L125.83,108.04L126.48,109.21L127.32,109.88L128.64,110.56L129.69,110.81L129.87,110.88L131.03,111.04L131.71,111.04L133.44,110.91L134.93,110.40L136.34,109.47L137.84,107.46L138.33,106.44L138.42,105.67L138.59,97.82L138.66,96.70L138.59,96.64L138.02,95.01L136.66,93.70L136.21,93.45L137.27,92.37L185.33,50.12L187.51,48.29L189.52,47.30L190.19,47.13L192.30,47.11z"/><path style="fill:#a8881b" d="M179.40,10.23L179.25,15.86L178.10,15.99L176.94,15.89L176.04,15.76L174.56,15.07L173.71,14.08L173.54,13.75L173.54,12.29L174.14,11.39L174.99,10.74L176.32,10.23L178.22,10.07z"/><path style="fill:#a8881b" d="M179.33,17.42L180.71,17.13L182.08,16.66L183.58,15.65L184.57,14.30L184.75,13.68L184.82,16.36L184.73,21.98L184.57,22.82L184.25,23.51L182.58,25.67L181.17,26.60L179.67,27.10L178.12,27.25L177.27,27.25L176.11,27.08L175.92,27.02L175.97,26.21L176.57,26.09L175.92,26.09L175.65,25.98L175.82,17.41z"/><path style="fill:#a8881b" d="M209.21,32.95L211.39,32.78L213.78,31.99L215.30,30.85L215.95,29.99L216.30,28.71L216.30,33.71L216.21,37.23L215.95,38.68L214.84,39.94L214.60,40.01L214.65,40.25L214.30,40.86L212.77,42.01L210.67,42.61L209.32,42.70L207.65,42.54L207.48,42.37L207.49,41.60L207.60,41.44L207.19,41.39L207.26,35.16L207.38,32.76z"/><path style="fill:#a8881b" d="M99.43,85.85L100.38,85.86L102.39,85.70L104.27,85.08L105.88,84.01L106.78,82.74L106.96,82.12L107.04,86.31L106.97,90.14L106.78,91.26L106.30,92.11L104.88,94.03L103.46,94.95L101.67,95.53L100.48,95.61L98.83,95.52L98.31,95.46L98.15,95.28L98.26,94.51L98.16,94.45L97.81,94.28L97.93,93.59L98.04,85.67z"/><path style="fill:#a8881b" d="M132.99,94.03L133.00,99.61L132.88,99.70L131.70,99.79L130.71,99.69L129.80,99.55L128.32,98.86L127.30,97.72L127.12,96.26L127.74,95.36L128.64,94.59L129.42,94.20L130.93,93.87L132.15,93.87z"/><path style="fill:#a8881b" d="M132.93,101.21L134.11,101.06L136.15,100.26L137.49,99.26L138.33,97.93L138.50,97.31L138.59,97.82L138.42,105.67L138.33,106.44L137.84,107.46L136.34,109.47L134.93,110.40L133.44,110.91L131.71,111.04L131.03,111.04L129.87,110.88L129.69,110.81L129.73,110.01L130.33,109.89L129.68,109.88L129.41,109.77L129.58,101.21z"/><path style="fill:#aca699" d="M178.73,70.65L179.05,70.83L178.99,78.79L178.95,78.92L177.95,79.09L175.43,79.00L173.54,78.52L171.89,77.50L170.88,76.50L170.53,75.52L170.54,74.23L170.72,73.40L171.87,72.05L173.33,71.17L174.99,70.66L177.72,70.50z"/><path style="fill:#aca699" d="M210.61,86.18L210.45,94.26L210.33,94.35L209.33,94.52L208.65,94.52L206.59,94.38L204.59,93.70L203.27,92.86L202.26,91.69L201.86,90.20L202.27,88.76L203.44,87.43L205.04,86.53L206.71,86.02L209.77,86.03z"/><path style="fill:#aca699" d="M149.84,98.21L149.92,99.29L149.74,99.47L147.39,99.36L145.82,99.04L145.83,98.78L146.45,98.37L147.61,98.04L149.52,98.03z"/><path style="fill:#aca699" d="M101.27,139.10L101.28,147.01L101.17,147.21L100.83,147.36L100.33,147.44L98.65,147.43L97.25,147.30L95.28,146.60L93.93,145.78L93.10,144.77L92.74,143.79L92.75,142.66L92.93,141.84L94.03,140.44L95.75,139.48L97.71,138.94L100.43,138.94z"/><path style="fill:#aca699" d="M160.02,142.44L160.10,143.52L159.93,143.71L157.57,143.59L156.68,143.46L155.62,143.12L156.38,142.86L157.30,142.44L157.97,142.28L159.70,142.26z"/><path style="fill:#aca699" d="M132.50,154.45L132.82,154.63L132.75,162.58L132.72,162.72L131.71,162.89L129.19,162.79L127.30,162.32L125.80,161.48L124.46,159.98L124.12,158.52L124.58,156.96L125.41,155.96L127.09,154.96L128.76,154.46L131.48,154.30z"/><path style="fill:#aca699" d="M113.51,191.01L113.60,190.92L113.73,188.84L117.41,188.68L119.29,188.40L120.75,188.02L121.98,187.08L241.65,81.90L244.32,79.57L246.16,77.73L246.85,76.12L246.92,76.96L246.78,78.86L244.66,81.07L120.90,189.84L118.75,191.19L117.68,191.43L117.40,191.53L115.00,191.51z"/><path style="fill:#000019" d="M179.23,15.97L178.10,15.99L179.25,15.86z"/><path style="fill:#000019" d="M175.97,26.21L175.92,26.09L176.57,26.09z"/><path style="fill:#000019" d="M129.73,110.01L129.68,109.88L130.33,109.89z"/><path style="fill:#000019" d="M119.01,124.56L121.21,124.50L121.30,124.59z"/><path style="fill:#000019" d="M100.83,147.36L101.17,147.21L101.26,147.28z"/><path style="fill:#a8881b" d="M210.79,25.74L210.94,31.28L209.37,31.45L207.99,31.25L206.59,30.77L205.44,29.92L204.92,28.78L204.92,27.81L205.53,26.92L206.21,26.26L207.37,25.75L208.21,25.60L210.62,25.58z"/><path style="fill:#a8881b" d="M101.60,78.68L101.57,84.07L101.76,84.21L100.50,84.33L99.65,84.34L98.65,84.17L97.26,83.69L96.27,83.01L95.75,82.20L95.75,80.73L96.05,80.03L97.04,79.18L98.20,78.67L99.04,78.51L101.28,78.50z"/><path style="fill:#000020" d="M184.82,16.36L184.75,13.68L184.83,12.85L184.89,12.91z"/><path style="fill:#000020" d="M171.06,22.71L170.97,22.03L171.04,22.09z"/><path style="fill:#000020" d="M214.65,40.25L214.60,40.01L214.84,39.94z"/><path style="fill:#000020" d="M207.49,41.60L207.19,41.39L207.60,41.44z"/><path style="fill:#000020" d="M207.65,42.54L207.15,42.45L207.48,42.37z"/><path style="fill:#000020" d="M246.92,76.96L246.85,76.12L246.92,75.11L246.99,75.17z"/><path style="fill:#000020" d="M178.95,78.92L178.99,78.79L179.40,78.85z"/><path style="fill:#000020" d="M107.04,86.31L106.96,82.12L107.04,81.11L107.11,81.18z"/><path style="fill:#000020" d="M93.27,90.99L93.18,89.97L93.25,90.03z"/><path style="fill:#000020" d="M98.16,94.45L97.71,94.37L97.81,94.28z"/><path style="fill:#000020" d="M98.31,95.46L97.81,95.37L98.15,95.28z"/><path style="fill:#000020" d="M138.59,97.82L138.50,97.31L138.59,96.64L138.66,96.70z"/><path style="fill:#000020" d="M149.74,99.47L149.92,99.29L150.18,99.39z"/><path style="fill:#000020" d="M159.93,143.71L160.10,143.52L160.37,143.62z"/><path style="fill:#000020" d="M132.72,162.72L132.75,162.58L133.16,162.65z"/><path style="fill:#000020" d="M60.88,164.27L60.80,163.41L60.87,163.47z"/><path style="fill:#aca699" d="M151.02,90.02L151.01,95.94L149.67,95.71L147.79,95.71L146.45,95.87L144.66,96.42L142.94,97.39L142.68,97.38L141.66,96.05L141.27,94.38L141.67,92.92L142.77,91.69L144.61,90.53L146.28,90.02L147.29,89.86L149.84,89.86z"/><path style="fill:#aca699" d="M189.76,109.04L189.93,109.20L189.90,114.97L188.40,114.74L185.34,114.90L183.68,115.40L181.99,116.40L181.57,116.41L180.72,115.40L180.21,113.89L180.34,112.73L180.64,111.87L181.67,110.72L183.68,109.56L185.34,109.05L186.68,108.89L188.74,108.89z"/><path style="fill:#aca699" d="M122.47,115.23L122.32,121.12L121.13,120.91L118.91,120.91L117.74,121.08L116.45,121.46L114.56,122.41L114.28,122.80L113.13,121.57L112.78,120.41L112.78,118.96L113.13,117.97L114.47,116.64L116.07,115.74L118.41,115.07L121.30,115.07z"/><path style="fill:#aca699" d="M188.73,117.24L188.88,118.29L189.06,118.43L185.94,118.40L184.71,118.07L184.72,117.80L186.01,117.24L186.68,117.07L188.24,117.07z"/><path style="fill:#aca699" d="M121.15,123.39L121.21,124.50L119.01,124.56L117.29,124.25L116.73,124.09L118.90,123.24L120.99,123.23z"/><path style="fill:#aca699" d="M161.22,134.24L161.38,134.41L161.19,140.18L159.86,139.94L158.14,139.94L156.63,140.10L155.47,140.44L153.45,141.43L153.18,141.82L152.86,141.60L152.19,140.76L151.84,140.12L151.67,139.44L151.68,138.16L151.83,137.31L153.17,135.81L154.96,134.77L156.63,134.26L157.64,134.10L160.19,134.10z"/><g id="Actor_.0"><g style="stroke:#000000;stroke-width:0.353"><path d="M60.80,160.25L60.84,161.33L61.34,162.56L62.26,163.85L62.87,164.42L63.56,164.85L111.73,188.44L112.49,188.72L113.31,188.84L115.06,188.87L116.86,188.77L118.59,188.55L120.13,188.22L120.79,187.96L121.38,187.56L245.53,78.41L246.02,77.87L246.40,77.20L246.84,75.79"/><path d="M124.64,104.35L64.14,157.55L63.57,158.14L63.21,158.73L63.04,159.34L63.07,159.93L63.31,160.50L63.74,161.05L64.37,161.56L65.17,162.02L112.89,185.39L113.79,185.76L114.41,185.93L114.71,186.01L115.64,186.13L116.54,186.11L117.42,185.97L118.25,185.69L119.02,185.29L119.71,184.77L243.54,75.90L244.10,75.32L244.47,74.72L244.64,74.12L244.60,73.52L244.37,72.95L243.93,72.40L243.31,71.90L242.50,71.43L194.78,48.07L193.88,47.69L192.96,47.44L192.04,47.32L191.13,47.34L190.26,47.49L189.43,47.76L188.66,48.17L187.96,48.69L136.61,93.84"/><path d="M105.82,143.86L105.76,142.42L104.99,141.07L103.59,139.95L101.72,139.18L99.58,138.85L97.40,138.99L95.41,139.58L93.83,140.57L92.84,141.84L92.54,143.26"/><path d="M116.11,123.96L114.24,122.87L113.00,121.46L112.53,119.86L112.87,118.26L113.99,116.82L115.77,115.71L118.02,115.04L120.48,114.88L122.90,115.26L125.02,116.12L126.59,117.39L127.46,118.92L127.52,120.54L126.78,122.08L125.31,123.37L123.27,124.28"/><path d="M127.47,120.58L127.40,118.97L126.54,117.45L124.98,116.20L122.88,115.34L120.48,114.96L118.03,115.12L115.80,115.79L114.04,116.89L112.93,118.32L112.59,119.91"/><path d="M125.87,122.86L124.89,122.07L122.79,121.21L120.39,120.84L117.95,120.99L115.72,121.66L114.09,122.68"/><path d="M116.85,124.16L117.75,123.60L118.91,123.25L120.19,123.17L121.45,123.36L122.55,123.81L123.15,124.30"/><path d="M124.03,158.68L124.33,157.26L125.33,155.99L126.91,155.00L128.89,154.41L131.08,154.27L133.22,154.60L135.09,155.37L136.48,156.49L137.25,157.85L137.31,159.28"/><path d="M151.92,99.09L153.96,98.18L155.43,96.89L156.18,95.35L156.11,93.73L155.24,92.20L153.67,90.94L151.55,90.07L149.13,89.69L146.67,89.85L144.42,90.52L142.64,91.64L141.52,93.07L141.18,94.67L141.65,96.27L142.89,97.68L144.76,98.77"/><path d="M156.12,95.39L156.05,93.78L155.19,92.26L153.63,91.01L151.53,90.15L149.13,89.77L146.68,89.93L144.46,90.60L142.69,91.70L141.58,93.13L141.24,94.72"/><path d="M154.52,97.67L153.54,96.88L151.45,96.02L149.04,95.65L146.60,95.81L144.37,96.47L142.75,97.49"/><path d="M151.80,99.11L151.20,98.62L150.10,98.17L148.84,97.98L147.56,98.06L146.40,98.41L145.50,98.97"/><path d="M155.01,143.01L153.14,141.92L151.90,140.51L151.43,138.92L151.77,137.31L152.90,135.87L154.68,134.76L156.92,134.09L159.39,133.93L161.81,134.31L163.92,135.18L165.49,136.44L166.36,137.97L166.43,139.59L165.68,141.13L164.21,142.42L162.17,143.33"/><path d="M151.49,138.96L151.83,137.37L152.94,135.94L154.71,134.84L156.94,134.17L159.38,134.01L161.79,134.39L163.88,135.25L165.44,136.50L166.30,138.02L166.37,139.63"/><path d="M164.78,141.92L163.79,141.13L161.70,140.26L159.30,139.89L156.85,140.05L154.62,140.71L153.00,141.73"/><path d="M155.75,143.21L156.65,142.65L157.82,142.30L159.10,142.22L160.35,142.41L161.45,142.86L162.06,143.35"/><path d="M170.30,74.89L170.61,73.47L171.60,72.20L173.18,71.21L175.17,70.62L177.35,70.48L179.49,70.81L181.36,71.58L182.76,72.70L183.52,74.05L183.58,75.49"/><path d="M183.66,117.82L181.80,116.74L180.56,115.32L180.08,113.73L180.43,112.12L181.55,110.69L183.33,109.57L185.57,108.90L188.04,108.74L190.46,109.12L192.57,109.99L194.15,111.26L195.01,112.78L195.08,114.40L194.34,115.94L192.86,117.23L190.82,118.14"/><path d="M180.14,113.77L180.48,112.18L181.58,110.77L182.59,110.13L183.36,109.65L185.59,108.98L188.03,108.82L190.43,109.20L192.53,110.06L194.09,111.32L194.95,112.83L195.02,114.44"/><path d="M181.65,116.54L183.27,115.52L185.50,114.86L187.95,114.70L190.35,115.07L192.45,115.94L193.42,116.72"/><path d="M184.40,118.02L185.30,117.46L186.47,117.11L187.75,117.03L189.00,117.22L190.10,117.67L190.71,118.16"/><path d="M201.80,90.31L202.10,88.89L203.10,87.62L204.67,86.63L206.66,86.04L208.84,85.90L210.98,86.23L212.85,87.00L214.25,88.12L215.02,89.47L215.08,90.91"/></g><g style="stroke:#000000;stroke-width:0.353"><path d="M136.04,93.51L186.25,49.38L187.50,48.36L189.05,47.49L190.78,47.09L192.58,47.17L194.32,47.74L233.52,66.92L245.37,72.73L246.30,73.48L246.80,74.52L246.84,75.79L246.80,78.43L246.37,79.30L245.50,80.15L121.34,189.31L120.10,190.32L118.55,191.18L116.82,191.59L115.02,191.50L113.27,190.94L112.46,190.55L62.23,165.94L61.30,165.19L60.80,164.15L60.76,162.88L60.80,160.25L61.23,159.38L62.09,158.53L124.66,103.53"/><path d="M105.82,143.86L105.16,145.22L103.86,146.37L103.47,146.54L102.05,147.17L99.94,147.54L97.74,147.44L95.71,146.88L94.05,145.93L92.96,144.67L92.54,143.26"/><path d="M112.59,119.91L113.05,121.49L114.28,122.89L116.13,123.96L118.41,124.59L120.88,124.70L123.26,124.28L125.27,123.39L126.73,122.11L127.47,120.58"/><path d="M137.31,159.28L136.65,160.65L135.35,161.79L133.54,162.59L131.43,162.96L129.43,162.87L129.24,162.87L127.20,162.31L125.55,161.35L124.45,160.10L124.03,158.68"/><path d="M141.24,94.72L141.70,96.30L142.93,97.70L144.78,98.77L147.06,99.40L149.53,99.51L151.91,99.09L153.92,98.20L155.37,96.92L156.12,95.39"/><path d="M166.37,139.63L165.63,141.16L164.17,142.44L162.17,143.33L159.79,143.75L157.49,143.65L157.31,143.64L155.03,143.01L153.19,141.95L151.96,140.54L151.49,138.96"/><path d="M183.58,75.49L182.92,76.85L181.62,78.00L179.82,78.80L178.15,79.09L177.70,79.17L175.51,79.07L173.48,78.51L171.82,77.56L170.72,76.30L170.30,74.89"/><path d="M195.02,114.44L194.28,115.97L192.82,117.25L190.82,118.14L188.44,118.56L185.96,118.45L183.68,117.82L181.84,116.76L180.61,115.35L180.14,113.77"/><path d="M201.80,90.31L202.22,91.73L203.31,92.98L204.97,93.94L207.00,94.49L209.20,94.59L211.31,94.22L213.12,93.42L214.42,92.27L215.08,90.91"/></g></g><g id="Actor_.1"><g style="stroke:#000000;stroke-width:0.353"><path d="M202.53,27.79L202.59,29.28L203.39,30.68L204.83,31.84L206.76,32.63L208.98,32.98L211.24,32.83L211.48,32.76L213.29,32.22L214.92,31.20L215.95,29.88L216.27,28.41"/><path d="M204.81,28.02L205.26,27.08L206.16,26.29L207.41,25.74L208.87,25.48L210.38,25.55L211.78,25.93L212.92,26.60L213.68,27.46L213.97,28.43"/></g><g style="stroke:#000000;stroke-width:0.353"><path d="M203.26,39.38L202.46,37.99L202.40,36.50L202.53,27.79L203.21,26.38L204.56,25.20L206.43,24.37L208.61,23.98L210.88,24.09L212.99,24.66L214.70,25.66L215.83,26.95L216.27,28.41L216.14,37.12L215.83,38.59L214.80,39.90L213.17,40.92L212.64,41.08L211.11,41.54L208.85,41.68L206.64,41.34L205.70,40.96L204.70,40.54L203.26,39.38"/><path d="M203.61,39.67L204.23,40.76L205.43,41.72L207.05,42.39L208.89,42.67L210.77,42.56L212.49,42.04L213.85,41.19L214.70,40.10L214.74,39.94"/><path d="M213.97,28.43L213.76,29.41L213.07,30.29L211.99,30.97L210.62,31.38L209.11,31.48L207.63,31.25L206.34,30.72L205.38,29.94L204.85,29.01L204.81,28.02"/></g></g><g id="Actor_.2"><g style="stroke:#000000;stroke-width:0.353"><path d="M171.04,12.37L171.10,13.86L171.89,15.26L172.19,15.49L173.34,16.41L175.27,17.21L177.49,17.55L179.75,17.41L180.28,17.25L181.80,16.80L183.43,15.77L184.46,14.46L184.77,12.99"/><path d="M173.32,12.60L173.77,11.66L174.67,10.87L175.91,10.32L177.37,10.06L178.88,10.13L180.29,10.51L181.43,11.17L182.18,12.04L182.47,13.01"/></g><g style="stroke:#000000;stroke-width:0.353"><path d="M170.97,22.56L171.77,23.96L173.21,25.12L175.14,25.92L177.36,26.26L179.62,26.12L181.67,25.50L183.30,24.48L184.33,23.17L184.65,21.70L184.77,12.99L184.34,11.53L183.21,10.23L181.49,9.24L181.44,9.23L179.39,8.66L177.12,8.56L174.93,8.95L173.07,9.78L171.72,10.96L171.04,12.37L170.91,21.08L170.97,22.56"/><path d="M172.12,24.24L172.74,25.34L173.94,26.30L175.55,26.96L177.40,27.25L179.28,27.13L180.99,26.62L182.35,25.77L183.21,24.67L183.24,24.52"/><path d="M173.32,12.60L173.36,13.59L173.89,14.52L174.85,15.29L176.14,15.82L177.62,16.05L179.12,15.96L180.49,15.55L181.58,14.87L182.26,13.99L182.47,13.01"/></g></g><g id="Actor_.3"><g style="stroke:#000000;stroke-width:0.353"><path d="M93.27,80.74L93.33,82.23L94.13,83.63L94.76,84.14L95.57,84.79L97.50,85.58L99.72,85.93L101.98,85.78L104.03,85.17L105.66,84.15L106.69,82.83L107.01,81.36"/><path d="M95.55,80.97L96.00,80.03L96.90,79.24L98.15,78.69L99.60,78.43L101.12,78.50L102.52,78.88L103.66,79.54L104.42,80.41L104.71,81.38"/></g><g style="stroke:#000000;stroke-width:0.353"><path d="M93.61,91.64L93.20,90.94L93.14,89.45L93.27,80.74L93.95,79.33L95.30,78.15L97.17,77.32L99.35,76.93L101.62,77.04L102.61,77.31L103.73,77.61L105.44,78.60L106.57,79.90L107.01,81.36L106.88,90.07L106.57,91.54L105.54,92.85L103.91,93.87L101.85,94.49L99.59,94.63L97.38,94.29L95.44,93.49L94.00,92.33L93.61,91.64"/><path d="M94.35,92.61L94.97,93.71L96.17,94.67L97.78,95.34L99.63,95.62L101.51,95.50L103.23,94.99L104.59,94.14L105.44,93.04L105.48,92.89"/><path d="M104.71,81.38L104.50,82.36L103.81,83.24L102.72,83.92L101.70,84.23L101.35,84.33L99.85,84.43L98.37,84.20L97.08,83.67L97.07,83.66L96.12,82.89L95.59,81.96L95.55,80.97"/></g></g><g id="Actor_.4"><g style="stroke:#000000;stroke-width:0.353"><path d="M124.76,96.17L124.82,97.65L125.62,99.05L127.06,100.21L129.00,101.00L131.21,101.35L133.47,101.21L134.05,101.03L135.53,100.59L137.16,99.57L138.19,98.25L138.50,96.78"/><path d="M127.04,96.39L127.50,95.45L128.39,94.66L129.64,94.11L131.10,93.85L132.61,93.92L134.01,94.31L135.15,94.97L135.91,95.83L136.20,96.81"/></g><g style="stroke:#000000;stroke-width:0.353"><path d="M124.70,106.36L124.64,104.87L124.76,96.17L125.44,94.75L126.79,93.57L128.66,92.74L130.85,92.36L133.12,92.46L135.22,93.04L136.93,94.03L138.07,95.32L138.50,96.78L138.37,105.49L138.06,106.96L137.03,108.28L135.40,109.30L133.34,109.91L131.09,110.05L128.87,109.71L126.94,108.91L125.49,107.76L124.70,106.36"/><path d="M125.84,108.04L126.46,109.13L127.67,110.10L129.28,110.76L131.13,111.05L133.01,110.93L134.72,110.41L136.08,109.56L136.94,108.47L136.97,108.31"/><path d="M136.20,96.81L135.99,97.78L135.30,98.66L135.21,98.72L134.22,99.34L132.85,99.75L131.34,99.85L129.86,99.62L128.57,99.09L127.61,98.32L127.48,98.08L127.08,97.38L127.04,96.39"/></g></g><g><g><path style="stroke:#000000;stroke-width:0.200;stroke-dasharray:3.0 2.0 1.0 2.0" d="M176.94,80.07L177.84,18.30"/></g><g><path style="fill:#000000" d="M177.44,80.07L177.43,80.02L177.43,79.97L177.42,79.93L177.40,79.88L177.38,79.84L177.35,79.79L177.32,79.75L177.29,79.72L177.25,79.68L177.21,79.66L177.17,79.63L177.13,79.61L177.08,79.59L177.03,79.58L176.99,79.57L176.94,79.57L176.89,79.57L176.84,79.58L176.79,79.59L176.75,79.61L176.70,79.63L176.66,79.66L176.62,79.68L176.58,79.72L176.55,79.75L176.52,79.79L176.50,79.84L176.47,79.88L176.46,79.93L176.45,79.97L176.44,80.02L176.44,80.07L176.44,80.12L176.45,80.17L176.46,80.22L176.47,80.26L176.50,80.31L176.52,80.35L176.55,80.39L176.58,80.43L176.62,80.46L176.66,80.49L176.70,80.51L176.75,80.53L176.79,80.55L176.84,80.56L176.89,80.57L176.94,80.57L176.99,80.57L177.03,80.56L177.08,80.55L177.13,80.53L177.17,80.51L177.21,80.49L177.25,80.46L177.29,80.43L177.32,80.39L177.35,80.35L177.38,80.31L177.40,80.26L177.42,80.22L177.43,80.17L177.43,80.12z"/></g><g><path style="fill:#000000" d="M178.34,18.30L178.33,18.25L178.33,18.20L178.31,18.15L178.30,18.10L178.28,18.06L178.25,18.02L178.22,17.98L178.19,17.94L178.15,17.91L178.11,17.88L178.07,17.85L178.03,17.83L177.98,17.82L177.93,17.81L177.88,17.80L177.84,17.80L177.79,17.80L177.74,17.81L177.69,17.82L177.64,17.83L177.60,17.85L177.56,17.88L177.52,17.91L177.48,17.94L177.45,17.98L177.42,18.02L177.39,18.06L177.37,18.10L177.36,18.15L177.35,18.20L177.34,18.25L177.34,18.30L177.34,18.34L177.35,18.39L177.36,18.44L177.37,18.49L177.39,18.53L177.42,18.57L177.45,18.61L177.48,18.65L177.52,18.68L177.56,18.71L177.60,18.74L177.64,18.76L177.69,18.77L177.74,18.79L177.79,18.79L177.84,18.80L177.88,18.79L177.93,18.79L177.98,18.77L178.03,18.76L178.07,18.74L178.11,18.71L178.15,18.68L178.19,18.65L178.22,18.61L178.25,18.57L178.28,18.53L178.30,18.49L178.31,18.44L178.33,18.39L178.33,18.34z"/></g></g><g><g><path style="stroke:#000000;stroke-width:0.200;stroke-dasharray:3.0 2.0 1.0 2.0" d="M208.43,95.49L209.33,33.72"/></g><g><path style="fill:#000000" d="M208.93,95.49L208.93,95.45L208.92,95.40L208.91,95.35L208.89,95.30L208.87,95.26L208.85,95.22L208.82,95.18L208.78,95.14L208.75,95.11L208.71,95.08L208.67,95.05L208.62,95.03L208.58,95.02L208.53,95.00L208.48,95.00L208.43,94.99L208.38,95.00L208.33,95.00L208.28,95.02L208.24,95.03L208.19,95.05L208.15,95.08L208.11,95.11L208.08,95.14L208.04,95.18L208.01,95.22L207.99,95.26L207.97,95.30L207.95,95.35L207.94,95.40L207.93,95.45L207.93,95.49L207.93,95.54L207.94,95.59L207.95,95.64L207.97,95.69L207.99,95.73L208.01,95.77L208.04,95.81L208.08,95.85L208.11,95.88L208.15,95.91L208.19,95.94L208.24,95.96L208.28,95.97L208.33,95.98L208.38,95.99L208.43,95.99L208.48,95.99L208.53,95.98L208.58,95.97L208.62,95.96L208.67,95.94L208.71,95.91L208.75,95.88L208.78,95.85L208.82,95.81L208.85,95.77L208.87,95.73L208.89,95.69L208.91,95.64L208.92,95.59L208.93,95.54z"/></g><g><path style="fill:#000000" d="M209.83,33.72L209.83,33.67L209.82,33.62L209.81,33.57L209.79,33.53L209.77,33.48L209.74,33.44L209.72,33.40L209.68,33.36L209.65,33.33L209.61,33.30L209.56,33.28L209.52,33.26L209.47,33.24L209.43,33.23L209.38,33.22L209.33,33.22L209.28,33.22L209.23,33.23L209.18,33.24L209.14,33.26L209.09,33.28L209.05,33.30L209.01,33.33L208.98,33.36L208.94,33.40L208.91,33.44L208.89,33.48L208.87,33.53L208.85,33.57L208.84,33.62L208.83,33.67L208.83,33.72L208.83,33.77L208.84,33.82L208.85,33.86L208.87,33.91L208.89,33.95L208.91,34.00L208.94,34.04L208.98,34.07L209.01,34.10L209.05,34.13L209.09,34.16L209.14,34.18L209.18,34.20L209.23,34.21L209.28,34.22L209.33,34.22L209.38,34.22L209.43,34.21L209.47,34.20L209.52,34.18L209.56,34.16L209.61,34.13L209.65,34.10L209.68,34.07L209.72,34.04L209.74,34.00L209.77,33.95L209.79,33.91L209.81,33.86L209.82,33.82L209.83,33.77z"/></g></g><g><g><path style="stroke:#000000;stroke-width:0.200;stroke-dasharray:3.0 2.0 1.0 2.0" d="M99.17,148.44L100.07,86.67"/></g><g><path style="fill:#000000" d="M99.67,148.44L99.67,148.39L99.66,148.35L99.65,148.30L99.63,148.25L99.61,148.21L99.59,148.17L99.56,148.13L99.52,148.09L99.49,148.06L99.45,148.03L99.41,148.00L99.36,147.98L99.31,147.96L99.27,147.95L99.22,147.95L99.17,147.94L99.12,147.95L99.07,147.95L99.02,147.96L98.98,147.98L98.93,148.00L98.89,148.03L98.85,148.06L98.82,148.09L98.78,148.13L98.75,148.17L98.73,148.21L98.71,148.25L98.69,148.30L98.68,148.35L98.67,148.39L98.67,148.44L98.67,148.49L98.68,148.54L98.69,148.59L98.71,148.63L98.73,148.68L98.75,148.72L98.78,148.76L98.82,148.80L98.85,148.83L98.89,148.86L98.93,148.88L98.98,148.90L99.02,148.92L99.07,148.93L99.12,148.94L99.17,148.94L99.22,148.94L99.27,148.93L99.31,148.92L99.36,148.90L99.41,148.88L99.45,148.86L99.49,148.83L99.52,148.80L99.56,148.76L99.59,148.72L99.61,148.68L99.63,148.63L99.65,148.59L99.66,148.54L99.67,148.49z"/></g><g><path style="fill:#000000" d="M100.57,86.67L100.57,86.62L100.56,86.57L100.55,86.52L100.53,86.48L100.51,86.43L100.48,86.39L100.45,86.35L100.42,86.31L100.39,86.28L100.35,86.25L100.30,86.23L100.26,86.21L100.21,86.19L100.17,86.18L100.12,86.17L100.07,86.17L100.02,86.17L99.97,86.18L99.92,86.19L99.88,86.21L99.83,86.23L99.79,86.25L99.75,86.28L99.71,86.31L99.68,86.35L99.65,86.39L99.63,86.43L99.61,86.48L99.59,86.52L99.58,86.57L99.57,86.62L99.57,86.67L99.57,86.72L99.58,86.76L99.59,86.81L99.61,86.86L99.63,86.90L99.65,86.94L99.68,86.98L99.71,87.02L99.75,87.05L99.79,87.08L99.83,87.11L99.88,87.13L99.92,87.15L99.97,87.16L100.02,87.16L100.07,87.17L100.12,87.16L100.17,87.16L100.21,87.15L100.26,87.13L100.30,87.11L100.35,87.08L100.39,87.05L100.42,87.02L100.45,86.98L100.48,86.94L100.51,86.90L100.53,86.86L100.55,86.81L100.56,86.76L100.57,86.72z"/></g></g><g><g><path style="stroke:#000000;stroke-width:0.200;stroke-dasharray:3.0 2.0 1.0 2.0" d="M130.66,163.87L131.56,102.09"/></g><g><path style="fill:#000000" d="M131.16,163.87L131.16,163.82L131.15,163.77L131.14,163.72L131.12,163.67L131.10,163.63L131.08,163.59L131.05,163.55L131.02,163.51L130.98,163.48L130.94,163.45L130.90,163.42L130.85,163.40L130.81,163.39L130.76,163.38L130.71,163.37L130.66,163.37L130.61,163.37L130.57,163.38L130.52,163.39L130.47,163.40L130.43,163.42L130.38,163.45L130.35,163.48L130.31,163.51L130.28,163.55L130.25,163.59L130.22,163.63L130.20,163.67L130.18,163.72L130.17,163.77L130.17,163.82L130.16,163.87L130.17,163.91L130.17,163.96L130.18,164.01L130.20,164.06L130.22,164.10L130.25,164.14L130.28,164.18L130.31,164.22L130.35,164.25L130.38,164.28L130.43,164.31L130.47,164.33L130.52,164.34L130.57,164.36L130.61,164.36L130.66,164.37L130.71,164.36L130.76,164.36L130.81,164.34L130.85,164.33L130.90,164.31L130.94,164.28L130.98,164.25L131.02,164.22L131.05,164.18L131.08,164.14L131.10,164.10L131.12,164.06L131.14,164.01L131.15,163.96L131.16,163.91z"/></g><g><path style="fill:#000000" d="M132.06,102.09L132.06,102.04L132.05,101.99L132.04,101.94L132.02,101.90L132.00,101.85L131.98,101.81L131.95,101.77L131.92,101.74L131.88,101.70L131.84,101.67L131.80,101.65L131.75,101.63L131.71,101.61L131.66,101.60L131.61,101.59L131.56,101.59L131.51,101.59L131.46,101.60L131.42,101.61L131.37,101.63L131.33,101.65L131.28,101.67L131.24,101.70L131.21,101.74L131.18,101.77L131.15,101.81L131.12,101.85L131.10,101.90L131.08,101.94L131.07,101.99L131.06,102.04L131.06,102.09L131.06,102.14L131.07,102.19L131.08,102.23L131.10,102.28L131.12,102.33L131.15,102.37L131.18,102.41L131.21,102.44L131.24,102.48L131.28,102.51L131.33,102.53L131.37,102.55L131.42,102.57L131.46,102.58L131.51,102.59L131.56,102.59L131.61,102.59L131.66,102.58L131.71,102.57L131.75,102.55L131.80,102.53L131.84,102.51L131.88,102.48L131.92,102.44L131.95,102.41L131.98,102.37L132.00,102.33L132.02,102.28L132.04,102.23L132.05,102.19L132.06,102.14z"/></g></g><g/><g id="paperID" visibility="hidden" opacity="0.00" transform="scale(0.000100)"><path style="stroke:#000000;stroke-width:0.500;fill:#e6e6e6;fill-rule:evenodd" d="M-2000.00,-2000.00L2297.00,-2000.00L2297.00,2210.00L-2000.00,2210.00zM0.00,0.00L297.00,0.00L297.00,210.00L0.00,210.00z"/><path style="fill:#000000;fill-opacity:0.118" d="M3.00,210.00L297.00,210.00L297.00,3.00L300.00,3.00L300.00,213.00L3.00,213.00z"/></g><g id="ToolTip" visibility="hidden" opacity="0" transform="translate(0,0)"><rect id="ToolTipShadow" opacity="0.20" fill="black" stroke="none" x="0" y="0" width="30" height="8"/><rect id="ToolTipBG" fill="#ffffe1" stroke="black" x="0" y="0" width="30" height="8"/><text xml:space="preserve" id="ToolTipText" fill="black" x="0" y="0" width="30" height="8">tooltip</text></g></g></svg>