<?xml version="1.0" encoding="UTF-8" standalone="yes"?><svg xmlns="http://www.w3.org/2000/svg" xmlns:xlink="http://www.w3.org/1999/xlink" width="297.000mm" height="210.000mm" viewBox="0.000000 0.000000 297.000000 210.000000" stroke-linejoin="round" stroke-linecap="round" fill="none" fill-rule="evenodd"><desc>Composer Export</desc><script type="text/ecmascript"><![CDATA[
if(typeof(top) != "undefined")
{
	top.ShowPaper = ShowPaper;
}
function ShowHotSpot(evt,hotspotid)
{
	var svgDocument = evt.target.ownerDocument;
	var strId = "hotspot."+hotspotid;
	var hotspot = svgDocument.getElementById(strId);
	if(hotspot)
		hotspot.setAttribute("opacity",".5");
}
function HideHotSpot(evt,hotspotid)
{
	var svgDocument = evt.target.ownerDocument;
	var strId = "hotspot."+hotspotid;
	var hotspot = svgDocument.getElementById(strId);
	if(hotspot)
		hotspot.setAttribute("opacity","0");

	var toolTip = svgDocument.getElementById('ToolTip');
	if(toolTip)
		toolTip.setAttribute("visibility","hidden");
}
function ShowToolTip(evt,hotspotid,strTooltip)
{
	if(strTooltip=="")
	return;

	// change text
	var svgDocument = evt.target.ownerDocument;
	var tiptext = svgDocument.getElementById('ToolTipText');
	if( !tiptext )
	return;
	tiptext.firstChild.nodeValue = " " + strTooltip + "  " ;

	// show tooltip before, else some refresh issue

	var toolTip = svgDocument.getElementById('ToolTip');
	if(!toolTip)
	return;

	toolTip.setAttribute("visibility","visible");
	toolTip.setAttribute("opacity",".95");

	// move tooltip
	// get viewbox

	var root = svgDocument.documentElement;
	var vbox = (root.getAttribute("viewBox")).split(' ');
	var x0 = parseFloat(vbox[0]);
	var y0 = parseFloat(vbox[1]);
	var vboxW = parseFloat(vbox[2]);
	var vboxH = parseFloat(vbox[3]);

	// get default width of svg

	var strW = root.getAttribute("width");
	var svgW = parseFloat(strW);
	if(strW.indexOf('mm') != -1)
	svgW *= 3.779;

	var strH = root.getAttribute("height");
	var svgH = parseFloat(strH);
	if(strH.indexOf('mm') != -1)
	svgH *= 3.779;  	// 96 dpi  -> 96/25.4 = 3.779

	// update the viewbox / width / height if svg is embedded in html with zoom fit all
	var realx0 = x0;
	var realy0 = y0;
	var realvboxW = vboxW;
	var realvboxH = vboxH;
	var realsvgW = svgW;
	var realsvgH = svgH;

	if ((typeof(top) == "undefined") || (typeof(top.svgctl1) != "undefined")) // embedded in html
	{
		// get window size in pxl

		svgW = window.innerWidth;
		svgH = window.innerHeight;

		// calculate real viewbox

		realsvgW = svgW;
		realsvgH = svgH;
		if((svgW / svgH) > (vboxW / vboxH))
		{
			realvboxW = (vboxH * svgW) / svgH;
			realvboxH = vboxH;
			realx0 = x0 - (realvboxW - vboxW)/2 ;
		}
		else
		{
			realvboxH = (vboxW * svgH) / svgW;
			realvboxW = vboxW;
			realy0 = y0 - (realvboxH - vboxH)/2 ;
		}
	}

	// get user zoom/pan

	var newScale = root.currentScale;
	var translation = root.currentTranslate;

	// transform pxl to user unit

	var xPos = (((evt.clientX+10- translation.x)/newScale) * realvboxW)/realsvgW  + realx0 ;
	var yPos = (((evt.clientY+5- translation.y)/newScale) * realvboxH)/ realsvgH  + realy0 ;
	var scaleForWidth = ( (1 / newScale) * realvboxH) / realsvgH;

	// move tooltip

	toolTip.setAttribute("transform", "translate(" + xPos + "," + yPos + ")" );

	// resize tooltip

	var fontsize = 12;
	tiptext.setAttribute("font-size",fontsize*scaleForWidth);
	tiptext.setAttribute("y", fontsize*scaleForWidth);
	var tipBG = svgDocument.getElementById('ToolTipBG');
	var outline = tiptext.getBBox();
	if(tipBG)
	{
		tipBG.setAttribute("stroke-width", 1*scaleForWidth);
		tipBG.setAttribute("width", Number(outline.width) );
		tipBG.setAttribute("height", Number(outline.height) + fontsize*.5*scaleForWidth );
	}
	var ToolTipShadow = svgDocument.getElementById('ToolTipShadow');
	if(ToolTipShadow)
	{
		ToolTipShadow.setAttribute("width", Number(outline.width) );
		ToolTipShadow.setAttribute("height", Number(outline.height) + fontsize*.5*scaleForWidth );
		ToolTipShadow.setAttribute("x", 3*scaleForWidth);
		ToolTipShadow.setAttribute("y", 3*scaleForWidth);
	}
}
function ShowPaper()
{
  var svgDocument = getDocument();
  var paper = svgDocument.getElementById("paperID");
  if(paper)
  {
    paper.setAttribute("transform","scale(1)");
    paper.setAttribute("opacity","1");
    paper.setAttribute("visibility","visible");
  }
  var svg = svgDocument.getRootElement();
  if(svg)
  {
    svg.setAttribute("width","307.000mm");
    svg.setAttribute("height","220.000mm");
    svg.setAttribute("viewBox","-5.000000 -5.000000 307.000000 220.000000");
  }
}
]]></script><defs/><g><path style="fill:#ffffff" d="M296.91,209.94L0.05,209.94L0.05,0.05L296.91,0.05z"/><path style="fill:#d7d0c0" d="M238.22,25.39L238.33,27.88L238.35,29.89L205.89,41.46L198.02,41.95L94.42,87.08L93.85,167.27L93.75,167.37L88.69,169.34L88.25,169.34L79.43,166.27L79.92,84.69L79.85,84.67L38.62,108.40L38.23,180.92L33.15,180.85L26.32,178.51L26.17,178.28L26.17,167.25L26.59,106.54L27.49,105.94L183.34,31.11L222.07,20.09L222.79,20.08z"/><path style="fill:#aca699" d="M79.43,166.27L44.80,178.67L38.23,180.92L38.62,108.40L79.85,84.67L79.92,84.69z"/><path style="fill:#000020" d="M39.39,129.23L39.18,130.21L39.19,129.03z"/><path style="fill:#000020" d="M39.05,158.39L39.39,158.63L38.91,158.90L39.01,158.25z"/><path style="fill:#aca699" d="M238.24,47.41L238.16,53.91L238.05,54.90L207.77,65.72L205.09,68.55L95.59,165.87L94.28,167.06L93.85,167.27L94.42,87.08L198.02,41.95L205.89,41.46L238.35,29.89z"/><path style="fill:#a8881b" d="M277.88,49.79L278.73,50.94L279.21,52.30L279.21,55.03L279.04,55.86L278.33,57.82L276.97,59.80L275.47,60.97L274.27,61.30L273.41,61.30L271.03,60.65L265.70,58.81L265.27,58.43L265.21,58.25L265.19,57.63L265.11,58.25L265.12,59.76L264.86,61.21L264.02,63.21L262.80,64.83L261.70,65.73L260.80,66.16L259.74,66.41L259.24,66.30L257.00,65.66L251.66,63.82L250.51,62.81L250.22,62.13L250.67,62.14L256.87,64.20L256.67,63.15L256.67,60.37L257.13,58.65L257.60,57.63L258.61,56.13L260.01,54.86L261.12,54.30L262.23,54.14L262.59,54.20L262.74,54.22L263.52,54.64L264.54,55.79L265.02,57.14L270.70,59.17L271.04,59.16L270.86,58.82L270.70,57.48L270.70,56.20L270.85,54.85L271.62,52.78L272.71,51.03L273.81,49.97L275.31,49.29L276.42,49.13z"/><path style="fill:#a8881b" d="M249.72,60.46L249.86,61.10L249.84,61.45L249.34,61.14L248.88,60.30z"/><path style="fill:#d3aa21" d="M276.42,49.13L275.31,49.29L273.81,49.97L272.71,51.03L271.62,52.78L270.85,54.85L270.70,56.20L270.70,57.48L270.86,58.82L271.04,59.16L270.70,59.17L265.02,57.14L264.54,55.79L263.52,54.64L262.74,54.22L262.61,53.75L262.61,53.09L262.84,51.51L263.37,50.21L264.12,49.12L265.35,48.02L266.07,47.69L266.97,47.80L267.07,47.60L268.30,46.95L270.20,46.96z"/><path style="fill:#d3aa21" d="M262.23,54.14L261.12,54.30L260.01,54.86L258.61,56.13L257.60,57.63L257.13,58.65L256.67,60.37L256.67,63.15L256.87,64.20L250.67,62.14L250.22,62.13L249.84,61.45L249.86,61.10L249.83,60.48L249.72,60.46L248.88,60.30L248.67,59.93L248.66,59.48L248.59,59.43L248.51,58.77L248.52,58.08L248.65,56.85L249.35,55.05L250.43,53.62L251.34,53.03L252.05,52.70L252.95,52.81L253.05,52.61L254.22,52.04L256.01,51.97z"/><path style="fill:#ffffff" d="M52.71,117.68L52.79,118.34L52.79,119.36L52.62,120.70L51.86,122.80L50.62,124.74L49.28,125.90L47.69,126.81L39.39,129.23L39.19,129.03L39.49,126.80L40.84,123.30L42.18,121.14L44.51,119.96L52.27,117.14L52.50,117.25z"/><path style="fill:#ffffff" d="M52.44,146.71L52.54,147.40L52.62,147.89L52.62,148.57L52.46,149.91L51.69,152.18L50.45,154.11L48.87,155.53L47.52,156.19L39.39,158.63L39.05,158.39L39.01,158.25L39.18,156.73L40.43,153.10L41.69,151.03L42.11,150.45L43.62,149.62L52.38,146.54z"/><path style="fill:#000019" d="M265.21,58.25L265.11,58.25L265.19,57.63z"/><path style="fill:#000019" d="M249.86,61.10L249.72,60.46L249.83,60.48z"/><path style="fill:#000020" d="M238.33,27.88L238.22,25.39L238.31,25.43z"/><path style="fill:#000020" d="M266.07,47.69L267.07,47.60L266.97,47.80z"/><path style="fill:#000020" d="M252.05,52.70L253.05,52.61L252.95,52.81z"/><path style="fill:#000020" d="M262.74,54.22L262.59,54.20L262.61,53.75z"/><path style="fill:#000020" d="M238.19,54.07L238.05,54.90L238.16,53.91z"/><path style="fill:#000020" d="M265.27,58.43L265.12,59.76L265.11,58.25L265.21,58.25z"/><path style="fill:#000020" d="M248.67,59.93L248.59,59.43L248.66,59.48z"/><path style="fill:#000020" d="M52.27,117.14L52.73,117.03L52.71,117.68L52.50,117.25z"/><path style="fill:#000020" d="M52.79,119.36L52.79,118.34L52.85,118.40z"/><path style="fill:#000020" d="M52.54,147.40L52.44,146.71L52.53,146.78z"/><path style="fill:#000020" d="M52.62,148.57L52.62,147.89L52.69,147.96z"/><path style="fill:#000020" d="M39.03,159.91L38.93,159.25L39.00,159.30z"/><path style="fill:#d7d0c0" d="M232.47,36.12L233.65,36.60L234.14,38.11L233.98,40.51L233.47,42.01L232.59,43.46L231.40,44.78L230.26,45.47L228.45,45.47L227.31,44.61L226.78,43.80L226.46,42.46L226.46,40.50L227.13,38.17L228.14,36.51L229.46,35.31L229.96,35.26z"/><path style="fill:#d7d0c0" d="M219.29,41.45L219.79,42.11L219.95,43.12L219.95,45.01L219.79,45.85L219.28,47.18L218.47,48.54L217.30,49.87L216.07,50.48L214.26,50.48L213.27,49.64L212.77,48.97L212.30,47.57L212.29,45.56L213.10,43.01L213.79,41.85L214.72,40.79L215.55,40.27z"/><path style="fill:#d7d0c0" d="M59.03,118.42L59.38,119.23L59.47,120.14L61.99,120.08L63.74,119.74L63.89,119.88L63.88,122.30L63.55,124.47L62.71,126.97L60.97,129.91L59.30,131.75L56.98,133.09L46.31,136.95L44.02,137.28L42.52,133.75L42.01,133.43L41.02,133.09L39.84,131.76L39.18,130.21L39.39,129.23L47.69,126.81L49.28,125.90L50.62,124.74L51.86,122.80L52.62,120.70L52.79,119.36L52.85,118.40L52.79,118.34L52.71,117.68L52.73,117.03L53.47,116.73L54.20,116.73z"/><path style="fill:#d7d0c0" d="M58.37,147.62L58.88,147.94L59.31,149.51L61.99,149.46L63.54,149.29L63.72,149.61L63.71,151.51L63.38,153.85L62.37,156.69L61.15,158.81L59.14,161.13L56.96,162.46L46.19,166.37L43.80,166.71L42.16,162.99L40.68,162.47L39.67,161.31L39.03,159.91L39.00,159.30L38.93,159.25L38.91,158.90L39.39,158.63L47.52,156.19L48.87,155.53L50.45,154.11L51.69,152.18L52.46,149.91L52.62,148.57L52.69,147.96L52.62,147.89L52.54,147.40L52.53,146.78L52.44,146.71L52.38,146.54L53.47,146.11L54.03,146.10z"/><path style="fill:#d3aa21" d="M276.86,53.32L277.04,53.80L277.04,55.20L276.88,55.87L275.97,57.46L274.99,58.15L273.71,58.14L273.03,57.15L272.88,56.60L272.88,55.41L273.53,53.69L274.48,52.62L275.04,52.63z"/><path style="fill:#d3aa21" d="M262.68,58.32L262.86,58.63L262.85,60.54L262.35,61.87L261.80,62.49L260.97,63.17L259.63,63.20L259.00,62.33L258.84,61.83L258.77,60.42L258.88,59.94L259.60,58.46L260.46,57.62L260.84,57.63z"/><g id="Actor_.0"><g style="stroke:#000000;stroke-width:0.353"><path d="M26.74,106.36L34.13,108.86L38.57,108.38L38.08,180.94"/><path d="M33.64,180.95L34.13,108.86"/><path d="M41.73,150.65L43.70,148.59L45.88,147.35L56.74,143.48L58.92,143.17L60.88,143.83L62.42,145.39L63.41,147.70L63.73,150.53L63.37,153.61L62.34,156.63L60.77,159.30L58.79,161.36L56.61,162.60L51.05,164.58L45.76,166.47L43.58,166.78L41.62,166.12L40.08,164.56L39.09,162.25L38.76,159.42"/><path d="M38.96,130.00L39.29,132.83L40.27,135.14L41.82,136.70L43.78,137.35L45.96,137.05L47.57,136.47L56.81,133.18L58.99,131.94L60.97,129.88L62.54,127.21L63.57,124.18L63.93,121.11L63.61,118.27L62.62,115.97L61.08,114.40L59.12,113.75L56.94,114.06L46.09,117.92L43.90,119.17L41.93,121.22"/><path d="M38.57,108.38L79.88,84.61L79.33,166.26"/><path d="M57.32,145.90L58.39,146.98L59.07,148.57L59.30,150.54L59.04,152.67L58.34,154.76L57.22,156.63L55.88,158.03L54.37,158.90L43.51,162.76L42.01,162.97L40.65,162.52"/><path d="M40.85,133.09L42.20,133.55L43.71,133.34L54.56,129.47L56.08,128.61L57.45,127.18L58.53,125.34L59.24,123.24L59.50,121.11L59.27,119.15L58.59,117.55L57.52,116.47"/><path d="M79.88,84.61L88.94,87.67L88.39,169.32"/><path d="M88.94,87.67L94.31,87.09L93.77,167.32"/><path d="M94.31,87.09L198.08,41.90L203.45,37.81L238.19,25.44"/><path d="M198.08,41.90L205.70,41.52L238.26,29.92"/><path d="M238.10,53.46L209.41,63.68"/><path d="M212.15,47.44L212.56,48.96L213.36,50.07L214.44,50.65L215.70,50.63L217.01,50.02L218.20,48.88L219.17,47.35L219.80,45.57L220.03,43.75L219.83,42.08L219.22,40.75L218.26,39.89L217.08,39.61L215.78,39.93L214.51,40.81"/><path d="M214.41,50.55L215.65,50.53L216.94,49.93L218.17,48.73L219.07,47.30L219.70,45.55L219.92,43.75L219.72,42.11L219.12,40.79L218.18,39.95"/><path d="M228.62,35.79L229.89,34.90L231.19,34.58L232.38,34.87L233.33,35.73L233.94,37.06L234.14,38.73L233.91,40.55L233.28,42.32L232.31,43.86L231.12,44.99L229.81,45.60L228.55,45.62L227.47,45.04L226.68,43.93L226.26,42.41"/><path d="M228.52,45.53L229.76,45.51L231.05,44.91L232.23,43.79L233.18,42.27L233.81,40.52L234.03,38.72L233.83,37.08L233.23,35.77L232.29,34.92"/></g><g style="stroke:#000000;stroke-width:0.353"><path d="M207.60,65.68L237.99,54.86L238.10,53.46L238.13,49.89L238.26,29.92L238.19,25.44L222.35,20.07L183.26,31.19L26.74,106.36L26.55,106.55L26.07,178.09L26.29,178.46L33.64,180.95L38.08,180.94L79.33,166.26L88.39,169.32L93.77,167.32L205.52,68.00L209.41,63.68"/><path d="M40.65,162.52L39.58,161.44L38.90,159.84L38.81,159.06"/><path d="M38.76,159.42L39.13,156.34L40.15,153.32L41.73,150.65"/><path d="M52.39,146.39L52.64,148.28L52.36,150.40L51.57,152.47L50.35,154.27L48.83,155.65L47.14,156.45L38.84,158.80"/><path d="M41.93,121.22L40.35,123.90L39.33,126.92L38.96,130.00"/><path d="M39.01,129.64L39.10,130.42L39.78,132.02L40.85,133.09"/><path d="M52.59,116.97L52.84,118.86L52.55,120.98L51.77,123.04L50.55,124.85L49.03,126.22L47.34,127.03L39.04,129.38"/><path d="M57.32,145.90L55.96,145.44L54.45,145.65L43.60,149.52L42.09,150.38L41.56,150.94"/><path d="M41.75,121.52L42.29,120.96L43.80,120.10L54.65,116.23L56.17,116.02L57.52,116.47"/><path d="M214.41,50.55L213.34,49.98L213.27,49.89L212.56,48.89L212.15,47.40"/><path d="M212.15,47.44L212.17,45.67L212.60,43.85L213.41,42.17L214.51,40.81"/><path d="M214.48,40.85L215.72,39.98L217.01,39.67L218.18,39.95"/><path d="M226.27,42.37L226.67,43.86L227.45,44.96L228.52,45.53"/><path d="M226.26,42.41L226.28,40.64L226.71,38.82L227.52,37.14L228.62,35.79"/><path d="M232.29,34.92L231.12,34.64L229.84,34.95L228.59,35.82"/></g></g><g id="Actor_.1"><g style="stroke:#000000;stroke-width:0.353"><path d="M262.46,54.27L261.07,54.33L259.65,55.03L258.35,56.31L257.31,58.01L256.91,59.17L256.64,59.97L256.42,61.96L256.67,63.77L257.37,65.20L258.43,66.10"/><path d="M261.61,57.28L262.22,57.58L262.66,58.17L262.90,58.99L262.91,59.96L262.68,60.96L262.25,61.88L261.66,62.64L261.64,62.65L260.97,63.14L260.25,63.34L259.60,63.20"/></g><g style="stroke:#000000;stroke-width:0.353"><path d="M249.92,61.56L249.16,60.91L248.64,59.83L248.45,58.48L248.61,56.98L249.11,55.52L249.89,54.24L250.87,53.28L251.94,52.75L252.90,52.71"/><path d="M250.57,62.90L249.88,61.47L249.63,59.66L249.85,57.67L250.51,55.71L251.55,54.01L252.86,52.73L254.28,52.03L255.67,51.97L262.46,54.27L263.67,54.86L264.56,56.05L265.04,57.69L265.05,59.17L265.05,59.62L264.60,61.62L263.74,63.47L263.47,63.81L262.55,64.99L261.17,65.99L259.74,66.38L258.43,66.10L251.63,63.80L250.57,62.90"/><path d="M259.60,63.20L259.06,62.75L258.72,62.03L258.59,61.13L258.70,60.13L258.71,60.09L259.04,59.15L259.56,58.30L260.21,57.66L260.92,57.31L261.61,57.28"/></g></g><g id="Actor_.2"><g style="stroke:#000000;stroke-width:0.353"><path d="M272.54,61.08L271.48,60.18L270.78,58.75L270.53,56.94L270.75,54.94L270.89,54.53L271.42,52.99L272.46,51.28L273.76,50.01L275.18,49.30L276.57,49.24"/><path d="M275.72,52.26L276.33,52.55L276.77,53.15L276.84,53.37L277.01,53.97L277.02,54.93L276.79,55.93L276.36,56.86L275.77,57.62L275.08,58.12L274.36,58.31L273.71,58.18"/></g><g style="stroke:#000000;stroke-width:0.353"><path d="M267.01,47.69L266.05,47.73L264.98,48.25L264.00,49.21L263.22,50.49L262.72,51.96L262.56,53.45L262.69,54.38"/><path d="M263.79,55.03L263.74,54.63L263.96,52.64L264.62,50.69L265.66,48.98L266.84,47.83L266.97,47.71L268.39,47.00L269.78,46.94L276.57,49.24L277.78,49.84L278.67,51.02L279.15,52.66L279.16,54.59L278.72,56.59L277.85,58.45L276.66,59.96L275.28,60.96L273.85,61.35L272.54,61.08L265.75,58.78L265.04,58.18"/><path d="M275.72,52.26L275.03,52.29L274.32,52.64L273.67,53.28L273.15,54.13L272.81,55.11L272.70,56.10L272.81,56.85L272.83,57.01L273.18,57.72L273.71,58.18"/></g></g><g><g><path style="stroke:#000000;stroke-width:0.200;stroke-dasharray:3.0 2.0 1.0 2.0" d="M225.66,38.56L270.36,53.70"/></g><g><path style="fill:#000000" d="M226.16,38.56L226.16,38.51L226.15,38.46L226.14,38.42L226.12,38.37L226.10,38.33L226.08,38.28L226.05,38.24L226.01,38.21L225.98,38.17L225.94,38.15L225.90,38.12L225.85,38.10L225.81,38.08L225.76,38.07L225.71,38.06L225.66,38.06L225.61,38.06L225.56,38.07L225.51,38.08L225.47,38.10L225.42,38.12L225.38,38.15L225.34,38.17L225.31,38.21L225.27,38.24L225.24,38.28L225.22,38.33L225.20,38.37L225.18,38.42L225.17,38.46L225.16,38.51L225.16,38.56L225.16,38.61L225.17,38.66L225.18,38.71L225.20,38.75L225.22,38.80L225.24,38.84L225.27,38.88L225.31,38.92L225.34,38.95L225.38,38.98L225.42,39.00L225.47,39.02L225.51,39.04L225.56,39.05L225.61,39.06L225.66,39.06L225.71,39.06L225.76,39.05L225.81,39.04L225.85,39.02L225.90,39.00L225.94,38.98L225.98,38.95L226.01,38.92L226.05,38.88L226.08,38.84L226.10,38.80L226.12,38.75L226.14,38.71L226.15,38.66L226.16,38.61z"/></g><g><path style="fill:#000000" d="M270.86,53.70L270.85,53.65L270.85,53.60L270.83,53.55L270.82,53.50L270.80,53.46L270.77,53.42L270.74,53.38L270.71,53.34L270.67,53.31L270.63,53.28L270.59,53.25L270.55,53.23L270.50,53.22L270.45,53.20L270.40,53.20L270.36,53.20L270.31,53.20L270.26,53.20L270.21,53.22L270.16,53.23L270.12,53.25L270.08,53.28L270.04,53.31L270.00,53.34L269.97,53.38L269.94,53.42L269.91,53.46L269.89,53.50L269.88,53.55L269.87,53.60L269.86,53.65L269.86,53.70L269.86,53.74L269.87,53.79L269.88,53.84L269.89,53.89L269.91,53.93L269.94,53.97L269.97,54.01L270.00,54.05L270.04,54.08L270.08,54.11L270.12,54.14L270.16,54.16L270.21,54.17L270.26,54.19L270.31,54.19L270.36,54.20L270.40,54.19L270.45,54.19L270.50,54.17L270.55,54.16L270.59,54.14L270.63,54.11L270.67,54.08L270.71,54.05L270.74,54.01L270.77,53.97L270.80,53.93L270.82,53.89L270.83,53.84L270.85,53.79L270.85,53.74z"/></g></g><g><g><path style="stroke:#000000;stroke-width:0.200;stroke-dasharray:3.0 2.0 1.0 2.0" d="M211.55,43.59L256.24,58.72"/></g><g><path style="fill:#000000" d="M212.05,43.59L212.05,43.54L212.04,43.49L212.03,43.44L212.01,43.40L211.99,43.35L211.96,43.31L211.94,43.27L211.90,43.23L211.87,43.20L211.83,43.17L211.78,43.15L211.74,43.12L211.69,43.11L211.65,43.10L211.60,43.09L211.55,43.09L211.50,43.09L211.45,43.10L211.40,43.11L211.36,43.12L211.31,43.15L211.27,43.17L211.23,43.20L211.20,43.23L211.16,43.27L211.13,43.31L211.11,43.35L211.09,43.40L211.07,43.44L211.06,43.49L211.05,43.54L211.05,43.59L211.05,43.64L211.06,43.68L211.07,43.73L211.09,43.78L211.11,43.82L211.13,43.86L211.16,43.90L211.20,43.94L211.23,43.97L211.27,44.00L211.31,44.03L211.36,44.05L211.40,44.06L211.45,44.08L211.50,44.08L211.55,44.09L211.60,44.08L211.65,44.08L211.69,44.06L211.74,44.05L211.78,44.03L211.83,44.00L211.87,43.97L211.90,43.94L211.94,43.90L211.96,43.86L211.99,43.82L212.01,43.78L212.03,43.73L212.04,43.68L212.05,43.64z"/></g><g><path style="fill:#000000" d="M256.74,58.72L256.74,58.67L256.74,58.62L256.72,58.58L256.71,58.53L256.69,58.48L256.66,58.44L256.63,58.40L256.60,58.37L256.56,58.33L256.52,58.30L256.48,58.28L256.44,58.26L256.39,58.24L256.34,58.23L256.29,58.22L256.24,58.22L256.20,58.22L256.15,58.23L256.10,58.24L256.05,58.26L256.01,58.28L255.97,58.30L255.93,58.33L255.89,58.37L255.86,58.40L255.83,58.44L255.80,58.48L255.78,58.53L255.77,58.58L255.75,58.62L255.75,58.67L255.74,58.72L255.75,58.77L255.75,58.82L255.77,58.87L255.78,58.91L255.80,58.96L255.83,59.00L255.86,59.04L255.89,59.07L255.93,59.11L255.97,59.14L256.01,59.16L256.05,59.18L256.10,59.20L256.15,59.21L256.20,59.22L256.24,59.22L256.29,59.22L256.34,59.21L256.39,59.20L256.44,59.18L256.48,59.16L256.52,59.14L256.56,59.11L256.60,59.07L256.63,59.04L256.66,59.00L256.69,58.96L256.71,58.91L256.72,58.87L256.74,58.82L256.74,58.77z"/></g></g><g/><g id="paperID" visibility="hidden" opacity="0.00" transform="scale(0.000100)"><path style="stroke:#000000;stroke-width:0.500;fill:#e6e6e6;fill-rule:evenodd" d="M-2000.00,-2000.00L2297.00,-2000.00L2297.00,2210.00L-2000.00,2210.00zM0.00,0.00L297.00,0.00L297.00,210.00L0.00,210.00z"/><path style="fill:#000000;fill-opacity:0.118" d="M3.00,210.00L297.00,210.00L297.00,3.00L300.00,3.00L300.00,213.00L3.00,213.00z"/></g><g id="ToolTip" visibility="hidden" opacity="0" transform="translate(0,0)"><rect id="ToolTipShadow" opacity="0.20" fill="black" stroke="none" x="0" y="0" width="30" height="8"/><rect id="ToolTipBG" fill="#ffffe1" stroke="black" x="0" y="0" width="30" height="8"/><text xml:space="preserve" id="ToolTipText" fill="black" x="0" y="0" width="30" height="8">tooltip</text></g></g></svg>