<?xml version="1.0" encoding="UTF-8" standalone="yes"?><svg xmlns="http://www.w3.org/2000/svg" xmlns:xlink="http://www.w3.org/1999/xlink" width="297.000mm" height="210.000mm" viewBox="0.000000 0.000000 297.000000 210.000000" stroke-linejoin="round" stroke-linecap="round" fill="none" fill-rule="evenodd"><desc>Composer Export</desc><script type="text/ecmascript"><![CDATA[
if(typeof(top) != "undefined")
{
	top.ShowPaper = ShowPaper;
}
function ShowHotSpot(evt,hotspotid)
{
	var svgDocument = evt.target.ownerDocument;
	var strId = "hotspot."+hotspotid;
	var hotspot = svgDocument.getElementById(strId);
	if(hotspot)
		hotspot.setAttribute("opacity",".5");
}
function HideHotSpot(evt,hotspotid)
{
	var svgDocument = evt.target.ownerDocument;
	var strId = "hotspot."+hotspotid;
	var hotspot = svgDocument.getElementById(strId);
	if(hotspot)
		hotspot.setAttribute("opacity","0");

	var toolTip = svgDocument.getElementById('ToolTip');
	if(toolTip)
		toolTip.setAttribute("visibility","hidden");
}
function ShowToolTip(evt,hotspotid,strTooltip)
{
	if(strTooltip=="")
	return;

	// change text
	var svgDocument = evt.target.ownerDocument;
	var tiptext = svgDocument.getElementById('ToolTipText');
	if( !tiptext )
	return;
	tiptext.firstChild.nodeValue = " " + strTooltip + "  " ;

	// show tooltip before, else some refresh issue

	var toolTip = svgDocument.getElementById('ToolTip');
	if(!toolTip)
	return;

	toolTip.setAttribute("visibility","visible");
	toolTip.setAttribute("opacity",".95");

	// move tooltip
	// get viewbox

	var root = svgDocument.documentElement;
	var vbox = (root.getAttribute("viewBox")).split(' ');
	var x0 = parseFloat(vbox[0]);
	var y0 = parseFloat(vbox[1]);
	var vboxW = parseFloat(vbox[2]);
	var vboxH = parseFloat(vbox[3]);

	// get default width of svg

	var strW = root.getAttribute("width");
	var svgW = parseFloat(strW);
	if(strW.indexOf('mm') != -1)
	svgW *= 3.779;

	var strH = root.getAttribute("height");
	var svgH = parseFloat(strH);
	if(strH.indexOf('mm') != -1)
	svgH *= 3.779;  	// 96 dpi  -> 96/25.4 = 3.779

	// update the viewbox / width / height if svg is embedded in html with zoom fit all
	var realx0 = x0;
	var realy0 = y0;
	var realvboxW = vboxW;
	var realvboxH = vboxH;
	var realsvgW = svgW;
	var realsvgH = svgH;

	if ((typeof(top) == "undefined") || (typeof(top.svgctl1) != "undefined")) // embedded in html
	{
		// get window size in pxl

		svgW = window.innerWidth;
		svgH = window.innerHeight;

		// calculate real viewbox

		realsvgW = svgW;
		realsvgH = svgH;
		if((svgW / svgH) > (vboxW / vboxH))
		{
			realvboxW = (vboxH * svgW) / svgH;
			realvboxH = vboxH;
			realx0 = x0 - (realvboxW - vboxW)/2 ;
		}
		else
		{
			realvboxH = (vboxW * svgH) / svgW;
			realvboxW = vboxW;
			realy0 = y0 - (realvboxH - vboxH)/2 ;
		}
	}

	// get user zoom/pan

	var newScale = root.currentScale;
	var translation = root.currentTranslate;

	// transform pxl to user unit

	var xPos = (((evt.clientX+10- translation.x)/newScale) * realvboxW)/realsvgW  + realx0 ;
	var yPos = (((evt.clientY+5- translation.y)/newScale) * realvboxH)/ realsvgH  + realy0 ;
	var scaleForWidth = ( (1 / newScale) * realvboxH) / realsvgH;

	// move tooltip

	toolTip.setAttribute("transform", "translate(" + xPos + "," + yPos + ")" );

	// resize tooltip

	var fontsize = 12;
	tiptext.setAttribute("font-size",fontsize*scaleForWidth);
	tiptext.setAttribute("y", fontsize*scaleForWidth);
	var tipBG = svgDocument.getElementById('ToolTipBG');
	var outline = tiptext.getBBox();
	if(tipBG)
	{
		tipBG.setAttribute("stroke-width", 1*scaleForWidth);
		tipBG.setAttribute("width", Number(outline.width) );
		tipBG.setAttribute("height", Number(outline.height) + fontsize*.5*scaleForWidth );
	}
	var ToolTipShadow = svgDocument.getElementById('ToolTipShadow');
	if(ToolTipShadow)
	{
		ToolTipShadow.setAttribute("width", Number(outline.width) );
		ToolTipShadow.setAttribute("height", Number(outline.height) + fontsize*.5*scaleForWidth );
		ToolTipShadow.setAttribute("x", 3*scaleForWidth);
		ToolTipShadow.setAttribute("y", 3*scaleForWidth);
	}
}
function ShowPaper()
{
  var svgDocument = getDocument();
  var paper = svgDocument.getElementById("paperID");
  if(paper)
  {
    paper.setAttribute("transform","scale(1)");
    paper.setAttribute("opacity","1");
    paper.setAttribute("visibility","visible");
  }
  var svg = svgDocument.getRootElement();
  if(svg)
  {
    svg.setAttribute("width","307.000mm");
    svg.setAttribute("height","220.000mm");
    svg.setAttribute("viewBox","-5.000000 -5.000000 307.000000 220.000000");
  }
}
]]></script><defs/><g><path style="fill:#ffffff" d="M296.91,209.94L0.05,209.94L0.05,0.05L296.91,0.05z"/><path style="fill:#000020" d="M109.32,202.11L109.22,202.09L109.30,187.12z"/><path style="fill:#d7d0c0" d="M141.38,10.39L145.72,11.39L148.74,12.04L148.47,12.25L119.06,16.57L118.74,16.75L118.63,19.47L117.67,203.96L115.45,203.54L110.17,202.28L109.32,202.11L109.30,187.12L110.22,14.74L111.67,14.48L114.02,14.15L115.45,13.90L117.18,14.39L119.19,14.66L133.88,12.48L135.05,12.32L135.49,12.30L135.51,12.18L135.58,11.02L136.04,10.88L140.05,10.32L141.00,10.23z"/><path style="fill:#aca699" d="M147.56,73.65L147.17,73.50L145.78,73.50L145.28,73.67L143.85,74.57L143.01,75.74L142.68,76.94L142.68,78.13L142.82,78.85L143.33,79.84L143.57,79.98L143.84,80.51L144.82,81.20L147.56,81.76L148.74,82.15L148.69,84.79L148.60,100.49L148.41,147.52L146.90,147.19L145.38,147.18L144.94,147.28L143.71,148.08L143.41,148.38L143.16,148.52L142.44,149.78L142.26,151.24L142.32,152.14L142.60,152.72L142.87,153.23L143.22,153.61L143.33,153.95L143.51,154.12L144.49,154.80L146.39,155.20L148.08,155.59L148.18,155.78L148.27,163.26L148.10,194.81L148.02,199.43L147.90,199.51L127.04,202.61L124.86,202.95L117.67,203.96L118.63,19.47L118.74,16.75L119.06,16.57L148.47,12.25L148.74,12.04L149.02,12.07L148.94,37.56L148.77,69.11L148.69,73.79L148.06,73.75L148.00,73.67z"/><path style="fill:#a8881b" d="M169.04,72.17L169.90,72.98L170.38,74.00L170.47,74.94L170.47,75.79L170.38,76.74L170.04,77.56L169.37,78.56L168.37,79.40L167.44,79.66L166.76,79.66L165.92,79.49L161.85,78.52L160.86,77.66L160.73,77.34L164.54,78.19L164.87,78.19L164.53,77.18L164.53,75.39L165.03,73.89L165.96,72.65L167.14,71.99L167.93,71.82z"/><path style="fill:#a8881b" d="M152.02,74.84L152.70,75.65L153.11,76.62L153.20,77.12L153.31,78.16L153.11,79.13L152.68,80.40L151.68,81.57L150.47,82.19L148.74,82.15L147.56,81.76L144.82,81.20L143.84,80.51L143.57,79.98L147.51,80.74L147.33,79.85L147.33,77.73L147.76,76.49L148.44,75.49L149.29,74.84L150.57,74.32z"/><path style="fill:#a8881b" d="M168.87,145.95L169.56,146.76L169.97,147.73L170.06,148.23L170.06,149.56L169.88,150.69L168.88,152.35L167.81,153.12L167.10,153.28L166.25,153.28L163.09,152.53L162.58,152.44L161.37,152.11L160.70,151.62L160.29,150.90L164.37,151.85L164.19,150.96L164.19,148.66L164.72,147.36L165.87,146.01L166.80,145.61L167.60,145.43L167.89,145.44z"/><path style="fill:#a8881b" d="M151.51,148.45L152.35,149.28L152.78,150.39L152.87,151.24L152.87,151.91L152.46,153.63L151.52,155.02L150.64,155.64L149.57,155.88L148.84,155.80L148.57,155.69L148.08,155.59L146.39,155.20L144.49,154.80L143.51,154.12L143.33,153.95L143.22,153.61L143.83,153.63L146.67,154.30L147.17,154.31L147.00,153.63L147.00,151.17L147.34,150.17L148.27,148.94L149.29,148.28L150.07,147.93z"/><path style="fill:#d3aa21" d="M167.93,71.82L167.14,71.99L165.96,72.65L165.03,73.89L164.53,75.39L164.53,77.18L164.87,78.19L164.54,78.19L160.73,77.34L160.21,76.66L160.01,76.19L160.02,73.89L160.28,73.15L161.04,72.07L162.80,70.99L164.26,70.98z"/><path style="fill:#d3aa21" d="M147.56,73.65L148.06,73.75L148.69,73.79L150.57,74.32L149.29,74.84L148.44,75.49L147.76,76.49L147.33,77.73L147.33,79.85L147.51,80.74L143.57,79.98L143.33,79.84L142.82,78.85L142.68,78.13L142.68,76.94L143.01,75.74L143.85,74.57L145.28,73.67L145.78,73.50L147.17,73.50z"/><path style="fill:#d3aa21" d="M165.25,144.93L167.60,145.43L166.80,145.61L165.87,146.01L164.72,147.36L164.19,148.66L164.19,150.96L164.37,151.85L160.29,150.90L159.71,149.92L159.86,149.69L159.86,148.10L159.61,149.59L159.54,149.24L159.54,147.88L160.13,146.28L161.14,145.28L162.47,144.61L164.20,144.61z"/><path style="fill:#d3aa21" d="M148.41,147.52L150.07,147.93L149.29,148.28L148.27,148.94L147.34,150.17L147.00,151.17L147.00,153.63L147.17,154.31L146.67,154.30L143.83,153.63L143.22,153.61L142.87,153.23L142.83,152.79L142.60,152.72L142.32,152.14L142.26,151.24L142.44,149.78L143.16,148.52L143.41,148.38L143.71,148.22L143.71,148.08L144.94,147.28L145.38,147.18L146.90,147.19z"/><path style="fill:#ffffff" d="M122.32,145.23L122.23,145.73L121.80,146.88L121.79,145.66L122.25,144.28L122.33,144.23z"/><path style="fill:#000019" d="M139.42,70.78L139.34,71.29L139.33,69.65z"/><path style="fill:#000019" d="M148.06,73.75L147.56,73.65L148.00,73.67z"/><path style="fill:#000020" d="M135.58,11.02L135.60,10.90L136.04,10.88z"/><path style="fill:#000020" d="M135.49,12.30L135.05,12.32L135.51,12.18z"/><path style="fill:#000020" d="M122.56,70.77L122.70,70.57L122.74,71.28z"/><path style="fill:#000020" d="M170.47,75.79L170.47,74.94L170.54,75.00z"/><path style="fill:#000020" d="M153.20,77.12L153.11,76.62L153.19,76.67z"/><path style="fill:#000020" d="M170.06,148.23L169.97,147.73L170.05,147.78z"/><path style="fill:#000020" d="M143.71,148.22L143.41,148.38L143.71,148.08z"/><path style="fill:#000020" d="M159.86,149.69L159.71,149.92L159.61,149.59L159.86,148.10z"/><path style="fill:#000020" d="M152.87,151.24L152.78,150.39L152.85,150.45z"/><path style="fill:#000020" d="M142.60,152.72L142.83,152.79L142.87,153.23z"/><path style="fill:#000020" d="M148.08,155.59L148.57,155.69L148.47,155.78L148.27,163.26L148.18,155.78z"/><path style="fill:#d3aa21" d="M169.05,74.16L169.38,74.66L169.38,76.40L168.99,77.18L168.30,78.00L167.31,78.36L166.55,78.16L165.89,77.49L165.55,76.80L165.55,75.44L166.03,74.39L166.64,73.66L167.20,73.67z"/><path style="fill:#d3aa21" d="M151.83,76.69L152.19,77.33L152.18,78.56L151.85,79.57L151.20,80.42L150.30,80.86L149.67,80.86L148.85,80.34L148.52,79.84L148.34,79.18L148.34,78.06L148.67,77.06L149.45,76.15z"/><path style="fill:#d3aa21" d="M168.69,147.80L169.04,148.62L169.04,149.68L168.86,150.17L168.37,151.18L167.73,151.70L166.98,151.97L166.19,151.80L165.71,151.45L165.38,150.95L165.20,150.29L165.20,149.17L165.53,148.17L166.31,147.27L166.86,147.28z"/><path style="fill:#d3aa21" d="M151.51,150.30L151.69,150.61L151.85,151.47L151.69,152.69L151.12,153.79L149.97,154.47L149.16,154.48L148.33,153.80L148.00,152.97L148.00,151.51L148.26,150.77L149.12,149.77z"/><path style="fill:#d7d0c0" d="M135.50,28.75L135.82,29.43L135.83,31.17L135.49,32.00L134.99,32.67L134.51,33.02L133.76,33.28L133.15,33.29L132.16,32.59L131.68,31.54L131.66,30.37L132.07,29.24L132.92,28.25L133.48,28.26z"/><path style="fill:#d7d0c0" d="M144.34,67.49L144.67,67.83L145.00,68.83L145.00,70.22L144.84,71.06L144.50,71.89L144.00,72.56L143.00,73.39L142.11,73.68L141.49,73.69L140.17,72.99L139.65,72.18L139.34,71.29L139.42,70.78L139.84,69.89L140.15,67.70L140.94,66.81L141.49,66.82z"/><path style="fill:#d7d0c0" d="M126.98,69.99L127.48,70.33L127.81,71.67L127.65,73.39L126.81,75.06L125.83,75.92L125.09,76.18L124.12,76.18L122.97,75.50L122.29,74.35L122.13,73.28L122.74,71.28L122.70,70.57L123.40,69.65L123.75,69.31z"/><path style="fill:#d7d0c0" d="M144.01,141.10L144.33,141.44L144.67,142.78L144.51,144.51L144.17,145.34L143.50,146.34L142.66,147.00L141.78,147.29L140.99,147.29L140.46,147.16L139.67,146.44L139.15,145.46L138.98,144.50L139.50,143.34L139.64,141.49L140.61,140.42z"/><path style="fill:#d7d0c0" d="M126.96,143.79L127.31,144.61L127.31,146.84L126.81,148.18L126.08,149.11L124.76,149.80L123.63,149.80L122.46,148.96L121.78,147.62L121.80,146.88L122.23,145.73L122.32,145.23L122.33,144.23L123.07,143.27L123.41,142.93z"/><path style="fill:#d7d0c0" d="M134.66,183.83L134.99,184.33L134.99,186.07L134.49,187.24L133.44,188.19L131.99,188.18L131.16,187.33L130.83,186.47L130.84,185.29L131.33,184.08L131.92,183.33L132.98,183.34z"/><path style="fill:#ffffff" d="M122.74,71.28L122.13,73.28L122.13,72.22L122.56,70.77z"/><g id="Actor_.0"><g style="stroke:#000000;stroke-width:0.353"><path d="M110.19,14.75L118.55,16.67L148.97,12.18"/><path d="M117.56,203.96L118.55,16.67"/><path d="M123.25,149.76L124.19,149.92L125.15,149.68L126.04,149.05L126.76,148.11L127.22,146.96L127.39,145.72L127.24,144.53L126.78,143.51L126.07,142.78L125.19,142.42"/><path d="M125.58,68.79L126.46,69.15L127.17,69.88L127.63,70.90L127.78,72.09L127.61,73.33L127.15,74.49L126.43,75.43L125.54,76.05L124.58,76.30L123.64,76.13"/><path d="M131.96,188.24L132.66,188.37L133.37,188.18L134.03,187.72L134.56,187.02L134.91,186.17L135.03,185.25L134.92,184.37L134.58,183.61L134.06,183.07L133.42,182.81"/><path d="M132.79,33.24L133.48,33.36L134.20,33.18L134.85,32.72L135.39,32.02L135.73,31.16L135.85,30.25L135.74,29.36L135.40,28.61L134.88,28.07L134.22,27.80"/><path d="M138.88,11.77L135.53,11.00"/><path d="M139.53,141.46L139.61,142.03L139.44,143.26L138.97,144.42L138.79,144.67"/><path d="M139.93,67.83L140.00,68.40L139.83,69.64L139.37,70.79L139.18,71.04"/><path d="M140.49,147.22L141.42,147.38L142.39,147.13L143.28,146.51L143.99,145.57L144.46,144.42L144.63,143.18L144.47,141.98L144.02,140.97L143.31,140.24L142.43,139.87"/><path d="M140.88,73.59L141.81,73.75L142.78,73.51L143.67,72.88L144.38,71.94L144.85,70.79L145.02,69.55L144.86,68.36L144.41,67.34L143.70,66.61L142.82,66.25"/></g><g style="stroke:#000000;stroke-width:0.353"><path d="M138.88,11.77L118.60,14.76L115.26,14.00L110.19,14.75L109.19,202.04L117.56,203.96L147.97,199.47L148.21,155.61"/><path d="M123.25,149.76L122.44,149.21L121.85,148.32L121.55,147.21L121.74,146.96L122.20,145.81L122.37,144.57L122.30,144.00"/><path d="M121.55,147.21L121.55,145.97L121.87,144.75L122.47,143.69L123.29,142.90L124.23,142.46L125.19,142.42"/><path d="M125.58,68.79L124.62,68.83L123.68,69.27L122.86,70.06L122.26,71.13L122.05,71.93L121.94,72.34L121.94,73.58L122.24,74.69L122.83,75.58L123.64,76.13"/><path d="M121.94,73.58L122.13,73.34L122.60,72.18L122.76,70.94L122.69,70.37"/><path d="M133.40,182.80L132.69,182.83L131.99,183.16L131.39,183.75L130.94,184.53L130.70,185.43L130.70,186.34L130.93,187.18L131.36,187.83L131.96,188.24"/><path d="M132.79,33.24L132.19,32.83L131.75,32.17L131.52,31.34L131.53,30.43L131.76,29.53L132.21,28.74L132.81,28.15L133.51,27.82L134.22,27.80"/><path d="M135.53,12.27L135.53,11.00L140.60,10.26L148.97,12.18L148.64,73.95"/><path d="M140.49,147.22L139.68,146.66L139.09,145.77L138.78,144.65L138.79,143.42L138.98,142.71L139.11,142.21L139.71,141.15L140.52,140.35L141.46,139.91L142.43,139.87"/><path d="M140.88,73.59L140.07,73.03L139.48,72.15L139.17,71.03L139.18,69.80L139.22,69.65L139.50,68.58L140.10,67.52L140.91,66.73L141.85,66.29L142.82,66.25"/><path d="M148.60,81.98L148.25,147.57"/></g></g><g id="Actor_.1"><g style="stroke:#000000;stroke-width:0.353"><path d="M148.46,155.67L147.64,155.07L147.04,154.13L146.75,152.96L146.77,151.69L147.02,150.83L147.13,150.44L147.76,149.35L148.62,148.55L149.59,148.12L150.59,148.11"/><path d="M150.31,149.40L150.92,149.66L151.39,150.18L151.70,150.89L151.79,151.72L151.66,152.58L151.32,153.36L150.82,154.00L150.36,154.31L150.20,154.42L149.53,154.57L148.89,154.43"/></g><g style="stroke:#000000;stroke-width:0.353"><path d="M143.03,153.45L142.97,153.40L142.48,152.62L142.23,151.65L142.25,150.58L142.55,149.54L143.08,148.64L143.79,147.97L144.25,147.77"/><path d="M142.70,152.54L142.56,152.00L142.59,150.73L142.94,149.48L143.58,148.39L144.43,147.59L145.41,147.16L146.41,147.15L150.59,148.11L151.49,148.51L152.21,149.29L152.66,150.36L152.80,151.60L152.74,151.99L152.61,152.88L152.11,154.06L151.35,155.02L150.42,155.64L149.42,155.87L148.46,155.67L144.28,154.71L143.45,154.11L142.86,153.17L142.70,152.54"/><path d="M150.31,149.40L149.65,149.40L149.00,149.69L148.50,150.16L148.43,150.22L148.00,150.95L147.77,151.78L147.75,152.63L147.95,153.41L148.34,154.03L148.89,154.43"/></g></g><g id="Actor_.2"><g style="stroke:#000000;stroke-width:0.353"><path d="M168.22,71.94L167.22,71.95L166.24,72.38L165.39,73.18L164.75,74.27L164.74,74.31L164.40,75.51L164.37,76.79L164.67,77.96L165.26,78.90L166.09,79.50"/><path d="M166.52,78.26L167.16,78.39L167.83,78.24L168.45,77.83L168.95,77.19L169.29,76.40L169.41,75.55L169.32,74.72L169.02,74.01L168.54,73.49L167.94,73.22"/></g><g style="stroke:#000000;stroke-width:0.353"><path d="M160.66,77.27L160.60,77.23L160.11,76.45L159.86,75.47L159.88,74.41L160.17,73.37L160.71,72.47L161.42,71.80L161.88,71.60"/><path d="M161.08,77.94L160.49,77.00L160.19,75.83L160.22,74.55L160.57,73.31L160.70,73.09L161.21,72.22L162.06,71.42L163.04,70.99L164.04,70.98L168.22,71.94L169.12,72.34L169.84,73.12L170.29,74.19L170.43,75.43L170.24,76.71L169.73,77.89L168.98,78.84L168.05,79.47L167.05,79.69L166.09,79.50L161.90,78.54L161.08,77.94"/><path d="M166.52,78.26L165.97,77.86L165.58,77.24L165.38,76.46L165.40,75.61L165.63,74.78L165.90,74.32L166.06,74.05L166.63,73.52L167.28,73.23L167.94,73.22"/></g></g><g id="Actor_.3"><g style="stroke:#000000;stroke-width:0.353"><path d="M167.83,145.57L166.83,145.58L165.85,146.01L165.00,146.81L164.36,147.89L164.19,148.51L164.01,149.14L163.98,150.42L164.28,151.59L164.87,152.53L165.70,153.12"/><path d="M167.55,146.85L168.15,147.12L168.63,147.64L168.93,148.35L169.02,149.18L168.89,150.03L168.56,150.82L168.06,151.46L167.44,151.87L166.77,152.02L166.13,151.89"/></g><g style="stroke:#000000;stroke-width:0.353"><path d="M160.27,150.90L160.21,150.86L159.71,150.08L159.47,149.10L159.49,148.04L159.78,147.00L160.31,146.09L161.03,145.43L161.49,145.22"/><path d="M160.10,150.64L160.10,150.63L159.80,149.46L159.83,148.18L160.18,146.93L160.82,145.85L161.26,145.43L161.67,145.05L162.65,144.62L163.64,144.61L167.83,145.57L168.73,145.97L168.93,146.19L169.45,146.75L169.90,147.81L170.04,149.06L169.84,150.34L169.38,151.42L169.34,151.52L168.59,152.47L167.66,153.10L166.66,153.32L165.70,153.12L161.51,152.16L160.69,151.57L160.10,150.64"/><path d="M166.13,151.89L165.58,151.49L165.19,150.87L164.99,150.09L165.01,149.23L165.21,148.51L165.24,148.40L165.67,147.68L166.23,147.15L166.89,146.86L167.55,146.85"/></g></g><g id="Actor_.4"><g style="stroke:#000000;stroke-width:0.353"><path d="M150.98,74.48L149.99,74.50L149.01,74.93L148.15,75.73L147.52,76.81L147.17,78.06L147.15,78.90L147.14,79.34L147.44,80.51L148.03,81.44L148.85,82.04"/><path d="M149.28,80.81L149.93,80.94L150.59,80.79L151.21,80.37L151.71,79.74L152.05,78.95L152.18,78.09L152.09,77.27L151.79,76.56L151.31,76.04L150.70,75.77"/></g><g style="stroke:#000000;stroke-width:0.353"><path d="M143.42,79.82L143.36,79.77L142.87,78.99L142.62,78.02L142.64,76.95L142.94,75.91L143.47,75.01L144.18,74.34L144.64,74.14"/><path d="M143.57,80.06L143.85,80.48L144.67,81.08L148.85,82.04L149.81,82.24L150.81,82.01L151.74,81.39L152.50,80.43L152.66,80.06L153.00,79.25L153.19,77.97L153.05,76.73L152.60,75.66L152.37,75.41L151.89,74.89L150.98,74.48L146.80,73.52L145.80,73.54L144.83,73.97L143.97,74.77L143.34,75.85L142.98,77.10L142.95,78.38L143.25,79.55L143.57,80.06"/><path d="M150.70,75.77L150.04,75.78L149.39,76.06L148.82,76.60L148.40,77.32L148.16,78.15L148.14,78.90L148.14,79.00L148.34,79.78L148.74,80.41L149.28,80.81"/></g></g><g><g><path style="stroke:#000000;stroke-width:0.200;stroke-dasharray:3.0 2.0 1.0 2.0" d="M139.17,143.01L164.48,148.82"/></g><g><path style="fill:#000000" d="M139.67,143.01L139.67,142.96L139.66,142.91L139.65,142.87L139.63,142.82L139.61,142.78L139.58,142.73L139.55,142.69L139.52,142.66L139.49,142.62L139.45,142.60L139.40,142.57L139.36,142.55L139.31,142.53L139.27,142.52L139.22,142.51L139.17,142.51L139.12,142.51L139.07,142.52L139.02,142.53L138.98,142.55L138.93,142.57L138.89,142.60L138.85,142.62L138.81,142.66L138.78,142.69L138.75,142.73L138.73,142.78L138.71,142.82L138.69,142.87L138.68,142.91L138.67,142.96L138.67,143.01L138.67,143.06L138.68,143.11L138.69,143.16L138.71,143.20L138.73,143.25L138.75,143.29L138.78,143.33L138.81,143.36L138.85,143.40L138.89,143.43L138.93,143.45L138.98,143.47L139.02,143.49L139.07,143.50L139.12,143.51L139.17,143.51L139.22,143.51L139.27,143.50L139.31,143.49L139.36,143.47L139.40,143.45L139.45,143.43L139.49,143.40L139.52,143.36L139.55,143.33L139.58,143.29L139.61,143.25L139.63,143.20L139.65,143.16L139.66,143.11L139.67,143.06z"/></g><g><path style="fill:#000000" d="M164.98,148.82L164.98,148.77L164.97,148.72L164.96,148.68L164.94,148.63L164.92,148.59L164.89,148.54L164.87,148.50L164.83,148.47L164.80,148.43L164.76,148.41L164.71,148.38L164.67,148.36L164.62,148.34L164.58,148.33L164.53,148.32L164.48,148.32L164.43,148.32L164.38,148.33L164.33,148.34L164.29,148.36L164.24,148.38L164.20,148.41L164.16,148.43L164.13,148.47L164.09,148.50L164.06,148.54L164.04,148.59L164.02,148.63L164.00,148.68L163.99,148.72L163.98,148.77L163.98,148.82L163.98,148.87L163.99,148.92L164.00,148.97L164.02,149.01L164.04,149.06L164.06,149.10L164.09,149.14L164.13,149.17L164.16,149.21L164.20,149.24L164.24,149.26L164.29,149.28L164.33,149.30L164.38,149.31L164.43,149.32L164.48,149.32L164.53,149.32L164.58,149.31L164.62,149.30L164.67,149.28L164.71,149.26L164.76,149.24L164.80,149.21L164.83,149.17L164.87,149.14L164.89,149.10L164.92,149.06L164.94,149.01L164.96,148.97L164.97,148.92L164.98,148.87z"/></g></g><g><g><path style="stroke:#000000;stroke-width:0.200;stroke-dasharray:3.0 2.0 1.0 2.0" d="M139.56,69.38L164.87,75.19"/></g><g><path style="fill:#000000" d="M140.06,69.38L140.06,69.33L140.05,69.29L140.04,69.24L140.02,69.19L140.00,69.15L139.98,69.11L139.95,69.07L139.91,69.03L139.88,69.00L139.84,68.97L139.80,68.94L139.75,68.92L139.70,68.91L139.66,68.89L139.61,68.89L139.56,68.88L139.51,68.89L139.46,68.89L139.41,68.91L139.37,68.92L139.32,68.94L139.28,68.97L139.24,69.00L139.21,69.03L139.17,69.07L139.14,69.11L139.12,69.15L139.10,69.19L139.08,69.24L139.07,69.29L139.06,69.33L139.06,69.38L139.06,69.43L139.07,69.48L139.08,69.53L139.10,69.58L139.12,69.62L139.14,69.66L139.17,69.70L139.21,69.74L139.24,69.77L139.28,69.80L139.32,69.82L139.37,69.85L139.41,69.86L139.46,69.87L139.51,69.88L139.56,69.88L139.61,69.88L139.66,69.87L139.70,69.86L139.75,69.85L139.80,69.82L139.84,69.80L139.88,69.77L139.91,69.74L139.95,69.70L139.98,69.66L140.00,69.62L140.02,69.58L140.04,69.53L140.05,69.48L140.06,69.43z"/></g><g><path style="fill:#000000" d="M165.37,75.19L165.37,75.14L165.36,75.10L165.35,75.05L165.33,75.00L165.31,74.96L165.29,74.92L165.26,74.88L165.22,74.84L165.19,74.81L165.15,74.78L165.11,74.75L165.06,74.73L165.02,74.72L164.97,74.70L164.92,74.70L164.87,74.69L164.82,74.70L164.77,74.70L164.73,74.72L164.68,74.73L164.63,74.75L164.59,74.78L164.55,74.81L164.52,74.84L164.48,74.88L164.45,74.92L164.43,74.96L164.41,75.00L164.39,75.05L164.38,75.10L164.37,75.14L164.37,75.19L164.37,75.24L164.38,75.29L164.39,75.34L164.41,75.39L164.43,75.43L164.45,75.47L164.48,75.51L164.52,75.55L164.55,75.58L164.59,75.61L164.63,75.63L164.68,75.66L164.73,75.67L164.77,75.68L164.82,75.69L164.87,75.69L164.92,75.69L164.97,75.68L165.02,75.67L165.06,75.66L165.11,75.63L165.15,75.61L165.19,75.58L165.22,75.55L165.26,75.51L165.29,75.47L165.31,75.43L165.33,75.39L165.35,75.34L165.36,75.29L165.37,75.24z"/></g></g><g><g><path style="stroke:#000000;stroke-width:0.200;stroke-dasharray:3.0 2.0 1.0 2.0" d="M121.93,145.56L147.24,151.37"/></g><g><path style="fill:#000000" d="M122.43,145.56L122.43,145.51L122.42,145.46L122.41,145.41L122.39,145.36L122.37,145.32L122.35,145.28L122.32,145.24L122.29,145.20L122.25,145.17L122.21,145.14L122.17,145.11L122.12,145.09L122.08,145.08L122.03,145.07L121.98,145.06L121.93,145.06L121.88,145.06L121.83,145.07L121.79,145.08L121.74,145.09L121.70,145.11L121.65,145.14L121.61,145.17L121.58,145.20L121.54,145.24L121.52,145.28L121.49,145.32L121.47,145.36L121.45,145.41L121.44,145.46L121.43,145.51L121.43,145.56L121.43,145.60L121.44,145.65L121.45,145.70L121.47,145.75L121.49,145.79L121.52,145.83L121.54,145.87L121.58,145.91L121.61,145.94L121.65,145.97L121.70,146.00L121.74,146.02L121.79,146.03L121.83,146.05L121.88,146.05L121.93,146.06L121.98,146.05L122.03,146.05L122.08,146.03L122.12,146.02L122.17,146.00L122.21,145.97L122.25,145.94L122.29,145.91L122.32,145.87L122.35,145.83L122.37,145.79L122.39,145.75L122.41,145.70L122.42,145.65L122.43,145.60z"/></g><g><path style="fill:#000000" d="M147.74,151.37L147.74,151.32L147.73,151.27L147.72,151.22L147.70,151.17L147.68,151.13L147.66,151.09L147.63,151.05L147.60,151.01L147.56,150.98L147.52,150.95L147.48,150.92L147.43,150.90L147.39,150.89L147.34,150.88L147.29,150.87L147.24,150.87L147.19,150.87L147.14,150.88L147.10,150.89L147.05,150.90L147.01,150.92L146.96,150.95L146.93,150.98L146.89,151.01L146.86,151.05L146.83,151.09L146.80,151.13L146.78,151.17L146.76,151.22L146.75,151.27L146.74,151.32L146.74,151.37L146.74,151.41L146.75,151.46L146.76,151.51L146.78,151.56L146.80,151.60L146.83,151.64L146.86,151.68L146.89,151.72L146.93,151.75L146.96,151.78L147.01,151.81L147.05,151.83L147.10,151.84L147.14,151.86L147.19,151.86L147.24,151.87L147.29,151.86L147.34,151.86L147.39,151.84L147.43,151.83L147.48,151.81L147.52,151.78L147.56,151.75L147.60,151.72L147.63,151.68L147.66,151.64L147.68,151.60L147.70,151.56L147.72,151.51L147.73,151.46L147.74,151.41z"/></g></g><g><g><path style="stroke:#000000;stroke-width:0.200;stroke-dasharray:3.0 2.0 1.0 2.0" d="M122.32,71.93L147.63,77.74"/></g><g><path style="fill:#000000" d="M122.82,71.93L122.82,71.88L122.81,71.83L122.80,71.78L122.78,71.74L122.76,71.69L122.74,71.65L122.71,71.61L122.68,71.57L122.64,71.54L122.60,71.51L122.56,71.49L122.51,71.47L122.47,71.45L122.42,71.44L122.37,71.43L122.32,71.43L122.27,71.43L122.23,71.44L122.18,71.45L122.13,71.47L122.09,71.49L122.04,71.51L122.01,71.54L121.97,71.57L121.94,71.61L121.91,71.65L121.88,71.69L121.86,71.74L121.84,71.78L121.83,71.83L121.83,71.88L121.82,71.93L121.83,71.98L121.83,72.03L121.84,72.07L121.86,72.12L121.88,72.16L121.91,72.21L121.94,72.25L121.97,72.28L122.01,72.31L122.04,72.34L122.09,72.37L122.13,72.39L122.18,72.41L122.23,72.42L122.27,72.43L122.32,72.43L122.37,72.43L122.42,72.42L122.47,72.41L122.51,72.39L122.56,72.37L122.60,72.34L122.64,72.31L122.68,72.28L122.71,72.25L122.74,72.21L122.76,72.16L122.78,72.12L122.80,72.07L122.81,72.03L122.82,71.98z"/></g><g><path style="fill:#000000" d="M148.13,77.74L148.13,77.69L148.12,77.64L148.11,77.59L148.10,77.55L148.07,77.50L148.05,77.46L148.02,77.42L147.99,77.38L147.95,77.35L147.91,77.32L147.87,77.30L147.82,77.28L147.78,77.26L147.73,77.25L147.68,77.24L147.63,77.24L147.58,77.24L147.54,77.25L147.49,77.26L147.44,77.28L147.40,77.30L147.36,77.32L147.32,77.35L147.28,77.38L147.25,77.42L147.22,77.46L147.19,77.50L147.17,77.55L147.15,77.59L147.14,77.64L147.14,77.69L147.13,77.74L147.14,77.79L147.14,77.84L147.15,77.88L147.17,77.93L147.19,77.97L147.22,78.02L147.25,78.06L147.28,78.09L147.32,78.12L147.36,78.15L147.40,78.18L147.44,78.20L147.49,78.22L147.54,78.23L147.58,78.24L147.63,78.24L147.68,78.24L147.73,78.23L147.78,78.22L147.82,78.20L147.87,78.18L147.91,78.15L147.95,78.12L147.99,78.09L148.02,78.06L148.05,78.02L148.07,77.97L148.10,77.93L148.11,77.88L148.12,77.84L148.13,77.79z"/></g></g><g/><g id="paperID" visibility="hidden" opacity="0.00" transform="scale(0.000100)"><path style="stroke:#000000;stroke-width:0.500;fill:#e6e6e6;fill-rule:evenodd" d="M-2000.00,-2000.00L2297.00,-2000.00L2297.00,2210.00L-2000.00,2210.00zM0.00,0.00L297.00,0.00L297.00,210.00L0.00,210.00z"/><path style="fill:#000000;fill-opacity:0.118" d="M3.00,210.00L297.00,210.00L297.00,3.00L300.00,3.00L300.00,213.00L3.00,213.00z"/></g><g id="ToolTip" visibility="hidden" opacity="0" transform="translate(0,0)"><rect id="ToolTipShadow" opacity="0.20" fill="black" stroke="none" x="0" y="0" width="30" height="8"/><rect id="ToolTipBG" fill="#ffffe1" stroke="black" x="0" y="0" width="30" height="8"/><text xml:space="preserve" id="ToolTipText" fill="black" x="0" y="0" width="30" height="8">tooltip</text></g></g></svg>