<?xml version="1.0" encoding="UTF-8" standalone="yes"?><svg xmlns="http://www.w3.org/2000/svg" xmlns:xlink="http://www.w3.org/1999/xlink" width="297.000mm" height="210.000mm" viewBox="0.000000 0.000000 297.000000 210.000000" stroke-linejoin="round" stroke-linecap="round" fill="none" fill-rule="evenodd"><desc>Composer Export</desc><script type="text/ecmascript"><![CDATA[
if(typeof(top) != "undefined")
{
	top.ShowPaper = ShowPaper;
}
function ShowHotSpot(evt,hotspotid)
{
	var svgDocument = evt.target.ownerDocument;
	var strId = "hotspot."+hotspotid;
	var hotspot = svgDocument.getElementById(strId);
	if(hotspot)
		hotspot.setAttribute("opacity",".5");
}
function HideHotSpot(evt,hotspotid)
{
	var svgDocument = evt.target.ownerDocument;
	var strId = "hotspot."+hotspotid;
	var hotspot = svgDocument.getElementById(strId);
	if(hotspot)
		hotspot.setAttribute("opacity","0");

	var toolTip = svgDocument.getElementById('ToolTip');
	if(toolTip)
		toolTip.setAttribute("visibility","hidden");
}
function ShowToolTip(evt,hotspotid,strTooltip)
{
	if(strTooltip=="")
	return;

	// change text
	var svgDocument = evt.target.ownerDocument;
	var tiptext = svgDocument.getElementById('ToolTipText');
	if( !tiptext )
	return;
	tiptext.firstChild.nodeValue = " " + strTooltip + "  " ;

	// show tooltip before, else some refresh issue

	var toolTip = svgDocument.getElementById('ToolTip');
	if(!toolTip)
	return;

	toolTip.setAttribute("visibility","visible");
	toolTip.setAttribute("opacity",".95");

	// move tooltip
	// get viewbox

	var root = svgDocument.documentElement;
	var vbox = (root.getAttribute("viewBox")).split(' ');
	var x0 = parseFloat(vbox[0]);
	var y0 = parseFloat(vbox[1]);
	var vboxW = parseFloat(vbox[2]);
	var vboxH = parseFloat(vbox[3]);

	// get default width of svg

	var strW = root.getAttribute("width");
	var svgW = parseFloat(strW);
	if(strW.indexOf('mm') != -1)
	svgW *= 3.779;

	var strH = root.getAttribute("height");
	var svgH = parseFloat(strH);
	if(strH.indexOf('mm') != -1)
	svgH *= 3.779;  	// 96 dpi  -> 96/25.4 = 3.779

	// update the viewbox / width / height if svg is embedded in html with zoom fit all
	var realx0 = x0;
	var realy0 = y0;
	var realvboxW = vboxW;
	var realvboxH = vboxH;
	var realsvgW = svgW;
	var realsvgH = svgH;

	if ((typeof(top) == "undefined") || (typeof(top.svgctl1) != "undefined")) // embedded in html
	{
		// get window size in pxl

		svgW = window.innerWidth;
		svgH = window.innerHeight;

		// calculate real viewbox

		realsvgW = svgW;
		realsvgH = svgH;
		if((svgW / svgH) > (vboxW / vboxH))
		{
			realvboxW = (vboxH * svgW) / svgH;
			realvboxH = vboxH;
			realx0 = x0 - (realvboxW - vboxW)/2 ;
		}
		else
		{
			realvboxH = (vboxW * svgH) / svgW;
			realvboxW = vboxW;
			realy0 = y0 - (realvboxH - vboxH)/2 ;
		}
	}

	// get user zoom/pan

	var newScale = root.currentScale;
	var translation = root.currentTranslate;

	// transform pxl to user unit

	var xPos = (((evt.clientX+10- translation.x)/newScale) * realvboxW)/realsvgW  + realx0 ;
	var yPos = (((evt.clientY+5- translation.y)/newScale) * realvboxH)/ realsvgH  + realy0 ;
	var scaleForWidth = ( (1 / newScale) * realvboxH) / realsvgH;

	// move tooltip

	toolTip.setAttribute("transform", "translate(" + xPos + "," + yPos + ")" );

	// resize tooltip

	var fontsize = 12;
	tiptext.setAttribute("font-size",fontsize*scaleForWidth);
	tiptext.setAttribute("y", fontsize*scaleForWidth);
	var tipBG = svgDocument.getElementById('ToolTipBG');
	var outline = tiptext.getBBox();
	if(tipBG)
	{
		tipBG.setAttribute("stroke-width", 1*scaleForWidth);
		tipBG.setAttribute("width", Number(outline.width) );
		tipBG.setAttribute("height", Number(outline.height) + fontsize*.5*scaleForWidth );
	}
	var ToolTipShadow = svgDocument.getElementById('ToolTipShadow');
	if(ToolTipShadow)
	{
		ToolTipShadow.setAttribute("width", Number(outline.width) );
		ToolTipShadow.setAttribute("height", Number(outline.height) + fontsize*.5*scaleForWidth );
		ToolTipShadow.setAttribute("x", 3*scaleForWidth);
		ToolTipShadow.setAttribute("y", 3*scaleForWidth);
	}
}
function ShowPaper()
{
  var svgDocument = getDocument();
  var paper = svgDocument.getElementById("paperID");
  if(paper)
  {
    paper.setAttribute("transform","scale(1)");
    paper.setAttribute("opacity","1");
    paper.setAttribute("visibility","visible");
  }
  var svg = svgDocument.getRootElement();
  if(svg)
  {
    svg.setAttribute("width","307.000mm");
    svg.setAttribute("height","220.000mm");
    svg.setAttribute("viewBox","-5.000000 -5.000000 307.000000 220.000000");
  }
}
]]></script><defs/><g><path style="fill:#ffffff" d="M296.91,209.94L0.05,209.94L0.05,0.05L296.91,0.05z"/><path style="fill:#d7d0c0" d="M119.70,28.25L219.84,46.11L221.13,46.27L221.37,46.58L221.46,46.95L224.14,50.97L224.36,51.04L224.48,51.56L192.08,73.56L191.91,75.06L188.41,174.39L187.40,174.33L181.55,173.50L180.98,173.34L181.23,174.32L181.15,176.11L180.96,177.31L171.60,175.64L163.92,174.57L163.88,174.44L163.73,174.14L163.52,173.97L163.46,173.67L168.66,172.16L168.72,171.66L167.19,168.49L166.31,163.49L166.86,159.02L168.63,155.11L170.31,153.45L170.93,153.40L171.00,153.51L171.42,153.54L171.94,153.57L172.38,153.70L171.94,153.57L171.44,153.44L170.93,153.40L169.60,153.11L169.13,153.07L168.60,152.93L168.09,152.94L164.98,153.63L164.12,153.94L161.20,156.20L158.86,160.03L158.64,160.97L158.14,164.31L158.38,169.37L104.77,159.80L104.21,159.80L104.29,162.25L104.13,163.61L94.82,161.95L87.81,160.95L87.46,160.88L86.57,160.29L86.51,159.98L91.93,158.35L91.75,157.80L90.24,154.64L89.58,150.62L89.58,148.84L90.03,145.28L91.85,141.26L93.36,139.71L93.76,139.60L93.36,139.54L92.82,139.41L92.35,139.38L92.24,139.28L91.13,139.25L87.53,140.11L84.20,142.63L82.02,146.29L81.57,148.34L81.56,149.11L81.18,150.96L81.60,155.67L80.39,155.47L79.33,155.07L79.33,152.91L82.76,55.41L82.91,54.03L85.01,52.12L86.36,50.80L88.20,49.30L118.56,28.09L118.85,28.07z"/><path style="fill:#a8881b" d="M51.53,54.64L52.37,55.46L53.41,56.90L51.59,56.62L49.74,56.28L48.13,56.64L46.61,57.79L45.20,59.89L44.17,62.37L43.68,65.05L43.68,68.83L44.13,70.71L49.55,71.70L49.19,69.83L49.19,65.88L49.68,63.37L50.80,60.65L52.20,58.71L53.64,57.65L54.75,57.29L54.93,57.22L56.56,57.79L57.72,59.13L58.46,61.09L58.56,61.59L58.63,62.43L58.72,63.10L58.72,64.93L58.53,67.05L57.87,69.56L56.87,71.56L55.47,73.49L53.81,74.51L51.74,74.58L50.74,74.41L50.68,74.33L50.25,74.42L49.94,74.66L48.31,75.68L45.73,75.75L33.00,73.49L31.32,72.18L30.14,70.17L30.07,69.78L30.82,70.00L42.01,72.00L42.85,72.06L42.84,71.33L42.50,70.00L42.51,64.88L43.13,61.83L44.34,58.70L45.95,56.29L47.79,54.63L49.62,54.08L50.19,54.14z"/><path style="fill:#a8881b" d="M273.02,94.72L274.38,97.03L274.96,99.98L274.97,103.83L274.37,107.28L273.37,109.95L271.70,112.79L269.46,114.72L267.59,115.22L267.09,115.22L255.06,113.04L253.33,112.57L252.68,112.22L251.50,110.89L251.01,110.17L251.02,109.90L250.73,110.03L249.89,109.87L248.15,109.40L247.34,108.71L246.67,107.88L246.25,106.66L250.02,107.33L250.19,107.51L250.78,109.11L262.52,111.23L263.37,111.28L263.01,109.90L262.85,108.39L262.85,105.11L263.01,103.27L264.02,99.59L265.70,96.44L266.64,95.37L267.69,94.42L268.97,93.69L271.08,93.53L271.22,93.54z"/><path style="fill:#a8881b" d="M50.38,107.70L51.41,109.31L51.26,109.38L49.41,109.03L46.95,108.88L45.34,109.77L44.02,111.29L43.01,113.12L42.16,115.61L41.84,117.46L41.84,121.24L42.00,122.42L42.29,123.13L47.71,124.12L47.51,123.42L47.35,122.25L47.35,118.46L47.80,116.07L48.35,114.46L49.45,112.38L50.95,110.71L52.29,109.88L53.26,109.71L54.02,109.90L55.22,110.70L56.20,112.23L56.62,113.84L56.72,114.33L56.80,114.68L56.88,115.52L56.89,117.85L56.46,120.52L55.70,122.80L54.29,125.24L52.71,126.66L51.14,127.27L48.58,126.81L48.14,126.73L48.22,126.89L47.35,127.81L45.41,128.41L44.90,128.41L33.56,126.39L31.31,125.93L30.33,125.58L29.67,124.74L28.81,123.76L28.37,122.39L28.99,122.41L40.34,124.41L41.19,124.41L40.83,123.59L40.51,120.74L40.51,119.46L40.78,116.23L41.79,112.90L43.27,109.87L44.96,107.89L46.62,106.88L48.36,106.76L48.41,106.66L48.87,106.71z"/><path style="fill:#a8881b" d="M270.20,146.45L271.70,147.95L272.70,150.29L272.96,151.73L273.05,152.41L273.13,153.07L273.22,153.74L273.13,155.58L272.96,157.75L272.20,160.86L270.65,164.15L268.84,166.35L266.98,167.49L264.70,167.67L263.75,167.46L251.82,165.33L249.99,163.99L249.19,162.63L248.39,162.46L247.38,162.29L246.49,161.98L245.50,161.30L244.47,159.65L244.40,159.26L247.49,159.80L248.16,159.83L248.34,159.64L248.82,161.65L260.68,163.81L261.53,163.86L261.01,161.48L261.02,157.19L261.50,154.17L262.85,150.67L264.45,148.27L266.02,146.83L267.02,146.33L268.27,145.91L268.69,145.95z"/><path style="fill:#d3aa21" d="M48.25,53.79L49.62,54.08L47.79,54.63L45.95,56.29L44.34,58.70L43.13,61.83L42.51,64.88L42.50,70.00L42.84,71.33L42.85,72.06L42.01,72.00L30.82,70.00L30.07,69.78L29.50,67.28L29.50,63.26L29.92,60.76L30.15,59.69L31.34,56.55L32.93,54.12L34.94,52.30L36.54,51.87L37.40,51.87z"/><path style="fill:#d3aa21" d="M51.59,56.62L53.41,56.90L53.59,56.96L54.43,57.12L54.75,57.29L53.64,57.65L52.20,58.71L50.80,60.65L49.68,63.37L49.19,65.88L49.19,69.83L49.55,71.70L44.13,70.71L43.68,68.83L43.68,65.05L44.17,62.37L45.20,59.89L46.61,57.79L48.13,56.64L49.74,56.28z"/><path style="fill:#d3aa21" d="M271.08,93.53L268.97,93.69L267.69,94.42L266.64,95.37L265.70,96.44L264.02,99.59L263.01,103.27L262.85,105.11L262.85,108.39L263.01,109.90L263.37,111.28L262.52,111.23L250.78,109.11L250.19,107.51L250.17,106.87L250.02,107.33L246.25,106.66L245.98,106.06L245.84,105.17L245.82,104.38L245.75,104.32L245.67,103.67L245.68,102.49L245.93,99.71L246.83,96.93L248.01,94.77L249.44,93.20L250.88,92.43L252.72,92.43L253.56,92.61L254.28,92.53L254.95,92.03L256.38,91.26L258.57,91.27z"/><path style="fill:#d3aa21" d="M47.91,106.53L48.41,106.66L48.36,106.76L46.62,106.88L44.96,107.89L43.27,109.87L41.79,112.90L40.78,116.23L40.51,119.46L40.51,120.74L40.83,123.59L41.19,124.41L40.34,124.41L28.99,122.41L28.37,122.39L27.98,121.59L27.84,120.52L27.82,119.91L27.75,119.85L27.67,119.19L27.65,118.57L27.58,118.51L27.74,115.01L27.98,113.62L28.77,110.73L30.25,107.70L32.01,105.62L33.76,104.55L34.21,104.45L36.06,104.45z"/><path style="fill:#d3aa21" d="M49.41,109.03L51.26,109.38L51.74,109.47L53.26,109.71L52.29,109.88L50.95,110.71L49.45,112.38L48.35,114.46L47.80,116.07L47.35,118.46L47.35,122.25L47.51,123.42L47.71,124.12L42.29,123.13L42.00,122.42L41.84,121.24L41.84,117.46L42.16,115.61L43.01,113.12L44.02,111.29L45.34,109.77L46.95,108.88z"/><path style="fill:#d3aa21" d="M265.76,145.43L268.04,145.77L268.27,145.91L267.02,146.33L266.02,146.83L264.45,148.27L262.85,150.67L261.50,154.17L261.02,157.19L261.01,161.48L261.53,163.86L260.68,163.81L248.82,161.65L248.34,159.64L248.16,159.83L247.49,159.80L244.40,159.26L244.31,159.14L244.18,158.41L244.16,157.96L244.08,157.91L243.98,157.63L243.84,155.08L243.84,154.23L244.18,152.24L244.44,150.96L245.44,148.45L246.62,146.63L248.11,145.28L249.54,144.85L250.23,144.86L252.06,145.20L252.52,145.03L253.61,144.11L255.22,143.68L256.07,143.68z"/><path style="fill:#aca699" d="M106.11,53.31L108.13,54.62L107.70,59.60L107.70,61.42L107.68,62.25L99.44,64.71L98.58,63.34L98.09,61.16L98.09,58.02L99.02,55.62L100.21,54.14L102.38,52.97L103.82,52.88L104.51,52.87z"/><path style="fill:#aca699" d="M183.39,67.16L184.91,68.26L185.00,68.62L184.58,73.44L184.58,75.12L184.63,75.95L176.87,78.22L176.22,78.35L175.54,77.19L174.82,74.18L175.04,71.54L175.81,69.48L177.33,67.66L178.83,66.82L180.29,66.64L181.07,66.51z"/><path style="fill:#aca699" d="M92.24,139.28L92.35,139.38L92.39,139.49L92.82,139.41L93.36,139.54L93.36,139.71L91.85,141.26L90.03,145.28L89.58,148.84L89.58,150.62L90.24,154.64L91.75,157.80L91.93,158.35L86.51,159.98L86.57,160.29L87.46,160.88L84.81,160.45L83.96,160.29L83.41,160.13L79.40,155.29L79.33,155.07L80.39,155.47L81.60,155.67L81.18,150.96L81.56,149.11L81.57,148.34L82.02,146.29L84.20,142.63L87.53,140.11L91.13,139.25z"/><path style="fill:#aca699" d="M102.44,145.95L103.60,148.62L104.37,150.72L104.46,151.41L104.54,152.23L104.46,152.75L96.21,155.02L95.42,153.64L94.92,151.63L94.91,148.50L95.87,145.95L97.37,144.28L98.87,143.43L99.83,143.36L100.32,143.36z"/><path style="fill:#aca699" d="M168.53,153.02L168.60,152.93L169.13,153.07L169.17,153.18L169.60,153.11L170.93,153.40L170.31,153.45L168.63,155.11L166.86,159.02L166.31,163.49L167.19,168.49L168.72,171.66L168.66,172.16L163.46,173.67L163.52,173.97L163.73,174.14L163.88,174.44L163.42,174.48L108.18,164.63L104.48,163.97L104.20,163.76L104.29,162.25L104.21,159.80L104.77,159.80L158.38,169.37L158.14,164.31L158.64,160.97L158.86,160.03L161.20,156.20L164.12,153.94L164.98,153.63L168.09,152.94z"/><path style="fill:#aca699" d="M179.39,159.80L181.23,164.14L181.32,165.09L181.42,165.76L181.39,166.36L173.49,168.67L173.06,168.66L172.20,166.99L171.65,164.65L171.87,161.85L172.72,159.70L173.98,158.13L175.82,157.12L177.08,156.97z"/><path style="fill:#aca699" d="M181.55,173.50L187.40,174.33L188.41,174.39L191.91,75.06L192.08,73.56L224.48,51.56L224.39,56.09L220.21,175.11L220.04,178.45L216.38,182.18L186.12,178.48L183.96,178.15L181.22,177.66L180.96,177.31L181.15,176.11L181.23,174.32L180.98,173.34z"/><path style="fill:#000019" d="M107.83,61.60L107.68,62.25L107.70,61.42z"/><path style="fill:#000019" d="M48.58,126.81L48.22,126.89L48.14,126.73z"/><path style="fill:#000019" d="M92.39,139.49L92.35,139.38L92.82,139.41z"/><path style="fill:#000019" d="M100.32,143.36L99.83,143.36L100.12,143.10z"/><path style="fill:#000019" d="M104.46,151.41L104.37,150.72L104.44,150.79z"/><path style="fill:#000019" d="M104.63,152.85L104.46,152.75L104.54,152.23L104.61,152.29z"/><path style="fill:#000019" d="M168.53,153.02L168.09,152.94L168.60,152.93z"/><path style="fill:#000019" d="M169.17,153.18L169.13,153.07L169.60,153.11z"/><path style="fill:#000019" d="M181.42,165.76L181.32,165.09L181.39,165.14z"/><path style="fill:#000020" d="M54.93,57.22L54.75,57.29L54.43,57.12z"/><path style="fill:#000020" d="M58.56,61.59L58.46,61.09L58.54,61.15z"/><path style="fill:#000020" d="M58.72,63.10L58.63,62.43L58.70,62.48z"/><path style="fill:#000020" d="M107.61,67.88L107.23,67.85L107.64,67.51z"/><path style="fill:#000020" d="M185.00,68.62L184.91,68.26L185.07,67.81z"/><path style="fill:#000020" d="M50.54,69.61L50.45,69.12L50.53,69.17z"/><path style="fill:#000020" d="M50.74,74.41L50.25,74.42L50.68,74.33z"/><path style="fill:#000020" d="M184.73,76.75L184.63,75.95L184.72,76.00z"/><path style="fill:#000020" d="M201.44,98.99L201.34,98.49L201.42,98.55z"/><path style="fill:#000020" d="M274.97,103.83L274.96,99.98L275.03,100.05z"/><path style="fill:#000020" d="M245.84,105.17L245.75,104.32L245.82,104.38z"/><path style="fill:#000020" d="M48.41,106.66L47.91,106.53L48.36,106.56z"/><path style="fill:#000020" d="M265.37,107.51L265.28,106.83L265.35,106.89z"/><path style="fill:#000020" d="M250.19,107.51L250.02,107.33L250.17,106.87z"/><path style="fill:#000020" d="M51.74,109.47L51.26,109.38L51.41,109.31z"/><path style="fill:#000020" d="M251.01,110.17L250.73,110.03L251.02,109.90z"/><path style="fill:#000020" d="M56.72,114.33L56.62,113.84L56.70,113.90z"/><path style="fill:#000020" d="M56.88,115.52L56.80,114.68L56.87,114.73z"/><path style="fill:#000020" d="M27.67,119.19L27.58,118.51L27.65,118.57z"/><path style="fill:#000020" d="M27.84,120.52L27.75,119.85L27.82,119.91z"/><path style="fill:#000020" d="M48.53,121.20L48.44,120.35L48.51,120.41z"/><path style="fill:#000020" d="M93.36,139.71L93.36,139.54L93.76,139.60z"/><path style="fill:#000020" d="M199.44,150.56L199.35,150.07L199.42,150.13z"/><path style="fill:#000020" d="M199.60,151.57L199.51,151.07L199.59,151.13z"/><path style="fill:#000020" d="M273.05,152.41L272.96,151.73L273.03,151.79z"/><path style="fill:#000020" d="M171.42,153.54L171.00,153.51L170.93,153.40L171.44,153.44z"/><path style="fill:#000020" d="M273.22,153.74L273.13,153.07L273.20,153.12z"/><path style="fill:#000020" d="M244.18,158.41L244.08,157.91L244.16,157.96z"/><path style="fill:#000020" d="M263.70,160.75L263.61,160.25L263.69,160.31z"/><path style="fill:#000020" d="M104.20,163.76L104.13,163.61L104.29,162.25z"/><path style="fill:#000020" d="M163.92,174.57L163.42,174.48L163.88,174.44z"/><path style="fill:#d3aa21" d="M56.71,61.64L57.02,61.83L57.20,62.15L57.54,64.16L57.37,66.55L56.87,68.55L56.03,70.22L55.03,71.56L53.81,72.34L52.34,72.35L51.37,71.49L50.54,69.61L50.53,69.17L50.45,69.12L50.37,68.77L50.37,66.10L50.45,65.60L50.68,64.53L51.54,62.23L52.31,60.98z"/><path style="fill:#d3aa21" d="M272.03,100.05L272.53,101.71L272.53,103.94L272.37,104.94L271.82,106.89L270.81,108.90L269.46,110.38L268.48,110.73L267.54,110.71L266.70,110.22L266.01,109.40L265.37,107.51L265.35,106.89L265.28,106.83L265.38,103.66L266.19,101.27L267.20,99.44L267.47,99.19z"/><path style="fill:#d3aa21" d="M55.19,114.24L55.38,114.55L55.53,115.40L55.53,118.79L55.37,119.80L54.69,121.80L53.95,123.06L52.72,124.49L51.65,124.93L50.87,124.90L50.69,124.74L50.02,124.58L49.18,123.42L48.68,121.92L48.53,121.20L48.51,120.41L48.44,120.35L48.44,119.69L48.63,117.91L49.30,115.57L50.44,113.53L50.84,113.39z"/><path style="fill:#d3aa21" d="M269.70,152.46L270.37,152.78L270.70,154.80L270.53,157.52L270.19,158.86L269.36,160.86L268.29,162.30L267.13,163.13L265.36,163.14L264.70,162.63L263.70,160.75L263.69,160.31L263.61,160.25L263.52,159.64L263.44,157.07L263.61,156.07L263.85,155.01L264.61,153.10L265.46,151.77z"/><path style="fill:#aca699" d="M223.46,48.29L224.36,51.04L224.14,50.97L221.46,46.95L221.37,46.58z"/><path style="fill:#aca699" d="M96.10,49.53L93.87,52.97L92.70,57.31L92.91,62.16L94.25,66.33L95.11,67.67L95.10,68.04L86.87,70.39L84.90,65.83L84.35,60.65L84.73,58.63L84.74,57.70L84.91,56.70L86.86,54.64L91.36,50.63L98.05,47.78L98.43,47.78z"/><path style="fill:#aca699" d="M161.52,71.90L161.82,70.34L162.20,70.06L163.13,68.98L164.53,67.71L168.32,64.32L175.21,61.47L175.23,61.53L172.98,63.31L170.72,66.72L169.70,70.55L169.71,74.17L169.86,76.18L171.22,80.33L172.07,81.53L172.05,81.72L164.15,84.03L163.66,84.08L161.85,79.86L161.36,75.84L161.36,73.89L161.52,72.33z"/><path style="fill:#aca699" d="M95.16,139.88L94.35,139.77L95.08,139.78z"/><path style="fill:#aca699" d="M171.94,153.57L171.42,153.54L171.44,153.44z"/><path style="fill:#d7d0c0" d="M210.61,86.69L211.29,87.01L211.61,88.19L211.88,90.26L212.79,90.21L212.94,90.87L212.94,91.92L212.44,95.43L211.44,98.43L209.94,101.10L208.12,102.96L206.38,103.74L205.94,103.73L205.44,103.04L205.10,102.87L203.94,102.71L202.44,101.37L201.58,99.55L201.44,98.99L201.42,98.55L201.34,98.49L201.10,97.16L201.11,94.81L201.35,92.48L201.44,91.97L202.25,89.08L203.42,86.57L204.04,85.69L205.09,85.69z"/><path style="fill:#d7d0c0" d="M209.27,139.27L209.60,140.11L210.04,142.67L210.94,142.77L211.10,143.45L211.10,144.33L210.61,147.84L209.93,150.01L208.38,153.13L206.46,155.38L204.37,156.32L204.10,156.30L203.59,155.47L201.87,155.18L201.25,154.46L200.60,153.95L199.75,152.13L199.60,151.57L199.59,151.13L199.51,151.07L199.44,150.56L199.42,150.13L199.35,150.07L199.27,149.57L199.27,147.22L199.41,145.50L200.25,141.99L201.60,139.01L202.37,138.08z"/><g id="Actor_.0"><g style="stroke:#000000;stroke-width:0.353"><path d="M107.60,60.60L107.66,60.75L108.08,65.22L107.18,69.89L104.94,73.73L101.65,76.30L97.69,77.27L93.53,76.53L89.69,74.16L86.61,70.46L84.67,65.87L84.10,60.94L84.83,56.67L83.95,56.52L80.48,155.50L79.23,155.02"/><path d="M83.45,160.18L80.48,155.50L81.36,155.66L81.54,155.77L86.68,160.37L87.39,160.89"/><path d="M81.54,155.77L81.09,151.19L81.99,146.55L84.21,142.73L87.48,140.19"/><path d="M164.27,174.60L163.56,174.09L158.42,169.49L158.24,169.37L104.19,159.73L104.92,155.47L104.35,150.53L102.41,145.94L99.34,142.24L95.49,139.88L91.34,139.14L87.38,140.11L84.08,142.67L81.85,146.52L80.94,151.19L81.36,155.66"/><path d="M84.83,56.67L85.02,56.57L86.06,55.33L91.26,50.67L87.31,49.97L83.95,56.52L82.77,54.25"/><path d="M101.67,76.18L97.73,77.14L97.07,77.02L93.62,76.40L89.80,74.06L86.75,70.39L84.82,65.83L84.26,60.94L85.02,56.57"/><path d="M94.77,161.91L92.13,158.80L90.15,154.56L89.37,149.94L89.88,145.43L91.61,141.52L93.45,139.59"/><path d="M91.26,50.67L98.78,47.49L95.95,49.64L93.71,53.12L92.62,57.41L92.80,62.04L94.24,66.52L96.77,70.36L100.13,73.15L103.79,74.53"/><path d="M102.63,158.78L100.46,158.60L98.38,157.60L96.61,155.88L95.35,153.63L94.73,151.09L94.82,148.54L95.61,146.26L97.01,144.48L98.88,143.41"/><path d="M105.80,68.40L103.63,68.23L101.55,67.22L99.78,65.50L98.52,63.25L97.90,60.72L97.99,58.17L98.78,55.88L100.18,54.11L102.04,53.04"/><path d="M98.78,47.49L110.95,49.66"/><path d="M104.19,159.73L104.13,159.80"/><path d="M107.66,60.75L161.71,70.39L160.99,74.66L161.55,79.59L163.49,84.18L166.57,87.88L170.41,90.24L174.57,90.98L178.53,90.01L181.82,87.45L184.06,83.60L184.96,78.93L184.54,74.46L184.48,74.32"/><path d="M178.55,89.89L174.61,90.86L170.49,90.12L166.68,87.78L165.48,86.33L163.63,84.11L161.70,79.55L161.14,74.65L161.90,70.29L162.94,69.05L168.14,64.39L108.04,53.67"/><path d="M158.24,169.37L157.82,164.90L158.73,160.23L160.96,156.39L164.26,153.82L168.22,152.86L172.37,153.60L176.22,155.96L179.29,159.66L181.23,164.25L181.80,169.18L181.07,173.45L182.22,173.65L188.33,174.48L220.00,178.35"/><path d="M158.42,169.49L157.97,164.90L158.87,160.27L161.09,156.45L164.36,153.91"/><path d="M161.71,70.39L161.90,70.29"/><path d="M171.65,175.63L169.01,172.51L167.03,168.27L166.25,163.65L166.76,159.14L168.49,155.23L170.33,153.31"/><path d="M168.14,64.39L175.66,61.22L172.83,63.35L170.59,66.84L169.50,71.13L169.68,75.76L171.12,80.23L173.65,84.08L177.01,86.87L180.67,88.24"/><path d="M175.76,157.13L173.89,158.20L172.49,159.97L171.70,162.26L171.61,164.81L171.66,165.00L172.23,167.35L173.35,169.34L173.51,169.62L175.26,171.32L177.34,172.32L179.51,172.49"/><path d="M178.92,66.75L177.06,67.82L175.66,69.60L174.87,71.88L174.78,74.43L175.40,76.97L176.66,79.22L178.43,80.94L180.51,81.94L182.68,82.12"/><path d="M187.83,63.38L175.66,61.22"/><path d="M181.07,173.45L181.01,173.51"/><path d="M184.92,67.38L189.11,68.13L221.00,46.37L224.45,51.49L191.87,73.72L189.11,68.13L185.69,74.67L191.87,73.72L188.33,174.48L185.25,178.34L182.22,173.65L185.69,74.67L184.54,74.46"/><path d="M202.99,136.95L204.94,135.56L206.89,135.28L208.66,136.15L210.02,138.05L210.85,140.81L211.06,144.10L210.62,147.58L209.57,150.87L208.04,153.62L206.18,155.51L204.21,156.36L202.32,156.06L200.74,154.66L199.63,152.31"/><path d="M201.88,155.21L203.63,155.48L205.46,154.70L206.86,153.27L207.19,152.94L208.61,150.39L209.58,147.34L209.99,144.11L209.80,141.05L209.03,138.50L207.75,136.73L206.12,135.92"/><path d="M204.84,84.44L206.78,83.05L208.73,82.77L210.49,83.64L211.86,85.55L212.70,88.30L212.90,91.60L212.46,95.08L211.41,98.37L209.88,101.11L208.02,103.01L206.05,103.85L204.16,103.56L202.58,102.15L201.46,99.79"/><path d="M203.72,102.70L205.47,102.98L207.31,102.19L209.03,100.43L210.45,97.89L211.42,94.84L211.83,91.61L211.64,88.55L210.87,86.00L209.60,84.23L207.96,83.42"/></g><g style="stroke:#000000;stroke-width:0.353"><path d="M164.36,153.91L168.29,152.95L172.41,153.68L176.23,156.03L179.28,159.69L181.20,164.25L181.77,169.15L181.01,173.51L181.24,174.38L181.05,177.60L185.25,178.34L216.25,182.13L220.00,178.35L224.45,51.49L223.34,48.29L221.00,46.37L118.55,28.09L87.31,49.97L82.77,54.25L79.23,155.02L83.45,160.18L87.39,160.89L94.77,161.91L104.19,163.59"/><path d="M87.48,140.19L91.41,139.23L95.53,139.96L99.35,142.31L102.40,145.98L104.32,150.54L104.89,155.43L104.13,159.80L104.36,160.67L104.17,163.88L164.27,174.60L171.65,175.63L181.07,177.31"/><path d="M98.88,143.41L100.14,143.26"/><path d="M101.67,76.18L104.94,73.64L107.15,69.82L108.05,65.18L107.60,60.60L108.15,54.36L108.04,53.67L110.94,49.67"/><path d="M104.41,158.19L102.63,158.78"/><path d="M102.04,53.04L104.17,52.78L106.32,53.38L108.12,54.65"/><path d="M105.80,68.40L107.54,67.82"/><path d="M175.76,157.13L177.02,156.98"/><path d="M178.55,89.89L181.82,87.35L184.03,83.53L184.93,78.90L184.48,74.32L185.03,68.08L184.92,67.38L187.83,63.38"/><path d="M178.92,66.75L181.05,66.50L183.20,67.10L185.00,68.37"/><path d="M179.51,172.49L181.28,171.92"/><path d="M182.68,82.12L184.42,81.54"/><path d="M201.88,155.21L200.41,153.90L199.60,152.19"/><path d="M202.99,136.95L201.27,139.30L199.97,142.36L199.22,145.79L199.09,149.22L199.62,152.29"/><path d="M201.46,99.79L200.94,96.72L200.97,95.77L201.06,93.28L201.81,89.85L203.11,86.80L204.84,84.44"/><path d="M203.72,102.70L202.25,101.40L201.44,99.69"/><path d="M202.73,137.31L204.31,136.18L206.12,135.92"/><path d="M207.96,83.42L206.15,83.68L204.57,84.81"/></g></g><g id="Actor_.1"><g style="stroke:#000000;stroke-width:0.353"><path d="M49.70,54.11L47.69,54.68L45.75,56.38L44.09,59.01L42.88,62.29L42.26,65.86L42.30,69.35L42.53,70.38L42.98,72.36L44.24,74.58L45.95,75.76"/><path d="M46.42,73.61L45.06,72.67L44.05,70.89L43.50,68.48L43.47,65.69L43.66,64.62L43.97,62.83L44.93,60.21L46.26,58.10L47.81,56.75L49.42,56.29"/><path d="M54.93,57.26L53.32,57.72L51.77,59.08L50.46,61.15L50.44,61.18L49.47,63.81L48.98,66.67L49.01,69.46L49.56,71.87L50.56,73.64L51.93,74.59"/><path d="M52.40,72.44L53.57,72.45L54.77,71.76L55.87,70.44L55.90,70.38L56.74,68.65L57.30,66.56L57.47,64.41L57.25,62.44L57.21,62.31L56.66,60.84L55.76,59.81L54.65,59.45"/></g><g style="stroke:#000000;stroke-width:0.353"><path d="M50.19,74.28L49.90,74.63L47.90,75.78L45.95,75.76L33.09,73.49L31.39,72.31L30.13,70.09L29.44,67.07L29.41,63.59L30.03,60.01L31.24,56.73L32.90,54.10L34.84,52.41L36.84,51.83L49.70,54.11L51.55,54.72L53.05,56.44L53.25,56.97"/><path d="M46.42,73.61L51.93,74.59L53.49,74.60L55.09,73.68L56.55,71.93L57.72,69.53L58.46,66.75L58.69,63.89L58.65,63.46L58.40,61.25L57.61,59.13L56.41,57.75L54.93,57.26L49.42,56.29"/><path d="M52.40,72.44L51.38,71.73L50.62,70.40L50.21,68.59L50.19,66.50L50.56,64.35L51.28,62.38L52.28,60.81L53.44,59.79L54.65,59.45"/></g></g><g id="Actor_.2"><g style="stroke:#000000;stroke-width:0.353"><path d="M45.14,128.42L43.28,127.86L41.76,126.18L40.75,123.56L40.36,120.28L40.63,116.71L41.53,113.22L42.97,110.20L44.78,107.97L45.07,107.80L46.78,106.78L48.74,106.75"/><path d="M48.29,108.90L46.72,108.92L45.12,109.88L43.67,111.66L42.52,114.08L41.79,116.87L41.58,119.73L41.61,120.00L41.89,122.35L42.70,124.45L43.91,125.79L45.40,126.24"/><path d="M53.80,109.88L52.23,109.90L50.63,110.85L49.18,112.64L48.42,114.23L48.03,115.05L47.30,117.84L47.09,120.70L47.40,123.32L48.21,125.42L49.42,126.77L50.91,127.22"/><path d="M51.18,125.04L52.38,124.67L53.54,123.63L54.32,122.38L54.53,122.03L55.24,120.05L55.60,117.90L55.56,115.82L55.14,114.02L54.37,112.71L53.34,112.03"/></g><g style="stroke:#000000;stroke-width:0.353"><path d="M48.31,126.76L47.15,127.81L45.14,128.42L32.29,126.15L30.42,125.59L28.90,123.90L27.89,121.28L27.50,118.01L27.78,114.43L28.68,110.94L30.12,107.92L31.93,105.70L33.93,104.50L35.89,104.47L48.74,106.75L50.46,107.89L51.38,109.45"/><path d="M48.29,108.90L53.80,109.88L55.17,110.79L56.19,112.53L56.76,114.93L56.81,117.70L56.63,118.80L56.33,120.57L55.38,123.21L54.06,125.34L52.52,126.72L50.91,127.22L45.40,126.24"/><path d="M51.18,125.04L50.06,124.70L49.15,123.69L49.06,123.46L48.54,122.12L48.31,120.15L48.47,118.01L49.01,115.91L49.87,114.10L50.71,113.08L50.96,112.76L52.16,112.05L53.34,112.03"/></g></g><g id="Actor_.3"><g style="stroke:#000000;stroke-width:0.353"><path d="M267.39,115.24L265.51,114.62L263.99,112.90L262.98,110.24L262.65,107.31L262.61,106.95L262.91,103.37L263.85,99.89L264.17,99.23L265.32,96.90L267.17,94.71L269.20,93.57L271.18,93.59"/><path d="M267.96,110.88L269.18,110.53L270.36,109.52L271.37,107.94L272.10,105.98L272.47,103.85L272.45,101.74L272.04,99.93L271.27,98.60L270.23,97.89"/></g><g style="stroke:#000000;stroke-width:0.353"><path d="M251.01,110.06L249.43,109.77L247.92,109.28L246.70,107.90L245.90,105.78L245.60,103.14L245.84,100.28L246.59,97.50L247.31,96.04L247.77,95.10L249.25,93.35L250.87,92.44L252.46,92.46L254.11,92.75"/><path d="M250.76,109.41L250.21,107.94L249.84,104.65L250.14,101.07L251.07,97.60L252.54,94.62L254.40,92.42L256.43,91.27L258.41,91.29L271.18,93.59L272.91,94.78L274.19,97.00L274.89,100.01L274.93,103.50L274.66,105.00L274.30,107.07L273.08,110.35L271.39,112.98L269.42,114.67L267.39,115.24L254.62,112.94L252.74,112.33L251.21,110.60L250.76,109.41"/><path d="M270.23,97.89L269.04,97.87L267.82,98.56L266.95,99.59L266.71,99.87L265.83,101.67L265.27,103.75L265.09,105.90L265.31,107.88L265.91,109.47L266.83,110.51L267.96,110.88"/></g></g><g id="Actor_.4"><g style="stroke:#000000;stroke-width:0.353"><path d="M268.29,145.94L266.26,146.55L264.96,147.69L264.30,148.28L262.63,150.94L261.43,154.23L260.82,157.81L260.89,161.28L261.61,164.28L262.91,166.46L264.65,167.60"/><path d="M265.57,163.30L266.77,163.28L267.98,162.57L269.09,161.24L269.50,160.38L269.96,159.43L270.51,157.34L270.67,155.19L270.43,153.22L269.82,151.65L268.89,150.64L267.76,150.30"/></g><g style="stroke:#000000;stroke-width:0.353"><path d="M249.20,162.59L246.86,162.17L245.47,161.25L244.43,159.51L243.85,157.11L243.80,154.33L244.29,151.47L245.25,148.83L246.15,147.39L246.58,146.71L248.15,145.32L249.78,144.83L252.31,145.29"/><path d="M248.45,160.38L248.11,158.99L248.05,155.51L248.65,151.93L249.85,148.64L250.77,147.18L251.53,145.98L253.48,144.25L255.52,143.64L268.29,145.94L270.18,146.50L271.73,148.19L272.75,150.81L273.15,154.09L272.88,157.67L272.16,160.38L271.96,161.15L270.50,164.17L268.66,166.39L266.64,167.58L264.65,167.60L251.88,165.31L250.14,164.16L248.84,161.98L248.45,160.38"/><path d="M267.76,150.30L266.54,150.66L265.36,151.70L264.36,153.30L263.64,155.27L263.56,155.77L263.28,157.42L263.32,159.51L263.75,161.30L264.53,162.61L265.57,163.30"/></g></g><g><g><path style="stroke:#000000;stroke-width:0.200;stroke-dasharray:3.0 2.0 1.0 2.0" d="M105.29,128.06L42.76,116.93"/></g><g><path style="fill:#000000" d="M105.79,128.06L105.79,128.02L105.78,127.97L105.77,127.92L105.75,127.87L105.73,127.83L105.70,127.79L105.67,127.75L105.64,127.71L105.61,127.68L105.57,127.65L105.52,127.62L105.48,127.60L105.43,127.59L105.39,127.57L105.34,127.57L105.29,127.56L105.24,127.57L105.19,127.57L105.14,127.59L105.10,127.60L105.05,127.62L105.01,127.65L104.97,127.68L104.93,127.71L104.90,127.75L104.87,127.79L104.85,127.83L104.83,127.87L104.81,127.92L104.80,127.97L104.79,128.02L104.79,128.06L104.79,128.11L104.80,128.16L104.81,128.21L104.83,128.26L104.85,128.30L104.87,128.34L104.90,128.38L104.93,128.42L104.97,128.45L105.01,128.48L105.05,128.51L105.10,128.53L105.14,128.54L105.19,128.56L105.24,128.56L105.29,128.56L105.34,128.56L105.39,128.56L105.43,128.54L105.48,128.53L105.52,128.51L105.57,128.48L105.61,128.45L105.64,128.42L105.67,128.38L105.70,128.34L105.73,128.30L105.75,128.26L105.77,128.21L105.78,128.16L105.79,128.11z"/></g><g><path style="fill:#000000" d="M43.26,116.93L43.25,116.88L43.25,116.83L43.23,116.78L43.22,116.74L43.20,116.69L43.17,116.65L43.14,116.61L43.11,116.57L43.07,116.54L43.03,116.51L42.99,116.49L42.95,116.47L42.90,116.45L42.85,116.44L42.81,116.43L42.76,116.43L42.71,116.43L42.66,116.44L42.61,116.45L42.56,116.47L42.52,116.49L42.48,116.51L42.44,116.54L42.40,116.57L42.37,116.61L42.34,116.65L42.32,116.69L42.29,116.74L42.28,116.78L42.27,116.83L42.26,116.88L42.26,116.93L42.26,116.98L42.27,117.03L42.28,117.07L42.29,117.12L42.32,117.16L42.34,117.21L42.37,117.25L42.40,117.28L42.44,117.31L42.48,117.34L42.52,117.37L42.56,117.39L42.61,117.41L42.66,117.42L42.71,117.43L42.76,117.43L42.81,117.43L42.85,117.42L42.90,117.41L42.95,117.39L42.99,117.37L43.03,117.34L43.07,117.31L43.11,117.28L43.14,117.25L43.17,117.21L43.20,117.16L43.22,117.12L43.23,117.07L43.25,117.03L43.25,116.98z"/></g></g><g><g><path style="stroke:#000000;stroke-width:0.200;stroke-dasharray:3.0 2.0 1.0 2.0" d="M107.13,75.46L44.60,64.32"/></g><g><path style="fill:#000000" d="M107.63,75.46L107.63,75.41L107.62,75.36L107.61,75.31L107.59,75.27L107.57,75.22L107.55,75.18L107.52,75.14L107.49,75.11L107.45,75.07L107.41,75.04L107.37,75.02L107.32,75.00L107.28,74.98L107.23,74.97L107.18,74.96L107.13,74.96L107.08,74.96L107.03,74.97L106.99,74.98L106.94,75.00L106.90,75.02L106.85,75.04L106.82,75.07L106.78,75.11L106.75,75.14L106.72,75.18L106.69,75.22L106.67,75.27L106.65,75.31L106.64,75.36L106.63,75.41L106.63,75.46L106.63,75.51L106.64,75.56L106.65,75.61L106.67,75.65L106.69,75.70L106.72,75.74L106.75,75.78L106.78,75.81L106.82,75.85L106.85,75.88L106.90,75.90L106.94,75.92L106.99,75.94L107.03,75.95L107.08,75.96L107.13,75.96L107.18,75.96L107.23,75.95L107.28,75.94L107.32,75.92L107.37,75.90L107.41,75.88L107.45,75.85L107.49,75.81L107.52,75.78L107.55,75.74L107.57,75.70L107.59,75.65L107.61,75.61L107.62,75.56L107.63,75.51z"/></g><g><path style="fill:#000000" d="M45.10,64.32L45.10,64.27L45.09,64.23L45.08,64.18L45.06,64.13L45.04,64.09L45.02,64.05L44.99,64.01L44.95,63.97L44.92,63.94L44.88,63.91L44.84,63.88L44.79,63.86L44.75,63.84L44.70,63.83L44.65,63.83L44.60,63.82L44.55,63.83L44.50,63.83L44.46,63.84L44.41,63.86L44.36,63.88L44.32,63.91L44.28,63.94L44.25,63.97L44.21,64.01L44.18,64.05L44.16,64.09L44.14,64.13L44.12,64.18L44.11,64.23L44.10,64.27L44.10,64.32L44.10,64.37L44.11,64.42L44.12,64.47L44.14,64.51L44.16,64.56L44.18,64.60L44.21,64.64L44.25,64.68L44.28,64.71L44.32,64.74L44.36,64.76L44.41,64.79L44.46,64.80L44.50,64.81L44.55,64.82L44.60,64.82L44.65,64.82L44.70,64.81L44.75,64.80L44.79,64.79L44.84,64.76L44.88,64.74L44.92,64.71L44.95,64.68L44.99,64.64L45.02,64.60L45.04,64.56L45.06,64.51L45.08,64.47L45.09,64.42L45.10,64.37z"/></g></g><g><g><path style="stroke:#000000;stroke-width:0.200;stroke-dasharray:3.0 2.0 1.0 2.0" d="M195.34,144.00L257.87,155.14"/></g><g><path style="fill:#000000" d="M195.84,144.00L195.83,143.95L195.83,143.90L195.82,143.86L195.80,143.81L195.78,143.77L195.75,143.72L195.72,143.68L195.69,143.65L195.65,143.61L195.61,143.59L195.57,143.56L195.53,143.54L195.48,143.52L195.43,143.51L195.39,143.50L195.34,143.50L195.29,143.50L195.24,143.51L195.19,143.52L195.15,143.54L195.10,143.56L195.06,143.59L195.02,143.61L194.98,143.65L194.95,143.68L194.92,143.72L194.90,143.77L194.88,143.81L194.86,143.86L194.85,143.90L194.84,143.95L194.84,144.00L194.84,144.05L194.85,144.10L194.86,144.15L194.88,144.19L194.90,144.24L194.92,144.28L194.95,144.32L194.98,144.35L195.02,144.39L195.06,144.42L195.10,144.44L195.15,144.46L195.19,144.48L195.24,144.49L195.29,144.50L195.34,144.50L195.39,144.50L195.43,144.49L195.48,144.48L195.53,144.46L195.57,144.44L195.61,144.42L195.65,144.39L195.69,144.35L195.72,144.32L195.75,144.28L195.78,144.24L195.80,144.19L195.82,144.15L195.83,144.10L195.83,144.05z"/></g><g><path style="fill:#000000" d="M258.37,155.14L258.37,155.09L258.36,155.04L258.35,154.99L258.33,154.95L258.31,154.90L258.28,154.86L258.26,154.82L258.22,154.78L258.19,154.75L258.15,154.72L258.10,154.70L258.06,154.68L258.01,154.66L257.97,154.65L257.92,154.64L257.87,154.64L257.82,154.64L257.77,154.65L257.72,154.66L257.68,154.68L257.63,154.70L257.59,154.72L257.55,154.75L257.52,154.78L257.48,154.82L257.45,154.86L257.43,154.90L257.41,154.95L257.39,154.99L257.38,155.04L257.37,155.09L257.37,155.14L257.37,155.19L257.38,155.24L257.39,155.28L257.41,155.33L257.43,155.37L257.45,155.42L257.48,155.46L257.52,155.49L257.55,155.52L257.59,155.55L257.63,155.58L257.68,155.60L257.72,155.62L257.77,155.63L257.82,155.64L257.87,155.64L257.92,155.64L257.97,155.63L258.01,155.62L258.06,155.60L258.10,155.58L258.15,155.55L258.19,155.52L258.22,155.49L258.26,155.46L258.28,155.42L258.31,155.37L258.33,155.33L258.35,155.28L258.36,155.24L258.37,155.19z"/></g></g><g><g><path style="stroke:#000000;stroke-width:0.200;stroke-dasharray:3.0 2.0 1.0 2.0" d="M197.17,91.60L259.71,102.73"/></g><g><path style="fill:#000000" d="M197.67,91.60L197.67,91.55L197.67,91.50L197.65,91.45L197.64,91.41L197.62,91.36L197.59,91.32L197.56,91.28L197.53,91.24L197.49,91.21L197.45,91.18L197.41,91.16L197.37,91.13L197.32,91.12L197.27,91.11L197.22,91.10L197.17,91.10L197.13,91.10L197.08,91.11L197.03,91.12L196.98,91.13L196.94,91.16L196.90,91.18L196.86,91.21L196.82,91.24L196.79,91.28L196.76,91.32L196.73,91.36L196.71,91.41L196.70,91.45L196.68,91.50L196.68,91.55L196.67,91.60L196.68,91.65L196.68,91.69L196.70,91.74L196.71,91.79L196.73,91.83L196.76,91.87L196.79,91.91L196.82,91.95L196.86,91.98L196.90,92.01L196.94,92.04L196.98,92.06L197.03,92.07L197.08,92.09L197.13,92.09L197.17,92.10L197.22,92.09L197.27,92.09L197.32,92.07L197.37,92.06L197.41,92.04L197.45,92.01L197.49,91.98L197.53,91.95L197.56,91.91L197.59,91.87L197.62,91.83L197.64,91.79L197.65,91.74L197.67,91.69L197.67,91.65z"/></g><g><path style="fill:#000000" d="M260.21,102.73L260.20,102.68L260.20,102.64L260.19,102.59L260.17,102.54L260.15,102.50L260.12,102.46L260.09,102.42L260.06,102.38L260.02,102.35L259.98,102.32L259.94,102.29L259.90,102.27L259.85,102.25L259.80,102.24L259.76,102.24L259.71,102.23L259.66,102.24L259.61,102.24L259.56,102.25L259.52,102.27L259.47,102.29L259.43,102.32L259.39,102.35L259.35,102.38L259.32,102.42L259.29,102.46L259.27,102.50L259.24,102.54L259.23,102.59L259.22,102.64L259.21,102.68L259.21,102.73L259.21,102.78L259.22,102.83L259.23,102.88L259.24,102.92L259.27,102.97L259.29,103.01L259.32,103.05L259.35,103.09L259.39,103.12L259.43,103.15L259.47,103.17L259.52,103.20L259.56,103.21L259.61,103.22L259.66,103.23L259.71,103.23L259.76,103.23L259.80,103.22L259.85,103.21L259.90,103.20L259.94,103.17L259.98,103.15L260.02,103.12L260.06,103.09L260.09,103.05L260.12,103.01L260.15,102.97L260.17,102.92L260.19,102.88L260.20,102.83L260.20,102.78z"/></g></g><g/><g id="paperID" visibility="hidden" opacity="0.00" transform="scale(0.000100)"><path style="stroke:#000000;stroke-width:0.500;fill:#e6e6e6;fill-rule:evenodd" d="M-2000.00,-2000.00L2297.00,-2000.00L2297.00,2210.00L-2000.00,2210.00zM0.00,0.00L297.00,0.00L297.00,210.00L0.00,210.00z"/><path style="fill:#000000;fill-opacity:0.118" d="M3.00,210.00L297.00,210.00L297.00,3.00L300.00,3.00L300.00,213.00L3.00,213.00z"/></g><g id="ToolTip" visibility="hidden" opacity="0" transform="translate(0,0)"><rect id="ToolTipShadow" opacity="0.20" fill="black" stroke="none" x="0" y="0" width="30" height="8"/><rect id="ToolTipBG" fill="#ffffe1" stroke="black" x="0" y="0" width="30" height="8"/><text xml:space="preserve" id="ToolTipText" fill="black" x="0" y="0" width="30" height="8">tooltip</text></g></g></svg>