<?xml version="1.0" encoding="UTF-8" standalone="yes"?><svg xmlns="http://www.w3.org/2000/svg" xmlns:xlink="http://www.w3.org/1999/xlink" width="297.000mm" height="210.000mm" viewBox="0.000000 0.000000 297.000000 210.000000" stroke-linejoin="round" stroke-linecap="round" fill="none" fill-rule="evenodd"><desc>Composer Export</desc><script type="text/ecmascript"><![CDATA[
if(typeof(top) != "undefined")
{
	top.ShowPaper = ShowPaper;
}
function ShowHotSpot(evt,hotspotid)
{
	var svgDocument = evt.target.ownerDocument;
	var strId = "hotspot."+hotspotid;
	var hotspot = svgDocument.getElementById(strId);
	if(hotspot)
		hotspot.setAttribute("opacity",".5");
}
function HideHotSpot(evt,hotspotid)
{
	var svgDocument = evt.target.ownerDocument;
	var strId = "hotspot."+hotspotid;
	var hotspot = svgDocument.getElementById(strId);
	if(hotspot)
		hotspot.setAttribute("opacity","0");

	var toolTip = svgDocument.getElementById('ToolTip');
	if(toolTip)
		toolTip.setAttribute("visibility","hidden");
}
function ShowToolTip(evt,hotspotid,strTooltip)
{
	if(strTooltip=="")
	return;

	// change text
	var svgDocument = evt.target.ownerDocument;
	var tiptext = svgDocument.getElementById('ToolTipText');
	if( !tiptext )
	return;
	tiptext.firstChild.nodeValue = " " + strTooltip + "  " ;

	// show tooltip before, else some refresh issue

	var toolTip = svgDocument.getElementById('ToolTip');
	if(!toolTip)
	return;

	toolTip.setAttribute("visibility","visible");
	toolTip.setAttribute("opacity",".95");

	// move tooltip
	// get viewbox

	var root = svgDocument.documentElement;
	var vbox = (root.getAttribute("viewBox")).split(' ');
	var x0 = parseFloat(vbox[0]);
	var y0 = parseFloat(vbox[1]);
	var vboxW = parseFloat(vbox[2]);
	var vboxH = parseFloat(vbox[3]);

	// get default width of svg

	var strW = root.getAttribute("width");
	var svgW = parseFloat(strW);
	if(strW.indexOf('mm') != -1)
	svgW *= 3.779;

	var strH = root.getAttribute("height");
	var svgH = parseFloat(strH);
	if(strH.indexOf('mm') != -1)
	svgH *= 3.779;  	// 96 dpi  -> 96/25.4 = 3.779

	// update the viewbox / width / height if svg is embedded in html with zoom fit all
	var realx0 = x0;
	var realy0 = y0;
	var realvboxW = vboxW;
	var realvboxH = vboxH;
	var realsvgW = svgW;
	var realsvgH = svgH;

	if ((typeof(top) == "undefined") || (typeof(top.svgctl1) != "undefined")) // embedded in html
	{
		// get window size in pxl

		svgW = window.innerWidth;
		svgH = window.innerHeight;

		// calculate real viewbox

		realsvgW = svgW;
		realsvgH = svgH;
		if((svgW / svgH) > (vboxW / vboxH))
		{
			realvboxW = (vboxH * svgW) / svgH;
			realvboxH = vboxH;
			realx0 = x0 - (realvboxW - vboxW)/2 ;
		}
		else
		{
			realvboxH = (vboxW * svgH) / svgW;
			realvboxW = vboxW;
			realy0 = y0 - (realvboxH - vboxH)/2 ;
		}
	}

	// get user zoom/pan

	var newScale = root.currentScale;
	var translation = root.currentTranslate;

	// transform pxl to user unit

	var xPos = (((evt.clientX+10- translation.x)/newScale) * realvboxW)/realsvgW  + realx0 ;
	var yPos = (((evt.clientY+5- translation.y)/newScale) * realvboxH)/ realsvgH  + realy0 ;
	var scaleForWidth = ( (1 / newScale) * realvboxH) / realsvgH;

	// move tooltip

	toolTip.setAttribute("transform", "translate(" + xPos + "," + yPos + ")" );

	// resize tooltip

	var fontsize = 12;
	tiptext.setAttribute("font-size",fontsize*scaleForWidth);
	tiptext.setAttribute("y", fontsize*scaleForWidth);
	var tipBG = svgDocument.getElementById('ToolTipBG');
	var outline = tiptext.getBBox();
	if(tipBG)
	{
		tipBG.setAttribute("stroke-width", 1*scaleForWidth);
		tipBG.setAttribute("width", Number(outline.width) );
		tipBG.setAttribute("height", Number(outline.height) + fontsize*.5*scaleForWidth );
	}
	var ToolTipShadow = svgDocument.getElementById('ToolTipShadow');
	if(ToolTipShadow)
	{
		ToolTipShadow.setAttribute("width", Number(outline.width) );
		ToolTipShadow.setAttribute("height", Number(outline.height) + fontsize*.5*scaleForWidth );
		ToolTipShadow.setAttribute("x", 3*scaleForWidth);
		ToolTipShadow.setAttribute("y", 3*scaleForWidth);
	}
}
function ShowPaper()
{
  var svgDocument = getDocument();
  var paper = svgDocument.getElementById("paperID");
  if(paper)
  {
    paper.setAttribute("transform","scale(1)");
    paper.setAttribute("opacity","1");
    paper.setAttribute("visibility","visible");
  }
  var svg = svgDocument.getRootElement();
  if(svg)
  {
    svg.setAttribute("width","307.000mm");
    svg.setAttribute("height","220.000mm");
    svg.setAttribute("viewBox","-5.000000 -5.000000 307.000000 220.000000");
  }
}
]]></script><defs/><g><path style="fill:#ffffff" d="M296.84,209.91L0.05,209.91L0.05,0.05L296.84,0.05z"/><path style="fill:#000020" d="M208.62,203.28L208.51,203.23L208.51,201.49L208.62,201.47z"/><path style="fill:#000020" d="M62.51,203.28L62.40,203.23L62.41,201.49L62.52,201.47z"/><path style="fill:#404040" d="M214.93,9.41L214.94,12.32L214.82,12.41L214.30,12.41L214.18,12.32L214.18,11.20L214.27,10.93L213.99,10.87L213.51,10.91L212.08,12.32L212.08,14.93L213.50,16.39L213.53,16.49L214.09,16.50L214.11,16.39L214.16,15.20L214.47,14.89L214.93,14.92L214.84,18.09L214.36,18.27L214.47,18.41L214.53,159.60L214.94,159.65L214.96,162.83L214.78,163.00L214.27,162.89L206.29,163.04L206.10,163.04L205.57,162.89L109.00,163.04L108.81,163.04L108.28,162.89L50.08,162.88L49.99,162.83L50.03,159.69L80.58,159.61L99.42,159.60L99.43,140.92L99.43,140.76L99.51,18.40L99.92,18.28L99.63,18.19L99.56,18.10L99.52,14.92L100.08,14.92L100.18,15.04L100.18,16.33L100.29,16.39L100.35,16.50L100.91,16.49L100.95,16.39L102.43,14.83L102.43,12.58L101.60,11.58L100.75,10.90L100.30,10.89L100.19,10.91L100.14,12.38L99.63,12.42L99.50,12.32L99.56,9.14L99.95,8.98L102.82,8.98L102.94,9.08L102.93,9.64L101.47,9.72L101.36,9.75L101.36,10.30L101.46,10.34L102.92,11.75L105.54,11.75L106.95,10.31L106.96,9.91L106.78,9.73L105.53,9.66L105.44,9.53L105.48,9.02L108.49,8.99L108.95,9.41L108.95,12.32L108.83,12.41L108.32,12.41L108.20,12.32L108.12,11.07L107.94,10.89L107.54,10.90L106.10,12.32L106.10,14.93L107.51,16.39L107.55,16.49L108.10,16.50L108.13,16.39L108.18,15.20L108.48,14.89L108.79,14.90L108.96,15.08L108.85,18.09L108.38,18.27L108.48,18.41L108.54,159.60L108.98,159.62L186.56,159.61L205.40,159.60L205.42,140.92L205.42,140.76L205.42,93.78L205.43,74.88L205.41,74.61L109.04,74.51L109.04,69.09L205.41,68.93L109.04,68.82L109.03,65.53L205.40,65.47L205.42,65.37L205.50,18.40L205.90,18.28L205.62,18.19L205.55,18.10L205.50,14.92L206.07,14.92L206.16,15.04L206.17,16.33L206.28,16.39L206.34,16.50L206.89,16.49L206.93,16.39L208.41,14.83L208.41,12.58L207.58,11.58L206.74,10.90L206.29,10.89L206.18,10.91L206.12,12.38L205.61,12.42L205.49,12.32L205.55,9.14L205.94,8.98L208.93,9.02L208.91,9.65L207.50,9.75L207.57,10.42L208.91,11.75L211.52,11.75L212.93,10.32L212.93,9.75L211.52,9.66L211.42,9.53L211.46,9.02L214.48,8.99z"/><path style="fill:#404040" d="M209.84,163.39L214.95,163.32L214.95,165.50L210.59,165.40L50.02,165.50L50.01,163.32L104.36,163.39L199.09,163.20L199.27,163.20z"/><path style="fill:#333333" d="M109.03,65.36L109.03,65.53L109.04,68.82L205.41,68.93L109.04,69.09L109.04,74.51L205.41,74.61L205.43,74.88L186.56,74.93L127.72,74.92L109.04,74.94L109.03,93.78L108.98,159.62L108.54,159.60L108.48,18.41L108.95,18.39z"/><path style="fill:#fff2e8" d="M210.70,197.99L210.70,201.37L210.89,201.51L210.96,203.24L208.62,203.28L208.62,201.47L209.13,201.40L209.24,201.38L209.29,197.75L210.97,197.75z"/><path style="fill:#fff2e8" d="M65.00,197.90L64.58,197.98L64.60,201.37L64.79,201.51L64.86,203.24L62.51,203.28L62.52,201.47L63.14,201.39L63.23,197.81L63.35,197.72L65.04,197.75z"/><path style="fill:#000020" d="M101.46,17.56L101.35,17.50L101.37,16.95L101.46,16.91z"/><path style="fill:#000020" d="M208.80,17.68L207.51,17.66L207.48,17.56L208.58,17.50L208.74,16.71z"/><path style="fill:#000020" d="M102.81,17.68L101.52,17.67L101.46,17.56L102.59,17.51L102.76,16.71z"/><path style="fill:#000020" d="M210.13,18.36L208.95,18.42L208.83,18.39L208.96,18.17L210.13,18.23z"/><path style="fill:#000020" d="M104.15,18.36L102.96,18.42L102.79,18.41L102.69,18.27L102.96,18.17L104.15,18.23z"/><path style="fill:#000020" d="M214.75,163.09L214.78,163.00L214.96,162.83L214.95,163.32L209.84,163.39L199.27,163.20L206.10,163.04L206.29,163.04z"/><path style="fill:#000020" d="M199.09,163.20L104.36,163.39L50.01,163.32L50.01,163.15L108.81,163.04L109.00,163.04z"/><path style="fill:#000019" d="M210.64,18.36L210.13,18.36L210.13,18.23L210.59,18.23z"/><path style="fill:#000019" d="M104.65,18.36L104.15,18.36L104.15,18.23L104.61,18.23z"/><path style="fill:#ccc1ba" d="M211.17,199.76L211.19,201.38L211.30,201.40L211.81,201.47L211.81,203.28L210.96,203.24L210.89,201.51L210.70,201.37L210.70,197.99L210.97,197.75L211.09,197.82z"/><path style="fill:#ccc1ba" d="M65.08,201.39L65.19,201.41L65.82,201.49L65.85,203.13L64.86,203.24L64.79,201.51L64.60,201.37L64.58,197.98L65.00,197.90z"/><path style="fill:#7c7c7c" d="M127.75,75.90L110.05,93.67L109.03,93.78L109.04,74.94L127.72,74.92z"/><path style="fill:#ffffff" d="M211.27,12.75L211.26,14.65L210.64,14.68L209.87,14.61L209.79,14.71L209.28,14.75L209.16,14.65L209.23,12.63L209.57,12.58L209.76,12.75L210.67,12.76L211.08,12.56z"/><path style="fill:#ffffff" d="M105.29,12.75L105.04,13.93L105.30,14.49L105.13,14.73L104.65,14.71L104.58,14.61L103.88,14.61L103.81,14.71L103.16,14.72L103.08,14.55L103.26,14.02L103.25,12.63L103.59,12.58L103.77,12.75L104.68,12.76L105.10,12.56z"/><path style="fill:#ffffff" d="M212.93,16.93L212.95,17.56L211.52,17.60L211.46,17.71L211.22,18.17L210.86,18.19L210.75,16.76L210.68,16.71L210.46,16.54L210.42,16.44L208.96,16.50L208.74,16.71L208.58,17.50L207.48,17.56L207.57,16.83L208.96,15.51L211.61,15.54z"/><path style="fill:#ffffff" d="M106.94,16.93L106.96,17.56L105.53,17.60L105.48,17.71L105.24,18.17L104.88,18.19L104.77,16.76L104.70,16.71L104.48,16.54L104.44,16.44L102.97,16.50L102.76,16.71L102.59,17.51L101.46,17.56L101.46,16.91L102.97,15.51L105.62,15.54z"/><path style="fill:#ffffff" d="M186.67,75.95L204.39,93.67L205.42,93.78L205.42,140.76L204.44,140.89L186.67,158.59L186.56,159.61L108.98,159.62L109.03,93.78L110.05,93.67L127.75,75.90L127.93,75.11L186.52,75.05z"/><path style="fill:#333333" d="M214.94,159.65L214.53,159.60L214.47,18.41L214.94,18.39z"/><path style="fill:#333333" d="M208.90,159.77L208.83,18.39L208.95,18.42z"/><path style="fill:#333333" d="M102.92,159.77L102.79,18.41L102.96,18.42z"/><path style="fill:#333333" d="M214.78,163.00L214.75,163.09L206.29,163.04L214.27,162.89z"/><path style="fill:#333333" d="M206.10,163.04L199.27,163.20L199.09,163.20L109.00,163.04L205.57,162.89z"/><path style="fill:#333333" d="M108.81,163.04L50.01,163.15L49.99,162.83L50.08,162.88L108.28,162.89z"/><path style="fill:#333333" d="M214.95,168.68L214.94,169.12L50.02,169.12L50.01,168.68L205.57,168.58z"/><path style="fill:#fff2e8" d="M208.80,17.68L208.74,16.71L208.96,16.50L210.46,16.54L210.20,16.78L210.13,18.23L208.96,18.17z"/><path style="fill:#fff2e8" d="M102.81,17.68L102.76,16.71L102.97,16.50L104.48,16.54L104.22,16.78L104.15,18.23L102.96,18.17z"/><path style="fill:#000020" d="M214.48,8.99L211.46,9.02L211.52,8.91z"/><path style="fill:#000020" d="M208.93,9.02L205.94,8.98L208.91,8.92z"/><path style="fill:#000020" d="M108.49,8.99L105.48,9.02L105.53,8.91z"/><path style="fill:#000020" d="M211.42,9.53L211.34,9.09L211.46,9.02z"/><path style="fill:#000020" d="M105.44,9.53L105.36,9.09L105.48,9.02z"/><path style="fill:#000020" d="M101.46,10.34L101.36,10.30L101.36,9.75L101.47,9.72z"/><path style="fill:#000020" d="M213.99,10.87L214.27,10.93L214.18,11.20z"/><path style="fill:#000020" d="M206.24,12.32L206.12,12.38L206.18,10.91L206.29,10.89z"/><path style="fill:#000020" d="M100.25,12.32L100.14,12.38L100.19,10.91L100.30,10.89z"/><path style="fill:#000020" d="M214.76,12.50L214.30,12.41L214.82,12.41z"/><path style="fill:#000020" d="M206.06,12.50L205.61,12.42L206.12,12.38z"/><path style="fill:#000020" d="M108.77,12.50L108.32,12.41L108.83,12.41z"/><path style="fill:#000020" d="M100.07,12.50L99.63,12.42L100.14,12.38z"/><path style="fill:#000020" d="M103.08,14.55L103.04,14.11L103.26,14.02z"/><path style="fill:#000020" d="M210.64,14.68L209.79,14.71L209.87,14.61z"/><path style="fill:#000020" d="M104.65,14.71L103.81,14.71L103.88,14.61L104.58,14.61z"/><path style="fill:#000020" d="M209.71,14.82L209.28,14.75L209.79,14.71z"/><path style="fill:#000020" d="M105.08,14.83L104.65,14.71L105.13,14.73z"/><path style="fill:#000020" d="M103.74,14.81L103.20,14.83L103.16,14.72L103.81,14.71z"/><path style="fill:#000020" d="M214.16,15.20L214.19,14.93L214.47,14.89z"/><path style="fill:#000020" d="M108.18,15.20L108.21,14.93L108.48,14.89z"/><path style="fill:#000020" d="M211.61,15.54L208.96,15.51L211.57,15.44z"/><path style="fill:#000020" d="M105.62,15.54L102.97,15.51L105.59,15.44z"/><path style="fill:#000020" d="M206.28,16.39L206.17,16.33L206.16,15.04L206.24,15.09z"/><path style="fill:#000020" d="M100.29,16.39L100.18,16.33L100.18,15.04L100.25,15.09z"/><path style="fill:#000020" d="M214.09,16.50L213.53,16.49L213.50,16.39L214.11,16.39z"/><path style="fill:#000020" d="M210.46,16.54L208.96,16.50L210.42,16.44z"/><path style="fill:#000020" d="M206.89,16.49L206.34,16.50L206.28,16.39L206.93,16.39z"/><path style="fill:#000020" d="M108.10,16.50L107.55,16.49L107.51,16.39L108.13,16.39z"/><path style="fill:#000020" d="M104.48,16.54L102.97,16.50L104.44,16.44z"/><path style="fill:#000020" d="M100.91,16.49L100.35,16.50L100.29,16.39L100.95,16.39z"/><path style="fill:#000020" d="M212.92,17.66L211.46,17.71L211.52,17.60L212.95,17.56z"/><path style="fill:#000020" d="M106.94,17.66L105.48,17.71L105.53,17.60L106.96,17.56z"/><path style="fill:#000020" d="M214.94,18.39L214.47,18.41L214.36,18.27L214.84,18.09z"/><path style="fill:#000020" d="M210.86,18.19L211.22,18.17L211.46,17.71L211.41,159.60L211.25,18.44L210.64,18.36L210.59,18.23L210.68,16.71L210.75,16.76z"/><path style="fill:#000020" d="M108.95,18.39L108.48,18.41L108.38,18.27L108.85,18.09z"/><path style="fill:#000020" d="M104.88,18.19L105.24,18.17L105.48,17.71L105.43,159.60L105.27,18.44L104.65,18.36L104.61,18.23L104.70,16.71L104.77,16.76z"/><path style="fill:#000020" d="M205.50,18.40L205.62,18.19L205.90,18.28z"/><path style="fill:#000020" d="M99.51,18.40L99.63,18.19L99.92,18.28z"/><path style="fill:#000020" d="M205.40,65.47L109.03,65.53L109.03,65.36L205.42,65.37z"/><path style="fill:#000020" d="M186.52,75.05L127.93,75.11L127.75,75.90L127.72,74.92L186.56,74.93z"/><path style="fill:#000020" d="M205.42,140.92L204.44,140.89L205.42,140.76z"/><path style="fill:#000020" d="M99.43,140.92L98.46,140.89L99.43,140.76z"/><path style="fill:#000020" d="M214.95,165.50L214.94,165.66L214.36,165.73L50.02,165.66L50.02,165.50L210.59,165.40z"/><path style="fill:#000020" d="M210.97,197.75L209.29,197.75L209.34,197.64L210.93,197.65z"/><path style="fill:#000020" d="M65.04,197.75L63.35,197.72L64.99,197.64z"/><path style="fill:#000020" d="M211.30,201.40L211.19,201.38L211.17,199.76L211.24,199.82z"/><path style="fill:#000020" d="M209.24,201.38L209.13,201.40L209.18,197.81L209.29,197.75z"/><path style="fill:#000020" d="M65.19,201.41L65.08,201.39L65.00,197.90L65.04,197.75L65.15,197.81z"/><path style="fill:#000020" d="M211.92,203.23L211.81,203.28L211.81,201.47L211.91,201.49z"/><path style="fill:#000020" d="M211.75,203.39L208.67,203.39L208.62,203.28L210.96,203.24L211.81,203.28z"/><path style="fill:#000020" d="M65.82,203.39L62.57,203.39L62.51,203.28L64.86,203.24L65.85,203.13z"/><path style="fill:#ccc1ba" d="M210.68,16.71L210.59,18.23L210.13,18.23L210.20,16.78L210.46,16.54z"/><path style="fill:#ccc1ba" d="M104.70,16.71L104.61,18.23L104.15,18.23L104.22,16.78L104.48,16.54z"/><path style="fill:#7c7c7c" d="M186.52,75.05L186.56,74.93L205.43,74.88L205.42,93.78L204.39,93.67L186.67,75.95z"/><path style="fill:#7c7c7c" d="M205.40,159.60L186.56,159.61L186.67,158.59L204.44,140.89L205.42,140.92z"/><path style="fill:#7c7c7c" d="M99.42,159.60L80.58,159.61L80.69,158.59L98.46,140.89L99.43,140.92z"/><path style="fill:#404040" d="M214.36,165.73L214.94,165.66L214.95,168.68L205.57,168.58L50.01,168.68L50.02,165.66z"/><g id="Actor_1.0"><g style="stroke:#000000;stroke-width:0.353"><path d="M59.49,183.57L214.97,183.57L214.97,182.16L59.49,182.16L59.49,183.57L59.49,182.22"/><path d="M59.49,182.16L59.49,183.57L59.49,182.16"/></g></g><g id="Actor_4.0"><g style="stroke:#000000;stroke-width:0.353"><path d="M102.84,16.68L103.86,16.68L104.71,16.68"/></g><g style="stroke:#000000;stroke-width:0.353"><path d="M102.85,18.38L102.85,18.37"/><path d="M102.84,17.69L102.84,16.68L102.84,16.83"/><path d="M102.84,16.68L103.02,16.50L104.53,16.50L104.56,16.53L104.56,16.53"/><path d="M104.71,17.80L104.71,17.78L104.72,18.38"/><path d="M104.71,17.78L104.71,16.68L104.56,16.53"/></g></g><g id="Actor_3.0"><g style="stroke:#000000;stroke-width:0.353"><path d="M50.07,168.92L50.07,169.16L50.07,168.89L50.07,169.16L50.07,168.89L50.07,169.12L50.07,169.06"/><path d="M50.07,168.55L50.07,168.62L50.07,168.44L50.07,168.89L50.07,167.78L50.07,168.89L50.07,168.21"/><path d="M50.07,168.99L50.07,169.12L50.07,168.89L50.07,169.16L50.07,168.92L50.07,169.12L50.07,168.92L50.07,169.06"/><path d="M214.97,165.85L214.97,165.73L214.97,169.16L50.07,169.16L50.07,168.89L50.07,168.92"/><path d="M50.07,168.46L50.07,167.78L50.07,168.69L50.07,168.62"/><path d="M50.07,167.81L50.07,166.67L50.07,167.20"/><path d="M50.07,168.35L50.07,168.28"/><path d="M50.07,168.40L50.07,168.44"/><path d="M50.07,167.10L50.07,166.67L50.07,168.89L50.07,167.78L50.07,168.89L50.07,167.78L50.07,168.89L50.07,167.78L50.07,168.69"/><path d="M50.07,168.89L50.07,168.35"/><path d="M50.07,168.44L50.07,168.40"/><path d="M50.07,168.46L50.07,168.55"/><path d="M50.07,167.03L50.07,167.78L50.07,167.17"/><path d="M50.07,167.78L50.07,166.67L50.07,167.78"/><path d="M50.07,167.24L50.07,167.75"/><path d="M50.07,167.03L50.07,166.67L50.07,167.78L50.07,167.27"/><path d="M50.07,167.10L50.07,167.17"/><path d="M50.07,165.92L50.07,165.57L50.07,166.67L50.07,165.57L50.07,166.67L50.07,165.57L50.07,166.24"/><path d="M50.07,165.74L50.07,165.57L50.07,166.67L50.07,165.57L50.07,166.67L50.07,165.70L50.07,165.78"/><path d="M50.07,165.92L50.07,166.67L50.07,165.57L50.07,165.70"/><path d="M50.07,165.63L50.07,166.18L50.07,165.57L50.07,166.67"/><path d="M50.07,166.20L50.07,165.60"/><path d="M50.07,165.45L50.07,165.39L50.07,165.57L50.07,164.44L50.07,165.57L50.07,165.35"/><path d="M50.07,165.57L50.07,164.44L50.07,164.93L50.07,164.44L50.07,164.86L50.07,164.72"/><path d="M50.07,165.45L50.07,165.57L50.07,164.76L50.07,164.86L50.07,164.80"/><path d="M50.07,165.57L50.07,164.44L50.07,164.93"/><path d="M50.07,165.70L214.97,165.70L214.97,159.73L211.50,159.73L211.50,18.38L208.86,18.38L208.98,18.29L209.02,18.14L209.01,17.84L208.93,17.72L208.78,17.68L207.68,17.68L207.48,17.58L207.44,17.44L207.44,17.09L207.51,16.92L208.97,15.46L209.08,15.40L209.03,15.42L209.12,15.40"/><path d="M50.07,164.93L50.07,165.25"/><path d="M50.07,163.54L50.07,163.33L50.07,164.44L50.07,163.87L50.07,164.44L50.07,163.96"/><path d="M50.07,164.03L50.07,164.44L50.07,163.33L50.07,163.65"/><path d="M50.07,164.84L50.07,164.76"/><path d="M50.07,164.76L50.07,164.72L50.07,164.86L50.07,164.44L50.07,164.72"/><path d="M50.07,165.13L50.07,164.44L50.07,165.13"/><path d="M50.07,165.25L50.07,165.35"/><path d="M50.07,163.45L50.07,163.50L50.07,162.22L50.07,163.16L50.07,163.04L50.07,163.11"/><path d="M50.07,163.33L50.07,162.22L50.07,162.65"/><path d="M50.07,164.17L50.07,164.09"/><path d="M50.07,163.36L50.07,163.47"/><path d="M50.07,163.76L50.07,164.44L50.07,163.33L50.07,163.76"/><path d="M50.07,163.96L50.07,164.44L50.07,163.33L50.07,164.44L50.07,164.03L50.07,164.06"/><path d="M50.07,163.36L50.07,163.47L50.07,163.33L50.07,163.54"/><path d="M50.07,163.45L50.07,163.50L50.07,163.47"/><path d="M50.07,163.65L50.07,162.65L50.07,163.33L50.07,162.69L50.07,163.30L50.07,162.72"/><path d="M50.07,164.09L50.07,164.17"/><path d="M50.07,163.16L50.07,162.22L50.07,163.33L50.07,163.04L50.07,163.16L50.07,163.11"/><path d="M50.07,163.21L50.07,161.11L50.07,161.72"/><path d="M50.07,163.30L50.07,163.26"/><path d="M50.07,162.97L50.07,162.22L50.07,163.26L50.07,162.69"/><path d="M214.97,163.11L214.97,163.21L50.07,163.21L50.07,162.22L50.07,163.30"/><path d="M50.07,163.26L50.07,161.11L50.07,161.72"/><path d="M50.07,162.22L50.07,161.11L50.07,161.79"/><path d="M50.07,161.69L50.07,161.11L50.07,161.63"/><path d="M50.07,161.86L50.07,160.00L50.07,160.45"/><path d="M50.07,162.22L50.07,161.11L50.07,161.79"/><path d="M50.07,161.86L50.07,161.11L50.07,161.19"/><path d="M50.07,161.14L50.07,160.00L50.07,161.11L50.07,160.00L50.07,161.02L50.07,160.54"/><path d="M50.07,161.09L50.07,161.11L50.07,160.00L50.07,161.11L50.07,160.00L50.07,160.49"/><path d="M50.07,161.11L50.07,160.02L50.07,160.61"/><path d="M50.07,160.49L50.07,160.00L50.07,160.54"/><path d="M50.07,160.39L50.07,160.00L50.07,161.11L50.07,160.22L50.07,160.27"/><path d="M50.07,161.02L50.07,160.00L50.07,160.34"/><path d="M50.07,161.11L50.07,159.75L50.07,160.00"/><path d="M50.07,159.90L50.07,159.78L50.07,159.97L50.07,159.75L50.07,160.00L50.07,159.75L51.17,159.73L80.69,159.73"/><path d="M50.07,160.43L50.07,160.22L50.07,160.45L50.07,160.27"/><path d="M50.07,159.97L50.07,159.78"/><path d="M80.69,159.73L51.17,159.73L50.07,159.75L50.07,159.90"/><path d="M80.09,159.73L105.50,159.73L105.50,18.38L99.54,18.38L99.54,140.89"/><path d="M99.54,159.73L99.54,140.00"/><path d="M99.54,140.89L99.54,18.38"/><path d="M99.54,15.15L99.58,15.01L99.54,15.15L99.54,17.68L99.57,17.89L99.67,18.09L99.83,18.25L99.67,18.09L99.83,18.25L100.02,18.35L99.83,18.25"/><path d="M99.67,18.09L99.57,17.89L99.67,18.09"/><path d="M100.02,18.35L100.24,18.38L100.11,18.38L99.83,18.25"/><path d="M99.57,17.89L99.54,17.68L99.55,17.78"/><path d="M99.54,17.68L99.54,15.56L99.54,16.67"/><path d="M99.54,15.56L99.55,15.08"/><path d="M99.78,14.91L99.70,14.92L99.78,14.91L99.70,14.92L99.58,15.01"/><path d="M99.70,14.92L99.64,14.96L99.70,14.92"/><path d="M99.55,15.08L99.64,14.96"/><path d="M99.78,14.91L100.08,14.92L100.15,14.96L100.23,15.08L100.24,16.26L100.29,16.40L100.48,16.50L100.83,16.50L100.95,16.46L100.83,16.50"/><path d="M99.58,15.01L99.64,14.96"/><path d="M101.00,10.92L100.95,10.88L102.30,12.22L100.95,10.88L100.83,10.85L100.48,10.85L100.34,10.89L100.26,11.01L100.24,12.19L100.20,12.33L100.08,12.42L99.78,12.43L99.64,12.39L99.55,12.27L99.58,12.33L99.54,12.22L99.54,12.19L99.55,12.27"/><path d="M99.70,12.42L99.78,12.43L99.64,12.39"/><path d="M99.58,12.33L99.64,12.39L99.58,12.33"/><path d="M99.64,12.39L99.70,12.42"/><path d="M99.54,12.22L99.54,9.67L99.57,9.45L99.54,9.67L99.54,12.19"/><path d="M99.54,11.11L99.54,10.00"/><path d="M99.57,9.45L99.67,9.25L99.83,9.09L100.02,8.99L99.83,9.09L100.02,8.99L100.24,8.96"/><path d="M99.54,9.67L99.57,9.45L99.67,9.25"/><path d="M100.11,8.98L100.24,8.96L100.02,8.99"/><path d="M99.83,9.09L99.67,9.25L99.57,9.45"/><path d="M99.67,9.25L99.83,9.09"/><path d="M100.89,16.49L100.83,16.50"/><path d="M100.95,16.46L102.34,15.08L101.00,16.43L100.89,16.49"/><path d="M100.95,16.46L101.00,16.43"/><path d="M101.22,11.15L102.46,12.38L102.52,12.48L102.46,12.38"/><path d="M100.95,10.88L100.89,10.85L100.95,10.88"/><path d="M100.89,10.85L100.83,10.85L100.89,10.85"/><path d="M100.24,8.96L102.77,8.96L102.91,9.01L102.97,9.06L103.01,9.20L103.00,9.50L102.91,9.62L102.77,9.67L101.67,9.67L101.59,9.68L101.47,9.76L101.43,9.91L101.43,10.25L101.49,10.42L102.95,11.88L103.06,11.94L105.37,11.95L105.44,11.94L105.37,11.95"/><path d="M105.54,15.46L105.50,15.43L106.75,16.67L105.54,15.46L105.44,15.40L105.37,15.40L105.44,15.40L103.13,15.40L102.95,15.46L101.49,16.92L101.43,17.03L101.43,17.44L101.44,17.51L101.52,17.63L101.67,17.68L102.77,17.68L102.97,17.78L103.01,17.92L103.00,18.22L102.85,18.38"/><path d="M102.34,15.08L102.49,14.92L102.53,14.80L102.49,14.92"/><path d="M101.87,15.56L102.49,14.92L102.46,14.97"/><path d="M102.30,12.22L102.49,12.43"/><path d="M103.01,159.73L103.01,18.38"/><path d="M102.97,159.73L102.85,159.73"/><path d="M102.53,14.80L102.53,12.55L102.49,12.43"/><path d="M102.52,14.86L102.49,14.92"/><path d="M102.52,14.86L102.53,12.55L102.53,13.33"/><path d="M105.05,12.49L104.94,12.48L105.16,12.52L104.94,12.48L104.83,12.52L104.64,12.70L104.53,12.72L104.57,12.73L104.25,12.69L104.53,12.72L104.25,12.69L103.93,12.73L103.86,12.70L103.76,12.58L103.67,12.52L103.56,12.48L103.67,12.52L103.45,12.49L103.25,12.59L103.10,12.76L103.06,12.98L103.09,13.09L103.31,13.35L103.26,13.67L103.31,13.99L103.09,14.25L103.06,14.36L103.10,14.58L103.25,14.75L103.45,14.86L103.67,14.83L103.86,14.64L103.93,14.61L104.25,14.66L104.53,14.62L104.56,14.61L104.25,14.66"/><path d="M102.52,12.48L102.53,12.55L102.52,12.48"/><path d="M105.50,159.73L104.56,159.73L108.96,159.73L108.96,74.44L108.96,74.79L108.96,74.60"/><path d="M103.93,14.61L103.86,14.64L103.90,14.62"/><path d="M104.56,14.61L104.25,14.66"/><path d="M104.56,14.61L104.64,14.64L104.83,14.83L104.94,14.86L105.16,14.82L105.33,14.67L105.25,14.75L105.16,14.82"/><path d="M103.86,14.64L103.83,14.67L103.76,14.76"/><path d="M103.56,14.86L103.67,14.83L103.56,14.86"/><path d="M103.67,14.83L103.76,14.76L103.86,14.64"/><path d="M103.67,14.83L103.76,14.76"/><path d="M103.90,14.62L103.93,14.61"/><path d="M103.83,12.67L103.76,12.58L103.86,12.70L103.83,12.67"/><path d="M103.86,12.70L103.90,12.72L103.86,12.70"/><path d="M103.76,12.58L103.67,12.52"/><path d="M103.90,12.72L103.93,12.73L103.90,12.72"/><path d="M103.67,12.52L103.76,12.58"/><path d="M105.50,18.38L105.67,18.38L105.53,18.29L105.59,18.34L105.50,18.22L105.49,18.14L105.49,17.92L105.53,17.78L105.49,17.92L105.50,17.84"/><path d="M105.59,18.34L105.73,18.38L105.67,18.38L108.96,18.38L108.96,74.44L108.96,73.88"/><path d="M105.50,18.22L105.49,17.92"/><path d="M105.53,18.29L105.49,18.14"/><path d="M105.53,18.29L105.50,18.22"/><path d="M105.59,18.34L105.67,18.37"/><path d="M105.53,17.78L105.59,17.72L105.50,17.84"/><path d="M105.49,17.92L105.49,18.14"/><path d="M105.73,17.68L105.59,17.72L105.53,17.78"/><path d="M105.65,17.69L105.73,17.68L105.59,17.72"/><path d="M105.59,17.72L105.65,17.69"/><path d="M105.67,15.60L107.00,16.92L107.04,16.98L106.75,16.67"/><path d="M105.50,15.43L105.44,15.40"/><path d="M105.40,14.25L105.34,14.16L105.44,14.36L105.44,14.47L105.40,14.58L105.33,14.67L105.40,14.58L105.44,14.36L105.34,14.16L105.20,14.03L105.24,13.67L105.19,13.35L105.20,13.39L105.24,13.67"/><path d="M105.05,14.86L105.16,14.82L104.94,14.86"/><path d="M105.16,14.82L105.40,14.58"/><path d="M105.05,14.86L104.94,14.86"/><path d="M105.44,14.44L105.44,14.36"/><path d="M105.44,14.47L105.40,14.58"/><path d="M105.44,15.40L105.50,15.43"/><path d="M105.19,13.99L105.22,14.06L105.20,14.03"/><path d="M105.19,13.35L105.22,13.28L105.19,13.35L105.24,13.67L105.20,13.95L105.19,13.99L105.24,13.67"/><path d="M105.34,14.16L105.25,14.09L105.34,14.16"/><path d="M105.22,14.06L105.25,14.09L105.22,14.06"/><path d="M105.40,14.25L105.44,14.36"/><path d="M105.19,13.35L105.20,13.32"/><path d="M105.20,14.03L105.19,13.99"/><path d="M105.33,12.67L105.25,12.59L105.40,12.76L105.16,12.52"/><path d="M105.25,12.59L105.16,12.52L105.25,12.59"/><path d="M105.40,12.76L105.44,12.98L105.40,13.09L105.22,13.28"/><path d="M105.05,12.49L105.16,12.52"/><path d="M105.20,13.32L105.25,13.26L105.34,13.19L105.22,13.28"/><path d="M105.44,12.87L105.40,12.76L105.33,12.67"/><path d="M105.34,13.19L105.40,13.09L105.34,13.19"/><path d="M105.44,12.98L105.44,12.87L105.44,12.98L105.40,13.09"/><path d="M105.40,13.09L105.44,12.98"/><path d="M105.44,12.87L105.40,12.76"/><path d="M105.37,11.95L105.50,11.92L105.44,11.94"/><path d="M105.50,11.92L105.54,11.88L105.50,11.92L106.79,10.64L105.54,11.88"/><path d="M105.50,11.92L105.44,11.94"/><path d="M105.49,9.43L105.53,9.57L105.49,9.43L105.50,9.13L105.53,9.06L105.65,8.97L105.59,9.01L105.73,8.96"/><path d="M105.50,9.50L105.49,9.20"/><path d="M105.50,9.50L105.59,9.62L105.53,9.57"/><path d="M105.59,9.62L105.67,9.66L105.67,9.66L105.53,9.57"/><path d="M105.65,8.97L105.73,8.96L105.65,8.97"/><path d="M105.59,9.01L105.53,9.06L105.59,9.01"/><path d="M105.53,9.06L105.50,9.13L105.53,9.06"/><path d="M105.50,9.13L105.49,9.20L105.50,9.13"/><path d="M105.59,9.62L105.73,9.67"/><path d="M105.67,9.66L106.91,9.68L107.03,9.76L107.06,9.83L107.03,9.76L107.06,9.83L107.07,10.25L107.07,10.31L107.07,9.91L107.07,10.00"/><path d="M105.49,9.20L105.49,9.43"/><path d="M105.73,17.68L106.83,17.68L106.98,17.63L107.06,17.51L107.07,17.44L107.06,17.51L107.07,17.44L107.07,17.09L107.07,17.44L107.07,17.09L107.04,16.98L107.07,17.03L107.04,16.98"/><path d="M108.24,16.33L108.26,16.26L108.26,15.15L108.26,16.26L108.21,16.40L108.24,16.33L108.21,16.40L108.09,16.48L107.61,16.49L107.50,16.43L106.04,14.97L105.97,14.80L105.97,12.55L106.01,12.43L107.55,10.88L107.67,10.85L108.02,10.85L108.16,10.89L108.02,10.85L108.09,10.86"/><path d="M106.79,10.64L107.07,10.31"/><path d="M106.31,11.11L107.04,10.37L107.00,10.42"/><path d="M105.73,8.96L108.26,8.96L108.47,8.99L108.67,9.09L108.83,9.25L108.93,9.45L108.96,9.67L108.96,12.19L108.92,12.33L108.80,12.42L108.42,12.42L108.27,12.27L108.30,12.33L108.27,12.27L108.26,11.09L108.24,11.01L108.26,11.09L108.21,10.94L108.16,10.89"/><path d="M107.06,17.51L107.03,17.58L107.06,17.51"/><path d="M106.98,17.63L106.83,17.68"/><path d="M107.03,17.58L106.91,17.66"/><path d="M106.98,17.63L107.03,17.58"/><path d="M106.91,17.66L106.83,17.68"/><path d="M107.07,17.03L107.07,17.09L107.07,17.03"/><path d="M107.04,16.98L107.00,16.92"/><path d="M107.04,10.37L107.07,10.25"/><path d="M107.07,10.31L107.04,10.37"/><path d="M106.91,9.68L106.83,9.67L106.98,9.71"/><path d="M107.03,9.76L106.98,9.71L107.03,9.76"/><path d="M107.06,9.83L107.07,9.91L107.06,9.83"/><path d="M106.91,9.68L106.98,9.71"/><path d="M186.70,159.73L108.96,159.73"/><path d="M108.96,159.73L186.70,159.73"/><path d="M205.55,140.89L205.55,74.92L108.96,74.92L108.96,74.79"/><path d="M108.96,74.89L108.96,74.76"/><path d="M108.96,73.84L108.96,74.44L108.96,73.91"/><path d="M108.96,74.17L108.96,74.44L108.96,74.27"/><path d="M108.96,74.31L108.96,74.44L108.96,74.42"/><path d="M108.96,74.10L108.96,74.44L108.96,74.14"/><path d="M108.96,74.44L108.96,72.94L108.96,73.33L108.96,72.99"/><path d="M108.96,72.87L108.96,72.80L108.96,73.33L108.96,72.87L108.96,72.94"/><path d="M108.96,72.80L108.96,71.46L108.96,71.55L108.96,71.46L109.01,71.45L205.55,71.46L205.55,68.97L205.55,69.05L205.55,68.97L108.96,68.97L108.96,68.89L108.96,68.97"/><path d="M108.96,71.69L108.96,71.46"/><path d="M108.96,71.55L108.96,71.62"/><path d="M108.96,68.73L108.96,68.89L108.96,66.67L108.96,67.48L108.96,66.67L108.96,66.92"/><path d="M108.96,67.48L108.96,67.55L108.96,66.67L108.96,67.43"/><path d="M108.96,66.67L108.96,65.56L108.96,65.66"/><path d="M108.96,67.63L108.96,67.55"/><path d="M108.96,65.56L108.96,65.50L205.55,65.50L205.55,64.44L205.55,65.11"/><path d="M108.96,65.99L108.96,65.79"/><path d="M108.96,65.63L108.96,65.83"/><path d="M108.26,18.38L108.47,18.35L108.67,18.25L108.83,18.09L108.93,17.89L108.96,17.68L108.95,15.08L108.80,14.92L108.49,14.91L108.35,14.96L108.49,14.91"/><path d="M108.02,16.50L108.09,16.48L108.02,16.50"/><path d="M108.24,16.33L108.26,16.26"/><path d="M108.21,16.40L108.09,16.48"/><path d="M108.16,16.45L108.21,16.40"/><path d="M108.26,15.56L108.26,15.15L108.30,15.01L108.26,15.15"/><path d="M108.16,16.45L108.09,16.48"/><path d="M108.26,15.15L108.27,15.08"/><path d="M108.35,14.96L108.27,15.08"/><path d="M108.42,14.92L108.49,14.91"/><path d="M108.30,15.01L108.42,14.92"/><path d="M108.35,14.96L108.30,15.01"/><path d="M108.30,12.33L108.35,12.39L108.30,12.33"/><path d="M108.35,12.39L108.49,12.43L108.42,12.42"/><path d="M108.27,12.27L108.26,12.19L108.26,12.22"/><path d="M108.42,12.42L108.35,12.39"/><path d="M108.26,12.19L108.26,11.11L108.26,12.19"/><path d="M108.09,10.86L108.21,10.94L108.24,11.01"/><path d="M108.16,10.89L108.21,10.94"/><path d="M108.21,10.94L108.24,11.01"/><path d="M108.26,11.09L108.26,11.11"/><path d="M185.76,159.73L208.98,159.73L208.86,159.73"/><path d="M205.55,159.73L205.55,140.00"/><path d="M205.55,93.77L205.55,140.89"/><path d="M205.55,94.44L205.55,93.77"/><path d="M205.55,74.92L205.55,71.35L205.55,71.55"/><path d="M205.55,68.97L205.55,68.89L205.55,68.97"/><path d="M205.55,68.89L205.55,64.44L205.55,65.50"/><path d="M208.80,18.38L208.86,18.37L208.78,18.38L205.55,18.38L205.55,65.37"/><path d="M205.55,65.50L205.55,64.44L205.55,65.50"/><path d="M205.55,65.37L205.55,64.44L205.55,65.11"/><path d="M205.55,18.38L205.55,64.44"/><path d="M205.65,14.96L205.79,14.91L205.65,14.96L205.55,15.15L205.55,17.68L205.59,17.89L205.69,18.09L205.79,18.19L205.69,18.09L205.59,17.89L205.69,18.09"/><path d="M205.57,17.78L205.55,17.68L205.59,17.89"/><path d="M205.79,18.19L206.04,18.35L206.24,18.38L206.04,18.35L205.84,18.25L206.04,18.35"/><path d="M205.69,18.09L205.84,18.25"/><path d="M205.55,17.68L205.55,15.56L205.55,16.67"/><path d="M205.55,15.56L205.56,15.08L205.55,15.15"/><path d="M205.56,15.08L205.60,15.01L205.72,14.92"/><path d="M205.60,15.01L205.65,14.96"/><path d="M205.72,14.92L205.79,14.91"/><path d="M205.56,15.08L205.60,15.01"/><path d="M205.79,14.91L206.09,14.92L206.16,14.96L206.25,15.08L206.26,16.26L206.30,16.40L206.42,16.48L206.84,16.50L206.90,16.49L206.84,16.50"/><path d="M205.72,12.42L205.65,12.39L205.79,12.43L205.65,12.39L205.55,12.19L205.55,9.67L205.59,9.45L205.69,9.25L205.84,9.09L206.04,8.99L206.26,8.96L206.04,8.99L205.84,9.09"/><path d="M205.65,12.39L205.60,12.33L205.65,12.39"/><path d="M205.60,12.33L205.55,12.19L205.56,12.22"/><path d="M205.72,12.42L206.09,12.42L206.16,12.39L206.25,12.27L206.26,11.09L206.30,10.94L206.42,10.86L206.84,10.85L206.90,10.85L206.84,10.85L206.96,10.88L208.01,11.92L207.01,10.92L206.96,10.88"/><path d="M205.60,12.33L205.56,12.27"/><path d="M205.55,11.11L205.55,10.00L205.55,12.19"/><path d="M205.55,9.67L205.59,9.45L205.69,9.25L205.59,9.45"/><path d="M205.59,9.45L205.55,10.00"/><path d="M205.79,9.15L205.84,9.09L205.69,9.25"/><path d="M206.04,18.35L206.26,18.38"/><path d="M206.84,16.50L207.01,16.43L208.47,14.97L206.96,16.46L207.01,16.43"/><path d="M206.04,8.99L206.26,8.96"/><path d="M206.04,8.99L205.84,9.09"/><path d="M206.26,8.96L208.78,8.96L208.86,8.97L208.80,8.96L208.91,9.00"/><path d="M206.96,16.46L206.90,16.49"/><path d="M206.96,16.46L206.90,16.49"/><path d="M207.20,11.11L208.47,12.38L208.53,12.48L208.51,12.43L208.53,12.48L208.54,14.80L208.51,14.92L208.47,14.97L208.53,14.86"/><path d="M208.80,9.66L208.86,9.65L208.78,9.67L207.60,9.68L207.48,9.76L207.45,9.83L207.44,10.25L207.51,10.42L208.97,11.88L209.08,11.94L209.03,11.92"/><path d="M207.01,10.92L206.90,10.85"/><path d="M206.90,10.85L206.96,10.88"/><path d="M208.98,159.73L210.24,159.73L209.12,159.73"/><path d="M209.01,159.73L209.02,18.89L209.01,18.38L208.93,18.38"/><path d="M208.78,18.38L208.86,18.38"/><path d="M208.85,17.69L208.80,17.68L208.86,17.69"/><path d="M208.01,15.42L208.51,14.92"/><path d="M208.54,14.80L208.53,14.86L208.54,12.55L208.54,13.33"/><path d="M209.08,14.44L209.08,14.36L209.08,14.47L209.12,14.59L209.08,14.44L209.11,14.25L209.29,14.06L209.32,13.99L209.27,13.67L209.32,13.35L209.32,13.35L209.27,13.67"/><path d="M209.08,14.47L209.12,14.59L209.26,14.75L209.12,14.59"/><path d="M209.08,15.40L209.12,15.40L209.08,15.40"/><path d="M208.53,14.86L208.51,14.92"/><path d="M209.12,14.59L209.18,14.67"/><path d="M209.12,14.23L209.17,14.16L209.29,14.06"/><path d="M209.08,14.36L209.11,14.25L209.08,14.36"/><path d="M209.11,14.25L209.17,14.16"/><path d="M208.53,12.48L208.54,12.55L208.53,12.48"/><path d="M208.51,12.43L208.01,11.92"/><path d="M208.47,12.38L208.51,12.43"/><path d="M209.31,14.03L209.29,14.06L209.32,13.99L209.32,13.95L209.27,13.67L209.32,13.39L209.32,13.35L209.29,13.28L209.11,13.09L209.08,12.98L209.11,13.09L209.08,12.87L209.08,12.98"/><path d="M209.12,13.12L209.26,13.26L209.29,13.28L209.17,13.19"/><path d="M209.11,13.09L209.17,13.19"/><path d="M209.08,12.87L209.11,12.76L209.08,12.98"/><path d="M209.08,12.87L209.11,12.76L209.18,12.67L209.36,12.52L209.26,12.59L209.43,12.50"/><path d="M209.11,12.76L209.26,12.59"/><path d="M209.11,12.76L209.18,12.67"/><path d="M209.03,11.92L209.12,11.95L209.08,11.94"/><path d="M209.08,11.94L211.45,11.94L211.56,11.88L213.02,10.42L213.05,10.37L213.09,10.25L213.05,10.37L213.08,10.31"/><path d="M208.86,9.65L208.91,9.63L208.86,9.65L209.01,9.50L209.02,9.20L208.98,9.06L208.86,8.97"/><path d="M208.86,8.97L208.93,9.01"/><path d="M208.86,9.65L208.78,9.67"/><path d="M209.49,14.86L209.57,14.86L209.49,14.86"/><path d="M209.75,14.78L209.87,14.64L209.95,14.61"/><path d="M209.91,14.62L209.95,14.61L209.87,14.64"/><path d="M209.95,14.61L210.26,14.66L210.62,14.62L210.58,14.61L210.68,14.67L210.62,14.62"/><path d="M211.56,15.46L212.46,16.37L211.56,15.46L211.45,15.40L209.12,15.40"/><path d="M209.18,14.67L209.36,14.82L209.57,14.86L209.78,14.76L209.85,14.67L209.91,14.62"/><path d="M209.26,14.75L209.43,14.85L209.36,14.82"/><path d="M209.36,14.82L209.26,14.75"/><path d="M209.87,14.64L209.78,14.76"/><path d="M209.17,14.16L209.29,14.06"/><path d="M209.32,13.99L209.31,14.03"/><path d="M209.32,13.99L209.27,13.67"/><path d="M209.32,13.35L209.29,13.28"/><path d="M209.75,12.56L209.85,12.67L209.87,12.70L209.95,12.73L209.91,12.72L209.95,12.73L210.26,12.69L210.58,12.73L210.65,12.70L210.75,12.58L210.95,12.48"/><path d="M209.91,12.72L209.87,12.70L209.75,12.56"/><path d="M209.78,12.58L209.57,12.48L209.49,12.49L209.57,12.48"/><path d="M209.36,12.52L209.43,12.50"/><path d="M209.87,12.70L209.78,12.58"/><path d="M209.91,12.72L209.87,12.70"/><path d="M209.57,12.48L209.36,12.52"/><path d="M209.26,12.59L209.18,12.67"/><path d="M209.31,13.32L209.29,13.28"/><path d="M211.03,159.73L211.35,159.73L210.24,159.73L211.03,159.73"/><path d="M211.26,14.75L211.17,14.82L211.35,14.67L211.15,14.83"/><path d="M211.35,14.67L211.41,14.58L211.26,14.75"/><path d="M210.84,14.83L210.75,14.76L210.68,14.67L210.75,14.76L210.84,14.83L210.95,14.86L210.84,14.83L210.95,14.86L211.17,14.82"/><path d="M210.65,14.64L210.62,14.62"/><path d="M210.26,14.66L210.33,14.65"/><path d="M210.26,14.66L210.33,14.65"/><path d="M210.65,14.64L210.75,14.76"/><path d="M211.35,14.67L211.42,14.55"/><path d="M210.84,14.83L210.75,14.76"/><path d="M211.22,14.03L211.20,13.99L211.24,14.06L211.27,14.09L211.20,13.99L211.25,13.67L211.20,13.35L211.24,13.28L211.20,13.35"/><path d="M211.27,14.09L211.36,14.16L211.42,14.25L211.36,14.16L211.27,14.09"/><path d="M211.25,13.67L211.20,13.99"/><path d="M211.25,13.67L211.20,13.35L211.21,13.39L211.25,13.67L211.21,13.95L211.20,13.99"/><path d="M211.22,14.03L211.24,14.06"/><path d="M211.24,14.06L211.36,14.16"/><path d="M211.20,13.35L211.22,13.32"/><path d="M211.15,12.51L211.26,12.59L211.06,12.49L210.95,12.48L210.84,12.52"/><path d="M211.17,12.52L211.35,12.68L211.42,12.79"/><path d="M211.26,12.59L211.35,12.68L211.26,12.59"/><path d="M210.75,12.58L210.95,12.48"/><path d="M210.26,12.69L210.33,12.69"/><path d="M211.24,13.28L211.35,13.19L211.22,13.32"/><path d="M211.35,12.68L211.41,12.76L211.35,12.68"/><path d="M210.62,12.72L210.58,12.73"/><path d="M210.58,12.73L210.65,12.70"/><path d="M210.84,12.52L210.75,12.58L210.68,12.67L210.62,12.72"/><path d="M211.15,12.51L211.17,12.52"/><path d="M210.75,12.58L210.65,12.70"/><path d="M211.24,13.28L211.35,13.19L211.43,13.07"/><path d="M211.39,159.73L211.35,159.73L211.44,159.73L211.39,159.73"/><path d="M211.50,159.73L211.44,159.73"/><path d="M211.55,18.29L211.73,18.38L211.67,18.38L211.51,18.22L211.50,17.92L211.54,17.79L211.60,17.72L211.54,17.79L211.60,17.72L211.74,17.68"/><path d="M211.67,18.37L211.60,18.34"/><path d="M211.60,18.34L211.55,18.29"/><path d="M211.50,18.38L214.27,18.38L214.43,18.36L214.27,18.38"/><path d="M211.74,18.38L211.60,18.38"/><path d="M211.67,17.69L211.74,17.68L211.60,17.72"/><path d="M211.67,17.69L211.60,17.72"/><path d="M211.74,17.68L212.85,17.68L212.99,17.63L213.07,17.51L213.04,17.58L213.09,17.44L213.07,17.51"/><path d="M211.41,14.58L211.42,14.55"/><path d="M211.99,14.44L211.99,13.33L212.00,14.86L211.99,14.80L212.00,12.48L211.99,12.55L212.06,12.38L212.46,11.97L212.06,12.38L212.02,12.43"/><path d="M211.99,14.80L212.06,14.97L213.15,16.06"/><path d="M212.06,14.97L212.00,14.86"/><path d="M212.00,14.86L212.02,14.92"/><path d="M212.02,14.92L213.52,16.43L213.62,16.49L214.03,16.50L214.17,16.45L214.26,16.33L214.28,15.08L214.37,14.96L214.51,14.91L214.42,14.93L214.51,14.91"/><path d="M211.41,14.58L211.45,14.47L211.42,14.25"/><path d="M211.65,15.56L213.02,16.92L213.05,16.98L213.02,16.92L213.08,17.03L213.09,17.44L213.09,17.09L213.08,17.03"/><path d="M211.36,14.16L211.43,14.28"/><path d="M212.00,12.48L212.06,12.38"/><path d="M211.99,13.33L211.99,12.55"/><path d="M211.42,13.09L211.35,13.19"/><path d="M211.43,13.07L211.42,13.09L211.45,12.87L211.41,12.76"/><path d="M212.21,12.22L213.57,10.88L213.69,10.85L214.03,10.85L214.17,10.89L214.26,11.01L214.27,12.19L214.37,12.39L214.51,12.43L214.43,12.42"/><path d="M212.02,12.43L212.00,12.48"/><path d="M211.42,13.09L211.35,13.19"/><path d="M212.46,11.97L213.15,11.28"/><path d="M211.54,11.89L213.05,10.37"/><path d="M211.74,8.96L211.67,8.97L211.74,8.96L211.67,8.97L211.60,9.01L211.67,8.97"/><path d="M213.09,10.25L213.07,9.83L212.99,9.71L213.04,9.76L212.92,9.68L211.74,9.67L211.67,9.65L211.74,9.67L211.60,9.62L211.55,9.57"/><path d="M211.67,8.97L211.54,9.07L211.60,9.01"/><path d="M211.60,9.62L211.55,9.57L211.50,9.43L211.51,9.13L211.60,9.01"/><path d="M211.55,9.57L211.67,9.65"/><path d="M211.74,8.96L214.27,8.96L214.49,8.99L214.69,9.10L214.54,9.02L214.69,9.10L214.80,9.21"/><path d="M211.60,9.62L211.67,9.65"/><path d="M213.04,17.58L212.99,17.63"/><path d="M212.97,17.64L213.04,17.58"/><path d="M213.07,17.51L213.09,17.09L213.05,16.98"/><path d="M213.05,16.98L213.08,17.03"/><path d="M213.02,16.92L212.46,16.37"/><path d="M212.65,15.56L213.15,16.06"/><path d="M212.46,10.98L213.05,10.37"/><path d="M213.08,10.31L213.09,9.91L213.07,9.83"/><path d="M213.09,10.00L213.07,9.83L213.04,9.76"/><path d="M213.04,9.76L213.07,9.83"/><path d="M214.54,18.32L214.68,18.25L214.54,18.32"/><path d="M214.68,18.25L214.80,18.13L214.68,18.25L214.49,18.35L214.27,18.38L214.97,18.38L214.97,159.73"/><path d="M214.68,18.25L214.84,18.09L214.94,17.89L214.97,17.68L214.97,15.15L214.88,14.96L214.74,14.91L214.79,14.92"/><path d="M214.51,14.91L214.79,14.92"/><path d="M214.43,12.42L214.74,12.43L214.79,12.42L214.74,12.43"/><path d="M214.43,8.99L214.27,8.96L214.43,8.99"/><path d="M214.69,9.10L214.80,9.21"/><path d="M214.97,165.70L214.97,165.73"/><path d="M214.74,12.43L214.88,12.39L214.97,12.19L214.97,9.67L214.94,9.45L214.84,9.25L214.69,9.10"/></g></g><g id="Actor_2.0"><g style="stroke:#000000;stroke-width:0.353"><path d="M108.96,93.33L108.96,93.77L109.90,93.77L127.81,75.87L127.81,74.92L108.96,74.92L108.96,93.33"/></g></g><g id="Actor_2.1"><g style="stroke:#000000;stroke-width:0.353"><path d="M186.70,75.87L186.70,74.92L205.55,74.92L205.55,93.77L204.61,93.77L186.70,75.87"/></g></g><g id="Actor_2.2"><g style="stroke:#000000;stroke-width:0.353"><path d="M186.70,159.73L186.70,158.79L191.05,154.44L204.61,140.89L205.55,140.89L205.55,159.73L186.70,159.73"/></g></g><g id="Actor_2.3"><g style="stroke:#000000;stroke-width:0.353"><path d="M81.20,159.73L80.69,159.73L80.69,158.79L98.60,140.89L99.54,140.89L99.54,159.73L81.20,159.73"/></g></g><g id="Actor_4.1"><g style="stroke:#000000;stroke-width:0.353"><path d="M210.72,16.68L209.87,16.68L208.85,16.68"/></g><g style="stroke:#000000;stroke-width:0.353"><path d="M208.86,18.37L208.86,18.38"/><path d="M210.73,18.38L210.72,16.68L210.54,16.50L209.03,16.50L208.85,16.68L208.86,17.69"/></g></g><g id="Actor_5.0"><g style="stroke:#000000;stroke-width:0.353"><path d="M65.13,197.90L64.28,197.90L63.26,197.90"/></g><g style="stroke:#000000;stroke-width:0.353"><path d="M65.79,203.35L65.81,203.33L65.82,203.30L65.83,203.27L65.83,201.48L62.55,201.48L62.55,203.27L62.56,203.30L62.57,203.33L62.59,203.35L62.62,203.36L62.65,203.37L65.73,203.37L65.76,203.36L65.78,203.35"/><path d="M63.26,201.44L63.25,201.44L63.27,201.42L63.27,201.39L63.27,201.40"/><path d="M63.27,201.39L63.27,200.13"/><path d="M63.25,201.44L63.23,201.46L63.21,201.48L63.22,201.47"/><path d="M63.18,201.48L63.21,201.48L63.18,201.48"/><path d="M63.27,201.11L63.26,197.90L63.44,197.71L64.95,197.71L65.13,197.90L65.14,201.39L65.15,201.42L65.16,201.44L65.18,201.46L65.21,201.48L65.24,201.48"/><path d="M65.75,203.36L65.76,203.36L65.79,203.35L65.80,203.33"/></g></g><g id="Actor_5.1"><g style="stroke:#000000;stroke-width:0.353"><path d="M211.19,197.90L210.34,197.90L209.32,197.90"/></g><g style="stroke:#000000;stroke-width:0.353"><path d="M211.85,203.35L211.87,203.33L211.88,203.30L211.89,203.27L211.89,201.48L208.61,201.48L208.61,203.27L208.62,203.30L208.63,203.33L208.65,203.35L208.68,203.36L208.71,203.37L211.80,203.37L211.83,203.36L211.84,203.35"/><path d="M209.32,201.44L209.32,201.44L209.33,201.42L209.33,201.39L209.33,201.40"/><path d="M209.32,201.44L209.29,201.46L209.27,201.48L209.29,201.47"/><path d="M209.33,201.39L209.33,200.13"/><path d="M209.33,201.11L209.32,197.90L209.50,197.71L211.01,197.71L211.19,197.90L211.21,201.39L211.21,201.42L211.22,201.44L211.24,201.46L211.27,201.48L211.30,201.48"/><path d="M209.25,201.48L209.27,201.48L209.24,201.48"/><path d="M211.87,203.33L211.85,203.35L211.83,203.36L211.81,203.36"/></g></g><g><g><path style="stroke:#000000;stroke-width:0.200;stroke-dasharray:3.0 2.0 1.0 2.0" d="M64.19,169.63L64.19,200.54"/></g><g><path style="fill:#000000" d="M64.69,169.63L64.69,169.58L64.68,169.53L64.67,169.48L64.65,169.44L64.63,169.39L64.60,169.35L64.58,169.31L64.54,169.27L64.51,169.24L64.47,169.21L64.42,169.19L64.38,169.17L64.33,169.15L64.29,169.14L64.24,169.13L64.19,169.13L64.14,169.13L64.09,169.14L64.04,169.15L64.00,169.17L63.95,169.19L63.91,169.21L63.87,169.24L63.84,169.27L63.80,169.31L63.77,169.35L63.75,169.39L63.73,169.44L63.71,169.48L63.70,169.53L63.69,169.58L63.69,169.63L63.69,169.68L63.70,169.73L63.71,169.77L63.73,169.82L63.75,169.86L63.77,169.91L63.80,169.95L63.84,169.98L63.87,170.01L63.91,170.04L63.95,170.07L64.00,170.09L64.04,170.11L64.09,170.12L64.14,170.13L64.19,170.13L64.24,170.13L64.29,170.12L64.33,170.11L64.38,170.09L64.42,170.07L64.47,170.04L64.51,170.01L64.54,169.98L64.58,169.95L64.60,169.91L64.63,169.86L64.65,169.82L64.67,169.77L64.68,169.73L64.69,169.68z"/></g><g><path style="fill:#000000" d="M64.69,200.54L64.69,200.49L64.68,200.44L64.67,200.39L64.65,200.35L64.63,200.30L64.60,200.26L64.58,200.22L64.54,200.19L64.51,200.15L64.47,200.12L64.42,200.10L64.38,200.08L64.33,200.06L64.29,200.05L64.24,200.04L64.19,200.04L64.14,200.04L64.09,200.05L64.04,200.06L64.00,200.08L63.95,200.10L63.91,200.12L63.87,200.15L63.84,200.19L63.80,200.22L63.77,200.26L63.75,200.30L63.73,200.35L63.71,200.39L63.70,200.44L63.69,200.49L63.69,200.54L63.69,200.59L63.70,200.64L63.71,200.68L63.73,200.73L63.75,200.78L63.77,200.82L63.80,200.86L63.84,200.89L63.87,200.93L63.91,200.96L63.95,200.98L64.00,201.00L64.04,201.02L64.09,201.03L64.14,201.04L64.19,201.04L64.24,201.04L64.29,201.03L64.33,201.02L64.38,201.00L64.42,200.98L64.47,200.96L64.51,200.93L64.54,200.89L64.58,200.86L64.60,200.82L64.63,200.78L64.65,200.73L64.67,200.68L64.68,200.64L64.69,200.59z"/></g></g><g><g><path style="stroke:#000000;stroke-width:0.200;stroke-dasharray:3.0 2.0 1.0 2.0" d="M64.19,169.63L64.19,200.54"/></g><g><path style="fill:#000000" d="M64.69,169.63L64.69,169.58L64.68,169.53L64.67,169.48L64.65,169.44L64.63,169.39L64.60,169.35L64.58,169.31L64.54,169.27L64.51,169.24L64.47,169.21L64.42,169.19L64.38,169.17L64.33,169.15L64.29,169.14L64.24,169.13L64.19,169.13L64.14,169.13L64.09,169.14L64.04,169.15L64.00,169.17L63.95,169.19L63.91,169.21L63.87,169.24L63.84,169.27L63.80,169.31L63.77,169.35L63.75,169.39L63.73,169.44L63.71,169.48L63.70,169.53L63.69,169.58L63.69,169.63L63.69,169.68L63.70,169.73L63.71,169.77L63.73,169.82L63.75,169.86L63.77,169.91L63.80,169.95L63.84,169.98L63.87,170.01L63.91,170.04L63.95,170.07L64.00,170.09L64.04,170.11L64.09,170.12L64.14,170.13L64.19,170.13L64.24,170.13L64.29,170.12L64.33,170.11L64.38,170.09L64.42,170.07L64.47,170.04L64.51,170.01L64.54,169.98L64.58,169.95L64.60,169.91L64.63,169.86L64.65,169.82L64.67,169.77L64.68,169.73L64.69,169.68z"/></g><g><path style="fill:#000000" d="M64.69,200.54L64.69,200.49L64.68,200.44L64.67,200.39L64.65,200.35L64.63,200.30L64.60,200.26L64.58,200.22L64.54,200.19L64.51,200.15L64.47,200.12L64.42,200.10L64.38,200.08L64.33,200.06L64.29,200.05L64.24,200.04L64.19,200.04L64.14,200.04L64.09,200.05L64.04,200.06L64.00,200.08L63.95,200.10L63.91,200.12L63.87,200.15L63.84,200.19L63.80,200.22L63.77,200.26L63.75,200.30L63.73,200.35L63.71,200.39L63.70,200.44L63.69,200.49L63.69,200.54L63.69,200.59L63.70,200.64L63.71,200.68L63.73,200.73L63.75,200.78L63.77,200.82L63.80,200.86L63.84,200.89L63.87,200.93L63.91,200.96L63.95,200.98L64.00,201.00L64.04,201.02L64.09,201.03L64.14,201.04L64.19,201.04L64.24,201.04L64.29,201.03L64.33,201.02L64.38,201.00L64.42,200.98L64.47,200.96L64.51,200.93L64.54,200.89L64.58,200.86L64.60,200.82L64.63,200.78L64.65,200.73L64.67,200.68L64.68,200.64L64.69,200.59z"/></g></g><g><g><path style="stroke:#000000;stroke-width:0.200;stroke-dasharray:3.0 2.0 1.0 2.0" d="M210.25,169.63L210.25,200.54"/></g><g><path style="fill:#000000" d="M210.75,169.63L210.75,169.58L210.74,169.53L210.73,169.48L210.71,169.44L210.69,169.39L210.67,169.35L210.64,169.31L210.61,169.27L210.57,169.24L210.53,169.21L210.49,169.19L210.44,169.17L210.40,169.15L210.35,169.14L210.30,169.13L210.25,169.13L210.20,169.13L210.15,169.14L210.11,169.15L210.06,169.17L210.02,169.19L209.97,169.21L209.93,169.24L209.90,169.27L209.87,169.31L209.84,169.35L209.81,169.39L209.79,169.44L209.77,169.48L209.76,169.53L209.75,169.58L209.75,169.63L209.75,169.68L209.76,169.73L209.77,169.77L209.79,169.82L209.81,169.86L209.84,169.91L209.87,169.95L209.90,169.98L209.93,170.01L209.97,170.04L210.02,170.07L210.06,170.09L210.11,170.11L210.15,170.12L210.20,170.13L210.25,170.13L210.30,170.13L210.35,170.12L210.40,170.11L210.44,170.09L210.49,170.07L210.53,170.04L210.57,170.01L210.61,169.98L210.64,169.95L210.67,169.91L210.69,169.86L210.71,169.82L210.73,169.77L210.74,169.73L210.75,169.68z"/></g><g><path style="fill:#000000" d="M210.75,200.54L210.75,200.49L210.74,200.44L210.73,200.39L210.71,200.35L210.69,200.30L210.67,200.26L210.64,200.22L210.61,200.19L210.57,200.15L210.53,200.12L210.49,200.10L210.44,200.08L210.40,200.06L210.35,200.05L210.30,200.04L210.25,200.04L210.20,200.04L210.15,200.05L210.11,200.06L210.06,200.08L210.02,200.10L209.97,200.12L209.93,200.15L209.90,200.19L209.87,200.22L209.84,200.26L209.81,200.30L209.79,200.35L209.77,200.39L209.76,200.44L209.75,200.49L209.75,200.54L209.75,200.59L209.76,200.64L209.77,200.68L209.79,200.73L209.81,200.78L209.84,200.82L209.87,200.86L209.90,200.89L209.93,200.93L209.97,200.96L210.02,200.98L210.06,201.00L210.11,201.02L210.15,201.03L210.20,201.04L210.25,201.04L210.30,201.04L210.35,201.03L210.40,201.02L210.44,201.00L210.49,200.98L210.53,200.96L210.57,200.93L210.61,200.89L210.64,200.86L210.67,200.82L210.69,200.78L210.71,200.73L210.73,200.68L210.74,200.64L210.75,200.59z"/></g></g><g/><g/><g id="paperID" visibility="hidden" opacity="0.00" transform="scale(0.000100)"><path style="stroke:#000000;stroke-width:0.500;fill:#e6e6e6;fill-rule:evenodd" d="M-2000.00,-2000.00L2297.00,-2000.00L2297.00,2210.00L-2000.00,2210.00zM0.00,0.00L297.00,0.00L297.00,210.00L0.00,210.00z"/><path style="fill:#000000;fill-opacity:0.118" d="M3.00,210.00L297.00,210.00L297.00,3.00L300.00,3.00L300.00,213.00L3.00,213.00z"/></g><g><g><path style="stroke:#000000;stroke-width:0.353;fill:#f0f0ff" d="M12.07,81.98L76.18,81.98L76.18,89.31L12.07,89.31z"/><text xml:space="preserve" fill="#000000" stroke-width="0" x="14.89" y="87.62" font-size="5.22" opacity="1.00" font-family="Consolas" font-weight="bold">Part Name</text></g><g id="Line3"><path style="stroke:#000000;stroke-width:0.353;fill:#ffffff" d="M12.07,89.31L76.18,89.31L76.18,96.65L12.07,96.65z"/><text xml:space="preserve" fill="#000000" stroke-width="0" x="14.89" y="94.96" font-size="5.30" opacity="1.00" font-family="Consolas">Aluminium Frame</text></g><g id="Line1"><path style="stroke:#000000;stroke-width:0.353;fill:#f0f0ff" d="M12.07,96.65L76.18,96.65L76.18,103.99L12.07,103.99z"/><text xml:space="preserve" fill="#000000" stroke-width="0" x="14.89" y="102.29" font-size="5.24" opacity="1.00" font-family="Consolas">Bottom Cover</text></g><g id="Line5"><path style="stroke:#000000;stroke-width:0.353;fill:#ffffff" d="M12.07,103.99L76.18,103.99L76.18,111.32L12.07,111.32z"/><text xml:space="preserve" fill="#000000" stroke-width="0" x="14.89" y="109.63" font-size="5.27" opacity="1.00" font-family="Consolas">M4 Bolts</text></g><g id="Line4"><path style="stroke:#000000;stroke-width:0.353;fill:#f0f0ff" d="M12.07,111.32L76.18,111.32L76.18,118.66L12.07,118.66z"/><text xml:space="preserve" fill="#000000" stroke-width="0" x="14.89" y="116.97" font-size="5.28" opacity="1.00" font-family="Consolas">M4x6mm Bolts</text></g><g id="Line2"><path style="stroke:#000000;stroke-width:0.353;fill:#ffffff" d="M12.07,118.66L76.18,118.66L76.18,125.99L12.07,125.99z"/><text xml:space="preserve" fill="#000000" stroke-width="0" x="14.89" y="124.30" font-size="5.26" opacity="1.00" font-family="Consolas">Right Angle Brackets</text></g></g><g id="hotspot.0" ident="" onmouseover="ShowHotSpot(evt,&apos;0&apos;)" onmouseout="HideHotSpot(evt,&apos;0&apos;)" onmousemove="ShowToolTip(evt,&apos;0&apos;,&quot;Bottom Cover V2&quot;)" opacity="0"><path style="fill:#00ff00;fill-rule:evenodd" d="M12.07,96.65L12.07,103.99L76.18,103.99L76.18,96.65zM214.88,183.40L59.58,183.40L59.58,182.30L214.88,182.30z"/></g><g id="hotspot.1" ident="" onmouseover="ShowHotSpot(evt,&apos;1&apos;)" onmouseout="HideHotSpot(evt,&apos;1&apos;)" onmousemove="ShowToolTip(evt,&apos;1&apos;,&quot;Right Angle Bracket&quot;)" opacity="0"><path style="fill:#00ff00;fill-rule:evenodd" d="M12.07,118.66L12.07,125.99L76.18,125.99L76.18,118.66zM186.76,74.95L205.46,74.95L205.46,93.65L204.46,93.55L186.87,75.95zM127.87,75.80L110.16,93.55L109.17,93.65L109.16,74.95L127.87,74.95zM205.46,159.60L186.76,159.59L186.87,158.60L204.62,140.89L205.46,140.89zM99.60,159.60L80.90,159.60L81.00,158.35L98.49,140.90L99.60,140.90z"/></g><g id="hotspot.2" ident="" onmouseover="ShowHotSpot(evt,&apos;2&apos;)" onmouseout="HideHotSpot(evt,&apos;2&apos;)" onmousemove="ShowToolTip(evt,&apos;2&apos;,&quot;Aluminium Frame&quot;)" opacity="0"><path style="fill:#00ff00;fill-rule:evenodd" d="M12.07,89.31L12.07,96.65L76.18,96.65L76.18,89.31zM214.91,9.23L214.87,12.34L214.31,12.35L214.13,10.97L213.56,10.96L212.15,12.32L212.15,15.20L213.64,16.49L214.13,16.55L214.31,14.93L214.87,14.93L214.89,169.02L50.16,169.02L50.16,159.74L99.60,159.60L99.77,14.92L100.06,14.92L100.33,16.47L100.97,16.46L102.58,14.81L102.58,12.46L101.09,10.97L100.24,10.98L100.06,12.36L99.77,12.35L99.82,9.08L102.85,8.99L103.09,9.23L103.01,9.50L101.46,9.76L101.57,10.49L102.81,11.73L105.70,11.73L107.06,10.33L107.05,9.76L105.67,9.58L105.67,9.02L108.54,8.99L109.02,9.74L108.92,12.26L108.43,12.34L108.27,10.98L107.43,10.97L106.04,12.32L106.04,14.95L107.54,16.46L108.18,16.47L108.44,14.93L108.76,14.90L109.03,15.17L109.02,17.53L108.72,18.03L108.97,18.44L109.16,65.38L205.46,65.38L205.63,14.93L206.19,14.93L206.45,16.47L207.09,16.46L208.44,15.06L208.44,12.46L206.94,10.96L206.37,10.97L206.19,12.35L205.63,12.34L205.70,9.34L206.10,8.99L208.95,9.02L208.96,9.58L207.59,9.75L207.69,10.74L208.68,11.73L211.81,11.73L212.91,10.59L212.91,9.75L211.54,9.58L211.54,9.02L214.66,8.98zM211.44,12.70L211.34,14.72L209.16,14.72L209.16,12.55L211.18,12.44zM105.32,12.70L105.30,14.80L103.21,14.80L103.29,12.55L105.09,12.47zM212.93,16.95L212.92,17.52L211.58,17.69L211.39,18.25L209.10,18.25L208.92,17.69L207.58,17.52L207.69,16.79L209.08,15.44L211.42,15.44zM107.06,16.95L107.05,17.52L105.71,17.69L105.53,18.25L102.98,18.18L103.05,17.90L102.86,17.67L101.46,17.52L101.57,16.79L102.96,15.44L105.55,15.44zM205.46,159.60L109.16,159.60L109.16,74.95L205.46,74.95z"/></g><g id="hotspot.3" ident="" onmouseover="ShowHotSpot(evt,&apos;3&apos;)" onmouseout="HideHotSpot(evt,&apos;3&apos;)" onmousemove="ShowToolTip(evt,&apos;3&apos;,&quot;socket head cap screw_iso&quot;)" opacity="0"><path style="fill:#00ff00;fill-rule:evenodd" d="M12.07,111.32L12.07,118.66L76.18,118.66L76.18,111.32zM208.83,16.69L210.67,16.68L210.67,18.27L209.10,18.26L208.91,17.71zM102.96,16.68L104.55,16.68L104.55,18.27L102.98,18.18z"/></g><g id="hotspot.4" ident="" onmouseover="ShowHotSpot(evt,&apos;4&apos;)" onmouseout="HideHotSpot(evt,&apos;4&apos;)" onmousemove="ShowToolTip(evt,&apos;4&apos;,&quot;socket head cap screw_iso&quot;)" opacity="0"><path style="fill:#00ff00;fill-rule:evenodd" d="M12.07,103.99L12.07,111.32L76.18,111.32L76.18,103.99zM211.19,197.90L211.33,201.48L211.89,201.66L211.91,203.23L208.59,203.23L208.61,201.66L209.16,201.48L209.41,197.76L210.94,197.66zM65.15,197.90L65.30,201.48L65.86,201.66L65.88,203.23L62.55,203.23L62.57,201.66L63.13,201.48L63.37,197.76L64.91,197.66z"/></g><g id="ToolTip" visibility="hidden" opacity="0" transform="translate(0,0)"><rect id="ToolTipShadow" opacity="0.20" fill="black" stroke="none" x="0" y="0" width="30" height="8"/><rect id="ToolTipBG" fill="#ffffe1" stroke="black" x="0" y="0" width="30" height="8"/><text xml:space="preserve" id="ToolTipText" fill="black" x="0" y="0" width="30" height="8">tooltip</text></g></g></svg>