<?xml version="1.0" encoding="UTF-8" standalone="yes"?><svg xmlns="http://www.w3.org/2000/svg" xmlns:xlink="http://www.w3.org/1999/xlink" width="297.000mm" height="210.000mm" viewBox="0.000000 0.000000 297.000000 210.000000" stroke-linejoin="round" stroke-linecap="round" fill="none" fill-rule="evenodd"><desc>Composer Export</desc><script type="text/ecmascript"><![CDATA[
if(typeof(top) != "undefined")
{
	top.ShowPaper = ShowPaper;
}
function ShowHotSpot(evt,hotspotid)
{
	var svgDocument = evt.target.ownerDocument;
	var strId = "hotspot."+hotspotid;
	var hotspot = svgDocument.getElementById(strId);
	if(hotspot)
		hotspot.setAttribute("opacity",".5");
}
function HideHotSpot(evt,hotspotid)
{
	var svgDocument = evt.target.ownerDocument;
	var strId = "hotspot."+hotspotid;
	var hotspot = svgDocument.getElementById(strId);
	if(hotspot)
		hotspot.setAttribute("opacity","0");

	var toolTip = svgDocument.getElementById('ToolTip');
	if(toolTip)
		toolTip.setAttribute("visibility","hidden");
}
function ShowToolTip(evt,hotspotid,strTooltip)
{
	if(strTooltip=="")
	return;

	// change text
	var svgDocument = evt.target.ownerDocument;
	var tiptext = svgDocument.getElementById('ToolTipText');
	if( !tiptext )
	return;
	tiptext.firstChild.nodeValue = " " + strTooltip + "  " ;

	// show tooltip before, else some refresh issue

	var toolTip = svgDocument.getElementById('ToolTip');
	if(!toolTip)
	return;

	toolTip.setAttribute("visibility","visible");
	toolTip.setAttribute("opacity",".95");

	// move tooltip
	// get viewbox

	var root = svgDocument.documentElement;
	var vbox = (root.getAttribute("viewBox")).split(' ');
	var x0 = parseFloat(vbox[0]);
	var y0 = parseFloat(vbox[1]);
	var vboxW = parseFloat(vbox[2]);
	var vboxH = parseFloat(vbox[3]);

	// get default width of svg

	var strW = root.getAttribute("width");
	var svgW = parseFloat(strW);
	if(strW.indexOf('mm') != -1)
	svgW *= 3.779;

	var strH = root.getAttribute("height");
	var svgH = parseFloat(strH);
	if(strH.indexOf('mm') != -1)
	svgH *= 3.779;  	// 96 dpi  -> 96/25.4 = 3.779

	// update the viewbox / width / height if svg is embedded in html with zoom fit all
	var realx0 = x0;
	var realy0 = y0;
	var realvboxW = vboxW;
	var realvboxH = vboxH;
	var realsvgW = svgW;
	var realsvgH = svgH;

	if ((typeof(top) == "undefined") || (typeof(top.svgctl1) != "undefined")) // embedded in html
	{
		// get window size in pxl

		svgW = window.innerWidth;
		svgH = window.innerHeight;

		// calculate real viewbox

		realsvgW = svgW;
		realsvgH = svgH;
		if((svgW / svgH) > (vboxW / vboxH))
		{
			realvboxW = (vboxH * svgW) / svgH;
			realvboxH = vboxH;
			realx0 = x0 - (realvboxW - vboxW)/2 ;
		}
		else
		{
			realvboxH = (vboxW * svgH) / svgW;
			realvboxW = vboxW;
			realy0 = y0 - (realvboxH - vboxH)/2 ;
		}
	}

	// get user zoom/pan

	var newScale = root.currentScale;
	var translation = root.currentTranslate;

	// transform pxl to user unit

	var xPos = (((evt.clientX+10- translation.x)/newScale) * realvboxW)/realsvgW  + realx0 ;
	var yPos = (((evt.clientY+5- translation.y)/newScale) * realvboxH)/ realsvgH  + realy0 ;
	var scaleForWidth = ( (1 / newScale) * realvboxH) / realsvgH;

	// move tooltip

	toolTip.setAttribute("transform", "translate(" + xPos + "," + yPos + ")" );

	// resize tooltip

	var fontsize = 12;
	tiptext.setAttribute("font-size",fontsize*scaleForWidth);
	tiptext.setAttribute("y", fontsize*scaleForWidth);
	var tipBG = svgDocument.getElementById('ToolTipBG');
	var outline = tiptext.getBBox();
	if(tipBG)
	{
		tipBG.setAttribute("stroke-width", 1*scaleForWidth);
		tipBG.setAttribute("width", Number(outline.width) );
		tipBG.setAttribute("height", Number(outline.height) + fontsize*.5*scaleForWidth );
	}
	var ToolTipShadow = svgDocument.getElementById('ToolTipShadow');
	if(ToolTipShadow)
	{
		ToolTipShadow.setAttribute("width", Number(outline.width) );
		ToolTipShadow.setAttribute("height", Number(outline.height) + fontsize*.5*scaleForWidth );
		ToolTipShadow.setAttribute("x", 3*scaleForWidth);
		ToolTipShadow.setAttribute("y", 3*scaleForWidth);
	}
}
function ShowPaper()
{
  var svgDocument = getDocument();
  var paper = svgDocument.getElementById("paperID");
  if(paper)
  {
    paper.setAttribute("transform","scale(1)");
    paper.setAttribute("opacity","1");
    paper.setAttribute("visibility","visible");
  }
  var svg = svgDocument.getRootElement();
  if(svg)
  {
    svg.setAttribute("width","307.000mm");
    svg.setAttribute("height","220.000mm");
    svg.setAttribute("viewBox","-5.000000 -5.000000 307.000000 220.000000");
  }
}
]]></script><defs/><g><path style="fill:#ffffff" d="M296.84,209.91L0.05,209.91L0.05,0.05L296.84,0.05z"/><path style="fill:#000019" d="M186.20,79.56L185.89,79.46L185.98,79.36L186.07,78.08L186.18,78.06z"/><path style="fill:#000020" d="M137.66,42.02L137.83,41.90L138.04,39.78L138.07,45.14L137.83,42.18z"/><path style="fill:#000020" d="M146.09,129.69L145.64,129.61L146.09,129.59z"/><path style="fill:#fff2e8" d="M121.64,18.95L122.80,19.29L123.80,19.78L123.92,20.04L123.81,20.67L122.64,21.34L120.25,21.95L120.14,27.03L119.58,27.13L119.52,45.10L116.35,45.02L116.18,44.94L116.14,41.96L116.12,26.79L115.87,26.76L114.61,26.48L113.81,25.75L113.79,20.21L114.06,19.77L115.40,19.11L117.18,18.85L119.52,18.76z"/><path style="fill:#fff2e8" d="M192.69,22.79L193.70,23.28L193.95,23.57L193.87,24.19L193.02,24.85L190.61,25.45L190.29,25.63L190.26,30.55L189.27,30.64L189.54,30.80L189.56,48.78L186.89,48.69L186.22,48.62L186.20,45.46L186.31,30.65L186.50,30.46L186.07,30.45L184.83,30.15L184.00,29.65L183.84,29.27L183.84,23.89L184.17,23.36L185.27,22.79L186.72,22.53L190.40,22.44z"/><path style="fill:#fff2e8" d="M145.61,38.32L146.72,38.50L148.06,39.17L148.32,39.60L148.25,39.78L148.06,40.06L147.00,40.68L144.49,41.35L144.47,46.31L144.42,46.43L143.81,46.52L143.76,64.49L140.75,64.41L140.41,64.33L140.38,61.35L140.39,55.50L140.39,51.82L140.38,51.15L140.52,46.16L140.27,46.17L138.71,45.68L138.07,45.14L138.04,39.78L138.32,39.19L139.14,38.67L140.25,38.41L141.25,38.24L144.09,38.15z"/><path style="fill:#fff2e8" d="M116.79,61.24L116.95,62.09L117.81,63.40L119.55,64.87L119.54,76.20L119.36,76.27L118.52,76.26L116.85,76.10L116.14,75.91L116.14,74.39L116.19,55.52L116.63,55.54z"/><path style="fill:#fff2e8" d="M143.76,74.93L143.76,95.58L143.31,95.69L141.08,95.49L140.38,95.30L140.38,93.78L140.39,88.94L140.38,76.73L140.43,74.75z"/><path style="fill:#fff2e8" d="M186.20,79.56L186.18,78.06L186.23,59.55L189.58,59.22L189.57,79.88L187.22,79.77L186.32,79.64z"/><path style="fill:#000019" d="M147.78,129.68L146.09,129.69L146.09,129.59L147.78,129.60z"/><path style="fill:#ccc1ba" d="M124.08,20.38L124.07,25.75L123.27,26.48L122.01,26.77L121.60,26.78L121.71,44.94L120.69,45.10L119.52,45.10L119.58,27.13L120.14,27.03L120.25,21.95L122.64,21.34L123.81,20.67L123.92,20.04z"/><path style="fill:#ccc1ba" d="M194.13,23.88L194.13,29.27L194.03,29.55L193.14,30.15L191.90,30.45L191.46,30.46L191.66,30.65L191.75,48.62L189.56,48.78L189.54,30.80L190.53,30.66L190.26,30.55L190.29,25.63L190.61,25.45L193.02,24.85L193.87,24.19L193.95,23.57z"/><path style="fill:#ccc1ba" d="M148.31,45.14L147.51,45.87L146.25,46.16L145.84,46.17L145.95,64.33L145.62,64.41L143.76,64.49L143.81,46.52L144.42,46.43L145.23,46.36L144.47,46.31L144.49,41.35L147.00,40.68L148.06,40.06L148.25,39.78z"/><path style="fill:#ccc1ba" d="M121.79,66.07L121.79,73.10L121.65,76.01L120.36,76.19L119.54,76.20L119.55,64.87z"/><path style="fill:#ccc1ba" d="M191.79,79.08L191.64,79.64L190.07,79.88L189.57,79.88L189.58,59.22L190.06,59.13L191.70,59.00z"/><path style="fill:#ccc1ba" d="M145.98,95.30L145.89,95.41L144.60,95.58L143.76,95.58L143.76,74.93L144.26,74.85L145.44,74.76L145.93,74.75z"/><path style="fill:#cccccc" d="M112.88,43.35L113.22,42.84L114.73,42.18L116.02,41.96L116.02,44.92L115.35,44.83L114.11,44.53L113.13,44.01z"/><path style="fill:#cccccc" d="M138.71,45.68L140.27,46.17L140.26,51.16L134.79,52.21L131.62,53.22L129.68,54.14L129.33,54.24L127.67,53.04L126.98,52.05L126.81,51.55L126.82,50.76L127.08,50.02L128.17,48.77L130.50,47.42L132.79,46.53L138.01,45.23L138.07,45.14z"/><path style="fill:#cccccc" d="M183.77,50.05L184.10,49.86L193.14,48.87L195.20,48.26L196.13,47.68L196.38,47.47L196.47,56.85L196.37,57.30L195.88,57.80L194.65,58.41L193.58,58.64L193.29,58.74L192.23,58.86L191.70,59.00L190.06,59.13L189.58,59.22L186.23,59.55L185.39,59.64L184.56,59.72L184.05,59.64L184.00,50.70L183.93,50.64z"/><path style="fill:#cccccc" d="M130.77,54.87L133.46,53.56L136.80,52.55L139.31,52.05L140.22,51.99L140.26,55.50L137.74,55.96L136.09,56.38L135.40,56.37L132.00,55.39L130.98,55.06z"/><path style="fill:#cccccc" d="M183.92,59.68L183.93,61.69L183.52,62.65L182.25,64.07L180.60,65.26L177.92,66.59L174.09,67.94L171.68,68.50L171.40,68.60L167.67,69.34L164.50,69.84L158.81,70.42L158.31,70.34L158.36,60.56L164.60,59.96L170.57,58.91L174.29,57.94L177.42,56.90L181.32,54.94L183.01,53.46L183.85,51.99z"/><path style="fill:#cccccc" d="M151.91,71.00L150.84,72.61L150.72,73.11L149.99,73.60L148.45,74.26L146.78,74.59L146.16,74.61L146.10,74.72L145.93,74.75L145.44,74.76L144.93,74.68L144.98,64.91L147.50,64.59L149.56,63.97L150.50,63.23L151.91,61.07z"/><path style="fill:#cccccc" d="M115.12,74.84L116.02,74.40L116.00,75.87L115.61,75.80L115.12,75.45z"/><path style="fill:#cccccc" d="M183.76,81.64L192.97,80.64L195.31,79.97L196.13,79.45L196.38,79.05L196.46,90.11L196.38,97.08L195.65,97.69L194.48,98.19L192.75,98.59L191.57,98.76L184.38,99.50L184.05,99.43L184.00,82.46L183.93,82.40L183.82,82.13z"/><path style="fill:#cccccc" d="M127.15,82.18L127.51,81.54L128.11,80.80L129.28,79.96L131.62,78.79L135.46,77.62L140.25,76.73L140.26,88.93L137.59,88.47L135.91,88.13L132.33,87.16L129.66,85.98L128.01,84.79L127.32,83.98L127.15,83.48z"/><path style="fill:#cccccc" d="M139.33,94.39L140.03,93.89L140.26,93.79L140.24,95.26L139.85,95.20L139.35,94.83z"/><path style="fill:#cccccc" d="M183.92,99.47L183.93,101.14L183.83,101.76L183.35,102.60L182.17,103.94L179.98,105.43L177.09,106.71L172.62,108.10L169.35,108.79L166.67,109.29L162.98,109.79L158.65,110.21L158.31,110.13L158.36,92.33L165.61,91.55L171.91,90.33L176.42,89.00L179.59,87.65L181.68,86.39L182.99,85.20L183.50,84.53L183.85,83.75z"/><path style="fill:#cccccc" d="M151.91,110.62L151.06,112.11L149.99,113.38L148.34,114.08L146.11,114.48L145.27,114.56L144.94,114.47L144.98,96.67L147.88,96.23L149.50,95.67L150.42,95.08L151.84,92.81L151.91,92.83z"/><path style="fill:#cccccc" d="M183.76,121.42L192.80,120.42L195.32,119.76L196.37,118.90L196.38,146.73L196.14,146.99L194.86,147.72L192.41,148.24L191.24,148.41L184.05,149.11L184.00,122.25L183.93,122.19L183.82,121.91z"/><path style="fill:#cccccc" d="M152.96,129.68L147.78,129.68L147.78,129.60L152.96,129.60z"/><path style="fill:#cccccc" d="M119.13,148.67L120.49,151.35L120.49,151.72L120.04,151.84L117.51,152.09L117.11,152.02L117.30,151.23L117.46,149.39L117.78,148.38L117.91,148.16L118.47,148.15z"/><path style="fill:#cccccc" d="M175.47,152.01L174.91,152.00L174.41,152.34L173.49,153.47L173.32,153.80L173.12,154.06L172.31,156.13L172.15,157.31L172.02,157.78L171.92,157.88L170.02,158.27L167.83,158.67L167.34,158.76L166.82,158.85L166.37,158.86L166.82,158.94L167.67,158.85L167.84,158.77L170.96,158.58L174.47,158.18L174.48,159.25L174.04,159.36L160.31,160.78L159.58,160.92L159.39,161.89L158.54,162.55L158.39,163.95L158.20,163.90L158.19,132.11L164.55,131.45L170.41,130.45L174.12,129.49L177.76,128.28L180.99,126.66L182.82,125.15L183.85,123.54L183.92,149.11L183.92,150.46L183.66,151.73L182.99,152.73L181.76,153.84L179.82,155.07L179.26,155.26L179.00,153.00L178.83,152.83z"/><path style="fill:#cccccc" d="M151.98,159.98L152.01,160.09L153.58,160.20L153.62,163.79L150.61,163.95L150.24,164.46L150.06,163.03L149.85,163.01L148.17,163.72L148.21,167.72L147.72,168.61L147.18,169.08L146.28,169.21L145.26,169.21L144.19,169.09L143.98,168.94L144.02,168.44L146.72,164.03L144.98,164.11L144.98,136.46L147.88,136.01L149.50,135.46L150.42,134.87L151.84,132.60L151.91,132.61z"/><path style="fill:#cccccc" d="M183.76,160.21L184.10,160.02L193.14,159.04L195.20,158.42L196.13,157.85L196.37,157.52L196.38,171.97L196.22,172.15L194.98,172.91L192.58,173.49L186.55,174.15L184.05,174.36L184.00,161.03L183.93,160.97L183.82,160.69z"/><path style="fill:#cccccc" d="M136.40,163.04L136.42,163.29L126.88,164.29L124.37,164.20L123.96,164.04L123.92,163.73L124.76,163.38L135.57,162.29L135.71,162.32z"/><path style="fill:#cccccc" d="M183.92,174.36L183.92,175.70L183.66,176.97L182.92,178.08L181.17,179.50L178.93,180.76L175.09,182.28L170.02,183.51L169.18,183.68L165.33,184.35L161.14,184.85L158.14,185.06L158.19,170.73L164.60,170.12L171.24,168.90L175.09,167.90L178.93,166.39L181.17,165.12L182.82,163.77L183.85,162.15z"/><path style="fill:#cccccc" d="M151.91,185.51L150.33,187.95L148.67,188.79L146.95,189.20L145.77,189.36L144.98,189.35L144.98,175.07L147.50,174.75L149.50,174.08L150.42,173.48L151.84,171.21L151.91,171.23z"/><path style="fill:#000019" d="M118.02,20.86L117.19,20.76L118.02,20.73z"/><path style="fill:#000019" d="M189.54,30.80L189.27,30.64L190.26,30.55L190.53,30.66z"/><path style="fill:#000019" d="M142.25,40.25L141.58,40.16L142.26,40.12z"/><path style="fill:#000019" d="M116.18,44.94L116.02,44.92L116.02,41.96L116.14,41.96z"/><path style="fill:#000019" d="M144.42,46.43L144.47,46.31L145.23,46.36z"/><path style="fill:#000019" d="M186.22,48.62L185.73,48.54L186.00,48.42L186.03,45.63L186.12,45.46L186.20,45.46z"/><path style="fill:#000019" d="M140.38,51.15L140.26,51.16L140.27,46.17L140.52,46.16z"/><path style="fill:#000019" d="M140.39,55.50L140.26,55.50L140.22,51.99L140.30,51.82L140.39,51.82z"/><path style="fill:#000019" d="M184.05,59.64L183.92,59.68L183.85,51.99L183.93,50.64L184.00,50.70z"/><path style="fill:#000019" d="M140.41,64.33L139.75,64.24L140.20,64.14L140.25,61.35L140.38,61.35z"/><path style="fill:#000019" d="M144.26,74.85L144.93,74.68L145.44,74.76z"/><path style="fill:#000019" d="M116.14,75.91L116.00,75.87L116.02,74.40L116.14,74.39z"/><path style="fill:#000019" d="M140.39,88.94L140.26,88.93L140.25,76.73L140.38,76.73z"/><path style="fill:#000019" d="M140.38,95.30L140.24,95.26L140.26,93.79L140.38,93.78z"/><path style="fill:#000019" d="M184.05,99.43L183.92,99.47L183.85,83.75L183.93,82.40L184.00,82.46z"/><path style="fill:#000019" d="M154.30,129.69L152.96,129.68L152.96,129.60L154.30,129.59z"/><path style="fill:#000019" d="M184.05,149.11L183.92,149.11L183.85,123.54L183.93,122.19L184.00,122.25z"/><path style="fill:#000019" d="M152.01,160.09L151.98,159.98L153.79,160.02L153.83,160.14L153.84,163.66L153.80,163.79L153.62,163.79L153.58,160.20z"/><path style="fill:#000019" d="M131.05,161.45L130.55,161.36L131.06,161.32z"/><path style="fill:#000019" d="M136.86,163.22L136.42,163.29L136.40,163.04z"/><path style="fill:#000019" d="M155.80,167.47L155.13,167.37L155.80,167.33z"/><path style="fill:#000019" d="M184.05,174.36L183.92,174.36L183.85,162.15L183.93,160.97L184.00,161.03z"/><path style="fill:#000020" d="M118.02,20.86L118.02,20.73L118.65,20.78z"/><path style="fill:#000020" d="M188.12,24.51L188.06,24.41L189.69,24.46z"/><path style="fill:#000020" d="M124.07,25.75L124.08,20.38L124.15,20.44z"/><path style="fill:#000020" d="M121.60,26.78L122.01,26.77L121.97,26.85L121.81,44.91L121.71,44.94z"/><path style="fill:#000020" d="M115.87,26.76L116.12,26.79L116.14,41.96L116.02,41.96L115.96,26.95z"/><path style="fill:#000020" d="M194.13,29.27L194.13,23.88L194.19,23.95z"/><path style="fill:#000020" d="M191.46,30.46L191.90,30.45L191.99,48.42L192.18,48.56L191.75,48.62L191.66,30.65z"/><path style="fill:#000020" d="M142.25,40.25L142.26,40.12L143.05,40.18z"/><path style="fill:#000020" d="M148.49,41.24L153.92,41.35L148.49,41.51L148.31,45.14L148.25,39.78L148.32,39.60L148.39,39.66z"/><path style="fill:#000020" d="M185.61,45.04L185.99,44.91L186.07,30.45L186.50,30.46L186.31,30.65L186.20,45.46L186.12,45.46L185.99,45.20z"/><path style="fill:#000020" d="M145.84,46.17L146.25,46.16L146.21,46.24L146.16,54.78L146.73,54.89L146.16,55.05L146.05,64.30L145.95,64.33z"/><path style="fill:#000020" d="M140.39,51.82L140.30,51.82L140.26,51.16L140.38,51.15z"/><path style="fill:#000020" d="M196.47,56.85L196.38,47.47L196.53,47.02z"/><path style="fill:#000020" d="M140.00,57.24L140.17,57.12L140.26,55.50L140.39,55.50L140.38,61.35L140.25,61.35L140.17,57.39z"/><path style="fill:#000020" d="M185.39,59.64L186.23,59.55L186.18,78.06L186.07,78.08L186.01,76.95L185.43,76.79L186.01,76.68L186.01,59.73z"/><path style="fill:#000020" d="M184.11,59.91L183.93,61.69L183.92,59.68L184.05,59.64L184.56,59.72z"/><path style="fill:#000020" d="M157.51,70.43L158.31,70.34L158.81,70.42z"/><path style="fill:#000020" d="M115.95,73.00L116.07,55.55L116.19,55.52L116.14,74.39L116.02,74.40z"/><path style="fill:#000020" d="M146.10,74.72L146.16,74.61L146.78,74.59z"/><path style="fill:#000020" d="M140.26,74.72L139.63,74.61L140.19,74.60z"/><path style="fill:#000020" d="M191.98,59.07L191.97,76.67L192.35,76.80L191.97,76.96L191.79,79.08L191.70,59.00L192.23,58.86z"/><path style="fill:#000020" d="M140.38,76.73L140.25,76.73L140.26,74.72L140.43,74.75z"/><path style="fill:#000020" d="M196.46,90.11L196.38,79.05L196.54,78.77z"/><path style="fill:#000020" d="M140.38,93.78L140.26,93.79L140.26,88.93L140.39,88.94z"/><path style="fill:#000020" d="M145.98,95.30L145.93,74.75L146.10,74.72z"/><path style="fill:#000020" d="M184.12,99.69L183.93,101.14L183.92,99.47L184.05,99.43L184.38,99.50z"/><path style="fill:#000020" d="M157.35,110.22L158.31,110.13L158.65,110.21z"/><path style="fill:#000020" d="M143.47,114.57L144.94,114.47L145.27,114.56z"/><path style="fill:#000020" d="M154.30,129.69L154.30,129.59L154.92,129.61z"/><path style="fill:#000020" d="M183.92,150.46L183.92,149.11L184.05,149.11z"/><path style="fill:#000020" d="M173.47,153.90L173.32,153.80L173.49,153.47z"/><path style="fill:#000020" d="M117.85,154.68L118.01,154.60L119.82,154.69z"/><path style="fill:#000020" d="M172.19,157.48L172.02,157.78L172.15,157.31z"/><path style="fill:#000020" d="M167.84,158.77L167.67,158.85L167.34,158.76L167.83,158.67z"/><path style="fill:#000020" d="M166.82,158.94L166.37,158.86L166.82,158.85z"/><path style="fill:#000020" d="M134.95,159.04L135.52,158.92L135.68,134.28L135.71,162.32L135.57,162.29L135.52,159.20z"/><path style="fill:#000020" d="M153.83,160.14L153.79,160.02L154.92,160.04z"/><path style="fill:#000020" d="M131.05,161.45L131.06,161.32L133.19,161.37z"/><path style="fill:#000020" d="M153.80,163.79L153.84,163.66L154.25,163.72z"/><path style="fill:#000020" d="M155.80,167.47L155.80,167.33L156.43,167.39z"/><path style="fill:#000020" d="M142.32,174.13L142.26,174.03L143.89,174.08z"/><path style="fill:#000020" d="M183.92,175.70L183.92,174.36L184.05,174.36z"/><path style="fill:#000020" d="M158.08,185.16L156.68,185.11L158.14,185.06z"/><path style="fill:#ccc1ba" d="M116.44,20.01L117.98,19.45L118.02,20.73L117.19,20.76L116.45,20.27z"/><path style="fill:#ccc1ba" d="M186.44,23.64L188.03,23.13L188.06,24.41L187.01,24.29L186.49,23.94z"/><path style="fill:#ccc1ba" d="M140.68,39.40L142.22,38.85L142.26,40.12L141.58,40.16L140.69,39.66z"/><path style="fill:#cccccc" d="M182.97,46.92L183.44,46.36L185.28,45.69L186.03,45.63L186.00,48.42L185.73,48.54L184.32,48.21L183.34,47.69L182.99,47.35z"/><path style="fill:#cccccc" d="M137.17,62.63L137.46,62.23L138.97,61.58L140.25,61.35L140.20,64.14L139.75,64.24L138.35,63.92L137.16,63.09z"/><path style="fill:#cccccc" d="M185.16,78.51L186.07,78.08L185.98,79.36L185.89,79.46L185.33,79.29L185.16,79.12z"/><path style="fill:#cccccc" d="M115.12,114.63L115.90,114.23L117.96,113.88L117.97,115.97L116.84,115.89L115.62,115.58L115.12,115.23z"/><path style="fill:#cccccc" d="M185.16,118.30L185.77,117.90L187.12,117.58L188.02,117.57L188.02,119.63L187.22,119.56L185.83,119.25L185.16,118.91z"/><path style="fill:#cccccc" d="M125.81,121.97L126.50,120.82L127.78,119.75L129.61,118.75L133.46,117.41L138.14,116.41L143.82,115.74L144.55,115.73L144.55,121.98L139.81,122.42L135.13,123.26L131.62,124.27L129.00,125.32L128.32,125.81L126.84,124.75L126.00,123.75L125.81,123.27z"/><path style="fill:#cccccc" d="M129.60,126.42L130.50,125.82L132.46,124.94L134.96,124.09L139.98,123.09L145.05,122.58L145.05,129.51L143.26,129.43L140.25,129.09L137.92,128.76L134.01,127.95L130.67,126.94z"/><path style="fill:#cccccc" d="M139.36,134.02L140.64,133.45L142.21,133.28L142.21,135.36L141.08,135.28L139.86,134.97L139.36,134.62z"/><path style="fill:#cccccc" d="M115.17,153.97L115.05,153.34L116.08,152.85L117.76,152.49L117.96,152.50L118.01,154.60L117.85,154.68L116.68,154.50L115.47,154.17z"/><path style="fill:#cccccc" d="M185.16,156.92L186.44,156.35L188.01,156.18L188.02,158.27L186.89,158.18L185.66,157.87L185.16,157.53z"/><path style="fill:#cccccc" d="M128.16,160.09L129.11,159.53L129.78,159.37L131.01,159.36L131.06,161.32L130.55,161.36L128.82,161.05L128.16,160.70z"/><path style="fill:#cccccc" d="M164.93,161.93L165.55,161.54L167.06,161.21L167.79,161.20L167.80,163.28L166.83,163.19L165.43,162.88L164.93,162.54z"/><path style="fill:#cccccc" d="M134.51,165.11L135.79,164.55L137.36,164.38L137.37,166.45L136.41,166.37L135.01,166.06L134.51,165.72z"/><path style="fill:#cccccc" d="M152.90,166.11L153.89,165.60L154.69,165.39L155.75,165.38L155.80,167.33L155.13,167.37L153.56,167.07L152.90,166.72z"/><path style="fill:#cccccc" d="M139.36,172.63L140.14,172.23L142.20,171.89L142.26,174.03L140.92,173.89L140.19,173.75L139.36,173.24z"/><path style="fill:#ffffff" d="M166.82,158.94L166.82,158.85L167.34,158.76L167.67,158.85z"/><g id="Actor_5.0"><g style="stroke:#000000;stroke-width:0.353;stroke-opacity:0.40"><path d="M127.10,18.19L127.11,17.62L127.29,17.06L127.63,16.50L128.03,16.06L128.13,15.95L128.79,15.42L129.60,14.91L130.56,14.41L130.86,14.28L131.65,13.94L132.88,13.50L134.23,13.09L135.69,12.72L137.26,12.38L138.83,12.10L140.66,11.82L142.47,11.61L144.33,11.44L146.24,11.32L148.18,11.24L150.13,11.21L152.08,11.23L154.02,11.29L155.94,11.40L157.03,11.49L157.82,11.56L159.65,11.76L161.41,12.01L163.10,12.29L164.69,12.62L166.19,12.99L167.57,13.39L167.91,13.50L168.84,13.82L169.98,14.28L170.97,14.77L171.83,15.28L172.53,15.80L173.08,16.35L173.48,16.90L173.70,17.47L173.77,18.03"/><path d="M127.11,13.06L127.14,13.86L127.50,14.66L128.19,15.43L129.18,16.18L130.47,16.89L132.05,17.55L133.88,18.15L135.94,18.69L138.21,19.15L140.64,19.52L143.22,19.82L145.90,20.02L148.64,20.13L151.40,20.15L154.15,20.07L156.85,19.89L159.46,19.63L161.95,19.28L164.27,18.84L166.39,18.33L166.94,18.16L168.30,17.75L169.95,17.11L171.32,16.41L172.41,15.68L173.19,14.91L173.64,14.12L173.77,13.32"/><path d="M173.41,19.16L172.99,19.71L172.41,20.25L171.68,20.78L170.79,21.28L169.77,21.76L168.60,22.22L168.29,22.33L167.31,22.64L165.91,23.03L164.39,23.39L162.78,23.71L161.07,23.99L159.30,24.22L157.46,24.42L155.57,24.56L153.65,24.66L151.70,24.72L149.75,24.72L147.80,24.68L145.87,24.60L143.97,24.46L142.11,24.28L140.32,24.06L138.59,23.79L136.95,23.48L135.40,23.14L133.96,22.75L132.63,22.34L131.43,21.89L130.36,21.42L129.44,20.92L128.65,20.40L128.03,19.86L127.55,19.31"/><path d="M172.69,11.40L173.20,12.18L173.40,12.96L173.27,13.75L172.82,14.53L172.06,15.28L170.99,16.01L169.63,16.69L168.01,17.32L166.14,17.89L164.05,18.40L161.76,18.82L159.32,19.17L156.75,19.43L154.09,19.60L151.39,19.68L148.67,19.66L145.97,19.56L143.34,19.36L140.80,19.07L138.40,18.70L136.17,18.24L134.14,17.72L132.34,17.13L130.79,16.48L129.52,15.78L128.54,15.04L127.87,14.28L127.52,13.50L127.48,12.71L127.77,11.93L128.38,11.16"/><path d="M128.02,11.49L128.95,10.73L130.19,10.02L131.70,9.35L133.48,8.73L135.50,8.19L136.55,7.96L137.73,7.71L140.14,7.32L142.69,7.01L145.35,6.79L148.08,6.66L150.84,6.63L153.60,6.69L156.31,6.85L158.94,7.10L161.45,7.44L163.86,7.87L165.98,8.35L167.93,8.92L169.63,9.55L171.07,10.24L172.21,10.97L173.05,11.73"/></g><g style="stroke:#000000;stroke-width:0.353;stroke-opacity:0.40"><path d="M127.45,19.12L127.24,18.75L127.10,18.19L127.11,13.06L127.41,12.27L128.02,11.49L128.38,11.16L129.30,10.42L130.51,9.71L132.00,9.05L133.76,8.45L135.74,7.91L137.93,7.45L140.30,7.06L142.81,6.75L145.43,6.54L148.11,6.41L150.83,6.38L153.55,6.44L156.22,6.60L158.17,6.78L158.80,6.84L161.28,7.17L163.60,7.59L165.73,8.08L167.65,8.64L169.33,9.26L170.74,9.93L171.86,10.65L173.05,11.73L173.57,12.52L173.77,13.32L173.77,18.03L173.67,18.60L173.41,19.16L172.61,20.52L171.35,22.46L170.02,24.26L169.66,24.73L168.30,26.37L166.89,27.87L165.03,29.58L163.55,30.75L163.11,31.07L161.64,32.05L161.17,32.31L159.72,33.10L159.25,33.32L157.84,33.92L157.39,34.09L156.90,34.26L155.64,34.63L155.21,34.75L154.74,34.86L154.24,34.96L153.71,35.04L152.49,35.21L152.06,35.25L151.62,35.29L151.17,35.31L150.72,35.32L150.26,35.32L149.81,35.31L149.36,35.29L148.91,35.26L148.48,35.22L147.30,35.07L146.76,34.98L146.25,34.89L145.78,34.78L145.33,34.66L144.10,34.30L143.60,34.14L143.13,33.97L141.75,33.38L141.26,33.16L139.34,32.12L137.42,30.84L135.95,29.68L135.54,29.32L134.08,27.98L132.67,26.49L132.30,26.06L130.92,24.39L129.61,22.60L128.35,20.67L127.45,19.12"/></g></g><g id="Actor_2.0"><g style="stroke:#000000;stroke-width:0.353"><path d="M111.50,53.37L111.50,53.35"/><path d="M111.50,43.54L111.72,43.98L112.25,44.41L113.08,44.79L114.16,45.12L120.52,46.67"/><path d="M116.18,41.91L115.35,42.05L114.32,42.33L113.55,42.67L113.07,43.06L112.90,43.46"/><path d="M137.33,60.10L134.40,59.69L131.62,59.20L129.01,58.63L126.60,58.00L124.42,57.30L122.48,56.54L120.80,55.73L119.40,54.88L118.30,54.00L117.49,53.08L116.99,52.15L116.80,51.21"/><path d="M125.00,43.27L124.68,42.87L124.04,42.50L123.14,42.19L122.01,41.95L121.76,41.91"/><path d="M138.26,45.27L136.41,45.62L134.26,46.14L132.33,46.73L130.66,47.37L129.27,48.08L128.17,48.82L127.39,49.60L126.92,50.40L126.79,51.21"/><path d="M129.42,54.26L130.66,53.63L132.33,52.98L134.26,52.39L136.41,51.88L138.76,51.44L140.45,51.20"/><path d="M130.74,54.90L131.71,54.32L133.15,53.68L133.97,53.38L134.86,53.10L136.79,52.58L138.94,52.13L140.45,51.89"/><path d="M135.77,62.92L135.98,63.37L136.52,63.79L137.34,64.18L138.43,64.50L139.72,64.76L141.17,64.93L142.71,65.01L144.27,64.99L145.78,64.88L147.19,64.69L148.42,64.41L149.42,64.06L150.16,63.66L150.59,63.23L152.04,60.86L152.04,70.69"/><path d="M137.16,62.84L137.34,62.43L137.81,62.06L138.59,61.71L139.62,61.44L140.45,61.30"/><path d="M149.26,62.65L148.94,62.25L148.31,61.89L147.41,61.57L146.28,61.33L146.03,61.30"/><path d="M170.09,54.91L168.91,54.24L167.43,53.61L165.69,53.03L163.72,52.52L161.55,52.08L159.21,51.72L156.73,51.45L155.90,51.39L154.16,51.27L151.54,51.18L148.89,51.19L146.04,51.31"/><path d="M171.38,54.27L170.61,53.85L169.01,53.18L167.16,52.57L165.08,52.03L162.78,51.57L160.31,51.18L157.71,50.89L155.00,50.68L152.23,50.57L149.43,50.56L146.64,50.64L146.04,50.68"/><path d="M148.37,44.33L149.43,44.30L152.23,44.32L155.00,44.43L157.71,44.63L160.32,44.93L162.78,45.31L165.08,45.78L167.17,46.32L169.02,46.93L170.61,47.59L171.92,48.31L172.92,49.07L173.61,49.85L173.98,50.66L174.01,51.47"/><path d="M152.04,60.86L155.28,60.77L158.47,60.59L161.59,60.32L164.60,59.97L167.48,59.53L170.20,59.01L172.74,58.42L175.06,57.76L177.16,57.04L179.00,56.27L180.58,55.44L181.87,54.58L182.87,53.68L183.56,52.76L183.95,51.83L184.02,50.89"/><path d="M186.25,45.54L185.42,45.68L184.39,45.96L183.62,46.30L183.13,46.68L182.97,47.09"/><path d="M183.77,49.95L191.58,49.13L192.99,48.93L194.22,48.65L195.23,48.31L195.96,47.91L196.39,47.47L196.50,47.02"/><path d="M195.07,46.89L194.74,46.50L194.11,46.13L193.21,45.82L192.08,45.57L191.83,45.54"/></g><g style="stroke:#000000;stroke-width:0.353"><path d="M116.80,55.59L114.16,54.95L113.07,54.62L112.25,54.24L111.72,53.82L111.50,53.37L111.50,43.54L111.61,43.08L112.05,42.65L112.78,42.25L113.79,41.90L115.02,41.63L116.18,41.46"/><path d="M125.00,43.27L125.00,43.67L124.67,44.07L124.04,44.44L123.13,44.75L122.00,44.99L120.70,45.15L119.32,45.22L117.91,45.20L116.56,45.08L115.34,44.87L114.32,44.59L113.54,44.25L113.06,43.87L112.90,43.46"/><path d="M120.52,46.67L119.18,47.53L118.12,48.42L117.37,49.34L116.93,50.27L116.80,51.21L116.80,61.04L116.98,61.98L117.48,62.91L118.29,63.83L119.40,64.71L120.80,65.56L121.76,66.03L122.48,66.37L124.42,67.13L126.60,67.83L129.01,68.47L131.61,69.03L134.40,69.52L135.77,69.71"/><path d="M138.11,42.08L135.68,42.38L132.83,42.83L130.14,43.36L123.78,41.81L122.48,41.56L121.77,41.47"/><path d="M140.45,57.32L139.26,57.16L136.87,56.74L134.68,56.23L132.71,55.66L130.98,55.02L129.53,54.32L128.37,53.59L127.52,52.81L126.99,52.02L126.79,51.21"/><path d="M183.77,49.95L184.02,50.89L184.01,60.72L183.94,61.66L183.56,62.59L182.87,63.51L181.87,64.41L180.57,65.28L179.00,66.10L177.15,66.87L175.06,67.60L172.97,68.19L172.73,68.25L170.20,68.84L167.48,69.36L164.60,69.80L161.59,70.15L158.47,70.42L155.28,70.60L152.04,70.69L150.59,73.06L150.15,73.49L149.42,73.89L148.41,74.24L147.18,74.52L145.78,74.71L144.26,74.82L142.70,74.84L141.16,74.76L139.72,74.59L138.42,74.33L137.34,74.01L136.51,73.62L135.98,73.20L135.76,72.75L135.77,62.92L135.88,62.47L137.33,60.10"/><path d="M140.45,55.46L138.94,55.70L136.79,56.15L135.66,56.46"/><path d="M149.26,62.65L149.26,63.06L148.94,63.45L148.30,63.82L147.39,64.13L146.26,64.37L144.97,64.53L143.58,64.60L142.17,64.58L140.82,64.46L139.60,64.26L138.58,63.97L137.81,63.63L137.73,63.57L137.33,63.25L137.16,62.84"/><path d="M174.01,51.47L173.71,52.27L173.09,53.06L172.15,53.83L170.90,54.55L169.36,55.23L167.56,55.85L165.52,56.40L163.27,56.88L160.83,57.28L158.25,57.59L155.56,57.81L152.80,57.94L150.00,57.98L147.21,57.91L146.03,57.84"/><path d="M146.03,54.88L148.89,54.76L151.54,54.76L154.16,54.84L156.73,55.03L159.21,55.30L161.55,55.65L163.72,56.09L165.19,56.47"/><path d="M186.25,45.08L178.68,45.88L176.79,45.11L174.65,44.40L172.28,43.75L169.71,43.17L166.96,42.67L164.05,42.24L161.02,41.90L157.88,41.65L154.68,41.48L151.44,41.41L148.37,41.42"/><path d="M195.07,46.89L195.06,47.30L194.74,47.70L194.11,48.06L193.20,48.37L192.07,48.62L190.77,48.78L189.38,48.85L187.98,48.82L186.63,48.71L185.41,48.50L184.38,48.22L183.61,47.88L183.13,47.49L182.97,47.09"/><path d="M191.83,45.10L192.55,45.19L193.85,45.44L194.93,45.77L195.75,46.15L196.29,46.58L196.50,47.02L196.50,56.85L196.39,57.31L195.96,57.74L195.22,58.14L194.22,58.48L192.98,58.76L191.58,58.96L184.01,59.75"/></g></g><g id="Actor_4.0"><g style="stroke:#000000;stroke-width:0.353"><path d="M111.46,153.72L111.67,154.17L112.21,154.59L113.03,154.98L114.12,155.31L120.48,156.86"/><path d="M115.03,153.50L115.33,153.19L115.92,152.92L116.76,152.70L117.76,152.57L118.87,152.52L119.97,152.56L120.85,152.67"/><path d="M116.75,161.40L116.94,162.34L117.44,163.27L118.25,164.18L119.36,165.07L120.76,165.92L122.44,166.73L124.38,167.48L126.56,168.18L128.96,168.82L131.57,169.38L134.35,169.87L137.29,170.28"/><path d="M123.92,163.91L123.99,163.74L124.24,163.59L124.64,163.47L125.15,163.38L135.79,162.27"/><path d="M128.09,160.22L128.39,159.91L128.98,159.64L129.81,159.42L130.82,159.28L131.92,159.23L133.03,159.28L134.05,159.41L134.91,159.61L135.52,159.88L135.73,160.08"/><path d="M142.24,165.60L142.22,165.28L141.89,164.97L141.27,164.70L140.42,164.49L139.40,164.36L138.29,164.32L137.19,164.37L136.18,164.51L135.35,164.72L134.76,165.00L134.46,165.31"/><path d="M135.72,173.10L135.94,173.55L136.47,173.98L137.30,174.36L138.38,174.69L139.67,174.94L141.12,175.11L142.66,175.19L144.22,175.18L145.74,175.07L147.14,174.87L148.37,174.59L149.38,174.25L150.11,173.85L150.54,173.41L152.00,171.05L151.99,185.35"/><path d="M147.08,173.18L147.06,172.86L146.73,172.55L146.11,172.28L145.26,172.07L144.24,171.94L143.13,171.90L142.03,171.95L141.02,172.09L140.19,172.30L139.60,172.58L139.30,172.89"/><path d="M143.95,168.85L143.96,168.68L146.86,163.96"/><path d="M150.13,164.81L150.13,162.89"/><path d="M152.00,171.05L155.24,170.96L158.43,170.77L161.55,170.51L164.56,170.15L167.44,169.71L170.16,169.20L172.69,168.61L175.02,167.95L177.11,167.23L178.96,166.45L180.53,165.63L181.83,164.77L182.82,163.87L183.52,162.95L183.90,162.01L183.97,161.07"/><path d="M160.63,166.55L160.61,166.23L160.28,165.92L159.66,165.65L159.31,165.57L158.81,165.44L157.79,165.31L156.68,165.27L155.58,165.32L154.57,165.46L153.73,165.68L153.15,165.95L152.85,166.26"/><path d="M158.14,159.84L158.33,159.91L158.33,163.97"/><path d="M172.24,166.24L172.19,166.07L171.96,165.92L171.58,165.79L158.57,162.62"/><path d="M158.33,159.91L174.31,158.24L174.88,158.21L175.46,158.23L175.99,158.30L176.42,158.42L176.70,158.57L176.81,158.73"/><path d="M159.71,161.36L159.61,160.93"/><path d="M164.87,162.13L165.17,161.82L165.76,161.54L166.59,161.33L167.60,161.19L168.70,161.14L169.81,161.18L170.83,161.31L171.68,161.52L172.30,161.79L172.63,162.10L172.65,162.42"/><path d="M196.46,157.21L196.35,157.66L195.91,158.09L195.18,158.49L194.18,158.84L192.94,159.12L191.54,159.31L183.73,160.13"/><path d="M192.88,157.43L192.87,157.10L192.54,156.79L191.92,156.52L191.06,156.32L190.04,156.18L188.93,156.14L187.83,156.19L186.82,156.33L185.99,156.55L185.40,156.82L185.10,157.13"/></g><g style="stroke:#000000;stroke-width:0.353"><path d="M117.04,151.57L116.38,151.62L114.97,151.81L113.74,152.09L112.74,152.44L112.00,152.84L111.57,153.27L111.46,153.72L111.45,168.02L111.67,168.47L112.20,168.90L113.03,169.28L114.11,169.61L116.75,170.25"/><path d="M121.11,154.59L120.09,154.74L118.98,154.79L117.87,154.75L116.85,154.61L116.00,154.41L115.38,154.14L115.05,153.83L115.03,153.50"/><path d="M135.72,184.37L134.35,184.17L131.56,183.68L128.96,183.12L126.55,182.48L124.37,181.78L122.43,181.03L120.75,180.22L119.35,179.37L118.24,178.48L117.44,177.57L116.94,176.64L116.75,175.70L116.75,161.40L116.88,160.45L117.32,159.52L118.08,158.60L119.13,157.71L120.48,156.86"/><path d="M123.92,163.91L124.03,164.08L124.32,164.23L124.74,164.34L125.17,164.40L125.85,164.43L126.45,164.40L137.05,163.29"/><path d="M128.09,160.22L128.11,160.55L128.44,160.85L129.05,161.12L129.91,161.33L130.93,161.46L132.04,161.50L133.14,161.45L134.15,161.32L134.98,161.10L135.57,160.83L135.73,160.66"/><path d="M142.24,165.60L141.94,165.91L141.35,166.19L140.52,166.40L139.97,166.48L139.51,166.54L138.41,166.59L137.30,166.55L136.28,166.42L135.42,166.21L134.81,165.94L134.47,165.63L134.46,165.31"/><path d="M137.29,170.28L135.83,172.65L135.72,173.10L135.72,187.40L135.93,187.85L136.47,188.28L137.29,188.66L138.37,188.99L139.67,189.24L141.12,189.41L142.65,189.49L144.21,189.48L145.66,189.37L147.14,189.17L148.37,188.89L149.37,188.55L150.11,188.15L150.54,187.71L151.99,185.35L155.23,185.26L158.42,185.07L161.54,184.81L164.55,184.45L167.43,184.01L170.15,183.50L172.69,182.91L175.01,182.25L177.11,181.53L178.95,180.75L180.53,179.93L181.82,179.07L182.82,178.17L183.51,177.25L183.90,176.31L183.97,175.37L183.97,161.07L183.73,160.13"/><path d="M139.30,172.89L139.32,173.21L139.65,173.52L140.26,173.79L141.12,174.00L142.14,174.13L143.25,174.17L144.35,174.12L145.36,173.98L146.19,173.77L146.78,173.49L147.08,173.18"/><path d="M143.95,168.85L144.12,169.01L144.46,169.15L144.92,169.25L145.47,169.31L146.06,169.31L146.62,169.26L147.10,169.16L147.45,169.03L147.64,168.87L150.61,164.02L152.10,163.98L153.55,163.86L154.92,163.68L156.17,163.44L169.18,166.62L169.68,166.70L170.25,166.74L170.83,166.73L171.37,166.66L171.81,166.55L172.11,166.41L172.24,166.24"/><path d="M146.93,169.20L146.93,163.95"/><path d="M152.85,166.26L152.86,166.58L153.19,166.89L153.81,167.16L154.66,167.37L155.69,167.50L156.79,167.54L157.90,167.49L158.90,167.35L159.74,167.14L160.33,166.87L160.63,166.55"/><path d="M153.81,160.04L153.80,163.83"/><path d="M159.71,161.36L159.56,161.80L159.18,162.22L158.57,162.62L158.57,164.03"/><path d="M159.61,161.67L159.61,160.93L175.58,159.26L176.10,159.18L176.49,159.05L176.74,158.90L176.81,158.73"/><path d="M164.87,162.13L164.88,162.45L165.21,162.76L165.83,163.03L166.68,163.24L167.71,163.37L168.81,163.41L169.92,163.36L170.93,163.22L171.76,163.01L172.35,162.73L172.65,162.42"/><path d="M183.97,174.41L191.53,173.61L192.94,173.42L194.17,173.14L195.17,172.79L195.91,172.39L196.34,171.96L196.45,171.51L196.46,157.21L196.24,156.76L195.71,156.34L194.88,155.95L193.80,155.62L192.51,155.37L191.06,155.20L189.52,155.12L187.96,155.14L186.45,155.24L178.63,156.06L176.74,155.29L174.60,154.58L173.09,154.17"/><path d="M192.88,157.43L192.58,157.74L191.99,158.01L191.16,158.23L190.15,158.36L189.05,158.41L187.94,158.37L186.92,158.24L186.07,158.03L185.45,157.76L185.12,157.46L185.10,157.13"/></g></g><g id="Actor_6.0"><g style="stroke:#000000;stroke-width:0.353"><path d="M140.53,39.45L142.30,38.84L145.02,38.98L145.02,40.06"/><path d="M142.30,40.25L142.30,38.84"/><path d="M145.02,38.98L145.96,39.73"/></g><g style="stroke:#000000;stroke-width:0.353"><path d="M138.83,45.71L138.34,45.40L138.11,45.04L138.11,39.89L138.19,39.54L138.23,39.47L138.45,39.21L138.51,39.16L138.89,38.92L139.46,38.68L140.09,38.50L140.82,38.36L141.63,38.25L142.49,38.19L143.37,38.18L144.25,38.21L145.10,38.28L145.89,38.40L146.59,38.55L147.19,38.75L147.73,38.99L148.06,39.23L148.12,39.29L148.30,39.55L148.34,39.62L148.35,39.70L148.37,39.97L148.36,45.06L148.11,45.43L147.56,45.76L146.73,46.05L145.68,46.27L144.48,46.40L143.20,46.44L141.92,46.39L140.73,46.25L139.70,46.03L138.88,45.74L138.83,45.71"/><path d="M140.42,95.37L140.44,74.67"/><path d="M140.46,46.19L140.45,64.40"/><path d="M145.96,39.73L144.19,40.34L141.47,40.20L140.53,39.45"/><path d="M146.00,95.38L146.02,74.68"/><path d="M146.04,46.19L146.03,64.40"/></g></g><g id="Actor_3.0"><g style="stroke:#000000;stroke-width:0.353"><path d="M120.51,78.41L114.15,76.86L113.07,76.53L112.24,76.15L111.71,75.72L111.49,75.28"/><path d="M115.07,75.06L115.37,74.75L115.95,74.47L116.16,74.42"/><path d="M116.79,82.95L116.97,83.89L117.47,84.82L118.28,85.74L119.39,86.62L120.79,87.47L122.47,88.28L124.41,89.04L126.59,89.74L129.00,90.37L131.60,90.94L134.39,91.43L137.32,91.84"/><path d="M121.74,74.42L121.88,74.45L122.50,74.72L122.83,75.03L122.85,75.35"/><path d="M140.44,76.76L140.11,76.80L137.70,77.20L135.47,77.67L133.46,78.22L132.53,78.52L131.68,78.83L130.16,79.50L128.93,80.22L127.99,80.97L127.38,81.75L127.08,82.55"/><path d="M135.75,94.66L135.97,95.11L136.50,95.53L137.33,95.92L138.41,96.24L139.71,96.50L141.15,96.67L142.69,96.75L144.25,96.73L145.77,96.62L147.17,96.43L148.40,96.15L149.41,95.80L150.14,95.40L150.58,94.97L152.03,92.60L152.02,110.47"/><path d="M139.33,94.44L139.63,94.13L140.22,93.86L140.42,93.80"/><path d="M147.11,94.73L147.10,94.41L146.76,94.10L146.15,93.83L146.00,93.80"/><path d="M146.02,76.24L148.05,76.15L150.81,76.12L153.57,76.18L156.28,76.34L158.91,76.58L161.42,76.92L163.78,77.34L165.95,77.84L167.90,78.41L169.60,79.04L171.04,79.72L172.18,80.45L173.02,81.22L173.55,82.00L173.74,82.80"/><path d="M152.03,92.60L155.27,92.51L158.46,92.33L161.59,92.06L164.59,91.71L167.47,91.27L170.19,90.75L172.73,90.16L175.05,89.50L177.15,88.78L178.99,88.01L180.56,87.18L181.86,86.32L182.86,85.42L183.55,84.50L183.93,83.57L184.00,82.63"/><path d="M183.76,81.69L191.57,80.87L192.98,80.67L194.21,80.39L195.21,80.05L195.95,79.65L196.38,79.21L196.49,78.76"/><path d="M186.23,78.05L186.02,78.10L185.43,78.38L185.13,78.69"/><path d="M192.91,78.98L192.90,78.66L192.57,78.35L191.95,78.08L191.80,78.04"/></g><g style="stroke:#000000;stroke-width:0.353"><path d="M116.78,95.38L114.14,94.74L113.06,94.41L112.23,94.02L111.70,93.60L111.48,93.15L111.49,75.28L111.60,74.83L112.03,74.39L112.77,73.99L113.77,73.65L115.00,73.37L116.16,73.21"/><path d="M115.07,75.06L115.08,75.38L115.41,75.69L116.07,75.97L116.89,76.17L117.91,76.30L119.01,76.34L120.12,76.29L121.13,76.15L121.96,75.94L122.55,75.66L122.85,75.35"/><path d="M120.51,78.41L119.16,79.27L118.11,80.16L117.36,81.08L116.91,82.01L116.79,82.95L116.78,100.83L116.97,101.77L117.47,102.70L118.27,103.61L119.38,104.50L120.78,105.35L122.46,106.16L124.40,106.91L126.58,107.61L128.99,108.25L131.60,108.81L134.38,109.30L135.75,109.50"/><path d="M121.74,73.21L122.47,73.30L123.76,73.55L130.12,75.10L132.81,74.57L135.66,74.12L137.18,73.93"/><path d="M127.08,82.55L127.12,83.35L127.48,84.14L128.16,84.92L129.15,85.67L130.45,86.38L132.02,87.04L133.85,87.64L135.91,88.17L138.18,88.63L140.43,88.98"/><path d="M183.76,81.69L184.00,82.63L184.00,100.50L183.93,101.44L183.54,102.38L182.85,103.30L181.85,104.20L180.56,105.06L178.98,105.88L177.14,106.66L175.04,107.38L172.97,107.97L172.72,108.04L170.18,108.63L167.46,109.14L164.58,109.58L161.57,109.94L158.45,110.20L155.26,110.39L152.02,110.47L150.57,112.84L150.14,113.28L149.40,113.68L148.40,114.02L147.17,114.30L145.76,114.50L144.25,114.61L143.38,114.61L142.69,114.62L141.15,114.54L139.70,114.37L138.41,114.12L137.32,113.79L136.50,113.41L135.96,112.98L135.75,112.53L135.75,94.66L135.86,94.22L137.32,91.84"/><path d="M147.11,94.73L146.81,95.05L146.22,95.32L145.39,95.54L144.38,95.67L143.28,95.72L142.17,95.68L141.15,95.55L140.30,95.34L139.68,95.07L139.35,94.76L139.33,94.44"/><path d="M173.74,82.80L173.61,83.60L173.16,84.39L172.38,85.16L171.30,85.90L169.92,86.59L169.55,86.73L168.27,87.23L166.36,87.81L164.24,88.33L161.92,88.76L159.43,89.11L156.83,89.38L154.13,89.55L151.37,89.63L148.61,89.62L146.01,89.51"/><path d="M186.23,76.83L178.66,77.62L176.77,76.85L174.63,76.14L172.27,75.49L169.70,74.91L166.95,74.41L163.86,73.96L161.00,73.64L157.87,73.39L154.67,73.22L151.42,73.15L150.50,73.15"/><path d="M191.81,76.84L192.54,76.93L193.83,77.18L194.92,77.51L195.74,77.89L196.27,78.32L196.49,78.76L196.48,96.64L196.37,97.09L195.94,97.52L195.21,97.92L194.20,98.27L192.97,98.55L191.56,98.74L184.00,99.54"/><path d="M192.91,78.98L192.61,79.29L192.03,79.57L191.19,79.78L190.18,79.92L189.08,79.97L187.98,79.93L186.95,79.80L186.10,79.59L185.48,79.32L185.15,79.01L185.13,78.69"/></g></g><g id="Actor_6.1"><g style="stroke:#000000;stroke-width:0.353"><path d="M116.26,20.07L118.04,19.46L118.04,20.87"/><path d="M118.04,19.46L120.76,19.60L121.70,20.35"/><path d="M120.76,19.60L120.76,20.68"/></g><g style="stroke:#000000;stroke-width:0.353"><path d="M116.19,26.81L115.43,26.65L114.62,26.36L114.08,26.02L113.85,25.65L113.84,20.51L113.92,20.16L113.96,20.08L114.19,19.83L114.25,19.78L114.62,19.54L115.14,19.33L115.83,19.12L116.56,18.98L117.36,18.87L118.22,18.81L119.11,18.79L119.99,18.82L120.84,18.90L121.62,19.02L122.33,19.17L122.92,19.36L123.46,19.61L123.79,19.85L123.85,19.91L124.03,20.17L124.07,20.24L124.08,20.32L124.10,20.59L124.10,25.68L123.85,26.05L123.29,26.38L122.46,26.67L121.41,26.88L120.21,27.02L118.94,27.06L117.66,27.01L116.47,26.87L116.19,26.81L116.18,45.01"/><path d="M116.17,55.44L116.16,75.99"/><path d="M121.70,20.35L119.92,20.96L118.34,20.88L117.21,20.82L116.26,20.07"/><path d="M121.74,66.02L121.74,76.00"/><path d="M121.76,45.02L121.78,26.81"/></g></g><g id="Actor_6.2"><g style="stroke:#000000;stroke-width:0.353"><path d="M186.33,23.70L188.11,23.09L188.11,24.49"/><path d="M188.11,23.09L190.82,23.23L190.82,24.30"/><path d="M190.82,23.23L191.76,23.98"/></g><g style="stroke:#000000;stroke-width:0.353"><path d="M184.15,29.65L184.69,29.99L185.50,30.28L186.26,30.44L186.53,30.50L187.73,30.64L189.00,30.69L190.28,30.65L191.48,30.51L192.53,30.29L193.36,30.01L193.92,29.67L194.17,29.31L194.17,24.21L194.15,23.95L194.14,23.87L194.10,23.79L193.92,23.53L193.86,23.48L193.53,23.24L192.99,22.99L192.39,22.80L191.69,22.64L190.90,22.53L190.06,22.45L189.18,22.42L188.29,22.44L187.43,22.50L186.62,22.60L185.89,22.75L185.26,22.93L184.69,23.17L184.31,23.40L184.26,23.46L184.03,23.71L183.99,23.78L183.91,24.13L183.92,29.28L184.15,29.65"/><path d="M186.23,79.62L186.24,59.52"/><path d="M186.25,48.64L186.26,30.44"/><path d="M191.76,23.98L189.99,24.59L187.27,24.45L186.33,23.70"/><path d="M191.80,79.62L191.82,58.93"/><path d="M191.85,30.44L191.83,48.65"/></g></g><g id="Actor_1.0"><g style="stroke:#000000;stroke-width:0.353"><path d="M111.47,115.06L111.69,115.51L112.22,115.93L113.05,116.32L114.13,116.64L120.49,118.20"/><path d="M115.05,114.84L115.35,114.53L115.94,114.26L116.77,114.04L117.78,113.91L118.88,113.85L119.99,113.90L121.01,114.03L121.87,114.24L122.48,114.50L122.81,114.81L122.83,115.14"/><path d="M116.77,122.74L116.96,123.68L117.46,124.61L118.27,125.52L119.37,126.41L120.78,127.26L122.45,128.07L124.39,128.82L126.57,129.52L128.98,130.16L131.59,130.72L134.37,131.21L137.30,131.62"/><path d="M117.30,152.10L117.33,150.87L117.37,150.31L117.43,149.79L117.50,149.34L117.59,148.95L117.70,148.63L117.83,148.38L117.98,148.21L118.15,148.11"/><path d="M125.74,122.64L125.90,121.81L126.41,121.00L127.23,120.20L128.37,119.44L129.81,118.72L131.52,118.06L133.49,117.46L135.69,116.92L137.69,116.54L138.08,116.47L140.65,116.10L143.38,115.81L146.13,115.63L148.98,115.53L151.85,115.54L154.69,115.63L157.48,115.83L160.17,116.11L162.73,116.49L165.13,116.94L167.32,117.48L169.28,118.09L170.99,118.75L172.42,119.47L173.56,120.24L174.38,121.03L174.87,121.85L175.03,122.68"/><path d="M172.52,125.80L172.42,125.73L170.99,125.01L169.28,124.34L167.32,123.74L165.12,123.20L162.73,122.74L160.17,122.37L157.48,122.08L154.76,121.89L151.84,121.79L148.98,121.79L146.13,121.88L143.34,122.07L140.64,122.36L138.08,122.73L135.68,123.18L133.49,123.71L131.52,124.31L129.80,124.98L128.37,125.70L128.24,125.78"/><path d="M129.56,126.46L130.18,126.03L131.52,125.34L133.15,124.71L135.02,124.14L137.12,123.64L139.41,123.22L141.86,122.88L144.43,122.62L147.09,122.46L149.80,122.40L152.52,122.43L155.21,122.55L157.82,122.76L160.33,123.07L162.69,123.46L165.00,123.96L166.85,124.47L168.58,125.08L170.05,125.75L171.23,126.46"/><path d="M183.99,122.41L183.92,123.35L183.53,124.29L182.84,125.21L181.84,126.10L180.55,126.97L178.97,127.79L177.13,128.57L175.03,129.29L172.71,129.95L170.17,130.54L167.45,131.05L164.57,131.49L161.59,131.84L158.44,132.11L155.25,132.29L152.01,132.38L150.56,134.75L150.13,135.19L149.39,135.59L148.39,135.93L147.16,136.21L145.75,136.41L144.24,136.52L142.68,136.53L141.14,136.45L139.69,136.28L138.40,136.03L137.31,135.70L136.49,135.32L135.95,134.89L135.74,134.44"/><path d="M139.32,134.23L139.61,133.91L140.20,133.64L141.04,133.43L142.04,133.29L143.15,133.24L144.25,133.28L145.28,133.41L146.13,133.62L146.75,133.89L147.08,134.20L147.09,134.52"/><path d="M154.79,129.68L153.48,129.61L150.97,129.55L148.44,129.57L145.90,129.67"/><path d="M152.01,132.38L152.00,160.09"/><path d="M179.35,155.31L179.32,154.68L179.26,154.07L179.16,153.50L179.01,152.98L178.83,152.52L178.60,152.11L178.34,151.77L178.04,151.50L177.70,151.30L177.34,151.18"/><path d="M183.74,121.47L191.55,120.65L192.96,120.46L194.19,120.18L195.20,119.83L195.93,119.43L196.36,119.00L196.47,118.55"/><path d="M192.90,118.76L192.88,118.44L192.55,118.13L191.93,117.86L191.08,117.65L190.06,117.52L188.95,117.48L187.85,117.53L186.84,117.67L186.01,117.89L185.42,118.16L185.12,118.47"/></g><g style="stroke:#000000;stroke-width:0.353"><path d="M116.76,144.99L114.12,144.35L113.04,144.02L112.21,143.64L111.68,143.21L111.46,142.77L111.47,115.06L111.59,114.61L112.02,114.17L112.66,113.83L112.75,113.78L113.76,113.43L114.99,113.15L116.39,112.96L117.91,112.85L119.47,112.83L121.01,112.91L122.45,113.08L123.75,113.34L130.11,114.89L132.80,114.36L135.65,113.91L137.16,113.72"/><path d="M122.83,115.14L122.53,115.45L121.94,115.72L121.11,115.94L120.10,116.08L119.00,116.13L117.89,116.08L116.87,115.95L116.02,115.75L115.40,115.48L115.07,115.17L115.05,114.84"/><path d="M120.49,118.20L119.15,119.05L118.09,119.94L117.34,120.86L116.90,121.79L116.77,122.74L116.76,150.44L116.95,151.38L117.30,152.10L120.61,151.76"/><path d="M118.15,148.11L118.34,148.10L118.55,148.17L118.78,148.31L119.01,148.53L119.26,148.83L119.51,149.20L119.76,149.62L120.00,150.11L120.23,150.65L120.45,151.23L120.64,151.85L120.81,152.50L120.95,153.16L121.04,153.83L121.10,154.49L121.12,155.15L122.44,155.77L124.38,156.53L126.56,157.23L128.97,157.86L131.58,158.43L134.36,158.92L135.73,159.11"/><path d="M175.03,122.68L174.86,123.51L174.36,124.32L173.54,125.12L172.40,125.88L170.96,126.60L169.25,127.26L167.28,127.86L165.08,128.40L162.69,128.85L160.12,129.22L157.43,129.50L154.64,129.69L151.79,129.79L148.92,129.79L146.08,129.69L143.29,129.49L140.60,129.21L138.04,128.83L135.64,128.38L133.45,127.84L131.48,127.24L129.78,126.57L128.35,125.85L127.21,125.09L126.39,124.29L125.90,123.47L125.74,122.64"/><path d="M137.30,131.62L135.85,133.99L135.74,134.44L135.73,162.15L135.94,162.60L136.48,163.02L137.30,163.41L138.39,163.73L139.68,163.99L141.13,164.16L142.66,164.24L144.22,164.22L145.74,164.11L147.15,163.92L148.38,163.64L149.38,163.29L150.12,162.89L150.55,162.46L152.00,160.09L155.24,160.00L158.43,159.82L161.55,159.55L164.56,159.20L167.44,158.76L170.16,158.24L172.13,157.79L172.17,157.14L172.26,156.48L172.41,155.83L172.63,155.18L172.89,154.56L173.20,153.97L173.55,153.41L173.94,152.91L174.35,152.45L174.78,152.06L175.22,151.73L175.66,151.47L176.10,151.28L176.53,151.17L176.95,151.13L177.34,151.18"/><path d="M147.09,134.52L146.80,134.83L146.21,135.10L145.37,135.32L144.37,135.46L143.26,135.51L142.16,135.47L141.13,135.34L140.28,135.13L139.66,134.86L139.33,134.55L139.32,134.23"/><path d="M183.98,149.15L191.54,148.36L192.95,148.16L194.18,147.88L195.19,147.54L195.92,147.14L196.35,146.71L196.46,146.25L196.47,118.55L196.26,118.10L195.73,117.67L194.90,117.29L193.82,116.96L192.52,116.71L191.07,116.54L189.54,116.46L187.98,116.47L186.46,116.58L178.66,117.40L176.76,116.63L174.62,115.92L172.25,115.27L169.68,114.70L166.93,114.19L164.02,113.77L160.99,113.43L157.85,113.17L154.65,113.01L151.41,112.93L150.48,112.93"/><path d="M173.51,153.48L173.52,153.89L179.35,155.31L180.54,154.67L181.83,153.81L182.83,152.91L183.52,151.99L183.91,151.06L183.98,150.12L183.99,122.41L183.74,121.47"/><path d="M192.90,118.76L192.60,119.08L192.01,119.35L191.18,119.56L190.17,119.70L189.07,119.75L187.96,119.71L186.94,119.58L186.08,119.37L185.47,119.10L185.13,118.79L185.12,118.47"/></g></g><g/><g/><g id="paperID" visibility="hidden" opacity="0.00" transform="scale(0.000100)"><path style="stroke:#000000;stroke-width:0.500;fill:#e6e6e6;fill-rule:evenodd" d="M-2000.00,-2000.00L2297.00,-2000.00L2297.00,2210.00L-2000.00,2210.00zM0.00,0.00L297.00,0.00L297.00,210.00L0.00,210.00z"/><path style="fill:#000000;fill-opacity:0.118" d="M3.00,210.00L297.00,210.00L297.00,3.00L300.00,3.00L300.00,213.00L3.00,213.00z"/></g><g><g><path style="stroke:#000000;stroke-width:0.353;fill:#f0f0ff" d="M7.15,86.66L81.10,86.66L81.10,91.70L7.15,91.70z"/><text xml:space="preserve" fill="#000000" stroke-width="0" x="9.08" y="90.54" font-size="3.61" opacity="1.00" font-family="Consolas" font-weight="bold">Description</text><text xml:space="preserve" fill="#000000" stroke-width="0" x="57.36" y="90.54" font-size="3.56" opacity="1.00" font-family="Consolas" font-weight="bold">BOM ID</text><text xml:space="preserve" fill="#000000" stroke-width="0" x="73.16" y="90.54" font-size="3.58" opacity="1.00" font-family="Consolas" font-weight="bold">Qty</text><path style="stroke:#000000;stroke-width:0.353" d="M55.42,86.66L55.42,91.70"/><path style="stroke:#000000;stroke-width:0.353" d="M71.22,86.66L71.22,91.70"/></g><g id="Line1"><path style="stroke:#000000;stroke-width:0.353;fill:#ffffff" d="M7.15,91.70L81.10,91.70L81.10,96.75L7.15,96.75z"/><text xml:space="preserve" fill="#000000" stroke-width="0" x="9.08" y="95.58" font-size="3.63" opacity="1.00" font-family="Consolas">Condensor Mount 1</text><text xml:space="preserve" fill="#000000" stroke-width="0" x="57.36" y="95.58" font-size="3.21" opacity="1.00" font-family="Consolas">1</text><text xml:space="preserve" fill="#000000" stroke-width="0" x="73.16" y="95.58" font-size="3.21" opacity="1.00" font-family="Consolas">1</text><path style="stroke:#000000;stroke-width:0.353" d="M55.42,91.70L55.42,96.75"/><path style="stroke:#000000;stroke-width:0.353" d="M71.22,91.70L71.22,96.75"/></g><g id="Line2"><path style="stroke:#000000;stroke-width:0.353;fill:#f0f0ff" d="M7.15,96.75L81.10,96.75L81.10,101.79L7.15,101.79z"/><text xml:space="preserve" fill="#000000" stroke-width="0" x="9.08" y="100.63" font-size="3.63" opacity="1.00" font-family="Consolas">Condensor Mount 2</text><text xml:space="preserve" fill="#000000" stroke-width="0" x="57.36" y="100.63" font-size="3.17" opacity="1.00" font-family="Consolas">2</text><text xml:space="preserve" fill="#000000" stroke-width="0" x="73.16" y="100.63" font-size="3.21" opacity="1.00" font-family="Consolas">1</text><path style="stroke:#000000;stroke-width:0.353" d="M55.42,96.75L55.42,101.79"/><path style="stroke:#000000;stroke-width:0.353" d="M71.22,96.75L71.22,101.79"/></g><g id="Line3"><path style="stroke:#000000;stroke-width:0.353;fill:#ffffff" d="M7.15,101.79L81.10,101.79L81.10,106.83L7.15,106.83z"/><text xml:space="preserve" fill="#000000" stroke-width="0" x="9.08" y="105.67" font-size="3.61" opacity="1.00" font-family="Consolas">Illumination Body</text><text xml:space="preserve" fill="#000000" stroke-width="0" x="57.36" y="105.67" font-size="3.11" opacity="1.00" font-family="Consolas">3</text><text xml:space="preserve" fill="#000000" stroke-width="0" x="73.16" y="105.67" font-size="3.21" opacity="1.00" font-family="Consolas">1</text><path style="stroke:#000000;stroke-width:0.353" d="M55.42,101.79L55.42,106.83"/><path style="stroke:#000000;stroke-width:0.353" d="M71.22,101.79L71.22,106.83"/></g><g id="Line4"><path style="stroke:#000000;stroke-width:0.353;fill:#f0f0ff" d="M7.15,106.83L81.10,106.83L81.10,111.88L7.15,111.88z"/><text xml:space="preserve" fill="#000000" stroke-width="0" x="9.08" y="110.71" font-size="3.55" opacity="1.00" font-family="Consolas">LED Base</text><text xml:space="preserve" fill="#000000" stroke-width="0" x="57.36" y="110.71" font-size="3.50" opacity="1.00" font-family="Consolas">4</text><text xml:space="preserve" fill="#000000" stroke-width="0" x="73.16" y="110.71" font-size="3.21" opacity="1.00" font-family="Consolas">1</text><path style="stroke:#000000;stroke-width:0.353" d="M55.42,106.83L55.42,111.88"/><path style="stroke:#000000;stroke-width:0.353" d="M71.22,106.83L71.22,111.88"/></g><g id="Line6"><path style="stroke:#000000;stroke-width:0.353;fill:#ffffff" d="M7.15,111.88L81.10,111.88L81.10,116.92L7.15,116.92z"/><text xml:space="preserve" fill="#000000" stroke-width="0" x="9.08" y="115.76" font-size="3.62" opacity="1.00" font-family="Consolas">M3 Bolts</text><text xml:space="preserve" fill="#000000" stroke-width="0" x="57.36" y="115.76" font-size="3.25" opacity="1.00" font-family="Consolas">6</text><text xml:space="preserve" fill="#000000" stroke-width="0" x="73.16" y="115.76" font-size="3.11" opacity="1.00" font-family="Consolas">3</text><path style="stroke:#000000;stroke-width:0.353" d="M55.42,111.88L55.42,116.92"/><path style="stroke:#000000;stroke-width:0.353" d="M71.22,111.88L71.22,116.92"/></g><g id="Line5"><path style="stroke:#000000;stroke-width:0.353;fill:#f0f0ff" d="M7.15,116.92L81.10,116.92L81.10,121.97L7.15,121.97z"/><text xml:space="preserve" fill="#000000" stroke-width="0" x="9.08" y="120.80" font-size="3.63" opacity="1.00" font-family="Consolas">Thorlabs ACL2520U-DG15</text><text xml:space="preserve" fill="#000000" stroke-width="0" x="57.36" y="120.80" font-size="3.07" opacity="1.00" font-family="Consolas">5</text><text xml:space="preserve" fill="#000000" stroke-width="0" x="73.16" y="120.80" font-size="3.21" opacity="1.00" font-family="Consolas">1</text><path style="stroke:#000000;stroke-width:0.353" d="M55.42,116.92L55.42,121.97"/><path style="stroke:#000000;stroke-width:0.353" d="M71.22,116.92L71.22,121.97"/></g></g><g id="hotspot.0" ident="" onmouseover="ShowHotSpot(evt,&apos;0&apos;)" onmouseout="HideHotSpot(evt,&apos;0&apos;)" onmousemove="ShowToolTip(evt,&apos;0&apos;,&quot;Condensor Mount 1&quot;)" opacity="0"><path style="fill:#00ff00;fill-rule:evenodd" d="M7.15,91.70L7.15,96.75L81.10,96.75L81.10,91.70zM157.85,113.14L165.04,113.89L172.73,115.37L177.92,117.12L181.08,117.11L185.79,116.61L192.06,116.62L194.29,117.11L196.30,118.08L196.30,146.71L195.46,147.36L193.23,148.11L184.12,149.16L183.90,151.17L182.80,153.04L179.85,155.05L178.43,155.04L173.34,153.80L172.72,154.87L171.98,157.85L171.17,158.02L163.55,159.34L152.05,160.23L150.66,162.31L149.60,163.24L146.61,163.97L139.75,163.97L137.51,163.48L136.05,162.71L135.77,162.25L135.57,159.23L135.32,158.98L130.82,158.27L125.12,156.79L121.41,155.28L121.14,154.56L120.66,151.81L117.18,151.82L116.93,151.09L116.73,145.09L116.47,144.85L112.71,143.90L111.66,143.21L111.73,114.46L113.89,113.39L116.86,112.89L121.16,112.89L122.89,113.14L129.08,114.64L131.24,114.63L135.70,113.89L137.77,113.88L138.49,114.15L140.00,114.38L146.36,114.38L149.42,113.71L150.83,112.87z"/></g><g id="hotspot.1" ident="" onmouseover="ShowHotSpot(evt,&apos;1&apos;)" onmouseout="HideHotSpot(evt,&apos;1&apos;)" onmousemove="ShowToolTip(evt,&apos;1&apos;,&quot;Condensor Mount 2&quot;)" opacity="0"><path style="fill:#00ff00;fill-rule:evenodd" d="M7.15,96.75L7.15,101.79L81.10,101.79L81.10,96.75zM159.34,41.74L167.52,42.73L174.96,44.46L178.17,45.71L180.08,45.70L186.13,45.20L186.28,48.51L186.58,48.71L191.26,48.70L191.81,48.51L191.98,45.19L192.80,45.21L195.29,45.95L196.54,46.93L196.54,56.95L196.29,57.45L195.20,58.10L193.73,58.60L184.04,59.83L183.90,61.91L183.56,62.57L182.17,64.15L180.08,65.54L175.38,67.53L170.24,68.84L162.56,70.08L152.04,70.72L150.45,73.34L148.36,74.23L145.37,74.71L140.99,74.71L138.00,74.23L136.03,73.22L135.79,69.74L129.33,68.52L124.87,67.28L120.69,65.51L118.19,63.79L117.18,62.33L116.93,61.59L116.69,55.63L112.47,54.39L111.73,53.89L111.71,43.03L112.72,42.31L114.37,41.73L116.20,41.47L116.35,45.05L121.66,45.05L121.82,41.47L122.11,41.46L129.58,43.23L130.75,43.22L136.69,42.24L138.03,42.22L138.27,45.20L138.77,45.69L140.50,46.20L140.51,55.46L135.94,56.37L136.50,56.63L140.51,57.34L140.65,64.39L142.72,64.55L143.89,64.55L145.96,64.39L146.12,57.83L154.05,57.85L159.83,57.44L164.52,56.63L164.79,56.36L159.83,55.37L155.12,54.88L146.11,54.72L146.11,46.20L147.61,45.71L148.21,45.31L148.34,41.48L155.62,41.49z"/></g><g id="hotspot.2" ident="" onmouseover="ShowHotSpot(evt,&apos;2&apos;)" onmouseout="HideHotSpot(evt,&apos;2&apos;)" onmousemove="ShowToolTip(evt,&apos;2&apos;,&quot;Illumination Body&quot;)" opacity="0"><path style="fill:#00ff00;fill-rule:evenodd" d="M7.15,101.79L7.15,106.83L81.10,106.83L81.10,101.79zM159.34,73.47L167.52,74.47L174.96,76.20L178.17,77.45L180.08,77.44L186.13,76.93L186.28,79.50L186.58,79.70L189.49,79.93L191.52,79.70L191.82,79.50L191.98,76.93L194.05,77.19L195.79,77.93L196.54,78.91L196.54,96.62L196.07,97.39L194.05,98.35L184.04,99.50L183.89,101.57L183.64,102.31L182.90,103.31L181.80,104.20L179.34,105.70L175.44,107.26L169.93,108.69L161.32,110.00L152.81,110.41L151.91,110.75L150.66,112.73L149.42,113.71L146.36,114.38L140.00,114.38L138.49,114.15L136.03,113.14L135.81,109.64L135.57,109.39L131.07,108.68L126.11,107.45L122.65,106.20L120.16,104.96L118.45,103.70L117.18,102.24L116.93,101.50L116.73,95.51L116.47,95.27L112.71,94.31L111.74,93.55L111.74,74.55L114.37,73.46L116.20,73.20L116.35,76.04L117.44,76.20L120.58,76.20L121.66,76.04L121.82,73.20L129.58,74.97L130.75,74.96L137.26,73.95L140.25,74.71L140.41,95.37L141.23,95.54L145.13,95.54L145.95,95.37L146.11,74.70L149.67,73.80L150.57,73.21L155.37,73.23z"/></g><g id="hotspot.3" ident="" onmouseover="ShowHotSpot(evt,&apos;3&apos;)" onmouseout="HideHotSpot(evt,&apos;3&apos;)" onmousemove="ShowToolTip(evt,&apos;3&apos;,&quot;LED Base&quot;)" opacity="0"><path style="fill:#00ff00;fill-rule:evenodd" d="M7.15,106.83L7.15,111.88L81.10,111.88L81.10,106.83zM117.20,151.79L120.66,151.81L121.14,154.56L121.41,155.28L125.12,156.79L130.82,158.27L135.32,158.98L135.57,159.23L135.77,162.25L136.05,162.71L137.51,163.48L139.75,163.97L146.61,163.97L149.60,163.24L150.66,162.31L152.05,160.23L163.55,159.34L171.17,158.02L171.98,157.85L172.71,154.87L173.13,154.26L173.71,154.28L177.92,155.80L181.08,155.79L185.79,155.29L192.06,155.29L194.29,155.80L196.30,156.75L196.30,172.00L195.29,172.73L192.98,173.40L184.04,174.37L183.90,176.46L182.87,178.16L180.30,180.06L176.37,181.82L169.50,183.63L161.07,184.87L152.55,185.28L151.91,185.63L150.57,187.76L148.86,188.77L146.36,189.26L140.00,189.26L138.49,189.03L136.05,188.00L135.77,187.54L135.55,184.29L129.82,183.32L124.62,181.83L120.44,180.06L118.45,178.57L117.18,177.12L116.93,176.38L116.73,170.38L116.47,170.14L112.71,169.19L111.66,168.50L111.73,153.14L113.89,152.07L116.94,151.55z"/></g><g id="hotspot.4" ident="" onmouseover="ShowHotSpot(evt,&apos;4&apos;)" onmouseout="HideHotSpot(evt,&apos;4&apos;)" onmousemove="ShowToolTip(evt,&apos;4&apos;,&quot;Thorlabs ACL2520U-DG15&quot;)" opacity="0"><path style="fill:#00ff00;fill-rule:evenodd" d="M7.15,116.92L7.15,121.97L81.10,121.97L81.10,116.92zM158.59,6.78L164.54,7.77L168.76,9.01L171.74,10.49L172.75,11.47L173.73,12.96L173.73,18.52L171.90,21.66L168.51,26.20L166.05,28.70L162.59,31.43L159.09,33.39L155.60,34.61L153.55,35.04L147.44,35.04L144.94,34.56L140.99,33.06L137.04,30.56L134.07,27.83L132.08,25.85L128.62,21.13L127.34,18.94L127.34,12.55L128.37,11.09L130.50,9.75L133.47,8.52L137.44,7.52L145.13,6.53L155.62,6.53z"/></g><g id="hotspot.5" ident="" onmouseover="ShowHotSpot(evt,&apos;5&apos;)" onmouseout="HideHotSpot(evt,&apos;5&apos;)" onmousemove="ShowToolTip(evt,&apos;5&apos;,&quot;socket head cap screw_iso&quot;)" opacity="0"><path style="fill:#00ff00;fill-rule:evenodd" d="M7.15,111.88L7.15,116.92L81.10,116.92L81.10,111.88zM123.65,19.66L124.14,20.40L124.15,25.72L123.93,25.99L121.82,26.86L121.66,45.05L116.35,45.05L116.19,26.86L114.23,26.10L113.97,25.87L113.97,20.00L115.44,19.24L116.61,18.93L121.15,18.93zM192.81,22.89L194.07,23.61L194.07,29.44L193.70,29.82L192.05,30.40L191.81,48.51L191.26,48.70L186.58,48.71L186.28,48.51L186.15,30.55L184.13,29.59L184.13,23.47L185.28,22.89L188.26,22.40L189.59,22.40zM147.19,38.76L148.20,39.49L148.21,45.31L147.61,45.71L146.11,46.20L145.96,64.39L143.89,64.55L142.72,64.55L140.65,64.39L140.50,46.20L138.77,45.69L138.27,45.20L138.26,39.34L139.91,38.51L141.41,38.27L145.20,38.27zM116.93,61.59L117.18,62.33L117.95,63.53L119.20,64.52L121.65,66.03L121.66,76.04L120.58,76.20L117.44,76.20L116.35,76.04L116.39,55.58L116.67,55.58zM145.94,74.69L145.95,95.37L145.13,95.54L141.23,95.54L140.41,95.37L140.42,74.69zM186.28,79.50L186.27,59.58L190.00,59.09L191.83,59.08L191.82,79.50L191.52,79.70L189.49,79.93L186.58,79.70z"/></g><g id="ToolTip" visibility="hidden" opacity="0" transform="translate(0,0)"><rect id="ToolTipShadow" opacity="0.20" fill="black" stroke="none" x="0" y="0" width="30" height="8"/><rect id="ToolTipBG" fill="#ffffe1" stroke="black" x="0" y="0" width="30" height="8"/><text xml:space="preserve" id="ToolTipText" fill="black" x="0" y="0" width="30" height="8">tooltip</text></g></g></svg>