<?xml version="1.0" encoding="UTF-8" standalone="yes"?><svg xmlns="http://www.w3.org/2000/svg" xmlns:xlink="http://www.w3.org/1999/xlink" width="297.000mm" height="210.000mm" viewBox="0.000000 0.000000 297.000000 210.000000" stroke-linejoin="round" stroke-linecap="round" fill="none" fill-rule="evenodd"><desc>Composer Export</desc><script type="text/ecmascript"><![CDATA[
if(typeof(top) != "undefined")
{
	top.ShowPaper = ShowPaper;
}
function ShowHotSpot(evt,hotspotid)
{
	var svgDocument = evt.target.ownerDocument;
	var strId = "hotspot."+hotspotid;
	var hotspot = svgDocument.getElementById(strId);
	if(hotspot)
		hotspot.setAttribute("opacity",".5");
}
function HideHotSpot(evt,hotspotid)
{
	var svgDocument = evt.target.ownerDocument;
	var strId = "hotspot."+hotspotid;
	var hotspot = svgDocument.getElementById(strId);
	if(hotspot)
		hotspot.setAttribute("opacity","0");

	var toolTip = svgDocument.getElementById('ToolTip');
	if(toolTip)
		toolTip.setAttribute("visibility","hidden");
}
function ShowToolTip(evt,hotspotid,strTooltip)
{
	if(strTooltip=="")
	return;

	// change text
	var svgDocument = evt.target.ownerDocument;
	var tiptext = svgDocument.getElementById('ToolTipText');
	if( !tiptext )
	return;
	tiptext.firstChild.nodeValue = " " + strTooltip + "  " ;

	// show tooltip before, else some refresh issue

	var toolTip = svgDocument.getElementById('ToolTip');
	if(!toolTip)
	return;

	toolTip.setAttribute("visibility","visible");
	toolTip.setAttribute("opacity",".95");

	// move tooltip
	// get viewbox

	var root = svgDocument.documentElement;
	var vbox = (root.getAttribute("viewBox")).split(' ');
	var x0 = parseFloat(vbox[0]);
	var y0 = parseFloat(vbox[1]);
	var vboxW = parseFloat(vbox[2]);
	var vboxH = parseFloat(vbox[3]);

	// get default width of svg

	var strW = root.getAttribute("width");
	var svgW = parseFloat(strW);
	if(strW.indexOf('mm') != -1)
	svgW *= 3.779;

	var strH = root.getAttribute("height");
	var svgH = parseFloat(strH);
	if(strH.indexOf('mm') != -1)
	svgH *= 3.779;  	// 96 dpi  -> 96/25.4 = 3.779

	// update the viewbox / width / height if svg is embedded in html with zoom fit all
	var realx0 = x0;
	var realy0 = y0;
	var realvboxW = vboxW;
	var realvboxH = vboxH;
	var realsvgW = svgW;
	var realsvgH = svgH;

	if ((typeof(top) == "undefined") || (typeof(top.svgctl1) != "undefined")) // embedded in html
	{
		// get window size in pxl

		svgW = window.innerWidth;
		svgH = window.innerHeight;

		// calculate real viewbox

		realsvgW = svgW;
		realsvgH = svgH;
		if((svgW / svgH) > (vboxW / vboxH))
		{
			realvboxW = (vboxH * svgW) / svgH;
			realvboxH = vboxH;
			realx0 = x0 - (realvboxW - vboxW)/2 ;
		}
		else
		{
			realvboxH = (vboxW * svgH) / svgW;
			realvboxW = vboxW;
			realy0 = y0 - (realvboxH - vboxH)/2 ;
		}
	}

	// get user zoom/pan

	var newScale = root.currentScale;
	var translation = root.currentTranslate;

	// transform pxl to user unit

	var xPos = (((evt.clientX+10- translation.x)/newScale) * realvboxW)/realsvgW  + realx0 ;
	var yPos = (((evt.clientY+5- translation.y)/newScale) * realvboxH)/ realsvgH  + realy0 ;
	var scaleForWidth = ( (1 / newScale) * realvboxH) / realsvgH;

	// move tooltip

	toolTip.setAttribute("transform", "translate(" + xPos + "," + yPos + ")" );

	// resize tooltip

	var fontsize = 12;
	tiptext.setAttribute("font-size",fontsize*scaleForWidth);
	tiptext.setAttribute("y", fontsize*scaleForWidth);
	var tipBG = svgDocument.getElementById('ToolTipBG');
	var outline = tiptext.getBBox();
	if(tipBG)
	{
		tipBG.setAttribute("stroke-width", 1*scaleForWidth);
		tipBG.setAttribute("width", Number(outline.width) );
		tipBG.setAttribute("height", Number(outline.height) + fontsize*.5*scaleForWidth );
	}
	var ToolTipShadow = svgDocument.getElementById('ToolTipShadow');
	if(ToolTipShadow)
	{
		ToolTipShadow.setAttribute("width", Number(outline.width) );
		ToolTipShadow.setAttribute("height", Number(outline.height) + fontsize*.5*scaleForWidth );
		ToolTipShadow.setAttribute("x", 3*scaleForWidth);
		ToolTipShadow.setAttribute("y", 3*scaleForWidth);
	}
}
function ShowPaper()
{
  var svgDocument = getDocument();
  var paper = svgDocument.getElementById("paperID");
  if(paper)
  {
    paper.setAttribute("transform","scale(1)");
    paper.setAttribute("opacity","1");
    paper.setAttribute("visibility","visible");
  }
  var svg = svgDocument.getRootElement();
  if(svg)
  {
    svg.setAttribute("width","307.000mm");
    svg.setAttribute("height","220.000mm");
    svg.setAttribute("viewBox","-5.000000 -5.000000 307.000000 220.000000");
  }
}
]]></script><defs/><g><path style="fill:#ffffff" d="M296.84,209.91L0.05,209.91L0.05,0.05L296.84,0.05z"/><path style="fill:#404040" d="M139.91,24.61L143.10,24.61L145.10,24.44L145.05,31.71L142.65,31.82L134.67,31.83L134.30,31.70L134.19,28.30L132.96,28.31L132.00,28.52L131.85,32.05L130.56,32.14L129.55,32.06L128.94,31.88L128.98,28.18L129.08,28.07L129.68,27.97L129.06,27.96L128.50,28.20L128.35,31.93L127.37,31.90L126.20,31.80L125.75,31.81L126.20,31.89L127.22,31.96L128.39,32.06L129.39,32.13L130.56,32.22L131.51,32.33L132.34,32.30L132.40,32.89L131.94,32.99L132.33,33.16L132.51,36.90L132.69,32.93L132.72,32.29L133.41,32.13L134.02,32.14L134.11,33.04L134.23,33.08L134.86,32.99L134.41,32.91L134.45,32.15L135.69,32.15L135.75,37.45L134.89,37.49L133.75,37.25L133.69,33.14L133.57,33.05L133.12,32.96L133.22,33.12L133.24,37.42L131.39,37.25L131.41,32.95L131.51,32.79L131.07,32.79L130.27,32.82L131.07,32.92L131.06,37.26L130.32,37.18L129.83,36.99L129.38,37.07L129.33,32.81L129.23,37.08L128.67,36.82L127.25,36.60L127.08,36.44L127.09,34.27L127.29,32.63L127.48,32.63L127.66,36.40L127.67,32.48L126.90,32.45L126.71,32.39L126.04,32.26L125.98,32.16L125.36,32.15L125.09,32.05L124.99,31.78L125.00,30.75L125.50,30.39L125.58,28.59L125.80,27.79L125.75,23.57L126.87,23.61z"/><path style="fill:#000020" d="M130.56,32.22L129.39,32.13L129.55,32.06L130.56,32.14z"/><path style="fill:#333333" d="M134.30,31.70L134.67,31.83L142.65,31.82L145.05,31.71L145.10,24.44L145.43,24.36L152.80,23.52L153.07,23.63L153.17,30.58L153.15,30.75L152.95,31.10L152.46,31.24L151.91,31.42L151.92,32.27L151.98,32.44L151.78,32.63L151.66,32.60L151.56,31.47L151.19,31.45L150.95,31.62L150.78,31.63L149.83,31.64L149.85,32.69L149.95,32.80L150.08,36.78L150.16,36.95L150.13,37.10L149.61,37.08L149.59,32.93L149.30,32.72L149.38,31.80L148.00,31.82L147.95,31.92L146.99,31.98L146.90,32.88L146.78,32.97L146.45,32.90L146.54,31.96L144.83,31.99L144.77,32.09L143.64,32.14L143.56,33.05L143.28,33.16L142.92,33.06L142.88,32.14L141.81,32.15L141.75,37.41L141.29,37.46L141.28,33.30L141.55,33.16L141.28,33.06L141.21,32.14L139.97,32.15L139.89,33.11L139.43,33.06L139.52,32.13L138.13,32.14L138.04,33.06L137.92,33.15L137.59,33.07L137.53,32.14L136.29,32.15L136.24,37.41L135.75,37.45L135.69,32.15L134.45,32.15L134.41,32.91L134.23,33.08L134.11,33.04L134.02,32.14L133.41,32.13L132.61,32.13L132.72,32.29L132.69,32.93L132.40,32.89L132.34,32.30L131.51,32.33L130.56,32.22L130.56,32.14L131.85,32.05L132.00,28.52L132.96,28.31L134.19,28.30z"/><path style="fill:#404040" d="M144.81,33.06L145.08,33.09L145.60,33.10L145.60,37.41L144.27,37.41L144.19,33.13L144.00,33.13L143.89,33.93L143.80,37.12L143.77,37.42L143.09,37.48L141.75,37.41L141.81,32.15L142.88,32.14L142.92,33.06L142.47,33.16L143.28,33.16L143.56,33.05L143.64,32.14L144.77,32.09z"/><path style="fill:#beffff" d="M135.51,20.11L139.54,20.16L139.61,19.94L139.72,19.90L139.81,20.34L140.70,20.45L144.90,20.73L145.05,21.92L145.36,22.31L147.94,22.37L148.86,22.31L149.06,22.18L149.15,21.06L152.29,21.38L155.14,21.04L155.46,21.05L156.64,21.10L156.64,21.19L154.17,21.45L154.74,21.63L157.48,21.70L157.57,21.78L144.49,23.29L142.95,23.29L143.39,23.12L142.20,22.96L140.48,22.96L139.30,23.12L139.68,23.30L142.72,23.40L142.33,23.63L142.26,24.54L139.91,24.61L126.87,23.61L125.75,23.57L125.65,23.46L124.53,23.44L120.19,23.11L118.96,22.97L118.96,21.67L120.02,21.52L120.51,21.62L120.58,21.84L124.68,21.78L124.52,21.61L120.86,21.52L120.86,21.44L128.88,20.52L129.69,20.57L129.79,21.00L130.15,21.13L132.56,21.20L133.48,21.14L133.78,20.75L134.05,19.92L134.90,19.85L135.41,19.93z"/><path style="fill:#cccccc" d="M126.59,68.11L127.02,67.88L127.03,68.52L126.64,68.43z"/><path style="fill:#333333" d="M146.38,37.07L146.51,33.16L146.61,33.13L146.62,37.25L146.50,37.34L145.60,37.41L145.60,33.10L146.22,33.15z"/><path style="fill:#404040" d="M152.46,31.24L152.95,31.10L152.97,32.25L152.83,32.29L152.76,32.12L152.76,31.41z"/><path style="fill:#404040" d="M150.73,31.75L150.52,31.80L150.52,32.70L150.71,32.84L150.80,36.93L150.16,36.95L150.08,36.78L150.05,32.83L149.95,32.80L149.85,32.69L149.83,31.64L150.78,31.63z"/><path style="fill:#404040" d="M137.59,33.07L136.95,33.16L137.92,33.15L138.04,33.06L138.13,32.14L139.52,32.13L139.43,33.06L139.08,33.14L138.57,33.13L138.46,33.16L138.41,37.57L136.24,37.41L136.29,32.15L137.53,32.14z"/><path style="fill:#404040" d="M147.78,37.25L146.62,37.25L146.61,33.13L146.78,32.97L146.90,32.88L146.99,31.98L147.95,31.92z"/><path style="fill:#808080" d="M128.67,36.82L129.23,37.08L129.38,37.07L129.83,36.99L130.32,37.18L131.06,37.26L131.39,37.25L133.24,37.42L133.63,37.35L133.75,37.25L134.89,37.49L135.68,37.55L135.75,37.45L136.24,37.41L138.41,37.57L138.92,37.42L141.20,37.56L141.29,37.46L141.75,37.41L143.09,37.48L143.93,37.50L144.27,37.41L145.60,37.41L146.50,37.34L146.62,37.25L147.78,37.25L148.50,37.17L148.62,37.09L149.61,37.08L150.13,37.10L150.22,37.18L149.34,37.33L144.81,37.66L144.49,37.84L144.38,39.56L144.30,69.21L144.26,69.34L133.23,69.25L130.72,69.08L129.05,68.91L127.15,68.61L127.03,68.52L127.02,67.88L127.00,66.87L127.00,66.69L127.09,56.51L127.25,36.60z"/><path style="fill:#808080" d="M133.23,89.81L142.76,89.97L144.27,90.10L144.05,116.80L133.18,116.74L128.22,116.35L128.15,116.25L127.60,116.23L128.22,116.35L129.00,116.57L134.06,117.06L142.76,117.15L143.95,117.21L144.01,136.85L144.18,136.97L144.10,157.27L143.77,157.35L142.59,157.34L134.90,157.34L131.72,157.18L129.72,157.01L127.48,156.70L126.68,156.31L126.67,144.59L126.83,135.69L127.15,135.51L127.25,134.41L127.33,116.23L127.25,116.18L127.00,115.89L126.92,112.51L127.12,89.65L127.21,89.56L128.71,89.64z"/><path style="fill:#bfffc0" d="M158.44,21.45L157.79,21.60L157.48,21.70L154.74,21.63L154.17,21.45L156.64,21.19L157.48,21.26z"/><path style="fill:#cccccc" d="M149.12,77.19L147.77,77.36L147.04,77.67L146.40,78.36L146.04,79.34L146.04,80.64L146.41,81.74L144.89,81.81L144.54,81.14L144.53,79.17L144.89,78.52L145.48,77.78L146.83,77.12L147.73,76.97z"/><path style="fill:#000020" d="M135.57,19.85L135.41,19.93L134.90,19.85L135.57,19.76z"/><path style="fill:#333333" d="M153.63,32.08L153.53,32.18L152.97,32.25L152.95,31.10L153.31,31.04L153.64,31.09z"/><path style="fill:#333333" d="M150.90,32.28L151.12,32.63L151.16,35.28L151.17,36.62L151.06,36.90L150.80,36.93L150.71,32.84L150.52,32.70L150.52,31.80L150.73,31.75z"/><path style="fill:#333333" d="M148.42,32.74L148.33,32.82L148.59,32.97L148.62,37.09L148.50,37.17L147.78,37.25L147.95,31.92L148.40,31.98z"/><path style="fill:#333333" d="M145.26,32.90L145.08,33.09L144.81,33.06L144.77,32.09L145.22,32.14z"/><path style="fill:#333333" d="M139.08,33.27L139.03,37.24L138.92,37.42L138.41,37.57L138.46,33.16L138.57,33.13z"/><path style="fill:#404040" d="M152.46,32.41L151.98,32.44L151.92,32.27L151.91,31.42L152.46,31.24z"/><path style="fill:#404040" d="M151.12,32.63L150.90,32.28L150.95,31.62L151.19,31.45L151.56,31.47L151.66,32.60L151.66,36.62L151.60,36.77L151.17,36.62L151.16,35.28L151.22,32.66z"/><path style="fill:#404040" d="M141.28,33.06L140.30,33.16L141.28,33.30L141.29,37.46L141.20,37.56L138.92,37.42L139.03,37.24L139.08,33.27L139.87,33.21L139.89,33.11L139.97,32.15L141.21,32.14z"/><path style="fill:#98cccc" d="M159.20,21.63L159.83,21.43L159.94,21.47L159.93,22.68L159.49,22.78L153.45,23.42L152.80,23.52L145.43,24.36L145.10,24.44L143.10,24.61L142.26,24.54L142.33,23.63L142.72,23.40L142.95,23.29L144.49,23.29L157.57,21.78L157.48,21.70L157.79,21.60z"/><path style="fill:#000019" d="M155.97,21.53L155.34,21.45L155.97,21.43z"/><path style="fill:#000019" d="M153.64,31.09L153.31,31.04L153.15,30.75L153.17,30.58L153.46,30.58z"/><path style="fill:#000019" d="M139.08,33.27L138.57,33.13L139.08,33.14z"/><path style="fill:#000019" d="M149.94,69.34L149.45,69.25L149.91,69.21z"/><path style="fill:#666666" d="M151.60,36.77L151.58,46.30L151.32,68.69L150.46,68.84L150.11,69.07L149.91,69.21L149.45,69.25L148.28,69.17L147.44,69.17L146.11,69.25L144.30,69.21L144.38,39.56L144.49,37.84L144.81,37.66L149.34,37.33L150.22,37.18L150.13,37.10L150.16,36.95L150.80,36.93L151.06,36.90L151.17,36.62z"/><path style="fill:#666666" d="M133.18,116.74L144.05,116.80L144.27,90.10L147.78,90.07L151.45,90.14L151.32,115.85L151.07,116.14L151.06,135.62L151.12,135.70L150.88,136.01L150.12,136.41L149.49,136.46L150.04,136.51L150.12,136.41L151.23,136.17L151.44,136.07L151.49,142.60L151.42,156.43L151.24,156.59L149.45,156.94L148.79,157.01L148.00,157.03L147.90,157.13L144.10,157.27L144.18,136.97L144.01,136.85L143.95,117.21L144.05,117.06L142.76,117.15L134.06,117.06L129.00,116.57L128.22,116.35z"/><path style="fill:#bfffc0" d="M137.80,19.95L139.08,19.85L139.61,19.94L139.54,20.16L135.51,20.11L135.41,19.93L135.57,19.85z"/><path style="fill:#bfffc0" d="M124.68,21.78L120.58,21.84L120.51,21.62L120.86,21.52L124.52,21.61z"/><path style="fill:#bfffc0" d="M143.39,23.12L142.95,23.29L142.72,23.40L139.68,23.30L139.30,23.12L140.48,22.96L142.20,22.96z"/><path style="fill:#fff2e8" d="M150.08,77.60L150.98,78.40L150.17,78.80L150.18,80.98L149.50,82.30L148.44,82.88L147.54,82.82L146.73,82.29L146.41,81.74L146.04,80.64L146.04,79.34L146.40,78.36L147.04,77.67L147.77,77.36L149.12,77.19z"/><path style="fill:#ccc1ba" d="M151.57,79.46L151.57,80.86L151.35,81.47L150.49,82.46L149.96,82.79L149.10,82.89L148.44,82.88L149.50,82.30L150.18,80.98L150.17,78.80L150.98,78.40L151.07,78.47z"/><path style="fill:#ccc1ba" d="M148.01,80.30L147.16,80.36L147.21,79.50L147.53,78.99L148.23,78.96z"/><path style="fill:#beffff" d="M135.57,19.85L135.57,19.76L139.08,19.76L139.08,19.85L137.80,19.95z"/><path style="fill:#beffff" d="M159.67,21.35L159.83,21.43L159.20,21.63L157.79,21.60L158.44,21.45L157.48,21.26L157.63,21.20z"/><path style="fill:#beffff" d="M156.65,21.53L155.97,21.53L155.97,21.43L156.65,21.43z"/><path style="fill:#cccccc" d="M133.77,17.87L133.78,20.75L133.48,21.14L132.56,21.20L132.61,18.10L133.45,17.92L133.69,17.77z"/><path style="fill:#cccccc" d="M155.14,21.04L152.29,21.38L152.34,19.27L155.11,19.04z"/><path style="fill:#cccccc" d="M149.15,21.06L149.06,22.18L148.86,22.31L147.94,22.37L147.99,19.27L148.84,19.09L149.07,18.94z"/><path style="fill:#cccccc" d="M107.10,70.76L106.42,71.82L106.45,74.33L104.88,74.51L104.58,73.61L104.59,73.00L104.75,71.98L105.44,71.00L105.70,70.76L106.44,70.62z"/><path style="fill:#cccccc" d="M108.17,71.69L108.61,73.49L108.41,73.63L107.26,73.62L107.25,72.32L107.71,71.76L108.11,71.61z"/><path style="fill:#cccccc" d="M173.13,76.43L173.14,78.01L171.12,78.14L171.11,76.49L171.61,75.99L172.64,75.94z"/><path style="fill:#cccccc" d="M176.40,75.71L176.40,76.90L176.32,79.03L174.19,80.44L172.69,80.61L172.33,80.53L174.32,79.20L174.41,75.94L175.93,75.79L176.33,75.61z"/><path style="fill:#cccccc" d="M106.99,80.60L106.25,82.01L106.26,83.14L106.44,84.03L104.88,84.20L104.59,83.31L104.59,82.18L104.94,81.20L105.70,80.45L106.66,80.44z"/><path style="fill:#cccccc" d="M108.44,82.13L108.44,83.37L107.20,83.37L107.27,81.86L107.72,81.44L108.09,81.46z"/><path style="fill:#cccccc" d="M127.83,88.82L132.01,88.99L140.87,89.16L156.75,89.39L156.91,71.15L159.79,70.86L159.91,89.05L160.02,88.78L161.27,88.88L161.37,70.59L164.27,70.31L164.44,69.92L164.45,88.55L163.71,89.32L162.15,89.56L161.49,89.64L160.98,89.64L159.81,89.57L159.51,89.31L159.32,89.57L159.10,89.74L158.49,89.98L156.98,90.14L151.45,90.14L147.78,90.07L144.27,89.97L142.76,89.97L133.23,89.81L128.71,89.64L127.21,89.56L126.04,89.47L104.14,87.80L102.74,87.66L101.80,86.93z"/><path style="fill:#cccccc" d="M148.00,157.83L147.88,158.09L147.37,158.23L146.78,158.98L145.81,159.03L146.71,159.07L146.78,158.98L147.91,158.78L147.99,160.33L147.87,160.75L147.45,160.99L146.65,161.04L147.37,161.08L147.45,160.99L148.18,160.88L148.57,160.71L148.55,165.27L148.35,165.41L147.61,165.53L147.16,165.54L147.11,165.66L146.99,165.71L146.95,166.97L146.64,167.22L146.47,176.70L146.40,176.83L145.77,177.24L145.27,177.33L143.93,177.49L142.77,177.57L140.42,177.66L135.57,177.57L133.39,177.40L132.33,177.27L131.81,177.07L131.78,176.91L137.35,177.25L141.14,177.25L142.04,177.15L142.09,167.67L142.89,167.56L142.26,167.46L142.21,166.21L135.40,166.04L136.25,165.96L142.42,165.96L144.22,165.89L142.92,165.79L142.97,161.53L143.72,161.37L142.64,161.27L142.52,159.38L142.32,159.23L142.38,158.77L142.55,158.59L142.59,157.47L143.77,157.35L144.10,157.27L147.90,157.13z"/><path style="fill:#cccccc" d="M134.24,165.96L133.11,165.89L134.24,165.87z"/><path style="fill:#000020" d="M139.72,19.90L139.61,19.94L139.08,19.85L139.08,19.76L139.70,19.77z"/><path style="fill:#000020" d="M134.05,19.92L133.78,20.75L133.77,17.87L133.85,17.92z"/><path style="fill:#000020" d="M129.69,20.57L128.88,20.52L129.67,20.45z"/><path style="fill:#000020" d="M155.41,20.97L155.46,21.05L155.14,21.04L155.11,19.04L155.26,18.94z"/><path style="fill:#000020" d="M157.63,21.20L157.48,21.26L156.64,21.19L156.64,21.10z"/><path style="fill:#000020" d="M156.65,21.53L156.65,21.43L157.10,21.45z"/><path style="fill:#000020" d="M120.86,21.52L120.51,21.62L120.02,21.52L120.86,21.44z"/><path style="fill:#000020" d="M145.05,21.92L144.90,20.73L145.04,19.10z"/><path style="fill:#000020" d="M152.80,23.52L153.45,23.42L153.40,23.51L153.40,30.48L153.46,30.58L153.17,30.58L153.07,23.63z"/><path style="fill:#000020" d="M124.53,23.44L125.65,23.46L125.75,23.57L125.80,27.79L125.58,28.59L125.49,23.62z"/><path style="fill:#000020" d="M139.91,24.61L142.26,24.54L143.10,24.61z"/><path style="fill:#000020" d="M153.46,30.58L153.73,30.65L153.92,30.97L153.83,31.94L153.74,31.15L153.64,31.09z"/><path style="fill:#000020" d="M126.20,31.89L125.75,31.81L126.20,31.80z"/><path style="fill:#000020" d="M128.39,32.06L127.22,31.96L127.37,31.90L128.35,31.93z"/><path style="fill:#000020" d="M132.72,32.29L132.61,32.13L133.41,32.13z"/><path style="fill:#000020" d="M126.04,32.26L125.36,32.15L125.98,32.16z"/><path style="fill:#000020" d="M126.71,32.39L126.11,32.36L126.04,32.26z"/><path style="fill:#000020" d="M126.90,32.45L127.67,32.48L127.66,36.40L127.48,32.63L127.29,32.63L127.09,34.27z"/><path style="fill:#000020" d="M149.59,32.93L148.59,32.97L148.33,32.82L148.42,32.74L149.30,32.72z"/><path style="fill:#000020" d="M131.07,32.92L130.27,32.82L131.07,32.79z"/><path style="fill:#000020" d="M145.60,33.10L145.08,33.09L145.26,32.90L145.60,32.97z"/><path style="fill:#000020" d="M134.23,33.08L134.41,32.91L134.86,32.99z"/><path style="fill:#000020" d="M131.94,32.99L132.40,32.89L132.69,32.93L132.51,36.90L132.33,33.16z"/><path style="fill:#000020" d="M142.47,33.16L142.92,33.06L143.28,33.16z"/><path style="fill:#000020" d="M141.28,33.30L140.30,33.16L141.28,33.06L141.55,33.16z"/><path style="fill:#000020" d="M139.87,33.21L139.08,33.27L139.08,33.14L139.43,33.06L139.89,33.11z"/><path style="fill:#000020" d="M136.95,33.16L137.59,33.07L137.92,33.15z"/><path style="fill:#000020" d="M151.16,35.28L151.12,32.63L151.22,32.66z"/><path style="fill:#000020" d="M151.66,36.62L151.66,32.60L151.78,32.63z"/><path style="fill:#000020" d="M143.09,37.48L143.77,37.42L143.93,37.50z"/><path style="fill:#000020" d="M135.68,37.55L134.89,37.49L135.75,37.45z"/><path style="fill:#000020" d="M127.25,36.60L127.09,56.51L127.08,36.44z"/><path style="fill:#000020" d="M127.00,66.87L126.60,66.76L127.00,66.69z"/><path style="fill:#000020" d="M151.56,68.66L151.32,68.69L151.58,46.30z"/><path style="fill:#000020" d="M150.56,69.28L149.94,69.34L149.91,69.21L150.11,69.07z"/><path style="fill:#000020" d="M176.40,76.90L176.40,75.71L176.47,75.76z"/><path style="fill:#000020" d="M172.05,80.64L172.33,80.53L172.69,80.61z"/><path style="fill:#000020" d="M148.88,81.19L148.66,81.14L148.92,80.81z"/><path style="fill:#000020" d="M149.10,82.89L149.96,82.79L149.68,82.99L149.22,82.97z"/><path style="fill:#000020" d="M101.80,86.93L101.69,86.88L101.75,72.26z"/><path style="fill:#000020" d="M160.02,88.78L159.91,89.05L159.79,70.86L159.94,70.76z"/><path style="fill:#000020" d="M159.81,89.57L159.32,89.57L159.51,89.31z"/><path style="fill:#000020" d="M126.04,89.47L127.21,89.56L127.12,89.65L126.92,112.51L126.83,89.65z"/><path style="fill:#000020" d="M144.27,90.10L142.76,89.97L144.27,89.97z"/><path style="fill:#000020" d="M143.95,117.21L142.76,117.15L144.05,117.06z"/><path style="fill:#000020" d="M127.25,134.41L127.25,116.18L127.33,116.23z"/><path style="fill:#000020" d="M151.49,142.60L151.44,136.07L151.50,135.90L151.58,135.95z"/><path style="fill:#000020" d="M142.59,157.47L134.90,157.34L142.59,157.34z"/><path style="fill:#000020" d="M148.17,157.19L148.00,157.83L147.90,157.13L148.00,157.03L148.79,157.01z"/><path style="fill:#000020" d="M147.99,160.33L147.91,158.78L148.07,158.69z"/><path style="fill:#000020" d="M147.11,165.66L147.16,165.54L147.61,165.53z"/><path style="fill:#000020" d="M130.79,165.53L131.34,165.54L131.14,165.72L131.00,166.79z"/><path style="fill:#000020" d="M147.04,166.94L146.95,166.97L146.99,165.71L147.11,165.66z"/><path style="fill:#000020" d="M142.09,167.67L139.79,167.56L142.09,167.54z"/><path style="fill:#333333" d="M129.08,28.07L128.98,28.18L128.94,31.88L129.55,32.06L129.39,32.13L128.39,32.06L128.35,31.93L128.50,28.20L129.06,27.96z"/><path style="fill:#333333" d="M127.37,31.90L127.22,31.96L126.20,31.89L126.20,31.80z"/><path style="fill:#333333" d="M152.76,31.41L152.70,31.47L152.76,32.12L152.83,32.29L152.46,32.41L152.46,31.24z"/><path style="fill:#333333" d="M129.38,37.07L129.23,37.08L129.33,32.81z"/><path style="fill:#333333" d="M131.39,37.25L131.06,37.26L131.07,32.92L131.41,32.95z"/><path style="fill:#333333" d="M144.27,37.41L143.93,37.50L143.77,37.42L143.80,37.12L143.89,33.93L144.00,33.13L144.19,33.13z"/><path style="fill:#333333" d="M133.75,37.25L133.63,37.35L133.24,37.42L133.22,33.12L133.57,33.05L133.69,33.14z"/><path style="fill:#404040" d="M132.44,29.98L133.36,29.98L133.37,30.36L133.11,30.82L132.68,30.83L132.51,30.65z"/><path style="fill:#404040" d="M153.31,31.04L152.95,31.10L153.15,30.75z"/><path style="fill:#404040" d="M147.95,31.92L148.00,31.82L149.38,31.80L149.30,32.72L148.42,32.74L148.40,31.98z"/><path style="fill:#404040" d="M144.77,32.09L144.83,31.99L146.54,31.96L146.45,32.90L145.60,32.97L145.26,32.90L145.22,32.14z"/><path style="fill:#404040" d="M149.61,37.08L148.62,37.09L148.59,32.97L149.59,32.93z"/><path style="fill:#000019" d="M129.08,28.07L129.06,27.96L129.68,27.97z"/><path style="fill:#000019" d="M153.83,31.94L153.63,32.08L153.64,31.09L153.74,31.15z"/><path style="fill:#000019" d="M152.76,32.12L152.70,31.47L152.76,31.41z"/><path style="fill:#000019" d="M150.90,32.28L150.73,31.75L150.78,31.63L150.95,31.62z"/><path style="fill:#000019" d="M131.41,32.95L131.07,32.92L131.07,32.79L131.51,32.79z"/><path style="fill:#000019" d="M145.60,33.10L145.60,32.97L146.45,32.90L146.78,32.97L146.61,33.13L146.51,33.16L146.38,37.07L146.22,33.15z"/><path style="fill:#000019" d="M133.57,33.05L133.22,33.12L133.12,32.96z"/><path style="fill:#000019" d="M150.08,36.78L149.95,32.80L150.05,32.83z"/><path style="fill:#000019" d="M144.26,69.34L144.30,69.21L146.11,69.25z"/><path style="fill:#000019" d="M106.99,80.60L106.66,80.44L107.11,80.45z"/><path style="fill:#000019" d="M147.78,90.07L144.27,90.10L144.27,89.97z"/><path style="fill:#000019" d="M142.59,157.47L142.59,157.34L143.77,157.35z"/><path style="fill:#000019" d="M142.42,165.96L142.92,165.79L144.22,165.89z"/><path style="fill:#000019" d="M136.25,165.96L135.40,166.04L134.24,165.96L134.24,165.87z"/><path style="fill:#000019" d="M142.09,167.67L142.09,167.54L142.26,167.46L142.89,167.56z"/><path style="fill:#666666" d="M128.22,116.35L127.60,116.23L128.15,116.25z"/><path style="fill:#808080" d="M151.50,135.90L151.44,136.07L151.23,136.17L150.12,136.41L150.88,136.01L151.12,135.70z"/><path style="fill:#808080" d="M150.04,136.51L149.49,136.46L150.12,136.41z"/><path style="fill:#ffffff" d="M146.71,159.07L145.81,159.03L146.78,158.98z"/><path style="fill:#ffffff" d="M147.37,161.08L146.65,161.04L147.45,160.99z"/><g id="Actor_1.0"><g style="stroke:#000000;stroke-width:0.353"><path d="M151.53,136.00L151.33,136.21L150.74,136.40L149.78,136.58L148.47,136.75L147.39,136.84L146.87,136.88L145.01,136.99L142.97,137.07L140.80,137.10L138.58,137.11L136.38,137.07L134.27,137.00L132.31,136.90L130.57,136.77L129.66,136.67L129.11,136.61L127.97,136.43L127.19,136.24L126.79,136.03L126.79,135.83"/><path d="M127.34,135.90L127.49,136.10L128.03,136.30L128.95,136.48L130.22,136.65L131.79,136.80L133.61,136.91L135.61,136.99L137.74,137.04L139.92,137.05L142.07,137.03L144.12,136.97L146.00,136.87L147.39,136.76L147.64,136.75L149.00,136.59L150.02,136.42L150.67,136.23L150.93,136.03"/></g><g style="stroke:#000000;stroke-width:0.353"><path d="M150.93,135.66L151.33,135.80L151.53,136.00L151.47,156.31L151.27,156.51L150.68,156.71L149.72,156.89L148.41,157.05L146.81,157.19L144.95,157.29L142.91,157.37L140.74,157.41L138.53,157.41L136.32,157.38L134.21,157.31L132.25,157.20L130.51,157.07L129.05,156.91L127.91,156.73L127.13,156.54L126.73,156.34L126.79,135.83L127.19,135.63L127.35,135.59"/><path d="M127.40,116.21L127.34,135.90"/><path d="M150.93,136.03L150.98,116.25"/></g></g><g id="Actor_4.0"><g style="stroke:#000000;stroke-width:0.353"><path d="M172.44,79.02L172.23,79.02L172.03,78.99L171.64,78.79L171.31,78.44L171.09,77.98L170.99,77.47L171.03,76.95L171.19,76.48L171.47,76.12L171.77,75.93L171.84,75.89L172.24,75.84"/><path d="M172.23,80.65L174.42,79.21L176.42,78.98"/><path d="M174.42,79.21L174.43,75.99L172.25,74.21"/><path d="M174.43,75.99L176.43,75.76"/></g><g style="stroke:#000000;stroke-width:0.353"><path d="M170.66,79.38L170.04,78.87L170.05,75.65L172.25,74.21L174.24,73.99L176.43,75.76L176.42,78.98L174.22,80.42L172.23,80.65L170.66,79.38"/><path d="M172.44,79.02L172.83,78.88L173.16,78.58L173.38,78.16L173.48,77.66L173.45,77.13L173.29,76.64L173.01,76.23L172.65,75.96L172.24,75.84"/><path d="M173.34,78.24L173.31,78.21L173.08,77.76L172.98,77.24L173.02,76.72L173.13,76.41"/></g></g><g id="Actor_2.0"><g style="stroke:#000000;stroke-width:0.353"><path d="M127.15,115.96L127.71,116.17L128.66,116.36L129.97,116.53L131.60,116.68L133.48,116.80L135.55,116.89L137.75,116.94L140.00,116.95L142.23,116.92L144.34,116.86L146.29,116.76L147.99,116.63L149.39,116.47L150.45,116.29L151.12,116.09L151.39,115.89"/><path d="M127.24,36.61L127.39,36.82L127.95,37.03L128.90,37.22L130.21,37.39L131.83,37.54L133.71,37.66L135.79,37.74L137.99,37.79L140.24,37.81L142.46,37.78L144.58,37.72L146.28,37.63L148.23,37.49L149.63,37.33L150.68,37.15L151.36,36.95L151.62,36.75"/><path d="M128.34,36.81L128.81,36.91"/><path d="M127.62,36.57L127.70,36.61"/><path d="M130.45,37.14L129.62,37.03"/><path d="M131.37,37.23L132.54,37.32"/><path d="M133.50,37.38L134.98,37.45"/><path d="M135.92,37.49L137.63,37.52"/><path d="M138.58,37.54L140.32,37.54"/><path d="M141.25,37.53L142.92,37.50"/><path d="M145.35,37.41L143.89,37.47"/><path d="M147.51,37.27L146.33,37.36"/><path d="M149.28,37.09L148.42,37.19"/><path d="M150.06,36.97L150.54,36.88"/><path d="M151.17,36.67L151.21,36.64"/></g><g style="stroke:#000000;stroke-width:0.353"><path d="M151.46,90.10L151.39,115.89L151.14,116.13L150.88,116.33L150.23,116.52L149.19,116.70L147.82,116.85L146.15,116.98L144.24,117.08L142.17,117.14L139.99,117.16L137.78,117.15L135.63,117.10L133.59,117.02L131.75,116.90L130.15,116.76L128.87,116.59L127.94,116.40L127.39,116.20L127.15,115.96L127.01,115.76L127.08,89.52"/><path d="M127.29,36.57L127.24,36.61L127.15,68.60"/><path d="M151.55,36.64L151.62,36.75L151.53,68.67"/></g></g><g id="Actor_11.0"><g style="stroke:#000000;stroke-width:0.353"><path d="M148.39,78.80L147.32,79.12L147.06,80.48L148.06,80.36L148.19,79.69L148.22,79.56L148.38,79.22L148.56,79.02"/><path d="M147.06,80.48L147.87,81.51"/><path d="M147.32,79.12L148.32,79.01L148.51,78.95"/><path d="M148.06,80.36L148.46,80.88L148.59,81.01L148.87,81.20"/><path d="M148.74,81.24L148.46,80.88L148.36,80.72L148.21,80.35L148.16,79.95L148.19,79.69L148.32,79.01"/><path d="M148.38,79.22L149.06,79.66"/><path d="M148.95,81.06L148.87,81.20"/><path d="M148.59,81.01L149.06,80.52"/></g><g style="stroke:#000000;stroke-width:0.353"><path d="M149.29,77.22L148.10,77.35L147.51,77.46L147.49,77.47L146.96,77.77L146.52,78.25L146.50,78.27L146.19,78.88L146.03,79.59L146.02,80.34L146.17,81.08L146.48,81.75L146.90,82.29L146.92,82.31L147.44,82.70L148.03,82.90L148.06,82.91L148.65,82.91L150.23,82.72"/><path d="M147.87,81.51L148.93,81.19L149.16,80.00L149.19,79.83L148.39,78.80"/></g></g><g id="Actor_7.0"><g style="stroke:#000000;stroke-width:0.353"><path d="M101.81,86.89L126.10,88.75L127.84,88.86L129.75,88.95L131.64,89.02L133.70,89.07L156.82,89.47L159.89,89.12"/><path d="M156.48,90.18L156.82,89.47L156.87,71.15L133.76,70.76L131.70,70.71L129.80,70.64L127.90,70.55L126.16,70.43L101.86,68.58"/><path d="M102.99,67.77L126.42,69.56L128.60,69.70L130.74,69.80L131.86,69.84L134.41,69.90L156.54,70.28L158.83,70.02"/><path d="M104.99,84.44L105.18,84.77L105.74,85.28L106.40,85.54L107.07,85.52L107.69,85.22L108.19,84.68L108.51,83.95L108.62,83.11L108.51,82.26L108.19,81.48L107.70,80.86L107.08,80.46L106.41,80.34L105.76,80.50L105.19,80.93L104.78,81.58L104.55,82.37L104.55,83.23L104.77,84.06L104.99,84.44"/><path d="M107.08,85.50L106.41,85.52L105.76,85.26L105.20,84.75L104.80,84.05L104.58,83.22L104.58,82.37L104.80,81.58L105.22,80.94L105.78,80.52L106.43,80.36"/><path d="M105.28,75.12L105.21,75.05L104.80,74.34L104.58,73.51L104.58,72.66L104.81,71.86L105.22,71.22L105.79,70.79L106.44,70.63L107.11,70.75L107.73,71.14L108.22,71.76L108.54,72.54L108.65,73.40L108.54,74.24L108.21,74.97L107.72,75.51L107.10,75.81L106.43,75.83L105.77,75.57L105.28,75.12"/><path d="M106.46,70.65L105.81,70.81L105.24,71.23L104.83,71.87L104.61,72.66L104.61,73.51L104.82,74.33L105.23,75.04L105.79,75.55L106.44,75.80L107.11,75.79"/><path d="M107.18,80.54L106.90,80.75L106.48,81.39L106.26,82.18L106.26,83.04L106.48,83.86L106.89,84.56L107.44,85.07L107.72,85.18"/><path d="M107.21,70.83L106.93,71.04L106.51,71.68L106.29,72.47L106.29,73.32L106.51,74.14L106.91,74.85L107.47,75.36L107.74,75.46"/><path d="M108.40,84.18L108.17,84.18L107.81,84.04L107.50,83.76L107.28,83.37L107.16,82.91L107.16,82.44L107.28,82.00L107.51,81.65L107.82,81.42L108.09,81.35"/><path d="M108.12,71.64L107.85,71.70L107.54,71.94L107.31,72.29L107.19,72.73L107.19,73.20L107.30,73.66L107.53,74.05L107.84,74.33L108.20,74.47L108.43,74.46"/><path d="M121.80,66.33L127.15,66.74"/><path d="M127.15,65.85L122.92,65.52"/><path d="M126.56,68.31L126.65,68.10L127.15,67.90"/><path d="M147.63,83.32L146.54,83.04L145.56,82.44L144.84,81.61L144.60,81.13L144.46,80.62L144.41,80.10L144.46,79.58L144.61,79.08L144.84,78.61L145.57,77.80L146.56,77.24L147.65,76.99"/><path d="M148.95,83.26L147.75,83.33L147.67,83.32L146.92,83.01L146.23,82.38L145.74,81.52L145.47,80.51L145.47,79.46L145.74,78.49L146.25,77.71L146.93,77.19"/><path d="M147.11,77.14L147.69,76.99L147.65,76.97"/><path d="M147.67,83.32L147.63,83.34"/><path d="M147.69,76.99L147.77,76.98"/><path d="M149.68,83.00L149.27,82.83"/><path d="M148.93,77.09L148.66,77.29"/><path d="M150.47,68.90L161.32,69.74L164.19,69.41"/><path d="M152.10,68.40L152.05,68.19L151.57,67.98L151.53,67.97"/><path d="M156.54,70.28L156.87,71.15L159.95,70.80"/><path d="M159.90,88.83L161.39,88.95L161.44,70.64L159.50,70.49"/><path d="M161.26,89.64L161.39,88.95L164.47,88.60"/><path d="M164.52,70.29L161.44,70.64L161.32,69.74"/></g><g style="stroke:#000000;stroke-width:0.353"><path d="M127.15,66.82L116.36,68.04L106.98,67.32L102.99,67.77L101.86,68.58L101.81,86.89L102.93,87.68L126.12,89.45L128.28,89.59L130.44,89.70L132.72,89.77L134.06,89.80L156.48,90.18L158.77,89.92L159.89,89.12L159.95,70.80L158.83,70.02L147.97,69.19L147.11,69.25L145.16,69.36L143.01,69.43L140.74,69.47L138.43,69.46L136.15,69.42L133.97,69.35L131.96,69.23L130.21,69.09L128.74,68.92L127.62,68.73L126.89,68.52L126.56,68.31"/><path d="M107.08,85.50L107.69,85.20L108.19,84.66L108.51,83.94L108.62,83.11L108.51,82.26L108.20,81.49L107.70,80.87L107.09,80.48L106.43,80.36"/><path d="M107.11,75.79L107.72,75.49L108.21,74.95L108.54,74.23L108.65,73.39L108.54,72.55L108.22,71.77L107.73,71.16L107.12,70.77L106.46,70.65"/><path d="M127.16,65.04L122.92,65.52L121.80,66.33L121.79,67.43"/><path d="M147.62,83.33L147.63,83.34L147.63,83.32L146.89,83.00L146.21,82.37L145.72,81.51L145.46,80.51L145.46,79.47L145.73,78.51L146.22,77.72L146.90,77.20L147.65,76.99L147.65,76.97"/><path d="M148.95,83.26L150.05,82.86L150.94,82.17L151.27,81.73L151.51,81.25L151.66,80.75L151.71,80.22L151.67,79.70L151.52,79.19L151.28,78.70L150.95,78.25L150.07,77.53L148.97,77.09L147.77,76.98"/><path d="M152.10,68.40L151.74,68.61L150.98,68.81L150.47,68.90L149.91,69.33"/><path d="M159.37,89.50L161.26,89.64L163.55,89.38L164.47,88.60L164.52,70.29L164.19,69.41L156.75,67.64L156.00,67.47L155.43,67.35L154.82,67.25L154.13,67.15L153.39,67.05L151.53,66.87"/></g></g><g id="Actor_8.0"><g style="stroke:#000000;stroke-width:0.353"><path d="M118.97,21.75L119.04,21.81L119.31,21.87L119.75,21.92L140.26,23.49L140.83,23.52L141.47,23.53L142.11,23.53L142.71,23.50L143.19,23.46L159.53,21.62L159.85,21.57L159.98,21.51"/><path d="M120.45,21.74L120.62,21.81L121.00,21.86L121.56,21.91L122.24,21.93L122.96,21.93L123.64,21.91L124.21,21.88L124.61,21.82L124.79,21.76"/><path d="M123.62,21.75L123.59,21.72L123.47,21.69L123.25,21.66L122.96,21.65L122.63,21.64L122.31,21.65L121.90,21.67L121.79,21.68L121.66,21.71L121.63,21.74"/><path d="M125.67,31.03L125.24,31.00L125.17,30.98L125.15,30.97"/><path d="M125.66,30.90L125.65,30.88L125.59,30.87L125.22,30.84L125.12,30.83L125.07,30.81"/><path d="M125.67,30.71L125.57,30.69L125.32,30.67L125.24,30.65L125.21,30.64"/><path d="M125.48,31.14L125.52,31.16L125.67,31.17"/><path d="M125.67,30.50L125.61,30.48L125.60,30.47"/><path d="M127.27,36.57L127.28,32.46"/><path d="M127.98,36.82L127.99,32.59"/><path d="M128.66,32.04L128.60,32.03L128.55,31.99L128.50,31.93L128.47,31.84L128.47,31.74L128.48,28.38L128.49,28.28L128.51,28.19L128.56,28.12L128.61,28.06L128.68,28.04L130.64,27.82L130.64,27.91"/><path d="M128.13,27.56L129.15,27.68L130.64,27.82"/><path d="M128.03,27.57L127.96,27.58L127.91,27.61"/><path d="M129.26,37.05L129.27,32.73"/><path d="M129.83,17.87L129.99,17.93L130.34,17.98L130.58,18.00L130.85,18.02L131.47,18.04L132.13,18.04L132.76,18.03L133.28,17.99L133.65,17.94L133.82,17.88"/><path d="M131.06,32.85L131.04,37.25"/><path d="M131.14,27.86L132.89,27.97L134.38,28.04L134.66,28.10L135.04,28.28"/><path d="M132.45,30.64L132.55,30.84L132.69,30.96L132.85,31.01L133.01,30.97L133.16,30.85L133.29,30.66L133.36,30.42L133.39,30.16L133.37,29.90L133.29,29.68L133.17,29.51L133.02,29.43L132.86,29.42L132.70,29.51L132.56,29.66"/><path d="M132.72,29.72L132.81,29.77L132.88,29.87L132.93,30.01L132.94,30.16L132.93,30.24L132.93,30.32L132.88,30.46L132.81,30.57L132.72,30.65L132.62,30.67"/><path d="M133.26,37.40L133.27,32.95"/><path d="M148.26,31.93L148.22,31.95L148.12,31.96L147.99,31.97L147.66,31.97L147.19,31.96L146.91,31.97L146.75,31.99L146.72,32.02L146.66,32.04L146.40,32.06L146.06,32.05L145.62,32.04L145.32,32.04L145.12,32.07L145.06,32.10L144.85,32.12L144.52,32.12L143.94,32.10L143.63,32.10L143.41,32.12L143.30,32.15L143.20,32.16L142.89,32.17L142.57,32.16L142.18,32.13L141.87,32.13L141.62,32.15L141.47,32.18L141.20,32.19L140.87,32.19L140.73,32.18L140.52,32.16L140.23,32.15L139.92,32.15L139.48,32.19L139.15,32.20L138.86,32.18L138.69,32.16L138.57,32.15L138.26,32.14L137.97,32.15L137.75,32.17L137.61,32.18L137.27,32.18L137.01,32.16L136.87,32.13L136.63,32.11L136.31,32.11L135.92,32.13L135.60,32.14L135.30,32.12L135.20,32.11L135.10,32.08L135.01,32.07L134.73,32.05L134.42,32.06L133.99,32.08L133.70,32.07"/><path d="M135.78,37.51L135.79,33.09"/><path d="M139.74,20.07L139.56,20.13L139.16,20.19L138.59,20.23L137.91,20.25L137.42,20.24L137.19,20.24L136.51,20.22L135.95,20.18L135.57,20.12L135.40,20.05"/><path d="M136.58,20.05L136.61,20.02L136.74,19.99L136.97,19.97L137.26,19.96L137.58,19.95L137.91,19.96L138.20,19.98L138.42,20.00L138.54,20.03L138.57,20.06"/><path d="M138.48,37.57L138.49,33.10"/><path d="M139.21,23.18L139.38,23.24L139.76,23.30L140.32,23.34L141.00,23.37L141.72,23.37L142.40,23.35L142.97,23.31L143.37,23.26L143.55,23.20"/><path d="M140.41,33.11L140.40,37.58"/><path d="M140.39,23.17L140.42,23.14L140.55,23.12L140.74,23.10L141.07,23.08L141.39,23.08L141.72,23.08L142.01,23.10L142.23,23.12L142.35,23.15L142.38,23.18"/><path d="M146.65,18.85L139.86,18.33"/><path d="M143.10,37.54L143.11,33.12"/><path d="M145.15,19.04L145.31,19.10L145.66,19.15L145.90,19.17L146.18,19.19L146.80,19.21L147.39,19.22L148.08,19.20L148.60,19.16L148.97,19.11L149.14,19.06"/><path d="M145.62,37.44L145.63,32.99"/><path d="M147.83,37.30L147.84,32.93"/><path d="M149.65,31.82L149.63,31.84L149.43,31.86L149.11,31.87L148.63,31.86L148.36,31.87L148.28,31.89L148.24,31.90"/><path d="M149.59,31.79L149.61,31.78L149.67,31.76L149.92,31.74L150.40,31.75L150.71,31.74L150.81,31.72L150.87,31.71L150.87,31.69"/><path d="M152.36,21.36L152.36,19.29L149.13,19.04"/><path d="M149.62,37.11L149.63,32.79"/><path d="M150.89,36.89L150.91,32.58"/><path d="M151.60,36.64L151.61,32.56"/><path d="M152.74,31.41L152.73,31.43L152.66,31.44L152.55,31.46L151.93,31.47L151.75,31.50L151.72,31.51"/><path d="M151.91,31.57L151.88,31.58L151.66,31.61L151.02,31.61L150.90,31.62L150.81,31.64L150.76,31.65"/><path d="M153.35,31.27L153.31,31.28L153.21,31.29L152.63,31.32L152.53,31.33L152.48,31.34L152.47,31.36"/><path d="M152.36,19.29L155.20,18.97"/><path d="M153.74,31.10L153.72,31.11L153.64,31.13L153.10,31.16L153.02,31.17L152.99,31.19"/><path d="M153.48,30.59L153.46,30.61L153.39,30.62L153.20,30.64"/><path d="M153.80,30.77L153.77,30.78L153.68,30.79L153.43,30.81L153.34,30.83L153.30,30.84"/><path d="M153.89,30.93L153.88,30.94L153.82,30.96L153.34,30.99L153.28,31.01L153.26,31.02"/><path d="M158.50,21.51L158.32,21.57L157.92,21.62L157.35,21.66L156.67,21.68L155.95,21.68L155.27,21.65L154.97,21.64L154.71,21.61L154.33,21.55L154.16,21.49"/><path d="M157.33,21.49L157.30,21.46L157.18,21.43L156.96,21.41L156.67,21.40L156.34,21.39L156.02,21.39L155.73,21.41L155.50,21.43L155.37,21.46L155.34,21.49"/></g><g style="stroke:#000000;stroke-width:0.353"><path d="M129.82,20.47L119.42,21.65L119.10,21.70L118.97,21.75L118.97,22.87L119.04,22.93L119.31,22.98L119.75,23.03L140.26,24.60L140.83,24.63L141.46,24.65L142.11,24.64L142.70,24.62L143.18,24.58L159.53,22.73L159.85,22.68L159.98,22.62L159.98,21.51L159.91,21.45L159.64,21.39L159.20,21.35L155.20,21.04L152.36,21.36L149.13,21.12L149.13,22.24L148.96,22.30L148.59,22.35L148.07,22.38L147.44,22.40L146.79,22.40L146.17,22.38L145.65,22.34L145.30,22.29L145.14,22.23L145.15,19.04L145.22,18.98L145.49,18.93L145.94,18.88L146.52,18.86L147.17,18.85L147.82,18.86L148.39,18.89L148.83,18.94L149.09,19.00L149.14,19.06L149.13,21.12"/><path d="M120.45,21.77L120.45,21.74L120.52,21.68L120.81,21.62L121.30,21.57L121.94,21.54L122.65,21.53L123.35,21.55L123.98,21.58L124.46,21.63L124.74,21.69L124.79,21.76L124.79,21.78L124.61,21.85L124.21,21.90L123.64,21.94L122.96,21.96L122.24,21.95L121.56,21.93L121.26,21.91L121.00,21.89L120.62,21.83L120.45,21.77"/><path d="M123.62,21.75L123.53,21.77L123.35,21.80L123.09,21.82L122.78,21.83L122.45,21.82L122.00,21.80L121.70,21.77L121.63,21.74"/><path d="M123.60,21.75L123.59,21.74L123.47,21.71L123.25,21.69L122.96,21.67L122.63,21.67L122.31,21.67L122.02,21.68L121.79,21.70L121.66,21.73L121.64,21.74"/><path d="M125.67,30.73L125.51,30.75L125.23,30.77L125.13,30.78L125.07,30.80L125.06,31.77L125.15,31.78"/><path d="M125.47,31.97L125.24,31.95L125.17,31.94L125.15,31.92L125.15,30.97L125.19,30.95L125.27,30.94L125.53,30.92L125.61,30.91L125.66,30.90"/><path d="M125.67,30.59L125.44,30.60L125.23,30.62L125.21,30.64L125.21,30.77"/><path d="M126.03,31.84L126.03,32.25L126.04,32.26L126.10,32.28L126.21,32.29L126.81,32.31"/><path d="M129.03,32.00L128.66,32.04L125.99,31.83L125.85,31.80L125.79,31.76L125.75,31.73L125.71,31.67L125.68,31.59L125.67,31.51L125.68,28.15L125.69,28.07L125.72,28.00L125.80,27.91L125.86,27.87L125.92,27.85L127.81,27.63"/><path d="M125.67,31.10L125.49,31.13L125.48,31.14L125.47,32.10L125.52,32.11L125.61,32.13L126.03,32.15"/><path d="M125.67,30.45L125.60,30.47L125.60,30.59"/><path d="M125.71,28.02L125.72,23.49"/><path d="M127.18,36.32L127.18,35.56L127.18,36.49L127.27,36.57L127.70,36.57"/><path d="M127.18,35.56L127.19,32.46"/><path d="M126.81,31.90L126.81,32.41L126.83,32.42L127.04,32.45L127.52,32.46L127.79,32.47"/><path d="M127.71,32.47L127.70,36.74L127.98,36.82L128.29,36.81L128.81,36.83"/><path d="M127.80,31.97L127.79,32.56L127.85,32.57L127.95,32.59L128.09,32.60L128.73,32.60L128.97,32.62"/><path d="M127.75,27.64L127.95,27.61L128.04,27.57L128.13,27.56L128.11,27.56"/><path d="M128.82,32.61L128.81,36.98L129.26,37.05L129.55,37.04L129.87,37.03L130.19,37.04L130.45,37.06"/><path d="M130.31,32.76L130.12,32.74L129.97,32.73L129.32,32.73L129.06,32.71L128.99,32.70L128.97,32.68L128.97,32.00"/><path d="M153.23,23.44L153.20,30.63L153.19,30.73L153.14,30.81L152.92,31.04L152.83,31.08L152.47,31.23L151.92,31.38L151.17,31.51L150.25,31.64L149.09,31.76L147.86,31.86L146.50,31.95L145.03,32.01L143.48,32.06L141.85,32.10L140.22,32.11L138.56,32.10L136.91,32.08L134.85,32.03L134.40,32.03L133.99,32.05L133.65,32.08L131.84,32.28L129.10,32.07L129.05,32.03L129.00,31.96L128.98,31.88L128.97,31.78L128.98,28.42L128.99,28.32L129.01,28.23L129.06,28.15L129.11,28.10L129.18,28.08L131.14,27.86"/><path d="M130.46,32.84L130.45,37.19L131.04,37.25L131.30,37.23L131.60,37.22L131.93,37.22L132.23,37.23L132.54,37.26"/><path d="M148.24,31.90L148.26,31.93L148.26,32.89L148.22,32.90L148.12,32.91L147.82,32.93L147.19,32.91L146.90,32.92L146.74,32.95L146.72,32.98L146.66,32.99L146.39,33.01L146.06,33.01L145.62,32.99L145.31,33.00L145.12,33.02L145.06,33.05L144.84,33.07L144.52,33.08L143.94,33.05L143.63,33.05L143.40,33.07L143.30,33.10L143.19,33.11L142.89,33.13L142.57,33.12L142.33,33.10L142.02,33.09L141.73,33.10L141.62,33.11L141.47,33.13L141.20,33.15L140.87,33.15L140.38,33.11L140.07,33.10L139.79,33.12L139.61,33.14L139.32,33.15L138.99,33.15L138.56,33.10L138.26,33.09L137.97,33.10L137.75,33.13L137.60,33.13L137.27,33.13L137.00,33.11L136.87,33.08L136.76,33.07L136.47,33.06L136.16,33.07L135.92,33.09L135.59,33.09L135.29,33.08L135.19,33.07L135.10,33.04L134.88,33.02L134.57,33.01L134.15,33.03L133.81,33.03L133.53,33.01L133.45,33.00L133.40,32.97L133.33,32.96L133.07,32.94L132.76,32.94L132.30,32.95L131.99,32.94L131.88,32.93L131.82,32.91L131.81,32.88L131.76,32.87L131.53,32.85L131.22,32.84L130.74,32.85L130.44,32.83L130.35,32.82L130.31,32.81L130.32,32.16"/><path d="M130.33,21.16L129.98,21.11L129.82,21.05L129.83,17.87L129.89,17.81L130.17,17.75L130.62,17.71L131.20,17.68L131.85,17.68L132.50,17.69L133.07,17.72L133.51,17.77L133.77,17.82L133.82,17.88L133.81,21.07L133.64,21.13L133.27,21.18L132.75,21.21L132.12,21.23L131.46,21.23L130.85,21.20L130.33,21.16"/><path d="M132.56,32.95L132.54,37.36L133.26,37.40L133.45,37.38L133.73,37.37L134.04,37.36L134.37,37.36L134.66,37.38L134.89,37.40L134.98,37.42"/><path d="M132.62,30.67L132.52,30.64L132.44,30.57L132.45,30.64"/><path d="M132.56,29.66L132.46,29.88L132.40,30.14L132.40,30.27L132.40,30.40L132.44,30.57L132.44,30.56"/><path d="M132.72,29.72L132.62,29.72L132.53,29.77L132.49,29.81"/><path d="M139.85,19.87L138.69,19.78L138.12,19.75L137.49,19.73L136.84,19.74L136.25,19.76L135.77,19.80L133.81,20.02"/><path d="M137.64,37.53L137.55,37.50L137.34,37.48L137.07,37.46L136.75,37.45L136.43,37.45L136.14,37.47L135.91,37.49L135.78,37.51L134.98,37.49L135.00,33.02"/><path d="M135.40,20.05L135.47,19.99L135.76,19.93L136.25,19.88L136.89,19.85L137.60,19.84L138.30,19.86L138.53,19.87L138.93,19.89L139.41,19.94L139.69,20.00L139.74,20.07L139.74,20.09L139.56,20.16L139.16,20.21L138.59,20.25L137.91,20.27L137.19,20.27L136.51,20.24L135.95,20.20L135.57,20.14L135.40,20.08L135.40,20.05"/><path d="M136.58,20.05L136.65,20.08L136.95,20.12L137.40,20.14L137.73,20.14L138.04,20.13L138.30,20.11L138.48,20.09L138.57,20.06"/><path d="M138.55,20.06L138.54,20.05L138.42,20.02L138.20,20.00L137.91,19.98L137.58,19.98L137.26,19.98L136.97,19.99L136.74,20.02L136.61,20.04L136.59,20.06"/><path d="M141.24,33.15L141.23,37.57L140.40,37.58L140.33,37.55L140.16,37.52L139.91,37.50L139.60,37.49L139.27,37.49L138.97,37.50L138.72,37.52L138.55,37.54L138.48,37.57L137.64,37.56L137.66,33.13"/><path d="M139.57,23.05L139.28,23.11L139.21,23.18L139.21,23.20L139.38,23.27L139.76,23.32L140.32,23.37L141.00,23.39L141.72,23.39L142.40,23.38L142.97,23.34L143.37,23.28L143.55,23.22L143.55,23.20L143.50,23.13L143.22,23.07L142.74,23.02L142.11,22.98L141.41,22.97L140.70,22.98L140.06,23.01L139.57,23.05"/><path d="M140.39,23.17L140.46,23.20L140.76,23.24L141.21,23.26L141.54,23.26L141.85,23.25L142.11,23.24L142.29,23.21L142.38,23.18"/><path d="M140.40,23.18L140.42,23.17L140.55,23.14L140.78,23.12L141.07,23.11L141.39,23.10L141.72,23.11L142.01,23.12L142.23,23.15L142.35,23.18L142.36,23.19"/><path d="M145.15,20.81L139.85,20.40L139.86,18.33L142.70,18.01L155.20,18.97L155.20,21.04"/><path d="M141.23,37.54L141.33,37.51L141.53,37.49L141.80,37.47L142.12,37.47L142.44,37.47L142.74,37.49L142.96,37.51L143.10,37.54L143.89,37.51L143.90,33.05"/><path d="M146.34,33.01L146.33,37.40L145.62,37.44L145.42,37.42L145.15,37.40L144.83,37.39L144.51,37.39L144.21,37.41L143.99,37.43L143.89,37.44"/><path d="M146.33,37.30L146.64,37.27L146.95,37.26L147.27,37.26L147.58,37.28L147.83,37.30L148.42,37.24L148.43,32.82"/><path d="M148.42,37.11L148.69,37.09L149.00,37.09L149.33,37.09L149.62,37.11L150.06,37.04L150.08,32.70L150.56,32.70L150.72,32.69L150.81,32.68L150.87,32.66L150.87,31.69L150.76,31.66L150.76,31.65"/><path d="M149.59,31.79L149.65,31.82L149.65,32.78L149.63,32.79L149.43,32.81L149.11,32.82L148.63,32.81L148.36,32.83L148.26,32.85"/><path d="M151.18,32.57L151.17,36.81L150.89,36.89L150.58,36.88L150.06,36.89"/><path d="M150.08,32.70L149.78,32.71L149.65,32.72"/><path d="M151.70,32.56L151.69,36.57L151.60,36.64L151.17,36.64"/><path d="M150.87,32.58L151.17,32.57L151.66,32.56L151.87,32.54L151.91,32.52L151.91,31.57L151.89,31.55L151.75,31.52L151.72,31.51"/><path d="M152.47,31.36L152.52,31.37L152.70,31.40L152.74,31.41L152.74,32.37L152.73,32.39L152.66,32.40L152.55,32.41L151.91,32.43"/><path d="M152.99,31.19L153.00,31.20L153.07,31.21L153.28,31.24L153.35,31.25L153.35,31.27L153.35,32.22L153.30,32.24L153.21,32.25L152.74,32.27"/><path d="M153.35,32.10L153.64,32.08L153.72,32.07L153.74,32.05L153.74,31.10L153.71,31.08L153.63,31.07L153.38,31.05L153.30,31.04L153.26,31.02"/><path d="M153.74,31.92L153.82,31.91L153.88,31.90L153.88,31.88L153.89,30.93L153.83,30.91L153.73,30.90L153.36,30.87L153.30,30.85L153.30,30.84"/><path d="M153.48,30.72L153.48,30.59L153.44,30.58L153.34,30.57L153.20,30.56"/><path d="M153.19,30.70L153.59,30.73L153.78,30.75L153.80,30.77L153.80,30.91"/><path d="M154.52,21.36L154.23,21.42L154.16,21.49L154.16,21.51L154.33,21.58L154.71,21.64L154.97,21.66L155.27,21.68L155.95,21.70L156.67,21.71L157.35,21.69L157.92,21.65L158.32,21.59L158.50,21.53L158.50,21.51L158.45,21.44L158.17,21.38L157.69,21.33L157.06,21.29L156.36,21.28L155.65,21.29L155.01,21.32L154.52,21.36"/><path d="M155.34,21.49L155.41,21.52L155.71,21.55L156.16,21.57L156.49,21.57L156.80,21.56L157.06,21.55L157.24,21.52L157.33,21.49"/><path d="M157.31,21.50L157.30,21.49L157.18,21.46L156.96,21.44L156.67,21.42L156.34,21.41L156.02,21.42L155.73,21.43L155.50,21.45L155.37,21.48L155.35,21.49"/></g></g><g id="Actor_5.0"><g style="stroke:#000000;stroke-width:0.353"><path d="M129.48,160.67L129.81,160.86L130.55,161.03L131.65,161.19L133.08,161.32L134.77,161.43L136.65,161.50L138.63,161.53L139.63,161.53L140.64,161.53L142.57,161.48L144.35,161.40L145.90,161.29L147.15,161.15L148.05,160.99L148.55,160.81L148.64,160.62"/><path d="M148.03,160.65L147.88,160.83L147.32,161.00L146.37,161.15L145.08,161.28L143.51,161.38L141.73,161.45L139.83,161.48L138.53,161.47L137.89,161.47L136.00,161.42L134.26,161.33L132.74,161.22L131.52,161.08L130.65,160.91L130.17,160.74L130.11,160.56"/><path d="M148.04,158.66L147.89,158.84L147.33,159.01L146.38,159.16L145.09,159.29L143.52,159.39L141.74,159.46L139.83,159.49L139.63,159.48L137.89,159.48L136.01,159.43L134.27,159.34L132.75,159.23L131.53,159.08L130.66,158.92L130.18,158.75L130.12,158.57"/><path d="M131.60,176.75L132.15,176.91L133.06,177.05L134.30,177.17L135.79,177.26L137.46,177.31L139.20,177.33L140.94,177.32L141.76,177.29L142.58,177.26L144.02,177.17L145.19,177.06L146.03,176.92L146.49,176.76"/><path d="M131.23,165.59L131.25,165.61L131.84,165.76L132.80,165.91L134.06,166.03L135.58,166.12L137.27,166.18L139.05,166.20L140.83,166.19L142.52,166.14L144.03,166.06L145.30,165.94L146.25,165.81L146.84,165.65L146.86,165.64"/><path d="M130.89,158.63L131.10,158.80L131.42,158.89L131.70,158.96L132.68,159.11L133.97,159.23L135.52,159.33L137.25,159.39L139.07,159.41L140.89,159.40L142.62,159.35L144.17,159.26L145.18,159.17L145.46,159.15L146.43,159.01L147.04,158.85L147.24,158.68"/></g><g style="stroke:#000000;stroke-width:0.353"><path d="M148.03,160.37L148.31,160.44L148.64,160.62L148.63,165.08L148.54,165.27L148.03,165.44L147.14,165.61L145.89,165.75L144.34,165.86L142.56,165.94L140.62,165.99L138.62,165.99L136.64,165.96L134.76,165.89L133.07,165.78L131.88,165.67L131.64,165.65L130.53,165.49L129.80,165.32L129.47,165.13L129.48,160.67L129.57,160.49L130.08,160.31L130.11,160.30"/><path d="M130.11,160.56L130.12,158.57L130.48,158.39L130.89,158.30"/><path d="M148.04,157.08L148.04,157.86L147.89,158.04L147.33,158.21L146.38,158.36L145.09,158.49L143.52,158.59L141.74,158.66L139.84,158.69L137.90,158.68L136.01,158.63L134.27,158.55L132.75,158.43L131.53,158.29L130.66,158.13L130.18,157.95L130.12,157.77L130.12,157.03"/><path d="M146.60,167.13L146.55,176.60L146.49,176.76L146.14,177.11L145.70,177.26L144.90,177.40L143.78,177.51L142.41,177.59L140.85,177.64L139.19,177.66L137.53,177.64L135.94,177.59L134.52,177.50L133.34,177.39L132.47,177.25L131.95,177.11L131.60,176.75L131.45,176.59L131.50,167.09"/><path d="M147.04,165.62L147.04,166.91L146.84,167.07L146.25,167.22L145.30,167.36L144.03,167.47L142.51,167.56L141.85,167.58L140.82,167.61L139.05,167.62L137.27,167.60L135.58,167.54L134.06,167.45L132.79,167.32L131.84,167.18L131.25,167.02L131.05,166.86L131.05,165.56"/><path d="M130.89,158.17L130.89,158.63"/><path d="M147.24,158.22L147.24,158.68"/><path d="M148.03,160.65L148.04,158.66L147.77,158.48L147.24,158.35"/></g></g><g><g/></g><g><g/></g><g><g><path style="stroke:#000000;stroke-width:0.170;stroke-dasharray:3.0 2.0 1.0 2.0" d="M159.39,78.88L173.23,77.32"/></g><g><path style="fill:#000000" d="M159.89,78.88L159.89,78.83L159.88,78.78L159.87,78.74L159.85,78.69L159.83,78.65L159.81,78.60L159.78,78.56L159.74,78.53L159.71,78.50L159.67,78.47L159.63,78.44L159.58,78.42L159.53,78.40L159.49,78.39L159.44,78.38L159.39,78.38L159.34,78.38L159.29,78.39L159.24,78.40L159.20,78.42L159.15,78.44L159.11,78.47L159.07,78.50L159.04,78.53L159.00,78.56L158.97,78.60L158.95,78.65L158.93,78.69L158.91,78.74L158.90,78.78L158.89,78.83L158.89,78.88L158.89,78.93L158.90,78.98L158.91,79.03L158.93,79.07L158.95,79.12L158.97,79.16L159.00,79.20L159.04,79.24L159.07,79.27L159.11,79.30L159.15,79.32L159.20,79.34L159.24,79.36L159.29,79.37L159.34,79.38L159.39,79.38L159.44,79.38L159.49,79.37L159.53,79.36L159.58,79.34L159.63,79.32L159.67,79.30L159.71,79.27L159.74,79.24L159.78,79.20L159.81,79.16L159.83,79.12L159.85,79.07L159.87,79.03L159.88,78.98L159.89,78.93z"/></g><g><path style="fill:#000000" d="M173.73,77.32L173.73,77.27L173.73,77.22L173.71,77.17L173.70,77.13L173.68,77.08L173.65,77.04L173.62,77.00L173.59,76.96L173.55,76.93L173.51,76.90L173.47,76.88L173.43,76.86L173.38,76.84L173.33,76.83L173.28,76.82L173.23,76.82L173.19,76.82L173.14,76.83L173.09,76.84L173.04,76.86L173.00,76.88L172.96,76.90L172.92,76.93L172.88,76.96L172.85,77.00L172.82,77.04L172.79,77.08L172.77,77.13L172.76,77.17L172.74,77.22L172.74,77.27L172.73,77.32L172.74,77.37L172.74,77.42L172.76,77.46L172.77,77.51L172.79,77.55L172.82,77.60L172.85,77.64L172.88,77.67L172.92,77.70L172.96,77.73L173.00,77.76L173.04,77.78L173.09,77.80L173.14,77.81L173.19,77.82L173.23,77.82L173.28,77.82L173.33,77.81L173.38,77.80L173.43,77.78L173.47,77.76L173.51,77.73L173.55,77.70L173.59,77.67L173.62,77.64L173.65,77.60L173.68,77.55L173.70,77.51L173.71,77.46L173.73,77.42L173.73,77.37z"/></g></g><g/><g/><g id="paperID" visibility="hidden" opacity="0.00" transform="scale(0.000100)"><path style="stroke:#000000;stroke-width:0.500;fill:#e6e6e6;fill-rule:evenodd" d="M-2000.00,-2000.00L2297.00,-2000.00L2297.00,2210.00L-2000.00,2210.00zM0.00,0.00L297.00,0.00L297.00,210.00L0.00,210.00z"/><path style="fill:#000000;fill-opacity:0.118" d="M3.00,210.00L297.00,210.00L297.00,3.00L300.00,3.00L300.00,213.00L3.00,213.00z"/></g><g><g><path style="stroke:#000000;stroke-width:0.353;fill:#f0f0ff" d="M7.22,84.14L81.03,84.14L81.03,89.18L7.22,89.18z"/><text xml:space="preserve" fill="#000000" stroke-width="0" x="9.16" y="88.02" font-size="3.61" opacity="1.00" font-family="Consolas" font-weight="bold">Description</text><text xml:space="preserve" fill="#000000" stroke-width="0" x="57.28" y="88.02" font-size="3.56" opacity="1.00" font-family="Consolas" font-weight="bold">BOM ID</text><text xml:space="preserve" fill="#000000" stroke-width="0" x="73.08" y="88.02" font-size="3.58" opacity="1.00" font-family="Consolas" font-weight="bold">Qty</text><path style="stroke:#000000;stroke-width:0.353" d="M55.34,84.14L55.34,89.18"/><path style="stroke:#000000;stroke-width:0.353" d="M71.14,84.14L71.14,89.18"/></g><g id="Line1"><path style="stroke:#000000;stroke-width:0.353;fill:#ffffff" d="M7.22,89.18L81.03,89.18L81.03,94.23L7.22,94.23z"/><text xml:space="preserve" fill="#000000" stroke-width="0" x="9.16" y="93.06" font-size="3.62" opacity="1.00" font-family="Consolas">50mm Extension Spacer</text><text xml:space="preserve" fill="#000000" stroke-width="0" x="57.28" y="93.06" font-size="3.21" opacity="1.00" font-family="Consolas">1</text><text xml:space="preserve" fill="#000000" stroke-width="0" x="73.08" y="93.06" font-size="3.21" opacity="1.00" font-family="Consolas">1</text><path style="stroke:#000000;stroke-width:0.353" d="M55.34,89.18L55.34,94.23"/><path style="stroke:#000000;stroke-width:0.353" d="M71.14,89.18L71.14,94.23"/></g><g id="Line4"><path style="stroke:#000000;stroke-width:0.353;fill:#f0f0ff" d="M7.22,94.23L81.03,94.23L81.03,99.27L7.22,99.27z"/><text xml:space="preserve" fill="#000000" stroke-width="0" x="9.16" y="98.11" font-size="3.62" opacity="1.00" font-family="Consolas">M4 Nut</text><text xml:space="preserve" fill="#000000" stroke-width="0" x="57.28" y="98.11" font-size="3.50" opacity="1.00" font-family="Consolas">4</text><text xml:space="preserve" fill="#000000" stroke-width="0" x="73.08" y="98.11" font-size="3.21" opacity="1.00" font-family="Consolas">1</text><path style="stroke:#000000;stroke-width:0.353" d="M55.34,94.23L55.34,99.27"/><path style="stroke:#000000;stroke-width:0.353" d="M71.14,94.23L71.14,99.27"/></g><g id="Line11"><path style="stroke:#000000;stroke-width:0.353;fill:#ffffff" d="M7.22,99.27L81.03,99.27L81.03,104.31L7.22,104.31z"/><text xml:space="preserve" fill="#000000" stroke-width="0" x="9.16" y="103.15" font-size="3.64" opacity="1.00" font-family="Consolas">M4x25 Socket Head</text><text xml:space="preserve" fill="#000000" stroke-width="0" x="57.28" y="103.15" font-size="3.43" opacity="1.00" font-family="Consolas">11</text><text xml:space="preserve" fill="#000000" stroke-width="0" x="73.08" y="103.15" font-size="3.21" opacity="1.00" font-family="Consolas">1</text><path style="stroke:#000000;stroke-width:0.353" d="M55.34,99.27L55.34,104.31"/><path style="stroke:#000000;stroke-width:0.353" d="M71.14,99.27L71.14,104.31"/></g><g id="Line5"><path style="stroke:#000000;stroke-width:0.353;fill:#f0f0ff" d="M7.22,104.31L81.03,104.31L81.03,109.36L7.22,109.36z"/><text xml:space="preserve" fill="#000000" stroke-width="0" x="9.16" y="108.19" font-size="3.63" opacity="1.00" font-family="Consolas">Objective Lens</text><text xml:space="preserve" fill="#000000" stroke-width="0" x="57.28" y="108.19" font-size="3.07" opacity="1.00" font-family="Consolas">5</text><text xml:space="preserve" fill="#000000" stroke-width="0" x="73.08" y="108.19" font-size="3.21" opacity="1.00" font-family="Consolas">1</text><path style="stroke:#000000;stroke-width:0.353" d="M55.34,104.31L55.34,109.36"/><path style="stroke:#000000;stroke-width:0.353" d="M71.14,104.31L71.14,109.36"/></g><g id="Line7"><path style="stroke:#000000;stroke-width:0.353;fill:#ffffff" d="M7.22,109.36L81.03,109.36L81.03,114.40L7.22,114.40z"/><text xml:space="preserve" fill="#000000" stroke-width="0" x="9.16" y="113.24" font-size="3.63" opacity="1.00" font-family="Consolas">Optical Tube Clamp</text><text xml:space="preserve" fill="#000000" stroke-width="0" x="57.28" y="113.24" font-size="3.27" opacity="1.00" font-family="Consolas">7</text><text xml:space="preserve" fill="#000000" stroke-width="0" x="73.08" y="113.24" font-size="3.21" opacity="1.00" font-family="Consolas">1</text><path style="stroke:#000000;stroke-width:0.353" d="M55.34,109.36L55.34,114.40"/><path style="stroke:#000000;stroke-width:0.353" d="M71.14,109.36L71.14,114.40"/></g><g id="Line8"><path style="stroke:#000000;stroke-width:0.353;fill:#f0f0ff" d="M7.22,114.40L81.03,114.40L81.03,119.44L7.22,119.44z"/><text xml:space="preserve" fill="#000000" stroke-width="0" x="9.16" y="118.28" font-size="3.62" opacity="1.00" font-family="Consolas">Raspberry Pi HQ Camera</text><text xml:space="preserve" fill="#000000" stroke-width="0" x="57.28" y="118.28" font-size="3.26" opacity="1.00" font-family="Consolas">8</text><text xml:space="preserve" fill="#000000" stroke-width="0" x="73.08" y="118.28" font-size="3.21" opacity="1.00" font-family="Consolas">1</text><path style="stroke:#000000;stroke-width:0.353" d="M55.34,114.40L55.34,119.44"/><path style="stroke:#000000;stroke-width:0.353" d="M71.14,114.40L71.14,119.44"/></g><g id="Line2"><path style="stroke:#000000;stroke-width:0.353;fill:#ffffff" d="M7.22,119.44L81.03,119.44L81.03,124.49L7.22,124.49z"/><text xml:space="preserve" fill="#000000" stroke-width="0" x="9.16" y="123.32" font-size="3.63" opacity="1.00" font-family="Consolas">Thorlabs CML100</text><text xml:space="preserve" fill="#000000" stroke-width="0" x="57.28" y="123.32" font-size="3.17" opacity="1.00" font-family="Consolas">2</text><text xml:space="preserve" fill="#000000" stroke-width="0" x="73.08" y="123.32" font-size="3.21" opacity="1.00" font-family="Consolas">1</text><path style="stroke:#000000;stroke-width:0.353" d="M55.34,119.44L55.34,124.49"/><path style="stroke:#000000;stroke-width:0.353" d="M71.14,119.44L71.14,124.49"/></g></g><g id="hotspot.0" ident="" onmouseover="ShowHotSpot(evt,&apos;0&apos;)" onmouseout="HideHotSpot(evt,&apos;0&apos;)" onmousemove="ShowToolTip(evt,&apos;0&apos;,&quot;50mm Extension Spacer&quot;)" opacity="0"><path style="fill:#00ff00;fill-rule:evenodd" d="M7.22,89.18L7.22,94.23L81.03,94.23L81.03,89.18zM131.57,116.86L137.52,117.11L141.41,117.11L147.36,116.86L150.94,116.38L151.18,135.68L151.41,135.94L151.40,156.36L149.92,156.86L144.38,157.27L134.30,157.27L130.33,157.03L127.07,156.56L126.78,156.36L126.87,135.79L127.35,135.53L127.52,116.34z"/></g><g id="hotspot.1" ident="" onmouseover="ShowHotSpot(evt,&apos;1&apos;)" onmouseout="HideHotSpot(evt,&apos;1&apos;)" onmousemove="ShowToolTip(evt,&apos;1&apos;,&quot;socket head cap screw_iso&quot;)" opacity="0"><path style="fill:#00ff00;fill-rule:evenodd" d="M7.22,99.27L7.22,104.31L81.03,104.31L81.03,99.27zM150.95,78.14L151.66,79.66L151.66,81.01L151.17,82.00L150.32,82.63L147.42,82.66L146.71,82.14L146.18,80.92L146.19,79.00L146.96,77.78L147.59,77.43L149.93,77.43z"/></g><g id="hotspot.2" ident="" onmouseover="ShowHotSpot(evt,&apos;2&apos;)" onmouseout="HideHotSpot(evt,&apos;2&apos;)" onmousemove="ShowToolTip(evt,&apos;2&apos;,&quot;CML100&quot;)" opacity="0"><path style="fill:#00ff00;fill-rule:evenodd" d="M7.22,119.44L7.22,124.49L81.03,124.49L81.03,119.44zM132.56,37.27L138.67,37.53L141.41,37.52L150.08,37.03L151.65,36.76L151.40,68.59L150.05,69.25L133.06,69.26L129.83,69.01L127.27,68.60L127.26,36.77zM151.41,90.07L151.43,115.97L150.85,116.38L147.36,116.86L141.41,117.11L137.52,117.11L131.57,116.86L127.83,116.38L127.11,115.87L127.11,99.34L127.26,89.58z"/></g><g id="hotspot.3" ident="" onmouseover="ShowHotSpot(evt,&apos;3&apos;)" onmouseout="HideHotSpot(evt,&apos;3&apos;)" onmousemove="ShowToolTip(evt,&apos;3&apos;,&quot;M4 Nut&quot;)" opacity="0"><path style="fill:#00ff00;fill-rule:evenodd" d="M7.22,94.23L7.22,99.27L81.03,99.27L81.03,94.23zM176.44,75.71L176.44,79.00L174.15,80.43L172.00,80.40L170.17,79.00L170.25,75.53L172.38,74.20L174.25,73.97zM173.27,76.58L173.49,78.02L173.24,77.98L173.21,76.44z"/></g><g id="hotspot.4" ident="" onmouseover="ShowHotSpot(evt,&apos;4&apos;)" onmouseout="HideHotSpot(evt,&apos;4&apos;)" onmousemove="ShowToolTip(evt,&apos;4&apos;,&quot;Objective Lens&quot;)" opacity="0"><path style="fill:#00ff00;fill-rule:evenodd" d="M7.22,104.31L7.22,109.36L81.03,109.36L81.03,104.31zM134.30,157.27L147.96,157.28L147.98,157.85L147.36,158.27L147.96,158.74L148.11,160.32L148.70,160.72L148.71,165.07L147.11,165.71L146.92,167.00L146.63,167.21L146.46,176.71L146.12,177.11L144.88,177.36L140.66,177.61L137.77,177.61L133.30,177.36L132.05,177.13L131.57,176.86L131.32,167.19L131.07,165.70L129.57,165.22L129.59,160.59L130.08,160.32L130.26,158.52L130.83,158.28L130.34,158.02L130.32,157.01z"/></g><g id="hotspot.5" ident="" onmouseover="ShowHotSpot(evt,&apos;5&apos;)" onmouseout="HideHotSpot(evt,&apos;5&apos;)" onmousemove="ShowToolTip(evt,&apos;5&apos;,&quot;Optical Tube Clamp&quot;)" opacity="0"><path style="fill:#00ff00;fill-rule:evenodd" d="M7.22,109.36L7.22,114.40L81.03,114.40L81.03,109.36zM155.12,67.28L164.06,69.49L164.56,70.24L164.54,80.99L164.31,88.69L163.71,89.33L161.48,89.60L159.25,89.58L158.99,89.82L157.03,90.08L152.89,90.08L138.26,89.84L128.84,89.59L102.82,87.59L102.07,87.11L102.07,68.35L102.97,67.76L104.96,67.52L110.00,67.52L113.22,67.77L118.60,67.77L121.66,67.37L121.82,66.29L123.04,65.52L127.14,65.05L127.27,68.60L129.83,69.01L133.06,69.26L150.05,69.25L151.40,68.59L151.56,67.01zM150.95,78.14L151.66,79.66L151.66,81.01L151.17,82.00L150.32,82.63L147.42,82.66L146.71,82.14L146.18,80.92L146.19,79.00L146.96,77.78L147.59,77.43L149.93,77.43z"/></g><g id="hotspot.6" ident="" onmouseover="ShowHotSpot(evt,&apos;6&apos;)" onmouseout="HideHotSpot(evt,&apos;6&apos;)" onmousemove="ShowToolTip(evt,&apos;6&apos;,&quot;Raspberry Pi HQ Camera&quot;)" opacity="0"><path style="fill:#00ff00;fill-rule:evenodd" d="M7.22,114.40L7.22,119.44L81.03,119.44L81.03,114.40zM133.80,17.94L133.97,20.02L139.76,19.76L139.91,18.43L140.91,18.19L145.45,18.18L155.13,18.92L155.28,21.00L159.84,21.39L159.84,22.74L153.38,23.46L153.39,30.58L153.91,31.06L153.89,31.89L151.82,32.56L151.65,36.61L151.36,36.81L150.08,37.03L141.41,37.52L138.67,37.53L132.56,37.27L127.26,36.62L127.14,32.53L126.89,32.28L125.37,32.07L125.12,31.82L125.13,30.67L125.61,30.41L125.61,23.64L124.88,23.39L119.08,22.99L119.08,21.64L129.84,20.51L130.00,17.94L130.48,17.67L133.06,17.68z"/></g><g id="ToolTip" visibility="hidden" opacity="0" transform="translate(0,0)"><rect id="ToolTipShadow" opacity="0.20" fill="black" stroke="none" x="0" y="0" width="30" height="8"/><rect id="ToolTipBG" fill="#ffffe1" stroke="black" x="0" y="0" width="30" height="8"/><text xml:space="preserve" id="ToolTipText" fill="black" x="0" y="0" width="30" height="8">tooltip</text></g></g></svg>