<?xml version="1.0" encoding="UTF-8" standalone="yes"?><svg xmlns="http://www.w3.org/2000/svg" xmlns:xlink="http://www.w3.org/1999/xlink" width="297.000mm" height="210.000mm" viewBox="0.000000 0.000000 297.000000 210.000000" stroke-linejoin="round" stroke-linecap="round" fill="none" fill-rule="evenodd"><desc>Composer Export</desc><script type="text/ecmascript"><![CDATA[
if(typeof(top) != "undefined")
{
	top.ShowPaper = ShowPaper;
}
function ShowHotSpot(evt,hotspotid)
{
	var svgDocument = evt.target.ownerDocument;
	var strId = "hotspot."+hotspotid;
	var hotspot = svgDocument.getElementById(strId);
	if(hotspot)
		hotspot.setAttribute("opacity",".5");
}
function HideHotSpot(evt,hotspotid)
{
	var svgDocument = evt.target.ownerDocument;
	var strId = "hotspot."+hotspotid;
	var hotspot = svgDocument.getElementById(strId);
	if(hotspot)
		hotspot.setAttribute("opacity","0");

	var toolTip = svgDocument.getElementById('ToolTip');
	if(toolTip)
		toolTip.setAttribute("visibility","hidden");
}
function ShowToolTip(evt,hotspotid,strTooltip)
{
	if(strTooltip=="")
	return;

	// change text
	var svgDocument = evt.target.ownerDocument;
	var tiptext = svgDocument.getElementById('ToolTipText');
	if( !tiptext )
	return;
	tiptext.firstChild.nodeValue = " " + strTooltip + "  " ;

	// show tooltip before, else some refresh issue

	var toolTip = svgDocument.getElementById('ToolTip');
	if(!toolTip)
	return;

	toolTip.setAttribute("visibility","visible");
	toolTip.setAttribute("opacity",".95");

	// move tooltip
	// get viewbox

	var root = svgDocument.documentElement;
	var vbox = (root.getAttribute("viewBox")).split(' ');
	var x0 = parseFloat(vbox[0]);
	var y0 = parseFloat(vbox[1]);
	var vboxW = parseFloat(vbox[2]);
	var vboxH = parseFloat(vbox[3]);

	// get default width of svg

	var strW = root.getAttribute("width");
	var svgW = parseFloat(strW);
	if(strW.indexOf('mm') != -1)
	svgW *= 3.779;

	var strH = root.getAttribute("height");
	var svgH = parseFloat(strH);
	if(strH.indexOf('mm') != -1)
	svgH *= 3.779;  	// 96 dpi  -> 96/25.4 = 3.779

	// update the viewbox / width / height if svg is embedded in html with zoom fit all
	var realx0 = x0;
	var realy0 = y0;
	var realvboxW = vboxW;
	var realvboxH = vboxH;
	var realsvgW = svgW;
	var realsvgH = svgH;

	if ((typeof(top) == "undefined") || (typeof(top.svgctl1) != "undefined")) // embedded in html
	{
		// get window size in pxl

		svgW = window.innerWidth;
		svgH = window.innerHeight;

		// calculate real viewbox

		realsvgW = svgW;
		realsvgH = svgH;
		if((svgW / svgH) > (vboxW / vboxH))
		{
			realvboxW = (vboxH * svgW) / svgH;
			realvboxH = vboxH;
			realx0 = x0 - (realvboxW - vboxW)/2 ;
		}
		else
		{
			realvboxH = (vboxW * svgH) / svgW;
			realvboxW = vboxW;
			realy0 = y0 - (realvboxH - vboxH)/2 ;
		}
	}

	// get user zoom/pan

	var newScale = root.currentScale;
	var translation = root.currentTranslate;

	// transform pxl to user unit

	var xPos = (((evt.clientX+10- translation.x)/newScale) * realvboxW)/realsvgW  + realx0 ;
	var yPos = (((evt.clientY+5- translation.y)/newScale) * realvboxH)/ realsvgH  + realy0 ;
	var scaleForWidth = ( (1 / newScale) * realvboxH) / realsvgH;

	// move tooltip

	toolTip.setAttribute("transform", "translate(" + xPos + "," + yPos + ")" );

	// resize tooltip

	var fontsize = 12;
	tiptext.setAttribute("font-size",fontsize*scaleForWidth);
	tiptext.setAttribute("y", fontsize*scaleForWidth);
	var tipBG = svgDocument.getElementById('ToolTipBG');
	var outline = tiptext.getBBox();
	if(tipBG)
	{
		tipBG.setAttribute("stroke-width", 1*scaleForWidth);
		tipBG.setAttribute("width", Number(outline.width) );
		tipBG.setAttribute("height", Number(outline.height) + fontsize*.5*scaleForWidth );
	}
	var ToolTipShadow = svgDocument.getElementById('ToolTipShadow');
	if(ToolTipShadow)
	{
		ToolTipShadow.setAttribute("width", Number(outline.width) );
		ToolTipShadow.setAttribute("height", Number(outline.height) + fontsize*.5*scaleForWidth );
		ToolTipShadow.setAttribute("x", 3*scaleForWidth);
		ToolTipShadow.setAttribute("y", 3*scaleForWidth);
	}
}
function ShowPaper()
{
  var svgDocument = getDocument();
  var paper = svgDocument.getElementById("paperID");
  if(paper)
  {
    paper.setAttribute("transform","scale(1)");
    paper.setAttribute("opacity","1");
    paper.setAttribute("visibility","visible");
  }
  var svg = svgDocument.getRootElement();
  if(svg)
  {
    svg.setAttribute("width","307.000mm");
    svg.setAttribute("height","220.000mm");
    svg.setAttribute("viewBox","-5.000000 -5.000000 307.000000 220.000000");
  }
}
]]></script><defs/><g><path style="fill:#404040" d="M35.81,20.89L35.72,0.21L35.16,0.21L35.22,116.24L35.32,209.74L35.90,209.81L35.94,209.93L15.21,209.93L15.16,163.53L15.05,209.93L8.37,209.93L8.30,152.35L8.23,152.28L8.15,87.60L8.13,22.96L8.06,22.90L7.97,0.21L7.41,0.21L7.47,116.91L7.57,209.74L8.15,209.81L8.19,209.93L0.05,209.91L0.05,0.05L44.30,0.03L44.34,34.26L44.43,98.97L44.50,163.48L44.47,209.93L42.96,209.93L42.90,165.04L42.79,209.93L36.12,209.93L36.05,150.34L35.98,150.28L35.90,85.59L35.88,20.95z"/><path style="fill:#d7d0c0" d="M67.83,0.16L58.22,0.22L58.45,163.88L58.56,209.75L75.19,209.80L75.23,209.93L44.63,209.93L44.57,163.55L44.50,163.48L44.43,98.97L44.40,34.33L44.34,34.26L44.30,0.03L67.87,0.04z"/><path style="fill:#aca699" d="M67.50,12.91L65.75,12.93L65.58,13.25L65.40,14.38L65.40,15.88L65.49,16.56L66.14,18.11L66.92,18.11L67.48,16.99L67.83,15.04L67.91,23.90L67.88,31.77L58.56,33.48L58.72,177.98L58.99,178.09L62.85,178.24L75.06,178.57L75.19,208.46L75.19,209.80L58.56,209.75L58.45,163.88L58.22,0.22L67.83,0.16L67.83,14.21L67.67,13.07z"/><path style="fill:#808080" d="M67.91,23.90L67.83,15.04L67.83,14.21L67.83,0.16L67.87,0.04L121.20,0.04L121.16,0.16L106.87,0.22L106.77,34.55L105.54,34.83L105.48,42.09L102.47,42.16L99.47,42.08L96.34,42.00L96.44,42.15L96.57,78.79L96.67,81.36L98.87,81.32L99.18,80.93L99.29,79.57L113.00,79.94L113.33,80.12L97.51,82.96L97.41,130.68L96.67,130.77L96.67,170.13L98.35,170.06L99.25,169.96L99.33,168.34L100.14,168.30L112.51,168.63L113.68,168.70L113.63,168.76L97.35,171.74L97.29,179.00L93.94,179.07L78.41,178.66L75.06,178.57L62.85,178.24L58.99,178.09L58.72,177.98L58.56,33.48L67.88,31.77L67.98,33.06L68.00,31.76L67.98,23.96z"/><path style="fill:#666666" d="M96.44,42.15L99.14,42.16L99.16,52.32L99.17,54.17L99.17,55.67L99.16,58.01L99.17,67.03L99.17,79.57L99.18,80.93L98.87,81.32L96.67,81.36L96.57,78.79z"/><path style="fill:#666666" d="M114.20,84.42L114.20,84.92L114.21,85.09L114.21,115.35L114.14,127.72L113.69,127.85L99.30,130.43L99.12,130.42L98.67,130.44L99.08,130.55L99.26,131.90L99.33,168.17L99.33,168.34L99.25,169.96L98.35,170.06L96.67,170.13L96.67,130.77L97.41,130.68L97.51,82.96L113.33,80.12L114.15,80.07z"/><path style="fill:#404040" d="M139.86,43.76L139.92,0.03L160.32,0.04L160.28,0.16L156.85,0.22L157.02,209.75L160.44,209.80L160.48,209.93L155.30,209.93L155.24,147.65L155.13,209.93L154.13,209.93L154.07,181.77L154.00,181.71L154.07,124.31L154.13,124.24L154.53,123.94L156.17,122.20L156.24,115.23L156.17,115.17L156.09,87.98L154.25,85.99L154.12,85.95L154.08,85.83L153.90,52.21L153.83,52.15L153.74,0.22L149.66,0.22L149.57,49.43L149.23,49.05L148.85,49.21L99.16,58.01L99.17,55.67L100.13,55.46L132.07,49.79L132.60,49.66L133.07,49.62L133.52,49.54L133.11,49.48L133.03,32.44L133.07,0.03L139.75,0.03z"/><path style="fill:#ffffff" d="M119.55,128.40L119.72,128.90L119.75,129.84L119.85,129.89L120.35,130.43L122.90,136.75L123.00,193.08L123.04,209.93L75.23,209.93L75.19,209.80L75.19,208.46L75.27,178.75L78.41,178.66L93.94,179.07L98.13,179.08L113.79,176.31L113.80,168.74L113.68,168.70L112.51,168.63L100.14,168.30L99.33,168.17L99.26,131.90L99.30,130.43L113.69,127.85L114.12,127.83L114.14,127.72L114.21,115.35L114.28,115.41z"/><path style="fill:#636363" d="M119.66,85.25L119.73,90.77L119.55,128.40L114.28,115.41L114.21,115.35L114.21,85.09L115.02,85.05L118.02,85.13z"/><path style="fill:#333333" d="M160.35,18.55L160.44,83.25L160.52,148.11L160.44,209.80L157.02,209.75L156.85,0.22L160.28,0.16z"/><path style="fill:#aca699" d="M152.74,86.15L153.34,86.15L154.12,85.95L154.25,85.99L156.09,87.98L156.17,115.17L156.17,122.20L154.53,123.94L154.13,124.24L153.46,124.41L153.30,124.34L154.07,123.65L155.59,122.32L155.74,119.92L155.41,117.58L154.74,117.41L152.68,117.41L152.42,118.35L152.25,119.52L152.25,121.87L152.33,122.53L152.32,123.03L151.25,124.71L150.99,124.75L150.79,125.01L150.48,125.05L150.32,124.93L150.13,125.18L149.77,125.24L147.77,125.66L146.77,125.91L146.27,126.00L145.27,126.25L144.77,126.34L137.08,128.09L126.22,130.02L126.03,130.09L124.38,130.35L121.53,130.87L120.98,130.78L120.35,130.43L119.85,129.89L120.58,129.44L140.70,124.99L140.70,91.33L140.39,90.47L138.96,88.80L139.11,88.64L140.04,88.50L138.33,87.80L138.30,87.65L139.19,87.65L141.03,87.99L142.98,87.99L151.07,86.54L149.48,85.85L149.48,85.66L150.06,85.64z"/><path style="fill:#d7d0c0" d="M142.08,82.55L146.61,83.79L147.78,84.13L148.21,84.32L149.58,84.59L151.22,85.16L153.76,85.76L154.12,85.95L153.34,86.15L152.74,86.15L150.06,85.64L149.48,85.66L149.48,85.85L151.07,86.54L142.98,87.99L141.03,87.99L139.19,87.65L138.30,87.65L138.33,87.80L140.04,88.50L139.11,88.64L138.96,88.80L140.39,90.47L140.70,91.33L140.70,124.99L120.58,129.44L119.85,129.89L119.82,128.88L119.73,90.77L119.66,85.25L119.65,85.08L119.98,84.54L121.24,83.80L122.54,83.55L125.39,83.05L125.87,82.96L135.74,81.20L136.85,81.13z"/><path style="fill:#404040" d="M147.77,125.66L149.77,125.24L149.83,209.75L153.92,209.80L153.96,209.93L123.04,209.93L123.00,193.08L123.15,137.42L124.37,137.62L127.39,137.71L130.55,137.78L132.40,137.91L132.51,193.64L132.62,209.75L133.18,209.75L133.19,161.99L133.29,137.97L133.56,137.86L139.76,138.03L139.93,138.11L140.03,173.14L140.09,138.12L146.76,138.21L146.95,138.22L147.90,138.03L147.87,125.76z"/><path style="fill:#ffffff" d="M160.35,18.55L160.28,0.16L160.32,0.04L268.30,0.03L268.43,57.18L268.51,122.03L268.60,186.73L268.64,209.93L160.65,209.93L160.59,148.17L160.52,148.11L160.44,83.25L160.42,18.61z"/><path style="fill:#d3aa21" d="M131.51,95.84L132.19,96.49L132.85,97.67L132.85,99.75L132.35,100.75L131.53,101.44L130.29,101.87L129.32,101.87L128.17,101.35L127.15,100.20L126.81,99.20L126.65,98.30L127.27,96.68L127.77,96.01L129.11,95.34L130.53,95.28z"/><path style="fill:#d3aa21" d="M131.34,113.90L132.19,114.55L132.85,115.73L133.02,116.75L132.85,117.97L132.62,118.41L131.85,119.32L130.96,119.92L129.77,120.09L128.99,119.92L128.01,119.40L127.17,118.40L126.67,116.52L127.35,114.81L127.77,114.23L128.93,113.55L130.70,113.50z"/><path style="fill:#636363" d="M120.98,130.78L121.53,130.87L124.38,130.35L126.03,130.09L126.04,137.55L124.37,137.62L123.15,137.42L122.90,136.75L120.35,130.43z"/><path style="fill:#000019" d="M99.36,68.31L99.74,68.44L99.36,68.60L99.32,76.07L99.33,76.57L99.29,79.57L99.17,79.57L99.17,67.03L99.24,67.09z"/><path style="fill:#666666" d="M80.75,41.59L82.36,41.67L82.42,81.55L82.09,81.71L78.23,82.39L78.06,82.45L77.95,82.36L77.84,75.60L77.84,140.04L78.03,120.52L78.12,130.17L80.24,130.26L82.58,130.39L82.53,168.12L77.95,168.89L77.85,170.96L76.83,171.13L76.61,41.51z"/><path style="fill:#333333" d="M133.03,32.44L133.11,49.48L133.07,49.62L132.60,49.66L132.51,48.85L132.33,49.59L132.07,49.79L100.13,55.46L99.17,55.67L99.17,54.17L131.80,48.38L132.19,48.10L132.28,0.22L132.86,0.16z"/><path style="fill:#333333" d="M149.57,49.43L149.66,0.22L153.74,0.22L153.83,52.15L153.76,85.76L151.22,85.16L149.58,84.59L149.57,77.62L148.89,78.18L147.95,78.44L147.27,78.53L126.21,82.28L125.77,82.30L125.71,82.41L124.72,82.54L114.20,84.42L114.15,80.07L114.12,79.96L113.00,79.94L99.29,79.57L99.33,76.57L149.56,67.59L149.58,59.58L144.44,60.48L141.14,61.07L141.19,67.10L142.28,68.34L142.11,68.51L141.09,68.67L99.80,76.03L99.32,76.07L99.36,68.60L99.74,68.44L99.36,68.31L99.24,67.09L99.17,67.03L99.16,58.01L148.85,49.21L149.23,49.05z"/><path style="fill:#000020" d="M151.30,124.85L150.79,125.01L150.99,124.75L151.25,124.71z"/><path style="fill:#000020" d="M132.40,137.91L130.55,137.78L132.40,137.78z"/><path style="fill:#a8881b" d="M130.92,96.80L130.66,97.56L130.59,98.29L130.70,98.79L131.24,99.77L129.44,100.02L128.33,100.02L127.98,99.53L127.76,98.36L128.17,97.25L129.10,96.50L130.51,96.50z"/><path style="fill:#a8881b" d="M130.68,114.72L130.93,115.02L130.70,115.52L130.59,116.19L130.84,117.23L131.23,117.85L129.28,118.24L128.33,118.24L128.00,117.73L127.98,115.78L128.77,114.90L129.62,114.55z"/><path style="fill:#d7d0c0" d="M155.41,117.58L155.74,119.92L155.59,122.32L154.07,123.65L153.30,124.34L152.96,124.51L151.30,124.85L151.25,124.71L152.32,123.03L152.41,122.60L152.33,122.53L152.25,121.87L152.25,119.52L152.42,118.35L152.68,117.41L154.74,117.41z"/><path style="fill:#7c7c7c" d="M114.20,84.92L114.20,84.42L124.72,82.54L125.71,82.41L125.70,82.88L125.39,83.05L122.54,83.55L121.24,83.80L119.98,84.54L119.65,85.08L118.02,85.13L115.02,85.05L114.96,84.98z"/><path style="fill:#7c7c7c" d="M126.04,137.55L126.03,130.09L126.22,130.02L137.08,128.09L144.77,126.34L145.27,126.25L146.27,126.00L146.74,126.05L146.76,138.21L140.09,138.12L139.93,138.11L139.76,138.03L133.56,137.86L133.08,137.77L132.40,137.78L130.55,137.78L127.39,137.71L127.33,137.64z"/><path style="fill:#404040" d="M285.47,37.40L285.52,0.03L296.84,0.05L296.84,209.91L268.64,209.93L268.60,186.73L268.58,122.09L268.51,122.03L268.43,57.18L268.47,0.03L278.50,0.04L278.46,0.16L277.88,0.22L278.11,185.11L278.22,209.75L278.78,209.75L278.80,155.64L278.77,91.00L278.71,90.93L278.63,26.08L278.68,0.03L285.35,0.03z"/><path style="fill:#404040" d="M141.14,61.07L144.44,60.48L149.58,59.58L149.56,67.59L99.33,76.57L99.32,76.07L99.80,76.03L141.09,68.67L142.11,68.51L142.55,68.43L142.28,68.34L141.19,67.10z"/><path style="fill:#ffffff" d="M121.87,31.80L121.35,31.73L121.37,0.03L122.70,0.03L122.72,48.11L99.16,52.32L99.14,42.16L99.47,42.08L102.47,42.16L106.15,42.17L120.71,39.58L121.72,39.44L121.97,39.41L121.99,31.82z"/><path style="fill:#636363" d="M136.85,81.13L135.74,81.20L125.87,82.96L125.70,82.88L125.71,82.41L126.21,82.28L147.27,78.53L147.95,78.44L147.87,84.04L147.78,84.13L146.61,83.79L146.70,83.70L146.73,81.64L146.11,81.71L142.26,82.39L142.08,82.55z"/><path style="fill:#636363" d="M147.90,138.03L146.95,138.22L146.76,138.21L146.74,126.05L146.77,125.91L147.77,125.66L147.87,125.76z"/><path style="fill:#000019" d="M68.00,31.76L67.88,31.77L67.91,23.90L67.98,23.96z"/><path style="fill:#000019" d="M99.47,42.08L99.14,42.16L96.44,42.15L96.34,42.00z"/><path style="fill:#000019" d="M132.60,49.66L132.07,49.79L132.33,49.59L132.51,48.85z"/><path style="fill:#000019" d="M114.15,80.07L113.33,80.12L113.00,79.94L114.12,79.96z"/><path style="fill:#000019" d="M82.09,81.71L82.42,81.55L82.52,81.64z"/><path style="fill:#000019" d="M125.71,82.41L125.77,82.30L126.21,82.28z"/><path style="fill:#000019" d="M77.95,82.36L78.06,82.45L78.03,120.52L77.84,140.04L77.84,75.60z"/><path style="fill:#000019" d="M115.02,85.05L114.21,85.09L114.20,84.92L114.96,84.98z"/><path style="fill:#000019" d="M119.66,85.25L118.02,85.13L119.65,85.08z"/><path style="fill:#000019" d="M152.96,124.51L153.30,124.34L153.46,124.41z"/><path style="fill:#000019" d="M150.48,125.05L150.13,125.18L150.32,124.93z"/><path style="fill:#000019" d="M119.55,128.40L119.73,90.77L119.82,128.88L119.72,128.90z"/><path style="fill:#000019" d="M82.58,130.39L80.24,130.26L82.58,130.26z"/><path style="fill:#000019" d="M99.08,130.55L98.67,130.44L99.12,130.42z"/><path style="fill:#000019" d="M133.03,137.91L132.40,137.91L132.40,137.78L133.08,137.77z"/><path style="fill:#666666" d="M121.23,31.77L121.25,31.88L121.84,31.92L121.81,39.25L121.72,39.44L120.71,39.58L106.15,42.17L105.48,42.09L105.54,34.83L106.77,34.55L106.87,0.22L121.16,0.16z"/><path style="fill:#666666" d="M113.79,176.31L98.13,179.08L97.29,179.00L97.35,171.74L113.63,168.76L113.68,168.70L113.80,168.74z"/><path style="fill:#333333" d="M278.63,26.08L278.71,90.93L278.80,155.64L278.78,209.75L278.22,209.75L278.11,185.11L277.88,0.22L278.46,0.16z"/><path style="fill:#333333" d="M35.81,20.89L35.90,85.59L35.98,150.28L35.90,209.81L35.32,209.74L35.22,116.24L35.16,0.21L35.72,0.21z"/><path style="fill:#333333" d="M8.06,22.90L8.15,87.60L8.23,152.28L8.15,209.81L7.57,209.74L7.47,116.91L7.41,0.21L7.97,0.21z"/><path style="fill:#333333" d="M295.27,0.22L296.67,0.22L296.67,209.75L295.43,209.75z"/><path style="fill:#333333" d="M133.19,161.99L133.18,209.75L132.62,209.75L132.51,193.64L132.40,137.91L133.03,137.91z"/><path style="fill:#333333" d="M154.07,124.31L154.00,181.71L153.92,209.80L149.83,209.75L149.77,125.24L150.13,125.18L150.48,125.05L150.79,125.01L151.30,124.85L152.96,124.51L153.46,124.41L154.13,124.24z"/><path style="fill:#000020" d="M65.49,16.56L65.40,15.88L65.47,15.93z"/><path style="fill:#000020" d="M278.63,26.08L278.46,0.16L278.50,0.04L278.68,0.03z"/><path style="fill:#000020" d="M121.35,31.73L121.23,31.77L121.16,0.16L121.20,0.04L121.37,0.03z"/><path style="fill:#000020" d="M133.03,32.44L132.86,0.16L132.90,0.04L133.07,0.03z"/><path style="fill:#000020" d="M67.98,33.06L67.88,31.77L68.00,31.76z"/><path style="fill:#000020" d="M285.47,37.40L285.35,0.03L285.52,0.03z"/><path style="fill:#000020" d="M121.97,39.41L121.72,39.44L121.81,39.25L121.84,31.92L121.87,31.80L121.99,31.82z"/><path style="fill:#000020" d="M102.47,42.16L105.48,42.09L106.15,42.17z"/><path style="fill:#000020" d="M139.86,43.76L139.75,0.03L139.92,0.03z"/><path style="fill:#000020" d="M122.95,47.92L123.14,48.06L122.72,48.11L122.70,0.03L122.87,0.03z"/><path style="fill:#000020" d="M133.07,49.62L133.11,49.48L133.52,49.54z"/><path style="fill:#000020" d="M268.43,57.18L268.30,0.03L268.47,0.03z"/><path style="fill:#000020" d="M78.02,63.37L77.94,62.35L78.01,62.41z"/><path style="fill:#000020" d="M142.11,68.51L142.28,68.34L142.55,68.43z"/><path style="fill:#000020" d="M89.66,80.31L90.04,80.18L90.21,57.88L90.22,80.86L90.03,80.48z"/><path style="fill:#000020" d="M99.18,80.93L99.17,79.57L99.29,79.57z"/><path style="fill:#000020" d="M125.39,83.05L125.70,82.88L125.87,82.96z"/><path style="fill:#000020" d="M160.44,83.25L160.35,18.55L160.42,18.61z"/><path style="fill:#000020" d="M35.90,85.59L35.81,20.89L35.88,20.95z"/><path style="fill:#000020" d="M154.08,85.83L154.12,85.95L153.76,85.76L153.83,52.15L153.90,52.21z"/><path style="fill:#000020" d="M8.15,87.60L8.06,22.90L8.13,22.96z"/><path style="fill:#000020" d="M141.22,94.79L141.12,94.29L141.20,94.34z"/><path style="fill:#000020" d="M130.70,98.79L130.59,98.29L130.67,98.36z"/><path style="fill:#000020" d="M44.43,98.97L44.34,34.26L44.40,34.33z"/><path style="fill:#000020" d="M156.17,122.20L156.17,115.17L156.24,115.23z"/><path style="fill:#000020" d="M99.60,122.37L99.50,121.87L99.58,121.93z"/><path style="fill:#000020" d="M152.32,123.03L152.33,122.53L152.41,122.60z"/><path style="fill:#000020" d="M141.22,124.38L141.12,123.70L141.20,123.76z"/><path style="fill:#000020" d="M146.74,126.05L146.27,126.00L146.77,125.91z"/><path style="fill:#000020" d="M114.12,127.83L113.69,127.85L114.14,127.72z"/><path style="fill:#000020" d="M119.85,129.89L119.75,129.84L119.72,128.90L119.82,128.88z"/><path style="fill:#000020" d="M82.58,130.39L82.58,130.26L83.37,130.28z"/><path style="fill:#000020" d="M99.26,131.90L99.08,130.55L99.12,130.42L99.30,130.43z"/><path style="fill:#000020" d="M123.15,137.42L123.00,193.08L122.90,136.75z"/><path style="fill:#000020" d="M127.39,137.71L124.37,137.62L126.04,137.55L127.33,137.64z"/><path style="fill:#000020" d="M78.20,148.61L78.10,148.11L78.18,148.17z"/><path style="fill:#000020" d="M278.80,155.64L278.71,90.93L278.77,91.00z"/><path style="fill:#000020" d="M133.56,137.86L133.29,137.97L133.19,161.99L133.03,137.91L133.08,137.77z"/><path style="fill:#000020" d="M100.14,168.30L99.33,168.34L99.33,168.17z"/><path style="fill:#000020" d="M140.03,173.14L139.93,138.11L140.09,138.12z"/><path style="fill:#000020" d="M93.94,179.07L97.29,179.00L98.13,179.08z"/><path style="fill:#000020" d="M268.60,186.73L268.51,122.03L268.58,122.09z"/><path style="fill:#000020" d="M78.41,178.66L75.27,178.75L75.19,208.46L75.06,178.57z"/><path style="fill:#000020" d="M160.65,209.93L160.48,209.93L160.44,209.80L160.52,148.11L160.59,148.17z"/><path style="fill:#000020" d="M155.30,209.93L155.13,209.93L155.24,147.65z"/><path style="fill:#000020" d="M154.13,209.93L153.96,209.93L153.92,209.80L154.00,181.71L154.07,181.77z"/><path style="fill:#000020" d="M44.63,209.93L44.47,209.93L44.50,163.48L44.57,163.55z"/><path style="fill:#000020" d="M42.96,209.93L42.79,209.93L42.90,165.04z"/><path style="fill:#000020" d="M36.12,209.93L35.94,209.93L35.90,209.81L35.98,150.28L36.05,150.34z"/><path style="fill:#000020" d="M15.21,209.93L15.05,209.93L15.16,163.53z"/><path style="fill:#000020" d="M8.37,209.93L8.19,209.93L8.15,209.81L8.23,152.28L8.30,152.35z"/><path style="fill:#aca699" d="M130.53,95.28L129.11,95.34L127.77,96.01L127.27,96.68L126.65,98.30L126.44,98.19L127.00,96.58L127.60,95.84L128.94,95.17L130.49,95.19z"/><path style="fill:#aca699" d="M130.70,113.50L128.93,113.55L127.77,114.23L127.35,114.81L126.67,116.52L126.65,115.61L127.33,114.30L128.77,113.39L129.66,113.22z"/><path style="fill:#d7d0c0" d="M67.67,13.07L67.83,14.21L67.83,15.04L67.48,16.99L66.92,18.11L66.14,18.11L65.49,16.56L65.47,15.93L65.40,15.88L65.40,14.38L65.58,13.25L65.75,12.93L67.50,12.91z"/><path style="fill:#d7d0c0" d="M155.42,87.98L155.58,88.66L155.58,92.39L155.24,93.72L154.57,95.05L154.02,95.36L153.57,95.36L153.25,95.16L152.73,94.18L152.43,93.43L152.32,92.95L152.25,92.28L152.25,89.43L152.40,88.63L151.85,87.63L154.92,87.64z"/><path style="fill:#d7d0c0" d="M144.37,90.00L144.54,91.16L144.54,93.72L144.38,94.90L143.54,96.90L142.99,97.37L142.53,97.37L142.04,97.00L141.36,95.35L141.22,94.79L141.20,94.34L141.12,94.29L141.21,90.48L140.86,89.97L140.79,89.66L143.88,89.65z"/><path style="fill:#d7d0c0" d="M131.67,97.68L131.84,98.90L131.63,99.71L131.24,99.77L130.70,98.79L130.67,98.36L130.59,98.29L130.66,97.56L130.92,96.80L131.02,96.83z"/><path style="fill:#d7d0c0" d="M131.36,115.38L131.84,116.40L131.84,117.30L131.61,117.92L131.23,117.85L130.84,117.23L130.59,116.19L130.70,115.52L130.93,115.02z"/><path style="fill:#d7d0c0" d="M144.40,119.56L144.54,120.75L144.55,123.99L144.06,124.67L142.04,126.32L140.31,126.67L140.34,126.32L141.21,125.16L141.22,124.38L141.20,123.76L141.12,123.70L141.12,121.70L141.36,120.30L141.65,119.41L144.23,119.39z"/><path style="fill:#d7d0c0" d="M67.98,192.47L67.98,194.69L67.48,196.53L67.09,196.97L66.43,197.03L65.97,196.15L65.66,194.93L65.66,193.07L65.92,191.80L67.82,191.80z"/><path style="fill:#7c7c7c" d="M142.08,82.55L142.26,82.39L146.11,81.71L146.73,81.64L146.70,83.70L146.61,83.79z"/><path style="fill:#808080" d="M121.84,31.92L121.25,31.88L121.23,31.77L121.35,31.73L121.87,31.80z"/><path style="fill:#808080" d="M81.04,58.38L81.21,58.54L81.35,59.57L81.35,62.80L80.98,64.43L80.13,65.92L79.18,65.92L78.51,64.92L78.34,64.59L78.02,63.37L78.01,62.41L77.94,62.35L77.94,60.69L78.10,59.34L78.20,58.84L78.46,58.23z"/><path style="fill:#808080" d="M112.13,88.48L112.11,90.21L111.95,90.89L111.55,91.50L111.07,91.56L110.62,90.45L110.62,88.75L110.77,88.20L111.95,88.16z"/><path style="fill:#808080" d="M99.50,90.77L99.59,90.27L99.68,90.15L100.92,90.15L100.92,92.56L100.52,93.50L99.92,93.50L99.57,92.50z"/><path style="fill:#808080" d="M112.13,118.06L112.07,120.43L111.55,121.43L111.12,121.43L110.62,120.04L110.62,118.68L110.89,117.91L111.97,117.89z"/><path style="fill:#808080" d="M100.97,120.03L101.08,121.81L100.75,122.98L100.34,123.43L100.09,123.44L99.74,122.77L99.60,122.37L99.58,121.93L99.50,121.87L99.50,120.86L99.69,119.90L100.91,119.91z"/><path style="fill:#808080" d="M81.26,143.41L81.52,144.99L81.52,147.22L81.19,149.06L80.30,150.84L79.18,150.84L78.86,150.50L78.20,148.61L78.18,148.17L78.10,148.11L78.03,146.95L78.03,146.10L78.10,144.93L78.35,143.59L78.46,143.30L81.19,143.32z"/><path style="fill:#404040" d="M122.95,47.92L122.87,0.03L132.90,0.04L132.86,0.16L132.28,0.22L132.19,48.10L131.80,48.38L99.17,54.17L99.16,52.32L122.72,48.11L123.14,48.06z"/><path style="fill:#404040" d="M147.78,84.13L147.87,84.04L147.95,78.44L148.89,78.18L149.57,77.62L149.58,84.59L148.21,84.32z"/><g id="Actor_.0"><g style="stroke:#000000;stroke-width:0.353"><path d="M119.88,129.96L120.72,129.46L121.24,130.90L138.96,126.93L138.81,125.41L138.76,90.50L140.72,90.75L141.25,90.65"/><path d="M119.82,84.73L120.66,85.51L120.72,129.46L138.81,125.41L140.77,125.04L140.72,90.75L138.91,88.75L121.18,83.86L120.66,85.51L138.76,90.50L138.91,88.75L140.14,88.53"/><path d="M126.51,116.67L126.51,116.73L126.55,117.32L126.91,118.44L127.59,119.38L128.52,120.05L129.58,120.36L130.67,120.29L131.67,119.84L132.47,119.06L132.99,118.05L133.17,116.90L132.98,115.74L132.47,114.70L131.66,113.89L130.66,113.39L129.57,113.25L128.51,113.51L127.59,114.13L126.91,115.03L126.55,116.14L126.51,116.67"/><path d="M126.81,99.99L126.53,99.13L126.48,98.54L126.53,97.95L126.89,96.84L127.56,95.94L128.48,95.32L129.55,95.06L130.64,95.20L131.64,95.70L132.44,96.51L132.96,97.55L133.14,98.71L132.96,99.86L132.45,100.87L131.65,101.65L130.65,102.10L129.56,102.17L128.49,101.86L127.57,101.19L126.89,100.25L126.81,99.99"/><path d="M129.67,113.45L128.67,113.69L127.81,114.28L127.18,115.13L126.84,116.17L126.84,117.27L127.18,118.32L127.81,119.21L128.68,119.84L129.67,120.14L130.70,120.07"/><path d="M129.64,95.26L128.64,95.50L127.78,96.09L127.15,96.94L126.82,97.98L126.82,99.08L127.16,100.13L127.79,101.02L128.65,101.65L129.65,101.95L130.68,101.88"/><path d="M131.79,115.90L130.65,115.75"/><path d="M131.79,97.72L130.64,97.57"/><path d="M131.85,117.69L131.45,118.05"/><path d="M140.19,126.72L138.96,126.93L140.77,125.04L141.29,124.94"/><path d="M138.37,127.16L138.67,127.10L139.49,126.93L142.02,126.39L151.30,124.74"/><path d="M138.32,87.69L138.59,87.70L138.95,88.05"/><path d="M142.84,97.45L143.46,97.05L143.82,96.43L143.99,96.12L144.40,94.77L144.61,93.16L144.61,91.48L144.43,90.04L143.60,89.35L142.16,88.32L141.97,88.21L140.53,87.91L139.44,87.72L138.96,87.65L138.62,87.63L138.49,87.63"/><path d="M142.02,126.39L142.21,126.26L143.65,125.12L144.47,124.41L144.53,124.37L152.40,122.97"/><path d="M142.28,117.94L142.90,117.54L143.49,117.71L143.52,117.72L144.07,118.46L144.47,119.68L144.70,121.22L144.70,122.91L144.53,124.37"/><path d="M152.36,88.68L144.48,90.08L144.66,91.48L144.66,93.16L144.44,94.78L144.04,96.15L143.49,97.08L142.88,97.48L142.26,97.30"/><path d="M141.97,88.21L151.25,86.56"/><path d="M144.47,124.41L144.65,122.90L144.65,121.23L144.43,119.70L144.02,118.49L143.84,118.25L143.48,117.75L142.87,117.57"/><path d="M144.43,90.04L144.48,90.08"/><path d="M153.39,115.96L154.01,115.56L154.62,115.74L155.17,116.49L155.58,117.70L155.80,119.25L155.81,120.93L155.63,122.39L155.58,122.43L154.75,123.15L153.31,124.28L153.12,124.41L150.59,124.96L149.77,125.13L149.48,125.18"/><path d="M149.60,85.65L149.72,85.65L150.07,85.68L150.54,85.74L151.64,85.94L153.07,86.23L153.26,86.35L154.71,87.38L155.53,88.07L155.59,88.10L155.77,89.50L155.76,91.19L155.55,92.81L155.14,94.17L154.60,95.11L153.98,95.51L153.36,95.33"/><path d="M149.43,85.71L149.69,85.72L150.05,86.08"/><path d="M153.12,124.41L154.40,124.19"/><path d="M153.07,86.23L154.35,86.01"/><path d="M155.58,122.43L155.76,120.93L155.75,119.25L155.53,117.72L155.13,116.52L154.95,116.27L154.59,115.78L153.97,115.60"/><path d="M155.53,88.07L155.72,89.51L155.72,91.18L155.50,92.79L155.10,94.14L154.92,94.45L154.56,95.07L153.95,95.47"/><path d="M155.63,122.39L156.20,122.29"/><path d="M155.59,88.10L156.16,88.00"/></g><g style="stroke:#000000;stroke-width:0.705"><path d="M119.94,130.00L119.88,129.96L119.82,84.73L121.18,83.86L136.72,81.10L154.35,86.01L156.16,88.00L156.20,122.29L154.40,124.19L136.78,128.13L121.24,130.90L119.94,130.00"/><path d="M130.70,120.07L131.64,119.65L132.40,118.93L132.89,117.97L133.06,116.88L133.02,116.67L132.89,115.79L132.39,114.81L131.64,114.04L130.69,113.57L129.67,113.45"/><path d="M129.64,95.26L130.67,95.38L131.61,95.85L132.37,96.62L132.86,97.60L133.03,98.69L132.87,99.78L132.37,100.74L131.62,101.46L130.68,101.88"/><path d="M138.37,127.16L138.60,127.09L140.19,126.72L140.45,126.17L141.28,124.98L141.29,124.94L141.12,123.55L141.12,121.86L141.33,120.24L141.74,118.88L142.28,117.94"/><path d="M138.49,87.63L138.40,87.63L138.34,87.65L138.32,87.68L138.37,87.76L138.55,87.88L139.31,88.22L140.14,88.53L140.41,89.22L141.24,90.61L141.25,90.65L141.07,92.11L141.08,93.80L141.30,95.34L141.71,96.56L142.26,97.30"/><path d="M142.27,117.96L142.87,117.57"/><path d="M142.23,97.27L142.84,97.45"/><path d="M153.39,115.96L152.84,116.90L152.44,118.26L152.22,119.88L152.22,121.57L152.40,122.97L152.39,123.00L151.56,124.19L151.30,124.74L149.71,125.12L149.48,125.18"/><path d="M153.36,95.33L152.82,94.58L152.41,93.37L152.19,91.82L152.18,90.14L152.36,88.68L152.34,88.63L151.51,87.24L151.25,86.56L150.41,86.24L149.66,85.90L149.48,85.78L149.43,85.70L149.45,85.68L149.51,85.66L149.60,85.65"/><path d="M153.38,115.99L153.97,115.60"/><path d="M153.95,95.47L153.34,95.29"/></g></g><g id="Actor_.1"><g style="stroke:#000000;stroke-width:0.353"><path d="M129.27,114.66L128.66,114.99L128.19,115.51L127.91,116.18L127.85,116.91L128.01,117.63L128.38,118.26L128.92,118.73L129.57,118.99L130.26,119.02"/></g><g style="stroke:#000000;stroke-width:0.705"><path d="M129.27,114.66L129.95,114.56L130.62,114.71L131.22,115.08L131.68,115.64L131.95,116.33L132.01,117.06L131.83,117.77L131.45,118.37L130.91,118.80L130.26,119.02"/><path d="M131.58,118.16L131.13,117.76L130.76,117.13L130.59,116.41L130.65,115.68L130.94,115.02L131.00,114.95"/></g></g><g id="Actor_.2"><g style="stroke:#000000;stroke-width:0.353"><path d="M129.55,96.40L128.90,96.62L128.36,97.06L127.99,97.67L127.83,98.38L127.89,99.11L128.16,99.79L128.63,100.35L129.24,100.71L129.92,100.85L130.59,100.74"/></g><g style="stroke:#000000;stroke-width:0.705"><path d="M129.55,96.40L130.24,96.41L130.89,96.67L131.43,97.13L131.81,97.76L131.98,98.47L131.93,99.21L131.66,99.87L131.19,100.40L130.59,100.74"/><path d="M130.99,96.75L130.74,97.17L130.57,97.88L130.63,98.62L130.91,99.30L131.38,99.85L131.57,99.97"/></g></g><g id="Actor_.3"><g style="stroke:#000000;stroke-width:0.353"><path d="M123.66,48.01L123.59,48.04"/><path d="M140.23,48.39L140.22,48.40"/><path d="M148.41,67.44L148.39,67.44"/><path d="M149.50,59.55L149.29,59.58"/></g><g style="stroke:#000000;stroke-width:0.705"><path d="M8.02,-0.00L8.30,210.00"/><path d="M14.95,0.00L15.22,210.00"/><path d="M35.78,-0.00L36.05,210.00"/><path d="M42.70,-0.00L42.97,210.00"/><path d="M114.15,84.41L148.58,78.28L149.16,77.98L149.62,77.50L149.91,76.88L150.01,76.20L149.97,67.96L149.71,67.58L149.51,67.46L148.63,67.40L148.41,67.44L99.19,76.19"/><path d="M99.18,68.51L149.50,59.55L149.70,59.45L149.86,59.28L149.96,59.08L149.99,58.85L149.98,50.85L149.88,50.16L149.58,49.52L149.12,49.01L148.54,48.68L147.90,48.56L140.45,48.35L99.16,55.69"/><path d="M99.16,52.37L124.30,47.92L131.75,48.12L131.97,48.16L132.32,48.44L132.42,48.66L132.43,49.78"/><path d="M123.11,210.00L123.01,136.84"/><path d="M122.90,48.15L122.84,-0.00"/><path d="M133.26,210.00L133.17,137.84"/><path d="M132.99,-0.00L133.06,49.66"/><path d="M140.09,138.03L140.19,210.00"/><path d="M139.92,-0.00L139.98,48.43"/><path d="M141.19,61.03L141.23,67.04L141.41,67.39L142.42,68.50"/><path d="M153.94,124.29L154.05,210.00"/><path d="M153.89,85.88L153.78,-0.00"/><path d="M155.35,210.00L155.24,123.33"/><path d="M155.08,-0.00L155.19,86.94"/><path d="M160.35,-0.00L160.62,210.00"/><path d="M268.75,210.00L268.47,-0.00"/><path d="M278.90,210.00L278.63,-0.00"/><path d="M285.82,210.00L285.55,0.00"/></g></g><g id="Actor_.4"><g style="stroke:#000000;stroke-width:0.353"><path d="M114.18,107.92L119.87,122.12"/><path d="M123.24,130.54L126.08,137.65L126.07,130.04"/><path d="M125.72,83.05L125.72,82.35"/><path d="M146.83,81.55L146.83,83.91"/><path d="M146.88,125.87L146.90,138.21"/></g><g style="stroke:#000000;stroke-width:0.705"><path d="M114.19,114.80L119.88,129.00"/><path d="M114.15,85.00L119.82,85.15"/><path d="M147.99,125.62L148.01,138.01L146.90,138.21L123.31,137.58L120.40,130.32"/><path d="M146.83,81.55L141.66,82.47"/><path d="M147.94,84.22L147.93,78.40"/></g></g><g id="Actor_.5"><g style="stroke:#000000;stroke-width:0.353"/><g style="stroke:#000000;stroke-width:0.705"><path d="M137.89,127.88L137.67,127.98L135.56,128.35L135.50,128.36"/></g></g><g id="Actor_.6"><g style="stroke:#000000;stroke-width:0.353"><path d="M58.52,210.00L58.25,-0.00"/><path d="M66.74,197.19L67.14,197.03L67.52,196.52L67.82,195.72L68.02,194.71L68.08,193.61L68.01,192.53L67.82,191.60L67.51,190.90L67.14,190.53L66.74,190.51"/><path d="M66.50,18.28L66.91,18.11L67.29,17.60L67.59,16.80L67.79,15.79L67.85,14.69L67.78,13.61L67.59,12.68L67.28,11.98L66.91,11.61L66.50,11.59"/></g><g style="stroke:#000000;stroke-width:0.705"><path d="M44.65,210.00L44.38,0.00"/><path d="M66.74,197.19L66.34,196.99L65.99,196.45L65.74,195.62L65.60,194.60L65.60,193.50L65.73,192.43L65.98,191.51L66.33,190.85L66.73,190.51"/><path d="M66.50,18.28L66.11,18.08L65.76,17.53L65.51,16.71L65.37,15.69L65.37,14.58L65.50,13.51L65.75,12.59L66.10,11.93L66.50,11.59"/><path d="M75.15,178.56L75.19,210.00"/></g></g><g id="Actor_.7"><g style="stroke:#000000;stroke-width:0.353"><path d="M58.57,33.49L104.37,34.73L105.72,34.72L106.31,34.67L106.79,34.58L104.92,34.63L68.84,33.66L68.01,33.52"/><path d="M68.84,33.66L68.80,-0.00"/><path d="M113.81,168.82L98.16,171.62L97.57,171.67L96.22,171.68L76.79,171.15L76.62,41.43"/><path d="M77.90,170.95L76.79,171.15"/><path d="M82.57,130.31L82.62,168.12L77.90,168.96"/><path d="M79.37,141.60L79.96,141.36L80.54,141.65L81.05,142.44L81.42,143.64L81.61,145.13L81.61,146.74L81.42,148.29L81.06,149.63L80.56,150.59L79.98,151.09L79.38,151.06L78.83,150.52"/><path d="M78.06,82.47L97.49,83.00L97.55,130.71"/><path d="M79.26,56.61L79.85,56.37L80.44,56.67L80.94,57.45L81.31,58.66L81.50,60.14L81.50,61.75L81.31,63.31L80.95,64.64L80.45,65.61L79.87,66.11L79.27,66.08L78.72,65.53"/><path d="M79.94,151.05L80.52,150.56L81.01,149.60L81.38,148.27L81.57,146.73L81.56,145.14L81.37,143.66L81.00,142.47L80.50,141.68L79.93,141.39"/><path d="M79.82,56.41L80.39,56.70L80.89,57.48L81.26,58.67L81.45,60.15L81.46,61.74L81.27,63.29L80.90,64.61L80.41,65.57L79.83,66.07"/><path d="M82.62,168.12L90.37,168.33"/><path d="M82.51,81.68L82.46,41.59"/><path d="M90.38,169.97L90.79,170.07L91.63,170.16L92.83,170.22L95.71,170.24L97.09,170.20L98.23,170.14L98.99,170.05L99.31,169.94"/><path d="M97.49,83.00L114.15,80.04"/><path d="M100.39,123.49L100.65,123.26L100.88,122.82L101.05,122.22L101.14,121.49L101.14,120.76L101.05,120.08L100.88,119.53L100.65,119.16L100.38,119.03"/><path d="M100.35,93.67L100.61,93.44L100.84,93.00L101.01,92.39L101.10,91.67L101.10,90.94L101.01,90.26L100.84,89.71L100.61,89.34L100.34,89.21"/><path d="M104.92,34.63L104.88,0.00"/><path d="M106.79,34.58L106.86,34.57L106.82,-0.00"/><path d="M111.49,117.05L111.75,117.19L111.98,117.55L112.15,118.10L112.24,118.78L112.24,119.52L112.16,120.23L111.99,120.84L111.76,121.28L111.49,121.51"/><path d="M111.45,91.69L111.72,91.46L111.95,91.02L112.12,90.41L112.21,89.70L112.20,88.96L112.11,88.28L111.96,87.78L111.72,87.37L111.45,87.23"/><path d="M121.30,32.00L121.96,31.87"/></g><g style="stroke:#000000;stroke-width:0.705"><path d="M68.00,31.81L58.57,33.49L58.76,178.12L96.23,179.13L97.58,179.12L98.17,179.07L113.82,176.27L113.81,168.82L113.77,168.78L112.88,168.71L99.31,168.35"/><path d="M68.01,33.52L67.96,-0.00"/><path d="M76.62,41.43L104.38,42.18L105.73,42.17L106.32,42.12L121.87,39.36L121.97,39.32L121.96,31.87L121.92,31.84L121.73,31.81L121.30,31.78"/><path d="M77.90,170.95L77.73,41.46"/><path d="M79.37,141.60L78.82,142.34L78.38,143.51L78.10,144.97L78.00,146.57L78.10,148.14L78.39,149.51L78.83,150.52L79.35,151.03L79.94,151.05"/><path d="M90.26,80.30L78.06,82.47L78.12,130.19L97.55,130.71L114.21,127.75L114.15,80.04L99.19,79.63"/><path d="M79.83,66.07L79.24,66.04L78.72,65.53L78.28,64.52L77.99,63.16L77.89,61.59L77.99,60.00L78.27,58.52L78.71,57.35L79.26,56.61"/><path d="M79.93,141.39L79.34,141.63"/><path d="M79.82,56.41L79.23,56.64"/><path d="M90.38,169.97L90.33,130.52"/><path d="M90.21,41.80L90.26,81.26"/><path d="M99.31,169.94L99.26,130.41"/><path d="M100.39,123.49L100.11,123.48L99.86,123.23L99.66,122.76L99.53,122.14L99.48,121.42L99.53,120.69L99.66,120.01L99.86,119.48L100.11,119.14L100.38,119.03"/><path d="M100.34,89.21L100.07,89.32L99.82,89.66L99.62,90.20L99.49,90.86L99.44,91.60L99.49,92.32L99.62,92.94L99.82,93.40L100.08,93.66L100.35,93.67"/><path d="M99.14,42.04L99.20,81.23"/><path d="M111.49,121.51L111.24,121.50L110.97,121.25L110.77,120.78L110.63,120.16L110.59,119.44L110.63,118.71L110.76,118.04L110.96,117.50L111.21,117.16L111.49,117.05"/><path d="M111.45,91.69L111.18,91.68L110.93,91.43L110.73,90.97L110.60,90.34L110.55,89.62L110.59,88.89L110.72,88.22L110.93,87.68L111.18,87.34L111.45,87.23"/><path d="M121.30,32.00L121.26,-0.00"/></g></g><g><g/></g><g><g/></g><g><g><path style="stroke:#000000;stroke-width:0.200;stroke-dasharray:3.0 2.0 1.0 2.0" d="M116.26,105.65L138.04,106.24"/></g><g><path style="fill:#000000" d="M116.76,105.65L116.76,105.60L116.75,105.56L116.74,105.51L116.72,105.46L116.70,105.42L116.68,105.38L116.65,105.34L116.61,105.30L116.58,105.27L116.54,105.24L116.50,105.21L116.45,105.19L116.41,105.18L116.36,105.16L116.31,105.16L116.26,105.15L116.21,105.16L116.16,105.16L116.12,105.18L116.07,105.19L116.02,105.21L115.98,105.24L115.94,105.27L115.91,105.30L115.87,105.34L115.84,105.38L115.82,105.42L115.80,105.46L115.78,105.51L115.77,105.56L115.76,105.60L115.76,105.65L115.76,105.70L115.77,105.75L115.78,105.80L115.80,105.84L115.82,105.89L115.84,105.93L115.87,105.97L115.91,106.01L115.94,106.04L115.98,106.07L116.02,106.09L116.07,106.12L116.12,106.13L116.16,106.14L116.21,106.15L116.26,106.15L116.31,106.15L116.36,106.14L116.41,106.13L116.45,106.12L116.50,106.09L116.54,106.07L116.58,106.04L116.61,106.01L116.65,105.97L116.68,105.93L116.70,105.89L116.72,105.84L116.74,105.80L116.75,105.75L116.76,105.70z"/></g><g><path style="fill:#000000" d="M138.54,106.24L138.53,106.19L138.53,106.14L138.51,106.10L138.50,106.05L138.48,106.01L138.45,105.96L138.42,105.92L138.39,105.89L138.35,105.85L138.31,105.83L138.27,105.80L138.23,105.78L138.18,105.76L138.13,105.75L138.08,105.74L138.04,105.74L137.99,105.74L137.94,105.75L137.89,105.76L137.84,105.78L137.80,105.80L137.76,105.83L137.72,105.85L137.68,105.89L137.65,105.92L137.62,105.96L137.59,106.01L137.57,106.05L137.56,106.10L137.55,106.14L137.54,106.19L137.54,106.24L137.54,106.29L137.55,106.34L137.56,106.39L137.57,106.43L137.59,106.48L137.62,106.52L137.65,106.56L137.68,106.59L137.72,106.63L137.76,106.66L137.80,106.68L137.84,106.70L137.89,106.72L137.94,106.73L137.99,106.74L138.04,106.74L138.08,106.74L138.13,106.73L138.18,106.72L138.23,106.70L138.27,106.68L138.31,106.66L138.35,106.63L138.39,106.59L138.42,106.56L138.45,106.52L138.48,106.48L138.50,106.43L138.51,106.39L138.53,106.34L138.53,106.29z"/></g></g><g><g/></g><g><g/></g><g/><g id="paperID" visibility="hidden" opacity="0.00" transform="scale(0.000100)"><path style="stroke:#000000;stroke-width:0.500;fill:#e6e6e6;fill-rule:evenodd" d="M-2000.00,-2000.00L2297.00,-2000.00L2297.00,2210.00L-2000.00,2210.00zM0.00,0.00L297.00,0.00L297.00,210.00L0.00,210.00z"/><path style="fill:#000000;fill-opacity:0.118" d="M3.00,210.00L297.00,210.00L297.00,3.00L300.00,3.00L300.00,213.00L3.00,213.00z"/></g><g id="ToolTip" visibility="hidden" opacity="0" transform="translate(0,0)"><rect id="ToolTipShadow" opacity="0.20" fill="black" stroke="none" x="0" y="0" width="30" height="8"/><rect id="ToolTipBG" fill="#ffffe1" stroke="black" x="0" y="0" width="30" height="8"/><text xml:space="preserve" id="ToolTipText" fill="black" x="0" y="0" width="30" height="8">tooltip</text></g></g></svg>