<?xml version="1.0" encoding="UTF-8" standalone="yes"?><svg xmlns="http://www.w3.org/2000/svg" xmlns:xlink="http://www.w3.org/1999/xlink" width="297.000mm" height="210.000mm" viewBox="0.000000 0.000000 297.000000 210.000000" stroke-linejoin="round" stroke-linecap="round" fill="none" fill-rule="evenodd"><desc>Composer Export</desc><script type="text/ecmascript"><![CDATA[
if(typeof(top) != "undefined")
{
	top.ShowPaper = ShowPaper;
}
function ShowHotSpot(evt,hotspotid)
{
	var svgDocument = evt.target.ownerDocument;
	var strId = "hotspot."+hotspotid;
	var hotspot = svgDocument.getElementById(strId);
	if(hotspot)
		hotspot.setAttribute("opacity",".5");
}
function HideHotSpot(evt,hotspotid)
{
	var svgDocument = evt.target.ownerDocument;
	var strId = "hotspot."+hotspotid;
	var hotspot = svgDocument.getElementById(strId);
	if(hotspot)
		hotspot.setAttribute("opacity","0");

	var toolTip = svgDocument.getElementById('ToolTip');
	if(toolTip)
		toolTip.setAttribute("visibility","hidden");
}
function ShowToolTip(evt,hotspotid,strTooltip)
{
	if(strTooltip=="")
	return;

	// change text
	var svgDocument = evt.target.ownerDocument;
	var tiptext = svgDocument.getElementById('ToolTipText');
	if( !tiptext )
	return;
	tiptext.firstChild.nodeValue = " " + strTooltip + "  " ;

	// show tooltip before, else some refresh issue

	var toolTip = svgDocument.getElementById('ToolTip');
	if(!toolTip)
	return;

	toolTip.setAttribute("visibility","visible");
	toolTip.setAttribute("opacity",".95");

	// move tooltip
	// get viewbox

	var root = svgDocument.documentElement;
	var vbox = (root.getAttribute("viewBox")).split(' ');
	var x0 = parseFloat(vbox[0]);
	var y0 = parseFloat(vbox[1]);
	var vboxW = parseFloat(vbox[2]);
	var vboxH = parseFloat(vbox[3]);

	// get default width of svg

	var strW = root.getAttribute("width");
	var svgW = parseFloat(strW);
	if(strW.indexOf('mm') != -1)
	svgW *= 3.779;

	var strH = root.getAttribute("height");
	var svgH = parseFloat(strH);
	if(strH.indexOf('mm') != -1)
	svgH *= 3.779;  	// 96 dpi  -> 96/25.4 = 3.779

	// update the viewbox / width / height if svg is embedded in html with zoom fit all
	var realx0 = x0;
	var realy0 = y0;
	var realvboxW = vboxW;
	var realvboxH = vboxH;
	var realsvgW = svgW;
	var realsvgH = svgH;

	if ((typeof(top) == "undefined") || (typeof(top.svgctl1) != "undefined")) // embedded in html
	{
		// get window size in pxl

		svgW = window.innerWidth;
		svgH = window.innerHeight;

		// calculate real viewbox

		realsvgW = svgW;
		realsvgH = svgH;
		if((svgW / svgH) > (vboxW / vboxH))
		{
			realvboxW = (vboxH * svgW) / svgH;
			realvboxH = vboxH;
			realx0 = x0 - (realvboxW - vboxW)/2 ;
		}
		else
		{
			realvboxH = (vboxW * svgH) / svgW;
			realvboxW = vboxW;
			realy0 = y0 - (realvboxH - vboxH)/2 ;
		}
	}

	// get user zoom/pan

	var newScale = root.currentScale;
	var translation = root.currentTranslate;

	// transform pxl to user unit

	var xPos = (((evt.clientX+10- translation.x)/newScale) * realvboxW)/realsvgW  + realx0 ;
	var yPos = (((evt.clientY+5- translation.y)/newScale) * realvboxH)/ realsvgH  + realy0 ;
	var scaleForWidth = ( (1 / newScale) * realvboxH) / realsvgH;

	// move tooltip

	toolTip.setAttribute("transform", "translate(" + xPos + "," + yPos + ")" );

	// resize tooltip

	var fontsize = 12;
	tiptext.setAttribute("font-size",fontsize*scaleForWidth);
	tiptext.setAttribute("y", fontsize*scaleForWidth);
	var tipBG = svgDocument.getElementById('ToolTipBG');
	var outline = tiptext.getBBox();
	if(tipBG)
	{
		tipBG.setAttribute("stroke-width", 1*scaleForWidth);
		tipBG.setAttribute("width", Number(outline.width) );
		tipBG.setAttribute("height", Number(outline.height) + fontsize*.5*scaleForWidth );
	}
	var ToolTipShadow = svgDocument.getElementById('ToolTipShadow');
	if(ToolTipShadow)
	{
		ToolTipShadow.setAttribute("width", Number(outline.width) );
		ToolTipShadow.setAttribute("height", Number(outline.height) + fontsize*.5*scaleForWidth );
		ToolTipShadow.setAttribute("x", 3*scaleForWidth);
		ToolTipShadow.setAttribute("y", 3*scaleForWidth);
	}
}
function ShowPaper()
{
  var svgDocument = getDocument();
  var paper = svgDocument.getElementById("paperID");
  if(paper)
  {
    paper.setAttribute("transform","scale(1)");
    paper.setAttribute("opacity","1");
    paper.setAttribute("visibility","visible");
  }
  var svg = svgDocument.getRootElement();
  if(svg)
  {
    svg.setAttribute("width","307.000mm");
    svg.setAttribute("height","220.000mm");
    svg.setAttribute("viewBox","-5.000000 -5.000000 307.000000 220.000000");
  }
}
]]></script><defs/><g><path style="fill:#ffffff" d="M296.84,209.91L0.05,209.91L0.05,0.05L296.84,0.05z"/><path style="fill:#000019" d="M126.86,55.99L126.53,55.90L126.72,55.17L126.84,55.16z"/><path style="fill:#cccccc" d="M153.65,66.66L153.96,66.82L152.33,67.09L151.72,67.47L150.89,68.48L150.56,69.48L150.48,71.05L150.59,71.54L150.73,71.79L150.93,72.37L150.69,72.45L149.06,72.44L148.55,71.28L148.55,69.64L149.15,68.41L149.84,67.59L151.51,66.76L152.95,66.57z"/><path style="fill:#808080" d="M148.61,10.74L150.95,10.90L152.96,11.16L154.26,11.41L154.50,11.70L154.44,11.86L154.03,12.11L153.47,12.17L153.03,12.07L153.12,12.24L152.64,12.34L152.02,12.27L151.99,12.37L151.30,12.50L150.44,12.50L150.17,12.60L147.76,12.66L147.32,12.76L147.32,16.83L152.40,16.49L154.21,16.13L154.40,15.99L154.50,15.39L154.66,15.06L154.96,15.08L156.76,15.43L157.18,15.73L157.08,15.97L155.71,16.43L155.70,16.77L154.69,16.94L148.49,17.43L148.28,56.98L146.11,57.04L139.25,57.04L134.56,56.88L131.89,56.71L130.05,56.54L128.72,56.37L127.72,56.20L126.86,55.99L126.84,55.16L126.84,46.30L127.01,15.88L127.49,15.49L127.93,15.26L128.55,15.18L129.63,14.95L129.83,14.82L130.00,11.47L131.23,11.19L130.43,11.61L130.43,11.80L130.64,11.94L132.23,12.24L133.73,12.41L135.74,12.58L137.54,12.66L137.53,11.08L135.96,11.09L132.45,11.43L131.85,11.43L131.69,11.19L131.72,11.07L133.90,10.83L136.74,10.66L144.09,10.57z"/><path style="fill:#808080" d="M130.55,82.45L136.74,82.62L146.60,82.79L148.28,82.91L148.06,116.29L147.50,116.41L137.19,116.41L133.68,116.24L129.83,115.90L127.21,115.55L127.04,115.54L126.82,115.39L126.67,115.03L126.72,82.28z"/><path style="fill:#fff2e8" d="M155.24,67.09L156.61,68.07L156.81,68.49L156.54,68.60L155.53,68.74L155.75,69.43L155.75,71.67L155.01,73.10L153.80,73.85L152.78,73.93L152.24,73.76L151.24,72.93L150.93,72.37L150.73,71.79L150.59,71.54L150.56,71.11L150.48,71.05L150.56,69.48L150.89,68.48L151.72,67.47L152.33,67.09L153.96,66.82L154.40,66.75z"/><path style="fill:#000020" d="M148.28,82.91L146.60,82.79L148.28,82.79z"/><path style="fill:#000020" d="M127.26,115.67L127.09,129.73L127.04,115.54L127.21,115.55z"/><path style="fill:#666666" d="M157.42,16.09L157.43,42.62L157.25,55.96L157.16,56.15L156.02,56.38L155.65,56.70L155.28,56.86L154.79,56.87L153.80,56.80L151.95,56.80L148.28,56.98L148.49,17.43L154.69,16.94L155.70,16.77L155.71,16.43L157.08,15.97L157.18,15.73z"/><path style="fill:#666666" d="M154.50,15.39L154.40,15.99L154.21,16.13L152.40,16.49L147.32,16.83L147.32,12.76L147.76,12.66L150.17,12.60L150.44,12.50L151.30,12.50L151.99,12.37L152.64,12.34L153.12,12.24L153.47,12.17L154.03,12.11L154.44,11.86z"/><path style="fill:#666666" d="M157.30,83.08L157.17,115.18L156.77,115.68L156.68,139.92L156.59,140.38L155.68,140.82L156.54,140.82L157.28,140.41L157.34,155.97L157.20,165.89L156.41,166.27L154.29,166.63L153.63,166.70L152.63,166.78L150.28,166.96L148.62,167.04L148.11,166.96L147.92,116.85L147.89,116.74L144.59,116.81L136.74,116.72L133.56,116.55L129.16,116.07L127.26,115.67L127.21,115.55L129.83,115.90L133.68,116.24L137.19,116.41L147.50,116.41L148.06,116.29L148.28,82.91L151.63,82.88L156.63,82.95z"/><path style="fill:#cccccc" d="M103.52,60.84L103.61,61.52L103.60,62.30L102.69,62.41L102.08,62.42L101.91,61.92L101.91,61.12L102.42,60.13L102.70,59.88L103.08,59.89z"/><path style="fill:#cccccc" d="M188.52,69.00L185.96,70.78L184.55,71.01L183.71,71.09L183.37,71.02L186.00,69.31L186.11,65.24L188.53,64.92z"/><path style="fill:#cccccc" d="M103.52,73.21L103.61,73.89L103.63,74.39L103.44,74.56L102.03,74.50L101.90,74.13L101.91,73.15L102.35,72.27L102.70,72.08L103.08,72.10z"/><path style="fill:#cccccc" d="M124.48,81.13L130.00,81.47L135.85,81.63L155.41,81.97L163.94,82.03L164.04,59.23L167.81,58.82L167.87,74.90L167.89,81.36L169.63,81.36L169.72,58.56L173.48,58.10L173.65,58.07L173.55,81.08L172.65,81.88L172.03,82.12L169.84,82.38L167.04,82.29L166.62,82.70L163.82,83.04L161.49,83.04L157.31,82.95L156.63,82.95L151.63,82.88L148.28,82.79L146.60,82.79L136.74,82.62L130.55,82.45L126.72,82.28L126.22,82.20L96.61,79.95L95.17,78.95z"/><path style="fill:#cccccc" d="M153.01,167.69L152.89,167.95L152.16,168.21L151.85,168.90L150.16,169.23L151.34,169.23L152.73,168.93L152.94,168.83L153.01,170.86L152.90,171.29L152.13,171.68L151.16,171.74L152.05,171.78L152.13,171.68L153.41,171.47L153.75,171.06L153.75,176.82L153.52,177.09L151.96,177.39L151.33,177.42L151.78,177.57L151.76,178.99L151.43,179.21L151.18,179.25L151.17,191.09L151.07,191.37L150.35,191.98L148.78,192.21L146.77,192.37L144.77,192.45L139.08,192.45L135.90,192.28L133.33,191.98L132.65,191.61L132.63,191.44L135.52,191.80L138.69,191.97L145.35,191.99L145.55,191.85L145.72,178.08L140.87,178.09L136.24,177.91L137.75,177.83L146.60,177.83L148.40,177.76L146.64,177.70L146.54,172.25L146.34,172.11L146.32,169.72L147.57,169.56L145.99,169.46L146.01,168.74L146.20,168.60L146.26,167.20L148.62,167.04L150.28,166.96L152.63,166.78L152.90,166.89z"/><path style="fill:#cccccc" d="M133.57,177.66L132.94,177.59L133.57,177.57z"/><path style="fill:#cccccc" d="M135.90,177.82L134.24,177.74L134.57,177.66L135.91,177.74z"/><path style="fill:#808080" d="M129.16,116.07L133.56,116.55L136.74,116.72L144.59,116.81L147.92,116.85L148.11,166.96L146.10,167.12L135.73,167.04L132.73,166.87L130.72,166.70L129.22,166.54L128.04,166.37L126.64,166.08L126.34,165.83L126.34,149.28L126.49,140.03L127.01,139.71L127.09,129.73L127.26,115.67z"/><path style="fill:#ccc1ba" d="M157.42,69.42L157.51,70.20L157.51,70.89L157.42,71.67L156.85,72.76L155.63,73.75L154.78,73.86L154.13,73.93L153.80,73.85L155.01,73.10L155.75,71.67L155.75,69.43L155.53,68.74L156.54,68.60L156.81,68.49L156.93,68.57z"/><path style="fill:#ccc1ba" d="M153.38,69.10L153.09,70.50L152.69,70.78L151.83,70.82L152.05,69.47L152.33,69.08L153.57,68.91z"/><path style="fill:#000019" d="M155.30,56.98L154.79,56.87L155.28,56.86z"/><path style="fill:#000019" d="M103.61,61.52L103.52,60.84L103.59,60.90z"/><path style="fill:#000019" d="M157.51,70.89L157.51,70.20L157.58,70.27z"/><path style="fill:#000019" d="M150.59,71.54L150.48,71.05L150.56,71.11z"/><path style="fill:#000019" d="M103.61,73.89L103.52,73.21L103.59,73.27z"/><path style="fill:#000019" d="M151.63,82.88L148.28,82.91L148.28,82.79z"/><path style="fill:#000019" d="M157.30,83.08L156.63,82.95L157.31,82.95z"/><path style="fill:#000019" d="M146.26,167.20L146.10,167.12L148.11,166.96L148.62,167.04z"/><path style="fill:#000019" d="M151.78,177.57L151.33,177.42L151.96,177.39z"/><path style="fill:#000019" d="M134.57,177.66L134.24,177.74L133.57,177.66L133.57,177.57z"/><path style="fill:#000019" d="M146.60,177.83L146.64,177.70L148.40,177.76z"/><path style="fill:#000019" d="M137.75,177.83L136.24,177.91L135.90,177.82L135.91,177.74z"/><path style="fill:#000020" d="M131.69,11.19L131.23,11.19L131.72,11.07z"/><path style="fill:#000020" d="M153.47,12.17L153.12,12.24L153.03,12.07z"/><path style="fill:#000020" d="M152.64,12.34L151.99,12.37L152.02,12.27z"/><path style="fill:#000020" d="M154.66,15.06L154.50,15.39L154.44,11.86L154.50,11.70L154.58,11.75z"/><path style="fill:#000020" d="M126.27,51.55L126.65,51.43L126.84,46.30L126.84,55.16L126.72,55.17L126.65,51.71z"/><path style="fill:#000020" d="M120.15,54.45L120.03,54.50L120.14,53.20z"/><path style="fill:#000020" d="M119.98,54.62L119.40,54.55L120.03,54.50z"/><path style="fill:#000020" d="M157.41,56.12L157.16,56.15L157.25,55.96L157.43,42.62z"/><path style="fill:#000020" d="M155.90,56.90L155.30,56.98L155.28,56.86L155.65,56.70z"/><path style="fill:#000020" d="M183.26,71.10L183.37,71.02L183.71,71.09z"/><path style="fill:#000020" d="M154.78,73.86L155.63,73.75L155.37,73.97L154.90,73.95z"/><path style="fill:#000020" d="M152.78,73.93L153.80,73.85L154.13,73.93z"/><path style="fill:#000020" d="M167.87,74.90L167.81,58.82L167.96,58.72z"/><path style="fill:#000020" d="M103.59,75.02L103.44,74.56L103.63,74.39z"/><path style="fill:#000020" d="M161.49,83.04L157.30,83.08L157.31,82.95z"/><path style="fill:#000020" d="M147.92,116.85L144.59,116.81L147.89,116.74z"/><path style="fill:#000020" d="M157.34,155.97L157.28,140.41L157.34,140.25L157.42,140.30z"/><path style="fill:#000020" d="M152.63,166.78L153.63,166.70L153.19,166.89L153.01,167.69L152.90,166.89z"/><path style="fill:#000020" d="M131.51,168.27L131.12,168.31L131.27,168.03L131.53,168.06z"/><path style="fill:#000020" d="M153.01,170.86L152.94,168.83L153.08,168.71z"/><path style="fill:#000020" d="M151.17,191.09L151.18,179.25L151.43,179.21z"/><path style="fill:#666666" d="M131.85,11.43L132.45,11.43L135.96,11.09L137.53,11.08L137.54,12.66L135.74,12.58L133.73,12.41L132.23,12.24L130.64,11.94L130.43,11.80L130.43,11.61L131.23,11.19L131.69,11.19z"/><path style="fill:#cccccc" d="M126.53,55.90L126.25,55.77L126.25,55.40L126.72,55.17z"/><path style="fill:#cccccc" d="M101.77,58.74L101.78,58.94L101.17,59.71L100.91,60.45L100.91,62.41L101.08,63.08L100.89,63.26L99.08,63.42L98.73,62.41L98.73,60.95L99.16,59.71L99.69,59.07L100.19,58.73L100.93,58.58z"/><path style="fill:#cccccc" d="M183.83,65.25L184.34,65.75L184.27,66.43L184.49,67.84L181.94,67.98L181.80,67.78L181.81,66.30L182.28,65.43L183.32,65.07z"/><path style="fill:#cccccc" d="M101.74,70.94L101.51,71.25L100.90,72.48L100.90,74.79L101.09,75.29L100.35,75.45L98.90,75.46L98.74,74.78L98.73,72.82L99.33,71.58L100.19,70.94L100.69,70.76L101.24,70.76z"/><path style="fill:#808080" d="M157.34,140.25L157.28,140.41L156.54,140.82L155.68,140.82L156.59,140.38L156.68,139.92L157.09,139.95z"/><path style="fill:#ffffff" d="M152.05,171.78L151.16,171.74L152.13,171.68z"/><g id="Actor_1.0"><g style="stroke:#000000;stroke-width:0.353"><path d="M157.41,140.37L157.16,140.63L156.42,140.88L155.22,141.10L153.58,141.31L151.57,141.48L149.25,141.61L146.70,141.71L143.99,141.75L141.21,141.76L138.46,141.72L135.81,141.63L133.36,141.50L131.19,141.33L129.36,141.13L127.93,140.91L126.96,140.67L126.46,140.41L126.46,140.16"/><path d="M127.15,140.25L127.33,140.50L128.01,140.75L129.16,140.98L130.74,141.19L132.71,141.37L134.98,141.51L137.50,141.62L140.16,141.68L141.59,141.68L142.88,141.69L145.57,141.66L148.13,141.58L150.48,141.46L152.54,141.30L154.24,141.11L155.52,140.89L156.33,140.66L156.65,140.41"/></g><g style="stroke:#000000;stroke-width:0.353"><path d="M156.65,139.95L157.16,140.12L157.41,140.37L157.33,165.78L157.08,166.03L156.35,166.28L155.14,166.50L153.51,166.71L151.50,166.88L149.18,167.01L146.62,167.11L143.91,167.16L141.14,167.16L138.38,167.12L135.74,167.03L133.29,166.90L131.11,166.73L129.28,166.54L127.86,166.31L126.88,166.07L126.38,165.81L126.46,140.16L126.95,139.90L127.15,139.86"/><path d="M127.15,140.25L127.22,115.61"/><path d="M156.65,140.41L156.73,115.66"/></g></g><g id="Actor_4.0"><g style="stroke:#000000;stroke-width:0.353"><path d="M183.57,69.08L183.31,69.09L183.05,69.04L182.57,68.79L182.16,68.36L181.88,67.79L181.76,67.14L181.80,66.49L182.01,65.91L182.12,65.77L182.36,65.45L182.81,65.17L183.32,65.10"/><path d="M183.31,71.12L186.05,69.32L186.06,66.92L186.06,65.29L183.33,63.07"/><path d="M186.05,69.32L188.54,69.04"/><path d="M186.06,65.29L188.56,65.01"/></g><g style="stroke:#000000;stroke-width:0.353"><path d="M180.58,68.08L180.57,68.90L183.31,71.12L185.80,70.84L188.54,69.04L188.56,65.01L185.82,62.79L183.33,63.07L180.58,64.87L180.58,68.08"/><path d="M183.32,65.10L183.83,65.25L184.28,65.60L184.63,66.11L184.84,66.72L184.88,67.38L184.75,68.01L184.46,68.53L184.06,68.91L183.57,69.08"/><path d="M184.69,68.11L184.66,68.08L184.38,67.50L184.25,66.86L184.30,66.21L184.43,65.82"/></g></g><g id="Actor_2.0"><g style="stroke:#000000;stroke-width:0.353"><path d="M157.23,115.21L156.90,115.47L156.05,115.71L154.73,115.94L152.98,116.14L150.85,116.30L148.42,116.42L145.77,116.50L142.99,116.54L140.17,116.52L137.42,116.46L134.82,116.35L132.47,116.20L130.44,116.01L128.80,115.80L127.61,115.56L126.91,115.31"/><path d="M157.52,16.19L157.19,16.45L156.35,16.70L155.41,16.86L155.03,16.92L153.28,17.12L151.15,17.28L148.72,17.41L146.07,17.49L143.29,17.52L140.47,17.51L137.72,17.44L135.12,17.34L132.77,17.19L130.74,17.00L129.10,16.78L127.91,16.54L127.21,16.29L127.02,16.03"/><path d="M127.32,15.73L127.51,15.99L128.19,16.24L129.36,16.47L130.96,16.68L132.38,16.81L132.95,16.87L135.26,17.01L137.81,17.12L140.51,17.18L143.27,17.19L145.99,17.16L148.59,17.08L150.97,16.96L153.10,16.80L154.78,16.61L156.07,16.39L156.90,16.15L157.23,15.89L157.04,15.64"/><path d="M154.55,15.75L154.52,15.98L153.98,16.20L152.96,16.41L151.51,16.59L149.68,16.74L147.54,16.86L145.19,16.93L142.72,16.95L140.24,16.93L137.83,16.86L135.61,16.75L133.66,16.60L132.06,16.42L130.88,16.21L130.17,15.99L129.95,15.76"/><path d="M129.96,11.68L130.18,11.91L130.89,12.13L132.07,12.34L133.67,12.52L135.62,12.67L137.84,12.78L140.25,12.85L142.74,12.87L145.21,12.84L147.56,12.77L149.69,12.66L151.52,12.51L152.98,12.33L153.99,12.12L154.53,11.90L154.56,11.67"/><path d="M153.82,12.00L153.43,11.78L152.55,11.57L151.21,11.38L149.49,11.21L147.35,11.08L145.19,11.00L142.80,10.96L140.39,10.97L138.06,11.02L135.91,11.12L134.05,11.25L132.54,11.42L131.46,11.62L130.85,11.84L130.79,11.95"/><path d="M130.45,11.76L130.55,11.54L131.18,11.31L132.29,11.11L133.83,10.94L135.75,10.80L137.95,10.70L140.34,10.64L142.81,10.64L145.27,10.68L147.59,10.77L149.68,10.89L151.45,11.06L152.81,11.26L153.72,11.47L154.13,11.70L154.02,11.93"/></g><g style="stroke:#000000;stroke-width:0.353"><path d="M126.82,82.22L126.73,115.05L126.91,115.31L127.21,115.60L127.89,115.85L129.06,116.08L130.67,116.30L132.66,116.48L134.96,116.63L137.51,116.73L140.21,116.79L142.97,116.81L145.69,116.78L148.29,116.70L150.68,116.58L152.76,116.42L154.48,116.22L155.78,116.00L156.60,115.76L156.93,115.51L157.23,115.21L157.32,82.94"/><path d="M129.95,15.76L129.95,15.00L129.93,15.00L128.47,15.24L127.65,15.48L127.32,15.73L127.02,16.03L126.90,56.04"/><path d="M129.95,15.00L129.96,11.68L130.25,11.45L131.03,11.23L132.27,11.04L133.92,10.87L135.92,10.74L138.17,10.64L140.59,10.60L143.08,10.60L145.54,10.64L147.87,10.73L149.97,10.86L151.75,11.03L153.15,11.22L154.10,11.44L154.56,11.67L154.55,15.75"/><path d="M130.45,11.76L130.85,11.99L131.76,12.20L133.13,12.40L134.89,12.56L136.99,12.69L139.29,12.78L141.76,12.82L144.23,12.82L146.62,12.76L148.82,12.66L150.74,12.52L152.28,12.35L153.39,12.15L154.02,11.93"/><path d="M157.40,56.14L157.52,16.19L157.34,15.93L157.04,15.64L156.36,15.39L155.19,15.16L154.55,15.07"/></g></g><g id="Actor_11.0"><g style="stroke:#000000;stroke-width:0.353"><path d="M152.83,72.20L151.82,70.91L152.15,69.21L153.48,68.81"/><path d="M151.82,70.91L153.07,70.76L153.23,69.92L153.27,69.76L153.46,69.33L153.70,69.09"/><path d="M153.07,70.76L153.92,71.86"/><path d="M152.15,69.21L153.39,69.07L153.23,69.92L153.20,70.25L153.26,70.75L153.44,71.21L153.57,71.41L153.72,71.58L154.08,71.82"/><path d="M154.19,71.64L154.08,71.81"/><path d="M153.72,71.58L154.32,70.96"/><path d="M153.46,69.33L154.32,69.89"/><path d="M153.39,69.07L153.63,69.00"/></g><g style="stroke:#000000;stroke-width:0.353"><path d="M154.60,66.83L153.12,67.00L152.39,67.13L152.35,67.14L151.69,67.52L151.14,68.12L151.12,68.14L150.73,68.91L150.52,69.80L150.52,70.74L150.71,71.66L151.09,72.49L151.62,73.18L151.64,73.20L152.30,73.69L153.02,73.94L153.06,73.95L153.81,73.95L155.78,73.72"/><path d="M152.83,72.20L154.16,71.79L154.43,70.38L154.48,70.10L153.48,68.81"/></g></g><g id="Actor_7.0"><g style="stroke:#000000;stroke-width:0.353"><path d="M95.20,78.93L125.60,81.25L127.78,81.39L130.15,81.51L132.53,81.60L135.10,81.66L164.02,82.15L167.87,81.72"/><path d="M163.60,83.05L164.02,82.15L164.09,59.24L135.17,58.75L132.60,58.69L130.22,58.60L127.84,58.48L125.67,58.34L95.27,56.02"/><path d="M96.68,55.01L126.00,57.25L128.72,57.43L131.39,57.55L132.80,57.60L135.99,57.68L163.67,58.14L166.54,57.82"/><path d="M98.80,75.00L98.91,75.39L99.42,76.27L100.13,76.91L100.94,77.24L101.78,77.22L102.56,76.84L103.18,76.16L103.58,75.25L103.73,74.20L103.59,73.13L103.19,72.16L102.57,71.38L101.80,70.89L100.96,70.74L100.15,70.94L99.44,71.47L98.92,72.28L98.64,73.28L98.63,74.35L98.80,75.00"/><path d="M101.79,77.19L100.96,77.21L100.15,76.89L99.45,76.25L98.94,75.37L98.67,74.35L98.67,73.28L98.95,72.29L99.46,71.49L100.17,70.96L100.98,70.76"/><path d="M98.94,63.23L98.67,62.20L98.67,61.12L98.95,60.13L99.47,59.32L100.18,58.79L101.00,58.59L101.84,58.74L102.61,59.23L103.23,60.00L103.63,60.98L103.76,62.05L103.62,63.10L103.22,64.01L102.59,64.69L101.87,65.04L101.82,65.06L100.98,65.09L100.16,64.76L99.46,64.12L98.94,63.23"/><path d="M101.83,65.04L101.00,65.06L100.19,64.74L99.49,64.10L98.98,63.22L98.71,62.19L98.71,61.13L98.98,60.14L99.50,59.34L100.20,58.81L101.02,58.61"/><path d="M101.92,70.98L101.57,71.25L101.05,72.05L100.78,73.04L100.77,74.11L101.04,75.14L101.55,76.02L102.25,76.65L102.59,76.79"/><path d="M102.63,64.64L102.29,64.50L101.59,63.86L101.08,62.98L100.81,61.95L100.81,60.89L101.09,59.90L101.60,59.10L101.96,58.83"/><path d="M103.45,75.54L103.16,75.54L102.71,75.37L102.33,75.01L102.04,74.53L101.89,73.96L101.90,73.37L102.05,72.82L102.33,72.37L102.72,72.08L103.06,72.00"/><path d="M103.09,59.85L102.76,59.93L102.37,60.22L102.08,60.67L101.93,61.21L101.93,61.80L102.08,62.37L102.36,62.86L102.75,63.21L103.20,63.39L103.49,63.38"/><path d="M120.21,53.20L126.91,53.72"/><path d="M121.62,52.20L126.91,52.60"/><path d="M126.91,55.17L126.28,55.42L126.17,55.69"/><path d="M152.53,74.46L151.17,74.11L149.94,73.37L149.03,72.32L148.74,71.72L148.56,71.08L148.50,70.43L148.56,69.79L148.75,69.16L149.04,68.57L149.95,67.55L151.19,66.85L152.55,66.55"/><path d="M154.18,74.39L152.68,74.48L152.58,74.47L151.64,74.07L150.78,73.29L150.16,72.21L149.83,70.95L149.83,69.64L150.17,68.43L150.80,67.44L151.65,66.79"/><path d="M152.55,66.52L152.60,66.54L151.88,66.73"/><path d="M152.58,74.47L152.53,74.49"/><path d="M152.60,66.54L152.70,66.53"/><path d="M154.15,66.66L153.81,66.92"/><path d="M155.09,74.06L154.59,73.86"/><path d="M156.08,56.43L169.66,57.47L173.25,57.06"/><path d="M158.13,55.80L158.06,55.54L157.46,55.27L157.41,55.26"/><path d="M167.94,58.81L164.09,59.24L163.67,58.14"/><path d="M173.67,58.16L169.81,58.59L169.75,81.51L167.88,81.36"/><path d="M169.66,57.47L169.81,58.59L167.38,58.41"/><path d="M169.58,82.37L169.75,81.51L173.60,81.07"/></g><g style="stroke:#000000;stroke-width:0.353"><path d="M126.17,55.69L126.58,55.95L127.50,56.21L128.89,56.45L130.73,56.66L132.93,56.84L135.44,56.98L138.16,57.08L140.44,57.12L143.91,57.13L146.75,57.09L149.44,57.00L151.88,56.86L152.96,56.78L166.54,57.82L167.94,58.81L167.87,81.72L166.47,82.72L163.60,83.05L135.55,82.57L133.87,82.54L131.02,82.44L128.32,82.31L125.62,82.14L96.61,79.92L95.20,78.93L95.27,56.02L96.68,55.01L101.67,54.45L113.40,55.35L126.91,53.82"/><path d="M100.98,70.76L101.81,70.91L102.58,71.40L103.19,72.17L103.59,73.14L103.72,74.20L103.58,75.24L103.18,76.15L102.56,76.82L101.79,77.19"/><path d="M101.02,58.61L101.85,58.76L102.62,59.25L103.23,60.02L103.62,60.98L103.76,62.05L103.62,63.09L103.22,63.99L102.60,64.67L101.83,65.04"/><path d="M120.20,54.58L120.21,53.20L121.62,52.20L126.92,51.60"/><path d="M152.53,74.49L152.53,74.46L151.60,74.06L150.75,73.27L150.14,72.20L149.81,70.95L149.81,70.38L149.82,69.65L150.15,68.44L150.77,67.46L151.62,66.80L152.55,66.55L152.55,66.52"/><path d="M152.70,66.53L154.20,66.67L155.58,67.22L156.68,68.12L157.09,68.68L157.40,69.29L157.58,69.93L157.64,70.59L157.58,71.24L157.39,71.88L157.08,72.48L156.67,73.02L155.56,73.89L154.18,74.39"/><path d="M155.38,56.97L156.08,56.43L156.72,56.32L157.68,56.07L158.13,55.80"/><path d="M167.21,82.19L169.58,82.37L172.45,82.05L173.60,81.07L173.67,58.16L173.25,57.06L163.94,54.85L163.00,54.63L162.28,54.49L161.52,54.36L160.66,54.23L159.73,54.11L157.41,53.88"/></g></g><g id="Actor_5.0"><g style="stroke:#000000;stroke-width:0.353"><path d="M129.83,171.24L130.24,171.47L131.16,171.69L132.54,171.89L134.33,172.05L136.44,172.19L138.79,172.27L141.28,172.32L141.59,172.31L143.78,172.31L146.20,172.25L148.43,172.15L150.36,172.01L151.93,171.84L153.05,171.63L153.68,171.41L153.79,171.18"/><path d="M153.03,171.21L152.85,171.43L152.14,171.65L150.96,171.84L149.34,172.00L147.38,172.13L145.15,172.21L142.77,172.25L140.44,172.23L137.98,172.17L135.80,172.07L133.90,171.92L132.37,171.74L131.29,171.54L130.69,171.32L130.61,171.10"/><path d="M130.62,168.61L130.70,168.83L131.29,169.05L132.38,169.25L133.91,169.43L135.81,169.58L137.99,169.68L140.35,169.74L142.78,169.76L145.16,169.72L147.38,169.64L149.35,169.51L150.96,169.35L152.15,169.16L152.85,168.94L153.04,168.72"/><path d="M151.57,177.45L151.55,177.47L150.81,177.66L149.61,177.84L148.03,177.98L146.14,178.08L144.02,178.14L141.79,178.16L139.57,178.13L137.45,178.06L135.56,177.94L133.97,177.79L132.78,177.61L132.04,177.41L132.01,177.39"/><path d="M152.05,168.75L151.79,168.96L151.03,169.16L149.82,169.33L148.20,169.48L146.26,169.58L144.10,169.65L141.82,169.66L139.54,169.63L137.38,169.56L135.44,169.44L133.82,169.28L132.60,169.10L131.84,168.90L131.59,168.69"/><path d="M132.47,191.36L133.16,191.55L134.30,191.73L135.85,191.88L137.72,191.99L139.80,192.06L141.99,192.09L144.16,192.06L146.21,192.00L148.01,191.89L149.48,191.74L150.53,191.56L151.11,191.37"/></g><g style="stroke:#000000;stroke-width:0.353"><path d="M153.03,170.87L153.38,170.95L153.79,171.18L153.78,176.76L153.66,176.99L153.03,177.21L151.91,177.41L150.35,177.59L148.41,177.73L146.18,177.83L143.76,177.89L141.26,177.89L138.78,177.85L136.43,177.76L134.31,177.63L132.52,177.46L131.14,177.27L130.22,177.05L129.81,176.82L129.83,171.24L129.94,171.01L130.57,170.79L130.61,170.78"/><path d="M130.61,171.10L130.62,168.61L131.07,168.39L131.59,168.28"/><path d="M153.05,166.75L153.04,167.72L152.86,167.95L152.15,168.16L150.97,168.35L149.35,168.51L147.39,168.64L145.16,168.72L142.78,168.76L140.35,168.75L137.99,168.69L136.99,168.64L135.81,168.58L133.91,168.44L132.38,168.26L131.30,168.05L130.70,167.83L130.62,167.61L130.63,166.68"/><path d="M151.24,179.32L151.18,191.17L151.11,191.37L150.66,191.81L150.11,192.00L149.11,192.16L147.71,192.30L146.00,192.41L144.05,192.47L141.98,192.49L139.89,192.47L137.91,192.40L136.13,192.29L134.66,192.15L133.56,191.98L132.91,191.80L132.47,191.36L132.29,191.16L132.35,179.27"/><path d="M151.79,177.43L151.79,179.04L151.54,179.24L150.80,179.44L149.61,179.61L148.03,179.75L146.13,179.85L145.05,179.89L144.02,179.92L141.79,179.93L139.56,179.90L137.45,179.83L135.55,179.71L133.97,179.56L132.77,179.38L132.03,179.19L131.78,178.98L131.79,177.36"/><path d="M131.59,168.11L131.59,168.69"/><path d="M152.05,168.33L152.70,168.50L153.04,168.72L153.03,171.21"/><path d="M152.05,168.18L152.05,168.75"/></g></g><g><g/></g><g><g/></g><g><g><path style="stroke:#000000;stroke-width:0.170;stroke-dasharray:3.0 2.0 1.0 2.0" d="M167.24,68.91L184.56,66.96"/></g><g><path style="fill:#000000" d="M167.74,68.91L167.74,68.86L167.73,68.81L167.72,68.77L167.70,68.72L167.68,68.68L167.66,68.63L167.63,68.59L167.60,68.56L167.56,68.52L167.52,68.50L167.48,68.47L167.43,68.45L167.39,68.43L167.34,68.42L167.29,68.41L167.24,68.41L167.19,68.41L167.14,68.42L167.10,68.43L167.05,68.45L167.01,68.47L166.96,68.50L166.92,68.52L166.89,68.56L166.86,68.59L166.83,68.63L166.80,68.68L166.78,68.72L166.76,68.77L166.75,68.81L166.74,68.86L166.74,68.91L166.74,68.96L166.75,69.01L166.76,69.06L166.78,69.10L166.80,69.15L166.83,69.19L166.86,69.23L166.89,69.26L166.92,69.30L166.96,69.33L167.01,69.35L167.05,69.37L167.10,69.39L167.14,69.40L167.19,69.41L167.24,69.41L167.29,69.41L167.34,69.40L167.39,69.39L167.43,69.37L167.48,69.35L167.52,69.33L167.56,69.30L167.60,69.26L167.63,69.23L167.66,69.19L167.68,69.15L167.70,69.10L167.72,69.06L167.73,69.01L167.74,68.96z"/></g><g><path style="fill:#000000" d="M185.06,66.96L185.06,66.91L185.05,66.86L185.04,66.81L185.03,66.76L185.01,66.72L184.98,66.68L184.95,66.64L184.92,66.60L184.88,66.57L184.84,66.54L184.80,66.51L184.76,66.49L184.71,66.48L184.66,66.46L184.61,66.46L184.56,66.46L184.52,66.46L184.47,66.46L184.42,66.48L184.37,66.49L184.33,66.51L184.29,66.54L184.25,66.57L184.21,66.60L184.18,66.64L184.15,66.68L184.12,66.72L184.10,66.76L184.09,66.81L184.07,66.86L184.07,66.91L184.06,66.96L184.07,67.00L184.07,67.05L184.09,67.10L184.10,67.15L184.12,67.19L184.15,67.23L184.18,67.27L184.21,67.31L184.25,67.34L184.29,67.37L184.33,67.40L184.37,67.42L184.42,67.43L184.47,67.45L184.52,67.45L184.56,67.46L184.61,67.45L184.66,67.45L184.71,67.43L184.76,67.42L184.80,67.40L184.84,67.37L184.88,67.34L184.92,67.31L184.95,67.27L184.98,67.23L185.01,67.19L185.03,67.15L185.04,67.10L185.05,67.05L185.06,67.00z"/></g></g><g/><g/><g id="paperID" visibility="hidden" opacity="0.00" transform="scale(0.000100)"><path style="stroke:#000000;stroke-width:0.500;fill:#e6e6e6;fill-rule:evenodd" d="M-2000.00,-2000.00L2297.00,-2000.00L2297.00,2210.00L-2000.00,2210.00zM0.00,0.00L297.00,0.00L297.00,210.00L0.00,210.00z"/><path style="fill:#000000;fill-opacity:0.118" d="M3.00,210.00L297.00,210.00L297.00,3.00L300.00,3.00L300.00,213.00L3.00,213.00z"/></g><g><g><path style="stroke:#000000;stroke-width:0.353;fill:#f0f0ff" d="M8.24,86.66L80.01,86.66L80.01,91.70L8.24,91.70z"/><text xml:space="preserve" fill="#000000" stroke-width="0" x="10.18" y="90.54" font-size="3.61" opacity="1.00" font-family="Consolas" font-weight="bold">Description</text><text xml:space="preserve" fill="#000000" stroke-width="0" x="56.26" y="90.54" font-size="3.56" opacity="1.00" font-family="Consolas" font-weight="bold">BOM ID</text><text xml:space="preserve" fill="#000000" stroke-width="0" x="72.06" y="90.54" font-size="3.58" opacity="1.00" font-family="Consolas" font-weight="bold">Qty</text><path style="stroke:#000000;stroke-width:0.353" d="M54.32,86.66L54.32,91.70"/><path style="stroke:#000000;stroke-width:0.353" d="M70.12,86.66L70.12,91.70"/></g><g id="Line1"><path style="stroke:#000000;stroke-width:0.353;fill:#ffffff" d="M8.24,91.70L80.01,91.70L80.01,96.75L8.24,96.75z"/><text xml:space="preserve" fill="#000000" stroke-width="0" x="10.18" y="95.58" font-size="3.62" opacity="1.00" font-family="Consolas">50mm Extension Spacer</text><text xml:space="preserve" fill="#000000" stroke-width="0" x="56.26" y="95.58" font-size="3.21" opacity="1.00" font-family="Consolas">1</text><text xml:space="preserve" fill="#000000" stroke-width="0" x="72.06" y="95.58" font-size="3.21" opacity="1.00" font-family="Consolas">1</text><path style="stroke:#000000;stroke-width:0.353" d="M54.32,91.70L54.32,96.75"/><path style="stroke:#000000;stroke-width:0.353" d="M70.12,91.70L70.12,96.75"/></g><g id="Line4"><path style="stroke:#000000;stroke-width:0.353;fill:#f0f0ff" d="M8.24,96.75L80.01,96.75L80.01,101.79L8.24,101.79z"/><text xml:space="preserve" fill="#000000" stroke-width="0" x="10.18" y="100.63" font-size="3.62" opacity="1.00" font-family="Consolas">M4 Nut</text><text xml:space="preserve" fill="#000000" stroke-width="0" x="56.26" y="100.63" font-size="3.50" opacity="1.00" font-family="Consolas">4</text><text xml:space="preserve" fill="#000000" stroke-width="0" x="72.06" y="100.63" font-size="3.21" opacity="1.00" font-family="Consolas">1</text><path style="stroke:#000000;stroke-width:0.353" d="M54.32,96.75L54.32,101.79"/><path style="stroke:#000000;stroke-width:0.353" d="M70.12,96.75L70.12,101.79"/></g><g id="Line11"><path style="stroke:#000000;stroke-width:0.353;fill:#ffffff" d="M8.24,101.79L80.01,101.79L80.01,106.83L8.24,106.83z"/><text xml:space="preserve" fill="#000000" stroke-width="0" x="10.18" y="105.67" font-size="3.64" opacity="1.00" font-family="Consolas">M4x25 Socket Head</text><text xml:space="preserve" fill="#000000" stroke-width="0" x="56.26" y="105.67" font-size="3.43" opacity="1.00" font-family="Consolas">11</text><text xml:space="preserve" fill="#000000" stroke-width="0" x="72.06" y="105.67" font-size="3.21" opacity="1.00" font-family="Consolas">1</text><path style="stroke:#000000;stroke-width:0.353" d="M54.32,101.79L54.32,106.83"/><path style="stroke:#000000;stroke-width:0.353" d="M70.12,101.79L70.12,106.83"/></g><g id="Line5"><path style="stroke:#000000;stroke-width:0.353;fill:#f0f0ff" d="M8.24,106.83L80.01,106.83L80.01,111.88L8.24,111.88z"/><text xml:space="preserve" fill="#000000" stroke-width="0" x="10.18" y="110.71" font-size="3.63" opacity="1.00" font-family="Consolas">Objective Lens</text><text xml:space="preserve" fill="#000000" stroke-width="0" x="56.26" y="110.71" font-size="3.07" opacity="1.00" font-family="Consolas">5</text><text xml:space="preserve" fill="#000000" stroke-width="0" x="72.06" y="110.71" font-size="3.21" opacity="1.00" font-family="Consolas">1</text><path style="stroke:#000000;stroke-width:0.353" d="M54.32,106.83L54.32,111.88"/><path style="stroke:#000000;stroke-width:0.353" d="M70.12,106.83L70.12,111.88"/></g><g id="Line7"><path style="stroke:#000000;stroke-width:0.353;fill:#ffffff" d="M8.24,111.88L80.01,111.88L80.01,116.92L8.24,116.92z"/><text xml:space="preserve" fill="#000000" stroke-width="0" x="10.18" y="115.76" font-size="3.63" opacity="1.00" font-family="Consolas">Optical Tube Clamp</text><text xml:space="preserve" fill="#000000" stroke-width="0" x="56.26" y="115.76" font-size="3.27" opacity="1.00" font-family="Consolas">7</text><text xml:space="preserve" fill="#000000" stroke-width="0" x="72.06" y="115.76" font-size="3.21" opacity="1.00" font-family="Consolas">1</text><path style="stroke:#000000;stroke-width:0.353" d="M54.32,111.88L54.32,116.92"/><path style="stroke:#000000;stroke-width:0.353" d="M70.12,111.88L70.12,116.92"/></g><g id="Line2"><path style="stroke:#000000;stroke-width:0.353;fill:#f0f0ff" d="M8.24,116.92L80.01,116.92L80.01,121.96L8.24,121.96z"/><text xml:space="preserve" fill="#000000" stroke-width="0" x="10.18" y="120.80" font-size="3.63" opacity="1.00" font-family="Consolas">Thorlabs CML100</text><text xml:space="preserve" fill="#000000" stroke-width="0" x="56.26" y="120.80" font-size="3.17" opacity="1.00" font-family="Consolas">2</text><text xml:space="preserve" fill="#000000" stroke-width="0" x="72.06" y="120.80" font-size="3.21" opacity="1.00" font-family="Consolas">1</text><path style="stroke:#000000;stroke-width:0.353" d="M54.32,116.92L54.32,121.96"/><path style="stroke:#000000;stroke-width:0.353" d="M70.12,116.92L70.12,121.96"/></g></g><g id="hotspot.0" ident="" onmouseover="ShowHotSpot(evt,&apos;0&apos;)" onmouseout="HideHotSpot(evt,&apos;0&apos;)" onmousemove="ShowToolTip(evt,&apos;0&apos;,&quot;50mm Extension Spacer&quot;)" opacity="0"><path style="fill:#00ff00;fill-rule:evenodd" d="M8.24,91.70L8.24,96.75L80.01,96.75L80.01,91.70zM128.08,115.89L131.82,116.37L135.54,116.61L149.34,116.61L154.87,116.19L156.61,115.85L156.78,139.99L157.38,140.39L157.28,165.96L155.12,166.53L149.84,166.94L134.79,166.94L131.07,166.70L127.59,166.21L126.60,165.96L126.54,140.17L127.13,139.78L127.35,115.60z"/></g><g id="hotspot.1" ident="" onmouseover="ShowHotSpot(evt,&apos;1&apos;)" onmouseout="HideHotSpot(evt,&apos;1&apos;)" onmousemove="ShowToolTip(evt,&apos;1&apos;,&quot;socket head cap screw_iso&quot;)" opacity="0"><path style="fill:#00ff00;fill-rule:evenodd" d="M8.24,101.79L8.24,106.83L80.01,106.83L80.01,101.79zM156.62,68.01L157.61,69.99L157.60,71.33L156.76,72.96L155.55,73.73L152.38,73.74L151.42,72.96L150.65,71.26L150.65,69.32L151.29,67.99L152.07,67.27L152.81,67.02L155.14,67.01z"/></g><g id="hotspot.2" ident="" onmouseover="ShowHotSpot(evt,&apos;2&apos;)" onmouseout="HideHotSpot(evt,&apos;2&apos;)" onmousemove="ShowToolTip(evt,&apos;2&apos;,&quot;CML100&quot;)" opacity="0"><path style="fill:#00ff00;fill-rule:evenodd" d="M8.24,116.92L8.24,121.96L80.01,121.96L80.01,116.92zM153.39,11.24L154.41,11.71L154.54,15.05L156.62,15.45L157.38,15.93L157.36,56.21L156.27,56.35L155.53,56.85L134.05,56.86L130.58,56.61L127.32,56.15L127.03,55.95L127.11,16.04L127.77,15.46L129.85,15.05L130.08,11.56L130.99,11.24L135.21,10.75L148.68,10.75zM156.88,82.87L157.35,83.14L157.12,115.22L156.61,115.70L154.87,116.19L149.34,116.61L135.54,116.61L131.82,116.37L128.08,115.88L127.34,115.64L126.83,115.15L126.86,88.43L127.02,82.39z"/></g><g id="hotspot.3" ident="" onmouseover="ShowHotSpot(evt,&apos;3&apos;)" onmouseout="HideHotSpot(evt,&apos;3&apos;)" onmousemove="ShowToolTip(evt,&apos;3&apos;,&quot;M4 Nut&quot;)" opacity="0"><path style="fill:#00ff00;fill-rule:evenodd" d="M8.24,96.75L8.24,101.79L80.01,101.79L80.01,96.75zM188.62,65.02L188.61,68.86L186.02,70.73L184.30,70.99L183.15,70.98L180.66,69.01L180.66,64.87L183.30,63.05L185.87,62.78zM184.69,66.18L184.89,67.65L184.65,67.89L184.36,67.30L184.40,66.07z"/></g><g id="hotspot.4" ident="" onmouseover="ShowHotSpot(evt,&apos;4&apos;)" onmouseout="HideHotSpot(evt,&apos;4&apos;)" onmousemove="ShowToolTip(evt,&apos;4&apos;,&quot;Objective Lens&quot;)" opacity="0"><path style="fill:#00ff00;fill-rule:evenodd" d="M8.24,106.83L8.24,111.88L80.01,111.88L80.01,106.83zM134.79,166.94L152.91,166.94L152.93,167.79L152.06,168.19L152.93,168.65L153.07,170.74L153.66,171.13L153.63,176.94L153.34,177.14L151.89,177.42L151.63,179.15L151.34,179.36L151.08,191.49L150.10,192.00L148.10,192.23L135.78,192.23L133.79,191.99L132.81,191.74L132.56,191.49L132.29,179.36L132.01,179.15L131.83,177.35L130.01,176.94L130.09,171.00L130.57,170.74L130.82,168.51L131.58,168.19L130.74,167.77L130.75,166.67z"/></g><g id="hotspot.5" ident="" onmouseover="ShowHotSpot(evt,&apos;5&apos;)" onmouseout="HideHotSpot(evt,&apos;5&apos;)" onmousemove="ShowToolTip(evt,&apos;5&apos;,&quot;Optical Tube Clamp&quot;)" opacity="0"><path style="fill:#00ff00;fill-rule:evenodd" d="M8.24,111.88L8.24,116.92L80.01,116.92L80.01,111.88zM161.82,54.38L173.21,57.12L173.70,58.32L173.46,81.23L172.64,81.90L171.41,82.15L166.93,82.39L166.68,82.63L164.71,82.89L156.86,82.89L130.82,82.40L119.67,81.65L97.09,79.93L95.30,79.00L95.37,55.95L96.53,55.12L99.75,54.63L104.54,54.63L110.99,55.13L115.13,55.13L119.61,54.65L120.16,54.46L120.41,52.98L121.81,52.14L126.86,51.64L127.03,55.95L127.32,56.15L130.58,56.61L134.05,56.86L155.53,56.85L156.27,56.35L157.36,56.21L157.52,53.86zM156.62,68.01L157.61,69.99L157.60,71.33L156.76,72.96L155.55,73.73L152.38,73.74L151.42,72.96L150.65,71.26L150.65,69.32L151.29,67.99L152.07,67.27L152.81,67.02L155.14,67.01z"/></g><g id="ToolTip" visibility="hidden" opacity="0" transform="translate(0,0)"><rect id="ToolTipShadow" opacity="0.20" fill="black" stroke="none" x="0" y="0" width="30" height="8"/><rect id="ToolTipBG" fill="#ffffe1" stroke="black" x="0" y="0" width="30" height="8"/><text xml:space="preserve" id="ToolTipText" fill="black" x="0" y="0" width="30" height="8">tooltip</text></g></g></svg>