<?xml version="1.0" encoding="UTF-8" standalone="yes"?><svg xmlns="http://www.w3.org/2000/svg" xmlns:xlink="http://www.w3.org/1999/xlink" width="297.000mm" height="210.000mm" viewBox="0.000000 0.000000 297.000000 210.000000" stroke-linejoin="round" stroke-linecap="round" fill="none" fill-rule="evenodd"><desc>Composer Export</desc><script type="text/ecmascript"><![CDATA[
if(typeof(top) != "undefined")
{
	top.ShowPaper = ShowPaper;
}
function ShowHotSpot(evt,hotspotid)
{
	var svgDocument = evt.target.ownerDocument;
	var strId = "hotspot."+hotspotid;
	var hotspot = svgDocument.getElementById(strId);
	if(hotspot)
		hotspot.setAttribute("opacity",".5");
}
function HideHotSpot(evt,hotspotid)
{
	var svgDocument = evt.target.ownerDocument;
	var strId = "hotspot."+hotspotid;
	var hotspot = svgDocument.getElementById(strId);
	if(hotspot)
		hotspot.setAttribute("opacity","0");

	var toolTip = svgDocument.getElementById('ToolTip');
	if(toolTip)
		toolTip.setAttribute("visibility","hidden");
}
function ShowToolTip(evt,hotspotid,strTooltip)
{
	if(strTooltip=="")
	return;

	// change text
	var svgDocument = evt.target.ownerDocument;
	var tiptext = svgDocument.getElementById('ToolTipText');
	if( !tiptext )
	return;
	tiptext.firstChild.nodeValue = " " + strTooltip + "  " ;

	// show tooltip before, else some refresh issue

	var toolTip = svgDocument.getElementById('ToolTip');
	if(!toolTip)
	return;

	toolTip.setAttribute("visibility","visible");
	toolTip.setAttribute("opacity",".95");

	// move tooltip
	// get viewbox

	var root = svgDocument.documentElement;
	var vbox = (root.getAttribute("viewBox")).split(' ');
	var x0 = parseFloat(vbox[0]);
	var y0 = parseFloat(vbox[1]);
	var vboxW = parseFloat(vbox[2]);
	var vboxH = parseFloat(vbox[3]);

	// get default width of svg

	var strW = root.getAttribute("width");
	var svgW = parseFloat(strW);
	if(strW.indexOf('mm') != -1)
	svgW *= 3.779;

	var strH = root.getAttribute("height");
	var svgH = parseFloat(strH);
	if(strH.indexOf('mm') != -1)
	svgH *= 3.779;  	// 96 dpi  -> 96/25.4 = 3.779

	// update the viewbox / width / height if svg is embedded in html with zoom fit all
	var realx0 = x0;
	var realy0 = y0;
	var realvboxW = vboxW;
	var realvboxH = vboxH;
	var realsvgW = svgW;
	var realsvgH = svgH;

	if ((typeof(top) == "undefined") || (typeof(top.svgctl1) != "undefined")) // embedded in html
	{
		// get window size in pxl

		svgW = window.innerWidth;
		svgH = window.innerHeight;

		// calculate real viewbox

		realsvgW = svgW;
		realsvgH = svgH;
		if((svgW / svgH) > (vboxW / vboxH))
		{
			realvboxW = (vboxH * svgW) / svgH;
			realvboxH = vboxH;
			realx0 = x0 - (realvboxW - vboxW)/2 ;
		}
		else
		{
			realvboxH = (vboxW * svgH) / svgW;
			realvboxW = vboxW;
			realy0 = y0 - (realvboxH - vboxH)/2 ;
		}
	}

	// get user zoom/pan

	var newScale = root.currentScale;
	var translation = root.currentTranslate;

	// transform pxl to user unit

	var xPos = (((evt.clientX+10- translation.x)/newScale) * realvboxW)/realsvgW  + realx0 ;
	var yPos = (((evt.clientY+5- translation.y)/newScale) * realvboxH)/ realsvgH  + realy0 ;
	var scaleForWidth = ( (1 / newScale) * realvboxH) / realsvgH;

	// move tooltip

	toolTip.setAttribute("transform", "translate(" + xPos + "," + yPos + ")" );

	// resize tooltip

	var fontsize = 12;
	tiptext.setAttribute("font-size",fontsize*scaleForWidth);
	tiptext.setAttribute("y", fontsize*scaleForWidth);
	var tipBG = svgDocument.getElementById('ToolTipBG');
	var outline = tiptext.getBBox();
	if(tipBG)
	{
		tipBG.setAttribute("stroke-width", 1*scaleForWidth);
		tipBG.setAttribute("width", Number(outline.width) );
		tipBG.setAttribute("height", Number(outline.height) + fontsize*.5*scaleForWidth );
	}
	var ToolTipShadow = svgDocument.getElementById('ToolTipShadow');
	if(ToolTipShadow)
	{
		ToolTipShadow.setAttribute("width", Number(outline.width) );
		ToolTipShadow.setAttribute("height", Number(outline.height) + fontsize*.5*scaleForWidth );
		ToolTipShadow.setAttribute("x", 3*scaleForWidth);
		ToolTipShadow.setAttribute("y", 3*scaleForWidth);
	}
}
function ShowPaper()
{
  var svgDocument = getDocument();
  var paper = svgDocument.getElementById("paperID");
  if(paper)
  {
    paper.setAttribute("transform","scale(1)");
    paper.setAttribute("opacity","1");
    paper.setAttribute("visibility","visible");
  }
  var svg = svgDocument.getRootElement();
  if(svg)
  {
    svg.setAttribute("width","307.000mm");
    svg.setAttribute("height","220.000mm");
    svg.setAttribute("viewBox","-5.000000 -5.000000 307.000000 220.000000");
  }
}
]]></script><defs/><g><path style="fill:#ffffff" d="M296.84,209.91L0.05,209.91L0.05,0.05L296.84,0.05z"/><path style="fill:#cccccc" d="M162.32,104.65L162.33,104.77L160.69,105.04L159.77,105.77L158.93,107.31L158.84,108.17L159.08,109.56L159.27,109.88L159.28,110.32L159.04,110.40L157.58,110.39L157.07,109.56L156.85,108.22L157.36,106.54L158.75,105.25L159.69,104.69L161.48,104.52z"/><path style="fill:#fff2e8" d="M164.27,105.37L165.19,106.32L164.04,106.71L164.27,107.71L164.27,109.10L163.77,110.44L163.20,111.21L162.16,111.80L161.31,111.88L160.44,111.54L159.28,110.32L159.27,109.88L159.08,109.56L158.84,108.17L158.93,107.31L159.77,105.77L160.69,105.04L162.33,104.77L163.00,104.77L163.28,104.87z"/><path style="fill:#ccc1ba" d="M165.45,106.53L165.87,107.65L165.96,108.32L165.96,108.66L165.87,109.34L165.61,110.11L164.95,110.96L163.98,111.69L163.14,111.81L162.49,111.88L162.16,111.80L163.20,111.21L163.77,110.44L164.27,109.10L164.27,107.71L164.04,106.71L165.19,106.32z"/><path style="fill:#cccccc" d="M111.95,98.68L112.04,99.46L112.01,100.28L110.57,100.42L110.42,100.21L110.43,98.73L110.88,98.01L111.45,97.69z"/><path style="fill:#cccccc" d="M192.53,103.36L192.86,103.84L192.72,104.14L192.64,104.19L192.70,104.99L192.82,105.71L191.46,105.87L190.34,105.88L190.12,104.71L190.53,103.60L190.96,103.20L191.85,103.01z"/><path style="fill:#cccccc" d="M196.86,107.09L194.20,108.78L192.07,109.03L191.90,108.96L194.35,107.26L194.47,103.19L196.87,103.03z"/><path style="fill:#cccccc" d="M130.84,118.91L138.86,119.41L145.38,119.58L165.10,119.92L172.30,119.98L172.57,97.17L175.08,96.85L176.31,96.84L176.32,107.99L176.29,119.65L176.40,119.38L177.98,119.31L178.14,118.46L178.25,96.50L180.93,96.18L182.00,96.17L182.00,118.98L180.94,119.93L179.53,120.16L178.04,120.32L175.57,120.24L174.97,120.64L172.01,120.99L165.82,120.89L165.66,120.89L161.15,120.82L156.30,120.73L146.27,120.57L139.58,120.40L135.24,120.23L135.08,120.22L134.91,120.14L105.30,117.90L104.44,117.56L103.75,117.07L103.64,116.85z"/><path style="fill:#808080" d="M157.47,48.68L160.99,49.01L162.32,49.28L162.94,49.54L162.96,49.80L162.38,50.05L161.83,50.12L161.39,50.02L161.47,50.18L160.82,50.28L160.74,50.20L160.32,50.29L160.19,50.37L158.63,50.44L158.36,50.55L155.79,50.61L155.68,50.70L155.68,54.78L160.59,54.44L162.56,54.06L162.95,53.79L163.02,52.99L163.49,53.02L164.83,53.29L165.54,53.67L165.44,53.92L164.07,54.38L164.08,54.53L163.97,54.79L156.85,55.38L156.80,94.76L156.63,94.93L153.30,94.99L148.77,94.99L143.26,94.82L140.58,94.65L137.24,94.32L136.24,94.15L134.91,93.83L135.18,93.73L135.22,93.12L135.15,91.83L134.98,91.67L135.15,91.55L135.21,89.61L135.21,89.43L135.28,79.74L135.37,53.99L136.17,53.26L137.99,52.90L138.18,52.77L138.29,52.34L138.37,49.47L139.42,49.11L139.58,49.18L139.01,49.43L138.96,49.75L139.17,49.89L140.93,50.18L142.25,50.36L144.59,50.52L146.23,50.56L145.96,50.45L145.89,49.03L143.99,49.04L141.87,49.26L140.22,49.38L139.92,49.11L139.92,49.01L142.09,48.77L144.59,48.61L153.62,48.52z"/><path style="fill:#808080" d="M139.58,120.40L146.27,120.57L156.30,120.73L156.62,120.90L156.59,154.25L155.19,154.35L146.38,154.35L142.37,154.19L138.36,153.85L135.41,153.32L135.17,153.18L135.11,135.58L135.24,120.23z"/><path style="fill:#666666" d="M165.87,53.99L165.87,75.90L165.78,94.06L164.55,94.34L163.99,94.66L163.49,94.82L162.49,94.75L160.14,94.75L158.65,94.82L156.80,94.76L156.85,55.38L163.97,54.79L164.08,54.53L164.07,54.38L165.44,53.92L165.54,53.67z"/><path style="fill:#666666" d="M138.36,153.85L142.37,154.19L146.38,154.35L155.19,154.35L156.59,154.25L156.62,120.90L161.15,120.82L165.66,120.89L165.70,131.90L165.62,153.25L164.93,153.73L163.33,154.09L162.15,154.26L160.31,154.42L157.80,154.59L155.81,154.67L145.76,154.67L142.25,154.50L140.08,154.33L138.41,154.17L137.25,154.00L136.41,153.83L135.52,153.50L135.41,153.32z"/><path style="fill:#000019" d="M144.59,50.52L145.96,50.45L146.23,50.56z"/><path style="fill:#000019" d="M156.63,94.93L156.80,94.76L158.65,94.82z"/><path style="fill:#000019" d="M112.11,100.25L112.01,100.28L112.04,99.46L112.11,99.52z"/><path style="fill:#000019" d="M162.32,104.65L161.48,104.52L162.26,104.55z"/><path style="fill:#000019" d="M165.96,108.32L165.87,107.65L165.94,107.71z"/><path style="fill:#000019" d="M161.15,120.82L156.62,120.90L156.30,120.73z"/><path style="fill:#ccc1ba" d="M161.79,107.10L161.42,108.60L160.88,108.72L160.20,108.72L160.58,107.09L161.93,106.86z"/><path style="fill:#000020" d="M139.92,49.11L139.58,49.18L139.42,49.11L139.92,49.01z"/><path style="fill:#000020" d="M161.83,50.12L161.47,50.18L161.39,50.02z"/><path style="fill:#000020" d="M160.82,50.28L160.32,50.29L160.74,50.20z"/><path style="fill:#000020" d="M165.87,75.90L165.87,53.99L165.94,54.04z"/><path style="fill:#000020" d="M135.21,89.61L134.61,89.49L135.21,89.43z"/><path style="fill:#000020" d="M164.61,94.85L163.49,94.82L163.99,94.66z"/><path style="fill:#000020" d="M163.00,104.77L162.33,104.77L162.32,104.65z"/><path style="fill:#000020" d="M192.70,104.99L192.64,104.19L192.72,104.14z"/><path style="fill:#000020" d="M191.61,109.06L191.90,108.96L192.07,109.03z"/><path style="fill:#000020" d="M163.14,111.81L163.98,111.69L163.73,111.92L163.26,111.89z"/><path style="fill:#000020" d="M161.31,111.88L162.16,111.80L162.49,111.88z"/><path style="fill:#000020" d="M103.64,116.85L103.53,116.80L103.59,97.00z"/><path style="fill:#000020" d="M176.40,119.38L176.29,119.65L176.32,107.99z"/><path style="fill:#000020" d="M165.70,131.90L165.66,120.89L165.82,120.89z"/><path style="fill:#000020" d="M135.11,135.58L135.08,120.22L135.24,120.23z"/><path style="fill:#cccccc" d="M134.62,93.35L135.22,93.12L135.18,93.73L134.91,93.83L134.65,93.66z"/><path style="fill:#cccccc" d="M110.27,96.67L109.55,97.68L109.27,98.57L109.26,100.20L109.46,100.70L109.44,101.07L109.06,101.21L107.38,101.25L107.26,100.69L107.26,98.40L107.76,97.39L108.54,96.67L109.59,96.50z"/><path style="fill:#cccccc" d="M110.27,108.88L110.07,109.04L109.55,109.72L109.27,110.60L109.27,112.40L109.45,113.28L108.55,113.40L107.38,113.45L107.09,112.40L107.09,111.10L107.52,109.86L108.21,109.05L109.05,108.71L109.77,108.71z"/><path style="fill:#cccccc" d="M111.78,110.56L112.11,112.05L111.90,112.39L110.43,112.40L110.43,110.76L111.06,110.05L111.45,109.90z"/><path style="fill:#666666" d="M140.22,49.38L141.87,49.26L143.99,49.04L145.89,49.03L145.96,50.45L144.59,50.52L142.25,50.36L140.93,50.18L139.17,49.89L138.96,49.75L139.01,49.43L139.58,49.18L139.92,49.11z"/><path style="fill:#666666" d="M163.02,52.99L162.95,53.79L162.56,54.06L160.59,54.44L155.68,54.78L155.68,50.70L155.79,50.61L158.36,50.55L158.63,50.44L160.19,50.37L160.32,50.29L160.82,50.28L161.47,50.18L161.83,50.12L162.38,50.05L162.96,49.80z"/><g id="Actor_4.0"><g style="stroke:#000000;stroke-width:0.353"><path d="M192.00,107.01L191.74,107.02L191.48,106.98L191.00,106.73L190.59,106.29L190.31,105.72L190.19,105.08L190.23,104.42L190.44,103.84L190.79,103.38L191.24,103.11L191.75,103.04"/><path d="M191.76,101.00L194.49,103.23L194.49,103.85L194.48,107.25L191.73,109.06"/><path d="M194.48,107.25L196.97,106.97"/><path d="M194.49,103.23L196.99,102.95"/></g><g style="stroke:#000000;stroke-width:0.353"><path d="M189.53,107.26L189.00,106.83L189.01,102.81L191.76,101.00L194.25,100.72L196.99,102.95L196.97,106.97L194.23,108.77L191.73,109.06L189.53,107.26"/><path d="M191.75,103.04L192.26,103.18L192.71,103.53L193.06,104.04L193.27,104.66L193.31,105.31L193.18,105.94L192.89,106.47L192.49,106.84L192.00,107.01"/><path d="M193.12,106.05L193.09,106.01L192.81,105.44L192.68,104.79L192.73,104.14L192.86,103.75"/></g></g><g id="Actor_2.0"><g style="stroke:#000000;stroke-width:0.353"><path d="M165.66,153.14L165.32,153.40L164.48,153.65L163.16,153.87L161.41,154.07L159.28,154.23L156.85,154.36L154.20,154.44L151.42,154.47L148.60,154.45L145.85,154.39L143.25,154.28L140.90,154.13L138.87,153.95L137.23,153.73L136.04,153.49L135.34,153.24"/><path d="M135.45,53.96L135.64,54.22L136.34,54.48L137.53,54.72L139.16,54.93L141.20,55.12L143.55,55.27L146.15,55.38L149.08,55.44L151.71,55.45L154.49,55.42L157.15,55.34L159.58,55.22L161.71,55.05L163.46,54.86L164.78,54.63L165.62,54.39L165.95,54.13"/><path d="M135.75,53.67L135.94,53.92L136.62,54.17L137.79,54.40L139.39,54.62L140.99,54.76L143.69,54.95L146.24,55.05L148.94,55.11L151.70,55.13L154.42,55.10L157.02,55.02L159.40,54.90L161.79,54.70L163.21,54.54L164.50,54.32L165.33,54.08L165.65,53.83L165.47,53.57"/><path d="M162.98,53.68L162.95,53.91L162.41,54.14L161.39,54.34L159.94,54.53L158.11,54.68L155.97,54.79L153.62,54.86L151.15,54.89L148.67,54.86L146.26,54.80L144.04,54.68L142.09,54.54L140.49,54.35L139.31,54.15L138.60,53.92L138.38,53.69"/><path d="M162.99,49.60L162.96,49.83L162.42,50.05L161.41,50.26L159.95,50.44L158.12,50.59L155.99,50.71L153.64,50.78L151.17,50.80L148.68,50.78L146.27,50.71L144.05,50.60L142.10,50.45L140.50,50.27L139.32,50.06L138.61,49.84L138.40,49.62"/><path d="M162.25,49.93L161.86,49.71L160.97,49.50L159.64,49.31L157.92,49.15L155.88,49.02L153.62,48.94L151.23,48.90L148.82,48.90L146.49,48.96L144.34,49.05L142.48,49.19L140.97,49.36L139.89,49.56L139.28,49.77L139.22,49.89"/><path d="M138.88,49.69L138.99,49.47L139.61,49.25L140.72,49.04L142.26,48.87L144.18,48.73L146.38,48.63L148.77,48.58L151.24,48.57L153.70,48.61L156.02,48.70L158.11,48.83L159.88,48.99L161.24,49.19L162.15,49.41L162.56,49.63L162.45,49.86"/></g><g style="stroke:#000000;stroke-width:0.353"><path d="M135.25,120.15L135.16,152.98L135.34,153.24L135.64,153.53L136.32,153.78L137.49,154.02L139.09,154.23L141.09,154.41L143.39,154.56L145.94,154.67L148.64,154.73L150.23,154.74L151.40,154.74L154.12,154.71L156.72,154.63L159.11,154.51L161.19,154.35L162.91,154.15L164.21,153.93L165.03,153.69L165.36,153.44L165.66,153.14L165.75,120.88"/><path d="M138.38,52.93L136.90,53.17L136.08,53.41L135.75,53.67L135.45,53.96L135.33,93.98"/><path d="M138.38,53.69L138.39,49.62L138.68,49.39L139.46,49.17L140.70,48.97L142.35,48.80L144.35,48.67L146.60,48.58L149.02,48.53L151.51,48.53L153.97,48.58L156.30,48.67L158.40,48.80L160.18,48.96L161.57,49.16L162.53,49.37L162.99,49.60L162.98,53.68"/><path d="M138.88,49.69L139.28,49.92L140.19,50.14L141.56,50.33L143.30,50.50L145.41,50.63L147.74,50.71L150.19,50.76L152.66,50.75L155.05,50.70L157.25,50.60L158.32,50.52L159.17,50.46L160.71,50.28L161.82,50.08L162.45,49.86"/><path d="M165.83,94.07L165.95,54.13L165.77,53.87L165.47,53.57L164.79,53.32L163.62,53.09L162.98,53.00"/></g></g><g id="Actor_11.0"><g style="stroke:#000000;stroke-width:0.353"><path d="M161.26,110.13L160.25,108.84L161.50,108.70L161.66,107.85L161.70,107.69L161.89,107.27L162.13,107.02"/><path d="M160.25,108.84L160.58,107.15L161.91,106.74"/><path d="M160.58,107.15L161.82,107.00L161.66,107.85L161.63,108.18L161.69,108.69L161.87,109.15L162.00,109.34L161.50,108.70"/><path d="M162.62,109.57L162.51,109.75"/><path d="M162.35,109.80L162.00,109.34L162.15,109.51L162.51,109.75"/><path d="M162.15,109.51L162.75,108.90"/><path d="M161.89,107.27L162.75,107.82"/><path d="M161.82,107.00L162.06,106.93"/></g><g style="stroke:#000000;stroke-width:0.353"><path d="M163.03,104.76L161.55,104.93L160.82,105.06L160.78,105.07L160.12,105.45L159.57,106.05L159.55,106.08L159.16,106.85L158.95,107.73L158.95,108.67L159.14,109.59L159.52,110.43L160.05,111.11L160.07,111.13L160.73,111.62L161.45,111.88L161.49,111.88L162.24,111.88L164.21,111.65"/><path d="M161.26,110.13L162.59,109.73L162.83,108.46L162.91,108.03L161.91,106.74"/></g></g><g id="Actor_7.0"><g style="stroke:#000000;stroke-width:0.353"><path d="M103.63,116.86L134.03,119.19L136.21,119.33L138.58,119.45L140.96,119.53L143.53,119.60L172.45,120.09L176.30,119.65"/><path d="M172.03,120.98L172.45,120.09L172.52,97.17L143.60,96.68L141.02,96.62L138.65,96.53L136.27,96.42L134.10,96.27L103.70,93.95"/><path d="M105.11,92.95L134.43,95.19L137.15,95.36L139.82,95.49L141.23,95.53L144.42,95.61L172.10,96.08L174.97,95.75"/><path d="M107.34,113.32L107.06,112.28L107.07,111.21L107.35,110.21L107.87,109.41L108.57,108.87L109.39,108.67L110.23,108.83L111.00,109.32L111.62,110.09L112.02,111.07L112.16,112.14L112.01,113.18L111.61,114.10L110.99,114.78L110.27,115.12L110.21,115.15L109.37,115.17L108.56,114.85L107.85,114.21L107.34,113.32"/><path d="M110.22,115.12L109.39,115.15L108.58,114.82L107.88,114.19L107.37,113.31L107.10,112.28L107.10,111.21L107.38,110.23L107.89,109.42L108.60,108.90L109.41,108.70"/><path d="M107.37,101.17L107.10,100.13L107.10,99.06L107.38,98.06L107.90,97.25L108.61,96.72L109.43,96.52L110.27,96.67L111.04,97.16L111.66,97.94L112.06,98.91L112.19,99.98L112.05,101.03L111.65,101.95L111.02,102.63L110.25,103.00L109.41,103.02L108.59,102.70L107.89,102.05L107.37,101.17"/><path d="M109.45,96.54L108.63,96.74L107.93,97.27L107.47,97.98L107.41,98.08L107.14,99.06L107.14,100.13L107.40,101.16L107.92,102.04L108.62,102.67L109.43,103.00L110.26,102.97"/><path d="M111.02,114.72L110.68,114.59L109.98,113.95L109.48,113.08L109.20,112.04L109.21,110.98L109.48,109.99L110.00,109.19L110.35,108.92"/><path d="M110.39,96.77L110.03,97.03L109.52,97.84L109.24,98.82L109.24,99.89L109.51,100.92L110.02,101.80L110.72,102.43L111.06,102.57"/><path d="M111.88,113.47L111.59,113.48L111.14,113.30L110.76,112.95L110.47,112.46L110.32,111.89L110.32,111.30L110.48,110.75L110.76,110.31L111.15,110.02L111.49,109.93"/><path d="M111.52,97.78L111.19,97.86L110.80,98.16L110.51,98.60L110.36,99.15L110.36,99.74L110.51,100.31L110.79,100.79L111.18,101.15L111.63,101.33L111.92,101.32"/><path d="M128.64,91.14L135.34,91.65"/><path d="M135.34,90.54L130.05,90.13"/><path d="M135.33,93.10L134.71,93.35L134.60,93.62"/><path d="M160.96,112.39L159.60,112.04L158.37,111.30L157.46,110.26L157.17,109.65L156.99,109.02L156.93,108.37L156.99,107.72L157.18,107.09L157.47,106.50L158.38,105.49L159.62,104.79L160.98,104.48"/><path d="M162.61,112.33L161.11,112.41L161.01,112.40L160.07,112.01L159.21,111.22L158.59,110.15L158.26,108.88L158.26,107.57L158.60,106.36L159.23,105.38L160.08,104.73"/><path d="M160.98,104.45L161.03,104.47L160.31,104.66"/><path d="M160.96,112.42L161.01,112.40"/><path d="M161.13,104.47L161.03,104.47"/><path d="M162.58,104.60L162.24,104.85"/><path d="M163.52,111.99L163.02,111.79"/><path d="M175.81,96.34L178.24,96.53L178.09,95.40L164.51,94.36"/><path d="M166.56,93.74L166.49,93.47L165.89,93.21L165.84,93.19"/><path d="M172.10,96.08L172.52,97.17L176.37,96.74"/><path d="M182.03,119.00L178.17,119.44L176.31,119.30"/><path d="M178.01,120.31L178.17,119.44L178.24,96.53L182.10,96.09"/><path d="M178.09,95.40L181.68,95.00"/></g><g style="stroke:#000000;stroke-width:0.353"><path d="M135.34,91.76L121.83,93.28L110.10,92.38L105.11,92.95L103.70,93.95L103.63,116.86L105.03,117.85L134.05,120.07L136.75,120.25L139.45,120.38L142.30,120.47L143.98,120.51L172.03,120.98L174.90,120.66L176.30,119.65L176.37,96.74L174.97,95.75L161.39,94.71L160.31,94.80L157.87,94.93L155.18,95.02L152.34,95.07L149.08,95.06L146.59,95.01L143.87,94.91L141.36,94.77L139.16,94.59L137.33,94.38L135.93,94.14L135.01,93.89L134.60,93.62"/><path d="M109.41,108.70L110.24,108.85L111.01,109.33L111.62,110.10L112.02,111.07L112.15,112.13L112.01,113.17L111.61,114.08L110.99,114.75L110.22,115.12"/><path d="M109.45,96.54L110.28,96.69L111.04,97.18L111.66,97.95L112.05,98.92L112.19,99.98L112.05,101.02L111.65,101.93L111.03,102.60L110.26,102.97"/><path d="M128.63,92.51L128.64,91.14L130.05,90.13L135.35,89.53"/><path d="M160.98,104.45L160.98,104.48L160.05,104.74L159.20,105.39L158.58,106.38L158.25,107.58L158.24,108.46L158.24,108.88L158.57,110.13L159.18,111.21L160.03,111.99L160.96,112.39L160.96,112.42"/><path d="M161.13,104.47L162.63,104.60L164.01,105.15L165.11,106.06L165.52,106.62L165.82,107.22L166.01,107.87L166.07,108.52L166.01,109.18L165.82,109.81L165.51,110.41L165.10,110.95L163.99,111.82L162.61,112.33"/><path d="M163.81,94.90L164.51,94.36L165.15,94.25L166.11,94.00L166.56,93.74"/><path d="M165.84,91.82L168.16,92.05L169.09,92.16L169.95,92.29L170.71,92.42L171.43,92.57L172.37,92.78L181.68,95.00L182.10,96.09L182.03,119.00L180.88,119.98L178.01,120.31L175.64,120.12"/></g></g><g><g/></g><g><g/></g><g><g><path style="stroke:#000000;stroke-width:0.170;stroke-dasharray:3.0 2.0 1.0 2.0" d="M175.67,106.85L192.99,104.89"/></g><g><path style="fill:#000000" d="M176.17,106.85L176.17,106.80L176.16,106.75L176.15,106.70L176.13,106.65L176.11,106.61L176.09,106.57L176.06,106.53L176.03,106.49L175.99,106.46L175.95,106.43L175.91,106.40L175.86,106.38L175.82,106.37L175.77,106.35L175.72,106.35L175.67,106.35L175.62,106.35L175.57,106.35L175.53,106.37L175.48,106.38L175.44,106.40L175.39,106.43L175.35,106.46L175.32,106.49L175.29,106.53L175.26,106.57L175.23,106.61L175.21,106.65L175.19,106.70L175.18,106.75L175.17,106.80L175.17,106.85L175.17,106.89L175.18,106.94L175.19,106.99L175.21,107.04L175.23,107.08L175.26,107.12L175.29,107.16L175.32,107.20L175.35,107.23L175.39,107.26L175.44,107.29L175.48,107.31L175.53,107.32L175.57,107.34L175.62,107.34L175.67,107.35L175.72,107.34L175.77,107.34L175.82,107.32L175.86,107.31L175.91,107.29L175.95,107.26L175.99,107.23L176.03,107.20L176.06,107.16L176.09,107.12L176.11,107.08L176.13,107.04L176.15,106.99L176.16,106.94L176.17,106.89z"/></g><g><path style="fill:#000000" d="M193.49,104.89L193.49,104.84L193.48,104.79L193.47,104.74L193.46,104.70L193.43,104.65L193.41,104.61L193.38,104.57L193.35,104.54L193.31,104.50L193.27,104.47L193.23,104.45L193.19,104.43L193.14,104.41L193.09,104.40L193.04,104.39L192.99,104.39L192.94,104.39L192.90,104.40L192.85,104.41L192.80,104.43L192.76,104.45L192.72,104.47L192.68,104.50L192.64,104.54L192.61,104.57L192.58,104.61L192.55,104.65L192.53,104.70L192.52,104.74L192.50,104.79L192.50,104.84L192.49,104.89L192.50,104.94L192.50,104.99L192.52,105.03L192.53,105.08L192.55,105.12L192.58,105.17L192.61,105.21L192.64,105.24L192.68,105.28L192.72,105.30L192.76,105.33L192.80,105.35L192.85,105.37L192.90,105.38L192.94,105.39L192.99,105.39L193.04,105.39L193.09,105.38L193.14,105.37L193.19,105.35L193.23,105.33L193.27,105.30L193.31,105.28L193.35,105.24L193.38,105.21L193.41,105.17L193.43,105.12L193.46,105.08L193.47,105.03L193.48,104.99L193.49,104.94z"/></g></g><g/><g/><g id="paperID" visibility="hidden" opacity="0.00" transform="scale(0.000100)"><path style="stroke:#000000;stroke-width:0.500;fill:#e6e6e6;fill-rule:evenodd" d="M-2000.00,-2000.00L2297.00,-2000.00L2297.00,2210.00L-2000.00,2210.00zM0.00,0.00L297.00,0.00L297.00,210.00L0.00,210.00z"/><path style="fill:#000000;fill-opacity:0.118" d="M3.00,210.00L297.00,210.00L297.00,3.00L300.00,3.00L300.00,213.00L3.00,213.00z"/></g><g><g><path style="stroke:#000000;stroke-width:0.353;fill:#f0f0ff" d="M8.17,90.49L80.08,90.49L80.08,95.99L8.17,95.99z"/><text xml:space="preserve" fill="#000000" stroke-width="0" x="10.29" y="94.73" font-size="3.94" opacity="1.00" font-family="Consolas" font-weight="bold">Description</text><text xml:space="preserve" fill="#000000" stroke-width="0" x="54.17" y="94.73" font-size="3.88" opacity="1.00" font-family="Consolas" font-weight="bold">BOM ID</text><text xml:space="preserve" fill="#000000" stroke-width="0" x="71.41" y="94.73" font-size="3.91" opacity="1.00" font-family="Consolas" font-weight="bold">Qty</text><path style="stroke:#000000;stroke-width:0.353" d="M52.06,90.49L52.06,95.99"/><path style="stroke:#000000;stroke-width:0.353" d="M69.29,90.49L69.29,95.99"/></g><g id="Line4"><path style="stroke:#000000;stroke-width:0.353;fill:#ffffff" d="M8.17,95.99L80.08,95.99L80.08,101.50L8.17,101.50z"/><text xml:space="preserve" fill="#000000" stroke-width="0" x="10.29" y="100.23" font-size="3.95" opacity="1.00" font-family="Consolas">M4 Nut</text><text xml:space="preserve" fill="#000000" stroke-width="0" x="54.17" y="100.23" font-size="3.82" opacity="1.00" font-family="Consolas">4</text><text xml:space="preserve" fill="#000000" stroke-width="0" x="71.41" y="100.23" font-size="3.50" opacity="1.00" font-family="Consolas">1</text><path style="stroke:#000000;stroke-width:0.353" d="M52.06,95.99L52.06,101.50"/><path style="stroke:#000000;stroke-width:0.353" d="M69.29,95.99L69.29,101.50"/></g><g id="Line11"><path style="stroke:#000000;stroke-width:0.353;fill:#f0f0ff" d="M8.17,101.50L80.08,101.50L80.08,107.00L8.17,107.00z"/><text xml:space="preserve" fill="#000000" stroke-width="0" x="10.29" y="105.73" font-size="3.97" opacity="1.00" font-family="Consolas">M4x25 Socket Head</text><text xml:space="preserve" fill="#000000" stroke-width="0" x="54.17" y="105.73" font-size="3.74" opacity="1.00" font-family="Consolas">11</text><text xml:space="preserve" fill="#000000" stroke-width="0" x="71.41" y="105.73" font-size="3.50" opacity="1.00" font-family="Consolas">1</text><path style="stroke:#000000;stroke-width:0.353" d="M52.06,101.50L52.06,107.00"/><path style="stroke:#000000;stroke-width:0.353" d="M69.29,101.50L69.29,107.00"/></g><g id="Line7"><path style="stroke:#000000;stroke-width:0.353;fill:#ffffff" d="M8.17,107.00L80.08,107.00L80.08,112.50L8.17,112.50z"/><text xml:space="preserve" fill="#000000" stroke-width="0" x="10.29" y="111.23" font-size="3.96" opacity="1.00" font-family="Consolas">Optical Tube Clamp</text><text xml:space="preserve" fill="#000000" stroke-width="0" x="54.17" y="111.23" font-size="3.56" opacity="1.00" font-family="Consolas">7</text><text xml:space="preserve" fill="#000000" stroke-width="0" x="71.41" y="111.23" font-size="3.50" opacity="1.00" font-family="Consolas">1</text><path style="stroke:#000000;stroke-width:0.353" d="M52.06,107.00L52.06,112.50"/><path style="stroke:#000000;stroke-width:0.353" d="M69.29,107.00L69.29,112.50"/></g><g id="Line2"><path style="stroke:#000000;stroke-width:0.353;fill:#f0f0ff" d="M8.17,112.50L80.08,112.50L80.08,118.00L8.17,118.00z"/><text xml:space="preserve" fill="#000000" stroke-width="0" x="10.29" y="116.73" font-size="3.96" opacity="1.00" font-family="Consolas">Thorlabs CML100</text><text xml:space="preserve" fill="#000000" stroke-width="0" x="54.17" y="116.73" font-size="3.46" opacity="1.00" font-family="Consolas">2</text><text xml:space="preserve" fill="#000000" stroke-width="0" x="71.41" y="116.73" font-size="3.50" opacity="1.00" font-family="Consolas">1</text><path style="stroke:#000000;stroke-width:0.353" d="M52.06,112.50L52.06,118.00"/><path style="stroke:#000000;stroke-width:0.353" d="M69.29,112.50L69.29,118.00"/></g></g><g id="hotspot.0" ident="" onmouseover="ShowHotSpot(evt,&apos;0&apos;)" onmouseout="HideHotSpot(evt,&apos;0&apos;)" onmousemove="ShowToolTip(evt,&apos;0&apos;,&quot;socket head cap screw_iso&quot;)" opacity="0"><path style="fill:#00ff00;fill-rule:evenodd" d="M8.17,101.50L8.17,107.00L80.08,107.00L80.08,101.50zM165.05,105.94L166.04,107.93L166.03,109.26L165.19,110.90L163.98,111.67L160.81,111.67L159.85,110.89L159.08,109.19L159.08,107.26L159.72,105.92L160.50,105.21L161.24,104.96L163.57,104.95z"/></g><g id="hotspot.1" ident="" onmouseover="ShowHotSpot(evt,&apos;1&apos;)" onmouseout="HideHotSpot(evt,&apos;1&apos;)" onmousemove="ShowToolTip(evt,&apos;1&apos;,&quot;CML100&quot;)" opacity="0"><path style="fill:#00ff00;fill-rule:evenodd" d="M8.17,112.50L8.17,118.00L80.08,118.00L80.08,112.50zM161.82,49.17L162.84,49.64L162.97,52.98L165.05,53.38L165.81,53.86L165.79,94.14L164.70,94.28L163.96,94.78L142.48,94.80L139.01,94.55L135.75,94.09L135.46,93.88L135.54,53.97L136.20,53.39L138.28,52.99L138.51,49.50L139.42,49.17L143.64,48.68L157.11,48.68zM165.31,120.81L165.78,121.08L165.55,153.16L165.04,153.64L163.30,154.13L157.77,154.55L143.96,154.55L140.25,154.30L136.51,153.82L135.77,153.57L135.26,153.08L135.29,126.11L135.45,120.32z"/></g><g id="hotspot.2" ident="" onmouseover="ShowHotSpot(evt,&apos;2&apos;)" onmouseout="HideHotSpot(evt,&apos;2&apos;)" onmousemove="ShowToolTip(evt,&apos;2&apos;,&quot;M4 Nut&quot;)" opacity="0"><path style="fill:#00ff00;fill-rule:evenodd" d="M8.17,95.99L8.17,101.50L80.08,101.50L80.08,95.99zM197.05,102.95L197.04,106.79L194.45,108.66L192.73,108.93L191.58,108.91L189.09,106.94L189.09,102.81L191.73,100.98L194.30,100.71zM193.12,104.12L193.32,105.58L193.08,105.82L192.79,105.23L192.83,104.00z"/></g><g id="hotspot.3" ident="" onmouseover="ShowHotSpot(evt,&apos;3&apos;)" onmouseout="HideHotSpot(evt,&apos;3&apos;)" onmousemove="ShowToolTip(evt,&apos;3&apos;,&quot;Optical Tube Clamp&quot;)" opacity="0"><path style="fill:#00ff00;fill-rule:evenodd" d="M8.17,107.00L8.17,112.50L80.08,112.50L80.08,107.00zM170.24,92.32L181.64,95.06L182.13,96.26L181.89,119.17L181.07,119.83L179.84,120.08L175.36,120.32L175.11,120.56L173.14,120.83L165.29,120.83L139.25,120.33L128.10,119.59L105.52,117.87L103.73,116.93L103.80,93.88L104.96,93.06L108.18,92.56L112.97,92.56L119.42,93.06L123.56,93.06L128.04,92.58L128.59,92.39L128.84,90.91L130.23,90.07L135.29,89.57L135.46,93.88L135.75,94.09L139.01,94.55L142.48,94.80L163.96,94.78L164.70,94.28L165.79,94.14L165.95,91.80zM165.05,105.94L166.04,107.93L166.03,109.26L165.19,110.90L163.98,111.67L160.81,111.67L159.85,110.89L159.08,109.19L159.08,107.26L159.72,105.92L160.50,105.21L161.24,104.96L163.57,104.95z"/></g><g id="ToolTip" visibility="hidden" opacity="0" transform="translate(0,0)"><rect id="ToolTipShadow" opacity="0.20" fill="black" stroke="none" x="0" y="0" width="30" height="8"/><rect id="ToolTipBG" fill="#ffffe1" stroke="black" x="0" y="0" width="30" height="8"/><text xml:space="preserve" id="ToolTipText" fill="black" x="0" y="0" width="30" height="8">tooltip</text></g></g></svg>