<?xml version="1.0" encoding="UTF-8" standalone="yes"?><svg xmlns="http://www.w3.org/2000/svg" xmlns:xlink="http://www.w3.org/1999/xlink" width="297.000mm" height="210.000mm" viewBox="0.000000 0.000000 297.000000 210.000000" stroke-linejoin="round" stroke-linecap="round" fill="none" fill-rule="evenodd"><desc>Composer Export</desc><script type="text/ecmascript"><![CDATA[
if(typeof(top) != "undefined")
{
	top.ShowPaper = ShowPaper;
}
function ShowHotSpot(evt,hotspotid)
{
	var svgDocument = evt.target.ownerDocument;
	var strId = "hotspot."+hotspotid;
	var hotspot = svgDocument.getElementById(strId);
	if(hotspot)
		hotspot.setAttribute("opacity",".5");
}
function HideHotSpot(evt,hotspotid)
{
	var svgDocument = evt.target.ownerDocument;
	var strId = "hotspot."+hotspotid;
	var hotspot = svgDocument.getElementById(strId);
	if(hotspot)
		hotspot.setAttribute("opacity","0");

	var toolTip = svgDocument.getElementById('ToolTip');
	if(toolTip)
		toolTip.setAttribute("visibility","hidden");
}
function ShowToolTip(evt,hotspotid,strTooltip)
{
	if(strTooltip=="")
	return;

	// change text
	var svgDocument = evt.target.ownerDocument;
	var tiptext = svgDocument.getElementById('ToolTipText');
	if( !tiptext )
	return;
	tiptext.firstChild.nodeValue = " " + strTooltip + "  " ;

	// show tooltip before, else some refresh issue

	var toolTip = svgDocument.getElementById('ToolTip');
	if(!toolTip)
	return;

	toolTip.setAttribute("visibility","visible");
	toolTip.setAttribute("opacity",".95");

	// move tooltip
	// get viewbox

	var root = svgDocument.documentElement;
	var vbox = (root.getAttribute("viewBox")).split(' ');
	var x0 = parseFloat(vbox[0]);
	var y0 = parseFloat(vbox[1]);
	var vboxW = parseFloat(vbox[2]);
	var vboxH = parseFloat(vbox[3]);

	// get default width of svg

	var strW = root.getAttribute("width");
	var svgW = parseFloat(strW);
	if(strW.indexOf('mm') != -1)
	svgW *= 3.779;

	var strH = root.getAttribute("height");
	var svgH = parseFloat(strH);
	if(strH.indexOf('mm') != -1)
	svgH *= 3.779;  	// 96 dpi  -> 96/25.4 = 3.779

	// update the viewbox / width / height if svg is embedded in html with zoom fit all
	var realx0 = x0;
	var realy0 = y0;
	var realvboxW = vboxW;
	var realvboxH = vboxH;
	var realsvgW = svgW;
	var realsvgH = svgH;

	if ((typeof(top) == "undefined") || (typeof(top.svgctl1) != "undefined")) // embedded in html
	{
		// get window size in pxl

		svgW = window.innerWidth;
		svgH = window.innerHeight;

		// calculate real viewbox

		realsvgW = svgW;
		realsvgH = svgH;
		if((svgW / svgH) > (vboxW / vboxH))
		{
			realvboxW = (vboxH * svgW) / svgH;
			realvboxH = vboxH;
			realx0 = x0 - (realvboxW - vboxW)/2 ;
		}
		else
		{
			realvboxH = (vboxW * svgH) / svgW;
			realvboxW = vboxW;
			realy0 = y0 - (realvboxH - vboxH)/2 ;
		}
	}

	// get user zoom/pan

	var newScale = root.currentScale;
	var translation = root.currentTranslate;

	// transform pxl to user unit

	var xPos = (((evt.clientX+10- translation.x)/newScale) * realvboxW)/realsvgW  + realx0 ;
	var yPos = (((evt.clientY+5- translation.y)/newScale) * realvboxH)/ realsvgH  + realy0 ;
	var scaleForWidth = ( (1 / newScale) * realvboxH) / realsvgH;

	// move tooltip

	toolTip.setAttribute("transform", "translate(" + xPos + "," + yPos + ")" );

	// resize tooltip

	var fontsize = 12;
	tiptext.setAttribute("font-size",fontsize*scaleForWidth);
	tiptext.setAttribute("y", fontsize*scaleForWidth);
	var tipBG = svgDocument.getElementById('ToolTipBG');
	var outline = tiptext.getBBox();
	if(tipBG)
	{
		tipBG.setAttribute("stroke-width", 1*scaleForWidth);
		tipBG.setAttribute("width", Number(outline.width) );
		tipBG.setAttribute("height", Number(outline.height) + fontsize*.5*scaleForWidth );
	}
	var ToolTipShadow = svgDocument.getElementById('ToolTipShadow');
	if(ToolTipShadow)
	{
		ToolTipShadow.setAttribute("width", Number(outline.width) );
		ToolTipShadow.setAttribute("height", Number(outline.height) + fontsize*.5*scaleForWidth );
		ToolTipShadow.setAttribute("x", 3*scaleForWidth);
		ToolTipShadow.setAttribute("y", 3*scaleForWidth);
	}
}
function ShowPaper()
{
  var svgDocument = getDocument();
  var paper = svgDocument.getElementById("paperID");
  if(paper)
  {
    paper.setAttribute("transform","scale(1)");
    paper.setAttribute("opacity","1");
    paper.setAttribute("visibility","visible");
  }
  var svg = svgDocument.getRootElement();
  if(svg)
  {
    svg.setAttribute("width","307.000mm");
    svg.setAttribute("height","220.000mm");
    svg.setAttribute("viewBox","-5.000000 -5.000000 307.000000 220.000000");
  }
}
]]></script><defs/><g><path style="fill:#ffffff" d="M296.84,209.91L0.05,209.91L0.05,0.05L296.84,0.05z"/><path style="fill:#000019" d="M127.88,67.17L127.54,67.09L127.73,66.37L127.84,66.36z"/><path style="fill:#000020" d="M127.37,177.01L127.28,176.97L127.34,156.46z"/><path style="fill:#808080" d="M150.44,21.94L152.28,22.10L154.91,22.45L155.48,22.75L155.44,23.07L155.36,23.13L154.55,23.11L154.57,23.28L154.31,23.37L153.87,23.30L153.83,23.41L153.31,23.54L153.24,23.46L152.63,23.54L152.50,23.62L150.77,23.69L150.50,23.80L149.62,23.87L147.82,23.79L148.27,23.94L148.34,28.04L153.18,27.64L155.03,27.32L155.42,27.04L155.50,26.59L155.67,26.26L157.42,26.46L158.17,26.92L158.03,27.12L156.72,27.64L156.72,27.78L156.43,28.04L149.50,28.64L149.28,68.04L148.61,68.17L136.24,68.08L133.56,67.91L131.55,67.74L130.05,67.57L127.88,67.17L127.84,66.36L127.85,53.49L128.00,27.03L128.77,26.46L130.73,26.12L130.85,26.03L131.00,22.68L131.90,22.36L132.05,22.43L131.49,22.69L131.49,22.94L131.83,23.14L133.57,23.44L135.23,23.61L137.57,23.78L138.58,23.87L139.38,23.79L138.58,23.74L138.53,22.28L136.30,22.29L132.86,22.62L132.41,22.35L132.39,22.26L134.40,22.03L136.74,21.86L146.94,21.77z"/><path style="fill:#808080" d="M128.64,126.96L130.50,127.27L135.23,127.75L139.25,127.92L148.90,127.93L148.82,152.73L149.10,152.80L149.11,178.17L148.45,178.24L142.59,178.33L138.08,178.24L134.40,178.07L132.06,177.91L130.55,177.74L129.39,177.56L127.82,177.26L127.37,177.01L127.34,156.46L127.44,151.18L127.99,150.90L128.09,136.92L128.21,126.76L128.39,126.70z"/><path style="fill:#000020" d="M149.28,68.17L148.61,68.17L149.28,68.04z"/><path style="fill:#cccccc" d="M104.52,72.04L104.61,72.72L104.61,73.55L104.48,73.59L103.09,73.62L102.91,73.12L102.91,72.15L103.26,71.50L103.70,71.08L104.10,71.07z"/><path style="fill:#cccccc" d="M184.83,76.45L185.25,76.90L185.25,77.39L185.42,78.73L185.37,78.91L185.27,78.97L182.94,79.18L182.80,78.98L182.82,77.33L183.27,76.62L183.77,76.28L184.51,76.28z"/><path style="fill:#cccccc" d="M154.61,78.03L153.47,78.21L152.68,78.62L151.90,79.51L151.56,80.51L151.49,82.25L151.59,82.74L151.73,82.99L151.93,83.57L151.35,83.64L150.06,83.64L149.55,82.48L149.55,80.68L150.15,79.44L151.23,78.51L152.17,77.95L154.30,77.76z"/><path style="fill:#cccccc" d="M189.44,80.24L186.94,81.96L185.05,82.21L184.44,82.15L187.02,80.36L187.11,76.44L189.38,76.21z"/><path style="fill:#cccccc" d="M104.26,83.64L104.52,84.58L104.61,85.24L104.61,85.43L104.46,85.61L103.04,85.70L102.91,85.33L102.91,84.19L103.53,83.29L104.08,83.30z"/><path style="fill:#cccccc" d="M125.99,92.33L132.17,92.67L139.36,92.84L164.94,93.23L165.04,70.43L168.82,70.02L168.88,82.25L168.90,92.39L169.09,92.52L170.63,92.56L170.73,69.76L174.48,69.35L174.56,92.28L173.57,93.17L171.02,93.48L169.67,93.48L168.50,93.39L168.38,93.16L168.18,93.43L167.45,93.90L165.17,94.16L158.31,94.15L149.28,93.98L132.73,93.65L127.89,93.40L126.54,93.32L98.12,91.15L97.39,91.01L96.17,90.15L97.57,90.16z"/><path style="fill:#666666" d="M155.36,23.13L155.44,23.07L155.50,26.59L155.42,27.04L155.03,27.32L153.18,27.64L148.34,28.04L148.27,23.94L149.62,23.87L150.50,23.80L150.77,23.69L152.50,23.62L152.63,23.54L153.31,23.54L153.83,23.41L154.31,23.37L154.57,23.28L154.55,23.11z"/><path style="fill:#666666" d="M158.43,27.12L158.35,67.21L157.03,67.59L156.47,68.04L154.29,67.91L150.79,68.08L149.28,68.04L149.50,28.64L156.43,28.04L156.72,27.78L156.72,27.64L158.03,27.12L158.17,26.92z"/><path style="fill:#666666" d="M158.31,94.15L158.18,126.38L157.80,126.74L157.70,126.77L157.68,134.24L157.69,151.12L157.57,151.56L156.30,152.12L155.51,152.18L156.23,152.22L156.30,152.12L157.87,151.85L158.29,151.61L158.35,163.16L158.26,176.98L158.03,177.25L156.98,177.50L156.14,177.66L153.12,177.99L150.45,178.16L149.11,178.17L149.10,152.80L150.74,152.68L149.17,152.69L149.10,152.80L148.82,152.73L148.90,127.93L139.25,127.92L135.23,127.75L130.50,127.27L128.64,126.96L128.39,126.70L131.17,127.10L135.35,127.44L140.03,127.61L147.00,127.61L149.06,127.50L149.28,93.98z"/><path style="fill:#808080" d="M132.73,93.65L149.28,93.98L149.06,127.50L147.00,127.61L140.03,127.61L135.35,127.44L131.17,127.10L128.39,126.70L127.89,126.57L127.66,126.23L127.68,109.32L127.73,93.48L127.89,93.40z"/><path style="fill:#000019" d="M138.58,23.87L137.57,23.78L138.58,23.74z"/><path style="fill:#000019" d="M149.28,68.17L149.28,68.04L150.79,68.08z"/><path style="fill:#000019" d="M104.61,72.72L104.52,72.04L104.60,72.10z"/><path style="fill:#000019" d="M154.30,77.76L155.13,77.85L154.80,78.03L154.61,78.03z"/><path style="fill:#000019" d="M151.59,82.74L151.49,82.25L151.56,82.31z"/><path style="fill:#000019" d="M104.61,85.24L104.52,84.58L104.59,84.64z"/><path style="fill:#fff2e8" d="M156.41,78.29L157.08,78.79L157.84,79.58L156.54,79.95L156.75,80.63L156.75,82.70L156.41,83.53L155.68,84.46L154.64,85.06L153.95,85.13L153.09,84.79L152.41,84.30L151.93,83.57L151.73,82.99L151.59,82.74L151.56,82.31L151.49,82.25L151.56,80.51L151.90,79.51L152.68,78.62L153.47,78.21L154.61,78.03L154.80,78.03L155.47,77.95z"/><path style="fill:#ccc1ba" d="M158.43,80.62L158.59,81.64L158.42,82.70L157.75,84.03L156.53,84.99L156.14,84.98L155.46,85.04L154.79,85.12L154.64,85.06L155.68,84.46L156.41,83.53L156.75,82.70L156.75,80.63L156.54,79.95L157.84,79.58z"/><path style="fill:#ccc1ba" d="M154.58,80.09L154.38,80.31L154.03,81.81L152.85,82.04L153.04,80.49L153.19,80.30L154.46,79.97z"/><path style="fill:#000020" d="M132.41,22.35L132.05,22.43L131.90,22.36L132.39,22.26z"/><path style="fill:#000020" d="M154.31,23.37L153.83,23.41L153.87,23.30z"/><path style="fill:#000020" d="M153.31,23.54L152.63,23.54L153.24,23.46z"/><path style="fill:#000020" d="M149.62,23.87L148.27,23.94L147.82,23.79z"/><path style="fill:#000020" d="M138.58,23.87L138.58,23.74L139.38,23.79z"/><path style="fill:#000020" d="M155.67,26.26L155.50,26.59L155.44,23.07L155.48,22.75L155.58,22.79z"/><path style="fill:#000020" d="M127.46,64.93L127.63,64.81L127.85,53.49L127.84,66.36L127.73,66.37L127.63,65.08z"/><path style="fill:#000020" d="M156.52,68.13L156.47,68.04L157.43,68.09z"/><path style="fill:#000020" d="M104.59,74.18L104.48,73.59L104.61,73.55z"/><path style="fill:#000020" d="M185.51,77.10L185.25,77.39L185.25,76.90z"/><path style="fill:#000020" d="M154.80,78.03L155.13,77.85L155.47,77.95z"/><path style="fill:#000020" d="M185.69,79.18L185.37,78.91L185.42,78.73L185.52,78.77z"/><path style="fill:#000020" d="M189.44,80.24L189.38,76.21L189.53,76.11z"/><path style="fill:#000020" d="M168.88,82.25L168.82,70.02L168.97,69.92z"/><path style="fill:#000020" d="M155.46,85.04L156.14,84.98L156.08,85.19z"/><path style="fill:#000020" d="M153.95,85.13L154.64,85.06L154.79,85.12z"/><path style="fill:#000020" d="M104.59,86.05L104.46,85.61L104.61,85.43z"/><path style="fill:#000020" d="M174.56,92.28L174.48,69.35L174.64,69.08z"/><path style="fill:#000020" d="M168.50,93.39L168.18,93.43L168.38,93.16z"/><path style="fill:#000020" d="M127.89,93.40L127.73,93.48L126.54,93.32z"/><path style="fill:#000020" d="M157.68,134.24L157.70,126.77L157.80,126.74z"/><path style="fill:#000020" d="M128.09,136.92L128.04,126.75L128.21,126.76z"/><path style="fill:#000020" d="M158.35,163.16L158.29,151.61L158.35,151.45L158.43,151.50z"/><path style="fill:#cccccc" d="M127.15,66.66L127.73,66.37L127.54,67.09L127.14,66.91z"/><path style="fill:#cccccc" d="M102.92,69.93L102.52,70.26L101.91,71.48L101.91,73.61L102.09,74.29L101.36,74.45L100.02,74.50L99.74,73.62L99.74,71.99L100.08,70.99L100.85,70.10L101.70,69.76z"/><path style="fill:#cccccc" d="M102.91,82.14L102.72,82.30L102.17,82.95L101.74,84.19L101.74,85.32L102.09,86.49L100.86,86.65L99.90,86.66L99.74,85.98L99.74,84.02L100.02,83.14L100.52,82.47L101.52,81.97L102.42,81.97z"/><path style="fill:#666666" d="M132.86,22.62L136.30,22.29L138.53,22.28L138.58,23.74L137.57,23.78L135.23,23.61L133.57,23.44L131.83,23.14L131.49,22.94L131.49,22.69L132.05,22.43L132.41,22.35z"/><path style="fill:#666666" d="M128.39,126.70L128.21,126.76L128.04,126.75L127.89,126.57z"/><path style="fill:#808080" d="M158.35,151.45L158.29,151.61L157.87,151.85L156.30,152.12L157.57,151.56L157.69,151.12L158.09,151.15z"/><path style="fill:#808080" d="M156.23,152.22L155.51,152.18L156.30,152.12z"/><path style="fill:#808080" d="M149.10,152.80L149.17,152.69L150.74,152.68z"/><g id="Actor_1.0"><g style="stroke:#000000;stroke-width:0.353"><path d="M158.40,151.53L158.15,151.79L157.41,152.03L156.21,152.26L154.57,152.46L152.57,152.63L150.25,152.77L148.50,152.83L147.69,152.86L144.98,152.91L142.20,152.91L139.45,152.87L136.80,152.79L134.36,152.66L132.18,152.49L130.35,152.29L128.93,152.07L127.95,151.82L127.45,151.57L127.45,151.31"/><path d="M128.14,151.41L128.32,151.66L129.00,151.90L130.15,152.14L131.73,152.34L133.70,152.52L135.97,152.67L138.49,152.77L141.15,152.83L142.74,152.84L143.87,152.85L146.56,152.82L149.12,152.74L151.48,152.62L153.54,152.46L155.23,152.27L156.51,152.05L157.32,151.81L157.64,151.57"/></g><g style="stroke:#000000;stroke-width:0.353"><path d="M128.14,151.01L127.94,151.06L127.45,151.31L127.37,176.97L127.87,177.23L128.85,177.47L130.28,177.69L132.11,177.89L134.28,178.06L136.73,178.19L139.37,178.27L142.13,178.32L144.90,178.31L147.61,178.26L150.17,178.17L152.49,178.04L154.50,177.86L156.13,177.66L157.34,177.43L158.08,177.19L158.32,176.93L158.40,151.53L158.15,151.28L157.65,151.11"/><path d="M128.14,151.41L128.22,126.76"/><path d="M157.64,151.57L157.72,126.82"/></g></g><g id="Actor_4.0"><g style="stroke:#000000;stroke-width:0.353"><path d="M184.56,80.24L184.30,80.25L184.05,80.20L183.56,79.95L183.15,79.51L182.87,78.94L182.75,78.30L182.79,77.65L183.00,77.06L183.35,76.61L183.81,76.33L184.31,76.26"/><path d="M184.30,82.28L187.04,80.48L187.05,76.45L184.32,74.23"/><path d="M187.04,80.48L189.54,80.19"/><path d="M187.05,76.45L189.55,76.17"/></g><g style="stroke:#000000;stroke-width:0.353"><path d="M181.56,80.06L184.30,82.28L186.79,82.00L189.54,80.19L189.55,76.17L186.81,73.95L184.32,74.23L181.58,76.03L181.56,80.06"/><path d="M184.31,76.26L184.82,76.41L185.27,76.75L185.62,77.26L185.83,77.88L185.86,78.46L185.87,78.54L185.74,79.16L185.46,79.69L185.05,80.06L184.56,80.24"/><path d="M185.43,76.98L185.29,77.37L185.24,78.02L185.37,78.66L185.65,79.23L185.68,79.27"/></g></g><g id="Actor_2.0"><g style="stroke:#000000;stroke-width:0.353"><path d="M127.90,126.46L128.60,126.72L129.79,126.96L131.43,127.17L133.46,127.36L135.82,127.51L138.41,127.62L141.17,127.68L143.98,127.69L146.76,127.66L149.41,127.58L151.84,127.46L153.97,127.29L155.73,127.09L157.05,126.87L157.89,126.62L158.22,126.37"/><path d="M158.52,27.35L158.18,27.61L157.34,27.85L156.02,28.08L154.27,28.28L152.14,28.44L149.71,28.57L147.06,28.65L144.28,28.68L141.59,28.66L138.71,28.60L136.11,28.49L133.76,28.34L131.73,28.16L130.09,27.94L128.90,27.70L128.20,27.45L128.01,27.19"/><path d="M128.31,26.89L128.50,27.14L129.18,27.39L130.35,27.63L131.95,27.84L133.53,27.99L136.25,28.17L138.80,28.28L141.50,28.34L144.26,28.35L146.98,28.32L149.65,28.24L151.97,28.12L154.05,27.96L155.77,27.76L157.07,27.54L157.89,27.30L158.22,27.05L158.03,26.80"/><path d="M155.54,26.91L155.51,27.14L154.97,27.36L153.96,27.57L152.50,27.75L150.67,27.90L148.54,28.01L146.19,28.08L143.72,28.11L141.23,28.09L138.82,28.02L136.60,27.91L134.65,27.76L133.05,27.58L131.87,27.37L131.16,27.15L130.94,26.92"/><path d="M155.56,22.82L155.52,23.05L154.98,23.28L153.97,23.48L152.51,23.67L150.68,23.82L148.55,23.93L146.20,24.00L143.73,24.02L141.24,24.00L138.84,23.93L136.61,23.82L134.66,23.67L133.06,23.49L131.89,23.29L131.17,23.06L130.95,22.83"/><path d="M154.81,23.15L154.42,22.93L153.54,22.72L152.20,22.53L150.48,22.37L148.44,22.25L147.35,22.20L146.18,22.16L143.79,22.12L141.38,22.13L139.05,22.18L136.90,22.28L135.04,22.41L133.53,22.58L132.45,22.78L131.84,22.99L131.79,23.11"/><path d="M155.01,23.08L155.12,22.86L154.71,22.63L153.80,22.41L152.44,22.22L150.67,22.05L148.58,21.92L146.26,21.83L143.81,21.79L141.33,21.80L138.94,21.85L136.74,21.95L134.82,22.09L133.28,22.27L132.17,22.47L131.55,22.69L131.44,22.92"/></g><g style="stroke:#000000;stroke-width:0.353"><path d="M127.82,93.38L127.72,126.20L127.90,126.46L128.20,126.76L128.89,127.01L130.05,127.24L131.66,127.45L133.65,127.64L135.96,127.78L138.50,127.89L141.20,127.95L143.96,127.96L146.69,127.93L149.28,127.85L151.67,127.73L153.75,127.57L155.47,127.38L156.77,127.16L157.59,126.92L157.92,126.66L158.22,126.37L158.32,94.10"/><path d="M130.95,26.15L129.47,26.40L128.64,26.64L128.31,26.89L128.01,27.19L127.89,67.20"/><path d="M130.94,26.92L130.95,22.83L131.23,22.61L132.02,22.39L133.26,22.19L134.91,22.03L136.91,21.89L139.16,21.80L141.59,21.75L143.90,21.75L146.53,21.80L148.86,21.89L150.96,22.02L152.74,22.19L154.14,22.38L155.09,22.60L155.56,22.82L155.54,26.91"/><path d="M155.01,23.08L154.38,23.30L153.28,23.51L151.73,23.68L149.82,23.82L147.62,23.92L145.23,23.97L142.75,23.98L140.30,23.94L137.98,23.85L135.84,23.72L134.12,23.56L132.75,23.36L131.85,23.14L131.44,22.92"/><path d="M158.40,67.29L158.52,27.35L158.33,27.09L158.03,26.80L157.35,26.55L156.18,26.31L155.54,26.23"/></g></g><g id="Actor_11.0"><g style="stroke:#000000;stroke-width:0.353"><path d="M153.82,83.35L152.81,82.06L152.84,81.92L153.14,80.37L154.47,79.97"/><path d="M152.81,82.06L154.06,81.92L154.22,81.07L154.19,81.41L154.25,81.91L154.43,82.37L154.56,82.57L154.06,81.92"/><path d="M154.69,80.24L154.46,80.49L154.26,80.92L154.22,81.07L154.39,80.23L153.14,80.37"/><path d="M155.18,82.79L155.08,82.97"/><path d="M155.08,82.97L154.72,82.74L154.56,82.57L154.92,83.02"/><path d="M154.72,82.74L155.31,82.12"/><path d="M155.31,81.05L154.46,80.49"/><path d="M154.39,80.23L154.62,80.16"/></g><g style="stroke:#000000;stroke-width:0.353"><path d="M156.77,84.88L154.80,85.10L154.05,85.11L154.02,85.10L153.29,84.85L152.63,84.36L152.61,84.34L152.08,83.65L151.70,82.82L151.51,81.90L151.52,80.96L151.72,80.07L152.11,79.30L152.13,79.28L152.68,78.68L153.34,78.30L153.38,78.28L154.11,78.15L155.60,77.99"/><path d="M153.82,83.35L155.15,82.95L155.47,81.26L154.47,79.97"/></g></g><g id="Actor_7.0"><g style="stroke:#000000;stroke-width:0.353"><path d="M164.59,94.20L165.01,93.31L136.10,92.82L133.52,92.75L131.15,92.67L128.77,92.55L126.59,92.41L96.19,90.09"/><path d="M96.26,67.18L126.66,69.50L128.84,69.64L131.22,69.76L133.59,69.84L136.16,69.91L165.08,70.40L165.01,93.31L168.87,92.87"/><path d="M168.93,69.96L165.08,70.40L164.66,69.30L136.99,68.83L133.79,68.76L132.39,68.71L129.71,68.58L126.99,68.41L125.15,68.27L97.67,66.17"/><path d="M99.90,86.54L100.41,87.43L101.12,88.07L101.93,88.40L102.78,88.37L103.55,88.00L104.17,87.32L104.58,86.41L104.72,85.36L104.58,84.29L104.18,83.31L103.57,82.54L102.79,82.05L101.95,81.90L101.14,82.10L100.43,82.63L99.91,83.44L99.63,84.43L99.63,85.51L99.90,86.54"/><path d="M102.79,88.35L101.95,88.37L101.14,88.05L100.44,87.41L99.93,86.54L99.66,85.50L99.66,84.44L99.94,83.45L100.46,82.65L101.16,82.12L101.97,81.92"/><path d="M100.15,74.76L99.93,74.39L99.66,73.35L99.67,72.28L99.94,71.29L100.46,70.48L101.17,69.94L101.99,69.74L102.83,69.90L103.60,70.39L104.22,71.16L104.62,72.14L104.75,73.21L104.61,74.26L104.21,75.17L103.59,75.85L102.81,76.22L101.97,76.25L101.15,75.92L100.45,75.28L100.15,74.76"/><path d="M102.82,76.19L101.99,76.22L101.18,75.90L100.48,75.26L99.97,74.38L99.70,73.35L99.70,72.28L99.98,71.30L100.49,70.49L101.19,69.97L102.01,69.77"/><path d="M102.92,82.14L102.56,82.41L102.04,83.21L101.77,84.20L101.77,85.26L102.03,86.29L102.55,87.17L103.24,87.81L103.58,87.95"/><path d="M102.95,69.99L102.60,70.26L102.08,71.06L101.80,72.05L101.80,73.11L102.07,74.14L102.58,75.02L103.28,75.66L103.62,75.79"/><path d="M104.44,86.69L104.15,86.70L103.70,86.52L103.32,86.17L103.03,85.68L102.89,85.11L102.89,84.52L103.04,83.98L103.33,83.53L103.71,83.24L104.05,83.16"/><path d="M104.08,71.00L103.75,71.09L103.36,71.38L103.08,71.82L102.92,72.37L102.92,72.96L103.07,73.53L103.35,74.02L103.74,74.37L104.19,74.55L104.48,74.54"/><path d="M121.20,64.36L127.90,64.87"/><path d="M122.61,63.35L127.90,63.76"/><path d="M127.90,66.32L127.27,66.58L127.16,66.84"/><path d="M153.52,85.62L152.16,85.27L150.93,84.52L150.03,83.48L149.73,82.88L149.55,82.24L149.49,81.59L149.55,80.94L149.74,80.32L150.04,79.72L150.95,78.71L152.19,78.01L153.54,77.70"/><path d="M155.17,85.55L153.67,85.63L153.57,85.62L152.63,85.23L151.78,84.45L151.15,83.37L150.82,82.11L150.82,80.80L151.16,79.58L151.79,78.60L152.65,77.95"/><path d="M152.88,77.89L153.59,77.70L153.54,77.68"/><path d="M153.52,85.64L153.57,85.62"/><path d="M153.59,77.70L153.70,77.69"/><path d="M155.14,77.82L154.81,78.07"/><path d="M156.09,85.22L155.58,85.01"/><path d="M157.07,67.59L170.65,68.63L174.24,68.22"/><path d="M159.12,66.96L159.05,66.69L158.46,66.43L158.40,66.42"/><path d="M164.66,69.30L167.53,68.98"/><path d="M174.59,92.23L170.74,92.66L168.87,92.52"/><path d="M168.37,69.57L170.81,69.75L174.66,69.32"/><path d="M170.57,93.53L170.74,92.66L170.81,69.75L170.65,68.63"/></g><g style="stroke:#000000;stroke-width:0.353"><path d="M127.90,64.98L114.39,66.50L102.66,65.61L97.67,66.17L96.26,67.18L96.19,90.09L97.60,91.07L126.61,93.29L129.32,93.47L132.01,93.60L134.87,93.69L136.54,93.73L164.59,94.20L167.46,93.88L168.87,92.87L168.93,69.96L167.53,68.98L153.95,67.94L152.87,68.02L150.43,68.15L147.74,68.25L144.91,68.29L142.01,68.29L139.16,68.24L136.43,68.14L133.92,68.00L131.72,67.82L129.89,67.60L128.49,67.37L127.57,67.11L127.16,66.84"/><path d="M102.79,88.35L103.55,87.98L104.17,87.30L104.57,86.40L104.71,85.36L104.58,84.29L104.18,83.33L103.57,82.56L102.80,82.07L101.97,81.92"/><path d="M102.01,69.77L102.84,69.92L103.61,70.40L104.22,71.17L104.62,72.14L104.75,73.20L104.61,74.24L104.21,75.15L103.59,75.83L102.82,76.19"/><path d="M127.91,62.76L122.61,63.35L121.20,64.36L121.20,65.74"/><path d="M153.52,85.64L153.52,85.62L152.59,85.22L151.75,84.43L151.13,83.35L150.81,82.11L150.80,81.92L150.81,80.80L151.14,79.60L151.76,78.62L152.61,77.96L153.54,77.70L153.54,77.68"/><path d="M153.70,77.69L155.19,77.83L156.57,78.37L157.67,79.28L158.09,79.84L158.39,80.45L158.57,81.09L158.63,81.75L158.57,82.40L158.38,83.04L158.07,83.63L157.66,84.18L156.55,85.05L155.17,85.55"/><path d="M156.37,68.12L157.07,67.59L157.71,67.47L158.67,67.22L159.12,66.96"/><path d="M168.20,93.35L170.57,93.53L173.44,93.20L174.59,92.23L174.66,69.32L174.24,68.22L164.93,66.00L163.99,65.79L163.28,65.65L162.51,65.51L161.65,65.39L160.72,65.27L158.40,65.04"/></g></g><g><g/></g><g><g/></g><g><g><path style="stroke:#000000;stroke-width:0.170;stroke-dasharray:3.0 2.0 1.0 2.0" d="M168.23,80.07L185.56,78.11"/></g><g><path style="fill:#000000" d="M168.73,80.07L168.73,80.02L168.72,79.97L168.71,79.92L168.70,79.88L168.67,79.83L168.65,79.79L168.62,79.75L168.59,79.71L168.55,79.68L168.51,79.65L168.47,79.63L168.42,79.61L168.38,79.59L168.33,79.58L168.28,79.57L168.23,79.57L168.18,79.57L168.14,79.58L168.09,79.59L168.04,79.61L168.00,79.63L167.96,79.65L167.92,79.68L167.88,79.71L167.85,79.75L167.82,79.79L167.79,79.83L167.77,79.88L167.76,79.92L167.74,79.97L167.74,80.02L167.73,80.07L167.74,80.12L167.74,80.17L167.76,80.21L167.77,80.26L167.79,80.30L167.82,80.35L167.85,80.39L167.88,80.42L167.92,80.45L167.96,80.48L168.00,80.51L168.04,80.53L168.09,80.55L168.14,80.56L168.18,80.57L168.23,80.57L168.28,80.57L168.33,80.56L168.38,80.55L168.42,80.53L168.47,80.51L168.51,80.48L168.55,80.45L168.59,80.42L168.62,80.39L168.65,80.35L168.67,80.30L168.70,80.26L168.71,80.21L168.72,80.17L168.73,80.12z"/></g><g><path style="fill:#000000" d="M186.06,78.11L186.05,78.06L186.05,78.01L186.03,77.97L186.02,77.92L186.00,77.88L185.97,77.83L185.94,77.80L185.91,77.76L185.87,77.73L185.83,77.70L185.79,77.67L185.75,77.65L185.70,77.63L185.65,77.62L185.60,77.61L185.56,77.61L185.51,77.61L185.46,77.62L185.41,77.63L185.36,77.65L185.32,77.67L185.28,77.70L185.24,77.73L185.20,77.76L185.17,77.80L185.14,77.83L185.11,77.88L185.09,77.92L185.08,77.97L185.07,78.01L185.06,78.06L185.06,78.11L185.06,78.16L185.07,78.21L185.08,78.26L185.09,78.30L185.11,78.35L185.14,78.39L185.17,78.43L185.20,78.47L185.24,78.50L185.28,78.53L185.32,78.55L185.36,78.57L185.41,78.59L185.46,78.60L185.51,78.61L185.56,78.61L185.60,78.61L185.65,78.60L185.70,78.59L185.75,78.57L185.79,78.55L185.83,78.53L185.87,78.50L185.91,78.47L185.94,78.43L185.97,78.39L186.00,78.35L186.02,78.30L186.03,78.26L186.05,78.21L186.05,78.16z"/></g></g><g/><g/><g id="paperID" visibility="hidden" opacity="0.00" transform="scale(0.000100)"><path style="stroke:#000000;stroke-width:0.500;fill:#e6e6e6;fill-rule:evenodd" d="M-2000.00,-2000.00L2297.00,-2000.00L2297.00,2210.00L-2000.00,2210.00zM0.00,0.00L297.00,0.00L297.00,210.00L0.00,210.00z"/><path style="fill:#000000;fill-opacity:0.118" d="M3.00,210.00L297.00,210.00L297.00,3.00L300.00,3.00L300.00,213.00L3.00,213.00z"/></g><g><g><path style="stroke:#000000;stroke-width:0.353;fill:#f0f0ff" d="M8.24,89.18L80.01,89.18L80.01,94.22L8.24,94.22z"/><text xml:space="preserve" fill="#000000" stroke-width="0" x="10.18" y="93.06" font-size="3.61" opacity="1.00" font-family="Consolas" font-weight="bold">Description</text><text xml:space="preserve" fill="#000000" stroke-width="0" x="56.26" y="93.06" font-size="3.56" opacity="1.00" font-family="Consolas" font-weight="bold">BOM ID</text><text xml:space="preserve" fill="#000000" stroke-width="0" x="72.06" y="93.06" font-size="3.58" opacity="1.00" font-family="Consolas" font-weight="bold">Qty</text><path style="stroke:#000000;stroke-width:0.353" d="M54.32,89.18L54.32,94.22"/><path style="stroke:#000000;stroke-width:0.353" d="M70.12,89.18L70.12,94.22"/></g><g id="Line1"><path style="stroke:#000000;stroke-width:0.353;fill:#ffffff" d="M8.24,94.22L80.01,94.22L80.01,99.27L8.24,99.27z"/><text xml:space="preserve" fill="#000000" stroke-width="0" x="10.18" y="98.10" font-size="3.62" opacity="1.00" font-family="Consolas">50mm Extension Spacer</text><text xml:space="preserve" fill="#000000" stroke-width="0" x="56.26" y="98.10" font-size="3.21" opacity="1.00" font-family="Consolas">1</text><text xml:space="preserve" fill="#000000" stroke-width="0" x="72.06" y="98.10" font-size="3.21" opacity="1.00" font-family="Consolas">1</text><path style="stroke:#000000;stroke-width:0.353" d="M54.32,94.22L54.32,99.27"/><path style="stroke:#000000;stroke-width:0.353" d="M70.12,94.22L70.12,99.27"/></g><g id="Line4"><path style="stroke:#000000;stroke-width:0.353;fill:#f0f0ff" d="M8.24,99.27L80.01,99.27L80.01,104.31L8.24,104.31z"/><text xml:space="preserve" fill="#000000" stroke-width="0" x="10.18" y="103.15" font-size="3.62" opacity="1.00" font-family="Consolas">M4 Nut</text><text xml:space="preserve" fill="#000000" stroke-width="0" x="56.26" y="103.15" font-size="3.50" opacity="1.00" font-family="Consolas">4</text><text xml:space="preserve" fill="#000000" stroke-width="0" x="72.06" y="103.15" font-size="3.21" opacity="1.00" font-family="Consolas">1</text><path style="stroke:#000000;stroke-width:0.353" d="M54.32,99.27L54.32,104.31"/><path style="stroke:#000000;stroke-width:0.353" d="M70.12,99.27L70.12,104.31"/></g><g id="Line11"><path style="stroke:#000000;stroke-width:0.353;fill:#ffffff" d="M8.24,104.31L80.01,104.31L80.01,109.35L8.24,109.35z"/><text xml:space="preserve" fill="#000000" stroke-width="0" x="10.18" y="108.19" font-size="3.64" opacity="1.00" font-family="Consolas">M4x25 Socket Head</text><text xml:space="preserve" fill="#000000" stroke-width="0" x="56.26" y="108.19" font-size="3.43" opacity="1.00" font-family="Consolas">11</text><text xml:space="preserve" fill="#000000" stroke-width="0" x="72.06" y="108.19" font-size="3.21" opacity="1.00" font-family="Consolas">1</text><path style="stroke:#000000;stroke-width:0.353" d="M54.32,104.31L54.32,109.35"/><path style="stroke:#000000;stroke-width:0.353" d="M70.12,104.31L70.12,109.35"/></g><g id="Line7"><path style="stroke:#000000;stroke-width:0.353;fill:#f0f0ff" d="M8.24,109.35L80.01,109.35L80.01,114.40L8.24,114.40z"/><text xml:space="preserve" fill="#000000" stroke-width="0" x="10.18" y="113.23" font-size="3.63" opacity="1.00" font-family="Consolas">Optical Tube Clamp</text><text xml:space="preserve" fill="#000000" stroke-width="0" x="56.26" y="113.23" font-size="3.27" opacity="1.00" font-family="Consolas">7</text><text xml:space="preserve" fill="#000000" stroke-width="0" x="72.06" y="113.23" font-size="3.21" opacity="1.00" font-family="Consolas">1</text><path style="stroke:#000000;stroke-width:0.353" d="M54.32,109.35L54.32,114.40"/><path style="stroke:#000000;stroke-width:0.353" d="M70.12,109.35L70.12,114.40"/></g><g id="Line2"><path style="stroke:#000000;stroke-width:0.353;fill:#ffffff" d="M8.24,114.40L80.01,114.40L80.01,119.44L8.24,119.44z"/><text xml:space="preserve" fill="#000000" stroke-width="0" x="10.18" y="118.28" font-size="3.63" opacity="1.00" font-family="Consolas">Thorlabs CML100</text><text xml:space="preserve" fill="#000000" stroke-width="0" x="56.26" y="118.28" font-size="3.17" opacity="1.00" font-family="Consolas">2</text><text xml:space="preserve" fill="#000000" stroke-width="0" x="72.06" y="118.28" font-size="3.21" opacity="1.00" font-family="Consolas">1</text><path style="stroke:#000000;stroke-width:0.353" d="M54.32,114.40L54.32,119.44"/><path style="stroke:#000000;stroke-width:0.353" d="M70.12,114.40L70.12,119.44"/></g></g><g id="hotspot.0" ident="" onmouseover="ShowHotSpot(evt,&apos;0&apos;)" onmouseout="HideHotSpot(evt,&apos;0&apos;)" onmousemove="ShowToolTip(evt,&apos;0&apos;,&quot;50mm Extension Spacer&quot;)" opacity="0"><path style="fill:#00ff00;fill-rule:evenodd" d="M8.24,94.22L8.24,99.27L80.01,99.27L80.01,94.22zM129.08,127.05L132.81,127.52L136.53,127.77L150.33,127.77L155.86,127.35L157.60,127.00L157.78,151.15L158.37,151.55L158.27,177.11L156.11,177.68L150.83,178.10L135.78,178.10L132.06,177.85L128.59,177.36L127.59,177.12L127.53,151.33L128.12,150.93L128.34,126.76z"/></g><g id="hotspot.1" ident="" onmouseover="ShowHotSpot(evt,&apos;1&apos;)" onmouseout="HideHotSpot(evt,&apos;1&apos;)" onmousemove="ShowToolTip(evt,&apos;1&apos;,&quot;socket head cap screw_iso&quot;)" opacity="0"><path style="fill:#00ff00;fill-rule:evenodd" d="M8.24,104.31L8.24,109.35L80.01,109.35L80.01,104.31zM157.61,79.17L158.60,81.15L158.60,82.48L157.75,84.12L156.54,84.89L153.37,84.90L152.42,84.11L151.64,82.41L151.64,80.48L152.29,79.15L153.06,78.43L153.80,78.18L156.13,78.17z"/></g><g id="hotspot.2" ident="" onmouseover="ShowHotSpot(evt,&apos;2&apos;)" onmouseout="HideHotSpot(evt,&apos;2&apos;)" onmousemove="ShowToolTip(evt,&apos;2&apos;,&quot;CML100&quot;)" opacity="0"><path style="fill:#00ff00;fill-rule:evenodd" d="M8.24,114.40L8.24,119.44L80.01,119.44L80.01,114.40zM154.38,22.39L155.40,22.86L155.53,26.21L157.61,26.61L158.37,27.08L158.36,67.36L157.26,67.51L156.52,68.00L135.04,68.02L131.57,67.77L128.31,67.31L128.02,67.10L128.10,27.20L128.76,26.61L130.84,26.21L131.07,22.72L131.98,22.39L136.20,21.90L149.67,21.90zM157.87,94.03L158.34,94.30L158.12,126.38L157.61,126.86L155.86,127.35L150.33,127.77L136.53,127.77L132.81,127.52L129.08,127.04L128.33,126.80L127.82,126.31L127.85,99.34L128.01,93.54z"/></g><g id="hotspot.3" ident="" onmouseover="ShowHotSpot(evt,&apos;3&apos;)" onmouseout="HideHotSpot(evt,&apos;3&apos;)" onmousemove="ShowToolTip(evt,&apos;3&apos;,&quot;M4 Nut&quot;)" opacity="0"><path style="fill:#00ff00;fill-rule:evenodd" d="M8.24,99.27L8.24,104.31L80.01,104.31L80.01,99.27zM189.61,76.17L189.60,80.02L187.01,81.89L185.29,82.15L184.15,82.14L181.65,80.17L181.65,76.03L184.29,74.21L186.86,73.94zM185.68,77.34L185.88,78.80L185.64,79.04L185.36,78.46L185.39,77.23z"/></g><g id="hotspot.4" ident="" onmouseover="ShowHotSpot(evt,&apos;4&apos;)" onmouseout="HideHotSpot(evt,&apos;4&apos;)" onmousemove="ShowToolTip(evt,&apos;4&apos;,&quot;Optical Tube Clamp&quot;)" opacity="0"><path style="fill:#00ff00;fill-rule:evenodd" d="M8.24,109.35L8.24,114.40L80.01,114.40L80.01,109.35zM162.81,65.54L174.20,68.28L174.69,69.48L174.46,92.39L173.63,93.05L172.40,93.31L167.92,93.54L167.67,93.78L165.70,94.05L157.85,94.05L131.82,93.56L120.66,92.81L98.08,91.09L96.29,90.16L96.36,67.11L97.52,66.28L100.75,65.79L105.54,65.79L111.98,66.28L116.12,66.28L120.60,65.81L121.15,65.62L121.41,64.13L122.80,63.29L127.85,62.79L128.02,67.10L128.31,67.31L131.57,67.77L135.04,68.02L156.52,68.00L157.26,67.51L158.36,67.36L158.51,65.02zM157.61,79.17L158.60,81.15L158.60,82.48L157.75,84.12L156.54,84.89L153.37,84.90L152.42,84.11L151.64,82.41L151.64,80.48L152.29,79.15L153.06,78.43L153.80,78.18L156.13,78.17z"/></g><g id="ToolTip" visibility="hidden" opacity="0" transform="translate(0,0)"><rect id="ToolTipShadow" opacity="0.20" fill="black" stroke="none" x="0" y="0" width="30" height="8"/><rect id="ToolTipBG" fill="#ffffe1" stroke="black" x="0" y="0" width="30" height="8"/><text xml:space="preserve" id="ToolTipText" fill="black" x="0" y="0" width="30" height="8">tooltip</text></g></g></svg>