<?xml version="1.0" encoding="UTF-8" standalone="yes"?><svg xmlns="http://www.w3.org/2000/svg" xmlns:xlink="http://www.w3.org/1999/xlink" width="297.000mm" height="210.000mm" viewBox="0.000000 0.000000 297.000000 210.000000" stroke-linejoin="round" stroke-linecap="round" fill="none" fill-rule="evenodd"><desc>Composer Export</desc><script type="text/ecmascript"><![CDATA[
if(typeof(top) != "undefined")
{
	top.ShowPaper = ShowPaper;
}
function ShowHotSpot(evt,hotspotid)
{
	var svgDocument = evt.target.ownerDocument;
	var strId = "hotspot."+hotspotid;
	var hotspot = svgDocument.getElementById(strId);
	if(hotspot)
		hotspot.setAttribute("opacity",".5");
}
function HideHotSpot(evt,hotspotid)
{
	var svgDocument = evt.target.ownerDocument;
	var strId = "hotspot."+hotspotid;
	var hotspot = svgDocument.getElementById(strId);
	if(hotspot)
		hotspot.setAttribute("opacity","0");

	var toolTip = svgDocument.getElementById('ToolTip');
	if(toolTip)
		toolTip.setAttribute("visibility","hidden");
}
function ShowToolTip(evt,hotspotid,strTooltip)
{
	if(strTooltip=="")
	return;

	// change text
	var svgDocument = evt.target.ownerDocument;
	var tiptext = svgDocument.getElementById('ToolTipText');
	if( !tiptext )
	return;
	tiptext.firstChild.nodeValue = " " + strTooltip + "  " ;

	// show tooltip before, else some refresh issue

	var toolTip = svgDocument.getElementById('ToolTip');
	if(!toolTip)
	return;

	toolTip.setAttribute("visibility","visible");
	toolTip.setAttribute("opacity",".95");

	// move tooltip
	// get viewbox

	var root = svgDocument.documentElement;
	var vbox = (root.getAttribute("viewBox")).split(' ');
	var x0 = parseFloat(vbox[0]);
	var y0 = parseFloat(vbox[1]);
	var vboxW = parseFloat(vbox[2]);
	var vboxH = parseFloat(vbox[3]);

	// get default width of svg

	var strW = root.getAttribute("width");
	var svgW = parseFloat(strW);
	if(strW.indexOf('mm') != -1)
	svgW *= 3.779;

	var strH = root.getAttribute("height");
	var svgH = parseFloat(strH);
	if(strH.indexOf('mm') != -1)
	svgH *= 3.779;  	// 96 dpi  -> 96/25.4 = 3.779

	// update the viewbox / width / height if svg is embedded in html with zoom fit all
	var realx0 = x0;
	var realy0 = y0;
	var realvboxW = vboxW;
	var realvboxH = vboxH;
	var realsvgW = svgW;
	var realsvgH = svgH;

	if ((typeof(top) == "undefined") || (typeof(top.svgctl1) != "undefined")) // embedded in html
	{
		// get window size in pxl

		svgW = window.innerWidth;
		svgH = window.innerHeight;

		// calculate real viewbox

		realsvgW = svgW;
		realsvgH = svgH;
		if((svgW / svgH) > (vboxW / vboxH))
		{
			realvboxW = (vboxH * svgW) / svgH;
			realvboxH = vboxH;
			realx0 = x0 - (realvboxW - vboxW)/2 ;
		}
		else
		{
			realvboxH = (vboxW * svgH) / svgW;
			realvboxW = vboxW;
			realy0 = y0 - (realvboxH - vboxH)/2 ;
		}
	}

	// get user zoom/pan

	var newScale = root.currentScale;
	var translation = root.currentTranslate;

	// transform pxl to user unit

	var xPos = (((evt.clientX+10- translation.x)/newScale) * realvboxW)/realsvgW  + realx0 ;
	var yPos = (((evt.clientY+5- translation.y)/newScale) * realvboxH)/ realsvgH  + realy0 ;
	var scaleForWidth = ( (1 / newScale) * realvboxH) / realsvgH;

	// move tooltip

	toolTip.setAttribute("transform", "translate(" + xPos + "," + yPos + ")" );

	// resize tooltip

	var fontsize = 12;
	tiptext.setAttribute("font-size",fontsize*scaleForWidth);
	tiptext.setAttribute("y", fontsize*scaleForWidth);
	var tipBG = svgDocument.getElementById('ToolTipBG');
	var outline = tiptext.getBBox();
	if(tipBG)
	{
		tipBG.setAttribute("stroke-width", 1*scaleForWidth);
		tipBG.setAttribute("width", Number(outline.width) );
		tipBG.setAttribute("height", Number(outline.height) + fontsize*.5*scaleForWidth );
	}
	var ToolTipShadow = svgDocument.getElementById('ToolTipShadow');
	if(ToolTipShadow)
	{
		ToolTipShadow.setAttribute("width", Number(outline.width) );
		ToolTipShadow.setAttribute("height", Number(outline.height) + fontsize*.5*scaleForWidth );
		ToolTipShadow.setAttribute("x", 3*scaleForWidth);
		ToolTipShadow.setAttribute("y", 3*scaleForWidth);
	}
}
function ShowPaper()
{
  var svgDocument = getDocument();
  var paper = svgDocument.getElementById("paperID");
  if(paper)
  {
    paper.setAttribute("transform","scale(1)");
    paper.setAttribute("opacity","1");
    paper.setAttribute("visibility","visible");
  }
  var svg = svgDocument.getRootElement();
  if(svg)
  {
    svg.setAttribute("width","307.000mm");
    svg.setAttribute("height","220.000mm");
    svg.setAttribute("viewBox","-5.000000 -5.000000 307.000000 220.000000");
  }
}
]]></script><defs/><g><path style="fill:#ffffff" d="M296.91,209.94L0.05,209.94L0.05,0.05L296.91,0.05z"/><path style="fill:#beffff" d="M186.42,9.23L186.59,9.38L186.18,9.74L186.18,12.13L203.43,16.94L203.77,16.84L206.54,14.90L207.10,14.91L212.78,16.58L213.45,17.07L213.45,18.98L213.30,19.17L205.33,24.58L196.10,30.84L194.64,31.59L193.96,31.68L192.57,31.61L186.89,30.11L170.54,25.59L170.10,25.57L169.94,25.56L162.54,23.42L162.21,23.09L162.04,22.71L162.04,21.35L162.46,20.74L174.14,12.72L174.34,12.54L174.54,12.56L174.56,16.03L174.72,16.74L175.06,17.07L176.21,17.42L178.17,17.42L179.05,17.14L179.55,16.80L179.65,16.20L179.73,12.73L179.40,12.23L178.60,11.83L177.61,11.64L176.60,11.65L175.97,11.69L175.94,11.56L180.33,8.56L181.44,8.38L183.23,8.40z"/><path style="fill:#404040" d="M186.89,30.11L192.57,31.61L193.96,31.68L194.64,31.59L196.10,30.84L205.33,24.58L205.28,26.20L205.26,30.17L205.37,29.44L205.65,29.32L205.93,29.44L206.02,30.54L205.91,31.51L205.97,31.74L205.76,32.83L205.43,33.00L205.27,33.83L204.81,33.92L204.58,33.44L204.53,34.55L204.31,34.76L203.80,34.84L203.53,34.95L203.30,35.59L203.05,35.59L203.15,37.02L202.95,38.06L202.76,38.33L202.03,38.44L201.94,39.51L201.69,39.80L200.34,39.73L200.25,38.27L200.18,40.73L199.88,40.98L198.01,40.90L198.04,37.95L198.43,37.78L197.86,37.77L197.84,41.73L197.54,41.98L196.75,41.96L195.93,41.80L195.07,42.00L194.92,42.68L193.93,42.78L193.25,42.45L191.82,42.58L191.74,41.27L191.67,42.73L191.75,42.96L191.64,43.10L190.53,43.17L189.91,42.79L188.55,42.82L188.25,43.23L187.12,43.27L186.58,42.78L185.16,42.78L184.76,43.07L184.10,43.11L183.68,43.00L183.55,42.64L183.24,42.44L181.68,42.45L181.44,42.59L180.95,42.61L180.33,42.51L180.24,41.94L180.07,41.77L179.38,41.61L178.50,41.80L177.88,41.81L177.40,41.57L177.38,38.94L177.24,40.73L175.38,40.81L175.05,40.62L174.89,39.61L173.38,39.45L173.21,39.28L173.07,38.26L172.89,38.08L172.38,38.16L172.20,37.98L172.06,37.39L172.05,36.61L171.89,36.43L171.88,32.26L171.70,34.83L171.60,34.93L171.38,34.78L171.21,34.11L170.41,33.87L170.38,32.59L170.22,33.04L169.70,32.95L169.53,32.12L169.33,31.98L169.12,30.04L169.27,29.55L169.40,28.68L169.39,28.54L169.76,28.32L169.87,28.43L169.82,29.29L170.02,29.34L170.10,25.57L170.54,25.59z"/><path style="fill:#bfffc0" d="M185.07,9.73L185.42,10.24L185.42,10.63L185.09,10.99L183.85,11.41L181.55,11.41L180.56,11.07L180.06,10.74L180.04,9.94L180.83,9.40L181.51,9.24L183.73,9.24z"/><path style="fill:#bfffc0" d="M168.71,20.42L169.38,20.91L169.37,21.64L168.87,21.98L167.99,22.26L165.53,22.26L164.53,21.93L164.21,21.75L164.01,21.43L164.03,20.81L165.48,20.08L167.70,20.09z"/><path style="fill:#808080" d="M172.20,37.98L172.38,38.16L172.89,38.08L173.07,38.26L173.21,39.28L173.38,39.45L174.89,39.61L175.05,40.62L175.38,40.81L177.24,40.73L177.40,41.57L177.88,41.81L178.50,41.80L179.38,41.61L180.07,41.77L180.24,41.94L180.33,42.51L180.95,42.61L181.38,42.69L181.44,42.59L181.68,42.45L183.24,42.44L183.55,42.64L183.68,43.00L184.10,43.11L184.72,43.17L184.76,43.07L185.16,42.78L186.58,42.78L187.12,43.27L188.23,43.33L188.25,43.23L188.55,42.82L189.91,42.79L190.53,43.17L191.64,43.10L191.75,42.96L191.67,42.73L191.82,42.58L193.25,42.45L193.93,42.78L194.92,42.68L195.07,42.00L195.93,41.80L196.75,41.96L197.54,41.98L197.84,41.73L198.01,40.90L199.88,40.98L200.18,40.73L200.34,39.73L201.69,39.80L201.94,39.51L202.03,38.44L202.76,38.33L202.95,38.06L202.85,46.08L202.52,63.60L202.58,65.48L202.44,68.10L202.35,72.45L202.26,75.06L201.71,76.34L200.93,77.23L200.92,78.70L199.03,78.33L198.70,78.51L196.37,79.35L193.81,79.92L192.97,80.09L191.63,80.25L189.79,80.42L187.96,80.50L187.12,80.50L183.78,80.33L182.28,80.16L179.44,79.66L176.05,78.68L173.04,77.18L172.06,76.33L171.53,75.51L171.37,75.02L171.23,73.12L171.23,70.27L171.30,65.94L171.39,61.42L171.80,39.40L172.06,37.39z"/><path style="fill:#808080" d="M174.77,105.70L177.94,106.20L179.61,106.37L182.44,106.54L201.14,107.04L201.58,107.23L201.69,107.66L201.27,129.82L200.78,130.88L200.58,130.98L200.68,133.71L200.44,146.89L200.41,151.35L200.61,150.90L201.02,151.72L201.11,152.74L200.68,175.78L200.59,176.89L200.37,177.51L199.11,179.08L196.96,180.48L196.63,180.59L196.25,181.04L196.09,180.87L194.20,181.51L190.63,182.25L189.46,182.42L187.12,182.58L182.28,182.49L180.61,182.32L178.62,181.99L177.78,181.82L175.21,181.18L173.43,180.42L173.12,180.31L171.22,179.16L169.89,177.99L169.38,177.32L169.03,176.34L168.97,174.11L169.39,152.23L169.56,151.07L169.96,150.22L170.21,151.19L170.23,149.90L170.47,136.88L170.55,130.25L170.22,129.38L170.21,128.75L170.13,128.70L170.56,105.49L170.66,104.70L171.03,104.70z"/><path style="fill:#beffff" d="M183.91,10.22L183.44,10.71L182.96,10.82L181.96,10.71L181.49,10.44L181.63,10.04L181.83,9.89L183.40,9.90z"/><path style="fill:#ffffff" d="M199.80,17.67L200.61,18.06L201.10,18.57L201.02,22.04L200.79,22.85L199.71,23.27L197.41,23.26L196.41,22.93L196.06,22.61L195.93,21.88L195.93,19.86L196.08,18.31L196.86,17.75L197.53,17.58L199.31,17.56z"/><path style="fill:#d3aa21" d="M151.24,45.70L151.85,45.96L152.68,46.80L153.18,47.79L153.19,49.36L152.78,49.96L150.25,51.63L148.02,51.63L147.02,50.79L146.66,49.98L146.59,49.41L146.84,48.37L147.06,48.21L147.23,47.91L147.20,47.75L148.12,46.80L149.63,45.80L150.12,45.62z"/><path style="fill:#d3aa21" d="M151.71,57.28L152.53,58.13L152.94,58.92L153.04,59.42L153.02,60.55L152.67,61.19L151.10,62.30L149.79,63.01L148.57,63.07L148.06,62.97L147.18,62.48L146.68,61.81L146.52,61.27L146.50,60.65L146.42,60.58L146.49,60.02L146.95,59.15L147.52,58.38L149.78,56.97L151.01,56.97z"/><path style="fill:#d3aa21" d="M111.45,73.67L112.29,74.50L112.55,75.27L112.55,76.30L112.47,76.45L112.27,76.01L112.21,76.96L111.95,77.57L110.97,78.42L109.18,79.50L108.16,79.50L106.95,78.84L106.10,77.52L106.10,75.72L106.89,74.84L109.05,73.50L110.61,73.33z"/><path style="fill:#d3aa21" d="M109.82,84.78L110.22,84.87L110.85,84.75L111.62,85.19L112.14,85.83L112.39,86.46L112.39,87.48L112.30,87.82L112.11,87.18L112.05,88.14L111.72,89.01L109.38,90.69L108.55,90.87L107.60,90.71L106.79,90.18L106.10,89.21L105.96,88.81L105.94,88.36L105.86,88.31L105.93,87.07L106.89,86.02L108.73,84.86L109.29,84.71z"/><path style="fill:#fff2e8" d="M123.57,52.13L123.07,52.14L123.56,51.47L123.85,51.37L124.38,51.38L124.48,51.46z"/><path style="fill:#fff2e8" d="M141.00,54.63L141.42,55.42L141.52,55.92L141.52,56.58L141.34,57.87L140.99,58.70L140.34,59.55L139.73,59.97L139.04,59.97L138.83,59.61L138.82,58.81L138.75,58.76L138.75,58.42L138.82,57.47L138.74,57.43L138.17,55.80L136.98,54.96L136.98,54.54L137.76,53.96L138.83,53.97z"/><path style="fill:#fff2e8" d="M114.14,59.13L114.31,59.29L114.31,60.59L114.14,62.43L112.28,61.99L111.96,61.81L111.77,61.50L111.77,60.03L112.13,59.38L112.55,58.97z"/><path style="fill:#fff2e8" d="M127.98,61.65L129.64,62.15L130.00,62.46L130.31,63.15L130.33,64.26L130.15,65.55L129.48,66.88L128.77,67.51L127.75,67.56L127.65,67.29L127.63,66.49L127.57,66.44L127.57,66.10L127.64,64.98L127.56,64.94L126.84,63.29L125.80,62.47L125.80,62.22L126.75,61.47z"/><path style="fill:#fff2e8" d="M167.22,65.14L168.02,66.34L163.46,69.50L163.21,69.51L162.54,68.83L162.38,68.44L162.36,68.00L162.28,67.94L162.35,67.37L162.81,66.83L165.75,64.80L166.09,64.62L166.39,64.64z"/><path style="fill:#fff2e8" d="M146.01,78.17L146.86,78.99L147.51,80.01L147.76,80.96L147.86,81.45L147.86,81.64L147.67,82.57L146.63,83.20L145.16,83.20L144.18,82.67L143.33,81.69L142.99,80.86L142.99,79.23L143.68,78.25L144.27,77.84L145.17,77.84z"/><path style="fill:#fff2e8" d="M113.80,78.60L113.78,81.74L113.52,81.84L111.62,81.35L111.30,80.47L111.30,79.95L111.56,79.01L112.04,78.51L112.33,78.41L112.85,78.42z"/><path style="fill:#fff2e8" d="M138.31,79.22L138.10,79.17L138.35,79.03z"/><path style="fill:#fff2e8" d="M129.67,81.99L129.91,82.62L129.91,84.13L129.74,84.97L129.42,85.69L128.82,86.59L128.21,87.01L127.53,87.01L127.18,86.93L126.86,86.77L127.13,86.57L127.32,84.45L127.75,83.02L128.59,81.70L128.86,81.59L129.21,81.56z"/><path style="fill:#fff2e8" d="M145.84,89.52L146.85,90.51L147.51,91.69L147.60,92.47L147.60,93.15L147.50,93.75L146.94,94.19L146.07,94.52L145.21,94.52L144.01,94.02L143.16,93.04L142.82,92.37L142.82,90.40L143.49,89.57L144.05,89.18L144.40,89.00z"/><path style="fill:#fff2e8" d="M202.26,92.36L203.26,92.70L204.61,93.69L205.26,94.53L205.53,95.47L205.53,96.33L205.39,97.06L204.19,98.02L202.49,99.03L201.81,99.12L200.41,98.89L199.10,97.86L198.25,96.54L198.07,96.05L198.07,94.08L198.76,92.93L199.30,92.62L199.64,92.34L200.47,92.18z"/><path style="fill:#000020" d="M175.97,11.69L175.85,11.80L175.65,11.74L175.94,11.56z"/><path style="fill:#000020" d="M169.76,28.32L169.94,25.56L170.10,25.57L170.02,29.34L169.82,29.29L169.87,28.43z"/><path style="fill:#000020" d="M205.35,28.37L205.43,29.17L205.52,28.54L205.65,29.32L205.37,29.44L205.26,30.17L205.28,26.20z"/><path style="fill:#000020" d="M169.40,28.68L169.27,29.55L169.39,28.54z"/><path style="fill:#000020" d="M206.08,31.67L205.97,31.74L205.91,31.51L206.02,30.54L206.09,30.60z"/><path style="fill:#000020" d="M204.81,33.92L204.53,34.55L204.58,33.44z"/><path style="fill:#000020" d="M170.41,33.87L170.22,33.04L170.38,32.59z"/><path style="fill:#000020" d="M203.05,35.59L203.30,35.59L203.24,36.99L203.15,37.02z"/><path style="fill:#000020" d="M200.70,36.34L201.77,36.45L200.70,36.62L200.57,37.00L200.58,35.77z"/><path style="fill:#000020" d="M171.89,36.43L172.05,36.61L172.06,37.39L171.80,39.40L171.60,34.93L171.70,34.83L171.88,32.26z"/><path style="fill:#000020" d="M181.72,38.33L181.50,38.27L181.75,38.13z"/><path style="fill:#000020" d="M180.39,40.52L180.36,38.93L180.53,38.91z"/><path style="fill:#000020" d="M200.34,39.73L200.18,40.73L200.25,38.27z"/><path style="fill:#000020" d="M177.40,41.57L177.24,40.73L177.38,38.94z"/><path style="fill:#000020" d="M198.04,37.95L198.01,40.90L197.84,41.73L197.86,37.77L198.43,37.78z"/><path style="fill:#000020" d="M191.82,42.58L191.67,42.73L191.74,41.27z"/><path style="fill:#000020" d="M181.38,42.69L180.95,42.61L181.44,42.59z"/><path style="fill:#000020" d="M184.72,43.17L184.10,43.11L184.76,43.07z"/><path style="fill:#000020" d="M188.23,43.33L187.12,43.27L188.25,43.23z"/><path style="fill:#000020" d="M147.23,47.91L147.06,48.21L147.20,47.75z"/><path style="fill:#000020" d="M124.38,51.38L123.85,51.37L124.31,51.29z"/><path style="fill:#000020" d="M141.52,55.92L141.42,55.42L141.50,55.47z"/><path style="fill:#000020" d="M138.75,58.42L138.74,57.43L138.82,57.47z"/><path style="fill:#000020" d="M153.04,59.42L152.94,58.92L153.02,58.98z"/><path style="fill:#000020" d="M138.83,59.61L138.75,58.76L138.82,58.81z"/><path style="fill:#000020" d="M146.52,61.27L146.42,60.58L146.50,60.65z"/><path style="fill:#000020" d="M171.20,64.05L171.39,61.42L171.30,65.94z"/><path style="fill:#000020" d="M165.75,64.80L165.65,64.64L166.09,64.62z"/><path style="fill:#000020" d="M114.29,64.89L114.14,62.43L114.31,60.59z"/><path style="fill:#000020" d="M127.57,66.10L127.56,64.94L127.64,64.98z"/><path style="fill:#000020" d="M127.65,67.29L127.57,66.44L127.63,66.49z"/><path style="fill:#000020" d="M162.38,68.44L162.28,67.94L162.36,68.00z"/><path style="fill:#000020" d="M112.55,76.30L112.55,75.27L112.61,75.34z"/><path style="fill:#000020" d="M112.47,76.45L112.21,76.96L112.27,76.01z"/><path style="fill:#000020" d="M228.27,78.30L228.44,78.33L228.48,78.91z"/><path style="fill:#000020" d="M147.86,81.45L147.76,80.96L147.84,81.02z"/><path style="fill:#000020" d="M129.21,81.56L128.86,81.59L129.15,81.36z"/><path style="fill:#000020" d="M113.52,81.84L113.78,81.74L113.80,78.60L113.96,78.33L113.95,82.59L113.77,82.02z"/><path style="fill:#000020" d="M129.91,84.13L129.91,82.62L129.98,82.68z"/><path style="fill:#000020" d="M109.82,84.78L110.79,84.69L110.85,84.75L110.22,84.87z"/><path style="fill:#000020" d="M127.18,86.93L126.75,86.85L126.86,86.77z"/><path style="fill:#000020" d="M112.39,87.48L112.39,86.46L112.45,86.52z"/><path style="fill:#000020" d="M112.30,87.82L112.05,88.14L112.11,87.18z"/><path style="fill:#000020" d="M105.96,88.81L105.86,88.31L105.94,88.36z"/><path style="fill:#000020" d="M144.05,89.18L143.76,89.02L144.40,89.00z"/><path style="fill:#000020" d="M199.20,92.35L199.64,92.34L199.30,92.62z"/><path style="fill:#000020" d="M147.60,93.15L147.60,92.47L147.67,92.54z"/><path style="fill:#000020" d="M205.53,96.33L205.53,95.47L205.59,95.54z"/><path style="fill:#000020" d="M215.59,103.44L215.76,103.56L215.43,104.11L215.44,99.86z"/><path style="fill:#000020" d="M201.14,107.04L204.27,107.06L201.87,107.23L201.69,107.66L201.58,107.23z"/><path style="fill:#000020" d="M170.22,129.38L170.13,128.70L170.21,128.75z"/><path style="fill:#000020" d="M200.58,130.98L200.78,130.88L200.68,133.71z"/><path style="fill:#000020" d="M169.96,150.22L170.23,149.90L170.21,151.19z"/><path style="fill:#000020" d="M200.61,150.90L200.41,151.35L200.44,146.89z"/><path style="fill:#000020" d="M201.11,152.74L201.02,151.72L201.09,151.79z"/><path style="fill:#000020" d="M196.63,180.59L196.96,180.48L196.93,180.71z"/><path style="fill:#000020" d="M173.43,180.42L173.20,180.72L173.12,180.31z"/><path style="fill:#404040" d="M205.52,28.54L205.43,29.17L205.35,28.37z"/><path style="fill:#bfffc0" d="M210.43,16.58L211.42,17.10L211.62,17.64L211.30,18.17L210.05,18.59L207.76,18.59L206.76,18.25L206.26,17.92L206.25,17.12L207.04,16.58L207.71,16.42L209.77,16.42z"/><path style="fill:#bfffc0" d="M195.11,27.74L195.60,28.26L195.60,28.66L195.18,29.09L194.20,29.44L191.74,29.44L190.74,29.10L190.24,28.77L190.24,27.99L190.68,27.60L191.68,27.26L193.74,27.27z"/><path style="fill:#beffff" d="M210.14,17.41L210.11,17.63L209.39,17.93L208.42,17.93L207.70,17.62L207.70,17.26L208.03,17.07L209.44,17.08z"/><path style="fill:#beffff" d="M167.90,21.08L167.83,21.42L166.42,21.67L165.94,21.56L165.47,21.29L165.52,20.99L165.97,20.75L167.38,20.75z"/><path style="fill:#beffff" d="M194.09,28.24L193.91,28.65L193.36,28.77L192.40,28.78L191.67,28.48L191.73,28.17L192.18,27.92L193.41,27.93z"/><g id="Actor_3.0"><g style="stroke:#000000;stroke-width:0.353"><path d="M106.556 75.143 a2.556 1.990 55.505 1 1 2.899 4.188"/><path d="M108.930 78.456 a1.533 1.194 55.505 0 1 -1.740 -2.513"/></g><g style="stroke:#000000;stroke-width:0.529"><path d="M106.69,75.04 L108.54,73.77 "/><path d="M109.59,79.25 L111.44,77.98 "/><path d="M108.544 73.766 a2.556 1.990 -124.495 0 1 2.895 4.213"/><path d="M109.456 79.332 a2.556 1.990 55.505 0 1 -2.899 -4.188"/><path d="M107.190 75.943 a1.533 1.194 55.505 1 1 1.740 2.513"/><path d="M109.854 73.518 a2.045 1.592 -124.495 0 1 2.286 3.325"/></g></g><g id="Actor_4.0"><g style="stroke:#000000;stroke-width:0.353"><path d="M229.69,81.00 L229.76,77.26 L228.21,75.86 L226.74,74.55 L223.66,75.58 "/><path d="M226.74,74.55 L228.88,73.10 "/><path d="M229.76,77.26 L231.89,75.81 "/><path d="M227.934 79.893 a2.045 1.588 -124.208 1 1 -2.304 -3.362"/></g><g style="stroke:#000000;stroke-width:0.529"><path d="M223.84,79.55 L223.59,79.32 L223.66,75.58 L225.79,74.13 L228.88,73.10 L231.89,75.81 L231.82,79.55 L229.69,81.00 L226.60,82.03 L223.84,79.55 "/><path d="M225.630 76.531 a2.045 1.588 -124.208 0 1 2.304 3.362"/><path d="M228.411 78.550 a2.045 1.588 55.791 0 1 -1.343 -1.975"/></g></g><g id="Actor_3.1"><g style="stroke:#000000;stroke-width:0.353"><path d="M147.266 48.061 a2.045 1.583 56.076 0 1 2.306 3.360"/><path d="M147.809 47.081 a2.556 1.979 56.076 0 1 2.883 4.200"/><path d="M147.976 47.578 a2.045 1.583 56.076 0 1 2.282 3.393"/><path d="M149.257 51.020 a1.533 1.187 56.076 1 1 -1.730 -2.520"/></g><g style="stroke:#000000;stroke-width:0.529"><path d="M147.98,47.58 L147.17,48.12 "/><path d="M147.69,47.15 L149.57,45.89 "/><path d="M149.45,51.51 L150.26,50.97 "/><path d="M150.54,51.39 L152.42,50.13 "/><path d="M149.24,51.63 L149.44,51.66 L150.12,51.59 L150.69,51.28 "/><path d="M149.572 51.421 a2.045 1.583 56.076 1 1 -2.306 -3.360"/><path d="M149.569 45.890 a2.556 1.979 -123.924 0 1 2.853 4.241"/><path d="M146.990 48.240 a2.556 1.979 56.076 0 1 0.819 -1.159"/><path d="M147.527 48.500 a1.533 1.187 56.076 0 1 1.730 2.520"/></g></g><g id="Actor_3.2"><g style="stroke:#000000;stroke-width:0.353"><path d="M108.903 89.659 a1.533 1.194 55.505 1 1 -1.707 -2.536"/><path d="M106.683 86.242 a2.556 1.990 55.505 0 1 2.844 4.226"/></g><g style="stroke:#000000;stroke-width:0.529"><path d="M106.52,86.34 L108.37,85.07 "/><path d="M109.42,90.55 L111.27,89.28 "/><path d="M109.681 84.820 a2.045 1.592 -124.495 0 1 2.286 3.325"/><path d="M107.197 87.123 a1.533 1.194 55.505 0 1 1.707 2.536"/><path d="M109.527 90.468 a2.556 1.990 55.505 1 1 -2.844 -4.226"/><path d="M108.371 85.068 a2.556 1.990 -124.495 0 1 2.895 4.213"/></g></g><g id="Actor_9.0"><g style="stroke:#000000;stroke-width:0.529"><path d="M138.35,79.30 L137.98,79.19 "/></g></g><g id="Actor_9.1"><g style="stroke:#000000;stroke-width:0.353"><path d="M128.01,83.80 C128.00,83.89 128.00,83.89 127.98,83.99 C127.92,84.20 127.92,84.20 127.87,84.40 C127.83,84.49 127.83,84.49 127.80,84.57 "/><path d="M128.45,85.72 L129.15,84.57 L128.01,84.26 L128.02,83.78 "/><path d="M128.01,84.26 L127.80,84.61 "/><path d="M127.98,83.99 L127.90,83.98 "/><path d="M129.15,84.57 L129.17,83.21 L128.48,83.02 "/><path d="M129.17,83.21 L128.50,82.98 "/><path d="M111.431 81.003 a1.533 0.714 -74.632 0 1 0.675 -2.477"/></g><g style="stroke:#000000;stroke-width:0.529"><path d="M126.79,86.80 C127.18,86.91 127.18,86.91 127.57,87.02 C127.59,87.02 127.59,87.02 127.61,87.02 C127.81,87.02 127.81,87.02 128.01,87.02 C128.03,87.02 128.03,87.02 128.05,87.01 C128.27,86.89 128.27,86.89 128.48,86.78 C128.50,86.77 128.50,86.77 128.51,86.75 C128.72,86.53 128.73,86.53 128.93,86.31 C129.12,86.00 129.12,86.00 129.31,85.68 C129.46,85.32 129.46,85.31 129.61,84.94 C129.71,84.55 129.71,84.55 129.81,84.15 C129.85,83.76 129.85,83.76 129.88,83.37 C129.86,83.03 129.87,83.03 129.83,82.68 C129.75,82.41 129.75,82.41 129.66,82.14 C129.65,82.12 129.66,82.12 129.65,82.10 C129.51,81.93 129.51,81.93 129.36,81.75 C129.35,81.74 129.35,81.74 129.33,81.72 "/><path d="M111.43,81.00 L111.33,80.74 "/><path d="M111.80,81.35 L113.88,81.92 "/><path d="M111.89,78.69 L112.11,78.53 "/><path d="M112.61,78.41 L113.94,78.77 "/><path d="M129.33,81.72 L129.30,81.71 L128.93,81.58 L128.77,81.54 "/><path d="M128.50,82.98 L127.81,84.13 L127.78,85.50 L128.45,85.72 "/><path d="M111.43,81.00 L111.59,81.25 L111.80,81.35 "/><path d="M112.61,78.41 L112.37,78.39 L112.11,78.53 "/><path d="M111.326 80.739 a1.247 0.581 105.367 0 1 0.562 -2.045"/></g></g><g id="Actor_3.3"><g style="stroke:#000000;stroke-width:0.353"><path d="M146.898 59.495 a2.045 1.583 56.076 1 1 2.262 3.390"/><path d="M147.393 58.548 a2.556 1.979 56.076 1 1 2.828 4.237"/><path d="M148.905 62.443 a1.533 1.187 56.076 0 1 -1.697 -2.542"/><path d="M147.802 58.880 a2.045 1.583 56.076 1 1 2.163 3.464"/></g><g style="stroke:#000000;stroke-width:0.529"><path d="M147.00,59.42 L147.80,58.88 "/><path d="M147.52,58.46 L149.40,57.19 "/><path d="M149.16,62.88 L149.97,62.34 L149.96,62.34 "/><path d="M150.37,62.70 L152.25,61.43 "/><path d="M149.160 62.885 a2.045 1.583 56.076 0 1 -2.262 -3.390"/><path d="M146.836 59.462 a2.556 1.979 56.076 0 1 0.558 -0.914"/><path d="M150.221 62.785 a2.556 1.979 56.076 0 1 -1.055 0.161"/><path d="M147.208 59.901 a1.533 1.187 56.076 1 1 1.697 2.542"/><path d="M149.396 57.192 a2.556 1.979 -123.924 0 1 2.853 4.241"/></g></g><g id="Actor_2.0"><g style="stroke:#000000;stroke-width:0.353"><path d="M202.91,37.68 L202.86,37.80 "/><path d="M172.68,38.13 L172.71,38.18 L173.09,38.68 "/><path d="M174.02,39.50 L174.90,40.11 "/><path d="M175.94,40.72 L177.16,41.26 L177.33,41.32 "/><path d="M184.75,42.94 L186.99,43.06 "/><path d="M188.16,43.09 L190.29,43.01 L190.40,43.00 "/><path d="M197.76,41.52 L199.03,40.94 "/><path d="M200.96,39.77 L200.13,40.33 "/><path d="M201.86,38.91 L202.11,38.56 L202.19,38.43 "/><path d="M199.636 131.994 a15.590 6.618 -178.915 0 1 -27.907 -0.360"/><path d="M202.643 38.454 a15.590 6.618 -178.915 0 1 -30.438 -0.306"/><path d="M171.993 37.690 a15.590 6.618 -178.915 0 1 -0.200 -1.021"/><path d="M180.270 42.225 a15.284 6.488 -178.915 0 1 -1.791 -0.498"/><path d="M183.566 42.817 a15.284 6.488 -178.915 0 1 -2.087 -0.331"/><path d="M193.648 42.610 a15.284 6.488 -178.915 0 1 -2.046 0.286"/><path d="M196.606 41.911 a15.284 6.488 -178.915 0 1 -1.741 0.457"/></g><g style="stroke:#000000;stroke-width:0.529"><path d="M170.55,104.63 L170.11,128.05 "/><path d="M171.79,36.67 L170.33,73.24 "/><path d="M171.81,131.70 L172.08,131.92 "/><path d="M199.36,132.21 L199.64,131.99 "/><path d="M201.17,129.67 L201.60,107.02 "/><path d="M202.18,76.07 L202.91,37.68 L202.90,36.99 "/><path d="M199.356 132.210 a15.284 6.488 1.085 0 1 -27.611 -0.579"/><path d="M171.729 131.634 a15.590 6.618 -178.915 0 1 -1.619 -3.583"/><path d="M201.169 129.675 a15.590 6.618 -178.915 0 1 -1.533 2.319"/></g></g><g id="Actor_8.0"><g style="stroke:#000000;stroke-width:0.353"><path d="M178.08,31.60 C177.02,31.25 177.02,31.25 175.96,30.89 C175.21,30.57 175.22,30.56 174.47,30.24 C174.34,30.20 174.34,30.20 174.21,30.17 C174.14,30.16 174.14,30.16 174.06,30.16 C173.97,30.18 173.97,30.18 173.88,30.20 "/><path d="M178.78,31.80 C179.98,32.07 179.98,32.07 181.18,32.32 C182.18,32.48 182.18,32.47 183.18,32.63 C183.37,32.68 183.37,32.68 183.56,32.73 C183.81,32.86 183.81,32.86 184.06,32.99 "/><path d="M181.48,35.48 C181.51,35.54 181.51,35.54 181.53,35.61 C181.54,35.69 181.54,35.69 181.54,35.77 C181.54,35.87 181.54,35.87 181.52,35.97 C181.50,36.06 181.50,36.06 181.47,36.16 C181.43,36.25 181.43,36.25 181.39,36.34 C181.37,36.37 181.37,36.37 181.34,36.41 C181.32,36.44 181.32,36.44 181.29,36.48 C181.24,36.52 181.24,36.52 181.19,36.56 "/><path d="M203.18,33.87 C203.22,33.83 203.22,33.83 203.27,33.80 C203.34,33.77 203.34,33.77 203.42,33.74 C203.51,33.72 203.51,33.72 203.60,33.70 C203.81,33.69 203.81,33.69 204.01,33.68 C204.11,33.66 204.11,33.66 204.20,33.64 C204.28,33.61 204.28,33.61 204.35,33.58 "/><path d="M170.10,31.10 C170.05,31.06 170.05,31.06 170.00,31.02 C169.93,30.99 169.93,30.99 169.86,30.96 C169.67,30.91 169.67,30.92 169.48,30.87 C169.41,30.84 169.41,30.84 169.33,30.80 "/><path d="M169.67,31.73 C169.73,31.77 169.73,31.77 169.79,31.81 C169.87,31.84 169.87,31.84 169.96,31.87 C170.15,31.90 170.15,31.90 170.35,31.93 C170.43,31.96 170.44,31.96 170.52,31.99 C170.58,32.02 170.58,32.02 170.63,32.06 "/><path d="M183.05,37.47 C182.97,37.50 182.97,37.50 182.89,37.52 C182.79,37.54 182.79,37.54 182.69,37.55 C182.59,37.56 182.59,37.56 182.49,37.56 "/><path d="M205.73,31.64 C205.68,31.68 205.68,31.68 205.63,31.72 C205.55,31.75 205.55,31.75 205.47,31.78 C205.28,31.82 205.28,31.81 205.09,31.85 C205.01,31.87 205.01,31.87 204.94,31.90 C204.88,31.94 204.88,31.94 204.83,31.98 "/><path d="M205.19,32.63 C205.13,32.67 205.13,32.67 205.07,32.70 C204.98,32.73 204.98,32.73 204.89,32.75 C204.79,32.77 204.79,32.77 204.69,32.78 "/><path d="M169.79,30.03 C169.73,30.00 169.73,30.00 169.67,29.96 C169.49,29.91 169.49,29.91 169.32,29.86 C169.25,29.82 169.25,29.82 169.19,29.78 "/><path d="M169.88,29.05 C169.83,29.01 169.83,29.01 169.78,28.97 C169.63,28.91 169.62,28.91 169.47,28.85 C169.41,28.81 169.41,28.81 169.36,28.77 "/><path d="M203.34,34.39 C203.28,34.43 203.28,34.43 203.22,34.46 C203.14,34.49 203.14,34.49 203.06,34.52 C202.96,34.54 202.96,34.54 202.86,34.55 C202.75,34.55 202.75,34.55 202.64,34.55 "/><path d="M171.81,33.76 C171.70,33.75 171.70,33.75 171.59,33.72 C171.51,33.69 171.51,33.69 171.43,33.66 C171.38,33.62 171.38,33.62 171.33,33.58 "/><path d="M171.54,33.07 C171.50,33.03 171.50,33.03 171.46,32.99 C171.39,32.96 171.39,32.96 171.32,32.93 C171.23,32.90 171.23,32.90 171.14,32.88 C170.94,32.86 170.93,32.86 170.73,32.84 C170.64,32.82 170.64,32.82 170.55,32.79 C170.48,32.75 170.47,32.75 170.41,32.72 "/><path d="M205.82,29.69 C205.77,29.73 205.76,29.73 205.71,29.77 C205.54,29.82 205.54,29.82 205.38,29.87 C205.32,29.91 205.32,29.91 205.27,29.94 "/><path d="M205.88,30.71 C205.82,30.75 205.82,30.75 205.75,30.78 C205.57,30.83 205.57,30.82 205.39,30.87 C205.32,30.90 205.32,30.90 205.26,30.93 "/><path d="M163.28,22.33 L191.90,30.19 "/><path d="M172.27,36.73 L172.25,38.15 "/><path d="M171.69,36.66 L171.72,34.86 "/><path d="M173.56,39.55 L173.61,37.10 "/><path d="M175.98,33.03 L178.08,31.60 "/><path d="M175.57,40.81 L175.63,37.65 "/><path d="M175.69,37.45 L175.76,33.56 "/><path d="M178.24,38.37 L178.17,41.86 "/><path d="M178.07,32.28 L178.08,31.60 "/><path d="M181.24,42.64 L181.32,38.35 "/><path d="M181.41,35.41 L181.48,35.48 "/><path d="M181.19,36.56 L181.09,36.59 "/><path d="M184.61,43.12 L184.69,38.91 "/><path d="M203.52,16.96 L203.57,14.55 L186.12,9.76 "/><path d="M187.13,39.04 L187.05,43.26 "/><path d="M188.12,43.27 L188.21,38.74 "/><path d="M190.64,38.67 L190.56,43.18 "/><path d="M193.98,38.64 L193.90,42.77 "/><path d="M195.55,29.87 L213.02,18.00 "/><path d="M196.92,42.05 L197.00,37.71 "/><path d="M199.54,37.13 L199.46,41.05 "/><path d="M201.40,39.83 L201.46,36.45 "/><path d="M202.63,38.45 L202.68,35.66 "/><path d="M203.57,14.55 L206.60,12.49 "/><path d="M175.77,37.69 L175.73,37.64 L175.70,37.56 L175.69,37.45 "/><path d="M203.14,33.96 L203.18,33.87 "/><path d="M204.35,33.58 L204.44,33.49 L204.46,33.40 "/><path d="M170.13,31.18 L170.10,31.10 "/><path d="M169.33,30.80 L169.24,30.72 L169.22,30.63 "/><path d="M169.62,31.64 L169.67,31.73 "/><path d="M170.63,32.06 L170.70,32.14 "/><path d="M205.76,31.55 L205.73,31.64 "/><path d="M204.83,31.98 L204.79,32.06 "/><path d="M205.25,32.54 L205.19,32.63 "/><path d="M169.87,30.20 L169.86,30.12 L169.79,30.03 "/><path d="M169.19,29.78 L169.12,29.69 "/><path d="M169.93,29.13 L169.88,29.05 "/><path d="M169.36,28.77 L169.32,28.68 "/><path d="M169.83,27.69 L169.84,27.78 L169.92,27.86 L169.98,27.90 "/><path d="M203.38,34.30 L203.34,34.39 "/><path d="M171.33,33.58 L171.29,33.49 "/><path d="M171.57,33.16 L171.54,33.07 "/><path d="M170.41,32.72 L170.33,32.64 L170.32,32.54 "/><path d="M205.87,29.60 L205.82,29.69 "/><path d="M205.27,29.94 L205.21,30.03 "/><path d="M205.21,28.83 L205.12,28.86 "/><path d="M205.96,30.54 L205.96,30.63 L205.88,30.71 "/><path d="M205.26,30.93 L205.18,31.01 L205.16,31.10 "/><path d="M205.21,28.83 L205.36,28.76 L205.45,28.68 L205.47,28.59 "/><path d="M181.547 35.195 a1.023 0.476 -74.632 1 1 -0.450 1.652"/><path d="M175.765 33.559 a0.408 0.190 105.367 0 1 0.220 -0.528"/><path d="M187.727 37.780 a0.655 0.278 1.085 0 1 -1.200 -0.030"/><path d="M204.118 33.077 a0.655 0.278 -178.915 0 1 0.571 -0.299"/><path d="M200.394 35.593 a0.655 0.278 -178.915 0 1 0.826 -0.267"/><path d="M192.393 37.572 a0.656 0.278 1.085 0 1 -1.167 0.103"/><path d="M185.370 37.688 a0.654 0.278 1.085 0 1 -1.184 -0.097"/><path d="M198.686 36.411 a0.654 0.278 1.085 0 1 -0.980 0.194"/><path d="M202.038 35.029 a0.654 0.278 1.085 0 1 -0.819 0.297"/><path d="M201.905 34.772 a0.654 0.278 -178.915 0 1 0.735 -0.224"/><path d="M198.662 36.232 a0.654 0.278 -178.915 0 1 0.905 -0.215"/><path d="M200.474 35.777 a0.654 0.278 1.085 0 1 -0.907 0.240"/><path d="M196.725 36.855 a0.654 0.278 -178.915 0 1 0.981 -0.250"/><path d="M194.619 37.274 a0.654 0.278 -178.915 0 1 1.054 -0.191"/><path d="M190.081 37.741 a0.654 0.278 -178.915 0 1 1.145 -0.067"/><path d="M196.725 36.855 a0.654 0.278 1.085 0 1 -1.052 0.228"/><path d="M190.081 37.741 a0.654 0.278 1.085 0 1 -1.192 0.036"/><path d="M183.048 37.468 a0.655 0.278 -178.915 0 1 1.138 0.124"/><path d="M194.620 37.274 a0.655 0.278 1.085 0 1 -1.119 0.166"/><path d="M192.391 37.571 a0.656 0.279 -178.915 0 1 1.111 -0.132"/><path d="M185.372 37.689 a0.652 0.277 -178.915 0 1 1.155 0.062"/><path d="M187.728 37.780 a0.654 0.278 -178.915 0 1 1.162 -0.004"/><path d="M163.283 22.329 a2.657 1.128 -178.915 0 1 -1.263 -0.892"/><path d="M165.379 21.096 a1.278 0.543 -178.915 0 1 2.530 0.095"/><path d="M195.550 29.875 a2.657 1.128 -178.915 0 1 -3.652 0.318"/><path d="M207.533 17.424 a1.278 0.542 1.085 0 1 2.530 0.095"/><path d="M169.417 21.195 a2.786 1.183 -178.915 1 1 -5.532 -0.209"/><path d="M201.023 18.622 a2.556 1.085 -178.915 1 1 -5.086 -0.192"/><path d="M213.405 17.323 a2.657 1.128 -178.915 0 1 -0.381 0.672"/><path d="M179.650 12.748 a2.556 1.085 -178.915 1 1 -5.086 -0.192"/><path d="M191.551 28.289 a1.278 0.542 1.085 0 1 2.529 0.095"/><path d="M195.588 28.388 a2.786 1.183 1.085 1 1 -5.532 -0.208"/><path d="M181.363 10.231 a1.278 0.542 -178.915 0 1 2.529 0.095"/><path d="M211.550 17.429 a2.787 1.183 1.085 1 1 -5.457 -0.226"/><path d="M185.401 10.330 a2.786 1.183 -178.915 1 1 -5.532 -0.208"/></g><g style="stroke:#000000;stroke-width:0.529"><path d="M171.82,32.99 C171.66,32.86 171.66,32.86 171.49,32.72 C171.12,32.28 171.11,32.29 170.74,31.84 C170.46,31.35 170.46,31.35 170.19,30.84 C170.07,30.39 170.08,30.38 169.96,29.92 C169.95,29.86 169.95,29.86 169.95,29.81 C169.98,27.64 169.98,27.65 170.02,25.48 "/><path d="M175.77,37.69 C173.91,37.18 173.91,37.18 172.04,36.66 C172.00,36.65 171.99,36.65 171.95,36.63 C171.91,36.60 171.91,36.59 171.87,36.56 C171.84,36.52 171.84,36.52 171.81,36.48 C171.79,36.43 171.79,36.43 171.77,36.38 C171.77,36.34 171.77,36.34 171.76,36.29 C171.80,34.34 171.80,34.33 171.84,32.38 C171.85,32.30 171.85,32.30 171.86,32.22 "/><path d="M171.86,32.22 C171.89,32.18 171.89,32.18 171.91,32.14 C171.94,32.11 171.94,32.11 171.97,32.08 C172.00,32.05 172.00,32.05 172.04,32.02 "/><path d="M180.53,38.88 C181.50,38.22 181.50,38.22 182.47,37.57 C182.63,37.48 182.63,37.48 182.80,37.40 C183.01,37.35 183.01,37.35 183.21,37.30 "/><path d="M205.20,24.59 C205.17,27.41 205.17,27.41 205.10,30.23 C205.01,30.75 205.00,30.75 204.88,31.26 C204.66,31.71 204.65,31.71 204.42,32.15 C204.39,32.20 204.39,32.20 204.36,32.25 C204.00,32.68 204.01,32.69 203.64,33.10 C203.13,33.55 203.13,33.55 202.60,33.97 C202.01,34.35 202.01,34.35 201.41,34.72 C200.72,35.06 200.71,35.06 200.01,35.39 C199.22,35.69 199.22,35.69 198.42,35.98 C197.54,36.24 197.54,36.24 196.66,36.48 C195.71,36.69 195.71,36.69 194.76,36.88 C193.74,37.04 193.74,37.04 192.72,37.19 C191.68,37.29 191.68,37.28 190.64,37.37 C189.58,37.42 189.58,37.42 188.52,37.45 C187.45,37.44 187.45,37.44 186.38,37.41 C185.32,37.34 185.32,37.34 184.26,37.26 C183.99,37.25 183.99,37.25 183.71,37.25 C183.46,37.27 183.46,37.27 183.21,37.30 "/><path d="M205.17,33.74 C205.11,33.78 205.11,33.78 205.05,33.81 C204.96,33.84 204.96,33.84 204.87,33.87 C204.66,33.89 204.66,33.89 204.45,33.91 "/><path d="M200.46,36.56 C200.54,36.52 200.54,36.52 200.62,36.48 C200.71,36.46 200.71,36.46 200.80,36.44 C200.90,36.43 200.90,36.43 201.00,36.42 C201.09,36.43 201.10,36.43 201.19,36.44 "/><path d="M202.62,35.66 C202.52,35.66 202.52,35.66 202.42,35.66 C202.32,35.67 202.32,35.67 202.22,35.68 C202.12,35.71 202.12,35.71 202.03,35.75 "/><path d="M205.25,32.93 C205.35,32.91 205.35,32.91 205.45,32.89 C205.53,32.86 205.53,32.86 205.61,32.83 C205.66,32.79 205.66,32.79 205.71,32.75 "/><path d="M170.14,33.01 C170.04,33.00 170.04,33.00 169.93,32.98 C169.85,32.95 169.85,32.95 169.77,32.92 C169.71,32.88 169.71,32.88 169.65,32.84 "/><path d="M171.79,34.87 C171.68,34.86 171.68,34.86 171.57,34.83 C171.49,34.80 171.49,34.80 171.41,34.77 C171.36,34.73 171.36,34.73 171.31,34.69 "/><path d="M170.39,33.83 C170.45,33.87 170.45,33.87 170.52,33.90 C170.62,33.93 170.62,33.93 170.71,33.95 C170.91,33.97 170.91,33.97 171.12,33.99 C171.20,34.01 171.20,34.01 171.28,34.03 "/><path d="M176.68,33.22 C176.65,33.25 176.65,33.25 176.62,33.29 C176.59,33.33 176.59,33.33 176.56,33.38 C176.53,33.43 176.53,33.43 176.51,33.49 C176.49,33.55 176.49,33.55 176.47,33.62 C176.47,33.68 176.47,33.68 176.46,33.74 "/><path d="M173.56,39.55 C173.76,39.52 173.76,39.52 173.95,39.50 C174.16,39.49 174.16,39.49 174.37,39.50 C174.56,39.53 174.56,39.53 174.76,39.56 C174.83,39.58 174.83,39.58 174.91,39.60 "/><path d="M205.72,31.46 C205.67,31.42 205.67,31.42 205.62,31.38 C205.46,31.32 205.46,31.32 205.31,31.26 C205.25,31.22 205.25,31.22 205.20,31.18 "/><path d="M169.27,30.54 C169.32,30.50 169.32,30.50 169.38,30.46 C169.54,30.41 169.54,30.41 169.71,30.35 C169.76,30.32 169.76,30.32 169.82,30.28 "/><path d="M169.83,29.30 C169.77,29.33 169.77,29.33 169.70,29.36 C169.52,29.41 169.52,29.40 169.34,29.45 C169.27,29.48 169.27,29.48 169.20,29.52 "/><path d="M169.36,28.59 C169.41,28.55 169.41,28.55 169.46,28.51 C169.54,28.48 169.54,28.48 169.62,28.45 C169.71,28.43 169.71,28.43 169.81,28.41 "/><path d="M205.29,30.20 C205.36,30.23 205.36,30.23 205.42,30.27 C205.59,30.32 205.60,30.32 205.77,30.37 C205.83,30.41 205.83,30.41 205.90,30.45 "/><path d="M205.75,29.43 C205.68,29.39 205.68,29.39 205.60,29.36 C205.42,29.31 205.42,29.32 205.23,29.27 C205.17,29.25 205.17,29.25 205.12,29.23 "/><path d="M162.01,21.34 L161.99,22.63 "/><path d="M162.40,20.76 L174.60,12.47 "/><path d="M163.26,23.62 L191.87,31.49 "/><path d="M163.88,21.01 L163.88,20.99 "/><path d="M169.20,31.74 L169.22,30.63 "/><path d="M169.10,30.80 L169.12,29.69 "/><path d="M170.32,32.54 L170.30,33.65 "/><path d="M169.60,32.75 L169.62,31.64 "/><path d="M169.31,29.46 L169.33,28.68 "/><path d="M169.83,27.69 L169.82,28.41 "/><path d="M169.42,21.20 L169.42,21.22 "/><path d="M171.27,34.60 L171.29,33.49 "/><path d="M172.01,36.65 L171.99,37.70 L172.25,38.15 "/><path d="M172.01,36.68 L171.69,36.66 L171.67,36.21 L171.70,34.86 "/><path d="M172.04,32.02 L173.92,30.74 "/><path d="M173.56,39.55 L173.08,39.14 L173.13,36.96 "/><path d="M173.92,30.74 L174.04,30.62 L174.07,30.47 "/><path d="M173.97,30.28 L174.03,30.17 "/><path d="M174.04,30.62 L174.09,30.58 "/><path d="M174.47,16.39 L174.54,12.69 "/><path d="M175.57,40.81 L174.89,40.45 L174.95,37.46 "/><path d="M175.47,11.88 L179.88,8.88 "/><path d="M175.90,37.67 L176.39,37.34 "/><path d="M176.39,37.64 L176.46,33.74 "/><path d="M176.47,37.88 L180.20,38.91 L180.37,38.93 L180.53,38.88 "/><path d="M176.68,33.22 L178.78,31.80 "/><path d="M178.17,41.86 L177.33,41.56 L177.39,38.14 "/><path d="M179.58,16.49 L179.65,12.79 "/><path d="M179.86,10.12 L179.86,10.15 "/><path d="M180.33,38.93 L180.27,42.43 L181.24,42.64 "/><path d="M181.09,36.59 L181.04,36.57 "/><path d="M181.41,35.41 L181.36,35.40 "/><path d="M183.65,38.49 L183.56,43.01 L184.61,43.12 "/><path d="M183.53,8.57 L186.62,9.42 "/><path d="M185.40,10.36 L185.40,10.33 "/><path d="M186.07,12.17 L203.52,16.96 L206.56,14.90 L206.60,12.49 L189.16,7.69 L186.12,9.76 L186.07,12.17 "/><path d="M187.05,43.26 L188.12,43.27 "/><path d="M190.56,43.18 L191.60,43.09 L191.68,38.90 "/><path d="M190.05,28.18 L190.05,28.21 "/><path d="M193.90,42.77 L194.86,42.58 L194.95,38.16 "/><path d="M195.53,31.17 L213.00,19.29 "/><path d="M195.84,22.27 L195.91,18.57 "/><path d="M197.83,37.74 L197.75,41.77 L196.92,42.05 "/><path d="M198.66,36.23 L198.69,36.41 L198.67,37.52 "/><path d="M199.46,41.05 L200.12,40.70 L200.19,37.10 "/><path d="M200.45,36.89 L200.47,35.77 L200.39,35.59 "/><path d="M201.40,39.83 L201.85,39.43 L201.91,36.34 "/><path d="M202.02,36.14 L202.04,35.03 L201.97,34.94 "/><path d="M200.95,22.37 L201.02,18.66 "/><path d="M202.63,38.45 L202.86,38.01 L202.90,35.65 "/><path d="M202.87,36.99 L203.10,36.98 L203.12,35.61 "/><path d="M203.38,34.30 L203.36,35.40 "/><path d="M204.44,34.52 L204.46,33.40 "/><path d="M205.23,33.65 L205.25,32.54 "/><path d="M205.74,32.66 L205.76,31.55 "/><path d="M205.94,31.65 L205.96,30.54 "/><path d="M205.85,30.42 L205.87,29.60 "/><path d="M205.45,29.32 L205.47,28.59 "/><path d="M206.56,14.90 L212.14,16.43 "/><path d="M213.39,18.72 L213.41,17.42 "/><path d="M205.23,33.65 L205.17,33.74 "/><path d="M205.76,31.88 L205.86,31.82 L205.94,31.74 L205.94,31.65 "/><path d="M203.80,34.80 L203.58,34.81 L203.37,34.86 "/><path d="M205.71,32.75 L205.74,32.66 "/><path d="M205.25,32.93 L205.25,32.93 "/><path d="M169.10,30.80 L169.17,30.89 L169.21,30.93 "/><path d="M200.95,39.77 L201.40,39.83 "/><path d="M178.17,41.86 L178.46,41.73 L178.54,41.71 "/><path d="M190.55,43.18 L190.40,43.00 "/><path d="M201.87,38.46 L202.16,38.43 "/><path d="M202.19,38.43 L202.63,38.45 "/><path d="M193.90,42.77 L193.68,42.61 L193.63,42.59 "/><path d="M199.46,41.05 L199.11,40.95 L199.02,40.94 "/><path d="M175.57,40.81 L175.92,40.72 L176.01,40.70 "/><path d="M181.53,38.20 L181.71,38.26 L181.82,38.33 L181.88,38.42 "/><path d="M169.20,31.74 L169.22,31.83 L169.31,31.91 L169.46,31.98 L169.61,32.02 "/><path d="M169.65,32.84 L169.60,32.75 "/><path d="M171.31,34.69 L171.27,34.60 "/><path d="M170.14,33.01 L170.31,33.04 "/><path d="M170.30,33.65 L170.31,33.74 L170.39,33.83 "/><path d="M176.39,37.64 L176.40,37.75 L176.42,37.83 L176.47,37.88 "/><path d="M196.54,41.89 L196.63,41.92 L196.92,42.05 "/><path d="M175.77,37.69 L175.83,37.70 L175.90,37.67 "/><path d="M184.61,43.12 L184.75,42.94 "/><path d="M186.99,43.06 L187.01,43.08 L187.05,43.26 "/><path d="M181.24,42.64 L181.45,42.49 L181.50,42.47 "/><path d="M172.25,38.15 L172.69,38.13 L173.10,38.18 "/><path d="M204.46,33.40 L204.40,33.31 L204.17,33.16 L204.12,33.08 "/><path d="M203.38,34.30 L203.36,34.21 L203.17,34.04 L203.14,33.96 "/><path d="M169.62,31.64 L169.64,31.55 L169.73,31.47 L170.02,31.34 L170.11,31.27 L170.13,31.18 "/><path d="M170.70,32.14 L170.69,32.23 L170.63,32.31 L170.38,32.45 L170.32,32.54 "/><path d="M205.25,32.54 L205.24,32.45 L205.16,32.37 L204.89,32.23 L204.81,32.15 L204.79,32.06 "/><path d="M205.76,31.55 L205.72,31.46 "/><path d="M205.20,31.18 L205.16,31.10 "/><path d="M201.97,34.94 L201.91,34.86 L201.90,34.77 "/><path d="M169.22,30.63 L169.27,30.54 "/><path d="M169.82,30.28 L169.87,30.20 "/><path d="M169.93,29.13 L169.91,29.22 L169.83,29.30 "/><path d="M169.20,29.52 L169.13,29.60 L169.12,29.69 "/><path d="M169.83,27.69 L169.89,27.60 L169.98,27.54 "/><path d="M169.32,28.68 L169.36,28.59 "/><path d="M169.81,28.41 L169.97,28.39 "/><path d="M171.57,33.16 L171.53,33.24 L171.33,33.40 L171.29,33.49 "/><path d="M205.21,30.03 L205.22,30.11 L205.29,30.20 "/><path d="M205.90,30.45 L205.96,30.54 "/><path d="M205.87,29.60 L205.84,29.51 L205.75,29.43 "/><path d="M205.47,28.59 L205.42,28.50 L205.30,28.42 L205.13,28.36 "/><path d="M196.704 37.965 a0.654 0.278 -178.915 0 1 -1.052 0.228"/><path d="M194.598 38.385 a0.654 0.278 1.085 0 1 1.054 -0.191"/><path d="M203.362 35.397 a0.655 0.278 -178.915 0 1 -0.743 0.262"/><path d="M196.704 37.965 a0.654 0.278 1.085 0 1 0.981 -0.250"/><path d="M198.670 37.284 a0.654 0.278 1.085 0 1 0.876 -0.157"/><path d="M198.665 37.521 a0.654 0.278 -178.915 0 1 -0.980 0.194"/><path d="M204.435 34.515 a0.654 0.278 -178.915 0 1 -0.638 0.289"/><path d="M202.018 36.141 a0.654 0.278 -178.915 0 1 -0.824 0.295"/><path d="M200.453 36.887 a0.654 0.278 -178.915 0 1 -0.907 0.240"/><path d="M200.136 39.831 a1.227 0.521 1.085 0 1 0.817 -0.066"/><path d="M178.538 41.712 a1.227 0.521 1.085 0 1 1.738 0.221"/><path d="M188.123 43.271 a1.227 0.521 1.085 0 1 2.278 -0.274"/><path d="M191.604 42.763 a1.227 0.521 -178.915 0 1 2.022 -0.174"/><path d="M197.764 41.048 a1.227 0.521 -178.915 0 1 1.261 -0.110"/><path d="M176.006 40.705 a1.227 0.521 1.085 0 1 1.334 0.169"/><path d="M183.029 38.577 a0.654 0.278 -178.915 0 1 -1.151 -0.160"/><path d="M185.349 38.799 a0.654 0.278 -178.915 0 1 -1.184 -0.097"/><path d="M187.707 38.891 a0.654 0.278 1.085 0 1 1.162 -0.004"/><path d="M190.060 38.851 a0.654 0.278 -178.915 0 1 -1.192 0.036"/><path d="M185.346 38.798 a0.660 0.280 1.085 0 1 1.162 0.063"/><path d="M187.706 38.891 a0.655 0.278 -178.915 0 1 -1.200 -0.030"/><path d="M183.029 38.577 a0.655 0.278 1.085 0 1 1.136 0.125"/><path d="M192.370 38.682 a0.654 0.278 1.085 0 1 1.109 -0.131"/><path d="M190.060 38.851 a0.655 0.278 1.085 0 1 1.145 -0.067"/><path d="M192.371 38.682 a0.655 0.278 -178.915 0 1 -1.166 0.103"/><path d="M194.599 38.385 a0.654 0.278 -178.915 0 1 -1.118 0.166"/><path d="M181.097 36.847 a1.023 0.476 -74.632 0 1 0.450 -1.652"/><path d="M194.872 42.042 a1.227 0.521 -178.915 0 1 1.673 -0.149"/><path d="M184.754 42.941 a1.227 0.521 1.085 0 1 2.242 0.130"/><path d="M181.469 42.482 a1.227 0.521 1.085 0 1 2.099 0.241"/><path d="M163.258 23.624 a2.657 1.128 1.085 0 1 -1.272 -0.992"/><path d="M195.525 31.171 a2.657 1.128 1.085 0 1 -3.652 0.318"/><path d="M179.581 16.491 a2.556 1.085 1.085 1 1 -5.111 -0.097"/><path d="M162.019 21.437 a2.657 1.128 -178.915 0 1 0.381 -0.672"/><path d="M167.909 21.192 a1.278 0.543 -178.915 1 1 -2.530 -0.095"/><path d="M165.379 21.096 a1.278 0.543 -178.915 0 1 2.530 0.095"/><path d="M179.875 8.885 a2.657 1.128 -178.915 0 1 3.651 -0.318"/><path d="M210.063 17.519 a1.278 0.542 1.085 1 1 -2.530 -0.095"/><path d="M207.533 17.424 a1.278 0.542 1.085 0 1 2.530 0.095"/><path d="M169.417 21.195 a2.786 1.183 -178.915 1 1 -5.532 -0.209"/><path d="M163.885 20.987 a2.786 1.183 -178.915 0 1 5.532 0.209"/><path d="M195.937 18.430 a2.556 1.085 -178.915 0 1 5.086 0.192"/><path d="M200.954 22.365 a2.556 1.085 -178.915 0 1 -5.110 -0.097"/><path d="M212.142 16.431 a2.657 1.128 -178.915 0 1 1.263 0.892"/><path d="M174.564 12.556 a2.556 1.085 -178.915 0 1 5.086 0.192"/><path d="M213.389 18.718 a2.657 1.128 1.085 0 1 -0.389 0.573"/><path d="M194.080 28.384 a1.278 0.542 1.085 1 1 -2.529 -0.095"/><path d="M191.551 28.289 a1.278 0.542 1.085 0 1 2.529 0.095"/><ellipse rx="2.79" ry="1.18" transform="translate(192.807 28.408) rotate(1.085)"/><path d="M183.892 10.326 a1.278 0.542 -178.915 1 1 -2.529 -0.095"/><path d="M181.363 10.231 a1.278 0.542 -178.915 0 1 2.529 0.095"/><ellipse rx="2.79" ry="1.18" transform="translate(208.789 17.543) rotate(1.085)"/><path d="M179.869 10.121 a2.786 1.183 -178.915 0 1 5.532 0.208"/><path d="M185.401 10.330 a2.786 1.183 -178.915 1 1 -5.532 -0.208"/></g></g><g id="Actor_10.0"><g style="stroke:#000000;stroke-width:0.353"><path d="M143.89,90.98 L143.86,92.34 L144.96,93.34 L146.09,92.96 "/><path d="M143.86,92.34 L144.55,91.87 L144.57,90.75 "/><path d="M144.96,93.34 L145.66,92.86 L146.10,92.72 "/><path d="M145.92,91.41 L145.10,92.37 L145.66,92.86 "/><path d="M145.10,92.37 L144.55,91.87 "/><path d="M145.21,92.46 L145.94,91.43 "/><path d="M146.098 92.707 a1.309 1.016 55.791 0 1 -1.415 -1.997"/></g><g style="stroke:#000000;stroke-width:0.529"><path d="M144.35,89.01 C143.85,89.35 143.85,89.35 143.34,89.70 C143.33,89.71 143.33,89.71 143.32,89.72 C143.12,89.98 143.12,89.98 142.91,90.24 "/><path d="M142.68,90.92 C142.66,91.30 142.66,91.30 142.67,91.68 C142.75,92.06 142.76,92.07 142.86,92.45 C143.05,92.82 143.05,92.82 143.25,93.18 C143.51,93.49 143.52,93.50 143.79,93.80 C144.11,94.03 144.12,94.04 144.45,94.26 C144.79,94.39 144.80,94.38 145.15,94.51 C145.16,94.51 145.16,94.51 145.18,94.51 C145.52,94.52 145.52,94.52 145.87,94.53 "/><path d="M142.91,90.24 L142.69,90.90 L142.68,90.92 "/><path d="M145.87,94.53 L146.50,94.32 L146.53,94.31 L147.52,93.62 "/><path d="M143.89,90.98 L145.02,90.60 L146.12,91.59 L146.09,92.96 "/></g></g><g id="Actor_7.0"><g style="stroke:#000000;stroke-width:0.353"><path d="M211.97,106.80 C198.38,106.44 198.38,106.44 184.79,106.09 C183.44,106.05 183.44,106.05 182.10,106.00 C180.75,105.92 180.75,105.93 179.41,105.84 C178.15,105.71 178.15,105.71 176.90,105.56 C175.61,105.35 175.61,105.35 174.33,105.12 C173.13,104.86 173.13,104.86 171.94,104.58 C170.75,104.27 170.75,104.27 169.56,103.95 C153.81,99.62 153.81,99.62 138.05,95.29 "/><path d="M212.38,85.51 C198.78,85.16 198.78,85.16 185.19,84.80 C183.85,84.76 183.85,84.76 182.50,84.72 C181.16,84.64 181.16,84.64 179.81,84.55 C178.55,84.42 178.55,84.42 177.30,84.27 C176.02,84.06 176.01,84.06 174.73,83.84 C173.54,83.57 173.54,83.57 172.34,83.29 C171.15,82.98 171.15,82.98 169.97,82.66 C154.21,78.33 154.21,78.33 138.45,74.00 "/><path d="M139.88,72.95 C155.20,77.17 155.20,77.17 170.52,81.37 C171.54,81.65 171.54,81.65 172.57,81.92 C173.33,82.11 173.33,82.11 174.11,82.30 C174.83,82.45 174.83,82.45 175.55,82.60 C176.24,82.72 176.24,82.72 176.93,82.84 C177.68,82.94 177.68,82.94 178.42,83.04 C179.17,83.12 179.17,83.12 179.91,83.19 C180.70,83.25 180.70,83.25 181.50,83.30 C182.37,83.35 182.37,83.35 183.24,83.38 C197.53,83.76 197.53,83.76 211.83,84.14 "/><path d="M200.21,99.52 C199.51,99.37 199.50,99.37 198.81,99.18 C198.18,98.84 198.17,98.84 197.55,98.47 C197.08,98.00 197.08,97.99 196.63,97.49 C196.47,97.22 196.48,97.21 196.34,96.93 C196.24,96.64 196.24,96.64 196.16,96.34 C196.13,96.04 196.13,96.04 196.11,95.73 C196.14,95.43 196.14,95.43 196.18,95.13 C196.27,94.84 196.28,94.84 196.38,94.55 C196.53,94.28 196.53,94.27 196.70,94.00 C197.16,93.53 197.17,93.53 197.65,93.07 "/><path d="M203.35,99.02 C202.64,99.27 202.64,99.27 201.92,99.48 C201.15,99.53 201.14,99.51 200.37,99.54 C200.31,99.53 200.31,99.53 200.26,99.53 "/><path d="M200.26,99.53 C199.73,99.25 199.73,99.25 199.22,98.94 C198.74,98.49 198.73,98.49 198.28,98.01 C197.92,97.45 197.92,97.44 197.60,96.86 C197.41,96.24 197.40,96.24 197.24,95.61 C197.24,95.00 197.24,95.00 197.27,94.39 "/><path d="M211.39,107.27 L211.97,106.80 "/><path d="M215.27,104.56 L211.97,106.80 L212.38,85.51 "/><path d="M211.83,84.14 L212.38,85.51 L215.67,83.27 "/><path d="M159.76,59.52 L170.76,62.54 "/><path d="M161.19,58.47 L170.82,61.11 "/><path d="M197.27,94.39 L197.66,93.34 L198.14,92.83 "/><path d="M200.26,99.53 L200.21,99.54 "/><path d="M200.35,92.14 L200.40,92.16 "/><path d="M215.29,103.04 L216.86,103.47 L217.27,82.18 L200.47,77.57 "/><path d="M220.01,78.57 L216.94,80.66 L201.80,76.50 L200.49,77.57 "/><path d="M211.83,84.14 L214.28,82.47 "/><path d="M220.16,101.23 L216.86,103.47 L216.51,103.79 "/><path d="M220.56,79.95 L217.27,82.18 L216.94,80.66 "/><path d="M164.78,65.53 L164.82,65.39 L165.08,64.97 L165.47,64.70 "/><path d="M203.77,98.19 L204.65,98.06 "/><path d="M144.03,89.00 L143.92,89.30 "/><path d="M147.00,93.98 L147.38,93.99 "/><path d="M144.13,78.01 L144.25,77.71 "/><path d="M147.22,82.69 L147.60,82.69 "/><path d="M172.642 76.954 a16.357 6.944 -178.915 0 1 -1.509 -5.730"/><path d="M202.266 71.743 a16.357 6.944 -178.915 0 1 -0.462 4.753"/><ellipse rx="3.32" ry="2.58" transform="translate(144.790 92.103) rotate(-124.208)"/><path d="M146.293 95.048 a3.323 2.580 -124.208 0 1 -3.382 -5.685"/><ellipse rx="3.32" ry="2.58" transform="translate(145.003 80.812) rotate(55.791)"/><path d="M146.507 83.756 a3.323 2.580 55.791 0 1 -3.382 -5.685"/></g><g style="stroke:#000000;stroke-width:0.529"><path d="M211.39,107.27 C198.09,106.93 198.09,106.93 184.80,106.58 C183.61,106.54 183.61,106.55 182.41,106.51 C181.54,106.47 181.54,106.47 180.68,106.42 C179.89,106.36 179.89,106.36 179.11,106.30 C178.39,106.22 178.39,106.22 177.67,106.14 C176.92,106.04 176.92,106.04 176.18,105.93 C175.47,105.80 175.47,105.80 174.77,105.67 C174.04,105.51 174.04,105.51 173.32,105.35 C172.56,105.17 172.56,105.17 171.79,104.97 C155.62,100.54 155.60,100.57 139.44,96.09 C138.73,95.73 138.72,95.72 138.05,95.29 "/><path d="M200.35,92.17 C200.43,92.16 200.43,92.16 200.51,92.16 C201.28,92.23 201.29,92.21 202.05,92.30 C202.76,92.54 202.77,92.55 203.47,92.82 C203.87,93.11 203.87,93.11 204.25,93.42 "/><path d="M202.38,65.50 C202.89,65.72 202.89,65.72 203.40,65.95 C203.93,66.23 203.93,66.23 204.45,66.51 C204.93,66.79 204.93,66.79 205.40,67.08 C205.87,67.40 205.87,67.40 206.33,67.72 C206.95,68.20 206.95,68.20 207.56,68.68 C213.79,73.62 213.79,73.62 220.01,78.57 "/><path d="M199.14,78.31 L214.28,82.47 L215.67,83.27 L215.27,104.56 L213.84,105.60 L211.39,107.27 "/><path d="M138.05,95.29 L138.45,74.00 L139.88,72.95 L144.14,70.06 L157.22,73.65 L170.68,64.50 "/><path d="M171.00,56.59 L165.98,55.21 L161.19,58.47 L159.76,59.52 L159.53,72.09 "/><path d="M200.35,92.14 L200.35,92.17 L198.94,92.44 L197.65,93.07 "/><path d="M200.21,99.54 L200.21,99.52 "/><path d="M220.01,78.57 L220.56,79.95 L220.16,101.23 L218.96,102.13 L216.51,103.79 L215.29,103.46 "/><path d="M204.79,98.04 L203.35,99.02 "/><path d="M199.140 78.307 a16.357 6.944 -178.915 0 1 -26.498 -1.353"/><path d="M204.252 93.419 a3.567 3.229 -176.530 0 1 0.399 4.638"/><path d="M200.242 99.532 a4.089 3.175 -124.208 0 1 -2.250 -6.628"/><path d="M165.467 64.705 a1.840 1.429 -124.208 0 1 2.378 1.728"/><path d="M142.912 89.363 a3.323 2.580 -124.208 1 1 3.382 5.685"/><path d="M143.125 78.071 a3.323 2.580 55.791 1 1 3.382 5.685"/></g></g><g id="Actor_11.0"><g style="stroke:#000000;stroke-width:0.353"><path d="M202.00,97.25 L200.51,97.31 L199.41,95.87 L199.79,94.37 "/><path d="M199.41,95.87 L200.47,95.15 L200.68,94.34 "/><path d="M200.51,97.31 L201.57,96.58 L202.18,96.56 "/><path d="M201.57,96.58 L200.47,95.15 "/><path d="M201.59,96.36 L202.11,95.38 "/><path d="M201.19,96.06 L201.99,95.23 "/><path d="M202.181 96.550 a1.570 1.219 -124.208 0 1 -1.497 -2.213"/></g><g style="stroke:#000000;stroke-width:0.529"><path d="M205.02,97.33 C204.03,98.02 204.03,98.02 203.03,98.69 C202.69,98.85 202.68,98.85 202.34,99.00 C202.32,99.01 202.32,99.01 202.30,99.02 C201.91,99.05 201.90,99.07 201.51,99.09 C201.08,99.01 201.08,99.01 200.66,98.91 C200.25,98.72 200.25,98.72 199.86,98.51 C199.49,98.21 199.49,98.21 199.14,97.90 C198.83,97.53 198.83,97.53 198.55,97.14 C198.34,96.71 198.33,96.71 198.14,96.27 C198.03,95.83 198.03,95.82 197.94,95.37 C197.94,94.94 197.95,94.94 197.96,94.50 C197.96,94.49 197.96,94.49 197.97,94.47 C198.09,94.08 198.09,94.08 198.21,93.69 "/><path d="M198.21,93.69 C198.44,93.37 198.44,93.37 198.66,93.06 C198.67,93.04 198.67,93.04 198.69,93.03 C199.00,92.81 199.00,92.81 199.31,92.60 C199.55,92.43 199.55,92.43 199.80,92.27 "/><path d="M205.34,97.00 L205.02,97.33 "/><path d="M199.79,94.37 L201.29,94.31 L202.39,95.75 L202.00,97.25 "/></g></g><g id="Actor_9.2"><g style="stroke:#000000;stroke-width:0.353"><path d="M139.56,56.76 C139.55,56.85 139.55,56.85 139.54,56.95 C139.48,57.16 139.48,57.16 139.42,57.36 C139.39,57.45 139.39,57.45 139.35,57.53 "/><path d="M139.35,57.57 L139.57,57.22 L140.70,57.53 L140.01,58.68 "/><path d="M139.57,57.22 L139.58,56.74 "/><path d="M139.54,56.95 L139.46,56.94 "/><path d="M140.70,57.53 L140.73,56.16 L140.04,55.98 "/><path d="M140.73,56.16 L140.06,55.94 "/><path d="M123.083 52.412 a1.533 0.714 -74.632 0 1 0.579 -0.926"/></g><g style="stroke:#000000;stroke-width:0.529"><path d="M138.86,59.90 C138.99,59.94 138.99,59.94 139.13,59.98 C139.15,59.98 139.15,59.98 139.17,59.98 C139.37,59.98 139.37,59.98 139.57,59.98 C139.59,59.98 139.59,59.98 139.61,59.97 C139.82,59.85 139.82,59.85 140.04,59.74 C140.05,59.72 140.05,59.72 140.07,59.71 C140.28,59.49 140.28,59.49 140.49,59.27 C140.68,58.96 140.68,58.96 140.86,58.64 C141.02,58.28 141.02,58.27 141.16,57.90 C141.27,57.51 141.27,57.51 141.36,57.11 C141.41,56.72 141.41,56.72 141.44,56.33 C141.42,55.99 141.42,55.99 141.39,55.64 C141.31,55.37 141.30,55.37 141.22,55.10 C141.21,55.08 141.21,55.08 141.20,55.06 C141.06,54.89 141.06,54.89 140.92,54.71 C140.90,54.70 140.90,54.70 140.89,54.68 "/><path d="M124.49,51.46 L124.16,51.37 "/><path d="M123.44,51.65 L123.66,51.49 "/><path d="M140.89,54.68 L140.85,54.67 L140.48,54.54 L138.26,53.92 "/><path d="M140.01,58.68 L139.34,58.46 L139.36,57.09 L140.06,55.94 "/><path d="M123.66,51.49 L123.92,51.35 L124.16,51.37 "/><path d="M136.787 54.786 a2.811 1.309 105.367 0 1 1.469 -0.868"/><path d="M122.921 52.522 a1.247 0.581 105.367 0 1 0.523 -0.868"/></g></g><g id="Actor_10.1"><g style="stroke:#000000;stroke-width:0.353"><path d="M144.10,79.69 L144.07,81.05 L145.18,82.04 L145.87,81.57 L146.31,81.43 "/><path d="M144.07,81.05 L144.77,80.58 L144.79,79.46 "/><path d="M145.18,82.04 L146.31,81.67 "/><path d="M145.87,81.57 L144.77,80.58 "/><path d="M145.32,81.08 L146.13,80.12 "/><path d="M146.15,80.14 L145.43,81.17 "/><path d="M146.312 81.416 a1.309 1.016 55.791 0 1 -1.415 -1.997"/></g><g style="stroke:#000000;stroke-width:0.529"><path d="M147.73,82.33 C147.24,82.68 147.24,82.68 146.74,83.02 C146.73,83.03 146.73,83.03 146.71,83.03 C146.40,83.14 146.40,83.14 146.09,83.24 "/><path d="M145.37,83.21 C145.01,83.10 145.01,83.10 144.66,82.96 C144.33,82.75 144.33,82.74 144.01,82.51 C143.73,82.21 143.73,82.20 143.46,81.89 C143.26,81.53 143.26,81.53 143.08,81.16 C142.97,80.78 142.97,80.77 142.88,80.38 C142.88,80.01 142.89,80.01 142.90,79.63 C142.90,79.62 142.90,79.62 142.90,79.61 C143.01,79.28 143.01,79.28 143.12,78.95 "/><path d="M146.09,83.24 L145.39,83.22 L145.37,83.21 "/><path d="M143.12,78.95 L143.54,78.43 L143.56,78.41 L144.57,77.71 "/><path d="M144.10,79.69 L145.23,79.31 L146.32,80.28 L146.33,80.30 L146.31,81.67 "/></g></g><g id="Actor_9.3"><g style="stroke:#000000;stroke-width:0.353"><path d="M128.38,64.36 C128.36,64.46 128.36,64.46 128.35,64.55 C128.29,64.76 128.29,64.76 128.23,64.97 C128.20,65.05 128.20,65.05 128.17,65.14 "/><path d="M128.82,66.29 L129.51,65.14 L128.38,64.83 L128.39,64.35 "/><path d="M128.38,64.83 L128.17,65.18 "/><path d="M128.35,64.55 L128.27,64.54 "/><path d="M129.51,65.14 L129.54,63.77 L128.85,63.58 "/><path d="M129.54,63.77 L128.87,63.55 "/><path d="M111.799 61.568 a1.533 0.714 -74.632 0 1 0.675 -2.477"/></g><g style="stroke:#000000;stroke-width:0.529"><path d="M127.07,61.52 C128.18,61.83 128.18,61.83 129.29,62.15 C129.48,62.21 129.48,62.21 129.66,62.27 C129.68,62.28 129.68,62.28 129.70,62.29 "/><path d="M129.73,62.32 C129.87,62.49 129.87,62.49 130.02,62.67 C130.02,62.69 130.02,62.69 130.03,62.71 C130.12,62.98 130.12,62.98 130.20,63.25 C130.23,63.59 130.23,63.59 130.25,63.94 C130.22,64.33 130.22,64.33 130.17,64.71 C130.08,65.11 130.08,65.11 129.98,65.51 C129.83,65.88 129.83,65.88 129.68,66.25 C129.49,66.56 129.49,66.56 129.30,66.87 C129.09,67.10 129.09,67.10 128.88,67.32 C128.87,67.33 128.87,67.33 128.85,67.34 C128.64,67.46 128.64,67.46 128.42,67.58 C128.40,67.58 128.40,67.58 128.38,67.59 C128.18,67.59 128.18,67.59 127.98,67.59 C127.96,67.59 127.96,67.59 127.94,67.58 C127.81,67.55 127.81,67.55 127.67,67.51 "/><path d="M114.24,62.49 L112.17,61.92 "/><path d="M111.80,61.57 L111.69,61.30 "/><path d="M112.47,59.09 L112.26,59.26 "/><path d="M114.30,59.34 L112.97,58.97 "/><path d="M129.70,62.29 L129.73,62.32 "/><path d="M128.82,66.29 L128.15,66.07 L128.18,64.70 L128.87,63.55 "/><path d="M111.80,61.57 L111.95,61.82 L112.17,61.92 "/><path d="M112.97,58.97 L112.74,58.95 L112.47,59.09 "/><path d="M125.600 62.391 a2.811 1.309 105.367 0 1 1.470 -0.868"/><path d="M111.694 61.304 a1.247 0.581 105.367 0 1 0.562 -2.045"/></g></g><g id="Actor_5.0"><g style="stroke:#000000;stroke-width:0.353"><path d="M176.09,201.59 C176.79,201.99 176.79,201.99 177.49,202.36 C178.37,202.68 178.37,202.68 179.26,202.98 C180.28,203.20 180.28,203.20 181.30,203.41 C182.40,203.53 182.40,203.53 183.50,203.63 C184.62,203.64 184.62,203.64 185.74,203.63 C186.83,203.54 186.83,203.53 187.91,203.42 C188.41,203.32 188.41,203.31 188.90,203.20 C189.39,203.10 189.39,203.10 189.88,202.99 C190.72,202.69 190.72,202.70 191.55,202.38 C192.20,202.01 192.20,202.01 192.83,201.62 "/><path d="M196.915 181.286 a12.268 5.208 -178.915 0 1 -24.528 -0.551"/><path d="M191.867 181.993 a10.453 4.437 -178.915 0 1 -14.443 -0.265"/><path d="M196.105 181.440 a11.476 4.871 1.085 0 1 -22.914 -0.420"/><path d="M194.528 181.318 a11.476 4.871 1.085 0 1 -19.753 -0.372"/></g><g style="stroke:#000000;stroke-width:0.529"><path d="M172.59,180.00 L172.39,180.65 L172.29,185.92 "/><path d="M173.19,181.02 L173.21,180.31 "/><path d="M176.48,201.91 L176.09,201.59 L175.14,200.72 L174.67,199.78 L174.83,189.45 "/><path d="M194.12,189.85 L193.97,199.80 L193.65,200.74 L192.83,201.62 L192.39,201.96 "/><path d="M196.11,181.44 L196.12,180.74 "/><path d="M196.76,180.45 L196.91,181.29 L196.82,186.38 "/><path d="M192.391 201.955 a9.211 3.910 1.085 0 1 -15.916 -0.043"/><path d="M194.460 189.372 a10.223 4.340 -178.915 0 1 -19.927 -0.380"/><path d="M185.128 182.603 a11.476 4.871 -178.915 0 1 -1.008 -0.019"/><path d="M196.820 186.382 a12.268 5.208 1.085 0 1 -24.531 -0.464"/></g></g><g id="Actor_1.0"><g style="stroke:#000000;stroke-width:0.353"><path d="M200.57,176.49 L200.57,176.49 "/><path d="M200.217 153.064 a15.079 6.401 -178.915 0 1 -30.042 -1.567"/><path d="M201.016 152.890 a15.846 6.727 1.085 0 1 -31.654 -0.621"/></g><g style="stroke:#000000;stroke-width:0.529"><path d="M169.35,151.98 L168.91,175.58 "/><path d="M170.17,151.50 L170.58,130.33 "/><path d="M201.04,152.58 L200.59,176.18 "/><path d="M200.22,153.06 L200.64,130.90 "/><path d="M200.592 176.177 a15.846 6.727 1.085 0 1 -31.686 -0.600"/><path d="M169.362 152.268 a15.846 6.727 1.085 0 1 0.843 -2.402"/><path d="M200.267 150.435 a15.846 6.727 1.085 0 1 0.749 2.454"/></g></g><g id="Actor_10.2"><g style="stroke:#000000;stroke-width:0.353"><path d="M163.438 69.429 a1.247 0.968 55.791 1 1 1.037 -0.705"/><path d="M162.879 66.830 a1.533 1.191 -124.208 0 1 2.001 1.619"/></g><g style="stroke:#000000;stroke-width:0.529"><path d="M162.88,66.83 L166.10,64.62 "/><path d="M163.333 69.500 a1.533 1.191 -124.208 0 1 -0.455 -2.670"/></g></g><g id="Actor_6.0"><g style="stroke:#000000;stroke-width:0.353"><path d="M129.32,61.74 C129.40,61.79 129.40,61.79 129.48,61.84 C130.02,62.26 130.02,62.25 130.56,62.68 C130.70,62.81 130.70,62.81 130.83,62.94 "/><path d="M130.83,62.94 C130.88,63.39 130.88,63.39 130.90,63.84 C130.85,64.39 130.85,64.39 130.78,64.94 C130.63,65.50 130.63,65.50 130.46,66.05 C130.23,66.54 130.23,66.54 129.99,67.03 C129.83,67.24 129.83,67.23 129.67,67.44 C129.54,67.60 129.54,67.60 129.42,67.77 "/><path d="M130.16,81.60 C130.32,81.94 130.32,81.95 130.45,82.30 C130.50,82.77 130.50,82.78 130.54,83.25 C130.49,83.76 130.49,83.77 130.43,84.27 "/><path d="M140.60,60.16 C140.90,59.80 140.90,59.80 141.17,59.42 C141.42,58.94 141.42,58.94 141.65,58.44 C141.81,57.89 141.81,57.89 141.96,57.34 C142.04,56.79 142.04,56.79 142.09,56.24 C142.06,55.79 142.06,55.79 142.02,55.34 "/><path d="M140.50,54.13 C140.59,54.18 140.59,54.18 140.67,54.23 C141.21,54.65 141.21,54.65 141.75,55.07 C141.88,55.20 141.89,55.20 142.02,55.34 "/><path d="M114.64,87.23 L114.15,86.64 L114.66,59.36 L114.32,58.37 L115.19,58.03 L114.66,59.36 L126.01,65.24 L126.30,63.79 L126.87,63.40 "/><path d="M113.79,86.44 L114.15,86.64 L125.60,86.91 L125.85,87.49 L127.02,86.59 L127.42,65.30 L126.01,65.24 L125.60,86.91 L127.02,86.59 L127.15,86.50 "/><path d="M127.55,65.22 L127.42,65.30 L126.30,63.79 L115.19,58.03 L130.10,47.90 "/><path d="M121.61,79.39 L121.74,79.29 "/><path d="M125.39,62.21 L127.16,61.01 L128.17,61.33 L129.32,61.74 L138.06,55.79 "/><path d="M129.42,67.77 L128.82,68.17 L128.26,68.20 "/><path d="M138.33,78.90 L130.47,84.24 L129.62,84.88 "/><path d="M129.72,81.25 L130.16,81.60 "/><path d="M130.83,62.94 L130.87,62.96 L138.74,57.61 "/><path d="M139.45,60.60 L140.00,60.57 L140.60,60.16 "/><path d="M142.02,55.34 L142.06,55.35 L142.23,55.24 L141.11,53.72 L140.50,54.13 L139.36,53.73 L138.35,53.41 L136.58,54.61 "/><path d="M121.37,67.35 L121.40,67.44 L121.79,68.09 L122.14,68.48 "/><path d="M121.19,78.66 L121.23,78.74 L121.61,79.39 L121.97,79.78 "/><path d="M121.379 70.889 a2.300 1.791 55.464 0 1 -2.348 -3.931"/><path d="M142.060 55.354 a3.348 1.559 -74.632 0 1 -3.336 4.214"/><path d="M130.872 62.959 a3.348 1.559 105.367 0 1 -3.336 4.214"/><path d="M128.580 81.669 a3.348 1.559 105.367 0 1 1.890 2.575"/><path d="M138.349 53.406 a3.323 1.547 -74.632 0 1 0.612 0.710"/><ellipse rx="2.44" ry="1.91" transform="translate(120.251 68.901) rotate(-124.819)"/><ellipse rx="2.44" ry="1.91" transform="translate(120.078 80.203) rotate(55.090)"/><path d="M127.161 61.012 a3.323 1.547 105.367 0 1 0.612 0.710"/><path d="M121.206 82.191 a2.300 1.791 55.515 0 1 -2.348 -3.931"/></g><g style="stroke:#000000;stroke-width:0.529"><path d="M126.87,63.40 C126.89,63.49 126.89,63.49 126.92,63.58 C127.15,64.21 127.14,64.21 127.38,64.84 C127.46,65.01 127.46,65.01 127.55,65.18 "/><path d="M138.06,55.79 C138.08,55.89 138.08,55.89 138.10,55.98 C138.33,56.61 138.33,56.61 138.56,57.23 C138.65,57.40 138.65,57.40 138.73,57.57 "/><path d="M141.92,71.57 L142.23,55.24 L141.89,54.44 L141.11,53.72 L130.10,47.90 L129.25,48.22 L114.32,58.37 L113.79,86.44 L114.64,87.23 L125.85,87.49 L126.43,87.10 L127.15,86.50 "/><path d="M125.39,62.21 L126.05,62.77 L126.87,63.40 "/><path d="M127.55,65.18 L127.55,65.22 "/><path d="M127.54,67.17 L127.81,67.85 L128.26,68.20 "/><path d="M129.72,81.25 L129.16,81.28 L128.57,81.67 "/><path d="M138.33,78.90 L137.61,79.49 L129.61,84.93 "/><path d="M136.58,54.61 L137.24,55.17 L138.06,55.79 "/><path d="M138.73,57.57 L138.74,57.61 "/><path d="M138.72,59.57 L139.00,60.24 L139.45,60.60 "/><path d="M119.031 66.958 a2.300 1.791 55.464 1 1 2.348 3.931"/><path d="M138.724 59.568 a3.348 1.559 -74.632 0 1 0.013 -1.955"/><path d="M138.334 78.900 a3.348 1.559 -74.632 0 1 0.066 -2.014"/><path d="M127.536 67.173 a3.348 1.559 105.367 0 1 0.013 -1.955"/><path d="M127.146 86.503 a3.348 1.559 105.367 0 1 1.433 -4.834"/><path d="M118.858 78.260 a2.300 1.791 55.515 1 1 2.348 3.931"/></g></g><g><g><path style="stroke:#000000;stroke-width:0.170;stroke-dasharray:3.0 2.0 1.0 2.0" d="M134.66,70.33L149.48,60.23"/></g><g><path style="fill:#000000" d="M135.16,70.33L135.16,70.28L135.15,70.23L135.14,70.19L135.12,70.14L135.10,70.10L135.07,70.05L135.05,70.01L135.01,69.98L134.98,69.95L134.94,69.92L134.89,69.89L134.85,69.87L134.80,69.85L134.76,69.84L134.71,69.83L134.66,69.83L134.61,69.83L134.56,69.84L134.51,69.85L134.47,69.87L134.42,69.89L134.38,69.92L134.34,69.95L134.31,69.98L134.27,70.01L134.24,70.05L134.22,70.10L134.20,70.14L134.18,70.19L134.17,70.23L134.16,70.28L134.16,70.33L134.16,70.38L134.17,70.43L134.18,70.48L134.20,70.52L134.22,70.57L134.24,70.61L134.27,70.65L134.31,70.69L134.34,70.72L134.38,70.75L134.42,70.77L134.47,70.79L134.51,70.81L134.56,70.82L134.61,70.83L134.66,70.83L134.71,70.83L134.76,70.82L134.80,70.81L134.85,70.79L134.89,70.77L134.94,70.75L134.98,70.72L135.01,70.69L135.05,70.65L135.07,70.61L135.10,70.57L135.12,70.52L135.14,70.48L135.15,70.43L135.16,70.38z"/></g><g><path style="fill:#000000" d="M149.98,60.23L149.98,60.18L149.97,60.13L149.96,60.09L149.94,60.04L149.92,60.00L149.90,59.95L149.87,59.91L149.83,59.88L149.80,59.84L149.76,59.82L149.72,59.79L149.67,59.77L149.62,59.75L149.58,59.74L149.53,59.73L149.48,59.73L149.43,59.73L149.38,59.74L149.33,59.75L149.29,59.77L149.24,59.79L149.20,59.82L149.16,59.84L149.13,59.88L149.09,59.91L149.06,59.95L149.04,60.00L149.02,60.04L149.00,60.09L148.99,60.13L148.98,60.18L148.98,60.23L148.98,60.28L148.99,60.33L149.00,60.38L149.02,60.42L149.04,60.47L149.06,60.51L149.09,60.55L149.13,60.58L149.16,60.62L149.20,60.65L149.24,60.67L149.29,60.69L149.33,60.71L149.38,60.72L149.43,60.73L149.48,60.73L149.53,60.73L149.58,60.72L149.62,60.71L149.67,60.69L149.72,60.67L149.76,60.65L149.80,60.62L149.83,60.58L149.87,60.55L149.90,60.51L149.92,60.47L149.94,60.42L149.96,60.38L149.97,60.33L149.98,60.28z"/></g></g><g><g><path style="stroke:#000000;stroke-width:0.170;stroke-dasharray:3.0 2.0 1.0 2.0" d="M134.86,58.93L149.64,48.92"/></g><g><path style="fill:#000000" d="M135.36,58.93L135.36,58.88L135.35,58.83L135.34,58.78L135.32,58.74L135.30,58.69L135.28,58.65L135.25,58.61L135.21,58.57L135.18,58.54L135.14,58.51L135.10,58.49L135.05,58.47L135.00,58.45L134.96,58.44L134.91,58.43L134.86,58.43L134.81,58.43L134.76,58.44L134.71,58.45L134.67,58.47L134.62,58.49L134.58,58.51L134.54,58.54L134.51,58.57L134.47,58.61L134.44,58.65L134.42,58.69L134.40,58.74L134.38,58.78L134.37,58.83L134.36,58.88L134.36,58.93L134.36,58.98L134.37,59.02L134.38,59.07L134.40,59.12L134.42,59.16L134.44,59.20L134.47,59.24L134.51,59.28L134.54,59.31L134.58,59.34L134.62,59.37L134.67,59.39L134.71,59.41L134.76,59.42L134.81,59.42L134.86,59.43L134.91,59.42L134.96,59.42L135.00,59.41L135.05,59.39L135.10,59.37L135.14,59.34L135.18,59.31L135.21,59.28L135.25,59.24L135.28,59.20L135.30,59.16L135.32,59.12L135.34,59.07L135.35,59.02L135.36,58.98z"/></g><g><path style="fill:#000000" d="M150.14,48.92L150.14,48.87L150.13,48.82L150.12,48.78L150.10,48.73L150.08,48.69L150.06,48.64L150.03,48.60L150.00,48.57L149.96,48.53L149.92,48.51L149.88,48.48L149.83,48.46L149.79,48.44L149.74,48.43L149.69,48.42L149.64,48.42L149.59,48.42L149.54,48.43L149.50,48.44L149.45,48.46L149.41,48.48L149.36,48.51L149.33,48.53L149.29,48.57L149.26,48.60L149.23,48.64L149.20,48.69L149.18,48.73L149.16,48.78L149.15,48.82L149.14,48.87L149.14,48.92L149.14,48.97L149.15,49.02L149.16,49.07L149.18,49.11L149.20,49.16L149.23,49.20L149.26,49.24L149.29,49.27L149.33,49.31L149.36,49.34L149.41,49.36L149.45,49.38L149.50,49.40L149.54,49.41L149.59,49.42L149.64,49.42L149.69,49.42L149.74,49.41L149.79,49.40L149.83,49.38L149.88,49.36L149.92,49.34L149.96,49.31L150.00,49.27L150.03,49.24L150.06,49.20L150.08,49.16L150.10,49.11L150.12,49.07L150.13,49.02L150.14,48.97z"/></g></g><g><g><path style="stroke:#000000;stroke-width:0.170;stroke-dasharray:3.0 2.0 1.0 2.0" d="M158.12,77.39L128.06,69.13"/></g><g><path style="fill:#000000" d="M158.62,77.39L158.61,77.34L158.61,77.29L158.59,77.24L158.58,77.20L158.56,77.15L158.53,77.11L158.50,77.07L158.47,77.03L158.43,77.00L158.39,76.97L158.35,76.95L158.31,76.93L158.26,76.91L158.21,76.90L158.16,76.89L158.12,76.89L158.07,76.89L158.02,76.90L157.97,76.91L157.92,76.93L157.88,76.95L157.84,76.97L157.80,77.00L157.76,77.03L157.73,77.07L157.70,77.11L157.67,77.15L157.65,77.20L157.64,77.24L157.63,77.29L157.62,77.34L157.62,77.39L157.62,77.44L157.63,77.49L157.64,77.53L157.65,77.58L157.67,77.62L157.70,77.67L157.73,77.71L157.76,77.74L157.80,77.77L157.84,77.80L157.88,77.83L157.92,77.85L157.97,77.87L158.02,77.88L158.07,77.89L158.12,77.89L158.16,77.89L158.21,77.88L158.26,77.87L158.31,77.85L158.35,77.83L158.39,77.80L158.43,77.77L158.47,77.74L158.50,77.71L158.53,77.67L158.56,77.62L158.58,77.58L158.59,77.53L158.61,77.49L158.61,77.44z"/></g><g><path style="fill:#000000" d="M128.56,69.13L128.56,69.08L128.55,69.03L128.54,68.98L128.52,68.94L128.50,68.89L128.48,68.85L128.45,68.81L128.42,68.78L128.38,68.74L128.34,68.71L128.30,68.69L128.25,68.67L128.21,68.65L128.16,68.64L128.11,68.63L128.06,68.63L128.01,68.63L127.97,68.64L127.92,68.65L127.87,68.67L127.83,68.69L127.78,68.71L127.75,68.74L127.71,68.78L127.68,68.81L127.65,68.85L127.62,68.89L127.60,68.94L127.58,68.98L127.57,69.03L127.57,69.08L127.56,69.13L127.57,69.18L127.57,69.23L127.58,69.27L127.60,69.32L127.62,69.36L127.65,69.41L127.68,69.45L127.71,69.48L127.75,69.52L127.78,69.54L127.83,69.57L127.87,69.59L127.92,69.61L127.97,69.62L128.01,69.63L128.06,69.63L128.11,69.63L128.16,69.62L128.21,69.61L128.25,69.59L128.30,69.57L128.34,69.54L128.38,69.52L128.42,69.48L128.45,69.45L128.48,69.41L128.50,69.36L128.52,69.32L128.54,69.27L128.55,69.23L128.56,69.18z"/></g></g><g><g/></g><g><g/></g><g><g><path style="stroke:#000000;stroke-width:0.170;stroke-dasharray:3.0 2.0 1.0 2.0" d="M122.43,78.71L109.29,87.52"/></g><g><path style="fill:#000000" d="M122.93,78.71L122.92,78.66L122.92,78.61L122.90,78.56L122.89,78.52L122.87,78.47L122.84,78.43L122.81,78.39L122.78,78.35L122.74,78.32L122.70,78.29L122.66,78.27L122.62,78.25L122.57,78.23L122.52,78.22L122.47,78.21L122.43,78.21L122.38,78.21L122.33,78.22L122.28,78.23L122.23,78.25L122.19,78.27L122.15,78.29L122.11,78.32L122.07,78.35L122.04,78.39L122.01,78.43L121.98,78.47L121.96,78.52L121.95,78.56L121.93,78.61L121.93,78.66L121.93,78.71L121.93,78.76L121.93,78.80L121.95,78.85L121.96,78.90L121.98,78.94L122.01,78.98L122.04,79.02L122.07,79.06L122.11,79.09L122.15,79.12L122.19,79.15L122.23,79.17L122.28,79.19L122.33,79.20L122.38,79.20L122.43,79.21L122.47,79.20L122.52,79.20L122.57,79.19L122.62,79.17L122.66,79.15L122.70,79.12L122.74,79.09L122.78,79.06L122.81,79.02L122.84,78.98L122.87,78.94L122.89,78.90L122.90,78.85L122.92,78.80L122.92,78.76z"/></g><g><path style="fill:#000000" d="M109.79,87.52L109.79,87.47L109.78,87.42L109.77,87.38L109.75,87.33L109.73,87.29L109.71,87.24L109.68,87.20L109.64,87.17L109.61,87.14L109.57,87.11L109.53,87.08L109.48,87.06L109.44,87.04L109.39,87.03L109.34,87.02L109.29,87.02L109.24,87.02L109.19,87.03L109.14,87.04L109.10,87.06L109.05,87.08L109.01,87.11L108.97,87.14L108.94,87.17L108.90,87.20L108.87,87.24L108.85,87.29L108.83,87.33L108.81,87.38L108.80,87.42L108.79,87.47L108.79,87.52L108.79,87.57L108.80,87.62L108.81,87.67L108.83,87.71L108.85,87.76L108.87,87.80L108.90,87.84L108.94,87.88L108.97,87.91L109.01,87.94L109.05,87.96L109.10,87.98L109.14,88.00L109.19,88.01L109.24,88.02L109.29,88.02L109.34,88.02L109.39,88.01L109.44,88.00L109.48,87.98L109.53,87.96L109.57,87.94L109.61,87.91L109.64,87.88L109.68,87.84L109.71,87.80L109.73,87.76L109.75,87.71L109.77,87.67L109.78,87.62L109.79,87.57z"/></g></g><g><g><path style="stroke:#000000;stroke-width:0.170;stroke-dasharray:3.0 2.0 1.0 2.0" d="M122.73,67.40L109.47,76.23"/></g><g><path style="fill:#000000" d="M123.23,67.40L123.23,67.35L123.22,67.31L123.21,67.26L123.19,67.21L123.17,67.17L123.15,67.12L123.12,67.09L123.08,67.05L123.05,67.02L123.01,66.99L122.97,66.96L122.92,66.94L122.87,66.92L122.83,66.91L122.78,66.91L122.73,66.90L122.68,66.91L122.63,66.91L122.58,66.92L122.54,66.94L122.49,66.96L122.45,66.99L122.41,67.02L122.38,67.05L122.34,67.09L122.31,67.12L122.29,67.17L122.27,67.21L122.25,67.26L122.24,67.31L122.23,67.35L122.23,67.40L122.23,67.45L122.24,67.50L122.25,67.55L122.27,67.59L122.29,67.64L122.31,67.68L122.34,67.72L122.38,67.76L122.41,67.79L122.45,67.82L122.49,67.84L122.54,67.86L122.58,67.88L122.63,67.89L122.68,67.90L122.73,67.90L122.78,67.90L122.83,67.89L122.87,67.88L122.92,67.86L122.97,67.84L123.01,67.82L123.05,67.79L123.08,67.76L123.12,67.72L123.15,67.68L123.17,67.64L123.19,67.59L123.21,67.55L123.22,67.50L123.23,67.45z"/></g><g><path style="fill:#000000" d="M109.97,76.23L109.97,76.18L109.96,76.13L109.95,76.08L109.94,76.04L109.91,75.99L109.89,75.95L109.86,75.91L109.83,75.87L109.79,75.84L109.75,75.81L109.71,75.79L109.66,75.77L109.62,75.75L109.57,75.74L109.52,75.73L109.47,75.73L109.42,75.73L109.38,75.74L109.33,75.75L109.28,75.77L109.24,75.79L109.20,75.81L109.16,75.84L109.12,75.87L109.09,75.91L109.06,75.95L109.03,75.99L109.01,76.04L109.00,76.08L108.98,76.13L108.98,76.18L108.97,76.23L108.98,76.28L108.98,76.33L109.00,76.37L109.01,76.42L109.03,76.46L109.06,76.51L109.09,76.54L109.12,76.58L109.16,76.61L109.20,76.64L109.24,76.67L109.28,76.69L109.33,76.71L109.38,76.72L109.42,76.73L109.47,76.73L109.52,76.73L109.57,76.72L109.62,76.71L109.66,76.69L109.71,76.67L109.75,76.64L109.79,76.61L109.83,76.58L109.86,76.54L109.89,76.51L109.91,76.46L109.94,76.42L109.95,76.37L109.96,76.33L109.97,76.28z"/></g></g><g><g><path style="stroke:#000000;stroke-width:0.170;stroke-dasharray:3.0 2.0 1.0 2.0" d="M212.94,87.62L227.74,77.56"/></g><g><path style="fill:#000000" d="M213.44,87.62L213.43,87.58L213.43,87.53L213.42,87.48L213.40,87.43L213.38,87.39L213.35,87.35L213.32,87.31L213.29,87.27L213.25,87.24L213.22,87.21L213.17,87.18L213.13,87.16L213.08,87.15L213.03,87.13L212.99,87.13L212.94,87.12L212.89,87.13L212.84,87.13L212.79,87.15L212.75,87.16L212.70,87.18L212.66,87.21L212.62,87.24L212.58,87.27L212.55,87.31L212.52,87.35L212.50,87.39L212.48,87.43L212.46,87.48L212.45,87.53L212.44,87.58L212.44,87.62L212.44,87.67L212.45,87.72L212.46,87.77L212.48,87.82L212.50,87.86L212.52,87.90L212.55,87.94L212.58,87.98L212.62,88.01L212.66,88.04L212.70,88.07L212.75,88.09L212.79,88.10L212.84,88.11L212.89,88.12L212.94,88.12L212.99,88.12L213.03,88.11L213.08,88.10L213.13,88.09L213.17,88.07L213.22,88.04L213.25,88.01L213.29,87.98L213.32,87.94L213.35,87.90L213.38,87.86L213.40,87.82L213.42,87.77L213.43,87.72L213.43,87.67z"/></g><g><path style="fill:#000000" d="M228.24,77.56L228.24,77.51L228.23,77.46L228.22,77.42L228.20,77.37L228.18,77.33L228.15,77.28L228.13,77.24L228.09,77.21L228.06,77.18L228.02,77.15L227.97,77.12L227.93,77.10L227.88,77.08L227.84,77.07L227.79,77.06L227.74,77.06L227.69,77.06L227.64,77.07L227.59,77.08L227.55,77.10L227.50,77.12L227.46,77.15L227.42,77.18L227.39,77.21L227.35,77.24L227.32,77.28L227.30,77.33L227.28,77.37L227.26,77.42L227.25,77.46L227.24,77.51L227.24,77.56L227.24,77.61L227.25,77.66L227.26,77.71L227.28,77.75L227.30,77.80L227.32,77.84L227.35,77.88L227.39,77.92L227.42,77.95L227.46,77.98L227.50,78.00L227.55,78.02L227.59,78.04L227.64,78.05L227.69,78.06L227.74,78.06L227.79,78.06L227.84,78.05L227.88,78.04L227.93,78.02L227.97,78.00L228.02,77.98L228.06,77.95L228.09,77.92L228.13,77.88L228.15,77.84L228.18,77.80L228.20,77.75L228.22,77.71L228.23,77.66L228.24,77.61z"/></g></g><g/><g/><g id="paperID" visibility="hidden" opacity="0.00" transform="scale(0.000100)"><path style="stroke:#000000;stroke-width:0.500;fill:#e6e6e6;fill-rule:evenodd" d="M-2000.00,-2000.00L2297.00,-2000.00L2297.00,2210.00L-2000.00,2210.00zM0.00,0.00L297.00,0.00L297.00,210.00L0.00,210.00z"/><path style="fill:#000000;fill-opacity:0.118" d="M3.00,210.00L297.00,210.00L297.00,3.00L300.00,3.00L300.00,213.00L3.00,213.00z"/></g><g><g><path style="stroke:#000000;stroke-width:0.353;fill:#f0f0ff" d="M10.92,85.31L77.34,85.31L77.34,88.52L10.92,88.52z"/><text xml:space="preserve" fill="#000000" stroke-width="0" x="12.15" y="87.77" font-size="2.30" opacity="1.00" font-family="Consolas" font-weight="bold">Description</text><text xml:space="preserve" fill="#000000" stroke-width="0" x="62.23" y="87.77" font-size="2.27" opacity="1.00" font-family="Consolas" font-weight="bold">BOM ID</text><text xml:space="preserve" fill="#000000" stroke-width="0" x="72.28" y="87.77" font-size="2.28" opacity="1.00" font-family="Consolas" font-weight="bold">Qty</text><path style="stroke:#000000;stroke-width:0.353" d="M61.00,85.31L61.00,88.52"/><path style="stroke:#000000;stroke-width:0.353" d="M71.05,85.31L71.05,88.52"/></g><g id="Line1"><path style="stroke:#000000;stroke-width:0.353;fill:#ffffff" d="M10.92,88.52L77.34,88.52L77.34,91.72L10.92,91.72z"/><text xml:space="preserve" fill="#000000" stroke-width="0" x="12.15" y="90.98" font-size="2.30" opacity="1.00" font-family="Consolas">50mm Extension Spacer</text><text xml:space="preserve" fill="#000000" stroke-width="0" x="62.23" y="90.98" font-size="2.04" opacity="1.00" font-family="Consolas">1</text><text xml:space="preserve" fill="#000000" stroke-width="0" x="72.28" y="90.98" font-size="2.04" opacity="1.00" font-family="Consolas">1</text><path style="stroke:#000000;stroke-width:0.353" d="M61.00,88.52L61.00,91.72"/><path style="stroke:#000000;stroke-width:0.353" d="M71.05,88.52L71.05,91.72"/></g><g id="Line3"><path style="stroke:#000000;stroke-width:0.353;fill:#f0f0ff" d="M10.92,91.72L77.34,91.72L77.34,94.93L10.92,94.93z"/><text xml:space="preserve" fill="#000000" stroke-width="0" x="12.15" y="94.19" font-size="2.31" opacity="1.00" font-family="Consolas">Heat Set Insert M3</text><text xml:space="preserve" fill="#000000" stroke-width="0" x="62.23" y="94.19" font-size="1.98" opacity="1.00" font-family="Consolas">3</text><text xml:space="preserve" fill="#000000" stroke-width="0" x="72.28" y="94.19" font-size="2.23" opacity="1.00" font-family="Consolas">4</text><path style="stroke:#000000;stroke-width:0.353" d="M61.00,91.72L61.00,94.93"/><path style="stroke:#000000;stroke-width:0.353" d="M71.05,91.72L71.05,94.93"/></g><g id="Line10"><path style="stroke:#000000;stroke-width:0.353;fill:#ffffff" d="M10.92,94.93L77.34,94.93L77.34,98.14L10.92,98.14z"/><text xml:space="preserve" fill="#000000" stroke-width="0" x="12.15" y="97.40" font-size="2.31" opacity="1.00" font-family="Consolas">M3x12 Socket Head</text><text xml:space="preserve" fill="#000000" stroke-width="0" x="62.23" y="97.40" font-size="2.18" opacity="1.00" font-family="Consolas">10</text><text xml:space="preserve" fill="#000000" stroke-width="0" x="72.28" y="97.40" font-size="2.23" opacity="1.00" font-family="Consolas">4</text><path style="stroke:#000000;stroke-width:0.353" d="M61.00,94.93L61.00,98.14"/><path style="stroke:#000000;stroke-width:0.353" d="M71.05,94.93L71.05,98.14"/></g><g id="Line9"><path style="stroke:#000000;stroke-width:0.353;fill:#f0f0ff" d="M10.92,98.14L77.34,98.14L77.34,101.35L10.92,101.35z"/><text xml:space="preserve" fill="#000000" stroke-width="0" x="12.15" y="100.61" font-size="2.31" opacity="1.00" font-family="Consolas">M3x16 Socket Head</text><text xml:space="preserve" fill="#000000" stroke-width="0" x="62.23" y="100.61" font-size="2.11" opacity="1.00" font-family="Consolas">9</text><text xml:space="preserve" fill="#000000" stroke-width="0" x="72.28" y="100.61" font-size="2.23" opacity="1.00" font-family="Consolas">4</text><path style="stroke:#000000;stroke-width:0.353" d="M61.00,98.14L61.00,101.35"/><path style="stroke:#000000;stroke-width:0.353" d="M71.05,98.14L71.05,101.35"/></g><g id="Line4"><path style="stroke:#000000;stroke-width:0.353;fill:#ffffff" d="M10.92,101.35L77.34,101.35L77.34,104.56L10.92,104.56z"/><text xml:space="preserve" fill="#000000" stroke-width="0" x="12.15" y="103.82" font-size="2.30" opacity="1.00" font-family="Consolas">M4 Nut</text><text xml:space="preserve" fill="#000000" stroke-width="0" x="62.23" y="103.82" font-size="2.23" opacity="1.00" font-family="Consolas">4</text><text xml:space="preserve" fill="#000000" stroke-width="0" x="72.28" y="103.82" font-size="2.04" opacity="1.00" font-family="Consolas">1</text><path style="stroke:#000000;stroke-width:0.353" d="M61.00,101.35L61.00,104.56"/><path style="stroke:#000000;stroke-width:0.353" d="M71.05,101.35L71.05,104.56"/></g><g id="Line11"><path style="stroke:#000000;stroke-width:0.353;fill:#f0f0ff" d="M10.92,104.56L77.34,104.56L77.34,107.77L10.92,107.77z"/><text xml:space="preserve" fill="#000000" stroke-width="0" x="12.15" y="107.03" font-size="2.31" opacity="1.00" font-family="Consolas">M4x25 Socket Head</text><text xml:space="preserve" fill="#000000" stroke-width="0" x="62.23" y="107.03" font-size="2.18" opacity="1.00" font-family="Consolas">11</text><text xml:space="preserve" fill="#000000" stroke-width="0" x="72.28" y="107.03" font-size="2.04" opacity="1.00" font-family="Consolas">1</text><path style="stroke:#000000;stroke-width:0.353" d="M61.00,104.56L61.00,107.77"/><path style="stroke:#000000;stroke-width:0.353" d="M71.05,104.56L71.05,107.77"/></g><g id="Line5"><path style="stroke:#000000;stroke-width:0.353;fill:#ffffff" d="M10.92,107.77L77.34,107.77L77.34,110.98L10.92,110.98z"/><text xml:space="preserve" fill="#000000" stroke-width="0" x="12.15" y="110.24" font-size="2.31" opacity="1.00" font-family="Consolas">Objective Lens</text><text xml:space="preserve" fill="#000000" stroke-width="0" x="62.23" y="110.24" font-size="1.95" opacity="1.00" font-family="Consolas">5</text><text xml:space="preserve" fill="#000000" stroke-width="0" x="72.28" y="110.24" font-size="2.04" opacity="1.00" font-family="Consolas">1</text><path style="stroke:#000000;stroke-width:0.353" d="M61.00,107.77L61.00,110.98"/><path style="stroke:#000000;stroke-width:0.353" d="M71.05,107.77L71.05,110.98"/></g><g id="Line6"><path style="stroke:#000000;stroke-width:0.353;fill:#f0f0ff" d="M10.92,110.98L77.34,110.98L77.34,114.19L10.92,114.19z"/><text xml:space="preserve" fill="#000000" stroke-width="0" x="12.15" y="113.45" font-size="2.32" opacity="1.00" font-family="Consolas">Optical Subassembly Z Leadscrew Mount</text><text xml:space="preserve" fill="#000000" stroke-width="0" x="62.23" y="113.45" font-size="2.07" opacity="1.00" font-family="Consolas">6</text><text xml:space="preserve" fill="#000000" stroke-width="0" x="72.28" y="113.45" font-size="2.04" opacity="1.00" font-family="Consolas">1</text><path style="stroke:#000000;stroke-width:0.353" d="M61.00,110.98L61.00,114.19"/><path style="stroke:#000000;stroke-width:0.353" d="M71.05,110.98L71.05,114.19"/></g><g id="Line7"><path style="stroke:#000000;stroke-width:0.353;fill:#ffffff" d="M10.92,114.19L77.34,114.19L77.34,117.40L10.92,117.40z"/><text xml:space="preserve" fill="#000000" stroke-width="0" x="12.15" y="116.66" font-size="2.31" opacity="1.00" font-family="Consolas">Optical Tube Clamp</text><text xml:space="preserve" fill="#000000" stroke-width="0" x="62.23" y="116.66" font-size="2.08" opacity="1.00" font-family="Consolas">7</text><text xml:space="preserve" fill="#000000" stroke-width="0" x="72.28" y="116.66" font-size="2.04" opacity="1.00" font-family="Consolas">1</text><path style="stroke:#000000;stroke-width:0.353" d="M61.00,114.19L61.00,117.40"/><path style="stroke:#000000;stroke-width:0.353" d="M71.05,114.19L71.05,117.40"/></g><g id="Line8"><path style="stroke:#000000;stroke-width:0.353;fill:#f0f0ff" d="M10.92,117.40L77.34,117.40L77.34,120.61L10.92,120.61z"/><text xml:space="preserve" fill="#000000" stroke-width="0" x="12.15" y="119.87" font-size="2.30" opacity="1.00" font-family="Consolas">Raspberry Pi HQ Camera</text><text xml:space="preserve" fill="#000000" stroke-width="0" x="62.23" y="119.87" font-size="2.07" opacity="1.00" font-family="Consolas">8</text><text xml:space="preserve" fill="#000000" stroke-width="0" x="72.28" y="119.87" font-size="2.04" opacity="1.00" font-family="Consolas">1</text><path style="stroke:#000000;stroke-width:0.353" d="M61.00,117.40L61.00,120.61"/><path style="stroke:#000000;stroke-width:0.353" d="M71.05,117.40L71.05,120.61"/></g><g id="Line2"><path style="stroke:#000000;stroke-width:0.353;fill:#ffffff" d="M10.92,120.61L77.34,120.61L77.34,123.82L10.92,123.82z"/><text xml:space="preserve" fill="#000000" stroke-width="0" x="12.15" y="123.08" font-size="2.31" opacity="1.00" font-family="Consolas">Thorlabs CML100</text><text xml:space="preserve" fill="#000000" stroke-width="0" x="62.23" y="123.08" font-size="2.02" opacity="1.00" font-family="Consolas">2</text><text xml:space="preserve" fill="#000000" stroke-width="0" x="72.28" y="123.08" font-size="2.04" opacity="1.00" font-family="Consolas">1</text><path style="stroke:#000000;stroke-width:0.353" d="M61.00,120.61L61.00,123.82"/><path style="stroke:#000000;stroke-width:0.353" d="M71.05,120.61L71.05,123.82"/></g></g><g id="hotspot.0" ident="" onmouseover="ShowHotSpot(evt,&apos;0&apos;)" onmouseout="HideHotSpot(evt,&apos;0&apos;)" onmousemove="ShowToolTip(evt,&apos;0&apos;,&quot;50mm Extension Spacer&quot;)" opacity="0"><path style="fill:#00ff00;fill-rule:evenodd" d="M10.92,88.52L10.92,91.72L77.34,91.72L77.34,88.52zM171.51,131.47L173.21,132.74L175.20,133.72L179.41,134.97L182.89,135.46L189.01,135.46L192.48,134.96L196.21,133.97L199.65,131.97L200.41,130.96L200.23,150.59L200.76,151.56L200.74,163.55L200.43,176.63L199.50,178.43L198.40,179.31L196.69,180.33L193.49,181.59L189.51,182.32L180.91,182.32L176.93,181.58L174.95,181.09L171.26,179.32L170.02,178.33L169.00,176.62L169.01,167.27L169.25,154.13L169.49,150.90L170.01,149.93L170.50,130.80L170.76,130.73z"/></g><g id="hotspot.1" ident="" onmouseover="ShowHotSpot(evt,&apos;1&apos;)" onmouseout="HideHotSpot(evt,&apos;1&apos;)" onmousemove="ShowToolTip(evt,&apos;1&apos;,&quot;socket head cap screw_iso&quot;)" opacity="0"><path style="fill:#00ff00;fill-rule:evenodd" d="M10.92,94.93L10.92,98.14L77.34,98.14L77.34,94.93zM167.54,65.78L167.52,66.60L163.71,69.26L162.81,69.26L162.30,68.53L162.29,67.33L164.82,65.40L165.70,64.78L166.54,64.77zM146.45,78.67L147.44,80.16L147.71,82.00L147.42,82.46L146.13,83.16L144.95,83.15L143.49,82.13L142.96,81.17L142.99,79.02L144.12,77.93L145.22,77.92zM145.46,89.34L146.72,90.55L147.44,92.06L147.45,93.40L146.38,94.32L144.44,94.32L143.24,93.29L142.71,92.33L142.71,90.39L143.39,89.59L144.14,89.07z"/></g><g id="hotspot.2" ident="" onmouseover="ShowHotSpot(evt,&apos;2&apos;)" onmouseout="HideHotSpot(evt,&apos;2&apos;)" onmousemove="ShowToolTip(evt,&apos;2&apos;,&quot;socket head cap screw_iso&quot;)" opacity="0"><path style="fill:#00ff00;fill-rule:evenodd" d="M10.92,104.56L10.92,107.77L77.34,107.77L77.34,104.56zM203.72,93.05L204.96,94.29L205.46,95.80L205.22,97.13L204.35,97.74L201.90,99.04L201.25,99.03L199.78,98.48L199.03,98.00L198.00,96.05L198.00,93.87L199.17,92.56L199.66,92.30L201.99,92.31z"/></g><g id="hotspot.3" ident="" onmouseover="ShowHotSpot(evt,&apos;3&apos;)" onmouseout="HideHotSpot(evt,&apos;3&apos;)" onmousemove="ShowToolTip(evt,&apos;3&apos;,&quot;CML100&quot;)" opacity="0"><path style="fill:#00ff00;fill-rule:evenodd" d="M10.92,120.61L10.92,123.82L77.34,123.82L77.34,120.61zM172.03,37.90L172.98,38.26L173.13,39.35L174.50,39.47L175.22,40.76L176.98,40.71L177.67,41.79L179.69,41.72L180.15,42.00L180.43,42.48L183.17,42.45L183.57,43.06L184.56,42.99L185.03,42.71L186.12,42.72L187.36,43.25L187.99,43.23L188.75,42.71L189.59,42.72L190.31,42.99L191.30,43.05L191.96,42.46L194.71,42.47L194.97,41.99L197.53,41.82L197.68,40.99L199.93,40.75L200.40,39.71L201.40,39.77L201.74,39.35L201.91,38.53L202.76,38.28L202.48,56.69L201.99,75.29L201.73,76.03L200.75,77.28L200.50,78.53L198.67,78.41L197.45,78.93L193.72,79.92L189.75,80.42L184.38,80.42L180.41,79.92L176.68,78.94L173.71,77.69L172.00,76.43L171.23,75.22L171.24,64.63L171.72,38.32L171.95,37.79zM173.71,105.47L178.43,106.20L181.90,106.45L200.00,106.94L201.50,107.18L201.00,129.85L199.65,131.97L196.21,133.97L192.48,134.96L189.01,135.46L182.89,135.46L179.41,134.97L175.20,133.72L173.21,132.74L171.51,131.47L170.49,130.25L170.23,129.77L170.25,116.94L170.42,104.69z"/></g><g id="hotspot.4" ident="" onmouseover="ShowHotSpot(evt,&apos;4&apos;)" onmouseout="HideHotSpot(evt,&apos;4&apos;)" onmousemove="ShowToolTip(evt,&apos;4&apos;,&quot;Heat Set Insert M3&quot;)" opacity="0"><path style="fill:#00ff00;fill-rule:evenodd" d="M10.92,91.72L10.92,94.93L77.34,94.93L77.34,91.72zM152.19,46.41L152.90,47.67L152.81,49.66L150.35,51.43L148.18,51.68L146.96,50.90L146.68,50.43L146.68,48.50L147.71,47.04L149.82,45.69L150.92,45.69zM152.18,58.07L152.91,59.59L152.65,60.92L151.43,61.93L149.85,62.83L147.67,62.83L146.71,62.05L146.43,61.34L146.47,59.93L147.21,58.69L149.41,57.18L151.17,57.09zM111.24,73.72L112.24,74.95L112.24,76.54L111.27,78.05L108.94,79.45L108.01,79.45L107.04,78.91L106.29,78.17L106.02,77.46L106.02,75.77L106.70,74.96L108.68,73.72L110.75,73.45zM111.52,85.33L112.25,86.61L112.25,87.44L111.49,88.93L109.19,90.60L107.29,90.57L106.04,89.33L105.78,88.35L105.77,87.17L106.70,86.12L108.66,84.86L110.76,84.86z"/></g><g id="hotspot.5" ident="" onmouseover="ShowHotSpot(evt,&apos;5&apos;)" onmouseout="HideHotSpot(evt,&apos;5&apos;)" onmousemove="ShowToolTip(evt,&apos;5&apos;,&quot;M4 Nut&quot;)" opacity="0"><path style="fill:#00ff00;fill-rule:evenodd" d="M10.92,101.35L10.92,104.56L77.34,104.56L77.34,101.35zM229.26,73.47L231.73,75.71L231.76,79.53L230.00,80.74L226.94,81.93L226.30,81.91L223.56,79.42L223.55,77.27L223.73,75.46L225.45,74.21L228.76,73.20zM227.78,77.17L228.29,78.50L227.54,77.91L227.23,77.44L227.19,76.93L227.51,76.89z"/></g><g id="hotspot.6" ident="" onmouseover="ShowHotSpot(evt,&apos;6&apos;)" onmouseout="HideHotSpot(evt,&apos;6&apos;)" onmousemove="ShowToolTip(evt,&apos;6&apos;,&quot;Objective Lens&quot;)" opacity="0"><path style="fill:#00ff00;fill-rule:evenodd" d="M10.92,107.77L10.92,110.98L77.34,110.98L77.34,107.77zM174.95,181.09L176.93,181.58L180.91,182.32L189.51,182.32L193.49,181.59L196.51,180.57L196.79,181.06L196.77,184.87L196.54,187.12L195.71,188.27L194.46,189.25L194.03,189.81L193.80,200.00L193.55,200.74L192.71,201.64L190.50,202.90L187.52,203.64L181.65,203.64L179.16,203.16L176.72,202.12L174.98,200.64L174.69,200.18L174.73,189.49L172.46,187.04L172.14,185.31L172.48,180.14L172.74,180.07z"/></g><g id="hotspot.7" ident="" onmouseover="ShowHotSpot(evt,&apos;7&apos;)" onmouseout="HideHotSpot(evt,&apos;7&apos;)" onmousemove="ShowToolTip(evt,&apos;7&apos;,&quot;Optical Subassembly Z Leadscrew Mount&quot;)" opacity="0"><path style="fill:#00ff00;fill-rule:evenodd" d="M10.92,110.98L10.92,114.19L77.34,114.19L77.34,110.98zM141.24,53.89L142.00,54.86L141.76,71.59L138.51,73.80L138.03,79.03L129.83,84.73L129.60,82.13L129.09,81.62L128.35,81.73L127.34,83.70L126.85,86.69L126.03,87.35L121.65,87.36L114.48,87.09L113.89,86.68L113.96,73.30L114.21,60.16L114.46,58.18L129.59,47.99L130.08,47.91zM140.76,54.61L141.25,55.36L141.24,57.19L140.50,59.18L139.68,59.86L138.75,59.85L138.52,57.35L138.03,55.86L137.02,55.12L137.02,54.22L138.00,53.88zM129.60,62.31L130.09,63.05L130.08,64.63L129.59,66.12L128.50,67.52L127.60,67.54L127.36,65.04L126.37,63.05L125.60,62.55L125.61,62.17L126.27,61.55L127.10,61.57z"/></g><g id="hotspot.8" ident="" onmouseover="ShowHotSpot(evt,&apos;8&apos;)" onmouseout="HideHotSpot(evt,&apos;8&apos;)" onmousemove="ShowToolTip(evt,&apos;8&apos;,&quot;Optical Tube Clamp&quot;)" opacity="0"><path style="fill:#00ff00;fill-rule:evenodd" d="M10.92,114.19L10.92,117.40L77.34,117.40L77.34,114.19zM170.24,56.37L171.27,56.83L171.23,75.22L172.00,76.43L173.71,77.69L176.68,78.94L180.41,79.92L184.38,80.42L189.75,80.42L193.72,79.92L197.45,78.93L198.67,78.41L200.50,78.53L200.75,77.28L201.73,76.03L201.99,75.29L202.48,65.51L205.20,67.03L212.89,72.98L219.87,78.64L220.33,79.67L220.33,88.18L220.00,101.23L216.63,103.60L216.12,103.76L215.36,103.45L215.15,104.57L211.34,107.21L181.90,106.45L178.43,106.20L173.71,105.47L139.25,96.04L138.01,95.29L138.41,73.94L143.88,70.23L144.70,70.24L156.61,73.49L157.51,73.47L159.36,72.09L159.84,59.43L165.70,55.35L166.52,55.37zM167.54,65.78L167.52,66.60L163.71,69.26L162.81,69.26L162.30,68.53L162.29,67.33L164.82,65.40L165.70,64.78L166.54,64.77zM146.45,78.67L147.44,80.16L147.71,82.00L147.42,82.46L146.13,83.16L144.95,83.15L143.49,82.13L142.96,81.17L142.99,79.02L144.12,77.93L145.22,77.92zM145.46,89.34L146.72,90.55L147.44,92.06L147.45,93.40L146.38,94.32L144.44,94.32L143.24,93.29L142.71,92.33L142.71,90.39L143.39,89.59L144.14,89.07zM203.72,93.05L204.96,94.29L205.46,95.80L205.22,97.13L204.35,97.74L201.90,99.04L201.25,99.03L199.78,98.48L199.03,98.00L198.00,96.05L198.00,93.87L199.17,92.56L199.66,92.30L201.99,92.31z"/></g><g id="hotspot.9" ident="" onmouseover="ShowHotSpot(evt,&apos;9&apos;)" onmouseout="HideHotSpot(evt,&apos;9&apos;)" onmousemove="ShowToolTip(evt,&apos;9&apos;,&quot;Raspberry Pi HQ Camera&quot;)" opacity="0"><path style="fill:#00ff00;fill-rule:evenodd" d="M10.92,117.40L10.92,120.61L77.34,120.61L77.34,117.40zM206.44,12.49L206.68,14.97L212.15,16.44L213.14,16.94L213.16,19.02L205.21,24.46L205.19,28.61L205.71,29.58L205.63,32.07L204.96,33.64L204.41,34.08L204.20,34.61L203.40,34.80L202.76,38.13L201.91,38.52L201.74,39.35L201.40,39.77L200.40,39.71L199.93,40.75L197.68,40.99L197.53,41.82L194.97,41.99L194.71,42.47L191.96,42.46L191.30,43.05L190.31,42.99L189.59,42.72L188.75,42.71L187.99,43.23L187.36,43.25L186.12,42.72L185.03,42.71L184.56,42.99L183.57,43.06L183.17,42.45L180.43,42.48L180.15,42.00L179.69,41.72L177.67,41.79L176.98,40.71L175.22,40.76L174.50,39.47L173.13,39.35L172.98,38.26L172.15,38.09L171.73,36.79L171.46,34.82L170.97,34.08L170.25,33.80L169.47,32.10L169.20,31.88L169.26,28.68L169.77,28.20L169.78,25.59L168.76,25.13L162.55,23.40L162.07,23.14L162.07,21.00L174.23,12.58L180.57,8.50L183.14,8.51L185.86,9.28L186.76,9.25L189.01,7.74z"/></g><g id="hotspot.10" ident="" onmouseover="ShowHotSpot(evt,&apos;10&apos;)" onmouseout="HideHotSpot(evt,&apos;10&apos;)" onmousemove="ShowToolTip(evt,&apos;10&apos;,&quot;socket head cap screw_iso&quot;)" opacity="0"><path style="fill:#00ff00;fill-rule:evenodd" d="M10.92,98.14L10.92,101.35L77.34,101.35L77.34,98.14zM123.13,52.24L123.13,51.76L123.82,51.38L124.37,51.38zM140.76,54.61L141.25,55.36L141.24,57.19L140.50,59.18L139.68,59.86L138.75,59.85L138.52,57.35L138.03,55.86L137.02,55.12L137.02,54.22L138.00,53.88zM114.22,59.35L113.97,62.42L111.91,61.89L111.70,61.61L111.72,59.90L112.38,59.07L113.47,59.09zM129.60,62.31L130.09,63.05L130.08,64.63L129.59,66.12L128.50,67.52L127.60,67.54L127.36,65.04L126.37,63.05L125.60,62.55L125.61,62.17L126.27,61.55L127.10,61.57zM113.75,78.90L113.72,81.75L112.71,81.67L111.43,81.22L111.14,79.93L111.74,78.77L112.15,78.40L112.72,78.41zM138.23,79.28L137.94,79.21L138.26,77.42zM129.60,82.13L129.59,84.72L129.34,85.45L128.26,86.85L127.01,86.95L127.10,84.70L127.88,82.51L128.50,81.61L129.09,81.62z"/></g><g id="ToolTip" visibility="hidden" opacity="0" transform="translate(0,0)"><rect id="ToolTipShadow" opacity="0.20" fill="black" stroke="none" x="0" y="0" width="30" height="8"/><rect id="ToolTipBG" fill="#ffffe1" stroke="black" x="0" y="0" width="30" height="8"/><text xml:space="preserve" id="ToolTipText" fill="black" x="0" y="0" width="30" height="8">tooltip</text></g></g></svg>