<?xml version="1.0" encoding="UTF-8" standalone="yes"?><svg xmlns="http://www.w3.org/2000/svg" xmlns:xlink="http://www.w3.org/1999/xlink" width="297.000mm" height="210.000mm" viewBox="0.000000 0.000000 297.000000 210.000000" stroke-linejoin="round" stroke-linecap="round" fill="none" fill-rule="evenodd"><desc>Composer Export</desc><script type="text/ecmascript"><![CDATA[
if(typeof(top) != "undefined")
{
	top.ShowPaper = ShowPaper;
}
function ShowHotSpot(evt,hotspotid)
{
	var svgDocument = evt.target.ownerDocument;
	var strId = "hotspot."+hotspotid;
	var hotspot = svgDocument.getElementById(strId);
	if(hotspot)
		hotspot.setAttribute("opacity",".5");
}
function HideHotSpot(evt,hotspotid)
{
	var svgDocument = evt.target.ownerDocument;
	var strId = "hotspot."+hotspotid;
	var hotspot = svgDocument.getElementById(strId);
	if(hotspot)
		hotspot.setAttribute("opacity","0");

	var toolTip = svgDocument.getElementById('ToolTip');
	if(toolTip)
		toolTip.setAttribute("visibility","hidden");
}
function ShowToolTip(evt,hotspotid,strTooltip)
{
	if(strTooltip=="")
	return;

	// change text
	var svgDocument = evt.target.ownerDocument;
	var tiptext = svgDocument.getElementById('ToolTipText');
	if( !tiptext )
	return;
	tiptext.firstChild.nodeValue = " " + strTooltip + "  " ;

	// show tooltip before, else some refresh issue

	var toolTip = svgDocument.getElementById('ToolTip');
	if(!toolTip)
	return;

	toolTip.setAttribute("visibility","visible");
	toolTip.setAttribute("opacity",".95");

	// move tooltip
	// get viewbox

	var root = svgDocument.documentElement;
	var vbox = (root.getAttribute("viewBox")).split(' ');
	var x0 = parseFloat(vbox[0]);
	var y0 = parseFloat(vbox[1]);
	var vboxW = parseFloat(vbox[2]);
	var vboxH = parseFloat(vbox[3]);

	// get default width of svg

	var strW = root.getAttribute("width");
	var svgW = parseFloat(strW);
	if(strW.indexOf('mm') != -1)
	svgW *= 3.779;

	var strH = root.getAttribute("height");
	var svgH = parseFloat(strH);
	if(strH.indexOf('mm') != -1)
	svgH *= 3.779;  	// 96 dpi  -> 96/25.4 = 3.779

	// update the viewbox / width / height if svg is embedded in html with zoom fit all
	var realx0 = x0;
	var realy0 = y0;
	var realvboxW = vboxW;
	var realvboxH = vboxH;
	var realsvgW = svgW;
	var realsvgH = svgH;

	if ((typeof(top) == "undefined") || (typeof(top.svgctl1) != "undefined")) // embedded in html
	{
		// get window size in pxl

		svgW = window.innerWidth;
		svgH = window.innerHeight;

		// calculate real viewbox

		realsvgW = svgW;
		realsvgH = svgH;
		if((svgW / svgH) > (vboxW / vboxH))
		{
			realvboxW = (vboxH * svgW) / svgH;
			realvboxH = vboxH;
			realx0 = x0 - (realvboxW - vboxW)/2 ;
		}
		else
		{
			realvboxH = (vboxW * svgH) / svgW;
			realvboxW = vboxW;
			realy0 = y0 - (realvboxH - vboxH)/2 ;
		}
	}

	// get user zoom/pan

	var newScale = root.currentScale;
	var translation = root.currentTranslate;

	// transform pxl to user unit

	var xPos = (((evt.clientX+10- translation.x)/newScale) * realvboxW)/realsvgW  + realx0 ;
	var yPos = (((evt.clientY+5- translation.y)/newScale) * realvboxH)/ realsvgH  + realy0 ;
	var scaleForWidth = ( (1 / newScale) * realvboxH) / realsvgH;

	// move tooltip

	toolTip.setAttribute("transform", "translate(" + xPos + "," + yPos + ")" );

	// resize tooltip

	var fontsize = 12;
	tiptext.setAttribute("font-size",fontsize*scaleForWidth);
	tiptext.setAttribute("y", fontsize*scaleForWidth);
	var tipBG = svgDocument.getElementById('ToolTipBG');
	var outline = tiptext.getBBox();
	if(tipBG)
	{
		tipBG.setAttribute("stroke-width", 1*scaleForWidth);
		tipBG.setAttribute("width", Number(outline.width) );
		tipBG.setAttribute("height", Number(outline.height) + fontsize*.5*scaleForWidth );
	}
	var ToolTipShadow = svgDocument.getElementById('ToolTipShadow');
	if(ToolTipShadow)
	{
		ToolTipShadow.setAttribute("width", Number(outline.width) );
		ToolTipShadow.setAttribute("height", Number(outline.height) + fontsize*.5*scaleForWidth );
		ToolTipShadow.setAttribute("x", 3*scaleForWidth);
		ToolTipShadow.setAttribute("y", 3*scaleForWidth);
	}
}
function ShowPaper()
{
  var svgDocument = getDocument();
  var paper = svgDocument.getElementById("paperID");
  if(paper)
  {
    paper.setAttribute("transform","scale(1)");
    paper.setAttribute("opacity","1");
    paper.setAttribute("visibility","visible");
  }
  var svg = svgDocument.getRootElement();
  if(svg)
  {
    svg.setAttribute("width","307.000mm");
    svg.setAttribute("height","220.000mm");
    svg.setAttribute("viewBox","-5.000000 -5.000000 307.000000 220.000000");
  }
}
]]></script><defs/><g><path style="fill:#ffffff" d="M296.91,209.94L0.05,209.94L0.05,0.05L296.91,0.05z"/><path style="fill:#404040" d="M135.20,36.19L135.39,36.25L135.31,39.28L135.83,39.46L134.75,39.61L133.84,40.69L133.14,41.83L132.99,45.18L132.56,45.27L132.38,45.19L130.71,44.93L130.52,44.86L129.88,44.77L129.53,44.70L129.08,44.61L129.36,44.76L129.54,44.94L129.53,47.70L128.69,47.61L128.56,47.26L128.68,44.40L128.99,44.02L129.07,42.90L129.17,42.06L129.16,41.39L129.16,40.56L129.97,39.45L129.75,38.76L128.46,40.49L128.32,44.35L128.04,44.45L127.68,44.36L127.04,44.26L126.87,44.20L126.20,44.10L125.86,44.03L125.20,43.92L125.01,43.86L124.41,43.78L124.31,45.35L124.15,45.75L123.81,45.64L123.65,45.41L123.63,42.77L123.49,44.41L123.02,44.36L123.03,41.91L123.30,41.85L123.29,40.92L123.10,40.93L123.03,41.91L122.62,41.78L122.47,43.68L122.20,44.28L121.98,44.08L121.97,42.44L121.81,42.89L121.53,42.89L121.63,42.70L121.70,41.06L121.79,41.01L121.80,40.10L121.70,41.06L121.27,40.93L121.14,42.75L120.95,41.46L120.85,41.43L120.72,40.73L120.96,40.11L120.70,40.02L120.63,39.10L120.53,40.06L120.06,40.03L119.97,39.91L119.98,38.78L119.52,39.12L119.14,38.90L119.12,38.12L119.01,38.10L118.64,37.90L118.64,36.78L118.49,36.88L118.47,34.51L118.64,34.34L118.75,33.43L118.97,33.37L118.97,35.47L119.13,35.50L119.24,33.44L119.67,33.33L120.03,33.42z"/><path style="fill:#333333" d="M130.52,44.86L130.25,44.96L130.70,45.07L130.53,47.35L129.53,47.70L129.54,44.94L129.88,44.77z"/><path style="fill:#404040" d="M132.04,45.28L132.54,45.37L132.65,45.46L132.73,48.25L132.65,48.37L131.70,48.21L131.65,46.61L131.50,47.58L130.53,47.35L130.70,45.07z"/><path style="fill:#000020" d="M132.54,45.37L132.04,45.28L132.38,45.19L132.56,45.27z"/><path style="fill:#333333" d="M152.11,33.88L152.18,34.50L152.54,34.38L152.59,34.99L152.13,34.92L152.02,35.20L151.94,35.89L151.85,36.50L151.13,37.95L149.94,39.27L148.29,40.46L146.29,41.46L143.79,42.30L140.33,43.01L135.43,43.28L135.39,44.36L135.21,44.57L134.54,44.78L134.37,44.70L134.33,44.12L133.99,44.52L133.85,47.76L132.94,47.98L132.73,48.25L132.65,45.46L132.54,45.37L132.56,45.27L132.99,45.18L133.14,41.83L133.84,40.69L134.75,39.61L135.83,39.46L135.31,39.28L135.39,36.25L136.54,36.43L142.55,37.53L145.06,37.94L145.56,37.94L146.72,37.75L147.69,37.02L152.04,31.22z"/><path style="fill:#cccccc" d="M120.29,74.07L120.45,76.18L121.20,77.75L120.64,77.33L119.95,76.19L119.79,75.51L119.79,73.55L120.32,72.61z"/><path style="fill:#808080" d="M121.14,42.75L121.53,42.89L121.81,42.89L121.98,44.08L122.20,44.28L122.31,44.48L123.02,44.36L123.49,44.41L123.65,45.41L123.81,45.64L124.15,45.75L124.41,45.82L125.02,45.70L125.81,45.78L125.92,46.68L126.12,46.82L126.68,46.87L127.70,46.70L128.50,46.90L128.56,47.26L128.69,47.61L129.53,47.70L130.53,47.35L131.50,47.58L131.60,48.19L131.70,48.21L132.65,48.37L132.73,48.25L132.94,47.98L133.85,47.76L134.79,48.14L134.91,48.41L135.19,48.62L134.54,82.09L132.20,82.00L130.70,81.83L127.46,81.19L124.30,80.02L122.31,78.83L121.20,77.75L120.45,76.18L120.29,74.07L120.32,72.61L120.85,41.43L120.95,41.46z"/><path style="fill:#404040" d="M152.70,36.06L152.72,36.40L151.94,36.76L152.43,37.23L152.41,37.55L151.77,37.60L151.59,37.77L151.87,38.36L150.78,38.80L150.85,39.10L151.02,39.28L150.98,39.45L149.93,39.60L149.75,39.77L149.90,40.09L149.86,40.38L149.28,40.44L149.23,41.35L149.06,41.36L149.03,40.46L148.62,40.61L148.60,40.88L148.52,41.22L147.95,41.28L147.90,42.20L147.55,42.19L147.50,41.27L147.28,41.24L146.99,41.83L146.50,42.00L146.47,43.00L146.66,43.14L146.52,46.08L145.89,45.86L145.89,43.11L146.19,42.96L145.89,42.86L145.84,41.94L145.49,41.97L145.15,42.49L144.79,42.63L144.73,43.53L144.39,43.61L144.26,43.64L144.08,47.11L143.22,46.87L143.48,43.82L143.99,43.51L144.00,42.60L143.61,42.60L143.35,42.87L142.78,43.13L142.74,44.04L142.57,44.12L142.20,44.05L142.03,43.87L142.00,42.94L141.78,42.92L141.32,43.33L140.77,43.45L140.72,44.36L140.39,44.44L140.22,44.37L139.89,44.19L139.83,43.27L139.62,43.26L138.78,43.79L138.66,44.69L138.33,44.63L138.08,48.26L137.67,47.95L137.05,47.87L137.24,44.57L138.01,44.48L137.72,44.36L137.65,43.44L137.28,43.44L136.60,43.79L136.56,44.70L136.21,44.77L135.72,44.53L135.39,44.36L135.43,43.28L140.33,43.01L143.79,42.30L146.29,41.46L148.29,40.46L149.94,39.27L151.13,37.95L151.85,36.50L151.94,35.89L152.06,35.87z"/><path style="fill:#333333" d="M142.74,44.04L142.78,43.13L143.35,42.87L143.61,42.60L144.00,42.60L143.99,43.51L143.48,43.82L143.22,46.87L142.38,47.07L142.33,45.28L142.26,47.07L142.21,47.74L141.72,47.92L141.39,47.87L141.34,44.47L141.23,44.44L140.72,44.36L140.77,43.45L141.32,43.33L141.78,42.92L142.00,42.94L142.03,43.87L141.77,43.97L142.20,44.05L142.57,44.12L143.01,44.14z"/><path style="fill:#333333" d="M125.01,43.86L124.74,43.95L125.00,44.11L125.02,45.70L124.41,45.82L124.15,45.75L124.31,45.35L124.41,43.78z"/><path style="fill:#404040" d="M126.18,44.20L126.54,44.27L126.71,44.44L126.68,46.87L126.12,46.82L125.92,46.68L125.81,45.78L125.02,45.70L125.00,44.11L125.19,44.03L125.70,44.11z"/><path style="fill:#000020" d="M142.40,47.71L142.21,47.74L142.26,47.07L142.38,47.07z"/><path style="fill:#000020" d="M136.04,48.53L135.19,48.62L134.91,48.41L135.20,48.38L136.02,48.26z"/><path style="fill:#333333" d="M149.23,41.35L149.28,40.44L149.86,40.38L149.93,41.73L149.95,41.91L149.79,43.09L149.70,41.55z"/><path style="fill:#333333" d="M127.68,44.36L127.68,44.60L127.70,46.70L126.68,46.87L126.71,44.44L127.04,44.26z"/><path style="fill:#cccccc" d="M165.20,81.85L165.13,89.98L165.05,94.98L164.96,100.16L164.88,101.28L163.30,103.54L162.37,104.28L160.58,104.46L149.07,105.36L148.91,105.37L135.88,106.37L134.27,106.39L134.20,106.49L129.36,106.37L127.69,106.20L125.35,105.87L120.35,104.95L119.68,104.86L114.35,103.86L91.58,99.72L90.64,99.15L124.97,105.39L128.98,105.89L131.49,105.95L131.81,89.58L131.92,86.85L138.16,86.58L163.19,84.59L162.70,83.67L162.70,83.08L164.12,81.35z"/><path style="fill:#cccccc" d="M96.01,83.46L95.86,83.68L95.42,84.56L95.42,85.53L96.02,86.79L95.86,87.03L95.44,87.03L94.91,86.03L94.91,84.23L95.82,83.27z"/><path style="fill:#cccccc" d="M95.77,93.61L95.25,94.75L95.25,95.72L95.84,96.99L95.70,97.21L95.27,97.21L94.74,96.39L94.75,94.41L95.53,93.54z"/><path style="fill:#808080" d="M144.08,47.11L144.10,47.25L143.79,47.48L142.40,47.71L142.38,47.07L143.22,46.87z"/><path style="fill:#808080" d="M138.08,48.26L138.36,48.38L138.71,48.46L136.04,48.53L136.02,48.26L136.42,47.95L137.05,47.87L137.67,47.95z"/><path style="fill:#808080" d="M125.35,105.87L127.69,106.20L129.36,106.37L134.20,106.49L133.73,131.83L132.71,131.83L131.37,131.75L130.86,131.67L130.04,131.58L129.70,131.49L128.70,131.37L128.03,131.20L127.31,130.93L126.69,130.87L126.25,130.74L126.69,130.87L127.13,131.11L128.03,131.20L128.70,131.37L129.36,131.58L130.03,131.67L130.71,131.74L131.37,131.83L132.03,131.91L133.73,132.08L133.42,152.69L137.10,152.63L139.99,152.17L142.45,151.46L145.33,150.01L146.67,148.84L147.50,147.50L147.86,145.90L148.02,144.39L148.18,144.60L148.44,145.39L148.53,145.89L148.53,146.55L148.35,147.35L147.50,148.84L146.35,149.86L144.95,150.80L143.11,151.62L140.45,152.47L137.27,152.96L133.42,153.12L133.04,174.44L131.87,174.47L130.03,174.31L128.88,174.14L126.46,173.67L123.97,172.83L121.88,171.77L121.69,171.62L120.15,170.47L118.95,168.99L118.62,167.99L118.56,166.93L118.89,146.73L118.97,145.05L119.39,144.06L119.63,145.18L119.65,143.39L119.89,128.20L120.15,126.58L119.88,126.20L119.62,125.76L119.56,119.52L119.72,109.51L119.90,105.05L120.35,104.95z"/><path style="fill:#beffff" d="M130.88,15.56L131.22,15.73L130.99,16.15L130.93,18.30L131.12,18.44L148.89,21.67L150.76,19.19L150.89,19.17L151.07,19.24L152.90,19.57L157.35,20.42L158.21,21.08L158.22,21.53L148.01,35.50L146.96,36.46L145.27,36.77L145.22,37.86L145.06,37.94L142.55,37.53L136.54,36.43L135.39,36.25L135.20,36.19L120.03,33.42L119.67,33.33L119.02,33.25L115.52,32.58L114.61,32.45L113.29,31.77L113.27,29.81L123.73,15.57L124.25,15.08L125.35,14.82L126.70,14.82z"/><path style="fill:#404040" d="M134.37,44.70L134.09,44.81L134.54,44.78L135.21,44.57L135.20,48.38L134.91,48.41L134.79,48.14L133.85,47.76L133.99,44.52L134.33,44.12z"/><path style="fill:#ffffff" d="M125.70,19.32L126.64,19.75L127.07,20.20L127.00,20.87L126.14,21.31L124.74,21.58L124.64,24.49L124.52,24.83L123.63,24.77L122.64,24.25L122.47,24.09L122.31,23.55L122.31,20.35L122.64,19.82L123.68,19.32L125.02,19.23z"/><path style="fill:#000020" d="M128.03,44.53L127.68,44.60L127.68,44.36L128.04,44.45z"/><path style="fill:#000020" d="M133.04,174.57L131.87,174.47L133.04,174.44z"/><path style="fill:#000020" d="M131.54,193.26L130.86,193.17L131.54,193.13z"/><path style="fill:#000019" d="M150.11,40.54L150.11,40.73L150.10,41.57L149.93,41.73L149.86,40.38L149.90,40.09z"/><path style="fill:#000019" d="M135.04,174.57L133.04,174.57L133.04,174.44L135.04,174.47z"/><path style="fill:#fff2e8" d="M100.61,63.65L98.98,65.80L98.25,65.65L97.85,65.76L97.77,65.62L97.78,64.76L98.04,63.82L98.52,63.31L98.82,63.29z"/><path style="fill:#fff2e8" d="M115.36,65.13L115.52,65.29L115.12,65.88L114.63,67.39L114.39,67.76L113.78,66.68L113.69,66.64L112.28,65.81L112.28,65.39L112.85,64.74L113.68,64.80z"/><path style="fill:#fff2e8" d="M94.29,72.77L94.35,73.62L94.34,75.25L91.42,74.69L91.18,74.77L91.10,74.63L91.11,73.94L91.24,73.05L91.81,72.41L92.31,72.40z"/><path style="fill:#fff2e8" d="M108.51,74.15L108.83,74.31L108.63,74.57L107.71,76.77L107.10,75.69L107.00,75.67L105.60,74.83L105.58,74.56L106.20,73.78z"/><path style="fill:#fff2e8" d="M98.10,83.02L99.10,83.52L99.85,84.30L100.10,85.18L100.11,86.42L99.81,87.12L99.55,87.21L99.48,87.43L99.00,87.68L97.47,87.68L96.94,87.51L96.02,86.79L95.42,85.53L95.42,84.56L95.86,83.68L96.01,83.46L96.11,83.13L96.21,83.02L97.44,82.87z"/><path style="fill:#fff2e8" d="M155.42,92.35L155.20,92.77L155.18,93.54L155.69,94.70L155.69,95.93L155.52,96.43L155.11,97.02L154.91,97.45L154.41,97.69L153.97,97.71L153.90,97.81L153.42,97.95L152.56,97.86L151.53,97.53L150.70,96.85L150.54,96.65L149.83,95.55L149.67,94.88L149.67,93.91L150.35,92.59L151.33,92.08L153.06,91.77L153.90,91.78z"/><path style="fill:#fff2e8" d="M98.93,93.70L99.85,94.65L99.94,96.60L99.69,97.31L99.47,97.51L99.22,97.56L99.15,97.76L98.83,97.87L97.09,97.88L96.27,97.36L95.84,96.99L95.25,95.72L95.25,94.75L95.77,93.61L96.19,93.19L97.77,93.20z"/><path style="fill:#bfffc0" d="M128.64,15.91L129.49,16.58L129.49,17.14L129.25,17.41L128.27,17.93L125.80,17.93L124.65,17.41L124.46,17.10L124.47,16.30L125.41,15.74L126.09,15.58L127.47,15.58z"/><path style="fill:#bfffc0" d="M155.85,20.92L156.54,21.42L156.53,21.98L156.36,22.32L155.64,22.77L154.80,22.93L153.18,22.93L152.02,22.58L151.52,22.09L151.52,21.31L152.29,20.75L152.96,20.59L155.02,20.58z"/><path style="fill:#bfffc0" d="M119.30,28.93L119.98,29.43L119.98,30.00L119.49,30.52L118.24,30.94L116.62,30.94L115.62,30.61L114.96,30.10L114.96,29.33L115.74,28.77L116.23,28.60L118.46,28.60z"/><path style="fill:#98cccc" d="M125.79,16.65L126.59,16.23L127.01,16.23L127.02,17.32L126.30,17.26L125.79,16.91z"/><path style="fill:#98cccc" d="M158.20,22.82L152.04,31.22L147.69,37.02L146.72,37.75L145.56,37.94L145.22,37.86L145.27,36.77L146.96,36.46L148.01,35.50L158.22,21.53z"/><path style="fill:#333333" d="M151.94,36.76L152.72,36.40L152.74,37.38L152.43,37.23z"/><path style="fill:#333333" d="M151.59,37.77L151.77,37.60L152.41,37.55L152.44,38.40L151.96,38.79L151.86,39.51L151.58,39.61L151.12,39.61L151.10,39.73L151.03,40.36L150.57,40.60L150.11,40.54L149.90,40.09L149.75,39.77L149.93,39.60L150.98,39.45L151.02,39.28L150.85,39.10L150.78,38.80L151.87,38.36z"/><path style="fill:#333333" d="M129.97,39.45L129.16,40.56L129.03,41.36L128.88,41.73L129.00,42.23L129.07,42.90L128.99,44.02L128.68,44.40L128.50,44.57L128.03,44.53L128.04,44.45L128.32,44.35L128.46,40.49L129.75,38.76z"/><path style="fill:#333333" d="M148.60,40.88L148.62,40.61L149.03,40.46L149.06,41.36L148.95,41.47L148.94,44.25L148.85,44.53L148.43,44.90L148.37,44.75L148.52,42.28L148.25,42.26L147.90,42.20L147.95,41.28L148.52,41.22L148.67,42.02L148.67,40.94z"/><path style="fill:#333333" d="M146.47,43.00L146.50,42.00L146.99,41.83L147.28,41.24L147.50,41.27L147.55,42.19L147.28,42.30L147.27,44.74L147.27,45.74L146.56,46.21L146.52,46.08L146.66,43.14z"/><path style="fill:#333333" d="M145.89,42.86L145.60,42.96L145.89,43.11L145.89,45.86L145.12,46.13L145.07,46.89L144.10,47.25L144.08,47.11L144.26,43.64L144.39,43.61L144.83,43.63L144.73,43.53L144.79,42.63L145.15,42.49L145.49,41.97L145.84,41.94z"/><path style="fill:#333333" d="M139.89,44.19L139.38,44.40L139.14,44.51L139.33,46.86L139.38,44.40L140.22,44.37L140.39,44.44L140.42,44.57L140.39,47.54L139.59,47.62L139.17,48.24L138.36,48.38L138.08,48.26L138.33,44.63L138.66,44.69L138.78,43.79L139.62,43.26L139.83,43.27z"/><path style="fill:#333333" d="M136.56,44.70L136.60,43.79L137.28,43.44L137.65,43.44L137.72,44.36L137.24,44.57L137.05,47.87L136.42,47.95L136.02,48.26L135.20,48.38L135.21,44.57L135.72,44.53L136.21,44.77L136.84,44.81z"/><path style="fill:#cccccc" d="M150.76,19.19L148.89,21.67L149.00,19.63L149.36,18.99L150.72,17.18z"/><path style="fill:#cccccc" d="M127.07,23.71L126.80,24.30L125.76,24.77L124.52,24.83L124.64,24.49L124.74,21.58L126.14,21.31L127.00,20.87z"/><path style="fill:#cccccc" d="M114.39,67.76L114.67,68.31L114.63,68.41L109.66,75.14L109.14,74.32L109.00,74.25L108.51,74.15L106.20,73.78L106.53,73.34L108.11,73.68L108.72,73.67L113.63,66.87L113.69,66.64L113.78,66.68z"/><path style="fill:#cccccc" d="M107.71,76.77L107.81,77.29L106.94,76.49L107.00,75.67L107.10,75.69z"/><path style="fill:#cccccc" d="M168.14,77.94L168.13,80.30L167.89,95.48L167.79,97.32L166.21,99.61L165.92,99.82L166.04,80.34L165.63,79.18L167.33,76.83L167.54,76.81z"/><path style="fill:#cccccc" d="M133.04,182.12L133.09,177.49L136.10,177.33L138.95,176.84L140.94,176.16L142.68,175.23L144.00,174.05L144.70,172.76L144.76,174.78L144.67,177.38L144.51,178.06L143.93,178.82L142.33,180.23L142.18,183.28L142.09,188.97L141.83,190.07L141.01,190.92L139.68,191.93L138.66,192.41L136.61,193.03L134.87,193.26L131.54,193.26L131.54,193.13L132.82,193.08L133.04,182.28L135.00,182.17z"/><path style="fill:#666666" d="M149.60,68.78L149.44,75.79L149.16,76.89L149.00,78.58L148.52,78.52L148.12,78.67L147.27,79.33L145.17,80.40L142.96,81.19L140.22,81.76L139.22,81.93L137.37,82.09L134.54,82.09L135.19,48.62L136.04,48.53L138.71,48.46L139.22,48.37L141.64,48.01L141.72,47.92L142.16,47.85L142.21,47.74L142.40,47.71L143.79,47.48L144.10,47.25L145.07,46.89L146.03,46.54L146.56,46.21L147.27,45.74L147.40,45.71L148.37,45.03L148.43,44.90L148.85,44.53L148.94,44.25L149.10,43.41L149.40,43.38L149.67,43.37L149.79,43.09L149.95,41.91L150.07,41.94z"/><path style="fill:#666666" d="M148.94,109.17L148.77,119.19L148.61,125.71L148.20,126.88L148.00,126.97L148.10,130.71L147.93,140.89L148.02,144.39L147.86,145.90L147.50,147.50L146.67,148.84L145.33,150.01L142.45,151.46L139.99,152.17L137.10,152.63L133.42,152.69L133.73,132.08L134.00,131.93L133.73,131.83L134.20,106.49L135.88,106.37L148.91,105.37z"/><path style="fill:#666666" d="M148.43,155.08L148.27,165.09L148.17,168.20L148.01,168.88L147.45,169.82L146.35,171.06L144.85,172.09L144.57,172.23L143.90,172.64L142.94,172.99L139.88,173.97L138.05,174.23L136.71,174.40L135.72,174.47L135.04,174.47L133.04,174.44L133.42,153.12L137.27,152.96L140.45,152.47L143.11,151.62L144.95,150.80L146.35,149.86L147.50,148.84L148.35,147.35L148.53,146.55z"/><path style="fill:#beffff" d="M127.98,16.59L128.01,16.97L127.69,17.23L127.02,17.32L127.01,16.23z"/><path style="fill:#ffffff" d="M147.73,23.34L148.34,23.59L149.19,24.25L149.21,24.70L148.86,25.00L147.96,25.44L146.78,25.59L146.73,28.84L145.66,28.78L144.68,28.26L144.50,28.10L144.50,24.15L145.11,23.59L145.88,23.33L146.90,23.25z"/><path style="fill:#ffffff" d="M150.70,96.85L151.53,97.53L152.56,97.86L153.42,97.95L153.83,97.92L153.90,97.81L154.41,97.82L154.34,97.92L153.64,98.22L152.29,98.38L150.83,98.22L149.78,97.75L149.93,97.35L150.54,96.65z"/><path style="fill:#ccc1ba" d="M98.98,65.80L98.70,66.33L98.43,66.35L97.93,66.00L97.85,65.76L98.25,65.65z"/><path style="fill:#ccc1ba" d="M116.05,65.60L116.08,66.04L116.19,66.07L116.26,66.17L115.70,66.93L115.47,66.65L114.99,67.62L114.87,68.11L114.67,68.31L114.39,67.76L114.63,67.39L115.12,65.88L115.52,65.29L115.85,65.22z"/><path style="fill:#ccc1ba" d="M109.66,75.14L109.62,75.26L109.04,75.94L108.74,75.82L108.33,76.74L108.19,77.11L108.04,77.37L107.81,77.29L107.71,76.77L108.63,74.57L108.83,74.31L109.00,74.25L109.14,74.32z"/><path style="fill:#ccc1ba" d="M94.34,75.25L94.41,75.34L94.02,75.67L91.36,75.22L91.18,74.77L91.42,74.69z"/><path style="fill:#ccc1ba" d="M100.44,85.18L100.62,86.25L100.11,86.92L99.81,87.12L100.11,86.42L100.10,85.18L99.85,84.30L99.94,84.34z"/><path style="fill:#ccc1ba" d="M98.45,84.68L97.04,85.02L96.75,85.75L96.71,84.69L97.55,84.34L97.93,84.33z"/><path style="fill:#ccc1ba" d="M99.77,87.26L99.48,87.43L99.55,87.21L99.81,87.12z"/><path style="fill:#ccc1ba" d="M156.04,92.68L156.69,93.53L157.04,94.76L156.71,95.31L155.07,97.49L154.91,97.45L155.11,97.02L155.52,96.43L155.69,95.93L155.69,94.70L155.18,93.54L155.20,92.77L155.42,92.35z"/><path style="fill:#ccc1ba" d="M153.21,93.77L152.63,94.05L151.83,94.08L151.84,94.36L152.71,95.18L152.87,95.59L152.45,96.22L152.19,96.21L151.35,95.37L151.34,94.59L151.50,93.92L151.89,93.77L153.19,93.69z"/><path style="fill:#ccc1ba" d="M98.26,94.92L96.87,95.20L96.59,95.93L96.54,94.87L97.31,94.60L97.81,94.62z"/><path style="fill:#ccc1ba" d="M100.27,95.36L100.45,96.43L99.69,97.31L99.94,96.60L99.85,94.65z"/><path style="fill:#ccc1ba" d="M154.41,97.82L153.90,97.81L153.97,97.71L154.41,97.69z"/><path style="fill:#ccc1ba" d="M99.45,97.62L99.15,97.76L99.22,97.56L99.47,97.51z"/><path style="fill:#000020" d="M131.22,15.73L130.88,15.56L131.32,15.56z"/><path style="fill:#000020" d="M150.73,17.02L150.29,16.91L150.67,16.90z"/><path style="fill:#000020" d="M150.89,19.17L150.76,19.19L150.72,17.18L150.73,17.02L150.85,17.07z"/><path style="fill:#000020" d="M127.07,23.71L127.00,20.87L127.07,20.20L127.14,20.25z"/><path style="fill:#000020" d="M118.97,33.37L119.02,33.25L119.67,33.33L119.24,33.44L119.13,35.50L118.97,35.47z"/><path style="fill:#000020" d="M152.10,35.71L152.06,35.87L151.94,35.89L152.02,35.20z"/><path style="fill:#000020" d="M152.85,37.34L152.74,37.38L152.72,36.40L152.70,36.06L152.72,35.38L152.74,35.09L152.85,35.12z"/><path style="fill:#000020" d="M118.64,37.90L118.49,36.88L118.64,36.78z"/><path style="fill:#000020" d="M152.44,38.40L152.41,37.55L152.57,37.60z"/><path style="fill:#000020" d="M119.14,38.90L119.01,38.10L119.12,38.12z"/><path style="fill:#000020" d="M119.52,39.12L119.98,38.78L119.97,39.91L119.78,39.29z"/><path style="fill:#000020" d="M151.10,39.73L151.12,39.61L151.58,39.61z"/><path style="fill:#000020" d="M120.53,40.06L120.70,40.02L120.96,40.11L120.72,40.73z"/><path style="fill:#000020" d="M150.24,40.77L150.11,40.73L150.11,40.54L150.57,40.60z"/><path style="fill:#000020" d="M128.88,41.73L129.03,41.36L129.16,41.39L129.17,42.06L129.07,42.06z"/><path style="fill:#000020" d="M150.07,41.94L149.95,41.91L149.93,41.73L150.10,41.57L150.21,41.58z"/><path style="fill:#000020" d="M145.89,43.11L145.60,42.96L145.89,42.86L146.19,42.96z"/><path style="fill:#000020" d="M121.98,44.08L121.81,42.89L121.97,42.44z"/><path style="fill:#000020" d="M126.18,44.20L125.70,44.11L125.86,44.03L126.20,44.10z"/><path style="fill:#000020" d="M140.42,44.57L140.39,44.44L140.72,44.36L141.23,44.44z"/><path style="fill:#000020" d="M137.24,44.57L137.72,44.36L138.01,44.48z"/><path style="fill:#000020" d="M134.09,44.81L134.37,44.70L134.54,44.78z"/><path style="fill:#000020" d="M123.65,45.41L123.49,44.41L123.63,42.77z"/><path style="fill:#000020" d="M147.40,45.71L147.27,45.74L147.27,44.74L147.39,44.74z"/><path style="fill:#000020" d="M128.56,47.26L128.50,46.90L128.50,44.57L128.68,44.40z"/><path style="fill:#000020" d="M142.16,47.85L141.72,47.92L142.21,47.74z"/><path style="fill:#000020" d="M131.70,48.21L131.60,48.19L131.50,47.58L131.65,46.61z"/><path style="fill:#000020" d="M139.22,48.37L138.71,48.46L138.36,48.38L139.17,48.24z"/><path style="fill:#000020" d="M115.04,67.77L114.87,68.11L114.99,67.62z"/><path style="fill:#000020" d="M92.31,72.40L91.81,72.41L92.24,72.33z"/><path style="fill:#000020" d="M94.35,73.62L94.29,72.77L94.42,71.99z"/><path style="fill:#000020" d="M108.44,76.91L108.19,77.11L108.33,76.74L108.45,76.78z"/><path style="fill:#000020" d="M168.13,80.30L168.14,77.94L168.21,78.00z"/><path style="fill:#000020" d="M95.82,83.27L96.11,83.13L96.01,83.46z"/><path style="fill:#000020" d="M153.83,97.92L153.42,97.95L153.90,97.81z"/><path style="fill:#000020" d="M90.64,99.15L90.53,99.10L90.58,94.86z"/><path style="fill:#000020" d="M165.12,99.83L165.08,100.12L164.96,100.16L165.05,94.98z"/><path style="fill:#000020" d="M148.94,109.17L148.91,105.37L149.07,105.36z"/><path style="fill:#000020" d="M120.35,104.95L119.90,105.05L119.72,109.51L119.68,104.86z"/><path style="fill:#000020" d="M120.15,126.58L119.89,128.20L119.88,126.20z"/><path style="fill:#000020" d="M148.00,126.97L148.20,126.88L148.10,130.71z"/><path style="fill:#000020" d="M130.03,131.67L129.36,131.58L129.70,131.49L130.04,131.58z"/><path style="fill:#000020" d="M131.37,131.83L130.71,131.74L130.86,131.67L131.37,131.75z"/><path style="fill:#000020" d="M133.73,132.08L132.03,131.91L132.71,131.83L133.73,131.83L134.00,131.93z"/><path style="fill:#000020" d="M119.39,144.06L119.65,143.39L119.63,145.18z"/><path style="fill:#000020" d="M148.53,145.89L148.44,145.39L148.51,145.45z"/><path style="fill:#000020" d="M144.57,172.23L144.85,172.09L144.76,174.78L144.70,172.76z"/><path style="fill:#000020" d="M135.04,174.57L135.04,174.47L135.72,174.47z"/><path style="fill:#000020" d="M121.88,171.77L121.80,175.06L121.69,171.62z"/><path style="fill:#000020" d="M124.14,181.24L124.11,179.98L124.27,179.96z"/><path style="fill:#000020" d="M133.04,182.28L131.75,182.17L133.04,182.12z"/><path style="fill:#000019" d="M153.56,22.25L154.08,22.16L154.42,22.25z"/><path style="fill:#000019" d="M117.18,30.26L117.52,30.18L117.69,30.26z"/><path style="fill:#000019" d="M152.74,37.38L152.57,37.60L152.41,37.55L152.43,37.23z"/><path style="fill:#000019" d="M145.06,37.94L145.22,37.86L145.56,37.94z"/><path style="fill:#000019" d="M129.16,41.39L129.03,41.36L129.16,40.56z"/><path style="fill:#000019" d="M148.67,42.02L148.52,41.22L148.60,40.88L148.67,40.94z"/><path style="fill:#000019" d="M129.07,42.90L129.00,42.23L129.07,42.06L129.17,42.06z"/><path style="fill:#000019" d="M144.39,43.61L144.73,43.53L144.83,43.63z"/><path style="fill:#000019" d="M142.20,44.05L141.77,43.97L142.03,43.87z"/><path style="fill:#000019" d="M125.19,44.03L125.00,44.11L124.74,43.95L125.01,43.86L125.20,43.92z"/><path style="fill:#000019" d="M149.70,41.55L149.40,41.58L149.12,41.60L149.10,43.41L148.94,44.25L148.95,41.47L149.06,41.36L149.23,41.35z"/><path style="fill:#000019" d="M142.57,44.12L142.74,44.04L143.01,44.14z"/><path style="fill:#000019" d="M140.22,44.37L139.38,44.40L139.89,44.19z"/><path style="fill:#000019" d="M126.71,44.44L126.54,44.27L126.87,44.20L127.04,44.26z"/><path style="fill:#000019" d="M135.72,44.53L135.21,44.57L135.39,44.36z"/><path style="fill:#000019" d="M147.90,42.43L147.44,42.44L147.39,44.74L147.27,44.74L147.28,42.30L147.55,42.19L147.90,42.20L148.25,42.26z"/><path style="fill:#000019" d="M139.14,44.51L139.38,44.40L139.33,46.86z"/><path style="fill:#000019" d="M136.21,44.77L136.56,44.70L136.84,44.81z"/><path style="fill:#000019" d="M129.54,44.94L129.36,44.76L129.53,44.70L129.88,44.77z"/><path style="fill:#000019" d="M130.70,45.07L130.25,44.96L130.52,44.86L130.71,44.93z"/><path style="fill:#000019" d="M142.38,47.07L142.26,47.07L142.33,45.28z"/><path style="fill:#000019" d="M115.85,65.22L115.52,65.29L115.36,65.13z"/><path style="fill:#000019" d="M116.23,65.94L116.19,66.07L116.08,66.04L116.05,65.60z"/><path style="fill:#000019" d="M109.00,74.25L108.83,74.31L108.51,74.15z"/><path style="fill:#000019" d="M97.81,94.62L97.31,94.60L97.75,94.53z"/><path style="fill:#000019" d="M134.20,106.49L134.27,106.39L135.88,106.37z"/><path style="fill:#000019" d="M133.04,182.28L133.04,182.12L135.00,182.17z"/><path style="fill:#fff2e8" d="M115.70,66.93L115.64,67.06L115.04,67.77L114.99,67.62L115.47,66.65z"/><path style="fill:#fff2e8" d="M109.04,75.94L108.96,76.24L108.45,76.78L108.33,76.74L108.74,75.82z"/><path style="fill:#bfffc0" d="M146.17,33.77L147.02,34.44L147.02,35.00L146.78,35.27L145.79,35.79L143.32,35.79L142.18,35.27L141.98,34.95L142.00,34.34L142.48,33.82L143.78,33.44L145.00,33.44z"/><path style="fill:#98cccc" d="M152.79,21.74L153.16,21.29L154.08,21.23L154.08,22.16L153.56,22.25L153.01,22.08z"/><path style="fill:#98cccc" d="M116.23,29.75L116.61,29.30L117.52,29.24L117.52,30.18L117.18,30.26L116.45,30.10z"/><path style="fill:#98cccc" d="M143.49,34.33L144.12,34.09L144.59,34.21L144.56,35.20L143.82,35.12L143.50,34.94z"/><path style="fill:#333333" d="M152.06,35.87L152.10,35.71L152.72,35.38L152.70,36.06z"/><path style="fill:#333333" d="M120.70,40.02L120.53,40.06L120.63,39.10z"/><path style="fill:#333333" d="M121.79,41.01L121.70,41.06L121.80,40.10z"/><path style="fill:#333333" d="M121.70,41.06L121.63,42.70L121.53,42.89L121.14,42.75L121.27,40.93z"/><path style="fill:#333333" d="M123.30,41.85L123.03,41.91L123.10,40.93L123.29,40.92z"/><path style="fill:#333333" d="M123.03,41.91L123.02,44.36L122.31,44.48L122.20,44.28L122.47,43.68L122.62,41.78z"/><path style="fill:#333333" d="M149.40,43.38L149.10,43.41L149.12,41.60L149.40,41.58z"/><path style="fill:#333333" d="M125.86,44.03L125.70,44.11L125.19,44.03L125.20,43.92z"/><path style="fill:#333333" d="M126.87,44.20L126.54,44.27L126.18,44.20L126.20,44.10z"/><path style="fill:#333333" d="M147.90,44.70L147.39,44.74L147.44,42.44L147.90,42.43z"/><path style="fill:#333333" d="M129.53,44.70L129.36,44.76L129.08,44.61z"/><path style="fill:#333333" d="M132.38,45.19L132.04,45.28L130.70,45.07L130.71,44.93z"/><path style="fill:#cccccc" d="M149.18,27.66L148.95,28.26L147.96,28.78L146.73,28.84L146.78,25.59L147.96,25.44L148.86,25.00L149.21,24.70z"/><path style="fill:#cccccc" d="M116.79,65.48L116.75,65.65L116.23,65.94L116.05,65.60L115.85,65.22L115.36,65.13L113.68,64.80L112.85,64.74L113.08,64.32L115.28,64.72L115.64,64.15z"/><path style="fill:#cccccc" d="M165.67,100.07L165.08,100.12L165.12,99.83L165.92,99.82z"/><path style="fill:#cccccc" d="M143.43,173.81L142.09,174.98L140.83,175.72L138.61,176.50L135.77,177.00L133.09,177.06L133.09,175.15L137.61,174.67L139.63,174.17L139.88,173.97L142.94,172.99L143.90,172.64z"/><path style="fill:#cccccc" d="M127.65,192.20L127.11,192.20L126.92,192.00L127.31,192.00z"/><path style="fill:#cccccc" d="M131.48,193.03L131.54,193.13L130.86,193.17L129.14,192.86L128.08,192.51z"/><path style="fill:#666666" d="M128.03,131.20L127.13,131.11L126.69,130.87L127.31,130.93z"/><path style="fill:#666666" d="M129.70,131.49L129.36,131.58L128.70,131.37z"/><path style="fill:#666666" d="M130.86,131.67L130.71,131.74L130.03,131.67L130.04,131.58z"/><path style="fill:#666666" d="M132.71,131.83L132.03,131.91L131.37,131.83L131.37,131.75z"/><path style="fill:#808080" d="M148.43,44.90L148.37,45.03L147.40,45.71L147.39,44.74L147.90,44.70L148.37,44.75z"/><path style="fill:#808080" d="M146.52,46.08L146.56,46.21L146.03,46.54L145.07,46.89L145.12,46.13L145.89,45.86z"/><path style="fill:#808080" d="M141.39,47.87L141.72,47.92L141.64,48.01L139.22,48.37L139.17,48.24L139.59,47.62L140.39,47.54z"/><path style="fill:#beffff" d="M154.85,21.42L155.20,21.83L154.42,22.25L154.08,22.16L154.08,21.23L154.53,21.24z"/><path style="fill:#beffff" d="M118.64,29.76L118.58,29.92L117.69,30.26L117.52,30.18L117.52,29.24L117.97,29.25z"/><path style="fill:#beffff" d="M145.54,34.41L145.68,34.82L144.56,35.20L144.59,34.21L145.34,34.27z"/><path style="fill:#404040" d="M152.54,34.08L152.54,34.38L152.18,34.50L152.11,33.88z"/><path style="fill:#404040" d="M152.59,34.99L152.74,35.09L152.72,35.38L152.10,35.71L152.02,35.20L152.13,34.92z"/><path style="fill:#404040" d="M150.21,41.58L150.10,41.57L150.11,40.73L150.24,40.77z"/><path style="fill:#404040" d="M129.07,42.06L129.00,42.23L128.88,41.73z"/><path style="fill:#404040" d="M134.16,42.92L133.99,43.34L133.82,43.31L133.76,42.78L133.99,42.76z"/><path style="fill:#404040" d="M149.79,43.09L149.67,43.37L149.40,43.38L149.40,41.58L149.70,41.55z"/><path style="fill:#404040" d="M148.37,44.75L147.90,44.70L147.90,42.43L148.25,42.26L148.52,42.28z"/><path style="fill:#404040" d="M127.70,46.70L127.68,44.60L128.03,44.53L128.50,44.57L128.50,46.90z"/><path style="fill:#404040" d="M140.39,47.54L140.42,44.57L141.23,44.44L141.34,44.47L141.39,47.87z"/><path style="fill:#ffffff" d="M156.52,96.26L155.54,97.29L155.07,97.49L156.71,95.31z"/><path style="fill:#ffffff" d="M154.96,97.71L154.41,97.82L154.41,97.69L154.91,97.45L155.07,97.49z"/><g id="Actor_8.0"><g style="stroke:#000000;stroke-width:0.353"><path d="M90.50,99.14L123.08,105.08L125.53,105.51L127.95,105.84L130.48,106.04L132.89,106.08L135.40,105.99L137.89,105.81L162.88,103.87L163.20,84.61L138.20,86.55L135.72,86.73L133.20,86.82L130.80,86.78L128.27,86.58L125.85,86.25L123.40,85.82L90.82,79.88L92.06,78.78L123.73,84.55L125.84,84.92L127.41,85.16L128.86,85.33L130.22,85.45L131.68,85.51L133.09,85.52L134.58,85.48L136.20,85.40L162.49,83.35L163.95,81.37"/><path d="M92.06,78.78L94.59,75.33"/><path d="M94.81,96.70L95.40,97.52L96.20,98.16L97.14,98.56L98.11,98.66L99.01,98.46L99.74,97.98L100.21,97.27L100.39,96.41L100.24,95.49L99.79,94.61L99.09,93.87L98.20,93.34L97.23,93.09L96.29,93.14L95.46,93.49L94.86,94.09L94.53,94.88L94.51,95.79L94.81,96.70"/><path d="M99.73,97.95L99.01,98.43L98.12,98.63L97.15,98.52L96.22,98.13L95.42,97.50L94.84,96.68L94.70,96.25L94.54,95.78L94.56,94.88L94.88,94.09"/><path d="M94.98,86.48L94.68,85.57L94.69,84.67L95.03,83.87L95.63,83.27L96.46,82.92L97.40,82.87L98.37,83.13L99.25,83.65L99.96,84.39L100.41,85.27L100.55,86.19L100.38,87.05L99.90,87.76L99.18,88.24L98.28,88.44L97.31,88.34L96.37,87.95L95.57,87.30L94.98,86.48"/><path d="M95.05,83.88L94.72,84.67L94.71,85.56L95.01,86.47L95.59,87.28L96.39,87.92L97.32,88.31L98.28,88.41L99.17,88.21L99.90,87.73"/><path d="M95.63,93.43L95.62,93.91"/><path d="M95.79,83.22L95.79,83.69"/><path d="M100.28,96.84L100.08,96.97L99.83,97.03"/><path d="M100.45,86.62L100.24,86.76L100.00,86.81"/><path d="M107.59,57.65L105.66,60.27"/><path d="M108.12,77.79L118.26,63.99L112.12,62.87"/><path d="M118.26,63.99L117.03,65.10L116.23,64.95"/><path d="M120.32,72.38L119.73,73.49L119.55,74.82L119.86,76.15L120.67,77.44L121.94,78.64"/><path d="M147.61,79.06L148.30,78.52"/><path d="M152.05,98.41L150.76,98.24L149.60,97.72L148.75,96.93L148.48,96.44L148.31,95.93L148.27,95.39L148.33,94.84L148.51,94.29L148.80,93.77"/><path d="M156.40,96.35L156.00,96.84L154.93,97.67L153.62,98.21L152.19,98.41L152.09,98.41L151.02,97.95L150.05,97.17L149.33,96.17L148.96,95.06L148.98,93.95L149.25,93.29"/><path d="M164.87,99.74L165.79,99.91L166.11,80.65L148.98,77.52"/><path d="M149.02,77.23L149.88,76.36L150.07,75.72L150.08,74.39L149.59,73.07L149.43,72.87"/><path d="M149.88,76.36L165.54,79.21L166.11,80.65L168.07,77.98"/><path d="M150.36,92.43L150.36,92.50"/><path d="M152.09,98.41L152.05,98.44"/><path d="M152.16,91.74L152.20,91.75"/><path d="M156.65,95.90L155.84,96.43L155.72,96.46"/><path d="M165.16,81.94L163.20,84.61L162.49,83.35"/><path d="M165.54,79.21L167.36,76.73"/></g><g style="stroke:#000000;stroke-width:0.705"><path d="M147.92,78.72L148.30,78.52L163.95,81.37L165.16,81.94L164.84,101.20L162.88,103.87L162.15,104.29L137.69,106.19L135.50,106.35L133.88,106.43L132.40,106.46L131.02,106.44L129.57,106.36L128.17,106.23L126.72,106.05L125.15,105.80L91.71,99.71L90.50,99.14L90.82,79.88L93.99,75.57L94.59,75.33L108.12,77.79"/><path d="M94.88,94.09L95.49,93.49L96.30,93.15L97.24,93.10L98.20,93.35L99.08,93.87L99.78,94.61L100.23,95.48L100.37,96.39L100.20,97.25L99.73,97.95"/><path d="M95.05,83.88L95.66,83.28L96.47,82.93L97.41,82.88L98.34,83.13L99.25,83.65L99.95,84.39L100.40,85.26L100.54,86.17L100.37,87.03L99.90,87.73"/><path d="M105.34,60.14L106.67,58.32L107.59,57.65L120.52,60.00"/><path d="M107.75,77.72L117.03,65.10"/><path d="M147.61,79.06L145.89,80.09L143.80,80.94L141.42,81.59L138.83,82.02L136.10,82.21L133.70,82.17L133.34,82.17L130.62,81.88L128.04,81.37L125.69,80.64L123.63,79.72L121.94,78.64"/><path d="M152.05,98.44L152.05,98.41L150.98,97.94L150.01,97.16L149.31,96.16L148.95,95.06L148.97,93.97L149.24,93.30"/><path d="M148.80,93.77L149.68,92.84L150.86,92.14L152.16,91.76L152.30,91.74L153.73,91.72L155.03,92.06L156.06,92.72L156.45,93.16L156.73,93.64L156.90,94.16L156.95,94.71L156.88,95.27L156.69,95.82L156.40,96.35"/><path d="M149.89,92.71L148.98,93.95"/><path d="M164.86,100.09L165.19,100.15L165.79,99.91L167.75,97.24L168.07,77.98L167.36,76.73L151.52,67.62L149.96,66.74L149.54,66.53"/><path d="M152.16,91.74L152.16,91.76"/></g></g><g id="Actor_1.0"><g style="stroke:#000000;stroke-width:0.353"><path d="M148.48,146.38L148.17,147.65L147.41,148.86L146.20,149.99L144.59,150.99L142.62,151.83L140.37,152.48L137.90,152.92L135.30,153.14L132.64,153.14L130.02,152.90L129.32,152.77L127.51,152.45L125.21,151.78L123.17,150.93L121.47,149.93L120.16,148.79L119.29,147.57L118.88,146.30"/><path d="M119.59,145.42L119.67,146.68L120.23,147.91L121.24,149.08L122.68,150.15L124.50,151.07L126.62,151.82L128.99,152.38L131.51,152.71L134.11,152.82L136.69,152.70L139.17,152.35L141.46,151.79L143.49,151.02L145.18,150.09L146.48,149.02L147.34,147.85L147.74,146.61"/></g><g style="stroke:#000000;stroke-width:0.705"><path d="M147.78,144.08L148.30,145.09L148.48,146.38L148.12,167.73L147.82,169.00L147.05,170.22L145.84,171.34L144.23,172.34L142.27,173.18L140.02,173.83L137.55,174.28L134.95,174.50L132.29,174.49L129.67,174.26L127.16,173.80L124.85,173.14L124.08,172.81L122.82,172.29L121.12,171.28L119.81,170.15L118.93,168.93L118.52,167.65L118.88,146.30L118.94,145.02L119.48,143.77L119.62,143.60"/><path d="M119.90,126.31L119.59,145.42"/><path d="M147.74,146.61L148.06,126.84"/></g></g><g id="Actor_4.0"><g style="stroke:#000000;stroke-width:0.353"><path d="M91.83,72.41L91.67,72.59L91.52,72.90L91.38,73.30L91.28,73.76L91.22,74.22L91.22,74.63L91.26,74.95L91.35,75.15"/><path d="M108.40,76.83L108.18,76.79"/><path d="M108.99,75.70L108.98,76.05"/></g><g style="stroke:#000000;stroke-width:0.705"><path d="M93.93,75.65L91.48,75.20L91.35,75.15L91.16,74.85L91.09,74.69L91.05,74.43L91.06,74.09L91.10,73.72L91.19,73.35L91.30,73.02L91.42,72.77L91.55,72.62L91.83,72.41L91.97,72.38L94.34,72.82"/><path d="M105.52,74.84L105.55,74.74L105.83,74.18L106.12,73.85L106.38,73.80L109.01,74.30L109.05,74.32L109.08,74.34L109.27,74.64L109.38,75.12L109.39,75.49"/><path d="M108.99,75.70L108.59,75.63L108.18,76.80L108.17,77.15"/></g></g><g id="Actor_3.0"><g style="stroke:#000000;stroke-width:0.353"><path d="M98.70,96.52L97.54,96.93L96.60,96.25L96.39,96.10L96.41,94.87"/><path d="M96.39,96.10L96.81,95.54L97.95,96.37L97.54,96.93"/><path d="M98.16,94.88L97.38,95.96L97.18,95.78L96.95,95.46L96.83,95.10L96.82,94.92L96.81,95.54"/><path d="M97.38,95.96L97.49,96.03L97.86,96.19L98.24,96.23L98.53,96.17L97.95,96.37"/><path d="M97.49,96.03L98.17,94.88"/><path d="M96.85,94.71L96.84,94.75L96.82,94.92L96.82,94.72"/><path d="M98.71,96.11L98.53,96.17L98.59,96.15L98.71,96.07"/><path d="M98.72,95.34L98.53,95.15"/></g><g style="stroke:#000000;stroke-width:0.705"><path d="M95.15,94.86L95.14,95.55"/><path d="M100.36,96.30L99.63,97.30L99.10,97.73L98.46,97.95L97.72,97.97L97.00,97.79L96.32,97.42L95.75,96.89L95.35,96.25L95.14,95.55"/><path d="M95.15,94.86L95.39,94.23"/><path d="M95.39,94.22L96.11,93.23"/><path d="M96.41,94.87L97.58,94.46L98.63,95.22L98.72,95.29L98.70,96.52"/></g></g><g id="Actor_4.1"><g style="stroke:#000000;stroke-width:0.353"><path d="M98.01,66.09L97.92,65.90L97.87,65.58L97.88,65.16L97.94,64.70L98.04,64.25L98.17,63.84L98.33,63.53L98.48,63.36"/><path d="M115.06,67.78L114.84,67.73"/><path d="M115.65,66.64L115.64,66.99"/></g><g style="stroke:#000000;stroke-width:0.705"><path d="M98.65,66.24L98.14,66.14L98.01,66.09L97.82,65.79L97.75,65.64L97.71,65.37L97.71,65.04L97.76,64.66L97.84,64.29L97.95,63.96L98.08,63.71L98.20,63.57L98.48,63.36L98.62,63.33L100.53,63.68"/><path d="M112.18,65.78L112.21,65.69L112.49,65.12L112.78,64.79L113.03,64.74L115.67,65.25L115.71,65.26L115.74,65.29L115.93,65.58L116.04,66.07L116.05,66.43"/><path d="M115.65,66.64L115.25,66.57L114.83,67.74L114.83,68.09"/></g></g><g id="Actor_9.0"><g style="stroke:#000000;stroke-width:0.353"><path d="M113.17,30.08L113.28,30.46L113.61,30.80L114.15,31.08L114.83,31.26L144.42,36.66L145.18,36.74L145.95,36.70L146.65,36.54L147.22,36.29L147.59,35.96L157.99,21.82L158.13,21.45"/><path d="M114.77,29.81L114.97,30.21L115.44,30.57L116.11,30.83L116.50,30.92L116.92,30.98L117.78,30.99L118.59,30.87L119.27,30.63L119.74,30.29L119.96,29.89"/><path d="M118.56,29.81L118.53,29.62L118.37,29.45L118.11,29.30L117.76,29.21L117.37,29.17L116.99,29.19L116.64,29.28L116.37,29.41L116.21,29.58L116.17,29.77"/><path d="M119.11,36.28L119.08,36.19L119.00,36.11L118.87,36.04L118.53,35.94L118.40,35.87L118.33,35.78L118.31,35.68"/><path d="M118.98,35.15L118.92,35.06L118.81,34.98L118.49,34.87L118.38,34.78L118.33,34.69"/><path d="M120.22,38.41L120.21,38.31L120.14,38.23L120.02,38.16L119.86,38.10L119.48,38.05L119.31,38.00L119.19,37.92L119.12,37.82"/><path d="M119.52,37.32L119.48,37.23L119.37,37.15L119.23,37.09L118.86,37.01L118.71,36.94L118.61,36.86L118.57,36.76"/><path d="M119.06,33.97L119.03,33.94L118.75,33.80L118.66,33.71L118.63,33.61"/><path d="M121.20,39.35L121.16,39.26L121.07,39.18L120.93,39.12L120.75,39.08L120.36,39.05L120.18,39.01L120.04,38.93L119.95,38.85L119.93,38.75"/><path d="M121.18,42.97L121.21,40.92"/><path d="M120.70,41.39L120.72,40.08"/><path d="M122.42,40.33L122.42,40.24L122.36,40.15L122.24,40.08L122.09,40.02L121.91,39.99L121.51,39.99L121.32,39.95L121.16,39.89L121.05,39.81L121.00,39.71"/><path d="M122.41,41.72L122.36,44.46"/><path d="M123.89,41.13L123.87,41.04L123.78,40.96L123.65,40.89L123.48,40.84L123.29,40.83L122.90,40.85L122.70,40.83L122.53,40.77L122.40,40.70L122.32,40.61L122.31,40.51"/><path d="M122.27,20.46L122.46,20.83L122.89,21.16L123.50,21.40L123.86,21.48L124.25,21.54L124.94,21.55L125.03,21.55L125.78,21.44L126.40,21.21L126.84,20.90L127.04,20.54"/><path d="M123.83,41.32L123.87,41.41L123.97,41.50L124.12,41.57L124.22,41.59"/><path d="M124.21,45.80L124.24,43.68"/><path d="M129.47,16.95L129.26,17.35L128.78,17.69L128.10,17.93L127.29,18.05L126.43,18.04L126.01,17.98L125.62,17.89L124.95,17.63L124.48,17.27L124.28,16.87"/><path d="M125.16,37.54L125.37,37.50L125.54,37.50L125.83,37.56L127.49,38.09L129.74,38.63L128.50,40.33L128.46,40.40L128.42,40.50L128.39,40.61L128.36,40.84L128.30,44.37L128.31,44.47L128.33,44.54L128.35,44.57"/><path d="M125.69,16.84L125.72,16.65L125.88,16.48L126.15,16.34L126.50,16.26L126.89,16.23L127.27,16.27L127.62,16.36L127.88,16.51L128.04,16.68L128.07,16.87"/><path d="M126.61,46.92L126.65,44.26"/><path d="M128.86,42.30L128.91,42.29L128.98,42.22L129.04,42.10L129.07,42.01"/><path d="M129.05,41.18L129.08,41.19"/><path d="M129.45,47.76L129.50,44.78"/><path d="M129.73,39.77L129.74,38.63"/><path d="M130.47,38.76L132.88,39.08L134.84,39.20L135.20,39.26L135.68,39.45"/><path d="M130.88,16.21L148.92,19.50L148.89,21.68"/><path d="M132.64,45.35L132.59,48.27"/><path d="M133.69,43.55L133.77,43.58L133.87,43.51L133.97,43.35L134.07,43.11L134.15,42.82L134.21,42.51L134.23,42.21L134.21,41.96L134.17,41.79L134.10,41.71L134.00,41.73"/><path d="M133.74,42.23L133.74,42.32L133.73,42.50L133.69,42.68L133.65,42.86L133.60,42.98"/><path d="M145.23,42.36L145.17,42.45L145.04,42.53L144.88,42.58L144.68,42.60L144.48,42.59L144.12,42.51L143.93,42.49L143.74,42.51L143.58,42.55L143.45,42.62L143.37,42.70L143.32,42.89L143.23,42.98L143.09,43.04L142.91,43.08L142.71,43.09L142.51,43.07L142.18,42.97L141.99,42.94L141.80,42.95L141.62,42.98L141.48,43.03L141.38,43.11L141.28,43.29L141.16,43.37L141.00,43.43L140.81,43.46L140.61,43.45L140.42,43.42L140.12,43.29L139.94,43.26L139.75,43.25L139.56,43.27L139.40,43.32L139.28,43.39L139.13,43.56L139.00,43.63L138.83,43.68L138.63,43.70L138.43,43.68L138.25,43.63L137.98,43.49L137.81,43.45L137.62,43.43L137.43,43.43L137.26,43.47L137.12,43.53L136.93,43.69L136.78,43.75L136.59,43.79L136.39,43.79L136.19,43.76L136.03,43.71L135.80,43.55L135.64,43.49L135.46,43.46L135.27,43.46L135.09,43.48L134.93,43.54L134.70,43.68L134.53,43.74L134.43,43.75"/><path d="M135.87,48.44L135.94,44.66"/><path d="M134.87,48.43L134.93,44.53"/><path d="M138.21,44.63L138.15,48.35"/><path d="M141.30,47.91L141.36,44.12"/><path d="M141.83,34.74L142.03,35.14L142.49,35.50L143.17,35.76L143.56,35.85L143.98,35.91L144.83,35.92L145.65,35.80L146.33,35.56L146.80,35.22L147.02,34.82"/><path d="M143.23,34.71L143.27,34.52L143.43,34.35L143.70,34.21L144.04,34.13L144.43,34.10L144.82,34.14L145.16,34.24L145.43,34.38L145.58,34.56L145.61,34.75"/><path d="M144.14,47.15L144.20,43.54"/><path d="M144.37,24.49L144.56,24.86L144.98,25.19L145.60,25.43L145.96,25.51L146.34,25.56L147.13,25.58L147.88,25.47L148.50,25.24L148.94,24.93L149.13,24.57"/><path d="M146.98,41.71L146.94,41.81L146.84,41.89L146.68,41.95L146.50,41.99L146.30,41.99L145.92,41.93L145.73,41.93L145.55,41.96L145.40,42.01L145.29,42.08L145.23,42.17"/><path d="M146.55,46.10L146.60,42.97"/><path d="M148.53,40.96L148.51,41.06L148.44,41.14L148.30,41.22L148.12,41.26L147.93,41.28L147.54,41.24L147.35,41.25L147.18,41.29L147.04,41.35L146.96,41.43L146.92,41.52"/><path d="M148.45,42.12L148.40,44.81"/><path d="M149.87,40.21L149.81,40.30L149.70,40.38L149.54,40.44L149.35,40.46L148.95,40.45L148.77,40.48L148.61,40.53L148.50,40.60L148.43,40.68L148.42,40.78"/><path d="M148.92,19.50L150.73,17.04"/><path d="M149.60,43.35L149.63,41.40"/><path d="M150.97,39.28L150.95,39.38L150.86,39.46L150.71,39.53L150.53,39.57L150.14,39.58L149.96,39.62L149.82,39.68L149.72,39.75L149.68,39.84"/><path d="M151.82,38.38L151.75,38.47L151.63,38.55L151.46,38.60L151.07,38.64L150.91,38.69L150.79,38.75L150.71,38.84L150.70,38.93"/><path d="M151.44,37.86L151.49,37.77L151.59,37.70L151.74,37.64L152.11,37.58L152.26,37.52L152.37,37.44L152.41,37.34"/><path d="M152.71,36.27L152.69,36.36L152.62,36.45L152.48,36.52L152.13,36.61L152.00,36.67L151.92,36.76L151.89,36.85"/><path d="M152.73,35.28L152.67,35.37L152.56,35.45L152.24,35.56L152.13,35.63L152.07,35.72L152.07,35.81"/><path d="M152.47,34.19L152.44,34.29L152.35,34.38L152.06,34.50L151.97,34.58L151.93,34.67"/><path d="M151.34,21.80L151.54,22.21L152.01,22.56L152.68,22.83L153.07,22.92L153.49,22.97L154.35,22.99L155.16,22.87L155.62,22.70L155.84,22.62L156.31,22.29L156.53,21.89"/><path d="M155.13,21.81L155.10,21.62L154.94,21.44L154.68,21.30L154.33,21.20L153.94,21.17L153.56,21.19L153.21,21.27L152.94,21.41L152.78,21.58L152.74,21.77"/></g><g style="stroke:#000000;stroke-width:0.705"><path d="M150.69,19.22L150.73,17.04L132.69,13.75L130.88,16.21L130.85,18.39L148.89,21.68L150.69,19.22L156.47,20.27L157.15,20.46L157.69,20.74L158.02,21.08L158.13,21.45L158.11,22.63L157.97,22.99L147.57,37.14L147.20,37.46L146.64,37.71L145.93,37.87L145.16,37.91L144.40,37.83L143.57,37.68L114.81,32.44L114.13,32.25L113.59,31.97L113.26,31.63L113.15,31.26L113.17,30.08L113.31,29.72L123.71,15.57L124.08,15.25L124.64,14.99L125.35,14.84L126.12,14.80L126.88,14.88L131.27,15.68"/><path d="M114.77,29.81L114.77,29.83L114.97,30.24L115.44,30.59L116.11,30.86L116.50,30.95L116.92,31.00L117.78,31.02L118.59,30.90L119.27,30.65L119.74,30.31L119.96,29.92L119.90,29.48L119.56,29.09L118.98,28.78L118.23,28.57L117.38,28.49L116.54,28.54L115.78,28.73L115.20,29.02L114.84,29.40L114.77,29.81"/><path d="M116.17,29.77L116.27,29.96L116.48,30.12L116.79,30.24L116.97,30.28L117.16,30.31L117.55,30.32L117.93,30.26L118.24,30.15L118.46,29.99L118.56,29.81"/><path d="M118.55,29.82L118.53,29.65L118.37,29.47L118.11,29.33L117.76,29.23L117.37,29.19L116.99,29.22L116.64,29.30L116.37,29.44L116.21,29.61L116.18,29.78"/><path d="M118.57,36.96L118.52,36.95L118.38,36.87L118.31,36.78L118.30,36.68L118.31,35.68L118.37,35.59L118.48,35.51L118.80,35.40L118.91,35.33L118.97,35.24L118.98,35.15"/><path d="M118.31,35.68L118.33,34.69L118.35,34.59L118.43,34.50L118.56,34.43L118.91,34.35L119.04,34.28L119.06,34.26"/><path d="M119.52,37.32L119.51,37.41L119.44,37.49L119.20,37.64L119.13,37.73L119.11,38.83L119.17,38.92L119.29,39.00L119.46,39.06L119.84,39.11L119.92,39.14"/><path d="M119.12,38.07L118.85,38.02L118.69,37.95L118.59,37.86L118.56,37.77L118.57,36.76L118.60,36.67L118.69,36.58L118.98,36.45L119.07,36.37L119.11,36.28"/><path d="M124.23,40.94L123.57,40.62L122.29,39.86L121.14,38.97L120.27,38.07L119.64,37.14L119.59,37.05L119.20,36.08L119.19,35.98L119.04,35.00L119.07,33.21"/><path d="M119.07,33.35L118.93,33.38L118.78,33.44L118.68,33.52L118.63,33.61L118.62,34.42"/><path d="M121.95,42.99L121.56,42.95L121.18,42.97L120.95,42.49L121.00,40.16L120.91,40.12L120.74,40.08L120.35,40.06L120.17,40.01L120.02,39.94L119.94,39.85L119.91,39.75L119.93,38.75L119.97,38.65L120.18,38.49L120.22,38.41"/><path d="M120.72,40.08L120.70,41.39L120.97,41.41"/><path d="M122.30,41.13L122.23,41.08L122.07,41.03L121.89,41.00L121.50,40.99L121.31,40.96L121.15,40.90L121.04,40.81L120.99,40.72L121.00,39.71L121.02,39.62L121.18,39.45L121.20,39.35"/><path d="M121.98,41.01L121.93,44.02L122.36,44.46L122.73,44.40L123.12,44.41L123.49,44.47L123.60,44.52"/><path d="M123.82,42.02L123.76,41.96L123.63,41.89L123.46,41.85L123.27,41.83L122.88,41.85L122.69,41.83L122.51,41.78L122.38,41.70L122.30,41.61L122.29,41.51L122.31,40.51L122.42,40.33"/><path d="M122.75,24.44L122.41,24.18L122.22,23.81L122.27,20.46L122.34,20.08L122.67,19.74L123.20,19.47L123.90,19.30L124.67,19.25L125.45,19.33L126.14,19.52L126.67,19.81L126.98,20.16L127.04,20.54L126.98,23.89L126.78,24.25L126.35,24.56L125.72,24.79L124.98,24.90L124.19,24.89L123.81,24.83L123.45,24.75L122.83,24.51L122.75,24.44"/><path d="M123.64,41.90L123.58,45.42L124.21,45.80L124.53,45.71L124.91,45.67L125.30,45.69L125.65,45.78L125.84,45.87"/><path d="M123.89,41.13L123.83,41.32L123.82,42.32L123.85,42.42L123.95,42.50L124.10,42.57L124.20,42.59"/><path d="M129.04,43.70L128.43,44.53L128.39,44.57L128.35,44.57L124.49,43.87L124.40,43.84L124.32,43.78L124.26,43.71L124.20,43.59L124.19,43.49L124.25,39.95L124.27,39.86L124.29,39.79L124.34,39.71L125.49,38.15"/><path d="M124.75,17.50L124.48,17.30L124.28,16.89L124.36,16.46L124.71,16.08L125.29,15.79L126.05,15.60L126.90,15.55L127.74,15.63L128.49,15.84L129.07,16.16L129.41,16.54L129.47,16.98L129.26,17.38L128.78,17.72L128.10,17.96L127.29,18.08L126.43,18.07L126.01,18.01L125.62,17.92L124.95,17.65L124.75,17.50"/><path d="M125.87,44.12L125.82,46.61L126.61,46.92L126.88,46.79L127.23,46.71L127.61,46.69L127.99,46.74L128.32,46.84L128.56,46.99"/><path d="M125.29,37.61L125.33,37.51"/><path d="M125.52,38.04L125.52,38.02L125.45,38.20"/><path d="M125.69,16.84L125.78,17.02L125.99,17.18L126.30,17.31L126.48,17.35L126.67,17.37L127.07,17.38L127.44,17.32L127.75,17.21L127.97,17.06L128.07,16.87"/><path d="M128.06,16.88L128.04,16.71L127.88,16.53L127.62,16.39L127.27,16.29L126.89,16.26L126.50,16.28L126.15,16.37L125.88,16.50L125.72,16.67L125.69,16.84"/><path d="M131.62,47.86L131.58,47.78L131.38,47.62L131.08,47.50L130.71,47.43L130.32,47.43L129.95,47.48L129.65,47.60L129.45,47.76L128.55,47.53L128.60,44.29"/><path d="M129.01,43.74L129.04,43.75L129.03,44.60L129.05,44.67L129.07,44.70L132.93,45.41L133.07,45.41L133.17,45.38L133.30,45.28L134.45,43.72L134.67,43.53"/><path d="M129.04,43.75L129.08,40.97L129.11,40.74L129.14,40.63L129.18,40.53L129.22,40.46L130.47,38.76"/><path d="M129.05,41.18L128.99,41.22L128.93,41.32L128.87,41.46L128.82,41.64L128.79,41.82L128.78,42.00L128.79,42.15L128.81,42.25L128.86,42.30"/><path d="M145.23,42.17L145.22,43.37L145.15,43.46L145.03,43.53L144.86,43.58L144.66,43.60L144.46,43.59L144.10,43.51L143.91,43.50L143.73,43.52L143.57,43.56L143.43,43.63L143.35,43.71L143.31,43.90L143.22,43.98L143.07,44.05L142.89,44.09L142.69,44.10L142.49,44.07L142.16,43.97L141.97,43.95L141.78,43.95L141.61,43.98L141.46,44.04L141.36,44.12L141.26,44.30L141.15,44.38L140.99,44.43L140.80,44.46L140.59,44.46L140.40,44.42L140.10,44.30L139.92,44.26L139.73,44.26L139.55,44.28L139.39,44.32L139.26,44.39L139.19,44.48L139.13,48.25L138.15,48.35L138.03,48.17L137.79,48.02L137.46,47.91L137.09,47.86L136.70,47.88L136.35,47.96L136.08,48.09L135.91,48.25L135.87,48.44L134.87,48.43L134.83,48.24L134.67,48.07L134.40,47.93L134.05,47.84L133.66,47.82L133.28,47.85L132.95,47.95L132.72,48.10L132.59,48.27L131.61,48.15L131.66,45.17"/><path d="M133.69,43.55L133.62,43.42L133.60,43.21L133.60,42.93L133.64,42.62L133.70,42.32L133.80,42.05L133.90,41.84L134.00,41.73"/><path d="M139.19,44.48L139.12,44.57L138.98,44.64L138.81,44.68L138.61,44.70L138.41,44.68L138.23,44.64L137.96,44.50L137.79,44.45L137.61,44.43L137.42,44.44L137.25,44.48L137.11,44.54L136.91,44.70L136.76,44.76L136.57,44.79L136.37,44.80L136.18,44.77L136.01,44.71L135.78,44.55L135.63,44.50L135.45,44.47L135.26,44.46L135.07,44.49L134.92,44.54L134.68,44.69L134.51,44.74L134.32,44.76L134.12,44.75L133.93,44.71L133.78,44.64"/><path d="M152.00,31.11L151.91,35.88L151.89,35.98L151.63,36.95L151.13,37.89L151.07,37.97L150.33,38.87L149.37,39.72L148.12,40.55L146.75,41.24L145.22,41.85L143.53,42.36L141.72,42.76L139.82,43.05L137.85,43.23L135.84,43.28L135.37,43.32L134.94,43.42L134.63,43.56"/><path d="M142.26,44.00L142.20,47.72L141.30,47.91L141.09,47.75L140.79,47.63L140.43,47.56L140.04,47.56L139.67,47.61L139.37,47.73L139.16,47.88L139.14,47.95"/><path d="M144.98,43.55L144.93,46.86L144.14,47.15L143.87,47.02L143.57,46.94L143.52,46.93L143.14,46.90L142.76,46.94L142.43,47.03L142.21,47.16"/><path d="M142.03,35.17L141.83,34.76L141.90,34.33L142.25,33.96L142.84,33.66L143.60,33.48L144.44,33.42L145.29,33.50L146.04,33.71L146.62,34.03L146.95,34.41L147.02,34.82L147.02,34.85L146.80,35.25L146.33,35.59L145.65,35.83L144.83,35.95L143.98,35.94L143.56,35.88L143.17,35.79L142.49,35.52L142.03,35.17"/><path d="M143.23,34.71L143.33,34.89L143.54,35.05L143.85,35.18L144.03,35.22L144.22,35.24L144.61,35.25L144.98,35.19L145.30,35.08L145.51,34.93L145.61,34.75"/><path d="M143.24,34.71L143.27,34.54L143.43,34.37L143.70,34.24L144.04,34.15L144.43,34.13L144.82,34.16L145.16,34.26L145.43,34.40L145.58,34.58L145.61,34.75"/><path d="M144.32,27.84L144.50,28.21L144.93,28.54L145.55,28.78L145.91,28.86L146.29,28.91L147.07,28.93L147.82,28.82L148.45,28.59L148.88,28.28L149.08,27.92L149.13,24.57L149.08,24.19L148.76,23.83L148.24,23.55L147.55,23.36L146.77,23.28L145.99,23.33L145.30,23.50L144.76,23.77L144.44,24.11L144.37,24.49L144.32,27.84"/><path d="M144.94,46.12L145.11,46.04L145.46,45.96L145.85,45.95L146.23,46.00L146.55,46.10L147.18,45.73L147.24,42.28"/><path d="M146.92,41.52L146.98,41.71L146.96,42.72L146.92,42.81L146.82,42.90L146.67,42.96L146.48,42.99L146.28,42.99L145.90,42.94L145.71,42.93L145.53,42.96L145.38,43.02L145.27,43.09L145.22,43.17"/><path d="M148.89,41.47L148.84,44.38L148.40,44.81L148.04,44.74L147.65,44.74L147.28,44.79L147.19,44.82"/><path d="M148.42,40.78L148.53,40.96L148.51,41.96L148.50,42.06L148.42,42.15L148.28,42.22L148.11,42.27L147.91,42.28L147.52,42.25L147.33,42.26L147.16,42.30L147.03,42.36L146.97,42.41"/><path d="M148.85,43.35L149.21,43.32L149.60,43.35L149.82,42.88L149.85,41.21L149.80,41.31L149.68,41.39L149.52,41.44L149.33,41.47L148.94,41.46L148.76,41.48L148.60,41.53L148.52,41.58"/><path d="M149.84,41.79L150.08,41.78L150.10,40.59"/><path d="M150.70,38.93L150.74,39.02L150.94,39.18L150.97,39.28L150.96,40.28L150.93,40.38L150.84,40.47L150.69,40.53L150.51,40.57L150.12,40.59L149.95,40.62L149.86,40.66"/><path d="M149.85,41.21L149.87,40.21L149.85,40.11L149.70,39.93L149.68,39.84"/><path d="M151.44,37.86L151.45,37.95L151.51,38.04L151.75,38.19L151.82,38.29L151.80,39.39L151.73,39.48L151.61,39.55L151.44,39.61L151.06,39.64L150.97,39.67"/><path d="M151.81,38.63L152.09,38.58L152.25,38.52L152.35,38.44L152.39,38.35L152.41,37.34L152.38,37.24L152.29,37.16L152.01,37.02L151.93,36.94L151.89,36.85"/><path d="M152.07,35.81L152.12,35.90L152.23,35.97L152.55,36.09L152.66,36.17L152.71,36.27L152.69,37.27L152.68,37.37L152.60,37.46L152.46,37.53L152.40,37.54"/><path d="M151.93,34.67L151.96,34.76L152.04,34.85L152.17,34.92L152.51,35.01L152.64,35.09L152.72,35.18L152.73,35.28L152.71,36.28"/><path d="M152.46,35.00L152.47,34.19L152.43,34.10L152.33,34.01L152.18,33.95L151.95,33.90"/><path d="M152.34,22.72L152.01,22.59L151.54,22.23L151.34,21.83L151.41,21.39L151.76,21.02L152.35,20.72L153.11,20.54L153.95,20.48L154.80,20.57L155.55,20.78L156.13,21.09L156.46,21.47L156.53,21.91L156.31,22.31L155.84,22.65L155.16,22.89L154.34,23.01L153.49,23.00L153.07,22.94L152.68,22.85L152.34,22.72"/><path d="M155.13,21.81L155.03,21.99L154.81,22.15L154.50,22.26L154.12,22.31L153.73,22.31L153.54,22.28L153.36,22.24L153.05,22.12L152.84,21.96L152.74,21.77"/><path d="M152.75,21.78L152.78,21.61L152.94,21.44L153.21,21.30L153.55,21.22L153.94,21.19L154.33,21.23L154.68,21.32L154.94,21.47L155.10,21.64L155.12,21.81"/></g></g><g id="Actor_6.0"><g style="stroke:#000000;stroke-width:0.353"><path d="M121.76,171.70L121.96,172.85L122.64,173.97L123.79,175.00L123.84,175.03L125.35,175.90L127.26,176.63L129.43,177.15L131.76,177.45L134.16,177.51L136.52,177.32L138.73,176.91L140.70,176.27L142.35,175.45L143.60,174.48L144.39,173.40L144.70,172.25"/><path d="M122.53,172.12L122.86,173.16L123.69,174.22L124.96,175.17L126.63,175.97L128.60,176.59L130.42,176.92L130.79,176.99L133.09,177.15L135.40,177.08L137.61,176.76L139.62,176.22L141.32,175.48L142.65,174.58L143.53,173.56L143.94,172.47"/><path d="M125.17,190.92L126.44,191.74L128.07,192.40L129.96,192.87L130.98,192.99L132.00,193.12L134.10,193.13L136.14,192.92L138.01,192.47L139.60,191.84L140.84,191.03"/><path d="M125.51,173.32L126.66,173.88L128.63,174.50L130.82,174.89L133.13,175.06L135.44,174.98L137.65,174.67L139.65,174.13L140.97,173.56"/><path d="M130.00,174.29L132.16,174.56L134.35,174.58L136.48,174.38L136.56,174.36"/></g><g style="stroke:#000000;stroke-width:0.705"><path d="M121.77,171.67L121.76,171.70L121.69,176.39L121.88,177.54L122.57,178.66L123.72,179.69L125.28,180.59L127.18,181.32L128.20,181.56L129.35,181.84L131.68,182.14L134.08,182.20L136.44,182.01L138.65,181.59L140.63,180.96L142.27,180.14L143.52,179.17L144.32,178.09L144.62,176.94L144.70,172.25L144.67,172.07"/><path d="M142.12,180.22L141.99,189.11L141.65,190.11L140.84,191.03L140.46,191.30L139.28,192.07L137.76,192.68L135.98,193.10L135.90,193.11L134.04,193.30L132.04,193.29L130.09,193.05L128.29,192.61L126.75,191.97L125.54,191.19L125.17,190.92L124.32,189.98L123.93,188.98L124.07,179.89"/><path d="M142.09,180.23L141.21,181.10L139.87,181.89L138.20,182.51L136.27,182.93L134.18,183.13L132.04,183.10L129.95,182.85L128.03,182.37L126.35,181.70L125.02,180.88L124.10,179.94L124.08,179.90"/></g></g><g id="Actor_5.0"><g style="stroke:#000000;stroke-width:0.353"><path d="M153.79,96.22L152.25,96.37L152.14,96.25L151.11,95.14L151.50,93.76"/><path d="M151.11,95.14L151.74,94.27L151.90,93.72"/><path d="M152.25,96.37L152.89,95.51L151.74,94.27"/><path d="M153.44,94.04L152.90,95.31L152.49,95.05L152.31,94.89L152.16,94.70L151.96,94.29L151.90,93.86L151.92,93.72"/><path d="M152.90,95.31L153.36,95.43L153.66,95.43L152.89,95.51"/><path d="M152.49,95.05L153.38,93.97"/><path d="M154.05,95.31L153.80,95.41L153.66,95.43L154.03,95.40"/><path d="M153.89,94.52L154.12,95.08"/></g><g style="stroke:#000000;stroke-width:0.705"><path d="M150.44,92.39L149.84,93.19L149.58,93.95L149.56,94.74L149.78,95.55L149.78,95.57L150.21,96.33L150.82,96.98L151.57,97.49L152.39,97.80L153.24,97.91L153.27,97.91L154.08,97.80L154.79,97.47L154.82,97.45L155.37,96.93L156.65,95.20L156.93,94.55"/><path d="M153.79,96.22L154.19,94.85L153.04,93.61L151.50,93.76"/></g></g><g id="Actor_2.0"><g style="stroke:#000000;stroke-width:0.353"><path d="M121.42,128.19L121.41,128.18"/><path d="M121.17,128.00L122.66,129.10L124.54,130.06L126.03,130.59L126.73,130.83L129.18,131.41L131.79,131.76L134.47,131.87L136.99,131.75L137.14,131.74L139.71,131.38L142.08,130.80L144.17,130.01L145.92,129.04"/><path d="M149.58,43.35L149.53,43.49L148.64,44.70L147.29,45.81L145.55,46.77L143.45,47.56L141.08,48.14L138.52,48.51L135.85,48.63L133.16,48.52L130.55,48.17L128.11,47.60L125.91,46.82L124.04,45.87L122.55,44.77L121.50,43.56L121.23,42.96"/><path d="M121.64,42.96L121.78,43.27L121.94,43.46"/><path d="M120.86,41.40L120.92,42.28L120.96,42.36"/><path d="M123.59,45.03L122.81,44.45L122.76,44.40"/><path d="M124.59,45.70L125.83,46.33"/><path d="M126.96,46.77L128.26,47.23L128.55,47.30"/><path d="M131.62,47.92L130.65,47.79L129.72,47.57"/><path d="M132.76,48.07L133.21,48.13L134.80,48.20"/><path d="M135.91,48.24L137.99,48.14"/><path d="M139.13,48.02L140.97,47.76L141.08,47.74"/><path d="M143.81,47.00L143.30,47.19L142.20,47.46"/><path d="M146.14,45.98L145.35,46.42L144.93,46.57"/><path d="M147.18,45.37L147.95,44.74"/><path d="M148.85,43.75L149.16,43.32"/><path d="M149.94,42.21L149.83,42.56"/></g><g style="stroke:#000000;stroke-width:0.705"><path d="M148.90,105.32L148.56,125.44L148.15,126.72L147.26,127.93L145.92,129.04L145.68,129.21L143.97,130.16L141.91,130.93L139.59,131.50L137.08,131.86L134.46,131.98L131.83,131.87L129.27,131.53L126.87,130.97L124.72,130.21L122.88,129.27L121.42,128.19L121.17,128.00L120.12,126.79L119.54,125.52L119.46,124.22L119.78,104.83"/><path d="M120.83,41.40L120.28,74.80"/><path d="M149.91,41.79L149.94,42.21L149.38,76.05"/></g></g><g id="Actor_7.0"><g style="stroke:#000000;stroke-width:0.353"><path d="M104.12,59.65L95.25,71.71L94.36,72.07L94.94,73.02L94.90,75.38"/><path d="M106.12,77.43L94.94,73.02L95.25,71.71L106.72,76.24L107.06,75.78"/><path d="M105.38,74.75L106.43,73.32L106.66,73.51L106.78,73.88"/><path d="M106.66,77.53L106.72,76.24L107.88,77.54L107.09,77.60"/><path d="M106.43,73.32L107.40,73.52L108.51,73.80L113.72,66.72"/><path d="M107.88,77.54L107.96,77.44"/><path d="M109.90,74.79L109.90,74.74L109.64,74.52L108.66,73.87L108.51,73.80"/><path d="M114.62,68.38L109.94,74.75L109.90,74.74"/><path d="M112.04,65.69L113.09,64.26L113.32,64.45L113.44,64.82"/><path d="M113.09,64.26L114.06,64.47L115.17,64.74L115.54,64.25L116.69,65.56L116.59,65.69L116.56,65.68L116.56,65.74"/><path d="M115.17,64.74L115.32,64.82L116.30,65.47L116.56,65.68"/></g><g style="stroke:#000000;stroke-width:0.705"><path d="M116.69,65.56L116.11,64.79L115.54,64.25L104.12,59.65L103.24,59.99L94.36,72.07L94.30,75.44"/><path d="M107.96,77.44L107.95,77.40L107.75,77.10L107.13,75.95L107.06,75.78L106.14,75.24L105.38,74.75"/><path d="M112.04,65.69L112.80,66.18L113.72,66.72L113.79,66.89L114.41,68.04L114.60,68.34L114.62,68.38"/></g></g><g id="Actor_3.1"><g style="stroke:#000000;stroke-width:0.353"><path d="M96.58,84.65L96.56,85.89L97.71,86.72L98.12,86.16L98.88,85.89"/><path d="M96.56,85.89L96.98,85.33L98.12,86.16"/><path d="M96.98,85.33L96.99,84.51"/><path d="M98.33,84.66L97.55,85.74L97.35,85.56L97.12,85.24L97.00,84.89L96.99,84.71L97.00,84.53L97.02,84.50"/><path d="M97.71,86.72L98.87,86.31"/><path d="M97.55,85.74L97.66,85.82L98.03,85.97L98.41,86.01L98.70,85.95L98.76,85.93L98.88,85.85"/><path d="M97.66,85.82L98.34,84.67"/><path d="M98.70,84.93L98.89,85.13"/></g><g style="stroke:#000000;stroke-width:0.705"><path d="M95.32,84.65L95.31,85.33"/><path d="M95.31,85.33L95.52,86.04L95.92,86.67L96.49,87.20L97.16,87.57L97.89,87.76L98.63,87.74L99.27,87.51L99.80,87.09L100.53,86.08"/><path d="M95.32,84.64L95.56,84.01"/><path d="M95.56,84.01L96.28,83.01"/><path d="M96.58,84.65L97.75,84.24L98.89,85.07L98.87,86.31"/></g></g><g/><g/><g id="paperID" visibility="hidden" opacity="0.00" transform="scale(0.000100)"><path style="stroke:#000000;stroke-width:0.500;fill:#e6e6e6;fill-rule:evenodd" d="M-2000.00,-2000.00L2297.00,-2000.00L2297.00,2210.00L-2000.00,2210.00zM0.00,0.00L297.00,0.00L297.00,210.00L0.00,210.00z"/><path style="fill:#000000;fill-opacity:0.118" d="M3.00,210.00L297.00,210.00L297.00,3.00L300.00,3.00L300.00,213.00L3.00,213.00z"/></g><g><g><path style="stroke:#000000;stroke-width:0.353;fill:#f0f0ff" d="M15.56,86.21L72.69,86.21L72.69,89.88L15.56,89.88z"/><text xml:space="preserve" fill="#000000" stroke-width="0" x="16.97" y="89.03" font-size="1.96" opacity="1.00" font-family="Segoe UI" font-weight="bold">ID</text><text xml:space="preserve" fill="#000000" stroke-width="0" x="22.08" y="89.03" font-size="2.15" opacity="1.00" font-family="Segoe UI" font-weight="bold">Part Name</text><text xml:space="preserve" fill="#000000" stroke-width="0" x="67.39" y="89.03" font-size="2.13" opacity="1.00" font-family="Segoe UI" font-weight="bold">Qty</text><path style="stroke:#000000;stroke-width:0.353" d="M20.67,86.21L20.67,89.88"/><path style="stroke:#000000;stroke-width:0.353" d="M65.98,86.21L65.98,89.88"/></g><g id="Line1"><path style="stroke:#000000;stroke-width:0.353;fill:#ffffff" d="M15.56,89.88L72.69,89.88L72.69,93.55L15.56,93.55z"/><text xml:space="preserve" fill="#000000" stroke-width="0" x="16.97" y="92.70" font-size="1.86" opacity="1.00" font-family="Segoe UI">1</text><text xml:space="preserve" fill="#000000" stroke-width="0" x="22.08" y="92.70" font-size="2.34" opacity="1.00" font-family="Segoe UI">50mm Extension Spacer</text><text xml:space="preserve" fill="#000000" stroke-width="0" x="67.39" y="92.70" font-size="1.86" opacity="1.00" font-family="Segoe UI">1</text><path style="stroke:#000000;stroke-width:0.353" d="M20.67,89.88L20.67,93.55"/><path style="stroke:#000000;stroke-width:0.353" d="M65.98,89.88L65.98,93.55"/></g><g id="Line2"><path style="stroke:#000000;stroke-width:0.353;fill:#f0f0ff" d="M15.56,93.55L72.69,93.55L72.69,97.22L15.56,97.22z"/><text xml:space="preserve" fill="#000000" stroke-width="0" x="16.97" y="96.37" font-size="2.11" opacity="1.00" font-family="Segoe UI">2</text><text xml:space="preserve" fill="#000000" stroke-width="0" x="22.08" y="96.37" font-size="2.31" opacity="1.00" font-family="Segoe UI">CML100</text><text xml:space="preserve" fill="#000000" stroke-width="0" x="67.39" y="96.37" font-size="1.86" opacity="1.00" font-family="Segoe UI">1</text><path style="stroke:#000000;stroke-width:0.353" d="M20.67,93.55L20.67,97.22"/><path style="stroke:#000000;stroke-width:0.353" d="M65.98,93.55L65.98,97.22"/></g><g id="Line3"><path style="stroke:#000000;stroke-width:0.353;fill:#ffffff" d="M15.56,97.22L72.69,97.22L72.69,100.89L15.56,100.89z"/><text xml:space="preserve" fill="#000000" stroke-width="0" x="16.97" y="100.04" font-size="2.09" opacity="1.00" font-family="Segoe UI">3</text><text xml:space="preserve" fill="#000000" stroke-width="0" x="22.08" y="100.04" font-size="2.33" opacity="1.00" font-family="Segoe UI">M3x12mm Socket Head</text><text xml:space="preserve" fill="#000000" stroke-width="0" x="67.39" y="100.04" font-size="2.31" opacity="1.00" font-family="Segoe UI">4</text><path style="stroke:#000000;stroke-width:0.353" d="M20.67,97.22L20.67,100.89"/><path style="stroke:#000000;stroke-width:0.353" d="M65.98,97.22L65.98,100.89"/></g><g id="Line4"><path style="stroke:#000000;stroke-width:0.353;fill:#f0f0ff" d="M15.56,100.89L72.69,100.89L72.69,104.55L15.56,104.55z"/><text xml:space="preserve" fill="#000000" stroke-width="0" x="16.97" y="103.71" font-size="2.31" opacity="1.00" font-family="Segoe UI">4</text><text xml:space="preserve" fill="#000000" stroke-width="0" x="22.08" y="103.71" font-size="2.33" opacity="1.00" font-family="Segoe UI">M3x16mm Socket Head</text><text xml:space="preserve" fill="#000000" stroke-width="0" x="67.39" y="103.71" font-size="2.31" opacity="1.00" font-family="Segoe UI">4</text><path style="stroke:#000000;stroke-width:0.353" d="M20.67,100.89L20.67,104.55"/><path style="stroke:#000000;stroke-width:0.353" d="M65.98,100.89L65.98,104.55"/></g><g id="Line5"><path style="stroke:#000000;stroke-width:0.353;fill:#ffffff" d="M15.56,104.55L72.69,104.55L72.69,108.22L15.56,108.22z"/><text xml:space="preserve" fill="#000000" stroke-width="0" x="16.97" y="107.38" font-size="2.00" opacity="1.00" font-family="Segoe UI">5</text><text xml:space="preserve" fill="#000000" stroke-width="0" x="22.08" y="107.38" font-size="2.33" opacity="1.00" font-family="Segoe UI">M4x20mm Socket Head</text><text xml:space="preserve" fill="#000000" stroke-width="0" x="67.39" y="107.38" font-size="1.86" opacity="1.00" font-family="Segoe UI">1</text><path style="stroke:#000000;stroke-width:0.353" d="M20.67,104.55L20.67,108.22"/><path style="stroke:#000000;stroke-width:0.353" d="M65.98,104.55L65.98,108.22"/></g><g id="Line6"><path style="stroke:#000000;stroke-width:0.353;fill:#f0f0ff" d="M15.56,108.22L72.69,108.22L72.69,111.89L15.56,111.89z"/><text xml:space="preserve" fill="#000000" stroke-width="0" x="16.97" y="111.04" font-size="2.11" opacity="1.00" font-family="Segoe UI">6</text><text xml:space="preserve" fill="#000000" stroke-width="0" x="22.08" y="111.04" font-size="2.34" opacity="1.00" font-family="Segoe UI">Objective Lens</text><text xml:space="preserve" fill="#000000" stroke-width="0" x="67.39" y="111.04" font-size="1.86" opacity="1.00" font-family="Segoe UI">1</text><path style="stroke:#000000;stroke-width:0.353" d="M20.67,108.22L20.67,111.89"/><path style="stroke:#000000;stroke-width:0.353" d="M65.98,108.22L65.98,111.89"/></g><g id="Line7"><path style="stroke:#000000;stroke-width:0.353;fill:#ffffff" d="M15.56,111.89L72.69,111.89L72.69,115.56L15.56,115.56z"/><text xml:space="preserve" fill="#000000" stroke-width="0" x="16.97" y="114.71" font-size="2.14" opacity="1.00" font-family="Segoe UI">7</text><text xml:space="preserve" fill="#000000" stroke-width="0" x="22.08" y="114.71" font-size="2.35" opacity="1.00" font-family="Segoe UI">Optical Subassembly Z Leadscrew Mount</text><text xml:space="preserve" fill="#000000" stroke-width="0" x="67.39" y="114.71" font-size="1.86" opacity="1.00" font-family="Segoe UI">1</text><path style="stroke:#000000;stroke-width:0.353" d="M20.67,111.89L20.67,115.56"/><path style="stroke:#000000;stroke-width:0.353" d="M65.98,111.89L65.98,115.56"/></g><g id="Line8"><path style="stroke:#000000;stroke-width:0.353;fill:#f0f0ff" d="M15.56,115.56L72.69,115.56L72.69,119.23L15.56,119.23z"/><text xml:space="preserve" fill="#000000" stroke-width="0" x="16.97" y="118.38" font-size="2.15" opacity="1.00" font-family="Segoe UI">8</text><text xml:space="preserve" fill="#000000" stroke-width="0" x="22.08" y="118.38" font-size="2.35" opacity="1.00" font-family="Segoe UI">Optical Tube Clamp</text><text xml:space="preserve" fill="#000000" stroke-width="0" x="67.39" y="118.38" font-size="1.86" opacity="1.00" font-family="Segoe UI">1</text><path style="stroke:#000000;stroke-width:0.353" d="M20.67,115.56L20.67,119.23"/><path style="stroke:#000000;stroke-width:0.353" d="M65.98,115.56L65.98,119.23"/></g><g id="Line9"><path style="stroke:#000000;stroke-width:0.353;fill:#ffffff" d="M15.56,119.23L72.69,119.23L72.69,122.89L15.56,122.89z"/><text xml:space="preserve" fill="#000000" stroke-width="0" x="16.97" y="122.05" font-size="2.15" opacity="1.00" font-family="Segoe UI">9</text><text xml:space="preserve" fill="#000000" stroke-width="0" x="22.08" y="122.05" font-size="2.33" opacity="1.00" font-family="Segoe UI">Raspberry Pi HQ Camera</text><text xml:space="preserve" fill="#000000" stroke-width="0" x="67.39" y="122.05" font-size="1.86" opacity="1.00" font-family="Segoe UI">1</text><path style="stroke:#000000;stroke-width:0.353" d="M20.67,119.23L20.67,122.89"/><path style="stroke:#000000;stroke-width:0.353" d="M65.98,119.23L65.98,122.89"/></g></g><g id="hotspot.0" ident="" onmouseover="ShowHotSpot(evt,&apos;0&apos;)" onmouseout="HideHotSpot(evt,&apos;0&apos;)" onmousemove="ShowToolTip(evt,&apos;0&apos;,&quot;50mm Extension Spacer&quot;)" opacity="0"><path style="fill:#00ff00;fill-rule:evenodd" d="M15.56,89.88L15.56,93.55L72.69,93.55L72.69,89.88zM120.93,127.75L123.14,129.51L126.84,131.01L130.83,131.74L137.69,131.74L141.24,131.07L144.63,129.76L147.34,127.75L147.84,126.99L147.92,144.64L148.20,145.11L148.18,159.83L147.87,168.45L146.94,170.25L145.73,171.26L143.22,172.73L139.25,173.96L135.70,174.38L131.32,174.38L127.59,173.89L124.13,172.90L122.42,172.12L119.93,170.40L118.94,169.16L118.66,168.45L118.68,153.88L118.91,144.70L119.43,143.73L119.90,126.53z"/></g><g id="hotspot.1" ident="" onmouseover="ShowHotSpot(evt,&apos;1&apos;)" onmouseout="HideHotSpot(evt,&apos;1&apos;)" onmousemove="ShowToolTip(evt,&apos;1&apos;,&quot;CML100&quot;)" opacity="0"><path style="fill:#00ff00;fill-rule:evenodd" d="M15.56,93.55L15.56,97.22L72.69,97.22L72.69,93.55zM121.65,42.98L121.88,44.23L123.39,44.46L123.64,45.47L123.89,45.72L125.40,45.67L125.86,46.70L127.86,46.67L128.32,46.97L128.54,47.49L129.51,47.71L129.99,47.42L130.84,47.41L132.05,48.22L132.79,48.01L134.31,47.93L134.56,48.16L135.93,48.16L136.19,47.93L137.53,47.93L137.78,48.16L139.00,48.26L139.39,47.66L141.97,47.76L142.44,46.99L144.64,46.95L144.89,46.22L145.37,45.91L146.63,46.00L146.93,45.78L147.12,44.97L147.60,44.69L148.34,44.72L148.69,44.31L148.85,43.48L149.70,43.24L149.67,54.21L149.18,76.53L148.68,78.52L147.84,78.67L147.19,79.26L144.39,80.67L140.49,81.73L136.45,82.15L134.54,82.15L131.07,81.90L127.34,81.17L125.13,80.41L123.42,79.64L121.92,78.66L120.68,77.17L120.40,76.46L120.41,62.15L120.79,42.74zM128.10,106.20L136.94,106.20L148.69,105.45L148.43,125.62L148.18,126.36L147.34,127.75L144.63,129.76L141.24,131.07L137.69,131.74L130.83,131.74L126.84,131.01L123.14,129.51L120.93,127.75L119.91,126.53L119.65,126.05L119.42,124.80L119.67,107.27L119.84,104.93z"/></g><g id="hotspot.2" ident="" onmouseover="ShowHotSpot(evt,&apos;2&apos;)" onmouseout="HideHotSpot(evt,&apos;2&apos;)" onmousemove="ShowToolTip(evt,&apos;2&apos;,&quot;socket head cap screw_iso&quot;)" opacity="0"><path style="fill:#00ff00;fill-rule:evenodd" d="M15.56,97.22L15.56,100.89L72.69,100.89L72.69,97.22zM98.35,83.14L99.37,83.85L100.35,85.37L100.35,86.20L99.74,87.10L98.78,87.62L97.34,87.62L95.88,86.85L95.36,85.88L95.35,84.19L96.34,82.95L97.35,82.89zM99.12,94.02L100.09,95.52L100.10,96.63L98.78,97.79L96.84,97.79L95.38,96.52L95.11,95.80L95.11,94.61L96.02,93.29L98.11,93.30z"/></g><g id="hotspot.3" ident="" onmouseover="ShowHotSpot(evt,&apos;3&apos;)" onmouseout="HideHotSpot(evt,&apos;3&apos;)" onmousemove="ShowToolTip(evt,&apos;3&apos;,&quot;M3x16mm Socket Head&quot;)" opacity="0"><path style="fill:#00ff00;fill-rule:evenodd" d="M15.56,100.89L15.56,104.55L72.69,104.55L72.69,100.89zM100.32,63.80L98.75,66.04L97.84,66.05L97.85,63.89L98.60,63.32zM114.71,65.04L115.72,65.52L115.97,66.36L114.86,68.03L114.23,68.03L113.51,66.74L112.15,65.85L112.38,65.02L112.64,64.75zM93.91,72.70L94.16,72.94L94.06,75.47L92.89,75.46L91.63,75.23L91.16,74.96L91.14,73.04L91.55,72.46zM108.53,74.20L108.99,74.48L109.29,74.96L109.28,75.53L107.98,77.29L107.71,77.30L106.78,75.70L105.53,74.95L105.50,74.55L105.93,73.94z"/></g><g id="hotspot.4" ident="" onmouseover="ShowHotSpot(evt,&apos;4&apos;)" onmouseout="HideHotSpot(evt,&apos;4&apos;)" onmousemove="ShowToolTip(evt,&apos;4&apos;,&quot;M4x20mm Socket Head&quot;)" opacity="0"><path style="fill:#00ff00;fill-rule:evenodd" d="M15.56,104.55L15.56,108.22L72.69,108.22L72.69,104.55zM155.38,92.31L156.63,93.54L156.62,95.13L155.28,97.01L154.06,97.78L152.13,97.78L150.42,96.77L149.66,95.55L149.65,93.37L150.82,92.06L151.82,91.82L154.14,91.81z"/></g><g id="hotspot.5" ident="" onmouseover="ShowHotSpot(evt,&apos;5&apos;)" onmouseout="HideHotSpot(evt,&apos;5&apos;)" onmousemove="ShowToolTip(evt,&apos;5&apos;,&quot;Objective Lens&quot;)" opacity="0"><path style="fill:#00ff00;fill-rule:evenodd" d="M15.56,108.22L15.56,111.89L72.69,111.89L72.69,108.22zM122.43,172.11L124.13,172.90L127.59,173.89L131.32,174.38L135.70,174.38L139.25,173.96L143.22,172.73L144.49,172.15L144.47,177.19L143.65,178.86L142.16,180.09L141.75,189.60L141.02,190.60L139.99,191.56L138.01,192.56L134.46,193.22L131.57,193.22L128.83,192.74L126.63,191.97L124.90,190.72L124.12,189.76L123.87,189.02L123.88,179.84L122.42,178.58L121.91,177.84L121.65,176.61L121.65,173.96L121.83,171.87L122.13,171.86z"/></g><g id="hotspot.6" ident="" onmouseover="ShowHotSpot(evt,&apos;6&apos;)" onmouseout="HideHotSpot(evt,&apos;6&apos;)" onmousemove="ShowToolTip(evt,&apos;6&apos;,&quot;Optical Subassembly Z Leadscrew Mount&quot;)" opacity="0"><path style="fill:#00ff00;fill-rule:evenodd" d="M15.56,111.89L15.56,115.56L72.69,115.56L72.69,111.89zM115.46,64.29L116.47,65.28L116.19,66.11L115.97,66.06L115.46,65.28L112.64,64.75L112.38,65.02L112.15,65.85L113.51,66.74L114.47,68.37L109.65,74.98L109.28,74.97L108.99,74.48L108.53,74.20L105.93,73.94L105.50,74.55L105.53,74.95L106.78,75.70L107.79,77.44L106.28,77.44L94.29,75.30L94.39,71.83L103.19,60.05L103.46,59.82L104.56,59.82z"/></g><g id="hotspot.7" ident="" onmouseover="ShowHotSpot(evt,&apos;7&apos;)" onmouseout="HideHotSpot(evt,&apos;7&apos;)" onmousemove="ShowToolTip(evt,&apos;7&apos;,&quot;Optical Tube Clamp&quot;)" opacity="0"><path style="fill:#00ff00;fill-rule:evenodd" d="M15.56,115.56L15.56,119.23L72.69,119.23L72.69,115.56zM120.41,60.09L120.40,76.46L120.68,77.17L121.92,78.66L123.42,79.64L125.13,80.41L127.34,81.17L131.07,81.90L134.54,82.15L136.45,82.15L140.49,81.73L144.39,80.67L147.19,79.26L147.84,78.67L148.68,78.52L149.18,76.53L149.42,69.34L149.59,66.76L149.90,66.73L167.26,76.71L167.78,77.67L167.77,91.90L167.53,97.36L165.77,99.82L164.71,100.25L164.56,101.34L163.06,103.55L162.25,104.23L136.94,106.20L128.10,106.20L120.41,104.96L91.88,99.77L90.66,99.25L90.66,85.20L90.91,79.51L94.03,75.44L95.37,75.46L106.28,77.44L107.93,77.44L116.48,65.62L116.24,65.01L114.96,64.05L105.19,60.07L107.17,57.84L108.76,57.86zM98.35,83.14L99.37,83.85L100.35,85.37L100.35,86.20L99.74,87.10L98.78,87.62L97.34,87.62L95.88,86.85L95.36,85.88L95.35,84.19L96.34,82.95L97.35,82.89zM155.38,92.31L156.63,93.54L156.62,95.13L155.28,97.01L154.06,97.78L152.13,97.78L150.42,96.77L149.66,95.55L149.65,93.37L150.82,92.06L151.82,91.82L154.14,91.81zM99.12,94.02L100.09,95.52L100.10,96.63L98.78,97.79L96.84,97.79L95.38,96.52L95.11,95.80L95.11,94.61L96.02,93.29L98.11,93.30z"/></g><g id="hotspot.8" ident="" onmouseover="ShowHotSpot(evt,&apos;8&apos;)" onmouseout="HideHotSpot(evt,&apos;8&apos;)" onmousemove="ShowToolTip(evt,&apos;8&apos;,&quot;Raspberry Pi HQ Camera&quot;)" opacity="0"><path style="fill:#00ff00;fill-rule:evenodd" d="M15.56,119.23L15.56,122.89L72.69,122.89L72.69,119.23zM150.20,16.91L150.44,17.16L150.57,19.27L156.87,20.41L157.87,21.14L157.86,22.98L152.15,30.67L151.84,33.86L152.12,34.08L152.41,35.02L152.67,35.30L152.40,37.35L151.67,39.36L150.84,39.77L150.67,40.33L150.09,40.75L149.70,43.09L148.85,43.48L148.69,44.31L148.34,44.72L147.60,44.69L147.12,44.97L146.93,45.78L146.63,46.00L145.37,45.91L144.89,46.22L144.64,46.95L142.44,46.99L141.97,47.76L139.39,47.66L139.00,48.26L137.78,48.16L137.53,47.93L136.19,47.93L135.93,48.16L134.56,48.16L134.31,47.93L132.79,48.01L132.05,48.22L130.84,47.41L129.99,47.42L129.51,47.71L128.54,47.49L128.32,46.97L127.86,46.67L125.86,46.70L125.40,45.67L123.89,45.72L123.64,45.47L123.39,44.46L121.88,44.23L121.65,42.98L120.90,42.74L120.44,40.22L119.86,39.81L119.64,39.28L119.18,39.00L118.90,38.05L118.63,37.82L118.42,37.03L118.42,34.37L118.65,33.56L118.91,33.30L114.20,32.33L113.22,31.82L113.24,29.68L123.90,15.31L124.53,14.95L127.35,14.96L130.08,15.45L131.31,15.53L132.45,13.94L133.80,13.97z"/></g><g id="ToolTip" visibility="hidden" opacity="0" transform="translate(0,0)"><rect id="ToolTipShadow" opacity="0.20" fill="black" stroke="none" x="0" y="0" width="30" height="8"/><rect id="ToolTipBG" fill="#ffffe1" stroke="black" x="0" y="0" width="30" height="8"/><text xml:space="preserve" id="ToolTipText" fill="black" x="0" y="0" width="30" height="8">tooltip</text></g></g></svg>